G04 (created by PCBNEW (2013-07-07 BZR 4022)-stable) date 03/02/2014 00:35:57*
%MOIN*%
G04 Gerber Fmt 3.4, Leading zero omitted, Abs format*
%FSLAX34Y34*%
G01*
G70*
G90*
G04 APERTURE LIST*
%ADD10C,0.00590551*%
%ADD11C,0.00393701*%
%ADD12C,0.0334646*%
%ADD13R,0.0787X0.06*%
%ADD14O,0.0787X0.06*%
%ADD15R,0.06X0.0866*%
%ADD16O,0.06X0.0866*%
%ADD17R,0.0334646X0.0334646*%
%ADD18R,0.0346457X0.0472441*%
%ADD19O,0.0346457X0.0472441*%
%ADD20C,0.1181*%
%ADD21C,0.035*%
%ADD22C,0.01*%
G04 APERTURE END LIST*
G54D10*
G54D11*
X10236Y-16535D02*
X10236Y-13779D01*
X0Y-16535D02*
X10236Y-16535D01*
X0Y-13779D02*
X0Y-16535D01*
X0Y0D02*
X10236Y0D01*
X0Y-13779D02*
X0Y0D01*
X10236Y0D02*
X10236Y-13779D01*
G54D12*
X1928Y-6742D03*
X3928Y-6742D03*
G54D13*
X7219Y-2187D03*
G54D14*
X8413Y-2187D03*
X7219Y-3187D03*
X8413Y-3187D03*
X7219Y-4187D03*
X8413Y-4187D03*
X7219Y-5187D03*
X8413Y-5187D03*
X7219Y-6187D03*
X8413Y-6187D03*
X7219Y-7187D03*
X8413Y-7187D03*
X7219Y-8187D03*
X8413Y-8187D03*
X7219Y-9187D03*
X8413Y-9187D03*
X7219Y-10187D03*
X8413Y-10187D03*
X7219Y-11187D03*
X8413Y-11187D03*
G54D15*
X1531Y-11023D03*
G54D16*
X2531Y-11023D03*
X3531Y-11023D03*
X4531Y-11023D03*
G54D12*
X2728Y-4692D03*
X3128Y-4692D03*
G54D17*
X2328Y-5092D03*
G54D12*
X3528Y-4692D03*
X1928Y-4692D03*
X3928Y-4692D03*
X2728Y-3142D03*
X3128Y-3142D03*
G54D17*
X2328Y-3142D03*
G54D12*
X3528Y-3142D03*
X1928Y-3142D03*
X3928Y-3142D03*
G54D18*
X1889Y-15433D03*
G54D19*
X2289Y-15833D03*
X2689Y-15433D03*
X3089Y-15433D03*
X3489Y-15433D03*
X3889Y-15433D03*
G54D18*
X1889Y-13976D03*
G54D19*
X2289Y-13976D03*
X2689Y-13976D03*
X3089Y-13976D03*
X3489Y-13976D03*
X3889Y-13976D03*
G54D12*
X1928Y-8092D03*
X3928Y-8092D03*
G54D20*
X8425Y-15078D03*
X1299Y-1220D03*
G54D21*
X3976Y-2362D03*
X6220Y-4881D03*
X4488Y-13188D03*
G54D22*
X5669Y-2362D02*
X3976Y-2362D01*
X6220Y-2913D02*
X5669Y-2362D01*
X6220Y-4881D02*
X6220Y-2913D01*
X2728Y-3142D02*
X2728Y-2153D01*
X8757Y-7187D02*
X8316Y-7187D01*
X9448Y-6496D02*
X8757Y-7187D01*
X9448Y-2007D02*
X9448Y-6496D01*
X8425Y-984D02*
X9448Y-2007D01*
X3897Y-984D02*
X8425Y-984D01*
X2728Y-2153D02*
X3897Y-984D01*
X1531Y-11688D02*
X1531Y-11023D01*
X2047Y-12204D02*
X1531Y-11688D01*
X3503Y-12204D02*
X2047Y-12204D01*
X4488Y-13188D02*
X3503Y-12204D01*
G54D10*
G36*
X2753Y-3085D02*
X2753Y-3199D01*
X2734Y-3218D01*
X2728Y-3213D01*
X2723Y-3218D01*
X2703Y-3199D01*
X2703Y-3085D01*
X2723Y-3066D01*
X2728Y-3071D01*
X2734Y-3066D01*
X2753Y-3085D01*
X2753Y-3085D01*
G37*
G54D22*
X2753Y-3085D02*
X2753Y-3199D01*
X2734Y-3218D01*
X2728Y-3213D01*
X2723Y-3218D01*
X2703Y-3199D01*
X2703Y-3085D01*
X2723Y-3066D01*
X2728Y-3071D01*
X2734Y-3066D01*
X2753Y-3085D01*
G54D10*
G36*
X10009Y-16308D02*
X9223Y-16308D01*
X9223Y-14920D01*
X9102Y-14627D01*
X9039Y-14564D01*
X9039Y-11322D01*
X9039Y-11052D01*
X9033Y-11016D01*
X8927Y-10828D01*
X8757Y-10694D01*
X8734Y-10687D01*
X8757Y-10681D01*
X8927Y-10547D01*
X9033Y-10358D01*
X9039Y-10322D01*
X9039Y-10052D01*
X9033Y-10016D01*
X8927Y-9828D01*
X8757Y-9694D01*
X8660Y-9666D01*
X8712Y-9656D01*
X8877Y-9546D01*
X8987Y-9381D01*
X9025Y-9187D01*
X8987Y-8993D01*
X8877Y-8828D01*
X8712Y-8718D01*
X8556Y-8687D01*
X8712Y-8656D01*
X8877Y-8546D01*
X8987Y-8381D01*
X9025Y-8187D01*
X8987Y-7993D01*
X8877Y-7828D01*
X8712Y-7718D01*
X8660Y-7708D01*
X8757Y-7681D01*
X8927Y-7547D01*
X9033Y-7358D01*
X9039Y-7322D01*
X8991Y-7237D01*
X8463Y-7237D01*
X8463Y-7245D01*
X8363Y-7245D01*
X8363Y-7237D01*
X8355Y-7237D01*
X8355Y-7137D01*
X8363Y-7137D01*
X8363Y-7129D01*
X8463Y-7129D01*
X8463Y-7137D01*
X8991Y-7137D01*
X9039Y-7052D01*
X9033Y-7016D01*
X8927Y-6828D01*
X8757Y-6694D01*
X8660Y-6666D01*
X8712Y-6656D01*
X8877Y-6546D01*
X8987Y-6381D01*
X9025Y-6187D01*
X8987Y-5993D01*
X8877Y-5828D01*
X8712Y-5718D01*
X8556Y-5687D01*
X8712Y-5656D01*
X8877Y-5546D01*
X8987Y-5381D01*
X9025Y-5187D01*
X8987Y-4993D01*
X8877Y-4828D01*
X8712Y-4718D01*
X8556Y-4687D01*
X8712Y-4656D01*
X8877Y-4546D01*
X8987Y-4381D01*
X9025Y-4187D01*
X8987Y-3993D01*
X8877Y-3828D01*
X8712Y-3718D01*
X8556Y-3687D01*
X8712Y-3656D01*
X8877Y-3546D01*
X8987Y-3381D01*
X9025Y-3187D01*
X8987Y-2993D01*
X8877Y-2828D01*
X8712Y-2718D01*
X8556Y-2687D01*
X8712Y-2656D01*
X8877Y-2546D01*
X8987Y-2381D01*
X9025Y-2187D01*
X8987Y-1993D01*
X8877Y-1828D01*
X8712Y-1718D01*
X8518Y-1680D01*
X8307Y-1680D01*
X8113Y-1718D01*
X7949Y-1828D01*
X7839Y-1993D01*
X7820Y-2088D01*
X7820Y-1846D01*
X7788Y-1770D01*
X7730Y-1712D01*
X7654Y-1680D01*
X7571Y-1680D01*
X6784Y-1680D01*
X6708Y-1711D01*
X6649Y-1770D01*
X6618Y-1846D01*
X6618Y-1928D01*
X6618Y-2528D01*
X6649Y-2605D01*
X6707Y-2663D01*
X6784Y-2695D01*
X6866Y-2695D01*
X7038Y-2695D01*
X6919Y-2718D01*
X6755Y-2828D01*
X6645Y-2993D01*
X6606Y-3187D01*
X6645Y-3381D01*
X6755Y-3546D01*
X6919Y-3656D01*
X7076Y-3687D01*
X6919Y-3718D01*
X6755Y-3828D01*
X6645Y-3993D01*
X6606Y-4187D01*
X6645Y-4381D01*
X6755Y-4546D01*
X6919Y-4656D01*
X7076Y-4687D01*
X6919Y-4718D01*
X6755Y-4828D01*
X6645Y-4993D01*
X6606Y-5187D01*
X6645Y-5381D01*
X6755Y-5546D01*
X6919Y-5656D01*
X7076Y-5687D01*
X6919Y-5718D01*
X6755Y-5828D01*
X6645Y-5993D01*
X6606Y-6187D01*
X6645Y-6381D01*
X6755Y-6546D01*
X6919Y-6656D01*
X7076Y-6687D01*
X6919Y-6718D01*
X6755Y-6828D01*
X6645Y-6993D01*
X6606Y-7187D01*
X6645Y-7381D01*
X6755Y-7546D01*
X6919Y-7656D01*
X7076Y-7687D01*
X6919Y-7718D01*
X6755Y-7828D01*
X6645Y-7993D01*
X6606Y-8187D01*
X6645Y-8381D01*
X6755Y-8546D01*
X6919Y-8656D01*
X7076Y-8687D01*
X6919Y-8718D01*
X6755Y-8828D01*
X6645Y-8993D01*
X6606Y-9187D01*
X6645Y-9381D01*
X6755Y-9546D01*
X6919Y-9656D01*
X7076Y-9687D01*
X6919Y-9718D01*
X6755Y-9828D01*
X6645Y-9993D01*
X6606Y-10187D01*
X6645Y-10381D01*
X6755Y-10546D01*
X6919Y-10656D01*
X7076Y-10687D01*
X6919Y-10718D01*
X6755Y-10828D01*
X6645Y-10993D01*
X6606Y-11187D01*
X6645Y-11381D01*
X6755Y-11546D01*
X6919Y-11656D01*
X7113Y-11695D01*
X7324Y-11695D01*
X7518Y-11656D01*
X7683Y-11546D01*
X7793Y-11381D01*
X7796Y-11365D01*
X7898Y-11547D01*
X8068Y-11681D01*
X8276Y-11739D01*
X8363Y-11677D01*
X8363Y-11237D01*
X8355Y-11237D01*
X8355Y-11137D01*
X8363Y-11137D01*
X8363Y-10698D01*
X8348Y-10687D01*
X8363Y-10677D01*
X8363Y-10237D01*
X8355Y-10237D01*
X8355Y-10137D01*
X8363Y-10137D01*
X8363Y-10129D01*
X8463Y-10129D01*
X8463Y-10137D01*
X8991Y-10137D01*
X9039Y-10052D01*
X9039Y-10322D01*
X8991Y-10237D01*
X8463Y-10237D01*
X8463Y-10677D01*
X8477Y-10687D01*
X8463Y-10698D01*
X8463Y-11137D01*
X8991Y-11137D01*
X9039Y-11052D01*
X9039Y-11322D01*
X8991Y-11237D01*
X8463Y-11237D01*
X8463Y-11677D01*
X8550Y-11739D01*
X8757Y-11681D01*
X8927Y-11547D01*
X9033Y-11358D01*
X9039Y-11322D01*
X9039Y-14564D01*
X8877Y-14402D01*
X8584Y-14280D01*
X8267Y-14280D01*
X7973Y-14401D01*
X7749Y-14626D01*
X7627Y-14919D01*
X7627Y-15236D01*
X7748Y-15530D01*
X7972Y-15754D01*
X8265Y-15876D01*
X8583Y-15876D01*
X8876Y-15755D01*
X9101Y-15531D01*
X9223Y-15238D01*
X9223Y-14920D01*
X9223Y-16308D01*
X6603Y-16308D01*
X6603Y-4806D01*
X6544Y-4665D01*
X6477Y-4598D01*
X6477Y-2913D01*
X6477Y-2913D01*
X6477Y-2913D01*
X6474Y-2897D01*
X6458Y-2814D01*
X6402Y-2731D01*
X6402Y-2731D01*
X5851Y-2180D01*
X5767Y-2124D01*
X5669Y-2104D01*
X4259Y-2104D01*
X4193Y-2038D01*
X4052Y-1979D01*
X3900Y-1979D01*
X3760Y-2037D01*
X3652Y-2145D01*
X3593Y-2285D01*
X3593Y-2437D01*
X3651Y-2578D01*
X3759Y-2686D01*
X3899Y-2744D01*
X4052Y-2744D01*
X4192Y-2686D01*
X4259Y-2619D01*
X5562Y-2619D01*
X5962Y-3020D01*
X5962Y-4598D01*
X5896Y-4664D01*
X5838Y-4805D01*
X5837Y-4957D01*
X5896Y-5098D01*
X6003Y-5205D01*
X6144Y-5264D01*
X6296Y-5264D01*
X6436Y-5206D01*
X6544Y-5098D01*
X6602Y-4958D01*
X6603Y-4806D01*
X6603Y-16308D01*
X5038Y-16308D01*
X5038Y-11169D01*
X5038Y-10878D01*
X5000Y-10683D01*
X4890Y-10519D01*
X4725Y-10409D01*
X4531Y-10370D01*
X4337Y-10409D01*
X4303Y-10431D01*
X4303Y-8018D01*
X4303Y-6668D01*
X4303Y-4618D01*
X4303Y-3068D01*
X4246Y-2930D01*
X4141Y-2824D01*
X4003Y-2767D01*
X3854Y-2767D01*
X3728Y-2819D01*
X3603Y-2767D01*
X3454Y-2767D01*
X3328Y-2819D01*
X3203Y-2767D01*
X3054Y-2767D01*
X2942Y-2813D01*
X2936Y-2771D01*
X2778Y-2719D01*
X2613Y-2732D01*
X2529Y-2767D01*
X2454Y-2767D01*
X2120Y-2767D01*
X2097Y-2777D01*
X2097Y-1062D01*
X1976Y-769D01*
X1751Y-544D01*
X1458Y-422D01*
X1141Y-422D01*
X847Y-543D01*
X623Y-767D01*
X501Y-1061D01*
X501Y-1378D01*
X622Y-1671D01*
X846Y-1896D01*
X1139Y-2018D01*
X1457Y-2018D01*
X1750Y-1897D01*
X1975Y-1673D01*
X2097Y-1379D01*
X2097Y-1062D01*
X2097Y-2777D01*
X2061Y-2791D01*
X2003Y-2767D01*
X1854Y-2767D01*
X1716Y-2824D01*
X1611Y-2929D01*
X1554Y-3067D01*
X1553Y-3216D01*
X1610Y-3354D01*
X1716Y-3460D01*
X1853Y-3517D01*
X2002Y-3517D01*
X2061Y-3493D01*
X2119Y-3517D01*
X2202Y-3517D01*
X2531Y-3517D01*
X2678Y-3565D01*
X2844Y-3552D01*
X2936Y-3513D01*
X2942Y-3470D01*
X3053Y-3517D01*
X3202Y-3517D01*
X3328Y-3465D01*
X3453Y-3517D01*
X3602Y-3517D01*
X3728Y-3465D01*
X3853Y-3517D01*
X4002Y-3517D01*
X4140Y-3460D01*
X4246Y-3355D01*
X4303Y-3217D01*
X4303Y-3068D01*
X4303Y-4618D01*
X4246Y-4480D01*
X4141Y-4374D01*
X4003Y-4317D01*
X3854Y-4317D01*
X3728Y-4369D01*
X3603Y-4317D01*
X3454Y-4317D01*
X3328Y-4369D01*
X3203Y-4317D01*
X3054Y-4317D01*
X2942Y-4363D01*
X2936Y-4321D01*
X2778Y-4269D01*
X2613Y-4282D01*
X2520Y-4321D01*
X2509Y-4402D01*
X2728Y-4621D01*
X2734Y-4616D01*
X2753Y-4635D01*
X2753Y-4749D01*
X2734Y-4768D01*
X2728Y-4763D01*
X2723Y-4768D01*
X2652Y-4698D01*
X2658Y-4692D01*
X2439Y-4473D01*
X2357Y-4484D01*
X2306Y-4642D01*
X2312Y-4717D01*
X2303Y-4717D01*
X2303Y-4618D01*
X2246Y-4480D01*
X2141Y-4374D01*
X2003Y-4317D01*
X1854Y-4317D01*
X1716Y-4374D01*
X1611Y-4479D01*
X1554Y-4617D01*
X1553Y-4766D01*
X1610Y-4904D01*
X1716Y-5010D01*
X1853Y-5067D01*
X1953Y-5067D01*
X1953Y-5300D01*
X1985Y-5377D01*
X2043Y-5435D01*
X2119Y-5467D01*
X2202Y-5467D01*
X2537Y-5467D01*
X2613Y-5435D01*
X2671Y-5377D01*
X2703Y-5301D01*
X2703Y-5218D01*
X2703Y-5113D01*
X2844Y-5102D01*
X2936Y-5063D01*
X2942Y-5020D01*
X3053Y-5067D01*
X3202Y-5067D01*
X3328Y-5015D01*
X3453Y-5067D01*
X3602Y-5067D01*
X3728Y-5015D01*
X3853Y-5067D01*
X4002Y-5067D01*
X4140Y-5010D01*
X4246Y-4905D01*
X4303Y-4767D01*
X4303Y-4618D01*
X4303Y-6668D01*
X4246Y-6530D01*
X4141Y-6424D01*
X4003Y-6367D01*
X3854Y-6367D01*
X3716Y-6424D01*
X3611Y-6529D01*
X3554Y-6667D01*
X3553Y-6816D01*
X3610Y-6954D01*
X3716Y-7060D01*
X3853Y-7117D01*
X4002Y-7117D01*
X4140Y-7060D01*
X4246Y-6955D01*
X4303Y-6817D01*
X4303Y-6668D01*
X4303Y-8018D01*
X4246Y-7880D01*
X4141Y-7774D01*
X4003Y-7717D01*
X3854Y-7717D01*
X3716Y-7774D01*
X3611Y-7879D01*
X3554Y-8017D01*
X3553Y-8166D01*
X3610Y-8304D01*
X3716Y-8410D01*
X3853Y-8467D01*
X4002Y-8467D01*
X4140Y-8410D01*
X4246Y-8305D01*
X4303Y-8167D01*
X4303Y-8018D01*
X4303Y-10431D01*
X4172Y-10519D01*
X4062Y-10683D01*
X4031Y-10840D01*
X4000Y-10683D01*
X3890Y-10519D01*
X3725Y-10409D01*
X3531Y-10370D01*
X3337Y-10409D01*
X3172Y-10519D01*
X3062Y-10683D01*
X3051Y-10739D01*
X3020Y-10633D01*
X2885Y-10466D01*
X2695Y-10363D01*
X2666Y-10357D01*
X2581Y-10405D01*
X2581Y-10973D01*
X2589Y-10973D01*
X2589Y-11073D01*
X2581Y-11073D01*
X2581Y-11641D01*
X2666Y-11689D01*
X2695Y-11683D01*
X2885Y-11580D01*
X3020Y-11413D01*
X3051Y-11307D01*
X3062Y-11363D01*
X3172Y-11528D01*
X3337Y-11638D01*
X3531Y-11676D01*
X3725Y-11638D01*
X3890Y-11528D01*
X4000Y-11363D01*
X4031Y-11206D01*
X4062Y-11363D01*
X4172Y-11528D01*
X4337Y-11638D01*
X4531Y-11676D01*
X4725Y-11638D01*
X4890Y-11528D01*
X5000Y-11363D01*
X5038Y-11169D01*
X5038Y-16308D01*
X4870Y-16308D01*
X4870Y-13113D01*
X4812Y-12972D01*
X4705Y-12864D01*
X4564Y-12806D01*
X4469Y-12806D01*
X3686Y-12022D01*
X3602Y-11966D01*
X3503Y-11947D01*
X2153Y-11947D01*
X1870Y-11664D01*
X1872Y-11664D01*
X1948Y-11632D01*
X2007Y-11574D01*
X2038Y-11498D01*
X2039Y-11415D01*
X2039Y-11401D01*
X2042Y-11413D01*
X2177Y-11580D01*
X2367Y-11683D01*
X2396Y-11689D01*
X2481Y-11641D01*
X2481Y-11073D01*
X2473Y-11073D01*
X2473Y-10973D01*
X2481Y-10973D01*
X2481Y-10405D01*
X2396Y-10357D01*
X2367Y-10363D01*
X2303Y-10397D01*
X2303Y-8018D01*
X2303Y-6668D01*
X2246Y-6530D01*
X2141Y-6424D01*
X2003Y-6367D01*
X1854Y-6367D01*
X1716Y-6424D01*
X1611Y-6529D01*
X1554Y-6667D01*
X1553Y-6816D01*
X1610Y-6954D01*
X1716Y-7060D01*
X1853Y-7117D01*
X2002Y-7117D01*
X2140Y-7060D01*
X2246Y-6955D01*
X2303Y-6817D01*
X2303Y-6668D01*
X2303Y-8018D01*
X2246Y-7880D01*
X2141Y-7774D01*
X2003Y-7717D01*
X1854Y-7717D01*
X1716Y-7774D01*
X1611Y-7879D01*
X1554Y-8017D01*
X1553Y-8166D01*
X1610Y-8304D01*
X1716Y-8410D01*
X1853Y-8467D01*
X2002Y-8467D01*
X2140Y-8410D01*
X2246Y-8305D01*
X2303Y-8167D01*
X2303Y-8018D01*
X2303Y-10397D01*
X2177Y-10466D01*
X2042Y-10633D01*
X2039Y-10645D01*
X2039Y-10549D01*
X2007Y-10473D01*
X1949Y-10414D01*
X1872Y-10383D01*
X1790Y-10383D01*
X1190Y-10383D01*
X1114Y-10414D01*
X1055Y-10472D01*
X1024Y-10549D01*
X1023Y-10631D01*
X1023Y-11497D01*
X1055Y-11573D01*
X1113Y-11632D01*
X1190Y-11664D01*
X1272Y-11664D01*
X1274Y-11664D01*
X1274Y-11688D01*
X1293Y-11787D01*
X1349Y-11871D01*
X1865Y-12386D01*
X1865Y-12386D01*
X1948Y-12442D01*
X2047Y-12462D01*
X2047Y-12462D01*
X2047Y-12462D01*
X3397Y-12462D01*
X4105Y-13170D01*
X4105Y-13264D01*
X4163Y-13405D01*
X4271Y-13513D01*
X4411Y-13571D01*
X4563Y-13571D01*
X4704Y-13513D01*
X4812Y-13405D01*
X4870Y-13265D01*
X4870Y-13113D01*
X4870Y-16308D01*
X4270Y-16308D01*
X4270Y-15504D01*
X4270Y-15361D01*
X4270Y-14048D01*
X4270Y-13904D01*
X4241Y-13759D01*
X4158Y-13635D01*
X4035Y-13552D01*
X3889Y-13523D01*
X3744Y-13552D01*
X3689Y-13589D01*
X3635Y-13552D01*
X3489Y-13523D01*
X3344Y-13552D01*
X3289Y-13589D01*
X3235Y-13552D01*
X3089Y-13523D01*
X2944Y-13552D01*
X2924Y-13565D01*
X2804Y-13506D01*
X2739Y-13556D01*
X2739Y-13756D01*
X2738Y-13759D01*
X2709Y-13904D01*
X2709Y-14048D01*
X2738Y-14193D01*
X2739Y-14196D01*
X2739Y-14396D01*
X2804Y-14446D01*
X2924Y-14386D01*
X2944Y-14399D01*
X3089Y-14428D01*
X3235Y-14399D01*
X3289Y-14363D01*
X3344Y-14399D01*
X3489Y-14428D01*
X3635Y-14399D01*
X3689Y-14363D01*
X3744Y-14399D01*
X3889Y-14428D01*
X4035Y-14399D01*
X4158Y-14317D01*
X4241Y-14193D01*
X4270Y-14048D01*
X4270Y-15361D01*
X4241Y-15215D01*
X4158Y-15092D01*
X4035Y-15009D01*
X3889Y-14980D01*
X3744Y-15009D01*
X3689Y-15045D01*
X3635Y-15009D01*
X3489Y-14980D01*
X3344Y-15009D01*
X3289Y-15045D01*
X3235Y-15009D01*
X3089Y-14980D01*
X2944Y-15009D01*
X2924Y-15022D01*
X2804Y-14962D01*
X2739Y-15012D01*
X2739Y-15213D01*
X2738Y-15215D01*
X2709Y-15361D01*
X2709Y-15504D01*
X2738Y-15650D01*
X2739Y-15653D01*
X2739Y-15853D01*
X2804Y-15903D01*
X2924Y-15843D01*
X2944Y-15856D01*
X3089Y-15885D01*
X3235Y-15856D01*
X3289Y-15820D01*
X3344Y-15856D01*
X3489Y-15885D01*
X3635Y-15856D01*
X3689Y-15820D01*
X3744Y-15856D01*
X3889Y-15885D01*
X4035Y-15856D01*
X4158Y-15773D01*
X4241Y-15650D01*
X4270Y-15504D01*
X4270Y-16308D01*
X2670Y-16308D01*
X2670Y-15904D01*
X2670Y-15761D01*
X2670Y-14048D01*
X2670Y-13904D01*
X2641Y-13759D01*
X2639Y-13756D01*
X2639Y-13556D01*
X2574Y-13506D01*
X2454Y-13565D01*
X2435Y-13552D01*
X2289Y-13523D01*
X2150Y-13551D01*
X2104Y-13532D01*
X2021Y-13532D01*
X1675Y-13532D01*
X1599Y-13564D01*
X1540Y-13622D01*
X1509Y-13698D01*
X1509Y-13781D01*
X1509Y-14253D01*
X1540Y-14329D01*
X1598Y-14388D01*
X1675Y-14420D01*
X1757Y-14420D01*
X2104Y-14420D01*
X2150Y-14401D01*
X2289Y-14428D01*
X2435Y-14399D01*
X2454Y-14386D01*
X2574Y-14446D01*
X2639Y-14396D01*
X2639Y-14196D01*
X2641Y-14193D01*
X2670Y-14048D01*
X2670Y-15761D01*
X2641Y-15615D01*
X2639Y-15613D01*
X2639Y-15483D01*
X2631Y-15483D01*
X2631Y-15383D01*
X2639Y-15383D01*
X2639Y-15012D01*
X2574Y-14962D01*
X2430Y-15034D01*
X2321Y-15159D01*
X2270Y-15311D01*
X2270Y-15155D01*
X2238Y-15079D01*
X2180Y-15021D01*
X2104Y-14989D01*
X2021Y-14989D01*
X1675Y-14989D01*
X1599Y-15020D01*
X1540Y-15079D01*
X1509Y-15155D01*
X1509Y-15237D01*
X1509Y-15710D01*
X1540Y-15786D01*
X1598Y-15845D01*
X1675Y-15876D01*
X1757Y-15876D01*
X1909Y-15876D01*
X1909Y-15904D01*
X1938Y-16050D01*
X2020Y-16173D01*
X2144Y-16256D01*
X2289Y-16285D01*
X2435Y-16256D01*
X2558Y-16173D01*
X2641Y-16050D01*
X2670Y-15904D01*
X2670Y-16308D01*
X227Y-16308D01*
X227Y-13779D01*
X227Y-227D01*
X10009Y-227D01*
X10009Y-13779D01*
X10009Y-16308D01*
X10009Y-16308D01*
G37*
G54D22*
X10009Y-16308D02*
X9223Y-16308D01*
X9223Y-14920D01*
X9102Y-14627D01*
X9039Y-14564D01*
X9039Y-11322D01*
X9039Y-11052D01*
X9033Y-11016D01*
X8927Y-10828D01*
X8757Y-10694D01*
X8734Y-10687D01*
X8757Y-10681D01*
X8927Y-10547D01*
X9033Y-10358D01*
X9039Y-10322D01*
X9039Y-10052D01*
X9033Y-10016D01*
X8927Y-9828D01*
X8757Y-9694D01*
X8660Y-9666D01*
X8712Y-9656D01*
X8877Y-9546D01*
X8987Y-9381D01*
X9025Y-9187D01*
X8987Y-8993D01*
X8877Y-8828D01*
X8712Y-8718D01*
X8556Y-8687D01*
X8712Y-8656D01*
X8877Y-8546D01*
X8987Y-8381D01*
X9025Y-8187D01*
X8987Y-7993D01*
X8877Y-7828D01*
X8712Y-7718D01*
X8660Y-7708D01*
X8757Y-7681D01*
X8927Y-7547D01*
X9033Y-7358D01*
X9039Y-7322D01*
X8991Y-7237D01*
X8463Y-7237D01*
X8463Y-7245D01*
X8363Y-7245D01*
X8363Y-7237D01*
X8355Y-7237D01*
X8355Y-7137D01*
X8363Y-7137D01*
X8363Y-7129D01*
X8463Y-7129D01*
X8463Y-7137D01*
X8991Y-7137D01*
X9039Y-7052D01*
X9033Y-7016D01*
X8927Y-6828D01*
X8757Y-6694D01*
X8660Y-6666D01*
X8712Y-6656D01*
X8877Y-6546D01*
X8987Y-6381D01*
X9025Y-6187D01*
X8987Y-5993D01*
X8877Y-5828D01*
X8712Y-5718D01*
X8556Y-5687D01*
X8712Y-5656D01*
X8877Y-5546D01*
X8987Y-5381D01*
X9025Y-5187D01*
X8987Y-4993D01*
X8877Y-4828D01*
X8712Y-4718D01*
X8556Y-4687D01*
X8712Y-4656D01*
X8877Y-4546D01*
X8987Y-4381D01*
X9025Y-4187D01*
X8987Y-3993D01*
X8877Y-3828D01*
X8712Y-3718D01*
X8556Y-3687D01*
X8712Y-3656D01*
X8877Y-3546D01*
X8987Y-3381D01*
X9025Y-3187D01*
X8987Y-2993D01*
X8877Y-2828D01*
X8712Y-2718D01*
X8556Y-2687D01*
X8712Y-2656D01*
X8877Y-2546D01*
X8987Y-2381D01*
X9025Y-2187D01*
X8987Y-1993D01*
X8877Y-1828D01*
X8712Y-1718D01*
X8518Y-1680D01*
X8307Y-1680D01*
X8113Y-1718D01*
X7949Y-1828D01*
X7839Y-1993D01*
X7820Y-2088D01*
X7820Y-1846D01*
X7788Y-1770D01*
X7730Y-1712D01*
X7654Y-1680D01*
X7571Y-1680D01*
X6784Y-1680D01*
X6708Y-1711D01*
X6649Y-1770D01*
X6618Y-1846D01*
X6618Y-1928D01*
X6618Y-2528D01*
X6649Y-2605D01*
X6707Y-2663D01*
X6784Y-2695D01*
X6866Y-2695D01*
X7038Y-2695D01*
X6919Y-2718D01*
X6755Y-2828D01*
X6645Y-2993D01*
X6606Y-3187D01*
X6645Y-3381D01*
X6755Y-3546D01*
X6919Y-3656D01*
X7076Y-3687D01*
X6919Y-3718D01*
X6755Y-3828D01*
X6645Y-3993D01*
X6606Y-4187D01*
X6645Y-4381D01*
X6755Y-4546D01*
X6919Y-4656D01*
X7076Y-4687D01*
X6919Y-4718D01*
X6755Y-4828D01*
X6645Y-4993D01*
X6606Y-5187D01*
X6645Y-5381D01*
X6755Y-5546D01*
X6919Y-5656D01*
X7076Y-5687D01*
X6919Y-5718D01*
X6755Y-5828D01*
X6645Y-5993D01*
X6606Y-6187D01*
X6645Y-6381D01*
X6755Y-6546D01*
X6919Y-6656D01*
X7076Y-6687D01*
X6919Y-6718D01*
X6755Y-6828D01*
X6645Y-6993D01*
X6606Y-7187D01*
X6645Y-7381D01*
X6755Y-7546D01*
X6919Y-7656D01*
X7076Y-7687D01*
X6919Y-7718D01*
X6755Y-7828D01*
X6645Y-7993D01*
X6606Y-8187D01*
X6645Y-8381D01*
X6755Y-8546D01*
X6919Y-8656D01*
X7076Y-8687D01*
X6919Y-8718D01*
X6755Y-8828D01*
X6645Y-8993D01*
X6606Y-9187D01*
X6645Y-9381D01*
X6755Y-9546D01*
X6919Y-9656D01*
X7076Y-9687D01*
X6919Y-9718D01*
X6755Y-9828D01*
X6645Y-9993D01*
X6606Y-10187D01*
X6645Y-10381D01*
X6755Y-10546D01*
X6919Y-10656D01*
X7076Y-10687D01*
X6919Y-10718D01*
X6755Y-10828D01*
X6645Y-10993D01*
X6606Y-11187D01*
X6645Y-11381D01*
X6755Y-11546D01*
X6919Y-11656D01*
X7113Y-11695D01*
X7324Y-11695D01*
X7518Y-11656D01*
X7683Y-11546D01*
X7793Y-11381D01*
X7796Y-11365D01*
X7898Y-11547D01*
X8068Y-11681D01*
X8276Y-11739D01*
X8363Y-11677D01*
X8363Y-11237D01*
X8355Y-11237D01*
X8355Y-11137D01*
X8363Y-11137D01*
X8363Y-10698D01*
X8348Y-10687D01*
X8363Y-10677D01*
X8363Y-10237D01*
X8355Y-10237D01*
X8355Y-10137D01*
X8363Y-10137D01*
X8363Y-10129D01*
X8463Y-10129D01*
X8463Y-10137D01*
X8991Y-10137D01*
X9039Y-10052D01*
X9039Y-10322D01*
X8991Y-10237D01*
X8463Y-10237D01*
X8463Y-10677D01*
X8477Y-10687D01*
X8463Y-10698D01*
X8463Y-11137D01*
X8991Y-11137D01*
X9039Y-11052D01*
X9039Y-11322D01*
X8991Y-11237D01*
X8463Y-11237D01*
X8463Y-11677D01*
X8550Y-11739D01*
X8757Y-11681D01*
X8927Y-11547D01*
X9033Y-11358D01*
X9039Y-11322D01*
X9039Y-14564D01*
X8877Y-14402D01*
X8584Y-14280D01*
X8267Y-14280D01*
X7973Y-14401D01*
X7749Y-14626D01*
X7627Y-14919D01*
X7627Y-15236D01*
X7748Y-15530D01*
X7972Y-15754D01*
X8265Y-15876D01*
X8583Y-15876D01*
X8876Y-15755D01*
X9101Y-15531D01*
X9223Y-15238D01*
X9223Y-14920D01*
X9223Y-16308D01*
X6603Y-16308D01*
X6603Y-4806D01*
X6544Y-4665D01*
X6477Y-4598D01*
X6477Y-2913D01*
X6477Y-2913D01*
X6477Y-2913D01*
X6474Y-2897D01*
X6458Y-2814D01*
X6402Y-2731D01*
X6402Y-2731D01*
X5851Y-2180D01*
X5767Y-2124D01*
X5669Y-2104D01*
X4259Y-2104D01*
X4193Y-2038D01*
X4052Y-1979D01*
X3900Y-1979D01*
X3760Y-2037D01*
X3652Y-2145D01*
X3593Y-2285D01*
X3593Y-2437D01*
X3651Y-2578D01*
X3759Y-2686D01*
X3899Y-2744D01*
X4052Y-2744D01*
X4192Y-2686D01*
X4259Y-2619D01*
X5562Y-2619D01*
X5962Y-3020D01*
X5962Y-4598D01*
X5896Y-4664D01*
X5838Y-4805D01*
X5837Y-4957D01*
X5896Y-5098D01*
X6003Y-5205D01*
X6144Y-5264D01*
X6296Y-5264D01*
X6436Y-5206D01*
X6544Y-5098D01*
X6602Y-4958D01*
X6603Y-4806D01*
X6603Y-16308D01*
X5038Y-16308D01*
X5038Y-11169D01*
X5038Y-10878D01*
X5000Y-10683D01*
X4890Y-10519D01*
X4725Y-10409D01*
X4531Y-10370D01*
X4337Y-10409D01*
X4303Y-10431D01*
X4303Y-8018D01*
X4303Y-6668D01*
X4303Y-4618D01*
X4303Y-3068D01*
X4246Y-2930D01*
X4141Y-2824D01*
X4003Y-2767D01*
X3854Y-2767D01*
X3728Y-2819D01*
X3603Y-2767D01*
X3454Y-2767D01*
X3328Y-2819D01*
X3203Y-2767D01*
X3054Y-2767D01*
X2942Y-2813D01*
X2936Y-2771D01*
X2778Y-2719D01*
X2613Y-2732D01*
X2529Y-2767D01*
X2454Y-2767D01*
X2120Y-2767D01*
X2097Y-2777D01*
X2097Y-1062D01*
X1976Y-769D01*
X1751Y-544D01*
X1458Y-422D01*
X1141Y-422D01*
X847Y-543D01*
X623Y-767D01*
X501Y-1061D01*
X501Y-1378D01*
X622Y-1671D01*
X846Y-1896D01*
X1139Y-2018D01*
X1457Y-2018D01*
X1750Y-1897D01*
X1975Y-1673D01*
X2097Y-1379D01*
X2097Y-1062D01*
X2097Y-2777D01*
X2061Y-2791D01*
X2003Y-2767D01*
X1854Y-2767D01*
X1716Y-2824D01*
X1611Y-2929D01*
X1554Y-3067D01*
X1553Y-3216D01*
X1610Y-3354D01*
X1716Y-3460D01*
X1853Y-3517D01*
X2002Y-3517D01*
X2061Y-3493D01*
X2119Y-3517D01*
X2202Y-3517D01*
X2531Y-3517D01*
X2678Y-3565D01*
X2844Y-3552D01*
X2936Y-3513D01*
X2942Y-3470D01*
X3053Y-3517D01*
X3202Y-3517D01*
X3328Y-3465D01*
X3453Y-3517D01*
X3602Y-3517D01*
X3728Y-3465D01*
X3853Y-3517D01*
X4002Y-3517D01*
X4140Y-3460D01*
X4246Y-3355D01*
X4303Y-3217D01*
X4303Y-3068D01*
X4303Y-4618D01*
X4246Y-4480D01*
X4141Y-4374D01*
X4003Y-4317D01*
X3854Y-4317D01*
X3728Y-4369D01*
X3603Y-4317D01*
X3454Y-4317D01*
X3328Y-4369D01*
X3203Y-4317D01*
X3054Y-4317D01*
X2942Y-4363D01*
X2936Y-4321D01*
X2778Y-4269D01*
X2613Y-4282D01*
X2520Y-4321D01*
X2509Y-4402D01*
X2728Y-4621D01*
X2734Y-4616D01*
X2753Y-4635D01*
X2753Y-4749D01*
X2734Y-4768D01*
X2728Y-4763D01*
X2723Y-4768D01*
X2652Y-4698D01*
X2658Y-4692D01*
X2439Y-4473D01*
X2357Y-4484D01*
X2306Y-4642D01*
X2312Y-4717D01*
X2303Y-4717D01*
X2303Y-4618D01*
X2246Y-4480D01*
X2141Y-4374D01*
X2003Y-4317D01*
X1854Y-4317D01*
X1716Y-4374D01*
X1611Y-4479D01*
X1554Y-4617D01*
X1553Y-4766D01*
X1610Y-4904D01*
X1716Y-5010D01*
X1853Y-5067D01*
X1953Y-5067D01*
X1953Y-5300D01*
X1985Y-5377D01*
X2043Y-5435D01*
X2119Y-5467D01*
X2202Y-5467D01*
X2537Y-5467D01*
X2613Y-5435D01*
X2671Y-5377D01*
X2703Y-5301D01*
X2703Y-5218D01*
X2703Y-5113D01*
X2844Y-5102D01*
X2936Y-5063D01*
X2942Y-5020D01*
X3053Y-5067D01*
X3202Y-5067D01*
X3328Y-5015D01*
X3453Y-5067D01*
X3602Y-5067D01*
X3728Y-5015D01*
X3853Y-5067D01*
X4002Y-5067D01*
X4140Y-5010D01*
X4246Y-4905D01*
X4303Y-4767D01*
X4303Y-4618D01*
X4303Y-6668D01*
X4246Y-6530D01*
X4141Y-6424D01*
X4003Y-6367D01*
X3854Y-6367D01*
X3716Y-6424D01*
X3611Y-6529D01*
X3554Y-6667D01*
X3553Y-6816D01*
X3610Y-6954D01*
X3716Y-7060D01*
X3853Y-7117D01*
X4002Y-7117D01*
X4140Y-7060D01*
X4246Y-6955D01*
X4303Y-6817D01*
X4303Y-6668D01*
X4303Y-8018D01*
X4246Y-7880D01*
X4141Y-7774D01*
X4003Y-7717D01*
X3854Y-7717D01*
X3716Y-7774D01*
X3611Y-7879D01*
X3554Y-8017D01*
X3553Y-8166D01*
X3610Y-8304D01*
X3716Y-8410D01*
X3853Y-8467D01*
X4002Y-8467D01*
X4140Y-8410D01*
X4246Y-8305D01*
X4303Y-8167D01*
X4303Y-8018D01*
X4303Y-10431D01*
X4172Y-10519D01*
X4062Y-10683D01*
X4031Y-10840D01*
X4000Y-10683D01*
X3890Y-10519D01*
X3725Y-10409D01*
X3531Y-10370D01*
X3337Y-10409D01*
X3172Y-10519D01*
X3062Y-10683D01*
X3051Y-10739D01*
X3020Y-10633D01*
X2885Y-10466D01*
X2695Y-10363D01*
X2666Y-10357D01*
X2581Y-10405D01*
X2581Y-10973D01*
X2589Y-10973D01*
X2589Y-11073D01*
X2581Y-11073D01*
X2581Y-11641D01*
X2666Y-11689D01*
X2695Y-11683D01*
X2885Y-11580D01*
X3020Y-11413D01*
X3051Y-11307D01*
X3062Y-11363D01*
X3172Y-11528D01*
X3337Y-11638D01*
X3531Y-11676D01*
X3725Y-11638D01*
X3890Y-11528D01*
X4000Y-11363D01*
X4031Y-11206D01*
X4062Y-11363D01*
X4172Y-11528D01*
X4337Y-11638D01*
X4531Y-11676D01*
X4725Y-11638D01*
X4890Y-11528D01*
X5000Y-11363D01*
X5038Y-11169D01*
X5038Y-16308D01*
X4870Y-16308D01*
X4870Y-13113D01*
X4812Y-12972D01*
X4705Y-12864D01*
X4564Y-12806D01*
X4469Y-12806D01*
X3686Y-12022D01*
X3602Y-11966D01*
X3503Y-11947D01*
X2153Y-11947D01*
X1870Y-11664D01*
X1872Y-11664D01*
X1948Y-11632D01*
X2007Y-11574D01*
X2038Y-11498D01*
X2039Y-11415D01*
X2039Y-11401D01*
X2042Y-11413D01*
X2177Y-11580D01*
X2367Y-11683D01*
X2396Y-11689D01*
X2481Y-11641D01*
X2481Y-11073D01*
X2473Y-11073D01*
X2473Y-10973D01*
X2481Y-10973D01*
X2481Y-10405D01*
X2396Y-10357D01*
X2367Y-10363D01*
X2303Y-10397D01*
X2303Y-8018D01*
X2303Y-6668D01*
X2246Y-6530D01*
X2141Y-6424D01*
X2003Y-6367D01*
X1854Y-6367D01*
X1716Y-6424D01*
X1611Y-6529D01*
X1554Y-6667D01*
X1553Y-6816D01*
X1610Y-6954D01*
X1716Y-7060D01*
X1853Y-7117D01*
X2002Y-7117D01*
X2140Y-7060D01*
X2246Y-6955D01*
X2303Y-6817D01*
X2303Y-6668D01*
X2303Y-8018D01*
X2246Y-7880D01*
X2141Y-7774D01*
X2003Y-7717D01*
X1854Y-7717D01*
X1716Y-7774D01*
X1611Y-7879D01*
X1554Y-8017D01*
X1553Y-8166D01*
X1610Y-8304D01*
X1716Y-8410D01*
X1853Y-8467D01*
X2002Y-8467D01*
X2140Y-8410D01*
X2246Y-8305D01*
X2303Y-8167D01*
X2303Y-8018D01*
X2303Y-10397D01*
X2177Y-10466D01*
X2042Y-10633D01*
X2039Y-10645D01*
X2039Y-10549D01*
X2007Y-10473D01*
X1949Y-10414D01*
X1872Y-10383D01*
X1790Y-10383D01*
X1190Y-10383D01*
X1114Y-10414D01*
X1055Y-10472D01*
X1024Y-10549D01*
X1023Y-10631D01*
X1023Y-11497D01*
X1055Y-11573D01*
X1113Y-11632D01*
X1190Y-11664D01*
X1272Y-11664D01*
X1274Y-11664D01*
X1274Y-11688D01*
X1293Y-11787D01*
X1349Y-11871D01*
X1865Y-12386D01*
X1865Y-12386D01*
X1948Y-12442D01*
X2047Y-12462D01*
X2047Y-12462D01*
X2047Y-12462D01*
X3397Y-12462D01*
X4105Y-13170D01*
X4105Y-13264D01*
X4163Y-13405D01*
X4271Y-13513D01*
X4411Y-13571D01*
X4563Y-13571D01*
X4704Y-13513D01*
X4812Y-13405D01*
X4870Y-13265D01*
X4870Y-13113D01*
X4870Y-16308D01*
X4270Y-16308D01*
X4270Y-15504D01*
X4270Y-15361D01*
X4270Y-14048D01*
X4270Y-13904D01*
X4241Y-13759D01*
X4158Y-13635D01*
X4035Y-13552D01*
X3889Y-13523D01*
X3744Y-13552D01*
X3689Y-13589D01*
X3635Y-13552D01*
X3489Y-13523D01*
X3344Y-13552D01*
X3289Y-13589D01*
X3235Y-13552D01*
X3089Y-13523D01*
X2944Y-13552D01*
X2924Y-13565D01*
X2804Y-13506D01*
X2739Y-13556D01*
X2739Y-13756D01*
X2738Y-13759D01*
X2709Y-13904D01*
X2709Y-14048D01*
X2738Y-14193D01*
X2739Y-14196D01*
X2739Y-14396D01*
X2804Y-14446D01*
X2924Y-14386D01*
X2944Y-14399D01*
X3089Y-14428D01*
X3235Y-14399D01*
X3289Y-14363D01*
X3344Y-14399D01*
X3489Y-14428D01*
X3635Y-14399D01*
X3689Y-14363D01*
X3744Y-14399D01*
X3889Y-14428D01*
X4035Y-14399D01*
X4158Y-14317D01*
X4241Y-14193D01*
X4270Y-14048D01*
X4270Y-15361D01*
X4241Y-15215D01*
X4158Y-15092D01*
X4035Y-15009D01*
X3889Y-14980D01*
X3744Y-15009D01*
X3689Y-15045D01*
X3635Y-15009D01*
X3489Y-14980D01*
X3344Y-15009D01*
X3289Y-15045D01*
X3235Y-15009D01*
X3089Y-14980D01*
X2944Y-15009D01*
X2924Y-15022D01*
X2804Y-14962D01*
X2739Y-15012D01*
X2739Y-15213D01*
X2738Y-15215D01*
X2709Y-15361D01*
X2709Y-15504D01*
X2738Y-15650D01*
X2739Y-15653D01*
X2739Y-15853D01*
X2804Y-15903D01*
X2924Y-15843D01*
X2944Y-15856D01*
X3089Y-15885D01*
X3235Y-15856D01*
X3289Y-15820D01*
X3344Y-15856D01*
X3489Y-15885D01*
X3635Y-15856D01*
X3689Y-15820D01*
X3744Y-15856D01*
X3889Y-15885D01*
X4035Y-15856D01*
X4158Y-15773D01*
X4241Y-15650D01*
X4270Y-15504D01*
X4270Y-16308D01*
X2670Y-16308D01*
X2670Y-15904D01*
X2670Y-15761D01*
X2670Y-14048D01*
X2670Y-13904D01*
X2641Y-13759D01*
X2639Y-13756D01*
X2639Y-13556D01*
X2574Y-13506D01*
X2454Y-13565D01*
X2435Y-13552D01*
X2289Y-13523D01*
X2150Y-13551D01*
X2104Y-13532D01*
X2021Y-13532D01*
X1675Y-13532D01*
X1599Y-13564D01*
X1540Y-13622D01*
X1509Y-13698D01*
X1509Y-13781D01*
X1509Y-14253D01*
X1540Y-14329D01*
X1598Y-14388D01*
X1675Y-14420D01*
X1757Y-14420D01*
X2104Y-14420D01*
X2150Y-14401D01*
X2289Y-14428D01*
X2435Y-14399D01*
X2454Y-14386D01*
X2574Y-14446D01*
X2639Y-14396D01*
X2639Y-14196D01*
X2641Y-14193D01*
X2670Y-14048D01*
X2670Y-15761D01*
X2641Y-15615D01*
X2639Y-15613D01*
X2639Y-15483D01*
X2631Y-15483D01*
X2631Y-15383D01*
X2639Y-15383D01*
X2639Y-15012D01*
X2574Y-14962D01*
X2430Y-15034D01*
X2321Y-15159D01*
X2270Y-15311D01*
X2270Y-15155D01*
X2238Y-15079D01*
X2180Y-15021D01*
X2104Y-14989D01*
X2021Y-14989D01*
X1675Y-14989D01*
X1599Y-15020D01*
X1540Y-15079D01*
X1509Y-15155D01*
X1509Y-15237D01*
X1509Y-15710D01*
X1540Y-15786D01*
X1598Y-15845D01*
X1675Y-15876D01*
X1757Y-15876D01*
X1909Y-15876D01*
X1909Y-15904D01*
X1938Y-16050D01*
X2020Y-16173D01*
X2144Y-16256D01*
X2289Y-16285D01*
X2435Y-16256D01*
X2558Y-16173D01*
X2641Y-16050D01*
X2670Y-15904D01*
X2670Y-16308D01*
X227Y-16308D01*
X227Y-13779D01*
X227Y-227D01*
X10009Y-227D01*
X10009Y-13779D01*
X10009Y-16308D01*
M02*
