M48
;DRILL file {Pcbnew (2013-07-07 BZR 4022)-stable} date 03/02/2014 00:29:36
;FORMAT={-:-/ absolute / inch / decimal}
FMAT,2
INCH,TZ
T1C0.013
T2C0.022
T3C0.025
T4C0.028
T5C0.039
T6C0.118
%
G90
G05
M72
T1
X0.2329Y-0.3143
X0.2329Y-0.5093
X0.2729Y-0.3143
X0.2729Y-0.4693
X0.3129Y-0.3143
X0.3129Y-0.4693
X0.3529Y-0.3143
X0.3529Y-0.4693
T2
X0.1929Y-0.3143
X0.1929Y-0.4693
X0.1929Y-0.6743
X0.1929Y-0.8093
X0.3929Y-0.3143
X0.3929Y-0.4693
X0.3929Y-0.6743
X0.3929Y-0.8093
T3
X0.3976Y-0.2362
X0.4488Y-1.3189
X0.622Y-0.4882
T4
X0.189Y-1.3976
X0.189Y-1.5433
X0.229Y-1.3976
X0.229Y-1.5833
X0.269Y-1.3976
X0.269Y-1.5433
X0.309Y-1.3976
X0.309Y-1.5433
X0.349Y-1.3976
X0.349Y-1.5433
X0.389Y-1.3976
X0.389Y-1.5433
T5
X0.1531Y-1.1024
X0.2531Y-1.1024
X0.3531Y-1.1024
X0.4531Y-1.1024
X0.7316Y-0.2188
X0.7316Y-0.3188
X0.7316Y-0.4188
X0.7316Y-0.5188
X0.7316Y-0.6188
X0.7316Y-0.7188
X0.7316Y-0.8188
X0.7316Y-0.9188
X0.7316Y-1.0188
X0.7316Y-1.1188
X0.8316Y-0.2188
X0.8316Y-0.3188
X0.8316Y-0.4188
X0.8316Y-0.5188
X0.8316Y-0.6188
X0.8316Y-0.7188
X0.8316Y-0.8188
X0.8316Y-0.9188
X0.8316Y-1.0188
X0.8316Y-1.1188
T6
X0.1299Y-0.122
X0.8425Y-1.5079
T0
M30
