G04 (created by PCBNEW (2013-07-07 BZR 4022)-stable) date 03/02/2014 00:35:57*
%MOIN*%
G04 Gerber Fmt 3.4, Leading zero omitted, Abs format*
%FSLAX34Y34*%
G01*
G70*
G90*
G04 APERTURE LIST*
%ADD10C,0.00590551*%
%ADD11C,0.00393701*%
%ADD12C,0.00787402*%
%ADD13C,0.015*%
%ADD14C,0.012*%
%ADD15C,0.0118*%
%ADD16C,0.005*%
%ADD17C,0.01*%
%ADD18C,0.008*%
%ADD19C,0.0024*%
G04 APERTURE END LIST*
G54D10*
G54D11*
X10236Y-16535D02*
X10236Y-13779D01*
X0Y-16535D02*
X10236Y-16535D01*
X0Y-13779D02*
X0Y-16535D01*
G54D12*
X1380Y-10316D02*
X1971Y-10185D01*
X1380Y-10054D01*
X1915Y-9698D02*
X1943Y-9716D01*
X1971Y-9773D01*
X1971Y-9810D01*
X1943Y-9866D01*
X1886Y-9904D01*
X1830Y-9923D01*
X1718Y-9941D01*
X1633Y-9941D01*
X1521Y-9923D01*
X1465Y-9904D01*
X1408Y-9866D01*
X1380Y-9810D01*
X1380Y-9773D01*
X1408Y-9716D01*
X1437Y-9698D01*
X1915Y-9304D02*
X1943Y-9323D01*
X1971Y-9379D01*
X1971Y-9416D01*
X1943Y-9473D01*
X1886Y-9510D01*
X1830Y-9529D01*
X1718Y-9548D01*
X1633Y-9548D01*
X1521Y-9529D01*
X1465Y-9510D01*
X1408Y-9473D01*
X1380Y-9416D01*
X1380Y-9379D01*
X1408Y-9323D01*
X1437Y-9304D01*
X2314Y-10054D02*
X2286Y-10091D01*
X2286Y-10148D01*
X2314Y-10204D01*
X2370Y-10241D01*
X2426Y-10260D01*
X2539Y-10279D01*
X2623Y-10279D01*
X2736Y-10260D01*
X2792Y-10241D01*
X2848Y-10204D01*
X2876Y-10148D01*
X2876Y-10110D01*
X2848Y-10054D01*
X2820Y-10035D01*
X2623Y-10035D01*
X2623Y-10110D01*
X2876Y-9866D02*
X2286Y-9866D01*
X2876Y-9641D01*
X2286Y-9641D01*
X2876Y-9454D02*
X2286Y-9454D01*
X2286Y-9360D01*
X2314Y-9304D01*
X2370Y-9266D01*
X2426Y-9248D01*
X2539Y-9229D01*
X2623Y-9229D01*
X2736Y-9248D01*
X2792Y-9266D01*
X2848Y-9304D01*
X2876Y-9360D01*
X2876Y-9454D01*
X3754Y-10279D02*
X3782Y-10223D01*
X3782Y-10129D01*
X3754Y-10091D01*
X3726Y-10073D01*
X3669Y-10054D01*
X3613Y-10054D01*
X3557Y-10073D01*
X3529Y-10091D01*
X3501Y-10129D01*
X3473Y-10204D01*
X3444Y-10241D01*
X3416Y-10260D01*
X3360Y-10279D01*
X3304Y-10279D01*
X3248Y-10260D01*
X3219Y-10241D01*
X3191Y-10204D01*
X3191Y-10110D01*
X3219Y-10054D01*
X3191Y-9923D02*
X3782Y-9829D01*
X3360Y-9754D01*
X3782Y-9679D01*
X3191Y-9585D01*
X3726Y-9210D02*
X3754Y-9229D01*
X3782Y-9285D01*
X3782Y-9323D01*
X3754Y-9379D01*
X3697Y-9416D01*
X3641Y-9435D01*
X3529Y-9454D01*
X3444Y-9454D01*
X3332Y-9435D01*
X3276Y-9416D01*
X3219Y-9379D01*
X3191Y-9323D01*
X3191Y-9285D01*
X3219Y-9229D01*
X3248Y-9210D01*
X3782Y-8985D02*
X3754Y-9023D01*
X3697Y-9041D01*
X3191Y-9041D01*
X3782Y-8835D02*
X3191Y-8835D01*
X3782Y-8610D02*
X3444Y-8779D01*
X3191Y-8610D02*
X3529Y-8835D01*
X4659Y-10279D02*
X4687Y-10223D01*
X4687Y-10129D01*
X4659Y-10091D01*
X4631Y-10073D01*
X4575Y-10054D01*
X4519Y-10054D01*
X4462Y-10073D01*
X4434Y-10091D01*
X4406Y-10129D01*
X4378Y-10204D01*
X4350Y-10241D01*
X4322Y-10260D01*
X4266Y-10279D01*
X4209Y-10279D01*
X4153Y-10260D01*
X4125Y-10241D01*
X4097Y-10204D01*
X4097Y-10110D01*
X4125Y-10054D01*
X4097Y-9923D02*
X4687Y-9829D01*
X4266Y-9754D01*
X4687Y-9679D01*
X4097Y-9585D01*
X4687Y-9435D02*
X4097Y-9435D01*
X4097Y-9173D02*
X4097Y-9098D01*
X4125Y-9060D01*
X4181Y-9023D01*
X4294Y-9004D01*
X4491Y-9004D01*
X4603Y-9023D01*
X4659Y-9060D01*
X4687Y-9098D01*
X4687Y-9173D01*
X4659Y-9210D01*
X4603Y-9248D01*
X4491Y-9266D01*
X4294Y-9266D01*
X4181Y-9248D01*
X4125Y-9210D01*
X4097Y-9173D01*
G54D11*
X0Y0D02*
X10236Y0D01*
X0Y-13779D02*
X0Y0D01*
X10236Y0D02*
X10236Y-13779D01*
G54D13*
X2053Y-6442D02*
X1603Y-6442D01*
X2028Y-7067D02*
X1603Y-7067D01*
X3728Y-6442D02*
X4253Y-6442D01*
X3803Y-7067D02*
X4253Y-7067D01*
X3728Y-6442D02*
X2053Y-6442D01*
X1603Y-6442D02*
X1603Y-7067D01*
X2053Y-7067D02*
X3803Y-7067D01*
X4253Y-7067D02*
X4253Y-6442D01*
G54D14*
X6016Y-13187D02*
X6016Y-187D01*
X9616Y-187D02*
X9616Y-13187D01*
G54D15*
X9616Y-187D02*
X6016Y-187D01*
X9616Y-13187D02*
X6016Y-13187D01*
X6016Y-7187D02*
X6516Y-7187D01*
X6516Y-7187D02*
X6516Y-6187D01*
X6516Y-6187D02*
X6016Y-6187D01*
G54D16*
X6470Y-13805D02*
X6470Y-14305D01*
X5970Y-13805D02*
X5970Y-14295D01*
X5820Y-13805D02*
X6620Y-13805D01*
X6620Y-13805D02*
X6620Y-14305D01*
X6620Y-14305D02*
X5820Y-14305D01*
X5820Y-14305D02*
X5820Y-13805D01*
G54D14*
X2031Y-10523D02*
X2031Y-11523D01*
X5031Y-11523D02*
X1031Y-11523D01*
X1031Y-10523D02*
X5031Y-10523D01*
X1031Y-11523D02*
X1031Y-10523D01*
X5031Y-10523D02*
X5031Y-11523D01*
G54D13*
X2053Y-4392D02*
X1603Y-4392D01*
X2028Y-5017D02*
X1603Y-5017D01*
X3728Y-4392D02*
X4253Y-4392D01*
X3803Y-5017D02*
X4253Y-5017D01*
X3728Y-4392D02*
X2053Y-4392D01*
X1603Y-4392D02*
X1603Y-5017D01*
X4253Y-5017D02*
X4253Y-4392D01*
X2053Y-2842D02*
X1603Y-2842D01*
X2028Y-3467D02*
X1603Y-3467D01*
X3728Y-2842D02*
X4253Y-2842D01*
X3803Y-3467D02*
X4253Y-3467D01*
X3728Y-2842D02*
X2053Y-2842D01*
X1603Y-2842D02*
X1603Y-3467D01*
X2053Y-3467D02*
X3803Y-3467D01*
X4253Y-3467D02*
X4253Y-2842D01*
G54D14*
X1472Y-15016D02*
X4306Y-15016D01*
X1472Y-15016D02*
X1472Y-15850D01*
X4306Y-15016D02*
X4306Y-15850D01*
X1472Y-13559D02*
X4306Y-13559D01*
X1472Y-13559D02*
X1472Y-14393D01*
X1472Y-14393D02*
X4306Y-14393D01*
X4306Y-13559D02*
X4306Y-14393D01*
G54D13*
X2053Y-7792D02*
X1603Y-7792D01*
X2028Y-8417D02*
X1603Y-8417D01*
X3728Y-7792D02*
X4253Y-7792D01*
X3803Y-8417D02*
X4253Y-8417D01*
X3728Y-7792D02*
X2053Y-7792D01*
X1603Y-7792D02*
X1603Y-8417D01*
X4253Y-8417D02*
X4253Y-7792D01*
G54D17*
X8425Y-14228D02*
X8425Y-15928D01*
X7575Y-15078D02*
X9275Y-15078D01*
X9125Y-15078D02*
G75*
G03X9125Y-15078I-700J0D01*
G74*
G01*
X1299Y-370D02*
X1299Y-2070D01*
X449Y-1220D02*
X2149Y-1220D01*
X1999Y-1220D02*
G75*
G03X1999Y-1220I-700J0D01*
G74*
G01*
G54D16*
X4068Y-734D02*
X4068Y-1234D01*
X3568Y-734D02*
X3568Y-1224D01*
X3418Y-734D02*
X4218Y-734D01*
X4218Y-734D02*
X4218Y-1234D01*
X4218Y-1234D02*
X3418Y-1234D01*
X3418Y-1234D02*
X3418Y-734D01*
G54D12*
X985Y-6492D02*
X985Y-6773D01*
X966Y-6829D01*
X929Y-6866D01*
X872Y-6885D01*
X835Y-6885D01*
X1341Y-6623D02*
X1341Y-6885D01*
X1247Y-6473D02*
X1154Y-6754D01*
X1397Y-6754D01*
G54D18*
X5311Y-1533D02*
X5597Y-1533D01*
X5654Y-1552D01*
X5692Y-1590D01*
X5711Y-1647D01*
X5711Y-1685D01*
X5350Y-1361D02*
X5330Y-1342D01*
X5311Y-1304D01*
X5311Y-1209D01*
X5330Y-1171D01*
X5350Y-1152D01*
X5388Y-1133D01*
X5426Y-1133D01*
X5483Y-1152D01*
X5711Y-1380D01*
X5711Y-1133D01*
G54D12*
X6167Y-14980D02*
X6035Y-14793D01*
X5942Y-14980D02*
X5942Y-14586D01*
X6092Y-14586D01*
X6129Y-14605D01*
X6148Y-14624D01*
X6167Y-14661D01*
X6167Y-14718D01*
X6148Y-14755D01*
X6129Y-14774D01*
X6092Y-14793D01*
X5942Y-14793D01*
X6542Y-14980D02*
X6317Y-14980D01*
X6429Y-14980D02*
X6429Y-14586D01*
X6392Y-14643D01*
X6354Y-14680D01*
X6317Y-14699D01*
G54D18*
X435Y-10819D02*
X435Y-11105D01*
X416Y-11162D01*
X378Y-11200D01*
X321Y-11219D01*
X283Y-11219D01*
X588Y-10819D02*
X835Y-10819D01*
X702Y-10971D01*
X759Y-10971D01*
X797Y-10990D01*
X816Y-11009D01*
X835Y-11047D01*
X835Y-11143D01*
X816Y-11181D01*
X797Y-11200D01*
X759Y-11219D01*
X645Y-11219D01*
X607Y-11200D01*
X588Y-11181D01*
G54D10*
X1010Y-4490D02*
X1010Y-4771D01*
X991Y-4827D01*
X954Y-4865D01*
X898Y-4883D01*
X860Y-4883D01*
X1216Y-4883D02*
X1291Y-4883D01*
X1329Y-4865D01*
X1347Y-4846D01*
X1385Y-4790D01*
X1404Y-4715D01*
X1404Y-4565D01*
X1385Y-4527D01*
X1366Y-4508D01*
X1329Y-4490D01*
X1254Y-4490D01*
X1216Y-4508D01*
X1197Y-4527D01*
X1179Y-4565D01*
X1179Y-4658D01*
X1197Y-4696D01*
X1216Y-4715D01*
X1254Y-4733D01*
X1329Y-4733D01*
X1366Y-4715D01*
X1385Y-4696D01*
X1404Y-4658D01*
X1049Y-2994D02*
X1049Y-3275D01*
X1031Y-3331D01*
X993Y-3368D01*
X937Y-3387D01*
X899Y-3387D01*
X1293Y-3162D02*
X1256Y-3143D01*
X1237Y-3125D01*
X1218Y-3087D01*
X1218Y-3068D01*
X1237Y-3031D01*
X1256Y-3012D01*
X1293Y-2994D01*
X1368Y-2994D01*
X1406Y-3012D01*
X1424Y-3031D01*
X1443Y-3068D01*
X1443Y-3087D01*
X1424Y-3125D01*
X1406Y-3143D01*
X1368Y-3162D01*
X1293Y-3162D01*
X1256Y-3181D01*
X1237Y-3200D01*
X1218Y-3237D01*
X1218Y-3312D01*
X1237Y-3350D01*
X1256Y-3368D01*
X1293Y-3387D01*
X1368Y-3387D01*
X1406Y-3368D01*
X1424Y-3350D01*
X1443Y-3312D01*
X1443Y-3237D01*
X1424Y-3200D01*
X1406Y-3181D01*
X1368Y-3162D01*
X813Y-15238D02*
X813Y-15519D01*
X794Y-15575D01*
X757Y-15613D01*
X701Y-15631D01*
X663Y-15631D01*
X1169Y-15238D02*
X1094Y-15238D01*
X1057Y-15256D01*
X1038Y-15275D01*
X1001Y-15331D01*
X982Y-15406D01*
X982Y-15556D01*
X1001Y-15594D01*
X1019Y-15613D01*
X1057Y-15631D01*
X1132Y-15631D01*
X1169Y-15613D01*
X1188Y-15594D01*
X1207Y-15556D01*
X1207Y-15463D01*
X1188Y-15425D01*
X1169Y-15406D01*
X1132Y-15388D01*
X1057Y-15388D01*
X1019Y-15406D01*
X1001Y-15425D01*
X982Y-15463D01*
X853Y-13742D02*
X853Y-14023D01*
X834Y-14079D01*
X796Y-14116D01*
X740Y-14135D01*
X703Y-14135D01*
X1246Y-14135D02*
X1021Y-14135D01*
X1134Y-14135D02*
X1134Y-13742D01*
X1096Y-13798D01*
X1059Y-13835D01*
X1021Y-13854D01*
X1010Y-7915D02*
X1010Y-8196D01*
X991Y-8252D01*
X954Y-8290D01*
X898Y-8308D01*
X860Y-8308D01*
X1160Y-7915D02*
X1422Y-7915D01*
X1254Y-8308D01*
G54D14*
G54D19*
X3799Y-642D02*
X3759Y-585D01*
X3731Y-642D02*
X3731Y-524D01*
X3776Y-524D01*
X3787Y-529D01*
X3793Y-535D01*
X3799Y-546D01*
X3799Y-563D01*
X3793Y-574D01*
X3787Y-580D01*
X3776Y-585D01*
X3731Y-585D01*
X3844Y-535D02*
X3849Y-529D01*
X3861Y-524D01*
X3889Y-524D01*
X3900Y-529D01*
X3905Y-535D01*
X3911Y-546D01*
X3911Y-557D01*
X3905Y-574D01*
X3838Y-642D01*
X3911Y-642D01*
M02*
