G04 (created by PCBNEW (2013-07-07 BZR 4022)-stable) date 03/02/2014 00:35:57*
%MOIN*%
G04 Gerber Fmt 3.4, Leading zero omitted, Abs format*
%FSLAX34Y34*%
G01*
G70*
G90*
G04 APERTURE LIST*
%ADD10C,0.00590551*%
%ADD11C,0.00393701*%
%ADD12R,0.0334646X0.03*%
%ADD13O,0.0354X0.03*%
%ADD14C,0.0334646*%
%ADD15R,0.0787X0.06*%
%ADD16O,0.0787X0.06*%
%ADD17R,0.0512X0.059*%
%ADD18R,0.06X0.0866*%
%ADD19O,0.06X0.0866*%
%ADD20R,0.0334646X0.0334646*%
%ADD21R,0.0346457X0.0472441*%
%ADD22O,0.0346457X0.0472441*%
%ADD23C,0.1181*%
%ADD24C,0.035*%
%ADD25C,0.01*%
G04 APERTURE END LIST*
G54D10*
G54D11*
X10236Y-16535D02*
X10236Y-13779D01*
X0Y-16535D02*
X10236Y-16535D01*
X0Y-13779D02*
X0Y-16535D01*
X0Y0D02*
X10236Y0D01*
X0Y-13779D02*
X0Y0D01*
X10236Y0D02*
X10236Y-13779D01*
G54D12*
X2728Y-6742D03*
X3128Y-6742D03*
G54D13*
X2328Y-6742D03*
G54D12*
X3528Y-6742D03*
G54D14*
X1928Y-6742D03*
X3928Y-6742D03*
G54D15*
X7219Y-2187D03*
G54D16*
X8413Y-2187D03*
X7219Y-3187D03*
X8413Y-3187D03*
X7219Y-4187D03*
X8413Y-4187D03*
X7219Y-5187D03*
X8413Y-5187D03*
X7219Y-6187D03*
X8413Y-6187D03*
X7219Y-7187D03*
X8413Y-7187D03*
X7219Y-8187D03*
X8413Y-8187D03*
X7219Y-9187D03*
X8413Y-9187D03*
X7219Y-10187D03*
X8413Y-10187D03*
X7219Y-11187D03*
X8413Y-11187D03*
G54D17*
X6595Y-14055D03*
X5845Y-14055D03*
G54D18*
X1531Y-11023D03*
G54D19*
X2531Y-11023D03*
X3531Y-11023D03*
X4531Y-11023D03*
G54D14*
X2728Y-4692D03*
X3128Y-4692D03*
G54D20*
X2328Y-5092D03*
G54D14*
X3528Y-4692D03*
X1928Y-4692D03*
X3928Y-4692D03*
X2728Y-3142D03*
X3128Y-3142D03*
G54D20*
X2328Y-3142D03*
G54D14*
X3528Y-3142D03*
X1928Y-3142D03*
X3928Y-3142D03*
G54D21*
X1889Y-15433D03*
G54D22*
X2289Y-15833D03*
X2689Y-15433D03*
X3089Y-15433D03*
X3489Y-15433D03*
X3889Y-15433D03*
G54D21*
X1889Y-13976D03*
G54D22*
X2289Y-13976D03*
X2689Y-13976D03*
X3089Y-13976D03*
X3489Y-13976D03*
X3889Y-13976D03*
G54D12*
X2728Y-8092D03*
X3128Y-8092D03*
G54D13*
X2328Y-8492D03*
G54D12*
X3528Y-8092D03*
G54D14*
X1928Y-8092D03*
X3928Y-8092D03*
G54D23*
X8425Y-15078D03*
X1299Y-1220D03*
G54D17*
X4193Y-984D03*
X3443Y-984D03*
G54D24*
X3976Y-2362D03*
X6220Y-4881D03*
X4488Y-13188D03*
G54D25*
X7316Y-11187D02*
X7316Y-12290D01*
X7086Y-14055D02*
X6595Y-14055D01*
X7244Y-13897D02*
X7086Y-14055D01*
X7244Y-12362D02*
X7244Y-13897D01*
X7316Y-12290D02*
X7244Y-12362D01*
X3128Y-3142D02*
X3128Y-2540D01*
X6266Y-6187D02*
X7316Y-6187D01*
X5511Y-5433D02*
X6266Y-6187D01*
X5511Y-2834D02*
X5511Y-5433D01*
X4645Y-1968D02*
X5511Y-2834D01*
X3700Y-1968D02*
X4645Y-1968D01*
X3128Y-2540D02*
X3700Y-1968D01*
X3089Y-13976D02*
X3089Y-15433D01*
X3531Y-11023D02*
X3531Y-12570D01*
X3089Y-13012D02*
X3089Y-13976D01*
X3531Y-12570D02*
X3089Y-13012D01*
X3128Y-8092D02*
X3128Y-9861D01*
X3531Y-10263D02*
X3531Y-11023D01*
X3128Y-9861D02*
X3531Y-10263D01*
X3128Y-6742D02*
X3128Y-8092D01*
X3128Y-4692D02*
X3128Y-6742D01*
X3128Y-3142D02*
X3128Y-4692D01*
X7316Y-5187D02*
X6526Y-5187D01*
X3528Y-2809D02*
X3528Y-3142D01*
X3976Y-2362D02*
X3528Y-2809D01*
X6526Y-5187D02*
X6220Y-4881D01*
X3528Y-4692D02*
X3528Y-3142D01*
X3528Y-6742D02*
X3528Y-4692D01*
X3528Y-8092D02*
X3528Y-6742D01*
X4531Y-11023D02*
X4531Y-10318D01*
X3528Y-9316D02*
X3528Y-8092D01*
X4531Y-10318D02*
X3528Y-9316D01*
X3489Y-13976D02*
X3489Y-13242D01*
X4531Y-12200D02*
X4531Y-11023D01*
X3489Y-13242D02*
X4531Y-12200D01*
X3489Y-15433D02*
X3489Y-13976D01*
X7316Y-2187D02*
X6046Y-2187D01*
X4842Y-984D02*
X4193Y-984D01*
X6046Y-2187D02*
X4842Y-984D01*
X9330Y-9842D02*
X9330Y-10708D01*
X8851Y-11187D02*
X8316Y-11187D01*
X9330Y-10708D02*
X8851Y-11187D01*
X8316Y-7187D02*
X8644Y-7187D01*
X8644Y-7187D02*
X9330Y-7874D01*
X9330Y-7874D02*
X9330Y-9842D01*
X8985Y-10187D02*
X8316Y-10187D01*
X9330Y-9842D02*
X8985Y-10187D01*
X2728Y-4692D02*
X2728Y-3142D01*
X2728Y-6742D02*
X2728Y-4692D01*
X2728Y-8092D02*
X2728Y-6742D01*
X2531Y-11023D02*
X2531Y-9673D01*
X2728Y-9475D02*
X2728Y-8092D01*
X2531Y-9673D02*
X2728Y-9475D01*
X2689Y-13976D02*
X2689Y-11862D01*
X2531Y-11704D02*
X2531Y-11023D01*
X2689Y-11862D02*
X2531Y-11704D01*
X2689Y-15433D02*
X2689Y-13976D01*
X3443Y-984D02*
X3188Y-984D01*
X2328Y-1844D02*
X2328Y-3142D01*
X3188Y-984D02*
X2328Y-1844D01*
X5845Y-14055D02*
X5354Y-14055D01*
X5354Y-14055D02*
X4488Y-13188D01*
X2289Y-13976D02*
X2289Y-15833D01*
X1531Y-11023D02*
X1531Y-12279D01*
X2289Y-13037D02*
X2289Y-13976D01*
X1531Y-12279D02*
X2289Y-13037D01*
X2328Y-8492D02*
X2328Y-9246D01*
X1531Y-10043D02*
X1531Y-11023D01*
X2328Y-9246D02*
X1531Y-10043D01*
X2328Y-6742D02*
X2328Y-8492D01*
X2328Y-5092D02*
X2328Y-6742D01*
X2328Y-3142D02*
X2328Y-5092D01*
G54D10*
G36*
X2753Y-3085D02*
X2753Y-3199D01*
X2734Y-3218D01*
X2728Y-3213D01*
X2723Y-3218D01*
X2703Y-3199D01*
X2703Y-3085D01*
X2723Y-3066D01*
X2728Y-3071D01*
X2734Y-3066D01*
X2753Y-3085D01*
X2753Y-3085D01*
G37*
G54D25*
X2753Y-3085D02*
X2753Y-3199D01*
X2734Y-3218D01*
X2728Y-3213D01*
X2723Y-3218D01*
X2703Y-3199D01*
X2703Y-3085D01*
X2723Y-3066D01*
X2728Y-3071D01*
X2734Y-3066D01*
X2753Y-3085D01*
G54D10*
G36*
X2753Y-4635D02*
X2753Y-4749D01*
X2734Y-4768D01*
X2728Y-4763D01*
X2723Y-4768D01*
X2652Y-4698D01*
X2658Y-4692D01*
X2652Y-4686D01*
X2723Y-4616D01*
X2728Y-4621D01*
X2734Y-4616D01*
X2753Y-4635D01*
X2753Y-4635D01*
G37*
G54D25*
X2753Y-4635D02*
X2753Y-4749D01*
X2734Y-4768D01*
X2728Y-4763D01*
X2723Y-4768D01*
X2652Y-4698D01*
X2658Y-4692D01*
X2652Y-4686D01*
X2723Y-4616D01*
X2728Y-4621D01*
X2734Y-4616D01*
X2753Y-4635D01*
G54D10*
G36*
X10009Y-16308D02*
X9223Y-16308D01*
X9223Y-14920D01*
X9102Y-14627D01*
X9039Y-14564D01*
X9039Y-11322D01*
X9039Y-11052D01*
X9033Y-11016D01*
X8927Y-10828D01*
X8757Y-10694D01*
X8734Y-10687D01*
X8757Y-10681D01*
X8927Y-10547D01*
X9033Y-10358D01*
X9039Y-10322D01*
X9039Y-10052D01*
X9033Y-10016D01*
X8927Y-9828D01*
X8757Y-9694D01*
X8660Y-9666D01*
X8712Y-9656D01*
X8877Y-9546D01*
X8987Y-9381D01*
X9025Y-9187D01*
X8987Y-8993D01*
X8877Y-8828D01*
X8712Y-8718D01*
X8556Y-8687D01*
X8712Y-8656D01*
X8877Y-8546D01*
X8987Y-8381D01*
X9025Y-8187D01*
X8987Y-7993D01*
X8877Y-7828D01*
X8712Y-7718D01*
X8660Y-7708D01*
X8757Y-7681D01*
X8927Y-7547D01*
X9033Y-7358D01*
X9039Y-7322D01*
X8991Y-7237D01*
X8463Y-7237D01*
X8463Y-7245D01*
X8363Y-7245D01*
X8363Y-7237D01*
X8355Y-7237D01*
X8355Y-7137D01*
X8363Y-7137D01*
X8363Y-7129D01*
X8463Y-7129D01*
X8463Y-7137D01*
X8991Y-7137D01*
X9039Y-7052D01*
X9033Y-7016D01*
X8927Y-6828D01*
X8757Y-6694D01*
X8660Y-6666D01*
X8712Y-6656D01*
X8877Y-6546D01*
X8987Y-6381D01*
X9025Y-6187D01*
X8987Y-5993D01*
X8877Y-5828D01*
X8712Y-5718D01*
X8556Y-5687D01*
X8712Y-5656D01*
X8877Y-5546D01*
X8987Y-5381D01*
X9025Y-5187D01*
X8987Y-4993D01*
X8877Y-4828D01*
X8712Y-4718D01*
X8556Y-4687D01*
X8712Y-4656D01*
X8877Y-4546D01*
X8987Y-4381D01*
X9025Y-4187D01*
X8987Y-3993D01*
X8877Y-3828D01*
X8712Y-3718D01*
X8556Y-3687D01*
X8712Y-3656D01*
X8877Y-3546D01*
X8987Y-3381D01*
X9025Y-3187D01*
X8987Y-2993D01*
X8877Y-2828D01*
X8712Y-2718D01*
X8556Y-2687D01*
X8712Y-2656D01*
X8877Y-2546D01*
X8987Y-2381D01*
X9025Y-2187D01*
X8987Y-1993D01*
X8877Y-1828D01*
X8712Y-1718D01*
X8518Y-1680D01*
X8307Y-1680D01*
X8113Y-1718D01*
X7949Y-1828D01*
X7839Y-1993D01*
X7820Y-2088D01*
X7820Y-1846D01*
X7788Y-1770D01*
X7730Y-1712D01*
X7654Y-1680D01*
X7571Y-1680D01*
X6784Y-1680D01*
X6708Y-1711D01*
X6649Y-1770D01*
X6618Y-1846D01*
X6618Y-1928D01*
X6618Y-1930D01*
X6152Y-1930D01*
X5024Y-802D01*
X4941Y-746D01*
X4842Y-726D01*
X4657Y-726D01*
X4657Y-648D01*
X4625Y-571D01*
X4567Y-513D01*
X4491Y-481D01*
X4408Y-481D01*
X3896Y-481D01*
X3820Y-513D01*
X3818Y-514D01*
X3817Y-513D01*
X3741Y-481D01*
X3658Y-481D01*
X3146Y-481D01*
X3070Y-513D01*
X3012Y-571D01*
X2980Y-647D01*
X2980Y-730D01*
X2980Y-828D01*
X2146Y-1662D01*
X2097Y-1736D01*
X2097Y-1062D01*
X1976Y-769D01*
X1751Y-544D01*
X1458Y-422D01*
X1141Y-422D01*
X847Y-543D01*
X623Y-767D01*
X501Y-1061D01*
X501Y-1378D01*
X622Y-1671D01*
X846Y-1896D01*
X1139Y-2018D01*
X1457Y-2018D01*
X1750Y-1897D01*
X1975Y-1673D01*
X2097Y-1379D01*
X2097Y-1062D01*
X2097Y-1736D01*
X2090Y-1745D01*
X2071Y-1844D01*
X2071Y-2787D01*
X2061Y-2791D01*
X2003Y-2767D01*
X1854Y-2767D01*
X1716Y-2824D01*
X1611Y-2929D01*
X1554Y-3067D01*
X1553Y-3216D01*
X1610Y-3354D01*
X1716Y-3460D01*
X1853Y-3517D01*
X2002Y-3517D01*
X2061Y-3493D01*
X2071Y-3497D01*
X2071Y-4345D01*
X2003Y-4317D01*
X1854Y-4317D01*
X1716Y-4374D01*
X1611Y-4479D01*
X1554Y-4617D01*
X1553Y-4766D01*
X1610Y-4904D01*
X1716Y-5010D01*
X1853Y-5067D01*
X1953Y-5067D01*
X1953Y-5300D01*
X1985Y-5377D01*
X2043Y-5435D01*
X2071Y-5447D01*
X2071Y-6395D01*
X2003Y-6367D01*
X1854Y-6367D01*
X1716Y-6424D01*
X1611Y-6529D01*
X1554Y-6667D01*
X1553Y-6816D01*
X1610Y-6954D01*
X1716Y-7060D01*
X1853Y-7117D01*
X2002Y-7117D01*
X2071Y-7089D01*
X2071Y-7745D01*
X2003Y-7717D01*
X1854Y-7717D01*
X1716Y-7774D01*
X1611Y-7879D01*
X1554Y-8017D01*
X1553Y-8166D01*
X1610Y-8304D01*
X1716Y-8410D01*
X1853Y-8467D01*
X1941Y-8467D01*
X1936Y-8492D01*
X1963Y-8629D01*
X2041Y-8745D01*
X2071Y-8765D01*
X2071Y-9139D01*
X1349Y-9861D01*
X1293Y-9944D01*
X1274Y-10043D01*
X1274Y-10383D01*
X1190Y-10383D01*
X1114Y-10414D01*
X1055Y-10472D01*
X1024Y-10549D01*
X1023Y-10631D01*
X1023Y-11497D01*
X1055Y-11573D01*
X1113Y-11632D01*
X1190Y-11664D01*
X1272Y-11664D01*
X1274Y-11664D01*
X1274Y-12279D01*
X1293Y-12378D01*
X1349Y-12461D01*
X2032Y-13144D01*
X2032Y-13532D01*
X2021Y-13532D01*
X1675Y-13532D01*
X1599Y-13564D01*
X1540Y-13622D01*
X1509Y-13698D01*
X1509Y-13781D01*
X1509Y-14253D01*
X1540Y-14329D01*
X1598Y-14388D01*
X1675Y-14420D01*
X1757Y-14420D01*
X2032Y-14420D01*
X2032Y-14989D01*
X2021Y-14989D01*
X1675Y-14989D01*
X1599Y-15020D01*
X1540Y-15079D01*
X1509Y-15155D01*
X1509Y-15237D01*
X1509Y-15710D01*
X1540Y-15786D01*
X1598Y-15845D01*
X1675Y-15876D01*
X1757Y-15876D01*
X1909Y-15876D01*
X1909Y-15904D01*
X1938Y-16050D01*
X2020Y-16173D01*
X2144Y-16256D01*
X2289Y-16285D01*
X2435Y-16256D01*
X2558Y-16173D01*
X2641Y-16050D01*
X2670Y-15904D01*
X2670Y-15761D01*
X2641Y-15615D01*
X2639Y-15613D01*
X2639Y-15483D01*
X2631Y-15483D01*
X2631Y-15383D01*
X2639Y-15383D01*
X2639Y-15012D01*
X2574Y-14962D01*
X2547Y-14976D01*
X2547Y-14433D01*
X2574Y-14446D01*
X2639Y-14396D01*
X2639Y-14196D01*
X2641Y-14193D01*
X2670Y-14048D01*
X2670Y-13904D01*
X2641Y-13759D01*
X2639Y-13756D01*
X2639Y-13556D01*
X2574Y-13506D01*
X2547Y-13519D01*
X2547Y-13037D01*
X2527Y-12939D01*
X2471Y-12855D01*
X1788Y-12172D01*
X1788Y-11664D01*
X1872Y-11664D01*
X1948Y-11632D01*
X2007Y-11574D01*
X2038Y-11498D01*
X2039Y-11415D01*
X2039Y-11401D01*
X2042Y-11413D01*
X2177Y-11580D01*
X2367Y-11683D01*
X2396Y-11689D01*
X2481Y-11641D01*
X2481Y-11073D01*
X2473Y-11073D01*
X2473Y-10973D01*
X2481Y-10973D01*
X2481Y-10405D01*
X2396Y-10357D01*
X2367Y-10363D01*
X2177Y-10466D01*
X2042Y-10633D01*
X2039Y-10645D01*
X2039Y-10549D01*
X2007Y-10473D01*
X1949Y-10414D01*
X1872Y-10383D01*
X1790Y-10383D01*
X1788Y-10383D01*
X1788Y-10149D01*
X2510Y-9428D01*
X2566Y-9344D01*
X2586Y-9246D01*
X2586Y-8765D01*
X2616Y-8745D01*
X2693Y-8629D01*
X2720Y-8492D01*
X2693Y-8355D01*
X2678Y-8333D01*
X2678Y-8142D01*
X2670Y-8142D01*
X2670Y-8042D01*
X2678Y-8042D01*
X2678Y-7755D01*
X2616Y-7692D01*
X2586Y-7692D01*
X2586Y-7142D01*
X2616Y-7142D01*
X2678Y-7080D01*
X2678Y-6901D01*
X2693Y-6879D01*
X2720Y-6742D01*
X2693Y-6605D01*
X2678Y-6583D01*
X2678Y-6405D01*
X2616Y-6342D01*
X2586Y-6342D01*
X2586Y-5447D01*
X2613Y-5435D01*
X2671Y-5377D01*
X2703Y-5301D01*
X2703Y-5218D01*
X2703Y-5113D01*
X2844Y-5102D01*
X2871Y-5090D01*
X2871Y-6342D01*
X2841Y-6342D01*
X2778Y-6405D01*
X2778Y-6491D01*
X2753Y-6551D01*
X2753Y-6633D01*
X2753Y-6933D01*
X2778Y-6993D01*
X2778Y-7080D01*
X2841Y-7142D01*
X2871Y-7142D01*
X2871Y-7692D01*
X2841Y-7692D01*
X2778Y-7755D01*
X2778Y-7841D01*
X2753Y-7901D01*
X2753Y-7983D01*
X2753Y-8283D01*
X2778Y-8343D01*
X2778Y-8430D01*
X2841Y-8492D01*
X2871Y-8492D01*
X2871Y-9861D01*
X2890Y-9959D01*
X2946Y-10043D01*
X3274Y-10370D01*
X3274Y-10451D01*
X3172Y-10519D01*
X3062Y-10683D01*
X3051Y-10739D01*
X3020Y-10633D01*
X2885Y-10466D01*
X2695Y-10363D01*
X2666Y-10357D01*
X2581Y-10405D01*
X2581Y-10973D01*
X2589Y-10973D01*
X2589Y-11073D01*
X2581Y-11073D01*
X2581Y-11641D01*
X2666Y-11689D01*
X2695Y-11683D01*
X2885Y-11580D01*
X3020Y-11413D01*
X3051Y-11307D01*
X3062Y-11363D01*
X3172Y-11528D01*
X3274Y-11595D01*
X3274Y-12464D01*
X2907Y-12830D01*
X2851Y-12914D01*
X2832Y-13012D01*
X2832Y-13519D01*
X2804Y-13506D01*
X2739Y-13556D01*
X2739Y-13756D01*
X2738Y-13759D01*
X2709Y-13904D01*
X2709Y-14048D01*
X2738Y-14193D01*
X2739Y-14196D01*
X2739Y-14396D01*
X2804Y-14446D01*
X2832Y-14433D01*
X2832Y-14976D01*
X2804Y-14962D01*
X2739Y-15012D01*
X2739Y-15213D01*
X2738Y-15215D01*
X2709Y-15361D01*
X2709Y-15504D01*
X2738Y-15650D01*
X2739Y-15653D01*
X2739Y-15853D01*
X2804Y-15903D01*
X2924Y-15843D01*
X2944Y-15856D01*
X3089Y-15885D01*
X3235Y-15856D01*
X3289Y-15820D01*
X3344Y-15856D01*
X3489Y-15885D01*
X3635Y-15856D01*
X3689Y-15820D01*
X3744Y-15856D01*
X3889Y-15885D01*
X4035Y-15856D01*
X4158Y-15773D01*
X4241Y-15650D01*
X4270Y-15504D01*
X4270Y-15361D01*
X4241Y-15215D01*
X4158Y-15092D01*
X4035Y-15009D01*
X3889Y-14980D01*
X3747Y-15009D01*
X3747Y-14400D01*
X3889Y-14428D01*
X4035Y-14399D01*
X4158Y-14317D01*
X4241Y-14193D01*
X4270Y-14048D01*
X4270Y-13904D01*
X4241Y-13759D01*
X4158Y-13635D01*
X4035Y-13552D01*
X3889Y-13523D01*
X3747Y-13552D01*
X3747Y-13349D01*
X4713Y-12382D01*
X4769Y-12299D01*
X4788Y-12200D01*
X4788Y-11595D01*
X4890Y-11528D01*
X5000Y-11363D01*
X5038Y-11169D01*
X5038Y-10878D01*
X5000Y-10683D01*
X4890Y-10519D01*
X4788Y-10451D01*
X4788Y-10318D01*
X4788Y-10318D01*
X4788Y-10318D01*
X4785Y-10302D01*
X4769Y-10220D01*
X4713Y-10136D01*
X4713Y-10136D01*
X3786Y-9209D01*
X3786Y-8439D01*
X3853Y-8467D01*
X4002Y-8467D01*
X4140Y-8410D01*
X4246Y-8305D01*
X4303Y-8167D01*
X4303Y-8018D01*
X4246Y-7880D01*
X4141Y-7774D01*
X4003Y-7717D01*
X3854Y-7717D01*
X3786Y-7745D01*
X3786Y-7089D01*
X3853Y-7117D01*
X4002Y-7117D01*
X4140Y-7060D01*
X4246Y-6955D01*
X4303Y-6817D01*
X4303Y-6668D01*
X4246Y-6530D01*
X4141Y-6424D01*
X4003Y-6367D01*
X3854Y-6367D01*
X3786Y-6395D01*
X3786Y-5039D01*
X3853Y-5067D01*
X4002Y-5067D01*
X4140Y-5010D01*
X4246Y-4905D01*
X4303Y-4767D01*
X4303Y-4618D01*
X4246Y-4480D01*
X4141Y-4374D01*
X4003Y-4317D01*
X3854Y-4317D01*
X3786Y-4345D01*
X3786Y-3489D01*
X3853Y-3517D01*
X4002Y-3517D01*
X4140Y-3460D01*
X4246Y-3355D01*
X4303Y-3217D01*
X4303Y-3068D01*
X4246Y-2930D01*
X4141Y-2824D01*
X4003Y-2767D01*
X3934Y-2767D01*
X3958Y-2744D01*
X4052Y-2744D01*
X4192Y-2686D01*
X4300Y-2579D01*
X4358Y-2438D01*
X4358Y-2286D01*
X4333Y-2225D01*
X4539Y-2225D01*
X5254Y-2941D01*
X5254Y-5433D01*
X5273Y-5531D01*
X5329Y-5615D01*
X6084Y-6369D01*
X6168Y-6425D01*
X6266Y-6445D01*
X6687Y-6445D01*
X6755Y-6546D01*
X6919Y-6656D01*
X7076Y-6687D01*
X6919Y-6718D01*
X6755Y-6828D01*
X6645Y-6993D01*
X6606Y-7187D01*
X6645Y-7381D01*
X6755Y-7546D01*
X6919Y-7656D01*
X7076Y-7687D01*
X6919Y-7718D01*
X6755Y-7828D01*
X6645Y-7993D01*
X6606Y-8187D01*
X6645Y-8381D01*
X6755Y-8546D01*
X6919Y-8656D01*
X7076Y-8687D01*
X6919Y-8718D01*
X6755Y-8828D01*
X6645Y-8993D01*
X6606Y-9187D01*
X6645Y-9381D01*
X6755Y-9546D01*
X6919Y-9656D01*
X7076Y-9687D01*
X6919Y-9718D01*
X6755Y-9828D01*
X6645Y-9993D01*
X6606Y-10187D01*
X6645Y-10381D01*
X6755Y-10546D01*
X6919Y-10656D01*
X7076Y-10687D01*
X6919Y-10718D01*
X6755Y-10828D01*
X6645Y-10993D01*
X6606Y-11187D01*
X6645Y-11381D01*
X6755Y-11546D01*
X6919Y-11656D01*
X7058Y-11684D01*
X7058Y-12185D01*
X7006Y-12263D01*
X6986Y-12362D01*
X6986Y-13601D01*
X6969Y-13584D01*
X6892Y-13552D01*
X6810Y-13552D01*
X6298Y-13552D01*
X6222Y-13584D01*
X6220Y-13585D01*
X6219Y-13584D01*
X6142Y-13552D01*
X6060Y-13552D01*
X5548Y-13552D01*
X5472Y-13584D01*
X5413Y-13642D01*
X5382Y-13718D01*
X5382Y-13718D01*
X4870Y-13207D01*
X4870Y-13113D01*
X4812Y-12972D01*
X4705Y-12864D01*
X4564Y-12806D01*
X4412Y-12806D01*
X4271Y-12864D01*
X4164Y-12972D01*
X4105Y-13112D01*
X4105Y-13264D01*
X4163Y-13405D01*
X4271Y-13513D01*
X4411Y-13571D01*
X4506Y-13571D01*
X5172Y-14237D01*
X5172Y-14237D01*
X5255Y-14292D01*
X5337Y-14309D01*
X5354Y-14312D01*
X5354Y-14312D01*
X5354Y-14312D01*
X5381Y-14312D01*
X5381Y-14391D01*
X5413Y-14467D01*
X5471Y-14525D01*
X5548Y-14557D01*
X5630Y-14557D01*
X6142Y-14557D01*
X6218Y-14526D01*
X6220Y-14524D01*
X6221Y-14525D01*
X6298Y-14557D01*
X6380Y-14557D01*
X6892Y-14557D01*
X6968Y-14526D01*
X7027Y-14467D01*
X7058Y-14391D01*
X7058Y-14312D01*
X7086Y-14312D01*
X7185Y-14292D01*
X7268Y-14237D01*
X7426Y-14079D01*
X7481Y-13996D01*
X7501Y-13897D01*
X7501Y-12467D01*
X7554Y-12388D01*
X7573Y-12290D01*
X7573Y-11619D01*
X7683Y-11546D01*
X7793Y-11381D01*
X7796Y-11365D01*
X7898Y-11547D01*
X8068Y-11681D01*
X8276Y-11739D01*
X8363Y-11677D01*
X8363Y-11237D01*
X8355Y-11237D01*
X8355Y-11137D01*
X8363Y-11137D01*
X8363Y-10698D01*
X8348Y-10687D01*
X8363Y-10677D01*
X8363Y-10237D01*
X8355Y-10237D01*
X8355Y-10137D01*
X8363Y-10137D01*
X8363Y-10129D01*
X8463Y-10129D01*
X8463Y-10137D01*
X8991Y-10137D01*
X9039Y-10052D01*
X9039Y-10322D01*
X8991Y-10237D01*
X8463Y-10237D01*
X8463Y-10677D01*
X8477Y-10687D01*
X8463Y-10698D01*
X8463Y-11137D01*
X8991Y-11137D01*
X9039Y-11052D01*
X9039Y-11322D01*
X8991Y-11237D01*
X8463Y-11237D01*
X8463Y-11677D01*
X8550Y-11739D01*
X8757Y-11681D01*
X8927Y-11547D01*
X9033Y-11358D01*
X9039Y-11322D01*
X9039Y-14564D01*
X8877Y-14402D01*
X8584Y-14280D01*
X8267Y-14280D01*
X7973Y-14401D01*
X7749Y-14626D01*
X7627Y-14919D01*
X7627Y-15236D01*
X7748Y-15530D01*
X7972Y-15754D01*
X8265Y-15876D01*
X8583Y-15876D01*
X8876Y-15755D01*
X9101Y-15531D01*
X9223Y-15238D01*
X9223Y-14920D01*
X9223Y-16308D01*
X227Y-16308D01*
X227Y-13779D01*
X227Y-227D01*
X10009Y-227D01*
X10009Y-13779D01*
X10009Y-16308D01*
X10009Y-16308D01*
G37*
G54D25*
X10009Y-16308D02*
X9223Y-16308D01*
X9223Y-14920D01*
X9102Y-14627D01*
X9039Y-14564D01*
X9039Y-11322D01*
X9039Y-11052D01*
X9033Y-11016D01*
X8927Y-10828D01*
X8757Y-10694D01*
X8734Y-10687D01*
X8757Y-10681D01*
X8927Y-10547D01*
X9033Y-10358D01*
X9039Y-10322D01*
X9039Y-10052D01*
X9033Y-10016D01*
X8927Y-9828D01*
X8757Y-9694D01*
X8660Y-9666D01*
X8712Y-9656D01*
X8877Y-9546D01*
X8987Y-9381D01*
X9025Y-9187D01*
X8987Y-8993D01*
X8877Y-8828D01*
X8712Y-8718D01*
X8556Y-8687D01*
X8712Y-8656D01*
X8877Y-8546D01*
X8987Y-8381D01*
X9025Y-8187D01*
X8987Y-7993D01*
X8877Y-7828D01*
X8712Y-7718D01*
X8660Y-7708D01*
X8757Y-7681D01*
X8927Y-7547D01*
X9033Y-7358D01*
X9039Y-7322D01*
X8991Y-7237D01*
X8463Y-7237D01*
X8463Y-7245D01*
X8363Y-7245D01*
X8363Y-7237D01*
X8355Y-7237D01*
X8355Y-7137D01*
X8363Y-7137D01*
X8363Y-7129D01*
X8463Y-7129D01*
X8463Y-7137D01*
X8991Y-7137D01*
X9039Y-7052D01*
X9033Y-7016D01*
X8927Y-6828D01*
X8757Y-6694D01*
X8660Y-6666D01*
X8712Y-6656D01*
X8877Y-6546D01*
X8987Y-6381D01*
X9025Y-6187D01*
X8987Y-5993D01*
X8877Y-5828D01*
X8712Y-5718D01*
X8556Y-5687D01*
X8712Y-5656D01*
X8877Y-5546D01*
X8987Y-5381D01*
X9025Y-5187D01*
X8987Y-4993D01*
X8877Y-4828D01*
X8712Y-4718D01*
X8556Y-4687D01*
X8712Y-4656D01*
X8877Y-4546D01*
X8987Y-4381D01*
X9025Y-4187D01*
X8987Y-3993D01*
X8877Y-3828D01*
X8712Y-3718D01*
X8556Y-3687D01*
X8712Y-3656D01*
X8877Y-3546D01*
X8987Y-3381D01*
X9025Y-3187D01*
X8987Y-2993D01*
X8877Y-2828D01*
X8712Y-2718D01*
X8556Y-2687D01*
X8712Y-2656D01*
X8877Y-2546D01*
X8987Y-2381D01*
X9025Y-2187D01*
X8987Y-1993D01*
X8877Y-1828D01*
X8712Y-1718D01*
X8518Y-1680D01*
X8307Y-1680D01*
X8113Y-1718D01*
X7949Y-1828D01*
X7839Y-1993D01*
X7820Y-2088D01*
X7820Y-1846D01*
X7788Y-1770D01*
X7730Y-1712D01*
X7654Y-1680D01*
X7571Y-1680D01*
X6784Y-1680D01*
X6708Y-1711D01*
X6649Y-1770D01*
X6618Y-1846D01*
X6618Y-1928D01*
X6618Y-1930D01*
X6152Y-1930D01*
X5024Y-802D01*
X4941Y-746D01*
X4842Y-726D01*
X4657Y-726D01*
X4657Y-648D01*
X4625Y-571D01*
X4567Y-513D01*
X4491Y-481D01*
X4408Y-481D01*
X3896Y-481D01*
X3820Y-513D01*
X3818Y-514D01*
X3817Y-513D01*
X3741Y-481D01*
X3658Y-481D01*
X3146Y-481D01*
X3070Y-513D01*
X3012Y-571D01*
X2980Y-647D01*
X2980Y-730D01*
X2980Y-828D01*
X2146Y-1662D01*
X2097Y-1736D01*
X2097Y-1062D01*
X1976Y-769D01*
X1751Y-544D01*
X1458Y-422D01*
X1141Y-422D01*
X847Y-543D01*
X623Y-767D01*
X501Y-1061D01*
X501Y-1378D01*
X622Y-1671D01*
X846Y-1896D01*
X1139Y-2018D01*
X1457Y-2018D01*
X1750Y-1897D01*
X1975Y-1673D01*
X2097Y-1379D01*
X2097Y-1062D01*
X2097Y-1736D01*
X2090Y-1745D01*
X2071Y-1844D01*
X2071Y-2787D01*
X2061Y-2791D01*
X2003Y-2767D01*
X1854Y-2767D01*
X1716Y-2824D01*
X1611Y-2929D01*
X1554Y-3067D01*
X1553Y-3216D01*
X1610Y-3354D01*
X1716Y-3460D01*
X1853Y-3517D01*
X2002Y-3517D01*
X2061Y-3493D01*
X2071Y-3497D01*
X2071Y-4345D01*
X2003Y-4317D01*
X1854Y-4317D01*
X1716Y-4374D01*
X1611Y-4479D01*
X1554Y-4617D01*
X1553Y-4766D01*
X1610Y-4904D01*
X1716Y-5010D01*
X1853Y-5067D01*
X1953Y-5067D01*
X1953Y-5300D01*
X1985Y-5377D01*
X2043Y-5435D01*
X2071Y-5447D01*
X2071Y-6395D01*
X2003Y-6367D01*
X1854Y-6367D01*
X1716Y-6424D01*
X1611Y-6529D01*
X1554Y-6667D01*
X1553Y-6816D01*
X1610Y-6954D01*
X1716Y-7060D01*
X1853Y-7117D01*
X2002Y-7117D01*
X2071Y-7089D01*
X2071Y-7745D01*
X2003Y-7717D01*
X1854Y-7717D01*
X1716Y-7774D01*
X1611Y-7879D01*
X1554Y-8017D01*
X1553Y-8166D01*
X1610Y-8304D01*
X1716Y-8410D01*
X1853Y-8467D01*
X1941Y-8467D01*
X1936Y-8492D01*
X1963Y-8629D01*
X2041Y-8745D01*
X2071Y-8765D01*
X2071Y-9139D01*
X1349Y-9861D01*
X1293Y-9944D01*
X1274Y-10043D01*
X1274Y-10383D01*
X1190Y-10383D01*
X1114Y-10414D01*
X1055Y-10472D01*
X1024Y-10549D01*
X1023Y-10631D01*
X1023Y-11497D01*
X1055Y-11573D01*
X1113Y-11632D01*
X1190Y-11664D01*
X1272Y-11664D01*
X1274Y-11664D01*
X1274Y-12279D01*
X1293Y-12378D01*
X1349Y-12461D01*
X2032Y-13144D01*
X2032Y-13532D01*
X2021Y-13532D01*
X1675Y-13532D01*
X1599Y-13564D01*
X1540Y-13622D01*
X1509Y-13698D01*
X1509Y-13781D01*
X1509Y-14253D01*
X1540Y-14329D01*
X1598Y-14388D01*
X1675Y-14420D01*
X1757Y-14420D01*
X2032Y-14420D01*
X2032Y-14989D01*
X2021Y-14989D01*
X1675Y-14989D01*
X1599Y-15020D01*
X1540Y-15079D01*
X1509Y-15155D01*
X1509Y-15237D01*
X1509Y-15710D01*
X1540Y-15786D01*
X1598Y-15845D01*
X1675Y-15876D01*
X1757Y-15876D01*
X1909Y-15876D01*
X1909Y-15904D01*
X1938Y-16050D01*
X2020Y-16173D01*
X2144Y-16256D01*
X2289Y-16285D01*
X2435Y-16256D01*
X2558Y-16173D01*
X2641Y-16050D01*
X2670Y-15904D01*
X2670Y-15761D01*
X2641Y-15615D01*
X2639Y-15613D01*
X2639Y-15483D01*
X2631Y-15483D01*
X2631Y-15383D01*
X2639Y-15383D01*
X2639Y-15012D01*
X2574Y-14962D01*
X2547Y-14976D01*
X2547Y-14433D01*
X2574Y-14446D01*
X2639Y-14396D01*
X2639Y-14196D01*
X2641Y-14193D01*
X2670Y-14048D01*
X2670Y-13904D01*
X2641Y-13759D01*
X2639Y-13756D01*
X2639Y-13556D01*
X2574Y-13506D01*
X2547Y-13519D01*
X2547Y-13037D01*
X2527Y-12939D01*
X2471Y-12855D01*
X1788Y-12172D01*
X1788Y-11664D01*
X1872Y-11664D01*
X1948Y-11632D01*
X2007Y-11574D01*
X2038Y-11498D01*
X2039Y-11415D01*
X2039Y-11401D01*
X2042Y-11413D01*
X2177Y-11580D01*
X2367Y-11683D01*
X2396Y-11689D01*
X2481Y-11641D01*
X2481Y-11073D01*
X2473Y-11073D01*
X2473Y-10973D01*
X2481Y-10973D01*
X2481Y-10405D01*
X2396Y-10357D01*
X2367Y-10363D01*
X2177Y-10466D01*
X2042Y-10633D01*
X2039Y-10645D01*
X2039Y-10549D01*
X2007Y-10473D01*
X1949Y-10414D01*
X1872Y-10383D01*
X1790Y-10383D01*
X1788Y-10383D01*
X1788Y-10149D01*
X2510Y-9428D01*
X2566Y-9344D01*
X2586Y-9246D01*
X2586Y-8765D01*
X2616Y-8745D01*
X2693Y-8629D01*
X2720Y-8492D01*
X2693Y-8355D01*
X2678Y-8333D01*
X2678Y-8142D01*
X2670Y-8142D01*
X2670Y-8042D01*
X2678Y-8042D01*
X2678Y-7755D01*
X2616Y-7692D01*
X2586Y-7692D01*
X2586Y-7142D01*
X2616Y-7142D01*
X2678Y-7080D01*
X2678Y-6901D01*
X2693Y-6879D01*
X2720Y-6742D01*
X2693Y-6605D01*
X2678Y-6583D01*
X2678Y-6405D01*
X2616Y-6342D01*
X2586Y-6342D01*
X2586Y-5447D01*
X2613Y-5435D01*
X2671Y-5377D01*
X2703Y-5301D01*
X2703Y-5218D01*
X2703Y-5113D01*
X2844Y-5102D01*
X2871Y-5090D01*
X2871Y-6342D01*
X2841Y-6342D01*
X2778Y-6405D01*
X2778Y-6491D01*
X2753Y-6551D01*
X2753Y-6633D01*
X2753Y-6933D01*
X2778Y-6993D01*
X2778Y-7080D01*
X2841Y-7142D01*
X2871Y-7142D01*
X2871Y-7692D01*
X2841Y-7692D01*
X2778Y-7755D01*
X2778Y-7841D01*
X2753Y-7901D01*
X2753Y-7983D01*
X2753Y-8283D01*
X2778Y-8343D01*
X2778Y-8430D01*
X2841Y-8492D01*
X2871Y-8492D01*
X2871Y-9861D01*
X2890Y-9959D01*
X2946Y-10043D01*
X3274Y-10370D01*
X3274Y-10451D01*
X3172Y-10519D01*
X3062Y-10683D01*
X3051Y-10739D01*
X3020Y-10633D01*
X2885Y-10466D01*
X2695Y-10363D01*
X2666Y-10357D01*
X2581Y-10405D01*
X2581Y-10973D01*
X2589Y-10973D01*
X2589Y-11073D01*
X2581Y-11073D01*
X2581Y-11641D01*
X2666Y-11689D01*
X2695Y-11683D01*
X2885Y-11580D01*
X3020Y-11413D01*
X3051Y-11307D01*
X3062Y-11363D01*
X3172Y-11528D01*
X3274Y-11595D01*
X3274Y-12464D01*
X2907Y-12830D01*
X2851Y-12914D01*
X2832Y-13012D01*
X2832Y-13519D01*
X2804Y-13506D01*
X2739Y-13556D01*
X2739Y-13756D01*
X2738Y-13759D01*
X2709Y-13904D01*
X2709Y-14048D01*
X2738Y-14193D01*
X2739Y-14196D01*
X2739Y-14396D01*
X2804Y-14446D01*
X2832Y-14433D01*
X2832Y-14976D01*
X2804Y-14962D01*
X2739Y-15012D01*
X2739Y-15213D01*
X2738Y-15215D01*
X2709Y-15361D01*
X2709Y-15504D01*
X2738Y-15650D01*
X2739Y-15653D01*
X2739Y-15853D01*
X2804Y-15903D01*
X2924Y-15843D01*
X2944Y-15856D01*
X3089Y-15885D01*
X3235Y-15856D01*
X3289Y-15820D01*
X3344Y-15856D01*
X3489Y-15885D01*
X3635Y-15856D01*
X3689Y-15820D01*
X3744Y-15856D01*
X3889Y-15885D01*
X4035Y-15856D01*
X4158Y-15773D01*
X4241Y-15650D01*
X4270Y-15504D01*
X4270Y-15361D01*
X4241Y-15215D01*
X4158Y-15092D01*
X4035Y-15009D01*
X3889Y-14980D01*
X3747Y-15009D01*
X3747Y-14400D01*
X3889Y-14428D01*
X4035Y-14399D01*
X4158Y-14317D01*
X4241Y-14193D01*
X4270Y-14048D01*
X4270Y-13904D01*
X4241Y-13759D01*
X4158Y-13635D01*
X4035Y-13552D01*
X3889Y-13523D01*
X3747Y-13552D01*
X3747Y-13349D01*
X4713Y-12382D01*
X4769Y-12299D01*
X4788Y-12200D01*
X4788Y-11595D01*
X4890Y-11528D01*
X5000Y-11363D01*
X5038Y-11169D01*
X5038Y-10878D01*
X5000Y-10683D01*
X4890Y-10519D01*
X4788Y-10451D01*
X4788Y-10318D01*
X4788Y-10318D01*
X4788Y-10318D01*
X4785Y-10302D01*
X4769Y-10220D01*
X4713Y-10136D01*
X4713Y-10136D01*
X3786Y-9209D01*
X3786Y-8439D01*
X3853Y-8467D01*
X4002Y-8467D01*
X4140Y-8410D01*
X4246Y-8305D01*
X4303Y-8167D01*
X4303Y-8018D01*
X4246Y-7880D01*
X4141Y-7774D01*
X4003Y-7717D01*
X3854Y-7717D01*
X3786Y-7745D01*
X3786Y-7089D01*
X3853Y-7117D01*
X4002Y-7117D01*
X4140Y-7060D01*
X4246Y-6955D01*
X4303Y-6817D01*
X4303Y-6668D01*
X4246Y-6530D01*
X4141Y-6424D01*
X4003Y-6367D01*
X3854Y-6367D01*
X3786Y-6395D01*
X3786Y-5039D01*
X3853Y-5067D01*
X4002Y-5067D01*
X4140Y-5010D01*
X4246Y-4905D01*
X4303Y-4767D01*
X4303Y-4618D01*
X4246Y-4480D01*
X4141Y-4374D01*
X4003Y-4317D01*
X3854Y-4317D01*
X3786Y-4345D01*
X3786Y-3489D01*
X3853Y-3517D01*
X4002Y-3517D01*
X4140Y-3460D01*
X4246Y-3355D01*
X4303Y-3217D01*
X4303Y-3068D01*
X4246Y-2930D01*
X4141Y-2824D01*
X4003Y-2767D01*
X3934Y-2767D01*
X3958Y-2744D01*
X4052Y-2744D01*
X4192Y-2686D01*
X4300Y-2579D01*
X4358Y-2438D01*
X4358Y-2286D01*
X4333Y-2225D01*
X4539Y-2225D01*
X5254Y-2941D01*
X5254Y-5433D01*
X5273Y-5531D01*
X5329Y-5615D01*
X6084Y-6369D01*
X6168Y-6425D01*
X6266Y-6445D01*
X6687Y-6445D01*
X6755Y-6546D01*
X6919Y-6656D01*
X7076Y-6687D01*
X6919Y-6718D01*
X6755Y-6828D01*
X6645Y-6993D01*
X6606Y-7187D01*
X6645Y-7381D01*
X6755Y-7546D01*
X6919Y-7656D01*
X7076Y-7687D01*
X6919Y-7718D01*
X6755Y-7828D01*
X6645Y-7993D01*
X6606Y-8187D01*
X6645Y-8381D01*
X6755Y-8546D01*
X6919Y-8656D01*
X7076Y-8687D01*
X6919Y-8718D01*
X6755Y-8828D01*
X6645Y-8993D01*
X6606Y-9187D01*
X6645Y-9381D01*
X6755Y-9546D01*
X6919Y-9656D01*
X7076Y-9687D01*
X6919Y-9718D01*
X6755Y-9828D01*
X6645Y-9993D01*
X6606Y-10187D01*
X6645Y-10381D01*
X6755Y-10546D01*
X6919Y-10656D01*
X7076Y-10687D01*
X6919Y-10718D01*
X6755Y-10828D01*
X6645Y-10993D01*
X6606Y-11187D01*
X6645Y-11381D01*
X6755Y-11546D01*
X6919Y-11656D01*
X7058Y-11684D01*
X7058Y-12185D01*
X7006Y-12263D01*
X6986Y-12362D01*
X6986Y-13601D01*
X6969Y-13584D01*
X6892Y-13552D01*
X6810Y-13552D01*
X6298Y-13552D01*
X6222Y-13584D01*
X6220Y-13585D01*
X6219Y-13584D01*
X6142Y-13552D01*
X6060Y-13552D01*
X5548Y-13552D01*
X5472Y-13584D01*
X5413Y-13642D01*
X5382Y-13718D01*
X5382Y-13718D01*
X4870Y-13207D01*
X4870Y-13113D01*
X4812Y-12972D01*
X4705Y-12864D01*
X4564Y-12806D01*
X4412Y-12806D01*
X4271Y-12864D01*
X4164Y-12972D01*
X4105Y-13112D01*
X4105Y-13264D01*
X4163Y-13405D01*
X4271Y-13513D01*
X4411Y-13571D01*
X4506Y-13571D01*
X5172Y-14237D01*
X5172Y-14237D01*
X5255Y-14292D01*
X5337Y-14309D01*
X5354Y-14312D01*
X5354Y-14312D01*
X5354Y-14312D01*
X5381Y-14312D01*
X5381Y-14391D01*
X5413Y-14467D01*
X5471Y-14525D01*
X5548Y-14557D01*
X5630Y-14557D01*
X6142Y-14557D01*
X6218Y-14526D01*
X6220Y-14524D01*
X6221Y-14525D01*
X6298Y-14557D01*
X6380Y-14557D01*
X6892Y-14557D01*
X6968Y-14526D01*
X7027Y-14467D01*
X7058Y-14391D01*
X7058Y-14312D01*
X7086Y-14312D01*
X7185Y-14292D01*
X7268Y-14237D01*
X7426Y-14079D01*
X7481Y-13996D01*
X7501Y-13897D01*
X7501Y-12467D01*
X7554Y-12388D01*
X7573Y-12290D01*
X7573Y-11619D01*
X7683Y-11546D01*
X7793Y-11381D01*
X7796Y-11365D01*
X7898Y-11547D01*
X8068Y-11681D01*
X8276Y-11739D01*
X8363Y-11677D01*
X8363Y-11237D01*
X8355Y-11237D01*
X8355Y-11137D01*
X8363Y-11137D01*
X8363Y-10698D01*
X8348Y-10687D01*
X8363Y-10677D01*
X8363Y-10237D01*
X8355Y-10237D01*
X8355Y-10137D01*
X8363Y-10137D01*
X8363Y-10129D01*
X8463Y-10129D01*
X8463Y-10137D01*
X8991Y-10137D01*
X9039Y-10052D01*
X9039Y-10322D01*
X8991Y-10237D01*
X8463Y-10237D01*
X8463Y-10677D01*
X8477Y-10687D01*
X8463Y-10698D01*
X8463Y-11137D01*
X8991Y-11137D01*
X9039Y-11052D01*
X9039Y-11322D01*
X8991Y-11237D01*
X8463Y-11237D01*
X8463Y-11677D01*
X8550Y-11739D01*
X8757Y-11681D01*
X8927Y-11547D01*
X9033Y-11358D01*
X9039Y-11322D01*
X9039Y-14564D01*
X8877Y-14402D01*
X8584Y-14280D01*
X8267Y-14280D01*
X7973Y-14401D01*
X7749Y-14626D01*
X7627Y-14919D01*
X7627Y-15236D01*
X7748Y-15530D01*
X7972Y-15754D01*
X8265Y-15876D01*
X8583Y-15876D01*
X8876Y-15755D01*
X9101Y-15531D01*
X9223Y-15238D01*
X9223Y-14920D01*
X9223Y-16308D01*
X227Y-16308D01*
X227Y-13779D01*
X227Y-227D01*
X10009Y-227D01*
X10009Y-13779D01*
X10009Y-16308D01*
M02*
