M48
;DRILL file {KiCad (5.0.1)-4} date 21.12.2018 18:48:31
;FORMAT={-:-/ absolute / metric / decimal}
FMAT,2
METRIC,TZ
T1C0.200
T2C0.300
T3C0.300
T4C1.001
T5C1.100
%
G90
G05
M71
T1
X-10.8Y-3.178
X-10.8Y-3.178
X-10.719Y-4.28
X-9.652Y2.019
X-9.652Y2.019
X-8.484Y-3.213
X-7.83Y-4.454
X-7.823Y2.07
X-7.823Y2.067
X-7.214Y1.359
X-7.214Y1.359
X-4.928Y4.255
X-4.775Y2.222
X-4.775Y2.222
X-4.318Y6.185
X-3.251Y3.274
X-3.251Y3.274
X-3.251Y2.601
X-3.251Y2.601
X-2.692Y4.966
X-1.2Y7.346
X-1.2Y7.346
X-0.667Y-2.921
X-0.66Y4.051
X-0.66Y4.051
X-0.601Y3.137
X-0.562Y5.167
X0.305Y-6.363
X0.47Y2.553
X0.508Y5.067
X0.66Y3.289
X0.768Y-1.067
X0.864Y-4.381
X1.475Y4.002
X2.249Y2.624
X2.743Y-1.181
X2.784Y3.518
X2.997Y1.054
X3.274Y0.089
X4.623Y-4.686
X4.674Y-2.197
X6.96Y0.445
X6.96Y-0.318
X7.214Y-7.429
T2
X-4.249Y-2.349
T3
X-5.25Y-0.348
X-5.25Y-1.349
X-5.25Y-2.349
X-4.249Y-0.348
X-4.249Y-1.349
X-3.249Y-0.348
X-3.249Y-1.349
X-3.249Y-2.349
T5
X7.Y2.234
X7.Y-2.266
T4
X7.749Y5.684G85X6.25Y5.684
G05
X7.749Y-5.716G85X6.25Y-5.716
G05
T0
M30
