G04 #@! TF.FileFunction,Copper,L1,Top,Signal*
%FSLAX46Y46*%
G04 Gerber Fmt 4.6, Leading zero omitted, Abs format (unit mm)*
G04 Created by KiCad (PCBNEW 4.0.7) date 2018. July 01., Sunday 21:28:52*
%MOMM*%
%LPD*%
G01*
G04 APERTURE LIST*
%ADD10C,0.150000*%
%ADD11R,0.400000X0.600000*%
%ADD12R,0.600000X0.400000*%
%ADD13R,0.600000X0.500000*%
%ADD14R,0.700000X0.250000*%
%ADD15R,0.830000X1.190000*%
%ADD16R,0.650000X1.060000*%
%ADD17R,0.300000X0.450000*%
%ADD18C,1.800000*%
%ADD19C,0.850000*%
%ADD20R,0.850000X0.850000*%
%ADD21O,3.500120X1.501140*%
%ADD22C,1.099820*%
%ADD23R,0.800100X0.698500*%
%ADD24R,0.749300X0.299720*%
%ADD25R,0.299720X0.749300*%
%ADD26R,4.099560X4.099560*%
%ADD27C,0.304800*%
%ADD28R,1.198880X0.619760*%
%ADD29R,1.193800X1.397000*%
%ADD30R,0.698500X0.800100*%
%ADD31C,0.546100*%
%ADD32C,0.300000*%
%ADD33C,0.152400*%
%ADD34C,0.250000*%
%ADD35C,0.127000*%
%ADD36C,0.200000*%
%ADD37C,0.200660*%
G04 APERTURE END LIST*
D10*
D11*
X-5174400Y-6007100D03*
X-4274400Y-6007100D03*
D12*
X-2997200Y-6711100D03*
X-2997200Y-5811100D03*
D11*
X-5174400Y-6921500D03*
X-4274400Y-6921500D03*
X-6001600Y2476500D03*
X-6901600Y2476500D03*
X1124800Y800100D03*
X2024800Y800100D03*
X1124800Y1816100D03*
X2024800Y1816100D03*
X1124800Y-317500D03*
X2024800Y-317500D03*
D12*
X-11074400Y-7066700D03*
X-11074400Y-6166700D03*
X-7112000Y-6914300D03*
X-7112000Y-6014300D03*
D11*
X-5087200Y4610100D03*
X-5987200Y4610100D03*
X-5087200Y3695700D03*
X-5987200Y3695700D03*
D13*
X-9263200Y-3416300D03*
X-10363200Y-3416300D03*
D14*
X-9324800Y7239700D03*
X-9324800Y6739700D03*
X-9324800Y6239700D03*
X-9324800Y5739700D03*
X-6524800Y5739700D03*
X-6524800Y6239700D03*
X-6524800Y6739700D03*
X-6524800Y7239700D03*
D15*
X-7509800Y5894700D03*
X-7509800Y7084700D03*
X-8339800Y5894700D03*
X-8339800Y7084700D03*
D16*
X-10043200Y-6903900D03*
X-9093200Y-6903900D03*
X-8143200Y-6903900D03*
X-8143200Y-4703900D03*
X-10043200Y-4703900D03*
X-9093200Y-4703900D03*
D13*
X-4326800Y7251700D03*
X-5426800Y7251700D03*
D17*
X2903600Y-1931900D03*
X3903600Y-1931900D03*
X2903600Y-531900D03*
X3403600Y-1931900D03*
X3903600Y-531900D03*
D18*
X8240000Y-1213500D03*
X8240000Y1326500D03*
X6970000Y-3753500D03*
X5700000Y-1213500D03*
X5700000Y1326500D03*
X6970000Y3866500D03*
D19*
X-2235000Y6246500D03*
X-965000Y6246500D03*
D20*
X-3505000Y6246500D03*
D19*
X305000Y6246500D03*
D21*
X6999600Y5683770D03*
X6999600Y-5715750D03*
D22*
X6999600Y-2266430D03*
X6999600Y2234450D03*
D23*
X2649220Y-6515100D03*
X1551940Y-6515100D03*
X-1897380Y-5549900D03*
X-800100Y-5549900D03*
D24*
X-7025640Y652780D03*
X-7025640Y152400D03*
X-7025640Y-347980D03*
X-7025640Y-848360D03*
X-7025640Y-1348740D03*
X-7025640Y-1849120D03*
X-7025640Y-2349500D03*
X-7025640Y-2849880D03*
X-7025640Y-3350260D03*
D25*
X-6250940Y-4124960D03*
X-5750560Y-4124960D03*
X-5250180Y-4124960D03*
X-4749800Y-4124960D03*
X-4249420Y-4124960D03*
X-3749040Y-4124960D03*
X-3248660Y-4124960D03*
X-2748280Y-4124960D03*
X-2247900Y-4124960D03*
D24*
X-1473200Y-3350260D03*
X-1473200Y-2849880D03*
X-1473200Y-2349500D03*
X-1473200Y-1849120D03*
X-1473200Y-1348740D03*
X-1473200Y-848360D03*
X-1473200Y-347980D03*
X-1473200Y152400D03*
X-1473200Y652780D03*
D25*
X-2247900Y1427480D03*
X-2748280Y1427480D03*
X-3248660Y1427480D03*
X-3749040Y1427480D03*
X-4249420Y1427480D03*
X-4749800Y1427480D03*
X-5250180Y1427480D03*
X-5750560Y1427480D03*
X-6250940Y1427480D03*
D26*
X-4249420Y-1348740D03*
D27*
X-4249420Y-1348740D03*
X-3248660Y-1348740D03*
X-5250180Y-1348740D03*
X-5250180Y-347980D03*
X-4249420Y-347980D03*
X-3248660Y-347980D03*
X-3248660Y-2349500D03*
X-4249420Y-2349500D03*
X-5250180Y-2349500D03*
D28*
X3159760Y-5331460D03*
X3159760Y-4381500D03*
X3159760Y-3431540D03*
X523240Y-3431540D03*
X523240Y-5331460D03*
D29*
X-11112500Y3271520D03*
X-9410700Y3271520D03*
X-9410700Y1071880D03*
X-11112500Y1071880D03*
D23*
X-8442960Y-977900D03*
X-9540240Y-977900D03*
D30*
X-8128000Y810260D03*
X-8128000Y1907540D03*
D23*
X2674620Y6550660D03*
X1577340Y6550660D03*
D30*
X-4100000Y3147860D03*
X-4100000Y4245140D03*
D23*
X-8442960Y-2247900D03*
X-9540240Y-2247900D03*
D30*
X-11226800Y4671060D03*
X-11226800Y5768340D03*
D23*
X-800100Y-6949440D03*
X-1897380Y-6949440D03*
X2674620Y5300980D03*
X1577340Y5300980D03*
X1026160Y-2298700D03*
X2123440Y-2298700D03*
D31*
X931860Y-4381500D03*
X1307368Y3841459D03*
X-4318000Y6184900D03*
X-8483600Y-3213096D03*
X-7213600Y1358900D03*
X-660400Y4051300D03*
X-660400Y4051300D03*
X-7213600Y1358900D03*
X914400Y-1231898D03*
X469898Y2552700D03*
X2997200Y1054100D03*
X2743200Y-1181100D03*
X4673600Y-2197100D03*
X3274211Y88900D03*
X-692294Y-3074008D03*
X-3251200Y2600937D03*
X-3251200Y2600935D03*
X-4796605Y-5348728D03*
X-3251200Y3274050D03*
X-3251200Y3274048D03*
X6959600Y444500D03*
X-561954Y5166970D03*
X6959600Y-317500D03*
X508000Y5067300D03*
X2249092Y2623730D03*
X-2347553Y4905116D03*
X4622800Y-4686300D03*
X-580478Y3157142D03*
X-11379200Y-1181100D03*
X7213600Y-7429500D03*
X304798Y-6362700D03*
X660400Y3289300D03*
X2783920Y3517899D03*
X-1200000Y7346500D03*
X-1200000Y7346500D03*
X-6248400Y-5346700D03*
X-6197600Y-6108700D03*
X-10763240Y-5397500D03*
D32*
X-800100Y-4381500D02*
X931860Y-4381500D01*
D33*
X1577340Y4111431D02*
X1307368Y3841459D01*
X1577340Y5300980D02*
X1577340Y4111431D01*
D34*
X-8442960Y-2247900D02*
X-8442960Y-3172456D01*
X-8442960Y-3172456D02*
X-8483600Y-3213096D01*
X-8483600Y-3213096D02*
X-9059996Y-3213096D01*
D33*
X-9059996Y-3213096D02*
X-9263200Y-3416300D01*
D34*
X-7025640Y-1849120D02*
X-7526020Y-1849120D01*
X-7924800Y-2247900D02*
X-8442960Y-2247900D01*
X-7526020Y-1849120D02*
X-7924800Y-2247900D01*
X-9093200Y-4703900D02*
X-9093200Y-3586300D01*
D33*
X-9093200Y-3586300D02*
X-9263200Y-3416300D01*
X-8720000Y-1970860D02*
X-8709681Y-1981179D01*
D34*
X-5087200Y6509700D02*
X-5087200Y6184900D01*
X-5426800Y6849300D02*
X-5087200Y6509700D01*
X-5426800Y7251700D02*
X-5426800Y6849300D01*
X-4318000Y6184900D02*
X-5087200Y6184900D01*
X-5087200Y6184900D02*
X-5087200Y5062500D01*
X-5087200Y5062500D02*
X-5087200Y4610100D01*
D33*
X-5426800Y7251700D02*
X-5376800Y7251700D01*
X-5426800Y7251700D02*
X-6512800Y7251700D01*
X-6512800Y7251700D02*
X-6524800Y7239700D01*
X-5087200Y3695700D02*
X-5087200Y4610100D01*
X-4256400Y6246500D02*
X-4318000Y6184900D01*
D34*
X-3505000Y6246500D02*
X-4256400Y6246500D01*
X-1473200Y652780D02*
X-1473200Y3238500D01*
X-1473200Y3238500D02*
X-660400Y4051300D01*
D33*
X-8501380Y-3195316D02*
X-8483600Y-3213096D01*
D32*
X523240Y-5331460D02*
X-581660Y-5331460D01*
X-581660Y-5331460D02*
X-800100Y-5549900D01*
X-800100Y-4023360D02*
X-800100Y-4381500D01*
X-800100Y-4381500D02*
X-800100Y-5549900D01*
X-1473200Y-3350260D02*
X-800100Y-4023360D01*
D34*
X-7213600Y1358900D02*
X-7213600Y1219200D01*
X-7188200Y1193800D02*
X-7188200Y815340D01*
X-7213600Y1219200D02*
X-7188200Y1193800D01*
X-7188200Y815340D02*
X-7025640Y652780D01*
D33*
X-800100Y-5549900D02*
X-660400Y-5410200D01*
X1577340Y5300980D02*
X1577340Y6550660D01*
X-800100Y-6949440D02*
X-800100Y-5549900D01*
X1577340Y6550660D02*
X1280160Y6550660D01*
X1577340Y6550660D02*
X1280160Y6550660D01*
X-800100Y-6949440D02*
X-800100Y-5549900D01*
X1577340Y5300980D02*
X1577340Y6550660D01*
D35*
X-6001600Y2476500D02*
X-5750560Y2225460D01*
X-5750560Y2225460D02*
X-5750560Y1427480D01*
X-2997200Y-5811100D02*
X-2997200Y-5484100D01*
X-2748280Y-4626610D02*
X-2748280Y-4124960D01*
X-2997200Y-5484100D02*
X-2748280Y-5235180D01*
X-2748280Y-5235180D02*
X-2748280Y-4626610D01*
X641351Y-1504947D02*
X914400Y-1231898D01*
X-203202Y-2349500D02*
X641351Y-1504947D01*
X-1473200Y-2349500D02*
X-203202Y-2349500D01*
X196849Y180524D02*
X196849Y241300D01*
X-832035Y-848360D02*
X196849Y180524D01*
X-1473200Y-848360D02*
X-832035Y-848360D01*
X196849Y546100D02*
X196849Y241300D01*
X196849Y241300D02*
X196849Y2279651D01*
X196849Y2279651D02*
X469898Y2552700D01*
X772160Y546100D02*
X196849Y546100D01*
X1026160Y800100D02*
X772160Y546100D01*
X2123440Y800100D02*
X2326640Y1003300D01*
X2326640Y1003300D02*
X2946400Y1003300D01*
X2946400Y1003300D02*
X2997200Y1054100D01*
D32*
X3302000Y1358900D02*
X2997200Y1054100D01*
X2779400Y-1181100D02*
X2743200Y-1181100D01*
X2903600Y-1056900D02*
X2779400Y-1181100D01*
X2903600Y-531900D02*
X2903600Y-1056900D01*
D35*
X5700000Y1326500D02*
X5667600Y1358900D01*
D32*
X5667600Y1358900D02*
X3302000Y1358900D01*
D35*
X5700000Y1326500D02*
X5518800Y1326500D01*
D10*
X2123440Y1816100D02*
X2123440Y800100D01*
D35*
X-1473200Y-1348740D02*
X-802894Y-1348740D01*
X-802894Y-1348740D02*
X228346Y-317500D01*
X-1473200Y-1849120D02*
X-1473200Y-1384300D01*
X228346Y-317500D02*
X1026160Y-317500D01*
X2123440Y-317500D02*
X2184400Y-317500D01*
X2184400Y-317500D02*
X2590800Y88900D01*
X2590800Y88900D02*
X3274211Y88900D01*
D32*
X3911600Y88900D02*
X3274211Y88900D01*
X4397600Y88900D02*
X3911600Y88900D01*
X3911600Y-171900D02*
X3911600Y88900D01*
X3903600Y-179900D02*
X3911600Y-171900D01*
D35*
X4716400Y-2197100D02*
X4673600Y-2197100D01*
X5700000Y-1213500D02*
X4716400Y-2197100D01*
D32*
X5700000Y-1213500D02*
X4397600Y88900D01*
X3903600Y-531900D02*
X3903600Y-179900D01*
D35*
X-7025640Y-848360D02*
X-8313420Y-848360D01*
X-8313420Y-848360D02*
X-8442960Y-977900D01*
X-8128000Y810260D02*
X-8128000Y753110D01*
X-8128000Y753110D02*
X-7527290Y152400D01*
X-7527290Y152400D02*
X-7025640Y152400D01*
X-8128000Y810260D02*
X-9149080Y810260D01*
X-9149080Y810260D02*
X-9410700Y1071880D01*
X-11226800Y4671060D02*
X-11226800Y3385820D01*
X-11226800Y3385820D02*
X-11112500Y3271520D01*
X-7025640Y-347980D02*
X-9824720Y-347980D01*
X-9824720Y-347980D02*
X-10251439Y78739D01*
X-10251439Y78739D02*
X-10251439Y2308859D01*
X-10251439Y2308859D02*
X-11112500Y3169920D01*
X-11112500Y3169920D02*
X-11112500Y3271520D01*
X-916422Y-2849880D02*
X-692294Y-3074008D01*
X-1473200Y-2849880D02*
X-916422Y-2849880D01*
X-3248660Y2598395D02*
X-3251200Y2600935D01*
X-3248660Y1427480D02*
X-3248660Y2598395D01*
X-3248660Y2727960D02*
X-3248660Y1427480D01*
X-3251200Y2730500D02*
X-3248660Y2727960D01*
X-6250940Y-4124960D02*
X-6250940Y-4626610D01*
X-6250940Y-4626610D02*
X-5528822Y-5348728D01*
X-5528822Y-5348728D02*
X-5182756Y-5348728D01*
X-5182756Y-5348728D02*
X-4796605Y-5348728D01*
D36*
X-4100000Y3147860D02*
X-3377390Y3147860D01*
X-3377390Y3147860D02*
X-3251200Y3274050D01*
X-4249420Y2291080D02*
X-4000500Y2540000D01*
X-4000500Y2540000D02*
X-4100500Y3134360D01*
X-4249420Y1427480D02*
X-4249420Y2291080D01*
X-3749040Y2288540D02*
X-4000500Y2540000D01*
X-3749040Y1427480D02*
X-3749040Y2288540D01*
D35*
X-3558540Y3134360D02*
X-4086500Y3134360D01*
X-3251200Y3441700D02*
X-3558540Y3134360D01*
X-4086500Y3134360D02*
X-4100000Y3147860D01*
X-3749040Y1427480D02*
X-3749040Y2288540D01*
X-3749040Y2288540D02*
X-4000500Y2540000D01*
X-4249420Y1427480D02*
X-4249420Y2291080D01*
X-4000500Y2540000D02*
X-4100500Y3134360D01*
X-4249420Y2291080D02*
X-4000500Y2540000D01*
X-965000Y5168900D02*
X-965200Y5168900D01*
X-965200Y5168900D02*
X-2247900Y3886200D01*
X-2247900Y3886200D02*
X-2247900Y1427480D01*
D32*
X7232649Y717549D02*
X6959600Y444500D01*
X7841600Y1326500D02*
X7232649Y717549D01*
X8204670Y1326500D02*
X7841600Y1326500D01*
D35*
X-948105Y5166970D02*
X-561954Y5166970D01*
X-963070Y5166970D02*
X-948105Y5166970D01*
X-965000Y5168900D02*
X-963070Y5166970D01*
X-965000Y6246500D02*
X-965000Y5168900D01*
X8240000Y1326500D02*
X8204670Y1326500D01*
X-965000Y6246500D02*
X-965000Y5781500D01*
X-1473200Y-347980D02*
X-741680Y-347980D01*
X-63500Y330200D02*
X-63500Y2879047D01*
X-43267Y2899280D02*
X-43267Y5199467D01*
X-43267Y5199467D02*
X-63500Y5219700D01*
X-63500Y2879047D02*
X-43267Y2899280D01*
X-741680Y-347980D02*
X-63500Y330200D01*
D32*
X6959600Y-317500D02*
X7344000Y-317500D01*
X7344000Y-317500D02*
X8240000Y-1213500D01*
D35*
X121849Y5067300D02*
X508000Y5067300D01*
X-50800Y5067300D02*
X121849Y5067300D01*
X-63500Y5080000D02*
X-50800Y5067300D01*
X-63500Y5219700D02*
X-63500Y5080000D01*
X-63500Y5219700D02*
X-63500Y5878000D01*
X-63500Y5878000D02*
X304800Y6246300D01*
X304800Y6246300D02*
X305000Y6246500D01*
X0Y5941500D02*
X305000Y6246500D01*
X-1473200Y-347980D02*
X-728980Y-347980D01*
D10*
X1026160Y1816100D02*
X1026160Y2435860D01*
X1026160Y2435860D02*
X1214030Y2623730D01*
X1214030Y2623730D02*
X2249092Y2623730D01*
D35*
X-2620602Y4632067D02*
X-2347553Y4905116D01*
X-2748280Y1427480D02*
X-2748280Y4504389D01*
X-2748280Y4504389D02*
X-2620602Y4632067D01*
D32*
X4622800Y-4686300D02*
X3977640Y-5331460D01*
X3977640Y-5331460D02*
X3159760Y-5331460D01*
X2641600Y-6515100D02*
X2794000Y-6515100D01*
X3810000Y-3431540D02*
X4059200Y-3431540D01*
X3159760Y-3431540D02*
X3810000Y-3431540D01*
X3904261Y-2645483D02*
X3904261Y-1931900D01*
X3810000Y-3431540D02*
X3810000Y-2739744D01*
X3810000Y-2739744D02*
X3904261Y-2645483D01*
X3904261Y-1931900D02*
X3904261Y-1932561D01*
X4059200Y-3431540D02*
X4622800Y-3995140D01*
X4622800Y-3995140D02*
X4622800Y-4300149D01*
X4622800Y-4300149D02*
X4622800Y-4686300D01*
X5008951Y-4686300D02*
X4622800Y-4686300D01*
X6037200Y-4686300D02*
X5008951Y-4686300D01*
X6970000Y-3753500D02*
X6037200Y-4686300D01*
X2649220Y-6515100D02*
X2649220Y-5491480D01*
D10*
X2809240Y-5331460D02*
X3159760Y-5331460D01*
X2649220Y-5491480D02*
X2809240Y-5331460D01*
D32*
X6970000Y-3753500D02*
X6890400Y-3753500D01*
D37*
X-897890Y152400D02*
X-580478Y469812D01*
X-580478Y469812D02*
X-580478Y2770991D01*
X-580478Y2770991D02*
X-580478Y3157142D01*
X-1473200Y152400D02*
X-897890Y152400D01*
X-2247900Y-4124960D02*
X-2247900Y-4673600D01*
X-2247900Y-4673600D02*
X-1897380Y-5024120D01*
X-1897380Y-5024120D02*
X-1897380Y-5549900D01*
X-11836400Y-7327900D02*
X-11429409Y-7734891D01*
X-11429409Y-7734891D02*
X-9193531Y-7734891D01*
X-9193531Y-7734891D02*
X-9093200Y-7634560D01*
X-9093200Y-7634560D02*
X-9093200Y-6903900D01*
X-11836400Y-4388840D02*
X-11836400Y-7327900D01*
X-10363200Y-3416300D02*
X-10863860Y-3416300D01*
X-10863860Y-3416300D02*
X-11836400Y-4388840D01*
X-11226800Y5768340D02*
X-11776710Y5768340D01*
X-12039600Y2100580D02*
X-11112500Y1173480D01*
X-11776710Y5768340D02*
X-12039600Y5505450D01*
X-12039600Y5505450D02*
X-12039600Y2100580D01*
X-11112500Y1173480D02*
X-11112500Y1071880D01*
X-10363200Y-3416300D02*
X-10363200Y-3365500D01*
X-10363200Y-3365500D02*
X-10160000Y-3162300D01*
X-10160000Y-3162300D02*
X-10160000Y-2867660D01*
X-10160000Y-2867660D02*
X-9540240Y-2247900D01*
X-9540240Y-977900D02*
X-9540240Y-2247900D01*
X-9540240Y-977900D02*
X-11125200Y-977900D01*
X-11125200Y-977900D02*
X-11176000Y-977900D01*
X-11112500Y1071880D02*
X-11112500Y172720D01*
X-11125200Y160020D02*
X-11125200Y-977900D01*
X-11112500Y172720D02*
X-11125200Y160020D01*
X-11176000Y-977900D02*
X-11379200Y-1181100D01*
X-9324800Y5739700D02*
X-11198160Y5739700D01*
X-11198160Y5739700D02*
X-11226800Y5768340D01*
X-9324800Y5739700D02*
X-9324800Y3357420D01*
X-9324800Y3357420D02*
X-9410700Y3271520D01*
X-9410700Y3271520D02*
X-8613140Y3271520D01*
X-8613140Y3271520D02*
X-8128000Y2786380D01*
X-8128000Y2786380D02*
X-8128000Y2508250D01*
X-8128000Y2508250D02*
X-8128000Y1907540D01*
X-6531611Y1932941D02*
X-6908800Y1932941D01*
X-6908800Y1932941D02*
X-7552689Y1932941D01*
X-6901600Y2476500D02*
X-6901600Y1940141D01*
X-6901600Y1940141D02*
X-6908800Y1932941D01*
X-6250940Y1427480D02*
X-6250940Y1652270D01*
X-6250940Y1652270D02*
X-6531611Y1932941D01*
X-7552689Y1932941D02*
X-7578090Y1907540D01*
X-7578090Y1907540D02*
X-8128000Y1907540D01*
X-7112000Y-6014300D02*
X-7881200Y-6014300D01*
X-7881200Y-6014300D02*
X-7939809Y-6072909D01*
X-7939809Y-6072909D02*
X-8992869Y-6072909D01*
X-8992869Y-6072909D02*
X-9093200Y-6173240D01*
X-9093200Y-6173240D02*
X-9093200Y-6903900D01*
X-2997200Y-6711100D02*
X-2135720Y-6711100D01*
X-2135720Y-6711100D02*
X-1897380Y-6949440D01*
X-2235000Y6246500D02*
X-2235000Y6337100D01*
X-2235000Y6337100D02*
X-3149600Y7251700D01*
X-3149600Y7251700D02*
X-3826140Y7251700D01*
X-3826140Y7251700D02*
X-4326800Y7251700D01*
X-2235000Y6246500D02*
X-2659999Y5821501D01*
X-2659999Y5821501D02*
X-2659999Y5607701D01*
X-2659999Y5607701D02*
X-4022560Y4245140D01*
X-4022560Y4245140D02*
X-4100000Y4245140D01*
D33*
X-9540240Y-2329180D02*
X-9540240Y-2247900D01*
X-9540240Y-2329180D02*
X-9540240Y-2247900D01*
D37*
X7213600Y-7429500D02*
X6226716Y-7429500D01*
X6226716Y-7429500D02*
X5515516Y-6718300D01*
X5515516Y-6718300D02*
X3556000Y-6718300D01*
X3556000Y-6718300D02*
X3350261Y-6924039D01*
X3350261Y-6924039D02*
X3350261Y-7105143D01*
X3350261Y-7105143D02*
X2855723Y-7599681D01*
X2855723Y-7599681D02*
X-1797049Y-7599681D01*
X-1897380Y-7499350D02*
X-1897380Y-6949440D01*
X-1797049Y-7599681D02*
X-1897380Y-7499350D01*
X-1200000Y7346500D02*
X-1226000Y7346500D01*
X-1226000Y7346500D02*
X-2235000Y6337500D01*
X-2235000Y6337500D02*
X-2235000Y6246500D01*
X-1200000Y7346500D02*
X-1200000Y7321700D01*
X-1200000Y7321700D02*
X-2235000Y6286700D01*
X-2235000Y6286700D02*
X-2235000Y6246500D01*
X1473200Y-6362700D02*
X690949Y-6362700D01*
X690949Y-6362700D02*
X304798Y-6362700D01*
X304798Y-7135626D02*
X304798Y-6748851D01*
X-1797049Y-7599681D02*
X-159257Y-7599681D01*
X304798Y-6748851D02*
X304798Y-6362700D01*
X-159257Y-7599681D02*
X304798Y-7135626D01*
X6970000Y3866500D02*
X3132521Y3866500D01*
X3132521Y3866500D02*
X3056969Y3790948D01*
X3056969Y3790948D02*
X2783920Y3517899D01*
X2674620Y5300980D02*
X2674620Y3627199D01*
X2674620Y3627199D02*
X2783920Y3517899D01*
X2674620Y5300980D02*
X2674620Y3525520D01*
X2674620Y3525520D02*
X2346880Y3197780D01*
X933449Y3197780D02*
X660400Y3470829D01*
X2346880Y3197780D02*
X933449Y3197780D01*
D10*
X3403600Y-2197100D02*
X3403600Y-1931900D01*
D32*
X3403600Y-2438090D02*
X3403600Y-2197100D01*
X3334129Y-2507561D02*
X3403600Y-2438090D01*
X2123440Y-2298700D02*
X2332301Y-2507561D01*
X2332301Y-2507561D02*
X3334129Y-2507561D01*
X2197100Y-3733800D02*
X2123440Y-3660140D01*
X2123440Y-3660140D02*
X2123440Y-2298700D01*
D10*
X3159760Y-4381500D02*
X2184400Y-4381500D01*
D37*
X1551940Y-5600700D02*
X1551940Y-6283960D01*
X1551940Y-6283960D02*
X1473200Y-6362700D01*
D10*
X1551940Y-6515100D02*
X1551940Y-5600700D01*
D37*
X2184400Y-4381500D02*
X2184400Y-3721100D01*
X2197100Y-3733800D02*
X2184400Y-3721100D01*
X-2748280Y152400D02*
X-4249420Y-1348740D01*
X-1473200Y152400D02*
X-2748280Y152400D01*
X-6250940Y652780D02*
X-4249420Y-1348740D01*
X-6250940Y1427480D02*
X-6250940Y652780D01*
X-2247900Y-3350260D02*
X-4249420Y-1348740D01*
X-2247900Y-4124960D02*
X-2247900Y-3350260D01*
X-7025640Y-1348740D02*
X-4249420Y-1348740D01*
X2674620Y5300980D02*
X2674620Y6550660D01*
X-1897380Y-6949440D02*
X-1897380Y-5549900D01*
X-1907540Y-6959600D02*
X-1897380Y-6949440D01*
X2184400Y-4381500D02*
X1551940Y-5013960D01*
X2184400Y-4381500D02*
X1551940Y-5013960D01*
X1551940Y-5013960D02*
X1551940Y-5600700D01*
X-9593580Y-924560D02*
X-9540240Y-977900D01*
X2674620Y7071880D02*
X2400000Y7346500D01*
X2400000Y7346500D02*
X-1200000Y7346500D01*
X2674620Y6550660D02*
X2674620Y7071880D01*
X2674620Y6550660D02*
X2674620Y7071880D01*
X2400000Y7346500D02*
X-1200000Y7346500D01*
X2674620Y7071880D02*
X2400000Y7346500D01*
X-9593580Y-924560D02*
X-9540240Y-977900D01*
X1551940Y-5013960D02*
X1551940Y-5600700D01*
X-1897380Y-6949440D02*
X-1897380Y-7310120D01*
X-1907540Y-6959600D02*
X-1897380Y-6949440D01*
X-2247900Y-4124960D02*
X-2247900Y-4826000D01*
X-1897380Y-6949440D02*
X-1897380Y-5549900D01*
X2674620Y5300980D02*
X2674620Y6550660D01*
X-7025640Y-1348740D02*
X-4249420Y-1348740D01*
X-2247900Y-4124960D02*
X-2247900Y-3350260D01*
X-2247900Y-3350260D02*
X-4249420Y-1348740D01*
X-6250940Y1427480D02*
X-6250940Y652780D01*
X-6250940Y652780D02*
X-4249420Y-1348740D01*
X-1473200Y152400D02*
X-2748280Y152400D01*
X-2748280Y152400D02*
X-4249420Y-1348740D01*
D32*
X523240Y-3431540D02*
X523240Y-2801620D01*
X523240Y-2801620D02*
X1026160Y-2298700D01*
D35*
X-5174400Y-6007100D02*
X-5377600Y-5803900D01*
X-5377600Y-5803900D02*
X-5791200Y-5803900D01*
X-5791200Y-5803900D02*
X-5994400Y-5600700D01*
X-5994400Y-5600700D02*
X-6248400Y-5346700D01*
X-5174400Y-6921500D02*
X-5842000Y-6921500D01*
X-5842000Y-6921500D02*
X-6197600Y-6565900D01*
X-6197600Y-6565900D02*
X-6197600Y-6108700D01*
X-4274400Y-6007100D02*
X-4274400Y-4149940D01*
X-4274400Y-4149940D02*
X-4249420Y-4124960D01*
X-4274400Y-6921500D02*
X-4274400Y-6877900D01*
X-4274400Y-6877900D02*
X-3749040Y-6352540D01*
X-3749040Y-4626610D02*
X-3749040Y-4124960D01*
X-3749040Y-6352540D02*
X-3749040Y-4626610D01*
X-10043200Y-6903900D02*
X-10213200Y-7073900D01*
X-10213200Y-7073900D02*
X-11067200Y-7073900D01*
X-11067200Y-7073900D02*
X-11074400Y-7066700D01*
X-7112000Y-6914300D02*
X-8132800Y-6914300D01*
X-8132800Y-6914300D02*
X-8143200Y-6903900D01*
X-7025640Y-2849880D02*
X-7713980Y-2849880D01*
X-7713980Y-2849880D02*
X-7924800Y-3060700D01*
X-7924800Y-3060700D02*
X-7924800Y-4485500D01*
X-7924800Y-4485500D02*
X-8143200Y-4703900D01*
X-10043200Y-4703900D02*
X-10043200Y-5360900D01*
X-10043200Y-5360900D02*
X-9752600Y-5651500D01*
X-9752600Y-5651500D02*
X-7952510Y-5651500D01*
X-7952510Y-5651500D02*
X-7025640Y-4724630D01*
X-7025640Y-4724630D02*
X-7025640Y-3627120D01*
X-7025640Y-3627120D02*
X-7025640Y-3350260D01*
X-5503101Y4610100D02*
X-5503101Y3306001D01*
X-5503101Y3306001D02*
X-4749800Y2552700D01*
X-4749800Y2552700D02*
X-4749800Y1427480D01*
X-5503101Y5695001D02*
X-5503101Y4610100D01*
X-5987200Y4610100D02*
X-5503101Y4610100D01*
X-6524800Y6239700D02*
X-6047800Y6239700D01*
X-6047800Y6239700D02*
X-5503101Y5695001D01*
X-6524800Y5739700D02*
X-6524800Y4276900D01*
X-6524800Y4276900D02*
X-5987200Y3739300D01*
X-5987200Y3739300D02*
X-5987200Y3695700D01*
X-5987200Y3695700D02*
X-5842000Y3550500D01*
X-5842000Y3550500D02*
X-5842000Y3187700D01*
X-5842000Y3187700D02*
X-5250180Y2595880D01*
X-5250180Y2595880D02*
X-5250180Y1929130D01*
X-5250180Y1929130D02*
X-5250180Y1427480D01*
X-11036289Y-5670549D02*
X-10763240Y-5397500D01*
X-11074400Y-5708660D02*
X-11036289Y-5670549D01*
X-11074400Y-6166700D02*
X-11074400Y-5708660D01*
X-11132640Y-6126300D02*
X-11074400Y-6068060D01*
D10*
G36*
X-8914760Y7844141D02*
X-8966134Y7768953D01*
X-8984208Y7679700D01*
X-8984208Y7594108D01*
X-9674800Y7594108D01*
X-9758180Y7578419D01*
X-9834760Y7529141D01*
X-9886134Y7453953D01*
X-9904208Y7364700D01*
X-9904208Y7114700D01*
X-9888519Y7031320D01*
X-9861724Y6989679D01*
X-9886134Y6953953D01*
X-9904208Y6864700D01*
X-9904208Y6614700D01*
X-9888519Y6531320D01*
X-9861724Y6489679D01*
X-9886134Y6453953D01*
X-9904208Y6364700D01*
X-9904208Y6114700D01*
X-9889876Y6038533D01*
X-9907934Y6020475D01*
X-9949800Y5919401D01*
X-9949800Y5870950D01*
X-9881050Y5802200D01*
X-9409800Y5802200D01*
X-9409800Y5844700D01*
X-9239800Y5844700D01*
X-9239800Y5802200D01*
X-9219800Y5802200D01*
X-9219800Y5677200D01*
X-9239800Y5677200D01*
X-9239800Y5408450D01*
X-9171050Y5339700D01*
X-8984208Y5339700D01*
X-8984208Y5299700D01*
X-8968519Y5216320D01*
X-8919241Y5139740D01*
X-8844053Y5088366D01*
X-8754800Y5070292D01*
X-7094800Y5070292D01*
X-7011420Y5085981D01*
X-6934840Y5135259D01*
X-6883466Y5210447D01*
X-6865392Y5299700D01*
X-6865392Y5385292D01*
X-6813300Y5385292D01*
X-6813300Y4276900D01*
X-6791339Y4166496D01*
X-6728800Y4072900D01*
X-6416608Y3760708D01*
X-6416608Y3395700D01*
X-6400919Y3312320D01*
X-6351641Y3235740D01*
X-6276453Y3184366D01*
X-6187200Y3166292D01*
X-6126242Y3166292D01*
X-6108539Y3077296D01*
X-6060839Y3005908D01*
X-6201600Y3005908D01*
X-6284980Y2990219D01*
X-6361560Y2940941D01*
X-6412934Y2865753D01*
X-6426600Y2798268D01*
X-6426600Y2831201D01*
X-6468466Y2932275D01*
X-6545825Y3009634D01*
X-6646899Y3051500D01*
X-6747850Y3051500D01*
X-6816600Y2982750D01*
X-6816600Y2561500D01*
X-6796600Y2561500D01*
X-6796600Y2391500D01*
X-6816600Y2391500D01*
X-6816600Y1970250D01*
X-6747850Y1901500D01*
X-6657298Y1901500D01*
X-6675800Y1856831D01*
X-6675800Y1581230D01*
X-6607050Y1512480D01*
X-6325870Y1512480D01*
X-6325870Y1532480D01*
X-6176010Y1532480D01*
X-6176010Y1512480D01*
X-6145940Y1512480D01*
X-6145940Y1342480D01*
X-6176010Y1342480D01*
X-6176010Y1322480D01*
X-6325870Y1322480D01*
X-6325870Y1342480D01*
X-6607050Y1342480D01*
X-6675800Y1273730D01*
X-6675800Y1032048D01*
X-6832662Y1032048D01*
X-6789587Y1075048D01*
X-6713237Y1258918D01*
X-6713064Y1458009D01*
X-6789092Y1642012D01*
X-6929748Y1782913D01*
X-7113618Y1859263D01*
X-7312709Y1859436D01*
X-7496712Y1783408D01*
X-7515056Y1765096D01*
X-7572500Y1822540D01*
X-8043000Y1822540D01*
X-8043000Y1802540D01*
X-8213000Y1802540D01*
X-8213000Y1822540D01*
X-8233000Y1822540D01*
X-8233000Y1992540D01*
X-8213000Y1992540D01*
X-8213000Y2513840D01*
X-8043000Y2513840D01*
X-8043000Y1992540D01*
X-7572500Y1992540D01*
X-7503750Y2061290D01*
X-7503750Y2322750D01*
X-7376600Y2322750D01*
X-7376600Y2121799D01*
X-7334734Y2020725D01*
X-7257375Y1943366D01*
X-7156301Y1901500D01*
X-7055350Y1901500D01*
X-6986600Y1970250D01*
X-6986600Y2391500D01*
X-7307850Y2391500D01*
X-7376600Y2322750D01*
X-7503750Y2322750D01*
X-7503750Y2362291D01*
X-7545616Y2463365D01*
X-7622975Y2540724D01*
X-7724049Y2582590D01*
X-7974250Y2582590D01*
X-8043000Y2513840D01*
X-8213000Y2513840D01*
X-8281750Y2582590D01*
X-8531951Y2582590D01*
X-8538800Y2579753D01*
X-8538800Y2831201D01*
X-7376600Y2831201D01*
X-7376600Y2630250D01*
X-7307850Y2561500D01*
X-6986600Y2561500D01*
X-6986600Y2982750D01*
X-7055350Y3051500D01*
X-7156301Y3051500D01*
X-7257375Y3009634D01*
X-7334734Y2932275D01*
X-7376600Y2831201D01*
X-8538800Y2831201D01*
X-8538800Y3117770D01*
X-8607550Y3186520D01*
X-9325700Y3186520D01*
X-9325700Y2366770D01*
X-9256950Y2298020D01*
X-8759099Y2298020D01*
X-8752250Y2300857D01*
X-8752250Y2061290D01*
X-8683502Y1992542D01*
X-8752250Y1992542D01*
X-8752250Y1987324D01*
X-8813800Y1999788D01*
X-9962939Y1999788D01*
X-9962939Y2298020D01*
X-9564450Y2298020D01*
X-9495700Y2366770D01*
X-9495700Y3186520D01*
X-10213850Y3186520D01*
X-10282600Y3117770D01*
X-10282600Y2748020D01*
X-10286192Y2751612D01*
X-10286192Y3970020D01*
X-10296484Y4024721D01*
X-10282600Y4024721D01*
X-10282600Y3425270D01*
X-10213850Y3356520D01*
X-9495700Y3356520D01*
X-9495700Y4176270D01*
X-9325700Y4176270D01*
X-9325700Y3356520D01*
X-8607550Y3356520D01*
X-8538800Y3425270D01*
X-8538800Y4024721D01*
X-8580666Y4125795D01*
X-8658025Y4203154D01*
X-8759099Y4245020D01*
X-9256950Y4245020D01*
X-9325700Y4176270D01*
X-9495700Y4176270D01*
X-9564450Y4245020D01*
X-10062301Y4245020D01*
X-10163375Y4203154D01*
X-10240734Y4125795D01*
X-10282600Y4024721D01*
X-10296484Y4024721D01*
X-10301881Y4053400D01*
X-10351159Y4129980D01*
X-10426347Y4181354D01*
X-10515600Y4199428D01*
X-10662638Y4199428D01*
X-10648142Y4271010D01*
X-10648142Y5071110D01*
X-10663831Y5154490D01*
X-10678948Y5177983D01*
X-10644416Y5212515D01*
X-10602550Y5313589D01*
X-10602550Y5608450D01*
X-9949800Y5608450D01*
X-9949800Y5559999D01*
X-9907934Y5458925D01*
X-9830575Y5381566D01*
X-9729501Y5339700D01*
X-9478550Y5339700D01*
X-9409800Y5408450D01*
X-9409800Y5677200D01*
X-9881050Y5677200D01*
X-9949800Y5608450D01*
X-10602550Y5608450D01*
X-10602550Y5614590D01*
X-10671300Y5683340D01*
X-11141800Y5683340D01*
X-11141800Y5663340D01*
X-11311800Y5663340D01*
X-11311800Y5683340D01*
X-11782300Y5683340D01*
X-11851050Y5614590D01*
X-11851050Y5313589D01*
X-11809184Y5212515D01*
X-11775064Y5178395D01*
X-11787384Y5160363D01*
X-11805458Y5071110D01*
X-11805458Y4271010D01*
X-11789769Y4187630D01*
X-11787861Y4184665D01*
X-11792780Y4183739D01*
X-11869360Y4134461D01*
X-11920734Y4059273D01*
X-11938808Y3970020D01*
X-11938808Y2573020D01*
X-11923119Y2489640D01*
X-11873841Y2413060D01*
X-11798653Y2361686D01*
X-11709400Y2343612D01*
X-10694192Y2343612D01*
X-10539939Y2189359D01*
X-10539939Y2045380D01*
X-10958750Y2045380D01*
X-11027500Y1976630D01*
X-11027500Y1156880D01*
X-11007500Y1156880D01*
X-11007500Y986880D01*
X-11027500Y986880D01*
X-11027500Y167130D01*
X-10958750Y98380D01*
X-10539939Y98380D01*
X-10539939Y78739D01*
X-10517978Y-31665D01*
X-10455439Y-125261D01*
X-10140624Y-440076D01*
X-10173424Y-472875D01*
X-10215290Y-573949D01*
X-10215290Y-824150D01*
X-10146540Y-892900D01*
X-9625240Y-892900D01*
X-9625240Y-872900D01*
X-9455240Y-872900D01*
X-9455240Y-892900D01*
X-9435240Y-892900D01*
X-9435240Y-1062900D01*
X-9455240Y-1062900D01*
X-9455240Y-1533400D01*
X-9386490Y-1602150D01*
X-9085489Y-1602150D01*
X-8984415Y-1560284D01*
X-8950295Y-1526164D01*
X-8932263Y-1538484D01*
X-8843010Y-1556558D01*
X-8042910Y-1556558D01*
X-7959530Y-1540869D01*
X-7882950Y-1491591D01*
X-7831576Y-1416403D01*
X-7813502Y-1327150D01*
X-7813502Y-1136860D01*
X-7672258Y-1136860D01*
X-7675290Y-1144179D01*
X-7675290Y-1205060D01*
X-7606540Y-1273810D01*
X-7110640Y-1273810D01*
X-7110640Y-1243740D01*
X-6940640Y-1243740D01*
X-6940640Y-1273810D01*
X-6444740Y-1273810D01*
X-6434670Y-1263740D01*
X-5669734Y-1263740D01*
X-5685172Y-1322673D01*
X-5669917Y-1433740D01*
X-6434670Y-1433740D01*
X-6444740Y-1423670D01*
X-6940640Y-1423670D01*
X-6940640Y-1453740D01*
X-7110640Y-1453740D01*
X-7110640Y-1423670D01*
X-7606540Y-1423670D01*
X-7675290Y-1492420D01*
X-7675290Y-1533175D01*
X-7715861Y-1560284D01*
X-7775204Y-1599936D01*
X-7897827Y-1722559D01*
X-7952705Y-1685062D01*
X-8042910Y-1666795D01*
X-8843010Y-1666795D01*
X-8927279Y-1682651D01*
X-8951618Y-1698313D01*
X-8984415Y-1665516D01*
X-9085489Y-1623650D01*
X-9386490Y-1623650D01*
X-9455240Y-1692400D01*
X-9455240Y-2162900D01*
X-9435240Y-2162900D01*
X-9435240Y-2332900D01*
X-9455240Y-2332900D01*
X-9455240Y-2803400D01*
X-9386490Y-2872150D01*
X-9117579Y-2872150D01*
X-9194854Y-2887521D01*
X-9265080Y-2934445D01*
X-9563200Y-2934445D01*
X-9647469Y-2950301D01*
X-9724866Y-3000105D01*
X-9776788Y-3076095D01*
X-9788200Y-3132449D01*
X-9788200Y-3111599D01*
X-9830066Y-3010525D01*
X-9907425Y-2933166D01*
X-10008499Y-2891300D01*
X-10209450Y-2891300D01*
X-10278200Y-2960050D01*
X-10278200Y-3331300D01*
X-10258200Y-3331300D01*
X-10258200Y-3501300D01*
X-10278200Y-3501300D01*
X-10278200Y-3872550D01*
X-10209450Y-3941300D01*
X-10008499Y-3941300D01*
X-9907425Y-3899434D01*
X-9830066Y-3822075D01*
X-9788200Y-3721001D01*
X-9788200Y-3702732D01*
X-9779199Y-3750569D01*
X-9729395Y-3827966D01*
X-9653405Y-3879888D01*
X-9563200Y-3898155D01*
X-9445600Y-3898155D01*
X-9445600Y-3947201D01*
X-9502469Y-3957901D01*
X-9571120Y-4002077D01*
X-9628947Y-3962566D01*
X-9718200Y-3944492D01*
X-10368200Y-3944492D01*
X-10451580Y-3960181D01*
X-10528160Y-4009459D01*
X-10579534Y-4084647D01*
X-10597608Y-4173900D01*
X-10597608Y-4926996D01*
X-10663737Y-4899537D01*
X-10861874Y-4899364D01*
X-11044994Y-4975028D01*
X-11185220Y-5115009D01*
X-11261203Y-5297997D01*
X-11261369Y-5487629D01*
X-11278400Y-5504660D01*
X-11340939Y-5598256D01*
X-11362900Y-5708660D01*
X-11362900Y-5737292D01*
X-11374400Y-5737292D01*
X-11457780Y-5752981D01*
X-11534360Y-5802259D01*
X-11585734Y-5877447D01*
X-11603808Y-5966700D01*
X-11603808Y-6366700D01*
X-11588119Y-6450080D01*
X-11538841Y-6526660D01*
X-11463653Y-6578034D01*
X-11374400Y-6596108D01*
X-10774400Y-6596108D01*
X-10691020Y-6580419D01*
X-10614440Y-6531141D01*
X-10597608Y-6506507D01*
X-10597608Y-6725934D01*
X-10609959Y-6706740D01*
X-10685147Y-6655366D01*
X-10774400Y-6637292D01*
X-11374400Y-6637292D01*
X-11457780Y-6652981D01*
X-11534360Y-6702259D01*
X-11585734Y-6777447D01*
X-11603808Y-6866700D01*
X-11603808Y-7266700D01*
X-11588119Y-7350080D01*
X-11538841Y-7426660D01*
X-11463653Y-7478034D01*
X-11374400Y-7496108D01*
X-10774400Y-7496108D01*
X-10691020Y-7480419D01*
X-10614440Y-7431141D01*
X-10597608Y-7406507D01*
X-10597608Y-7433900D01*
X-10581919Y-7517280D01*
X-10532641Y-7593860D01*
X-10457453Y-7645234D01*
X-10368200Y-7663308D01*
X-9718200Y-7663308D01*
X-9634820Y-7647619D01*
X-9609611Y-7631398D01*
X-9573975Y-7667034D01*
X-9472901Y-7708900D01*
X-9246950Y-7708900D01*
X-9178200Y-7640150D01*
X-9178200Y-6988900D01*
X-9198200Y-6988900D01*
X-9198200Y-6818900D01*
X-9178200Y-6818900D01*
X-9178200Y-6167650D01*
X-9246950Y-6098900D01*
X-9472901Y-6098900D01*
X-9573975Y-6140766D01*
X-9609240Y-6176031D01*
X-9628947Y-6162566D01*
X-9718200Y-6144492D01*
X-10368200Y-6144492D01*
X-10451580Y-6160181D01*
X-10528160Y-6209459D01*
X-10544992Y-6234093D01*
X-10544992Y-5966700D01*
X-10560681Y-5883320D01*
X-10576249Y-5859127D01*
X-10481486Y-5819972D01*
X-10341260Y-5679991D01*
X-10275736Y-5522192D01*
X-10247200Y-5564900D01*
X-9956601Y-5855500D01*
X-9882967Y-5904700D01*
X-9863004Y-5918039D01*
X-9752600Y-5940000D01*
X-7952510Y-5940000D01*
X-7842106Y-5918039D01*
X-7748510Y-5855500D01*
X-7687000Y-5793990D01*
X-7687000Y-5860550D01*
X-7618250Y-5929300D01*
X-7197000Y-5929300D01*
X-7197000Y-5608050D01*
X-7265750Y-5539300D01*
X-7432310Y-5539300D01*
X-6821640Y-4928630D01*
X-6759101Y-4835034D01*
X-6755005Y-4814441D01*
X-6737140Y-4724630D01*
X-6737140Y-3729528D01*
X-6650990Y-3729528D01*
X-6625010Y-3724639D01*
X-6630208Y-3750310D01*
X-6630208Y-4499610D01*
X-6614519Y-4582990D01*
X-6565241Y-4659570D01*
X-6527794Y-4685156D01*
X-6517479Y-4737014D01*
X-6454940Y-4830610D01*
X-6410686Y-4874864D01*
X-6530154Y-4924228D01*
X-6670380Y-5064209D01*
X-6746363Y-5247197D01*
X-6746536Y-5445334D01*
X-6697470Y-5564082D01*
X-6757299Y-5539300D01*
X-6958250Y-5539300D01*
X-7027000Y-5608050D01*
X-7027000Y-5929300D01*
X-7007000Y-5929300D01*
X-7007000Y-6099300D01*
X-7027000Y-6099300D01*
X-7027000Y-6119300D01*
X-7197000Y-6119300D01*
X-7197000Y-6099300D01*
X-7618250Y-6099300D01*
X-7687000Y-6168050D01*
X-7687000Y-6191227D01*
X-7728947Y-6162566D01*
X-7818200Y-6144492D01*
X-8468200Y-6144492D01*
X-8551580Y-6160181D01*
X-8576789Y-6176402D01*
X-8612425Y-6140766D01*
X-8713499Y-6098900D01*
X-8939450Y-6098900D01*
X-9008200Y-6167650D01*
X-9008200Y-6818900D01*
X-8988200Y-6818900D01*
X-8988200Y-6988900D01*
X-9008200Y-6988900D01*
X-9008200Y-7640150D01*
X-8939450Y-7708900D01*
X-8713499Y-7708900D01*
X-8612425Y-7667034D01*
X-8577160Y-7631769D01*
X-8557453Y-7645234D01*
X-8468200Y-7663308D01*
X-7818200Y-7663308D01*
X-7734820Y-7647619D01*
X-7658240Y-7598341D01*
X-7606866Y-7523153D01*
X-7588792Y-7433900D01*
X-7588792Y-7255066D01*
X-7576441Y-7274260D01*
X-7501253Y-7325634D01*
X-7412000Y-7343708D01*
X-6812000Y-7343708D01*
X-6728620Y-7328019D01*
X-6652040Y-7278741D01*
X-6600666Y-7203553D01*
X-6582592Y-7114300D01*
X-6582592Y-6714300D01*
X-6598281Y-6630920D01*
X-6647559Y-6554340D01*
X-6722747Y-6502966D01*
X-6790232Y-6489300D01*
X-6757299Y-6489300D01*
X-6656225Y-6447434D01*
X-6609668Y-6400877D01*
X-6486100Y-6524660D01*
X-6486100Y-6565900D01*
X-6464139Y-6676304D01*
X-6401600Y-6769900D01*
X-6046001Y-7125500D01*
X-5963180Y-7180839D01*
X-5952404Y-7188039D01*
X-5842000Y-7210000D01*
X-5603808Y-7210000D01*
X-5603808Y-7221500D01*
X-5588119Y-7304880D01*
X-5538841Y-7381460D01*
X-5463653Y-7432834D01*
X-5374400Y-7450908D01*
X-4974400Y-7450908D01*
X-4891020Y-7435219D01*
X-4814440Y-7385941D01*
X-4763066Y-7310753D01*
X-4744992Y-7221500D01*
X-4744992Y-6621500D01*
X-4760681Y-6538120D01*
X-4808818Y-6463313D01*
X-4763066Y-6396353D01*
X-4744992Y-6307100D01*
X-4744992Y-5846823D01*
X-4703808Y-5846859D01*
X-4703808Y-6307100D01*
X-4688119Y-6390480D01*
X-4639982Y-6465287D01*
X-4685734Y-6532247D01*
X-4703808Y-6621500D01*
X-4703808Y-7221500D01*
X-4688119Y-7304880D01*
X-4638841Y-7381460D01*
X-4563653Y-7432834D01*
X-4474400Y-7450908D01*
X-4074400Y-7450908D01*
X-3991020Y-7435219D01*
X-3914440Y-7385941D01*
X-3863066Y-7310753D01*
X-3844992Y-7221500D01*
X-3844992Y-6864850D01*
X-3572200Y-6864850D01*
X-3572200Y-6965801D01*
X-3530334Y-7066875D01*
X-3452975Y-7144234D01*
X-3351901Y-7186100D01*
X-3150950Y-7186100D01*
X-3082200Y-7117350D01*
X-3082200Y-6796100D01*
X-3503450Y-6796100D01*
X-3572200Y-6864850D01*
X-3844992Y-6864850D01*
X-3844992Y-6856492D01*
X-3559025Y-6570525D01*
X-3503450Y-6626100D01*
X-3082200Y-6626100D01*
X-3082200Y-6606100D01*
X-2912200Y-6606100D01*
X-2912200Y-6626100D01*
X-2892200Y-6626100D01*
X-2892200Y-6796100D01*
X-2912200Y-6796100D01*
X-2912200Y-7117350D01*
X-2843450Y-7186100D01*
X-2642499Y-7186100D01*
X-2572430Y-7157077D01*
X-2572430Y-7353391D01*
X-2530564Y-7454465D01*
X-2453205Y-7531824D01*
X-2352131Y-7573690D01*
X-2051130Y-7573690D01*
X-1982380Y-7504940D01*
X-1982380Y-7034440D01*
X-2002380Y-7034440D01*
X-2002380Y-6864440D01*
X-1982380Y-6864440D01*
X-1982380Y-6393940D01*
X-2051130Y-6325190D01*
X-2352131Y-6325190D01*
X-2453205Y-6367056D01*
X-2457449Y-6371300D01*
X-2464066Y-6355325D01*
X-2541425Y-6277966D01*
X-2642499Y-6236100D01*
X-2673773Y-6236100D01*
X-2613820Y-6224819D01*
X-2537240Y-6175541D01*
X-2485866Y-6100353D01*
X-2485743Y-6099746D01*
X-2453205Y-6132284D01*
X-2352131Y-6174150D01*
X-2051130Y-6174150D01*
X-1982380Y-6105400D01*
X-1982380Y-5634900D01*
X-2002380Y-5634900D01*
X-2002380Y-5464900D01*
X-1982380Y-5464900D01*
X-1982380Y-4994400D01*
X-2051130Y-4925650D01*
X-2352131Y-4925650D01*
X-2453205Y-4967516D01*
X-2459780Y-4974091D01*
X-2459780Y-4771578D01*
X-2452461Y-4774610D01*
X-2391580Y-4774610D01*
X-2322830Y-4705860D01*
X-2322830Y-4209960D01*
X-2172970Y-4209960D01*
X-2172970Y-4705860D01*
X-2104220Y-4774610D01*
X-2043339Y-4774610D01*
X-1942265Y-4732744D01*
X-1864906Y-4655385D01*
X-1823040Y-4554311D01*
X-1823040Y-4278710D01*
X-1891790Y-4209960D01*
X-2172970Y-4209960D01*
X-2322830Y-4209960D01*
X-2352900Y-4209960D01*
X-2352900Y-4039960D01*
X-2322830Y-4039960D01*
X-2322830Y-4019960D01*
X-2172970Y-4019960D01*
X-2172970Y-4039960D01*
X-1891790Y-4039960D01*
X-1823040Y-3971210D01*
X-1823040Y-3729528D01*
X-1627656Y-3729528D01*
X-1177500Y-4179684D01*
X-1177500Y-4968795D01*
X-1200150Y-4968795D01*
X-1284419Y-4984651D01*
X-1308758Y-5000313D01*
X-1341555Y-4967516D01*
X-1442629Y-4925650D01*
X-1743630Y-4925650D01*
X-1812380Y-4994400D01*
X-1812380Y-5464900D01*
X-1792380Y-5464900D01*
X-1792380Y-5634900D01*
X-1812380Y-5634900D01*
X-1812380Y-6105400D01*
X-1743630Y-6174150D01*
X-1442629Y-6174150D01*
X-1341555Y-6132284D01*
X-1309160Y-6099889D01*
X-1290355Y-6112738D01*
X-1200150Y-6131005D01*
X-1103700Y-6131005D01*
X-1103700Y-6368335D01*
X-1200150Y-6368335D01*
X-1284419Y-6384191D01*
X-1308758Y-6399853D01*
X-1341555Y-6367056D01*
X-1442629Y-6325190D01*
X-1743630Y-6325190D01*
X-1812380Y-6393940D01*
X-1812380Y-6864440D01*
X-1792380Y-6864440D01*
X-1792380Y-7034440D01*
X-1812380Y-7034440D01*
X-1812380Y-7504940D01*
X-1743630Y-7573690D01*
X-1442629Y-7573690D01*
X-1341555Y-7531824D01*
X-1309160Y-7499429D01*
X-1290355Y-7512278D01*
X-1200150Y-7530545D01*
X-400050Y-7530545D01*
X-315781Y-7514689D01*
X-238384Y-7464885D01*
X-186462Y-7388895D01*
X-168195Y-7298690D01*
X-168195Y-6668850D01*
X876890Y-6668850D01*
X876890Y-6919051D01*
X918756Y-7020125D01*
X996115Y-7097484D01*
X1097189Y-7139350D01*
X1398190Y-7139350D01*
X1466940Y-7070600D01*
X1466940Y-6600100D01*
X945640Y-6600100D01*
X876890Y-6668850D01*
X-168195Y-6668850D01*
X-168195Y-6600190D01*
X-184051Y-6515921D01*
X-233855Y-6438524D01*
X-309845Y-6386602D01*
X-400050Y-6368335D01*
X-496500Y-6368335D01*
X-496500Y-6131005D01*
X-400050Y-6131005D01*
X-315781Y-6115149D01*
X-309565Y-6111149D01*
X876890Y-6111149D01*
X876890Y-6361350D01*
X945640Y-6430100D01*
X1466940Y-6430100D01*
X1466940Y-5959600D01*
X1398190Y-5890850D01*
X1097189Y-5890850D01*
X996115Y-5932716D01*
X918756Y-6010075D01*
X876890Y-6111149D01*
X-309565Y-6111149D01*
X-238384Y-6065345D01*
X-186462Y-5989355D01*
X-168195Y-5899150D01*
X-168195Y-5853705D01*
X-166405Y-5854928D01*
X-76200Y-5873195D01*
X1122680Y-5873195D01*
X1206949Y-5857339D01*
X1284346Y-5807535D01*
X1336268Y-5731545D01*
X1354535Y-5641340D01*
X1354535Y-5021580D01*
X1338679Y-4937311D01*
X1288875Y-4859914D01*
X1212885Y-4807992D01*
X1211063Y-4807623D01*
X1214972Y-4806008D01*
X1355873Y-4665352D01*
X1432223Y-4481482D01*
X1432396Y-4282391D01*
X1356368Y-4098388D01*
X1215712Y-3957487D01*
X1207628Y-3954130D01*
X1282640Y-3905861D01*
X1334014Y-3830673D01*
X1352088Y-3741420D01*
X1352088Y-3121660D01*
X1336399Y-3038280D01*
X1287121Y-2961700D01*
X1211933Y-2910326D01*
X1122680Y-2892252D01*
X962938Y-2892252D01*
X977832Y-2877358D01*
X1426210Y-2877358D01*
X1509590Y-2861669D01*
X1533083Y-2846552D01*
X1567615Y-2881084D01*
X1668689Y-2922950D01*
X1969690Y-2922950D01*
X2038440Y-2854200D01*
X2038440Y-2383700D01*
X2018440Y-2383700D01*
X2018440Y-2213700D01*
X2038440Y-2213700D01*
X2038440Y-1743200D01*
X1969690Y-1674450D01*
X1668689Y-1674450D01*
X1567615Y-1716316D01*
X1533495Y-1750436D01*
X1515463Y-1738116D01*
X1426210Y-1720042D01*
X1037216Y-1720042D01*
X1196154Y-1654370D01*
X1336380Y-1514389D01*
X1412363Y-1331401D01*
X1412536Y-1133264D01*
X1336872Y-950144D01*
X1233816Y-846908D01*
X1324800Y-846908D01*
X1408180Y-831219D01*
X1484760Y-781941D01*
X1536134Y-706753D01*
X1554208Y-617500D01*
X1554208Y-17500D01*
X1538519Y65880D01*
X1489241Y142460D01*
X1414053Y193834D01*
X1324800Y211908D01*
X924800Y211908D01*
X841420Y196219D01*
X764840Y146941D01*
X713466Y71753D01*
X695392Y-17500D01*
X695392Y-29000D01*
X395326Y-29000D01*
X400850Y-23476D01*
X463388Y70120D01*
X485349Y180524D01*
X485349Y257600D01*
X772160Y257600D01*
X881777Y279404D01*
X924800Y270692D01*
X1324800Y270692D01*
X1408180Y286381D01*
X1484760Y335659D01*
X1536134Y410847D01*
X1554208Y500100D01*
X1554208Y1100100D01*
X1538519Y1183480D01*
X1489241Y1260060D01*
X1418028Y1308718D01*
X1484760Y1351659D01*
X1536134Y1426847D01*
X1554208Y1516100D01*
X1554208Y2116100D01*
X1538519Y2199480D01*
X1489241Y2276060D01*
X1419474Y2323730D01*
X1731957Y2323730D01*
X1664840Y2280541D01*
X1613466Y2205353D01*
X1595392Y2116100D01*
X1595392Y1516100D01*
X1611081Y1432720D01*
X1660359Y1356140D01*
X1731572Y1307482D01*
X1664840Y1264541D01*
X1613466Y1189353D01*
X1595392Y1100100D01*
X1595392Y500100D01*
X1611081Y416720D01*
X1660359Y340140D01*
X1735547Y288766D01*
X1824800Y270692D01*
X2224800Y270692D01*
X2308180Y286381D01*
X2384760Y335659D01*
X2436134Y410847D01*
X2454208Y500100D01*
X2454208Y714800D01*
X2632173Y714800D01*
X2714709Y632120D01*
X2897697Y556137D01*
X3095834Y555964D01*
X3278954Y631628D01*
X3419180Y771609D01*
X3495163Y954597D01*
X3495189Y983900D01*
X4624307Y983900D01*
X4745715Y690071D01*
X5061907Y373328D01*
X5475242Y201696D01*
X5922795Y201305D01*
X6336429Y372215D01*
X6461596Y497164D01*
X6461464Y345866D01*
X6537128Y162746D01*
X6636251Y63450D01*
X6537620Y-35009D01*
X6461637Y-217997D01*
X6461492Y-383942D01*
X6338093Y-260328D01*
X5924758Y-88696D01*
X5477205Y-88305D01*
X5213921Y-197091D01*
X4662765Y354065D01*
X4541107Y435355D01*
X4397600Y463900D01*
X3603600Y463900D01*
X3556702Y510880D01*
X3373714Y586863D01*
X3175577Y587036D01*
X2992457Y511372D01*
X2858251Y377400D01*
X2590800Y377400D01*
X2488048Y356961D01*
X2480396Y355439D01*
X2386799Y292900D01*
X2292166Y198266D01*
X2224800Y211908D01*
X1824800Y211908D01*
X1741420Y196219D01*
X1664840Y146941D01*
X1613466Y71753D01*
X1595392Y-17500D01*
X1595392Y-617500D01*
X1611081Y-700880D01*
X1660359Y-777460D01*
X1735547Y-828834D01*
X1824800Y-846908D01*
X2224800Y-846908D01*
X2308180Y-831219D01*
X2384760Y-781941D01*
X2436134Y-706753D01*
X2454208Y-617500D01*
X2454208Y-455692D01*
X2524192Y-385708D01*
X2524192Y-732702D01*
X2461446Y-758628D01*
X2321220Y-898609D01*
X2245237Y-1081597D01*
X2245064Y-1279734D01*
X2320728Y-1462854D01*
X2460709Y-1603080D01*
X2538661Y-1635448D01*
X2530763Y-1674450D01*
X2277190Y-1674450D01*
X2208440Y-1743200D01*
X2208440Y-2213700D01*
X2228440Y-2213700D01*
X2228440Y-2383700D01*
X2208440Y-2383700D01*
X2208440Y-2854200D01*
X2277190Y-2922950D01*
X2453615Y-2922950D01*
X2400360Y-2957219D01*
X2348986Y-3032407D01*
X2330912Y-3121660D01*
X2330912Y-3741420D01*
X2346601Y-3824800D01*
X2374647Y-3868384D01*
X2327186Y-3915845D01*
X2285320Y-4016919D01*
X2285320Y-4227750D01*
X2354070Y-4296500D01*
X3074760Y-4296500D01*
X3074760Y-4276500D01*
X3244760Y-4276500D01*
X3244760Y-4296500D01*
X3965450Y-4296500D01*
X4034200Y-4227750D01*
X4034200Y-4016919D01*
X3992334Y-3915845D01*
X3944810Y-3868321D01*
X3953270Y-3855940D01*
X4247800Y-4150470D01*
X4247800Y-4356911D01*
X4200820Y-4403809D01*
X4124837Y-4586797D01*
X4124778Y-4653992D01*
X4034200Y-4744570D01*
X4034200Y-4535250D01*
X3965450Y-4466500D01*
X3244760Y-4466500D01*
X3244760Y-4486500D01*
X3074760Y-4486500D01*
X3074760Y-4466500D01*
X2354070Y-4466500D01*
X2285320Y-4535250D01*
X2285320Y-4746081D01*
X2327186Y-4847155D01*
X2374710Y-4894679D01*
X2348986Y-4932327D01*
X2330912Y-5021580D01*
X2330912Y-5305849D01*
X2302765Y-5347974D01*
X2274220Y-5491480D01*
X2274220Y-5936442D01*
X2249170Y-5936442D01*
X2165790Y-5952131D01*
X2142297Y-5967248D01*
X2107765Y-5932716D01*
X2006691Y-5890850D01*
X1705690Y-5890850D01*
X1636940Y-5959600D01*
X1636940Y-6430100D01*
X1656940Y-6430100D01*
X1656940Y-6600100D01*
X1636940Y-6600100D01*
X1636940Y-7070600D01*
X1705690Y-7139350D01*
X2006691Y-7139350D01*
X2107765Y-7097484D01*
X2141885Y-7063364D01*
X2159917Y-7075684D01*
X2249170Y-7093758D01*
X3049270Y-7093758D01*
X3132650Y-7078069D01*
X3209230Y-7028791D01*
X3260604Y-6953603D01*
X3278678Y-6864350D01*
X3278678Y-6165850D01*
X3262989Y-6082470D01*
X3213711Y-6005890D01*
X3138523Y-5954516D01*
X3049270Y-5936442D01*
X3024220Y-5936442D01*
X3024220Y-5870748D01*
X3759200Y-5870748D01*
X3842580Y-5855059D01*
X3919160Y-5805781D01*
X3970534Y-5730593D01*
X3975421Y-5706460D01*
X3977640Y-5706460D01*
X4121147Y-5677915D01*
X4242805Y-5596625D01*
X4655052Y-5184378D01*
X4721434Y-5184436D01*
X4904554Y-5108772D01*
X4952109Y-5061300D01*
X5247943Y-5061300D01*
X5060107Y-5342416D01*
X4985846Y-5715750D01*
X5060107Y-6089084D01*
X5271584Y-6405582D01*
X5588082Y-6617059D01*
X5961416Y-6691320D01*
X8037784Y-6691320D01*
X8411118Y-6617059D01*
X8727616Y-6405582D01*
X8939093Y-6089084D01*
X9013354Y-5715750D01*
X8939093Y-5342416D01*
X8727616Y-5025918D01*
X8411118Y-4814441D01*
X8037784Y-4740180D01*
X7528027Y-4740180D01*
X7606429Y-4707785D01*
X7923172Y-4391593D01*
X8094804Y-3978258D01*
X8095195Y-3530705D01*
X7924285Y-3117071D01*
X7608093Y-2800328D01*
X7575268Y-2786698D01*
X7656153Y-2705954D01*
X7774375Y-2421245D01*
X7774535Y-2238353D01*
X8015242Y-2338304D01*
X8462795Y-2338695D01*
X8876429Y-2167785D01*
X9193172Y-1851593D01*
X9225070Y-1774774D01*
X9225070Y-7878970D01*
X4624530Y-7878970D01*
X4624530Y-7103500D01*
X4603633Y-6998442D01*
X4544122Y-6909378D01*
X4455058Y-6849867D01*
X4350000Y-6828970D01*
X3650000Y-6828970D01*
X3544942Y-6849867D01*
X3455878Y-6909378D01*
X3396367Y-6998442D01*
X3375470Y-7103500D01*
X3375470Y-7878970D01*
X-12000470Y-7878970D01*
X-12000470Y-3570050D01*
X-10938200Y-3570050D01*
X-10938200Y-3721001D01*
X-10896334Y-3822075D01*
X-10818975Y-3899434D01*
X-10717901Y-3941300D01*
X-10516950Y-3941300D01*
X-10448200Y-3872550D01*
X-10448200Y-3501300D01*
X-10869450Y-3501300D01*
X-10938200Y-3570050D01*
X-12000470Y-3570050D01*
X-12000470Y-3111599D01*
X-10938200Y-3111599D01*
X-10938200Y-3262550D01*
X-10869450Y-3331300D01*
X-10448200Y-3331300D01*
X-10448200Y-2960050D01*
X-10516950Y-2891300D01*
X-10717901Y-2891300D01*
X-10818975Y-2933166D01*
X-10896334Y-3010525D01*
X-10938200Y-3111599D01*
X-12000470Y-3111599D01*
X-12000470Y-2401650D01*
X-10215290Y-2401650D01*
X-10215290Y-2651851D01*
X-10173424Y-2752925D01*
X-10096065Y-2830284D01*
X-9994991Y-2872150D01*
X-9693990Y-2872150D01*
X-9625240Y-2803400D01*
X-9625240Y-2332900D01*
X-10146540Y-2332900D01*
X-10215290Y-2401650D01*
X-12000470Y-2401650D01*
X-12000470Y-1843949D01*
X-10215290Y-1843949D01*
X-10215290Y-2094150D01*
X-10146540Y-2162900D01*
X-9625240Y-2162900D01*
X-9625240Y-1692400D01*
X-9693990Y-1623650D01*
X-9994991Y-1623650D01*
X-10096065Y-1665516D01*
X-10173424Y-1742875D01*
X-10215290Y-1843949D01*
X-12000470Y-1843949D01*
X-12000470Y-1131650D01*
X-10215290Y-1131650D01*
X-10215290Y-1381851D01*
X-10173424Y-1482925D01*
X-10096065Y-1560284D01*
X-9994991Y-1602150D01*
X-9693990Y-1602150D01*
X-9625240Y-1533400D01*
X-9625240Y-1062900D01*
X-10146540Y-1062900D01*
X-10215290Y-1131650D01*
X-12000470Y-1131650D01*
X-12000470Y918130D01*
X-11984400Y918130D01*
X-11984400Y318679D01*
X-11942534Y217605D01*
X-11865175Y140246D01*
X-11764101Y98380D01*
X-11266250Y98380D01*
X-11197500Y167130D01*
X-11197500Y986880D01*
X-11915650Y986880D01*
X-11984400Y918130D01*
X-12000470Y918130D01*
X-12000470Y1825081D01*
X-11984400Y1825081D01*
X-11984400Y1225630D01*
X-11915650Y1156880D01*
X-11197500Y1156880D01*
X-11197500Y1976630D01*
X-11266250Y2045380D01*
X-11764101Y2045380D01*
X-11865175Y2003514D01*
X-11942534Y1926155D01*
X-11984400Y1825081D01*
X-12000470Y1825081D01*
X-12000470Y6223091D01*
X-11851050Y6223091D01*
X-11851050Y5922090D01*
X-11782300Y5853340D01*
X-11311800Y5853340D01*
X-11311800Y6374640D01*
X-11141800Y6374640D01*
X-11141800Y5853340D01*
X-10671300Y5853340D01*
X-10602550Y5922090D01*
X-10602550Y6223091D01*
X-10644416Y6324165D01*
X-10721775Y6401524D01*
X-10822849Y6443390D01*
X-11073050Y6443390D01*
X-11141800Y6374640D01*
X-11311800Y6374640D01*
X-11380550Y6443390D01*
X-11630751Y6443390D01*
X-11731825Y6401524D01*
X-11809184Y6324165D01*
X-11851050Y6223091D01*
X-12000470Y6223091D01*
X-12000470Y7846970D01*
X-8910364Y7846970D01*
X-8914760Y7844141D01*
X-8914760Y7844141D01*
G37*
X-8914760Y7844141D02*
X-8966134Y7768953D01*
X-8984208Y7679700D01*
X-8984208Y7594108D01*
X-9674800Y7594108D01*
X-9758180Y7578419D01*
X-9834760Y7529141D01*
X-9886134Y7453953D01*
X-9904208Y7364700D01*
X-9904208Y7114700D01*
X-9888519Y7031320D01*
X-9861724Y6989679D01*
X-9886134Y6953953D01*
X-9904208Y6864700D01*
X-9904208Y6614700D01*
X-9888519Y6531320D01*
X-9861724Y6489679D01*
X-9886134Y6453953D01*
X-9904208Y6364700D01*
X-9904208Y6114700D01*
X-9889876Y6038533D01*
X-9907934Y6020475D01*
X-9949800Y5919401D01*
X-9949800Y5870950D01*
X-9881050Y5802200D01*
X-9409800Y5802200D01*
X-9409800Y5844700D01*
X-9239800Y5844700D01*
X-9239800Y5802200D01*
X-9219800Y5802200D01*
X-9219800Y5677200D01*
X-9239800Y5677200D01*
X-9239800Y5408450D01*
X-9171050Y5339700D01*
X-8984208Y5339700D01*
X-8984208Y5299700D01*
X-8968519Y5216320D01*
X-8919241Y5139740D01*
X-8844053Y5088366D01*
X-8754800Y5070292D01*
X-7094800Y5070292D01*
X-7011420Y5085981D01*
X-6934840Y5135259D01*
X-6883466Y5210447D01*
X-6865392Y5299700D01*
X-6865392Y5385292D01*
X-6813300Y5385292D01*
X-6813300Y4276900D01*
X-6791339Y4166496D01*
X-6728800Y4072900D01*
X-6416608Y3760708D01*
X-6416608Y3395700D01*
X-6400919Y3312320D01*
X-6351641Y3235740D01*
X-6276453Y3184366D01*
X-6187200Y3166292D01*
X-6126242Y3166292D01*
X-6108539Y3077296D01*
X-6060839Y3005908D01*
X-6201600Y3005908D01*
X-6284980Y2990219D01*
X-6361560Y2940941D01*
X-6412934Y2865753D01*
X-6426600Y2798268D01*
X-6426600Y2831201D01*
X-6468466Y2932275D01*
X-6545825Y3009634D01*
X-6646899Y3051500D01*
X-6747850Y3051500D01*
X-6816600Y2982750D01*
X-6816600Y2561500D01*
X-6796600Y2561500D01*
X-6796600Y2391500D01*
X-6816600Y2391500D01*
X-6816600Y1970250D01*
X-6747850Y1901500D01*
X-6657298Y1901500D01*
X-6675800Y1856831D01*
X-6675800Y1581230D01*
X-6607050Y1512480D01*
X-6325870Y1512480D01*
X-6325870Y1532480D01*
X-6176010Y1532480D01*
X-6176010Y1512480D01*
X-6145940Y1512480D01*
X-6145940Y1342480D01*
X-6176010Y1342480D01*
X-6176010Y1322480D01*
X-6325870Y1322480D01*
X-6325870Y1342480D01*
X-6607050Y1342480D01*
X-6675800Y1273730D01*
X-6675800Y1032048D01*
X-6832662Y1032048D01*
X-6789587Y1075048D01*
X-6713237Y1258918D01*
X-6713064Y1458009D01*
X-6789092Y1642012D01*
X-6929748Y1782913D01*
X-7113618Y1859263D01*
X-7312709Y1859436D01*
X-7496712Y1783408D01*
X-7515056Y1765096D01*
X-7572500Y1822540D01*
X-8043000Y1822540D01*
X-8043000Y1802540D01*
X-8213000Y1802540D01*
X-8213000Y1822540D01*
X-8233000Y1822540D01*
X-8233000Y1992540D01*
X-8213000Y1992540D01*
X-8213000Y2513840D01*
X-8043000Y2513840D01*
X-8043000Y1992540D01*
X-7572500Y1992540D01*
X-7503750Y2061290D01*
X-7503750Y2322750D01*
X-7376600Y2322750D01*
X-7376600Y2121799D01*
X-7334734Y2020725D01*
X-7257375Y1943366D01*
X-7156301Y1901500D01*
X-7055350Y1901500D01*
X-6986600Y1970250D01*
X-6986600Y2391500D01*
X-7307850Y2391500D01*
X-7376600Y2322750D01*
X-7503750Y2322750D01*
X-7503750Y2362291D01*
X-7545616Y2463365D01*
X-7622975Y2540724D01*
X-7724049Y2582590D01*
X-7974250Y2582590D01*
X-8043000Y2513840D01*
X-8213000Y2513840D01*
X-8281750Y2582590D01*
X-8531951Y2582590D01*
X-8538800Y2579753D01*
X-8538800Y2831201D01*
X-7376600Y2831201D01*
X-7376600Y2630250D01*
X-7307850Y2561500D01*
X-6986600Y2561500D01*
X-6986600Y2982750D01*
X-7055350Y3051500D01*
X-7156301Y3051500D01*
X-7257375Y3009634D01*
X-7334734Y2932275D01*
X-7376600Y2831201D01*
X-8538800Y2831201D01*
X-8538800Y3117770D01*
X-8607550Y3186520D01*
X-9325700Y3186520D01*
X-9325700Y2366770D01*
X-9256950Y2298020D01*
X-8759099Y2298020D01*
X-8752250Y2300857D01*
X-8752250Y2061290D01*
X-8683502Y1992542D01*
X-8752250Y1992542D01*
X-8752250Y1987324D01*
X-8813800Y1999788D01*
X-9962939Y1999788D01*
X-9962939Y2298020D01*
X-9564450Y2298020D01*
X-9495700Y2366770D01*
X-9495700Y3186520D01*
X-10213850Y3186520D01*
X-10282600Y3117770D01*
X-10282600Y2748020D01*
X-10286192Y2751612D01*
X-10286192Y3970020D01*
X-10296484Y4024721D01*
X-10282600Y4024721D01*
X-10282600Y3425270D01*
X-10213850Y3356520D01*
X-9495700Y3356520D01*
X-9495700Y4176270D01*
X-9325700Y4176270D01*
X-9325700Y3356520D01*
X-8607550Y3356520D01*
X-8538800Y3425270D01*
X-8538800Y4024721D01*
X-8580666Y4125795D01*
X-8658025Y4203154D01*
X-8759099Y4245020D01*
X-9256950Y4245020D01*
X-9325700Y4176270D01*
X-9495700Y4176270D01*
X-9564450Y4245020D01*
X-10062301Y4245020D01*
X-10163375Y4203154D01*
X-10240734Y4125795D01*
X-10282600Y4024721D01*
X-10296484Y4024721D01*
X-10301881Y4053400D01*
X-10351159Y4129980D01*
X-10426347Y4181354D01*
X-10515600Y4199428D01*
X-10662638Y4199428D01*
X-10648142Y4271010D01*
X-10648142Y5071110D01*
X-10663831Y5154490D01*
X-10678948Y5177983D01*
X-10644416Y5212515D01*
X-10602550Y5313589D01*
X-10602550Y5608450D01*
X-9949800Y5608450D01*
X-9949800Y5559999D01*
X-9907934Y5458925D01*
X-9830575Y5381566D01*
X-9729501Y5339700D01*
X-9478550Y5339700D01*
X-9409800Y5408450D01*
X-9409800Y5677200D01*
X-9881050Y5677200D01*
X-9949800Y5608450D01*
X-10602550Y5608450D01*
X-10602550Y5614590D01*
X-10671300Y5683340D01*
X-11141800Y5683340D01*
X-11141800Y5663340D01*
X-11311800Y5663340D01*
X-11311800Y5683340D01*
X-11782300Y5683340D01*
X-11851050Y5614590D01*
X-11851050Y5313589D01*
X-11809184Y5212515D01*
X-11775064Y5178395D01*
X-11787384Y5160363D01*
X-11805458Y5071110D01*
X-11805458Y4271010D01*
X-11789769Y4187630D01*
X-11787861Y4184665D01*
X-11792780Y4183739D01*
X-11869360Y4134461D01*
X-11920734Y4059273D01*
X-11938808Y3970020D01*
X-11938808Y2573020D01*
X-11923119Y2489640D01*
X-11873841Y2413060D01*
X-11798653Y2361686D01*
X-11709400Y2343612D01*
X-10694192Y2343612D01*
X-10539939Y2189359D01*
X-10539939Y2045380D01*
X-10958750Y2045380D01*
X-11027500Y1976630D01*
X-11027500Y1156880D01*
X-11007500Y1156880D01*
X-11007500Y986880D01*
X-11027500Y986880D01*
X-11027500Y167130D01*
X-10958750Y98380D01*
X-10539939Y98380D01*
X-10539939Y78739D01*
X-10517978Y-31665D01*
X-10455439Y-125261D01*
X-10140624Y-440076D01*
X-10173424Y-472875D01*
X-10215290Y-573949D01*
X-10215290Y-824150D01*
X-10146540Y-892900D01*
X-9625240Y-892900D01*
X-9625240Y-872900D01*
X-9455240Y-872900D01*
X-9455240Y-892900D01*
X-9435240Y-892900D01*
X-9435240Y-1062900D01*
X-9455240Y-1062900D01*
X-9455240Y-1533400D01*
X-9386490Y-1602150D01*
X-9085489Y-1602150D01*
X-8984415Y-1560284D01*
X-8950295Y-1526164D01*
X-8932263Y-1538484D01*
X-8843010Y-1556558D01*
X-8042910Y-1556558D01*
X-7959530Y-1540869D01*
X-7882950Y-1491591D01*
X-7831576Y-1416403D01*
X-7813502Y-1327150D01*
X-7813502Y-1136860D01*
X-7672258Y-1136860D01*
X-7675290Y-1144179D01*
X-7675290Y-1205060D01*
X-7606540Y-1273810D01*
X-7110640Y-1273810D01*
X-7110640Y-1243740D01*
X-6940640Y-1243740D01*
X-6940640Y-1273810D01*
X-6444740Y-1273810D01*
X-6434670Y-1263740D01*
X-5669734Y-1263740D01*
X-5685172Y-1322673D01*
X-5669917Y-1433740D01*
X-6434670Y-1433740D01*
X-6444740Y-1423670D01*
X-6940640Y-1423670D01*
X-6940640Y-1453740D01*
X-7110640Y-1453740D01*
X-7110640Y-1423670D01*
X-7606540Y-1423670D01*
X-7675290Y-1492420D01*
X-7675290Y-1533175D01*
X-7715861Y-1560284D01*
X-7775204Y-1599936D01*
X-7897827Y-1722559D01*
X-7952705Y-1685062D01*
X-8042910Y-1666795D01*
X-8843010Y-1666795D01*
X-8927279Y-1682651D01*
X-8951618Y-1698313D01*
X-8984415Y-1665516D01*
X-9085489Y-1623650D01*
X-9386490Y-1623650D01*
X-9455240Y-1692400D01*
X-9455240Y-2162900D01*
X-9435240Y-2162900D01*
X-9435240Y-2332900D01*
X-9455240Y-2332900D01*
X-9455240Y-2803400D01*
X-9386490Y-2872150D01*
X-9117579Y-2872150D01*
X-9194854Y-2887521D01*
X-9265080Y-2934445D01*
X-9563200Y-2934445D01*
X-9647469Y-2950301D01*
X-9724866Y-3000105D01*
X-9776788Y-3076095D01*
X-9788200Y-3132449D01*
X-9788200Y-3111599D01*
X-9830066Y-3010525D01*
X-9907425Y-2933166D01*
X-10008499Y-2891300D01*
X-10209450Y-2891300D01*
X-10278200Y-2960050D01*
X-10278200Y-3331300D01*
X-10258200Y-3331300D01*
X-10258200Y-3501300D01*
X-10278200Y-3501300D01*
X-10278200Y-3872550D01*
X-10209450Y-3941300D01*
X-10008499Y-3941300D01*
X-9907425Y-3899434D01*
X-9830066Y-3822075D01*
X-9788200Y-3721001D01*
X-9788200Y-3702732D01*
X-9779199Y-3750569D01*
X-9729395Y-3827966D01*
X-9653405Y-3879888D01*
X-9563200Y-3898155D01*
X-9445600Y-3898155D01*
X-9445600Y-3947201D01*
X-9502469Y-3957901D01*
X-9571120Y-4002077D01*
X-9628947Y-3962566D01*
X-9718200Y-3944492D01*
X-10368200Y-3944492D01*
X-10451580Y-3960181D01*
X-10528160Y-4009459D01*
X-10579534Y-4084647D01*
X-10597608Y-4173900D01*
X-10597608Y-4926996D01*
X-10663737Y-4899537D01*
X-10861874Y-4899364D01*
X-11044994Y-4975028D01*
X-11185220Y-5115009D01*
X-11261203Y-5297997D01*
X-11261369Y-5487629D01*
X-11278400Y-5504660D01*
X-11340939Y-5598256D01*
X-11362900Y-5708660D01*
X-11362900Y-5737292D01*
X-11374400Y-5737292D01*
X-11457780Y-5752981D01*
X-11534360Y-5802259D01*
X-11585734Y-5877447D01*
X-11603808Y-5966700D01*
X-11603808Y-6366700D01*
X-11588119Y-6450080D01*
X-11538841Y-6526660D01*
X-11463653Y-6578034D01*
X-11374400Y-6596108D01*
X-10774400Y-6596108D01*
X-10691020Y-6580419D01*
X-10614440Y-6531141D01*
X-10597608Y-6506507D01*
X-10597608Y-6725934D01*
X-10609959Y-6706740D01*
X-10685147Y-6655366D01*
X-10774400Y-6637292D01*
X-11374400Y-6637292D01*
X-11457780Y-6652981D01*
X-11534360Y-6702259D01*
X-11585734Y-6777447D01*
X-11603808Y-6866700D01*
X-11603808Y-7266700D01*
X-11588119Y-7350080D01*
X-11538841Y-7426660D01*
X-11463653Y-7478034D01*
X-11374400Y-7496108D01*
X-10774400Y-7496108D01*
X-10691020Y-7480419D01*
X-10614440Y-7431141D01*
X-10597608Y-7406507D01*
X-10597608Y-7433900D01*
X-10581919Y-7517280D01*
X-10532641Y-7593860D01*
X-10457453Y-7645234D01*
X-10368200Y-7663308D01*
X-9718200Y-7663308D01*
X-9634820Y-7647619D01*
X-9609611Y-7631398D01*
X-9573975Y-7667034D01*
X-9472901Y-7708900D01*
X-9246950Y-7708900D01*
X-9178200Y-7640150D01*
X-9178200Y-6988900D01*
X-9198200Y-6988900D01*
X-9198200Y-6818900D01*
X-9178200Y-6818900D01*
X-9178200Y-6167650D01*
X-9246950Y-6098900D01*
X-9472901Y-6098900D01*
X-9573975Y-6140766D01*
X-9609240Y-6176031D01*
X-9628947Y-6162566D01*
X-9718200Y-6144492D01*
X-10368200Y-6144492D01*
X-10451580Y-6160181D01*
X-10528160Y-6209459D01*
X-10544992Y-6234093D01*
X-10544992Y-5966700D01*
X-10560681Y-5883320D01*
X-10576249Y-5859127D01*
X-10481486Y-5819972D01*
X-10341260Y-5679991D01*
X-10275736Y-5522192D01*
X-10247200Y-5564900D01*
X-9956601Y-5855500D01*
X-9882967Y-5904700D01*
X-9863004Y-5918039D01*
X-9752600Y-5940000D01*
X-7952510Y-5940000D01*
X-7842106Y-5918039D01*
X-7748510Y-5855500D01*
X-7687000Y-5793990D01*
X-7687000Y-5860550D01*
X-7618250Y-5929300D01*
X-7197000Y-5929300D01*
X-7197000Y-5608050D01*
X-7265750Y-5539300D01*
X-7432310Y-5539300D01*
X-6821640Y-4928630D01*
X-6759101Y-4835034D01*
X-6755005Y-4814441D01*
X-6737140Y-4724630D01*
X-6737140Y-3729528D01*
X-6650990Y-3729528D01*
X-6625010Y-3724639D01*
X-6630208Y-3750310D01*
X-6630208Y-4499610D01*
X-6614519Y-4582990D01*
X-6565241Y-4659570D01*
X-6527794Y-4685156D01*
X-6517479Y-4737014D01*
X-6454940Y-4830610D01*
X-6410686Y-4874864D01*
X-6530154Y-4924228D01*
X-6670380Y-5064209D01*
X-6746363Y-5247197D01*
X-6746536Y-5445334D01*
X-6697470Y-5564082D01*
X-6757299Y-5539300D01*
X-6958250Y-5539300D01*
X-7027000Y-5608050D01*
X-7027000Y-5929300D01*
X-7007000Y-5929300D01*
X-7007000Y-6099300D01*
X-7027000Y-6099300D01*
X-7027000Y-6119300D01*
X-7197000Y-6119300D01*
X-7197000Y-6099300D01*
X-7618250Y-6099300D01*
X-7687000Y-6168050D01*
X-7687000Y-6191227D01*
X-7728947Y-6162566D01*
X-7818200Y-6144492D01*
X-8468200Y-6144492D01*
X-8551580Y-6160181D01*
X-8576789Y-6176402D01*
X-8612425Y-6140766D01*
X-8713499Y-6098900D01*
X-8939450Y-6098900D01*
X-9008200Y-6167650D01*
X-9008200Y-6818900D01*
X-8988200Y-6818900D01*
X-8988200Y-6988900D01*
X-9008200Y-6988900D01*
X-9008200Y-7640150D01*
X-8939450Y-7708900D01*
X-8713499Y-7708900D01*
X-8612425Y-7667034D01*
X-8577160Y-7631769D01*
X-8557453Y-7645234D01*
X-8468200Y-7663308D01*
X-7818200Y-7663308D01*
X-7734820Y-7647619D01*
X-7658240Y-7598341D01*
X-7606866Y-7523153D01*
X-7588792Y-7433900D01*
X-7588792Y-7255066D01*
X-7576441Y-7274260D01*
X-7501253Y-7325634D01*
X-7412000Y-7343708D01*
X-6812000Y-7343708D01*
X-6728620Y-7328019D01*
X-6652040Y-7278741D01*
X-6600666Y-7203553D01*
X-6582592Y-7114300D01*
X-6582592Y-6714300D01*
X-6598281Y-6630920D01*
X-6647559Y-6554340D01*
X-6722747Y-6502966D01*
X-6790232Y-6489300D01*
X-6757299Y-6489300D01*
X-6656225Y-6447434D01*
X-6609668Y-6400877D01*
X-6486100Y-6524660D01*
X-6486100Y-6565900D01*
X-6464139Y-6676304D01*
X-6401600Y-6769900D01*
X-6046001Y-7125500D01*
X-5963180Y-7180839D01*
X-5952404Y-7188039D01*
X-5842000Y-7210000D01*
X-5603808Y-7210000D01*
X-5603808Y-7221500D01*
X-5588119Y-7304880D01*
X-5538841Y-7381460D01*
X-5463653Y-7432834D01*
X-5374400Y-7450908D01*
X-4974400Y-7450908D01*
X-4891020Y-7435219D01*
X-4814440Y-7385941D01*
X-4763066Y-7310753D01*
X-4744992Y-7221500D01*
X-4744992Y-6621500D01*
X-4760681Y-6538120D01*
X-4808818Y-6463313D01*
X-4763066Y-6396353D01*
X-4744992Y-6307100D01*
X-4744992Y-5846823D01*
X-4703808Y-5846859D01*
X-4703808Y-6307100D01*
X-4688119Y-6390480D01*
X-4639982Y-6465287D01*
X-4685734Y-6532247D01*
X-4703808Y-6621500D01*
X-4703808Y-7221500D01*
X-4688119Y-7304880D01*
X-4638841Y-7381460D01*
X-4563653Y-7432834D01*
X-4474400Y-7450908D01*
X-4074400Y-7450908D01*
X-3991020Y-7435219D01*
X-3914440Y-7385941D01*
X-3863066Y-7310753D01*
X-3844992Y-7221500D01*
X-3844992Y-6864850D01*
X-3572200Y-6864850D01*
X-3572200Y-6965801D01*
X-3530334Y-7066875D01*
X-3452975Y-7144234D01*
X-3351901Y-7186100D01*
X-3150950Y-7186100D01*
X-3082200Y-7117350D01*
X-3082200Y-6796100D01*
X-3503450Y-6796100D01*
X-3572200Y-6864850D01*
X-3844992Y-6864850D01*
X-3844992Y-6856492D01*
X-3559025Y-6570525D01*
X-3503450Y-6626100D01*
X-3082200Y-6626100D01*
X-3082200Y-6606100D01*
X-2912200Y-6606100D01*
X-2912200Y-6626100D01*
X-2892200Y-6626100D01*
X-2892200Y-6796100D01*
X-2912200Y-6796100D01*
X-2912200Y-7117350D01*
X-2843450Y-7186100D01*
X-2642499Y-7186100D01*
X-2572430Y-7157077D01*
X-2572430Y-7353391D01*
X-2530564Y-7454465D01*
X-2453205Y-7531824D01*
X-2352131Y-7573690D01*
X-2051130Y-7573690D01*
X-1982380Y-7504940D01*
X-1982380Y-7034440D01*
X-2002380Y-7034440D01*
X-2002380Y-6864440D01*
X-1982380Y-6864440D01*
X-1982380Y-6393940D01*
X-2051130Y-6325190D01*
X-2352131Y-6325190D01*
X-2453205Y-6367056D01*
X-2457449Y-6371300D01*
X-2464066Y-6355325D01*
X-2541425Y-6277966D01*
X-2642499Y-6236100D01*
X-2673773Y-6236100D01*
X-2613820Y-6224819D01*
X-2537240Y-6175541D01*
X-2485866Y-6100353D01*
X-2485743Y-6099746D01*
X-2453205Y-6132284D01*
X-2352131Y-6174150D01*
X-2051130Y-6174150D01*
X-1982380Y-6105400D01*
X-1982380Y-5634900D01*
X-2002380Y-5634900D01*
X-2002380Y-5464900D01*
X-1982380Y-5464900D01*
X-1982380Y-4994400D01*
X-2051130Y-4925650D01*
X-2352131Y-4925650D01*
X-2453205Y-4967516D01*
X-2459780Y-4974091D01*
X-2459780Y-4771578D01*
X-2452461Y-4774610D01*
X-2391580Y-4774610D01*
X-2322830Y-4705860D01*
X-2322830Y-4209960D01*
X-2172970Y-4209960D01*
X-2172970Y-4705860D01*
X-2104220Y-4774610D01*
X-2043339Y-4774610D01*
X-1942265Y-4732744D01*
X-1864906Y-4655385D01*
X-1823040Y-4554311D01*
X-1823040Y-4278710D01*
X-1891790Y-4209960D01*
X-2172970Y-4209960D01*
X-2322830Y-4209960D01*
X-2352900Y-4209960D01*
X-2352900Y-4039960D01*
X-2322830Y-4039960D01*
X-2322830Y-4019960D01*
X-2172970Y-4019960D01*
X-2172970Y-4039960D01*
X-1891790Y-4039960D01*
X-1823040Y-3971210D01*
X-1823040Y-3729528D01*
X-1627656Y-3729528D01*
X-1177500Y-4179684D01*
X-1177500Y-4968795D01*
X-1200150Y-4968795D01*
X-1284419Y-4984651D01*
X-1308758Y-5000313D01*
X-1341555Y-4967516D01*
X-1442629Y-4925650D01*
X-1743630Y-4925650D01*
X-1812380Y-4994400D01*
X-1812380Y-5464900D01*
X-1792380Y-5464900D01*
X-1792380Y-5634900D01*
X-1812380Y-5634900D01*
X-1812380Y-6105400D01*
X-1743630Y-6174150D01*
X-1442629Y-6174150D01*
X-1341555Y-6132284D01*
X-1309160Y-6099889D01*
X-1290355Y-6112738D01*
X-1200150Y-6131005D01*
X-1103700Y-6131005D01*
X-1103700Y-6368335D01*
X-1200150Y-6368335D01*
X-1284419Y-6384191D01*
X-1308758Y-6399853D01*
X-1341555Y-6367056D01*
X-1442629Y-6325190D01*
X-1743630Y-6325190D01*
X-1812380Y-6393940D01*
X-1812380Y-6864440D01*
X-1792380Y-6864440D01*
X-1792380Y-7034440D01*
X-1812380Y-7034440D01*
X-1812380Y-7504940D01*
X-1743630Y-7573690D01*
X-1442629Y-7573690D01*
X-1341555Y-7531824D01*
X-1309160Y-7499429D01*
X-1290355Y-7512278D01*
X-1200150Y-7530545D01*
X-400050Y-7530545D01*
X-315781Y-7514689D01*
X-238384Y-7464885D01*
X-186462Y-7388895D01*
X-168195Y-7298690D01*
X-168195Y-6668850D01*
X876890Y-6668850D01*
X876890Y-6919051D01*
X918756Y-7020125D01*
X996115Y-7097484D01*
X1097189Y-7139350D01*
X1398190Y-7139350D01*
X1466940Y-7070600D01*
X1466940Y-6600100D01*
X945640Y-6600100D01*
X876890Y-6668850D01*
X-168195Y-6668850D01*
X-168195Y-6600190D01*
X-184051Y-6515921D01*
X-233855Y-6438524D01*
X-309845Y-6386602D01*
X-400050Y-6368335D01*
X-496500Y-6368335D01*
X-496500Y-6131005D01*
X-400050Y-6131005D01*
X-315781Y-6115149D01*
X-309565Y-6111149D01*
X876890Y-6111149D01*
X876890Y-6361350D01*
X945640Y-6430100D01*
X1466940Y-6430100D01*
X1466940Y-5959600D01*
X1398190Y-5890850D01*
X1097189Y-5890850D01*
X996115Y-5932716D01*
X918756Y-6010075D01*
X876890Y-6111149D01*
X-309565Y-6111149D01*
X-238384Y-6065345D01*
X-186462Y-5989355D01*
X-168195Y-5899150D01*
X-168195Y-5853705D01*
X-166405Y-5854928D01*
X-76200Y-5873195D01*
X1122680Y-5873195D01*
X1206949Y-5857339D01*
X1284346Y-5807535D01*
X1336268Y-5731545D01*
X1354535Y-5641340D01*
X1354535Y-5021580D01*
X1338679Y-4937311D01*
X1288875Y-4859914D01*
X1212885Y-4807992D01*
X1211063Y-4807623D01*
X1214972Y-4806008D01*
X1355873Y-4665352D01*
X1432223Y-4481482D01*
X1432396Y-4282391D01*
X1356368Y-4098388D01*
X1215712Y-3957487D01*
X1207628Y-3954130D01*
X1282640Y-3905861D01*
X1334014Y-3830673D01*
X1352088Y-3741420D01*
X1352088Y-3121660D01*
X1336399Y-3038280D01*
X1287121Y-2961700D01*
X1211933Y-2910326D01*
X1122680Y-2892252D01*
X962938Y-2892252D01*
X977832Y-2877358D01*
X1426210Y-2877358D01*
X1509590Y-2861669D01*
X1533083Y-2846552D01*
X1567615Y-2881084D01*
X1668689Y-2922950D01*
X1969690Y-2922950D01*
X2038440Y-2854200D01*
X2038440Y-2383700D01*
X2018440Y-2383700D01*
X2018440Y-2213700D01*
X2038440Y-2213700D01*
X2038440Y-1743200D01*
X1969690Y-1674450D01*
X1668689Y-1674450D01*
X1567615Y-1716316D01*
X1533495Y-1750436D01*
X1515463Y-1738116D01*
X1426210Y-1720042D01*
X1037216Y-1720042D01*
X1196154Y-1654370D01*
X1336380Y-1514389D01*
X1412363Y-1331401D01*
X1412536Y-1133264D01*
X1336872Y-950144D01*
X1233816Y-846908D01*
X1324800Y-846908D01*
X1408180Y-831219D01*
X1484760Y-781941D01*
X1536134Y-706753D01*
X1554208Y-617500D01*
X1554208Y-17500D01*
X1538519Y65880D01*
X1489241Y142460D01*
X1414053Y193834D01*
X1324800Y211908D01*
X924800Y211908D01*
X841420Y196219D01*
X764840Y146941D01*
X713466Y71753D01*
X695392Y-17500D01*
X695392Y-29000D01*
X395326Y-29000D01*
X400850Y-23476D01*
X463388Y70120D01*
X485349Y180524D01*
X485349Y257600D01*
X772160Y257600D01*
X881777Y279404D01*
X924800Y270692D01*
X1324800Y270692D01*
X1408180Y286381D01*
X1484760Y335659D01*
X1536134Y410847D01*
X1554208Y500100D01*
X1554208Y1100100D01*
X1538519Y1183480D01*
X1489241Y1260060D01*
X1418028Y1308718D01*
X1484760Y1351659D01*
X1536134Y1426847D01*
X1554208Y1516100D01*
X1554208Y2116100D01*
X1538519Y2199480D01*
X1489241Y2276060D01*
X1419474Y2323730D01*
X1731957Y2323730D01*
X1664840Y2280541D01*
X1613466Y2205353D01*
X1595392Y2116100D01*
X1595392Y1516100D01*
X1611081Y1432720D01*
X1660359Y1356140D01*
X1731572Y1307482D01*
X1664840Y1264541D01*
X1613466Y1189353D01*
X1595392Y1100100D01*
X1595392Y500100D01*
X1611081Y416720D01*
X1660359Y340140D01*
X1735547Y288766D01*
X1824800Y270692D01*
X2224800Y270692D01*
X2308180Y286381D01*
X2384760Y335659D01*
X2436134Y410847D01*
X2454208Y500100D01*
X2454208Y714800D01*
X2632173Y714800D01*
X2714709Y632120D01*
X2897697Y556137D01*
X3095834Y555964D01*
X3278954Y631628D01*
X3419180Y771609D01*
X3495163Y954597D01*
X3495189Y983900D01*
X4624307Y983900D01*
X4745715Y690071D01*
X5061907Y373328D01*
X5475242Y201696D01*
X5922795Y201305D01*
X6336429Y372215D01*
X6461596Y497164D01*
X6461464Y345866D01*
X6537128Y162746D01*
X6636251Y63450D01*
X6537620Y-35009D01*
X6461637Y-217997D01*
X6461492Y-383942D01*
X6338093Y-260328D01*
X5924758Y-88696D01*
X5477205Y-88305D01*
X5213921Y-197091D01*
X4662765Y354065D01*
X4541107Y435355D01*
X4397600Y463900D01*
X3603600Y463900D01*
X3556702Y510880D01*
X3373714Y586863D01*
X3175577Y587036D01*
X2992457Y511372D01*
X2858251Y377400D01*
X2590800Y377400D01*
X2488048Y356961D01*
X2480396Y355439D01*
X2386799Y292900D01*
X2292166Y198266D01*
X2224800Y211908D01*
X1824800Y211908D01*
X1741420Y196219D01*
X1664840Y146941D01*
X1613466Y71753D01*
X1595392Y-17500D01*
X1595392Y-617500D01*
X1611081Y-700880D01*
X1660359Y-777460D01*
X1735547Y-828834D01*
X1824800Y-846908D01*
X2224800Y-846908D01*
X2308180Y-831219D01*
X2384760Y-781941D01*
X2436134Y-706753D01*
X2454208Y-617500D01*
X2454208Y-455692D01*
X2524192Y-385708D01*
X2524192Y-732702D01*
X2461446Y-758628D01*
X2321220Y-898609D01*
X2245237Y-1081597D01*
X2245064Y-1279734D01*
X2320728Y-1462854D01*
X2460709Y-1603080D01*
X2538661Y-1635448D01*
X2530763Y-1674450D01*
X2277190Y-1674450D01*
X2208440Y-1743200D01*
X2208440Y-2213700D01*
X2228440Y-2213700D01*
X2228440Y-2383700D01*
X2208440Y-2383700D01*
X2208440Y-2854200D01*
X2277190Y-2922950D01*
X2453615Y-2922950D01*
X2400360Y-2957219D01*
X2348986Y-3032407D01*
X2330912Y-3121660D01*
X2330912Y-3741420D01*
X2346601Y-3824800D01*
X2374647Y-3868384D01*
X2327186Y-3915845D01*
X2285320Y-4016919D01*
X2285320Y-4227750D01*
X2354070Y-4296500D01*
X3074760Y-4296500D01*
X3074760Y-4276500D01*
X3244760Y-4276500D01*
X3244760Y-4296500D01*
X3965450Y-4296500D01*
X4034200Y-4227750D01*
X4034200Y-4016919D01*
X3992334Y-3915845D01*
X3944810Y-3868321D01*
X3953270Y-3855940D01*
X4247800Y-4150470D01*
X4247800Y-4356911D01*
X4200820Y-4403809D01*
X4124837Y-4586797D01*
X4124778Y-4653992D01*
X4034200Y-4744570D01*
X4034200Y-4535250D01*
X3965450Y-4466500D01*
X3244760Y-4466500D01*
X3244760Y-4486500D01*
X3074760Y-4486500D01*
X3074760Y-4466500D01*
X2354070Y-4466500D01*
X2285320Y-4535250D01*
X2285320Y-4746081D01*
X2327186Y-4847155D01*
X2374710Y-4894679D01*
X2348986Y-4932327D01*
X2330912Y-5021580D01*
X2330912Y-5305849D01*
X2302765Y-5347974D01*
X2274220Y-5491480D01*
X2274220Y-5936442D01*
X2249170Y-5936442D01*
X2165790Y-5952131D01*
X2142297Y-5967248D01*
X2107765Y-5932716D01*
X2006691Y-5890850D01*
X1705690Y-5890850D01*
X1636940Y-5959600D01*
X1636940Y-6430100D01*
X1656940Y-6430100D01*
X1656940Y-6600100D01*
X1636940Y-6600100D01*
X1636940Y-7070600D01*
X1705690Y-7139350D01*
X2006691Y-7139350D01*
X2107765Y-7097484D01*
X2141885Y-7063364D01*
X2159917Y-7075684D01*
X2249170Y-7093758D01*
X3049270Y-7093758D01*
X3132650Y-7078069D01*
X3209230Y-7028791D01*
X3260604Y-6953603D01*
X3278678Y-6864350D01*
X3278678Y-6165850D01*
X3262989Y-6082470D01*
X3213711Y-6005890D01*
X3138523Y-5954516D01*
X3049270Y-5936442D01*
X3024220Y-5936442D01*
X3024220Y-5870748D01*
X3759200Y-5870748D01*
X3842580Y-5855059D01*
X3919160Y-5805781D01*
X3970534Y-5730593D01*
X3975421Y-5706460D01*
X3977640Y-5706460D01*
X4121147Y-5677915D01*
X4242805Y-5596625D01*
X4655052Y-5184378D01*
X4721434Y-5184436D01*
X4904554Y-5108772D01*
X4952109Y-5061300D01*
X5247943Y-5061300D01*
X5060107Y-5342416D01*
X4985846Y-5715750D01*
X5060107Y-6089084D01*
X5271584Y-6405582D01*
X5588082Y-6617059D01*
X5961416Y-6691320D01*
X8037784Y-6691320D01*
X8411118Y-6617059D01*
X8727616Y-6405582D01*
X8939093Y-6089084D01*
X9013354Y-5715750D01*
X8939093Y-5342416D01*
X8727616Y-5025918D01*
X8411118Y-4814441D01*
X8037784Y-4740180D01*
X7528027Y-4740180D01*
X7606429Y-4707785D01*
X7923172Y-4391593D01*
X8094804Y-3978258D01*
X8095195Y-3530705D01*
X7924285Y-3117071D01*
X7608093Y-2800328D01*
X7575268Y-2786698D01*
X7656153Y-2705954D01*
X7774375Y-2421245D01*
X7774535Y-2238353D01*
X8015242Y-2338304D01*
X8462795Y-2338695D01*
X8876429Y-2167785D01*
X9193172Y-1851593D01*
X9225070Y-1774774D01*
X9225070Y-7878970D01*
X4624530Y-7878970D01*
X4624530Y-7103500D01*
X4603633Y-6998442D01*
X4544122Y-6909378D01*
X4455058Y-6849867D01*
X4350000Y-6828970D01*
X3650000Y-6828970D01*
X3544942Y-6849867D01*
X3455878Y-6909378D01*
X3396367Y-6998442D01*
X3375470Y-7103500D01*
X3375470Y-7878970D01*
X-12000470Y-7878970D01*
X-12000470Y-3570050D01*
X-10938200Y-3570050D01*
X-10938200Y-3721001D01*
X-10896334Y-3822075D01*
X-10818975Y-3899434D01*
X-10717901Y-3941300D01*
X-10516950Y-3941300D01*
X-10448200Y-3872550D01*
X-10448200Y-3501300D01*
X-10869450Y-3501300D01*
X-10938200Y-3570050D01*
X-12000470Y-3570050D01*
X-12000470Y-3111599D01*
X-10938200Y-3111599D01*
X-10938200Y-3262550D01*
X-10869450Y-3331300D01*
X-10448200Y-3331300D01*
X-10448200Y-2960050D01*
X-10516950Y-2891300D01*
X-10717901Y-2891300D01*
X-10818975Y-2933166D01*
X-10896334Y-3010525D01*
X-10938200Y-3111599D01*
X-12000470Y-3111599D01*
X-12000470Y-2401650D01*
X-10215290Y-2401650D01*
X-10215290Y-2651851D01*
X-10173424Y-2752925D01*
X-10096065Y-2830284D01*
X-9994991Y-2872150D01*
X-9693990Y-2872150D01*
X-9625240Y-2803400D01*
X-9625240Y-2332900D01*
X-10146540Y-2332900D01*
X-10215290Y-2401650D01*
X-12000470Y-2401650D01*
X-12000470Y-1843949D01*
X-10215290Y-1843949D01*
X-10215290Y-2094150D01*
X-10146540Y-2162900D01*
X-9625240Y-2162900D01*
X-9625240Y-1692400D01*
X-9693990Y-1623650D01*
X-9994991Y-1623650D01*
X-10096065Y-1665516D01*
X-10173424Y-1742875D01*
X-10215290Y-1843949D01*
X-12000470Y-1843949D01*
X-12000470Y-1131650D01*
X-10215290Y-1131650D01*
X-10215290Y-1381851D01*
X-10173424Y-1482925D01*
X-10096065Y-1560284D01*
X-9994991Y-1602150D01*
X-9693990Y-1602150D01*
X-9625240Y-1533400D01*
X-9625240Y-1062900D01*
X-10146540Y-1062900D01*
X-10215290Y-1131650D01*
X-12000470Y-1131650D01*
X-12000470Y918130D01*
X-11984400Y918130D01*
X-11984400Y318679D01*
X-11942534Y217605D01*
X-11865175Y140246D01*
X-11764101Y98380D01*
X-11266250Y98380D01*
X-11197500Y167130D01*
X-11197500Y986880D01*
X-11915650Y986880D01*
X-11984400Y918130D01*
X-12000470Y918130D01*
X-12000470Y1825081D01*
X-11984400Y1825081D01*
X-11984400Y1225630D01*
X-11915650Y1156880D01*
X-11197500Y1156880D01*
X-11197500Y1976630D01*
X-11266250Y2045380D01*
X-11764101Y2045380D01*
X-11865175Y2003514D01*
X-11942534Y1926155D01*
X-11984400Y1825081D01*
X-12000470Y1825081D01*
X-12000470Y6223091D01*
X-11851050Y6223091D01*
X-11851050Y5922090D01*
X-11782300Y5853340D01*
X-11311800Y5853340D01*
X-11311800Y6374640D01*
X-11141800Y6374640D01*
X-11141800Y5853340D01*
X-10671300Y5853340D01*
X-10602550Y5922090D01*
X-10602550Y6223091D01*
X-10644416Y6324165D01*
X-10721775Y6401524D01*
X-10822849Y6443390D01*
X-11073050Y6443390D01*
X-11141800Y6374640D01*
X-11311800Y6374640D01*
X-11380550Y6443390D01*
X-11630751Y6443390D01*
X-11731825Y6401524D01*
X-11809184Y6324165D01*
X-11851050Y6223091D01*
X-12000470Y6223091D01*
X-12000470Y7846970D01*
X-8910364Y7846970D01*
X-8914760Y7844141D01*
G36*
X4683672Y-727502D02*
X4575196Y-988742D01*
X4574805Y-1436295D01*
X4683377Y-1699059D01*
X4574966Y-1698964D01*
X4391846Y-1774628D01*
X4283008Y-1883276D01*
X4283008Y-1706900D01*
X4267319Y-1623520D01*
X4218041Y-1546940D01*
X4142853Y-1495566D01*
X4053600Y-1477492D01*
X3753600Y-1477492D01*
X3719515Y-1483906D01*
X3709375Y-1473766D01*
X3608301Y-1431900D01*
X3547350Y-1431900D01*
X3478600Y-1500650D01*
X3478600Y-1846900D01*
X3508600Y-1846900D01*
X3508600Y-2016900D01*
X3478600Y-2016900D01*
X3478600Y-2363150D01*
X3529261Y-2413811D01*
X3529261Y-2497887D01*
X3463545Y-2596237D01*
X3445421Y-2687355D01*
X3435000Y-2739744D01*
X3435000Y-2892252D01*
X2652303Y-2892252D01*
X2679265Y-2881084D01*
X2756624Y-2803725D01*
X2798490Y-2702651D01*
X2798490Y-2452450D01*
X2729742Y-2383702D01*
X2740731Y-2383702D01*
X2753600Y-2386308D01*
X3053600Y-2386308D01*
X3087685Y-2379894D01*
X3097825Y-2390034D01*
X3198899Y-2431900D01*
X3259850Y-2431900D01*
X3328600Y-2363150D01*
X3328600Y-2016900D01*
X3298600Y-2016900D01*
X3298600Y-1846900D01*
X3328600Y-1846900D01*
X3328600Y-1500650D01*
X3259850Y-1431900D01*
X3198899Y-1431900D01*
X3174068Y-1442185D01*
X3241163Y-1280603D01*
X3241221Y-1213627D01*
X3250055Y-1200407D01*
X3278600Y-1056900D01*
X3278600Y-778668D01*
X3283008Y-756900D01*
X3283008Y-409158D01*
X3372845Y-409236D01*
X3524192Y-346700D01*
X3524192Y-756900D01*
X3539881Y-840280D01*
X3589159Y-916860D01*
X3664347Y-968234D01*
X3753600Y-986308D01*
X4053600Y-986308D01*
X4136980Y-970619D01*
X4213560Y-921341D01*
X4264934Y-846153D01*
X4283008Y-756900D01*
X4283008Y-326838D01*
X4683672Y-727502D01*
X4683672Y-727502D01*
G37*
X4683672Y-727502D02*
X4575196Y-988742D01*
X4574805Y-1436295D01*
X4683377Y-1699059D01*
X4574966Y-1698964D01*
X4391846Y-1774628D01*
X4283008Y-1883276D01*
X4283008Y-1706900D01*
X4267319Y-1623520D01*
X4218041Y-1546940D01*
X4142853Y-1495566D01*
X4053600Y-1477492D01*
X3753600Y-1477492D01*
X3719515Y-1483906D01*
X3709375Y-1473766D01*
X3608301Y-1431900D01*
X3547350Y-1431900D01*
X3478600Y-1500650D01*
X3478600Y-1846900D01*
X3508600Y-1846900D01*
X3508600Y-2016900D01*
X3478600Y-2016900D01*
X3478600Y-2363150D01*
X3529261Y-2413811D01*
X3529261Y-2497887D01*
X3463545Y-2596237D01*
X3445421Y-2687355D01*
X3435000Y-2739744D01*
X3435000Y-2892252D01*
X2652303Y-2892252D01*
X2679265Y-2881084D01*
X2756624Y-2803725D01*
X2798490Y-2702651D01*
X2798490Y-2452450D01*
X2729742Y-2383702D01*
X2740731Y-2383702D01*
X2753600Y-2386308D01*
X3053600Y-2386308D01*
X3087685Y-2379894D01*
X3097825Y-2390034D01*
X3198899Y-2431900D01*
X3259850Y-2431900D01*
X3328600Y-2363150D01*
X3328600Y-2016900D01*
X3298600Y-2016900D01*
X3298600Y-1846900D01*
X3328600Y-1846900D01*
X3328600Y-1500650D01*
X3259850Y-1431900D01*
X3198899Y-1431900D01*
X3174068Y-1442185D01*
X3241163Y-1280603D01*
X3241221Y-1213627D01*
X3250055Y-1200407D01*
X3278600Y-1056900D01*
X3278600Y-778668D01*
X3283008Y-756900D01*
X3283008Y-409158D01*
X3372845Y-409236D01*
X3524192Y-346700D01*
X3524192Y-756900D01*
X3539881Y-840280D01*
X3589159Y-916860D01*
X3664347Y-968234D01*
X3753600Y-986308D01*
X4053600Y-986308D01*
X4136980Y-970619D01*
X4213560Y-921341D01*
X4264934Y-846153D01*
X4283008Y-756900D01*
X4283008Y-326838D01*
X4683672Y-727502D01*
G36*
X-4144420Y-1305247D02*
X-4144420Y-1392233D01*
X-4205927Y-1453740D01*
X-4292913Y-1453740D01*
X-4377548Y-1369105D01*
X-4357183Y-1348740D01*
X-4377548Y-1328375D01*
X-4292913Y-1243740D01*
X-4205927Y-1243740D01*
X-4144420Y-1305247D01*
X-4144420Y-1305247D01*
G37*
X-4144420Y-1305247D02*
X-4144420Y-1392233D01*
X-4205927Y-1453740D01*
X-4292913Y-1453740D01*
X-4377548Y-1369105D01*
X-4357183Y-1348740D01*
X-4377548Y-1328375D01*
X-4292913Y-1243740D01*
X-4205927Y-1243740D01*
X-4144420Y-1305247D01*
G36*
X-5122052Y-1328375D02*
X-5142417Y-1348740D01*
X-5122052Y-1369105D01*
X-5186687Y-1433740D01*
X-5313673Y-1433740D01*
X-5378308Y-1369105D01*
X-5357943Y-1348740D01*
X-5378308Y-1328375D01*
X-5313673Y-1263740D01*
X-5186687Y-1263740D01*
X-5122052Y-1328375D01*
X-5122052Y-1328375D01*
G37*
X-5122052Y-1328375D02*
X-5142417Y-1348740D01*
X-5122052Y-1369105D01*
X-5186687Y-1433740D01*
X-5313673Y-1433740D01*
X-5378308Y-1369105D01*
X-5357943Y-1348740D01*
X-5378308Y-1328375D01*
X-5313673Y-1263740D01*
X-5186687Y-1263740D01*
X-5122052Y-1328375D01*
G36*
X-331767Y2980764D02*
X-352000Y2879047D01*
X-352000Y449701D01*
X-823550Y-21850D01*
X-823550Y8720D01*
X-892300Y77470D01*
X-1388200Y77470D01*
X-1388200Y47400D01*
X-1558200Y47400D01*
X-1558200Y77470D01*
X-1578200Y77470D01*
X-1578200Y227330D01*
X-1558200Y227330D01*
X-1558200Y257400D01*
X-1388200Y257400D01*
X-1388200Y227330D01*
X-892300Y227330D01*
X-823550Y296080D01*
X-823550Y356961D01*
X-865416Y458035D01*
X-876073Y468692D01*
X-869142Y502920D01*
X-869142Y802640D01*
X-884831Y886020D01*
X-934109Y962600D01*
X-1009297Y1013974D01*
X-1098550Y1032048D01*
X-1120800Y1032048D01*
X-1120800Y3092532D01*
X-662479Y3550852D01*
X-561291Y3550764D01*
X-377288Y3626792D01*
X-331767Y3672234D01*
X-331767Y2980764D01*
X-331767Y2980764D01*
G37*
X-331767Y2980764D02*
X-352000Y2879047D01*
X-352000Y449701D01*
X-823550Y-21850D01*
X-823550Y8720D01*
X-892300Y77470D01*
X-1388200Y77470D01*
X-1388200Y47400D01*
X-1558200Y47400D01*
X-1558200Y77470D01*
X-1578200Y77470D01*
X-1578200Y227330D01*
X-1558200Y227330D01*
X-1558200Y257400D01*
X-1388200Y257400D01*
X-1388200Y227330D01*
X-892300Y227330D01*
X-823550Y296080D01*
X-823550Y356961D01*
X-865416Y458035D01*
X-876073Y468692D01*
X-869142Y502920D01*
X-869142Y802640D01*
X-884831Y886020D01*
X-934109Y962600D01*
X-1009297Y1013974D01*
X-1098550Y1032048D01*
X-1120800Y1032048D01*
X-1120800Y3092532D01*
X-662479Y3550852D01*
X-561291Y3550764D01*
X-377288Y3626792D01*
X-331767Y3672234D01*
X-331767Y2980764D01*
G36*
X3375470Y7096500D02*
X3396367Y6991442D01*
X3455878Y6902378D01*
X3544942Y6842867D01*
X3650000Y6821970D01*
X4350000Y6821970D01*
X4455058Y6842867D01*
X4544122Y6902378D01*
X4603633Y6991442D01*
X4624530Y7096500D01*
X4624530Y7846970D01*
X9225070Y7846970D01*
X9225070Y1888424D01*
X9194285Y1962929D01*
X8878093Y2279672D01*
X8464758Y2451304D01*
X8017205Y2451695D01*
X7774612Y2351458D01*
X7774644Y2387913D01*
X7656919Y2672828D01*
X7516376Y2813617D01*
X7603638Y2849762D01*
X7706145Y3010147D01*
X6970000Y3746292D01*
X6233855Y3010147D01*
X6336362Y2849762D01*
X6468988Y2799696D01*
X6343047Y2673974D01*
X6224825Y2389265D01*
X6224770Y2326728D01*
X5924758Y2451304D01*
X5477205Y2451695D01*
X5063571Y2280785D01*
X4746828Y1964593D01*
X4651036Y1733900D01*
X3302000Y1733900D01*
X3158493Y1705355D01*
X3036835Y1624065D01*
X2964948Y1552178D01*
X2898566Y1552236D01*
X2715446Y1476572D01*
X2575220Y1336591D01*
X2556621Y1291800D01*
X2423440Y1291800D01*
X2423440Y1408269D01*
X2436134Y1426847D01*
X2454208Y1516100D01*
X2454208Y2116100D01*
X2444869Y2165733D01*
X2530846Y2201258D01*
X2671072Y2341239D01*
X2747055Y2524227D01*
X2747228Y2722364D01*
X2671564Y2905484D01*
X2531583Y3045710D01*
X2348595Y3121693D01*
X2150458Y3121866D01*
X1967338Y3046202D01*
X1844652Y2923730D01*
X1214030Y2923730D01*
X1099225Y2900894D01*
X1001898Y2835862D01*
X923982Y2757946D01*
X892370Y2834454D01*
X752389Y2974680D01*
X569401Y3050663D01*
X371264Y3050836D01*
X245233Y2998761D01*
X245233Y4637130D01*
X408497Y4569337D01*
X606634Y4569164D01*
X789754Y4644828D01*
X929980Y4784809D01*
X963120Y4864619D01*
X1011095Y4790064D01*
X1087085Y4738142D01*
X1177290Y4719875D01*
X1273740Y4719875D01*
X1273740Y4341938D01*
X1208259Y4341995D01*
X1024256Y4265967D01*
X883355Y4125311D01*
X807005Y3941441D01*
X806832Y3742350D01*
X882860Y3558347D01*
X1023516Y3417446D01*
X1207386Y3341096D01*
X1406477Y3340923D01*
X1590480Y3416951D01*
X1731381Y3557607D01*
X1807731Y3741477D01*
X1807887Y3920502D01*
X1857830Y3995248D01*
X1880940Y4111431D01*
X1880940Y4719875D01*
X1977390Y4719875D01*
X2061659Y4735731D01*
X2085998Y4751393D01*
X2118795Y4718596D01*
X2219869Y4676730D01*
X2520870Y4676730D01*
X2589620Y4745480D01*
X2589620Y5215980D01*
X2759620Y5215980D01*
X2759620Y4745480D01*
X2828370Y4676730D01*
X3129371Y4676730D01*
X3230445Y4718596D01*
X3307804Y4795955D01*
X3349670Y4897029D01*
X3349670Y5147230D01*
X3280920Y5215980D01*
X2759620Y5215980D01*
X2589620Y5215980D01*
X2569620Y5215980D01*
X2569620Y5385980D01*
X2589620Y5385980D01*
X2589620Y5856480D01*
X2759620Y5856480D01*
X2759620Y5385980D01*
X3280920Y5385980D01*
X3349670Y5454730D01*
X3349670Y5683770D01*
X4985846Y5683770D01*
X5060107Y5310436D01*
X5271584Y4993938D01*
X5588082Y4782461D01*
X5961416Y4708200D01*
X6119523Y4708200D01*
X6063806Y4652483D01*
X6113645Y4602644D01*
X5953262Y4500138D01*
X5788174Y4062816D01*
X5803008Y3595607D01*
X5953262Y3232862D01*
X6113647Y3130355D01*
X6849792Y3866500D01*
X6835650Y3880642D01*
X6955858Y4000850D01*
X6970000Y3986708D01*
X6984143Y4000850D01*
X7104351Y3880642D01*
X7090208Y3866500D01*
X7826353Y3130355D01*
X7986738Y3232862D01*
X8151826Y3670184D01*
X8136992Y4137393D01*
X7986738Y4500138D01*
X7826355Y4602644D01*
X7876194Y4652483D01*
X7820477Y4708200D01*
X8037784Y4708200D01*
X8411118Y4782461D01*
X8727616Y4993938D01*
X8939093Y5310436D01*
X9013354Y5683770D01*
X8939093Y6057104D01*
X8727616Y6373602D01*
X8411118Y6585079D01*
X8037784Y6659340D01*
X5961416Y6659340D01*
X5588082Y6585079D01*
X5271584Y6373602D01*
X5060107Y6057104D01*
X4985846Y5683770D01*
X3349670Y5683770D01*
X3349670Y5704931D01*
X3307804Y5806005D01*
X3230445Y5883364D01*
X3129371Y5925230D01*
X2828370Y5925230D01*
X2759620Y5856480D01*
X2589620Y5856480D01*
X2520870Y5925230D01*
X2219869Y5925230D01*
X2118795Y5883364D01*
X2086400Y5850969D01*
X2067595Y5863818D01*
X1977390Y5882085D01*
X1880940Y5882085D01*
X1880940Y5969555D01*
X1977390Y5969555D01*
X2061659Y5985411D01*
X2085998Y6001073D01*
X2118795Y5968276D01*
X2219869Y5926410D01*
X2520870Y5926410D01*
X2589620Y5995160D01*
X2589620Y6465660D01*
X2759620Y6465660D01*
X2759620Y5995160D01*
X2828370Y5926410D01*
X3129371Y5926410D01*
X3230445Y5968276D01*
X3307804Y6045635D01*
X3349670Y6146709D01*
X3349670Y6396910D01*
X3280920Y6465660D01*
X2759620Y6465660D01*
X2589620Y6465660D01*
X2569620Y6465660D01*
X2569620Y6635660D01*
X2589620Y6635660D01*
X2589620Y7106160D01*
X2759620Y7106160D01*
X2759620Y6635660D01*
X3280920Y6635660D01*
X3349670Y6704410D01*
X3349670Y6954611D01*
X3307804Y7055685D01*
X3230445Y7133044D01*
X3129371Y7174910D01*
X2828370Y7174910D01*
X2759620Y7106160D01*
X2589620Y7106160D01*
X2520870Y7174910D01*
X2219869Y7174910D01*
X2118795Y7133044D01*
X2086400Y7100649D01*
X2067595Y7113498D01*
X1977390Y7131765D01*
X1177290Y7131765D01*
X1093021Y7115909D01*
X1015624Y7066105D01*
X963702Y6990115D01*
X945435Y6899910D01*
X945435Y6398646D01*
X856364Y6614214D01*
X673676Y6797222D01*
X434860Y6896387D01*
X176274Y6896612D01*
X-62714Y6797864D01*
X-245722Y6615176D01*
X-330085Y6412006D01*
X-413636Y6614214D01*
X-596324Y6797222D01*
X-835140Y6896387D01*
X-1093726Y6896612D01*
X-1332714Y6797864D01*
X-1515722Y6615176D01*
X-1568128Y6488968D01*
X-1611741Y6594259D01*
X-1722816Y6638476D01*
X-2114792Y6246500D01*
X-1722816Y5854524D01*
X-1611741Y5898741D01*
X-1573500Y6017066D01*
X-1516364Y5878786D01*
X-1333676Y5695778D01*
X-1253500Y5662486D01*
X-1253500Y5288600D01*
X-2451900Y4090200D01*
X-2459780Y4078407D01*
X-2459780Y4384889D01*
X-2437524Y4407145D01*
X-2248919Y4406980D01*
X-2065799Y4482644D01*
X-1925573Y4622625D01*
X-1849590Y4805613D01*
X-1849417Y5003750D01*
X-1925081Y5186870D01*
X-2065062Y5327096D01*
X-2248050Y5403079D01*
X-2446187Y5403252D01*
X-2629307Y5327588D01*
X-2769533Y5187607D01*
X-2845516Y5004619D01*
X-2845682Y4814987D01*
X-2952280Y4708389D01*
X-3014819Y4614793D01*
X-3036780Y4504389D01*
X-3036780Y3724295D01*
X-3151697Y3772013D01*
X-3349834Y3772186D01*
X-3510847Y3705656D01*
X-3475750Y3790389D01*
X-3475750Y4091390D01*
X-3544500Y4160140D01*
X-4015000Y4160140D01*
X-4015000Y4140140D01*
X-4185000Y4140140D01*
X-4185000Y4160140D01*
X-4205000Y4160140D01*
X-4205000Y4330140D01*
X-4185000Y4330140D01*
X-4185000Y4851440D01*
X-4015000Y4851440D01*
X-4015000Y4330140D01*
X-3544500Y4330140D01*
X-3475750Y4398890D01*
X-3475750Y4699891D01*
X-3517616Y4800965D01*
X-3594975Y4878324D01*
X-3696049Y4920190D01*
X-3946250Y4920190D01*
X-4015000Y4851440D01*
X-4185000Y4851440D01*
X-4253750Y4920190D01*
X-4503951Y4920190D01*
X-4605025Y4878324D01*
X-4655345Y4828004D01*
X-4655345Y4910100D01*
X-4671201Y4994369D01*
X-4721005Y5071766D01*
X-4734800Y5081192D01*
X-4734800Y5832500D01*
X-4673340Y5832500D01*
X-4601852Y5760887D01*
X-4417982Y5684537D01*
X-4218891Y5684364D01*
X-4132182Y5720191D01*
X-4094441Y5661540D01*
X-4019253Y5610166D01*
X-3930000Y5592092D01*
X-3080000Y5592092D01*
X-2996620Y5607781D01*
X-2920040Y5657059D01*
X-2868666Y5732247D01*
X-2868248Y5734316D01*
X-2626976Y5734316D01*
X-2582759Y5623241D01*
X-2317776Y5537602D01*
X-2040192Y5559887D01*
X-1887241Y5623241D01*
X-1843024Y5734316D01*
X-2235000Y6126292D01*
X-2626976Y5734316D01*
X-2868248Y5734316D01*
X-2850592Y5821500D01*
X-2850592Y5895689D01*
X-2747184Y5854524D01*
X-2355208Y6246500D01*
X-2747184Y6638476D01*
X-2850592Y6597311D01*
X-2850592Y6671500D01*
X-2866281Y6754880D01*
X-2868728Y6758684D01*
X-2626976Y6758684D01*
X-2235000Y6366708D01*
X-1843024Y6758684D01*
X-1887241Y6869759D01*
X-2152224Y6955398D01*
X-2429808Y6933113D01*
X-2582759Y6869759D01*
X-2626976Y6758684D01*
X-2868728Y6758684D01*
X-2915559Y6831460D01*
X-2990747Y6882834D01*
X-3080000Y6900908D01*
X-3770891Y6900908D01*
X-3751800Y6946999D01*
X-3751800Y7097950D01*
X-3820550Y7166700D01*
X-4241800Y7166700D01*
X-4241800Y6795450D01*
X-4173050Y6726700D01*
X-4148230Y6726700D01*
X-4159408Y6671500D01*
X-4159408Y6660926D01*
X-4218018Y6685263D01*
X-4417109Y6685436D01*
X-4601112Y6609408D01*
X-4673346Y6537300D01*
X-4740290Y6537300D01*
X-4761625Y6644558D01*
X-4838016Y6758884D01*
X-4944636Y6865504D01*
X-4913212Y6911495D01*
X-4901800Y6967849D01*
X-4901800Y6946999D01*
X-4859934Y6845925D01*
X-4782575Y6768566D01*
X-4681501Y6726700D01*
X-4480550Y6726700D01*
X-4411800Y6795450D01*
X-4411800Y7166700D01*
X-4431800Y7166700D01*
X-4431800Y7336700D01*
X-4411800Y7336700D01*
X-4411800Y7707950D01*
X-4241800Y7707950D01*
X-4241800Y7336700D01*
X-3820550Y7336700D01*
X-3751800Y7405450D01*
X-3751800Y7556401D01*
X-3793666Y7657475D01*
X-3871025Y7734834D01*
X-3972099Y7776700D01*
X-4173050Y7776700D01*
X-4241800Y7707950D01*
X-4411800Y7707950D01*
X-4480550Y7776700D01*
X-4681501Y7776700D01*
X-4782575Y7734834D01*
X-4859934Y7657475D01*
X-4901800Y7556401D01*
X-4901800Y7538132D01*
X-4910801Y7585969D01*
X-4960605Y7663366D01*
X-5036595Y7715288D01*
X-5126800Y7733555D01*
X-5726800Y7733555D01*
X-5811069Y7717699D01*
X-5888466Y7667895D01*
X-5940388Y7591905D01*
X-5947801Y7555300D01*
X-6050951Y7555300D01*
X-6084595Y7578288D01*
X-6174800Y7596555D01*
X-6865392Y7596555D01*
X-6865392Y7679700D01*
X-6881081Y7763080D01*
X-6930359Y7839660D01*
X-6941057Y7846970D01*
X3375470Y7846970D01*
X3375470Y7096500D01*
X3375470Y7096500D01*
G37*
X3375470Y7096500D02*
X3396367Y6991442D01*
X3455878Y6902378D01*
X3544942Y6842867D01*
X3650000Y6821970D01*
X4350000Y6821970D01*
X4455058Y6842867D01*
X4544122Y6902378D01*
X4603633Y6991442D01*
X4624530Y7096500D01*
X4624530Y7846970D01*
X9225070Y7846970D01*
X9225070Y1888424D01*
X9194285Y1962929D01*
X8878093Y2279672D01*
X8464758Y2451304D01*
X8017205Y2451695D01*
X7774612Y2351458D01*
X7774644Y2387913D01*
X7656919Y2672828D01*
X7516376Y2813617D01*
X7603638Y2849762D01*
X7706145Y3010147D01*
X6970000Y3746292D01*
X6233855Y3010147D01*
X6336362Y2849762D01*
X6468988Y2799696D01*
X6343047Y2673974D01*
X6224825Y2389265D01*
X6224770Y2326728D01*
X5924758Y2451304D01*
X5477205Y2451695D01*
X5063571Y2280785D01*
X4746828Y1964593D01*
X4651036Y1733900D01*
X3302000Y1733900D01*
X3158493Y1705355D01*
X3036835Y1624065D01*
X2964948Y1552178D01*
X2898566Y1552236D01*
X2715446Y1476572D01*
X2575220Y1336591D01*
X2556621Y1291800D01*
X2423440Y1291800D01*
X2423440Y1408269D01*
X2436134Y1426847D01*
X2454208Y1516100D01*
X2454208Y2116100D01*
X2444869Y2165733D01*
X2530846Y2201258D01*
X2671072Y2341239D01*
X2747055Y2524227D01*
X2747228Y2722364D01*
X2671564Y2905484D01*
X2531583Y3045710D01*
X2348595Y3121693D01*
X2150458Y3121866D01*
X1967338Y3046202D01*
X1844652Y2923730D01*
X1214030Y2923730D01*
X1099225Y2900894D01*
X1001898Y2835862D01*
X923982Y2757946D01*
X892370Y2834454D01*
X752389Y2974680D01*
X569401Y3050663D01*
X371264Y3050836D01*
X245233Y2998761D01*
X245233Y4637130D01*
X408497Y4569337D01*
X606634Y4569164D01*
X789754Y4644828D01*
X929980Y4784809D01*
X963120Y4864619D01*
X1011095Y4790064D01*
X1087085Y4738142D01*
X1177290Y4719875D01*
X1273740Y4719875D01*
X1273740Y4341938D01*
X1208259Y4341995D01*
X1024256Y4265967D01*
X883355Y4125311D01*
X807005Y3941441D01*
X806832Y3742350D01*
X882860Y3558347D01*
X1023516Y3417446D01*
X1207386Y3341096D01*
X1406477Y3340923D01*
X1590480Y3416951D01*
X1731381Y3557607D01*
X1807731Y3741477D01*
X1807887Y3920502D01*
X1857830Y3995248D01*
X1880940Y4111431D01*
X1880940Y4719875D01*
X1977390Y4719875D01*
X2061659Y4735731D01*
X2085998Y4751393D01*
X2118795Y4718596D01*
X2219869Y4676730D01*
X2520870Y4676730D01*
X2589620Y4745480D01*
X2589620Y5215980D01*
X2759620Y5215980D01*
X2759620Y4745480D01*
X2828370Y4676730D01*
X3129371Y4676730D01*
X3230445Y4718596D01*
X3307804Y4795955D01*
X3349670Y4897029D01*
X3349670Y5147230D01*
X3280920Y5215980D01*
X2759620Y5215980D01*
X2589620Y5215980D01*
X2569620Y5215980D01*
X2569620Y5385980D01*
X2589620Y5385980D01*
X2589620Y5856480D01*
X2759620Y5856480D01*
X2759620Y5385980D01*
X3280920Y5385980D01*
X3349670Y5454730D01*
X3349670Y5683770D01*
X4985846Y5683770D01*
X5060107Y5310436D01*
X5271584Y4993938D01*
X5588082Y4782461D01*
X5961416Y4708200D01*
X6119523Y4708200D01*
X6063806Y4652483D01*
X6113645Y4602644D01*
X5953262Y4500138D01*
X5788174Y4062816D01*
X5803008Y3595607D01*
X5953262Y3232862D01*
X6113647Y3130355D01*
X6849792Y3866500D01*
X6835650Y3880642D01*
X6955858Y4000850D01*
X6970000Y3986708D01*
X6984143Y4000850D01*
X7104351Y3880642D01*
X7090208Y3866500D01*
X7826353Y3130355D01*
X7986738Y3232862D01*
X8151826Y3670184D01*
X8136992Y4137393D01*
X7986738Y4500138D01*
X7826355Y4602644D01*
X7876194Y4652483D01*
X7820477Y4708200D01*
X8037784Y4708200D01*
X8411118Y4782461D01*
X8727616Y4993938D01*
X8939093Y5310436D01*
X9013354Y5683770D01*
X8939093Y6057104D01*
X8727616Y6373602D01*
X8411118Y6585079D01*
X8037784Y6659340D01*
X5961416Y6659340D01*
X5588082Y6585079D01*
X5271584Y6373602D01*
X5060107Y6057104D01*
X4985846Y5683770D01*
X3349670Y5683770D01*
X3349670Y5704931D01*
X3307804Y5806005D01*
X3230445Y5883364D01*
X3129371Y5925230D01*
X2828370Y5925230D01*
X2759620Y5856480D01*
X2589620Y5856480D01*
X2520870Y5925230D01*
X2219869Y5925230D01*
X2118795Y5883364D01*
X2086400Y5850969D01*
X2067595Y5863818D01*
X1977390Y5882085D01*
X1880940Y5882085D01*
X1880940Y5969555D01*
X1977390Y5969555D01*
X2061659Y5985411D01*
X2085998Y6001073D01*
X2118795Y5968276D01*
X2219869Y5926410D01*
X2520870Y5926410D01*
X2589620Y5995160D01*
X2589620Y6465660D01*
X2759620Y6465660D01*
X2759620Y5995160D01*
X2828370Y5926410D01*
X3129371Y5926410D01*
X3230445Y5968276D01*
X3307804Y6045635D01*
X3349670Y6146709D01*
X3349670Y6396910D01*
X3280920Y6465660D01*
X2759620Y6465660D01*
X2589620Y6465660D01*
X2569620Y6465660D01*
X2569620Y6635660D01*
X2589620Y6635660D01*
X2589620Y7106160D01*
X2759620Y7106160D01*
X2759620Y6635660D01*
X3280920Y6635660D01*
X3349670Y6704410D01*
X3349670Y6954611D01*
X3307804Y7055685D01*
X3230445Y7133044D01*
X3129371Y7174910D01*
X2828370Y7174910D01*
X2759620Y7106160D01*
X2589620Y7106160D01*
X2520870Y7174910D01*
X2219869Y7174910D01*
X2118795Y7133044D01*
X2086400Y7100649D01*
X2067595Y7113498D01*
X1977390Y7131765D01*
X1177290Y7131765D01*
X1093021Y7115909D01*
X1015624Y7066105D01*
X963702Y6990115D01*
X945435Y6899910D01*
X945435Y6398646D01*
X856364Y6614214D01*
X673676Y6797222D01*
X434860Y6896387D01*
X176274Y6896612D01*
X-62714Y6797864D01*
X-245722Y6615176D01*
X-330085Y6412006D01*
X-413636Y6614214D01*
X-596324Y6797222D01*
X-835140Y6896387D01*
X-1093726Y6896612D01*
X-1332714Y6797864D01*
X-1515722Y6615176D01*
X-1568128Y6488968D01*
X-1611741Y6594259D01*
X-1722816Y6638476D01*
X-2114792Y6246500D01*
X-1722816Y5854524D01*
X-1611741Y5898741D01*
X-1573500Y6017066D01*
X-1516364Y5878786D01*
X-1333676Y5695778D01*
X-1253500Y5662486D01*
X-1253500Y5288600D01*
X-2451900Y4090200D01*
X-2459780Y4078407D01*
X-2459780Y4384889D01*
X-2437524Y4407145D01*
X-2248919Y4406980D01*
X-2065799Y4482644D01*
X-1925573Y4622625D01*
X-1849590Y4805613D01*
X-1849417Y5003750D01*
X-1925081Y5186870D01*
X-2065062Y5327096D01*
X-2248050Y5403079D01*
X-2446187Y5403252D01*
X-2629307Y5327588D01*
X-2769533Y5187607D01*
X-2845516Y5004619D01*
X-2845682Y4814987D01*
X-2952280Y4708389D01*
X-3014819Y4614793D01*
X-3036780Y4504389D01*
X-3036780Y3724295D01*
X-3151697Y3772013D01*
X-3349834Y3772186D01*
X-3510847Y3705656D01*
X-3475750Y3790389D01*
X-3475750Y4091390D01*
X-3544500Y4160140D01*
X-4015000Y4160140D01*
X-4015000Y4140140D01*
X-4185000Y4140140D01*
X-4185000Y4160140D01*
X-4205000Y4160140D01*
X-4205000Y4330140D01*
X-4185000Y4330140D01*
X-4185000Y4851440D01*
X-4015000Y4851440D01*
X-4015000Y4330140D01*
X-3544500Y4330140D01*
X-3475750Y4398890D01*
X-3475750Y4699891D01*
X-3517616Y4800965D01*
X-3594975Y4878324D01*
X-3696049Y4920190D01*
X-3946250Y4920190D01*
X-4015000Y4851440D01*
X-4185000Y4851440D01*
X-4253750Y4920190D01*
X-4503951Y4920190D01*
X-4605025Y4878324D01*
X-4655345Y4828004D01*
X-4655345Y4910100D01*
X-4671201Y4994369D01*
X-4721005Y5071766D01*
X-4734800Y5081192D01*
X-4734800Y5832500D01*
X-4673340Y5832500D01*
X-4601852Y5760887D01*
X-4417982Y5684537D01*
X-4218891Y5684364D01*
X-4132182Y5720191D01*
X-4094441Y5661540D01*
X-4019253Y5610166D01*
X-3930000Y5592092D01*
X-3080000Y5592092D01*
X-2996620Y5607781D01*
X-2920040Y5657059D01*
X-2868666Y5732247D01*
X-2868248Y5734316D01*
X-2626976Y5734316D01*
X-2582759Y5623241D01*
X-2317776Y5537602D01*
X-2040192Y5559887D01*
X-1887241Y5623241D01*
X-1843024Y5734316D01*
X-2235000Y6126292D01*
X-2626976Y5734316D01*
X-2868248Y5734316D01*
X-2850592Y5821500D01*
X-2850592Y5895689D01*
X-2747184Y5854524D01*
X-2355208Y6246500D01*
X-2747184Y6638476D01*
X-2850592Y6597311D01*
X-2850592Y6671500D01*
X-2866281Y6754880D01*
X-2868728Y6758684D01*
X-2626976Y6758684D01*
X-2235000Y6366708D01*
X-1843024Y6758684D01*
X-1887241Y6869759D01*
X-2152224Y6955398D01*
X-2429808Y6933113D01*
X-2582759Y6869759D01*
X-2626976Y6758684D01*
X-2868728Y6758684D01*
X-2915559Y6831460D01*
X-2990747Y6882834D01*
X-3080000Y6900908D01*
X-3770891Y6900908D01*
X-3751800Y6946999D01*
X-3751800Y7097950D01*
X-3820550Y7166700D01*
X-4241800Y7166700D01*
X-4241800Y6795450D01*
X-4173050Y6726700D01*
X-4148230Y6726700D01*
X-4159408Y6671500D01*
X-4159408Y6660926D01*
X-4218018Y6685263D01*
X-4417109Y6685436D01*
X-4601112Y6609408D01*
X-4673346Y6537300D01*
X-4740290Y6537300D01*
X-4761625Y6644558D01*
X-4838016Y6758884D01*
X-4944636Y6865504D01*
X-4913212Y6911495D01*
X-4901800Y6967849D01*
X-4901800Y6946999D01*
X-4859934Y6845925D01*
X-4782575Y6768566D01*
X-4681501Y6726700D01*
X-4480550Y6726700D01*
X-4411800Y6795450D01*
X-4411800Y7166700D01*
X-4431800Y7166700D01*
X-4431800Y7336700D01*
X-4411800Y7336700D01*
X-4411800Y7707950D01*
X-4241800Y7707950D01*
X-4241800Y7336700D01*
X-3820550Y7336700D01*
X-3751800Y7405450D01*
X-3751800Y7556401D01*
X-3793666Y7657475D01*
X-3871025Y7734834D01*
X-3972099Y7776700D01*
X-4173050Y7776700D01*
X-4241800Y7707950D01*
X-4411800Y7707950D01*
X-4480550Y7776700D01*
X-4681501Y7776700D01*
X-4782575Y7734834D01*
X-4859934Y7657475D01*
X-4901800Y7556401D01*
X-4901800Y7538132D01*
X-4910801Y7585969D01*
X-4960605Y7663366D01*
X-5036595Y7715288D01*
X-5126800Y7733555D01*
X-5726800Y7733555D01*
X-5811069Y7717699D01*
X-5888466Y7667895D01*
X-5940388Y7591905D01*
X-5947801Y7555300D01*
X-6050951Y7555300D01*
X-6084595Y7578288D01*
X-6174800Y7596555D01*
X-6865392Y7596555D01*
X-6865392Y7679700D01*
X-6881081Y7763080D01*
X-6930359Y7839660D01*
X-6941057Y7846970D01*
X3375470Y7846970D01*
X3375470Y7096500D01*
M02*
