G04 #@! TF.GenerationSoftware,KiCad,Pcbnew,(5.0.1)-4*
G04 #@! TF.CreationDate,2018-12-21T18:48:29+01:00*
G04 #@! TF.ProjectId,cryptostick,63727970746F737469636B2E6B696361,R1*
G04 #@! TF.SameCoordinates,PX791ddc0PY5e69114*
G04 #@! TF.FileFunction,Soldermask,Top*
G04 #@! TF.FilePolarity,Negative*
%FSLAX46Y46*%
G04 Gerber Fmt 4.6, Leading zero omitted, Abs format (unit mm)*
G04 Created by KiCad (PCBNEW (5.0.1)-4) date 21.12.2018 18:48:29*
%MOMM*%
%LPD*%
G01*
G04 APERTURE LIST*
%ADD10C,0.150000*%
G04 APERTURE END LIST*
D10*
G36*
X8705845Y-6872715D02*
X8796839Y-6910406D01*
X8878731Y-6965125D01*
X8948375Y-7034769D01*
X9003094Y-7116661D01*
X9040785Y-7207655D01*
X9060000Y-7304254D01*
X9060000Y-7402746D01*
X9040785Y-7499345D01*
X9003094Y-7590339D01*
X8948375Y-7672231D01*
X8878731Y-7741875D01*
X8796839Y-7796594D01*
X8705845Y-7834285D01*
X8609246Y-7853500D01*
X8510754Y-7853500D01*
X8414155Y-7834285D01*
X8323161Y-7796594D01*
X8241269Y-7741875D01*
X8171625Y-7672231D01*
X8116906Y-7590339D01*
X8079215Y-7499345D01*
X8060000Y-7402746D01*
X8060000Y-7304254D01*
X8079215Y-7207655D01*
X8116906Y-7116661D01*
X8171625Y-7034769D01*
X8241269Y-6965125D01*
X8323161Y-6910406D01*
X8414155Y-6872715D01*
X8510754Y-6853500D01*
X8609246Y-6853500D01*
X8705845Y-6872715D01*
X8705845Y-6872715D01*
G37*
G36*
X-3014510Y-7358850D02*
X-3914610Y-7358850D01*
X-3914610Y-6560350D01*
X-3014510Y-6560350D01*
X-3014510Y-7358850D01*
X-3014510Y-7358850D01*
G37*
G36*
X-4111790Y-7358850D02*
X-5011890Y-7358850D01*
X-5011890Y-6560350D01*
X-4111790Y-6560350D01*
X-4111790Y-7358850D01*
X-4111790Y-7358850D01*
G37*
G36*
X-1447330Y-7348690D02*
X-2347430Y-7348690D01*
X-2347430Y-6550190D01*
X-1447330Y-6550190D01*
X-1447330Y-7348690D01*
X-1447330Y-7348690D01*
G37*
G36*
X-350050Y-7348690D02*
X-1250150Y-7348690D01*
X-1250150Y-6550190D01*
X-350050Y-6550190D01*
X-350050Y-7348690D01*
X-350050Y-7348690D01*
G37*
G36*
X-9298590Y-7302750D02*
X-10198690Y-7302750D01*
X-10198690Y-6504250D01*
X-9298590Y-6504250D01*
X-9298590Y-7302750D01*
X-9298590Y-7302750D01*
G37*
G36*
X-8201310Y-7302750D02*
X-9101410Y-7302750D01*
X-9101410Y-6504250D01*
X-8201310Y-6504250D01*
X-8201310Y-7302750D01*
X-8201310Y-7302750D01*
G37*
G36*
X3099270Y-6914350D02*
X2199170Y-6914350D01*
X2199170Y-6115850D01*
X3099270Y-6115850D01*
X3099270Y-6914350D01*
X3099270Y-6914350D01*
G37*
G36*
X2001990Y-6914350D02*
X1101890Y-6914350D01*
X1101890Y-6115850D01*
X2001990Y-6115850D01*
X2001990Y-6914350D01*
X2001990Y-6914350D01*
G37*
G36*
X8156029Y-4926764D02*
X8306937Y-4972542D01*
X8446015Y-5046880D01*
X8567917Y-5146923D01*
X8667960Y-5268825D01*
X8742298Y-5407903D01*
X8788076Y-5558811D01*
X8803533Y-5715750D01*
X8788076Y-5872689D01*
X8742298Y-6023597D01*
X8667960Y-6162675D01*
X8567917Y-6284577D01*
X8446015Y-6384620D01*
X8306937Y-6458958D01*
X8156029Y-6504736D01*
X8038414Y-6516320D01*
X5960786Y-6516320D01*
X5843171Y-6504736D01*
X5692263Y-6458958D01*
X5553185Y-6384620D01*
X5431283Y-6284577D01*
X5331240Y-6162675D01*
X5256902Y-6023597D01*
X5211124Y-5872689D01*
X5195667Y-5715750D01*
X5211124Y-5558811D01*
X5256902Y-5407903D01*
X5331240Y-5268825D01*
X5431283Y-5146923D01*
X5553185Y-5046880D01*
X5692263Y-4972542D01*
X5843171Y-4926764D01*
X5960786Y-4915180D01*
X8038414Y-4915180D01*
X8156029Y-4926764D01*
X8156029Y-4926764D01*
G37*
G36*
X-9298590Y-6002750D02*
X-10198690Y-6002750D01*
X-10198690Y-5204250D01*
X-9298590Y-5204250D01*
X-9298590Y-6002750D01*
X-9298590Y-6002750D01*
G37*
G36*
X-8201310Y-6002750D02*
X-9101410Y-6002750D01*
X-9101410Y-5204250D01*
X-8201310Y-5204250D01*
X-8201310Y-6002750D01*
X-8201310Y-6002750D01*
G37*
G36*
X-350050Y-5949150D02*
X-1250150Y-5949150D01*
X-1250150Y-5150650D01*
X-350050Y-5150650D01*
X-350050Y-5949150D01*
X-350050Y-5949150D01*
G37*
G36*
X-1447330Y-5949150D02*
X-2347430Y-5949150D01*
X-2347430Y-5150650D01*
X-1447330Y-5150650D01*
X-1447330Y-5949150D01*
X-1447330Y-5949150D01*
G37*
G36*
X3809200Y-5691340D02*
X2510320Y-5691340D01*
X2510320Y-4971580D01*
X3809200Y-4971580D01*
X3809200Y-5691340D01*
X3809200Y-5691340D01*
G37*
G36*
X1172680Y-5691340D02*
X-126200Y-5691340D01*
X-126200Y-4971580D01*
X1172680Y-4971580D01*
X1172680Y-5691340D01*
X1172680Y-5691340D01*
G37*
G36*
X3809200Y-4741380D02*
X2510320Y-4741380D01*
X2510320Y-4021620D01*
X3809200Y-4021620D01*
X3809200Y-4741380D01*
X3809200Y-4741380D01*
G37*
G36*
X7174587Y-1689574D02*
X7283764Y-1734796D01*
X7382021Y-1800449D01*
X7465581Y-1884009D01*
X7531234Y-1982266D01*
X7576456Y-2091443D01*
X7599510Y-2207344D01*
X7599510Y-2325516D01*
X7576456Y-2441417D01*
X7531234Y-2550594D01*
X7465581Y-2648851D01*
X7382021Y-2732411D01*
X7283764Y-2798064D01*
X7270559Y-2803533D01*
X7266242Y-2805842D01*
X7262454Y-2808951D01*
X7259345Y-2812739D01*
X7257035Y-2817061D01*
X7255612Y-2821751D01*
X7255132Y-2826629D01*
X7255612Y-2831506D01*
X7257035Y-2836196D01*
X7259346Y-2840518D01*
X7262455Y-2844306D01*
X7266243Y-2847415D01*
X7270565Y-2849725D01*
X7419994Y-2911621D01*
X7575589Y-3015586D01*
X7707914Y-3147911D01*
X7811880Y-3303506D01*
X7883492Y-3476394D01*
X7920000Y-3659935D01*
X7920000Y-3847065D01*
X7883492Y-4030606D01*
X7811880Y-4203494D01*
X7707914Y-4359089D01*
X7575589Y-4491414D01*
X7419994Y-4595380D01*
X7247106Y-4666992D01*
X7185926Y-4679161D01*
X7063567Y-4703500D01*
X6876433Y-4703500D01*
X6754074Y-4679161D01*
X6692894Y-4666992D01*
X6520006Y-4595380D01*
X6364411Y-4491414D01*
X6232086Y-4359089D01*
X6128120Y-4203494D01*
X6056508Y-4030606D01*
X6020000Y-3847065D01*
X6020000Y-3659935D01*
X6056508Y-3476394D01*
X6128120Y-3303506D01*
X6232086Y-3147911D01*
X6364411Y-3015586D01*
X6520006Y-2911620D01*
X6692898Y-2840006D01*
X6699443Y-2838704D01*
X6704133Y-2837282D01*
X6708455Y-2834971D01*
X6712243Y-2831862D01*
X6715352Y-2828073D01*
X6717662Y-2823751D01*
X6719085Y-2819061D01*
X6719565Y-2814184D01*
X6719084Y-2809307D01*
X6717662Y-2804617D01*
X6715351Y-2800295D01*
X6712242Y-2796507D01*
X6708459Y-2793402D01*
X6617179Y-2732411D01*
X6533619Y-2648851D01*
X6467966Y-2550594D01*
X6422744Y-2441417D01*
X6399690Y-2325516D01*
X6399690Y-2207344D01*
X6422744Y-2091443D01*
X6467966Y-1982266D01*
X6533619Y-1884009D01*
X6617179Y-1800449D01*
X6715436Y-1734796D01*
X6824613Y-1689574D01*
X6940514Y-1666520D01*
X7058686Y-1666520D01*
X7174587Y-1689574D01*
X7174587Y-1689574D01*
G37*
G36*
X-6051080Y-4549610D02*
X-6450800Y-4549610D01*
X-6450800Y-3700310D01*
X-6051080Y-3700310D01*
X-6051080Y-4549610D01*
X-6051080Y-4549610D01*
G37*
G36*
X-5550700Y-4549610D02*
X-5950420Y-4549610D01*
X-5950420Y-3700310D01*
X-5550700Y-3700310D01*
X-5550700Y-4549610D01*
X-5550700Y-4549610D01*
G37*
G36*
X-5050320Y-4549610D02*
X-5450040Y-4549610D01*
X-5450040Y-3700310D01*
X-5050320Y-3700310D01*
X-5050320Y-4549610D01*
X-5050320Y-4549610D01*
G37*
G36*
X-4549940Y-4549610D02*
X-4949660Y-4549610D01*
X-4949660Y-3700310D01*
X-4549940Y-3700310D01*
X-4549940Y-4549610D01*
X-4549940Y-4549610D01*
G37*
G36*
X-4049560Y-4549610D02*
X-4449280Y-4549610D01*
X-4449280Y-3700310D01*
X-4049560Y-3700310D01*
X-4049560Y-4549610D01*
X-4049560Y-4549610D01*
G37*
G36*
X-3549180Y-4549610D02*
X-3948900Y-4549610D01*
X-3948900Y-3700310D01*
X-3549180Y-3700310D01*
X-3549180Y-4549610D01*
X-3549180Y-4549610D01*
G37*
G36*
X-3048800Y-4549610D02*
X-3448520Y-4549610D01*
X-3448520Y-3700310D01*
X-3048800Y-3700310D01*
X-3048800Y-4549610D01*
X-3048800Y-4549610D01*
G37*
G36*
X-2548420Y-4549610D02*
X-2948140Y-4549610D01*
X-2948140Y-3700310D01*
X-2548420Y-3700310D01*
X-2548420Y-4549610D01*
X-2548420Y-4549610D01*
G37*
G36*
X-2048040Y-4549610D02*
X-2447760Y-4549610D01*
X-2447760Y-3700310D01*
X-2048040Y-3700310D01*
X-2048040Y-4549610D01*
X-2048040Y-4549610D01*
G37*
G36*
X1172680Y-3791420D02*
X-126200Y-3791420D01*
X-126200Y-3071660D01*
X1172680Y-3071660D01*
X1172680Y-3791420D01*
X1172680Y-3791420D01*
G37*
G36*
X3809200Y-3791420D02*
X2510320Y-3791420D01*
X2510320Y-3071660D01*
X3809200Y-3071660D01*
X3809200Y-3791420D01*
X3809200Y-3791420D01*
G37*
G36*
X-6600990Y-3550120D02*
X-7450290Y-3550120D01*
X-7450290Y-3150400D01*
X-6600990Y-3150400D01*
X-6600990Y-3550120D01*
X-6600990Y-3550120D01*
G37*
G36*
X-1048550Y-3550120D02*
X-1897850Y-3550120D01*
X-1897850Y-3150400D01*
X-1048550Y-3150400D01*
X-1048550Y-3550120D01*
X-1048550Y-3550120D01*
G37*
G36*
X-2149640Y-3448520D02*
X-6349200Y-3448520D01*
X-6349200Y751040D01*
X-2149640Y751040D01*
X-2149640Y-3448520D01*
X-2149640Y-3448520D01*
G37*
G36*
X-6600990Y-3049740D02*
X-7450290Y-3049740D01*
X-7450290Y-2650020D01*
X-6600990Y-2650020D01*
X-6600990Y-3049740D01*
X-6600990Y-3049740D01*
G37*
G36*
X-1048550Y-3049740D02*
X-1897850Y-3049740D01*
X-1897850Y-2650020D01*
X-1048550Y-2650020D01*
X-1048550Y-3049740D01*
X-1048550Y-3049740D01*
G37*
G36*
X-8051330Y-2898610D02*
X-8951430Y-2898610D01*
X-8951430Y-2100110D01*
X-8051330Y-2100110D01*
X-8051330Y-2898610D01*
X-8051330Y-2898610D01*
G37*
G36*
X-9148610Y-2898610D02*
X-10048710Y-2898610D01*
X-10048710Y-2100110D01*
X-9148610Y-2100110D01*
X-9148610Y-2898610D01*
X-9148610Y-2898610D01*
G37*
G36*
X1476210Y-2697950D02*
X576110Y-2697950D01*
X576110Y-1899450D01*
X1476210Y-1899450D01*
X1476210Y-2697950D01*
X1476210Y-2697950D01*
G37*
G36*
X2573490Y-2697950D02*
X1673390Y-2697950D01*
X1673390Y-1899450D01*
X2573490Y-1899450D01*
X2573490Y-2697950D01*
X2573490Y-2697950D01*
G37*
G36*
X-1048550Y-2549360D02*
X-1897850Y-2549360D01*
X-1897850Y-2149640D01*
X-1048550Y-2149640D01*
X-1048550Y-2549360D01*
X-1048550Y-2549360D01*
G37*
G36*
X-6600990Y-2549360D02*
X-7450290Y-2549360D01*
X-7450290Y-2149640D01*
X-6600990Y-2149640D01*
X-6600990Y-2549360D01*
X-6600990Y-2549360D01*
G37*
G36*
X3603600Y-2206900D02*
X3203600Y-2206900D01*
X3203600Y-1656900D01*
X3603600Y-1656900D01*
X3603600Y-2206900D01*
X3603600Y-2206900D01*
G37*
G36*
X4103600Y-2206900D02*
X3703600Y-2206900D01*
X3703600Y-1656900D01*
X4103600Y-1656900D01*
X4103600Y-2206900D01*
X4103600Y-2206900D01*
G37*
G36*
X3103600Y-2206900D02*
X2703600Y-2206900D01*
X2703600Y-1656900D01*
X3103600Y-1656900D01*
X3103600Y-2206900D01*
X3103600Y-2206900D01*
G37*
G36*
X8455926Y-287839D02*
X8517106Y-300008D01*
X8689994Y-371620D01*
X8845589Y-475586D01*
X8977914Y-607911D01*
X9081880Y-763506D01*
X9153492Y-936394D01*
X9190000Y-1119935D01*
X9190000Y-1307065D01*
X9153492Y-1490606D01*
X9081880Y-1663494D01*
X8977914Y-1819089D01*
X8845589Y-1951414D01*
X8689994Y-2055380D01*
X8517106Y-2126992D01*
X8455926Y-2139161D01*
X8333567Y-2163500D01*
X8146433Y-2163500D01*
X8024074Y-2139161D01*
X7962894Y-2126992D01*
X7790006Y-2055380D01*
X7634411Y-1951414D01*
X7502086Y-1819089D01*
X7398120Y-1663494D01*
X7326508Y-1490606D01*
X7290000Y-1307065D01*
X7290000Y-1119935D01*
X7326508Y-936394D01*
X7398120Y-763506D01*
X7502086Y-607911D01*
X7634411Y-475586D01*
X7790006Y-371620D01*
X7962894Y-300008D01*
X8024074Y-287839D01*
X8146433Y-263500D01*
X8333567Y-263500D01*
X8455926Y-287839D01*
X8455926Y-287839D01*
G37*
G36*
X5915926Y-287839D02*
X5977106Y-300008D01*
X6149994Y-371620D01*
X6305589Y-475586D01*
X6437914Y-607911D01*
X6541880Y-763506D01*
X6613492Y-936394D01*
X6650000Y-1119935D01*
X6650000Y-1307065D01*
X6613492Y-1490606D01*
X6541880Y-1663494D01*
X6437914Y-1819089D01*
X6305589Y-1951414D01*
X6149994Y-2055380D01*
X5977106Y-2126992D01*
X5915926Y-2139161D01*
X5793567Y-2163500D01*
X5606433Y-2163500D01*
X5484074Y-2139161D01*
X5422894Y-2126992D01*
X5250006Y-2055380D01*
X5094411Y-1951414D01*
X4962086Y-1819089D01*
X4858120Y-1663494D01*
X4786508Y-1490606D01*
X4750000Y-1307065D01*
X4750000Y-1119935D01*
X4786508Y-936394D01*
X4858120Y-763506D01*
X4962086Y-607911D01*
X5094411Y-475586D01*
X5250006Y-371620D01*
X5422894Y-300008D01*
X5484074Y-287839D01*
X5606433Y-263500D01*
X5793567Y-263500D01*
X5915926Y-287839D01*
X5915926Y-287839D01*
G37*
G36*
X-1048550Y-2048980D02*
X-1897850Y-2048980D01*
X-1897850Y-1649260D01*
X-1048550Y-1649260D01*
X-1048550Y-2048980D01*
X-1048550Y-2048980D01*
G37*
G36*
X-6600990Y-2048980D02*
X-7450290Y-2048980D01*
X-7450290Y-1649260D01*
X-6600990Y-1649260D01*
X-6600990Y-2048980D01*
X-6600990Y-2048980D01*
G37*
G36*
X-1048550Y-1548600D02*
X-1897850Y-1548600D01*
X-1897850Y-1148880D01*
X-1048550Y-1148880D01*
X-1048550Y-1548600D01*
X-1048550Y-1548600D01*
G37*
G36*
X-6600990Y-1548600D02*
X-7450290Y-1548600D01*
X-7450290Y-1148880D01*
X-6600990Y-1148880D01*
X-6600990Y-1548600D01*
X-6600990Y-1548600D01*
G37*
G36*
X-8051330Y-1250150D02*
X-8951430Y-1250150D01*
X-8951430Y-451650D01*
X-8051330Y-451650D01*
X-8051330Y-1250150D01*
X-8051330Y-1250150D01*
G37*
G36*
X-9148610Y-1250150D02*
X-10048710Y-1250150D01*
X-10048710Y-451650D01*
X-9148610Y-451650D01*
X-9148610Y-1250150D01*
X-9148610Y-1250150D01*
G37*
G36*
X-6600990Y-1048220D02*
X-7450290Y-1048220D01*
X-7450290Y-648500D01*
X-6600990Y-648500D01*
X-6600990Y-1048220D01*
X-6600990Y-1048220D01*
G37*
G36*
X-1048550Y-1048220D02*
X-1897850Y-1048220D01*
X-1897850Y-648500D01*
X-1048550Y-648500D01*
X-1048550Y-1048220D01*
X-1048550Y-1048220D01*
G37*
G36*
X4103600Y-806900D02*
X3703600Y-806900D01*
X3703600Y-256900D01*
X4103600Y-256900D01*
X4103600Y-806900D01*
X4103600Y-806900D01*
G37*
G36*
X3103600Y-806900D02*
X2703600Y-806900D01*
X2703600Y-256900D01*
X3103600Y-256900D01*
X3103600Y-806900D01*
X3103600Y-806900D01*
G37*
G36*
X2573490Y-716750D02*
X1673390Y-716750D01*
X1673390Y81750D01*
X2573490Y81750D01*
X2573490Y-716750D01*
X2573490Y-716750D01*
G37*
G36*
X1476210Y-716750D02*
X576110Y-716750D01*
X576110Y81750D01*
X1476210Y81750D01*
X1476210Y-716750D01*
X1476210Y-716750D01*
G37*
G36*
X-1048550Y-547840D02*
X-1897850Y-547840D01*
X-1897850Y-148120D01*
X-1048550Y-148120D01*
X-1048550Y-547840D01*
X-1048550Y-547840D01*
G37*
G36*
X-6600990Y-547840D02*
X-7450290Y-547840D01*
X-7450290Y-148120D01*
X-6600990Y-148120D01*
X-6600990Y-547840D01*
X-6600990Y-547840D01*
G37*
G36*
X-1048550Y-47460D02*
X-1897850Y-47460D01*
X-1897850Y352260D01*
X-1048550Y352260D01*
X-1048550Y-47460D01*
X-1048550Y-47460D01*
G37*
G36*
X-6600990Y-47460D02*
X-7450290Y-47460D01*
X-7450290Y352260D01*
X-6600990Y352260D01*
X-6600990Y-47460D01*
X-6600990Y-47460D01*
G37*
G36*
X7174587Y2811306D02*
X7283764Y2766084D01*
X7382021Y2700431D01*
X7465581Y2616871D01*
X7531234Y2518614D01*
X7576456Y2409437D01*
X7599510Y2293536D01*
X7599510Y2175364D01*
X7579373Y2074129D01*
X7578893Y2069252D01*
X7579373Y2064375D01*
X7580796Y2059685D01*
X7583106Y2055363D01*
X7586215Y2051574D01*
X7590004Y2048465D01*
X7594326Y2046155D01*
X7599016Y2044732D01*
X7603893Y2044252D01*
X7608770Y2044732D01*
X7613460Y2046155D01*
X7617782Y2048465D01*
X7621571Y2051574D01*
X7634411Y2064414D01*
X7790006Y2168380D01*
X7962894Y2239992D01*
X8024074Y2252161D01*
X8146433Y2276500D01*
X8333567Y2276500D01*
X8455926Y2252161D01*
X8517106Y2239992D01*
X8689994Y2168380D01*
X8845589Y2064414D01*
X8977914Y1932089D01*
X9081880Y1776494D01*
X9153492Y1603606D01*
X9190000Y1420065D01*
X9190000Y1232935D01*
X9153492Y1049394D01*
X9081880Y876506D01*
X8977914Y720911D01*
X8845589Y588586D01*
X8689994Y484620D01*
X8517106Y413008D01*
X8455983Y400850D01*
X8333567Y376500D01*
X8146433Y376500D01*
X8024017Y400850D01*
X7962894Y413008D01*
X7790006Y484620D01*
X7634411Y588586D01*
X7502086Y720911D01*
X7398120Y876506D01*
X7326508Y1049394D01*
X7290000Y1232935D01*
X7290000Y1420065D01*
X7326508Y1603606D01*
X7368147Y1704132D01*
X7369570Y1708822D01*
X7370050Y1713699D01*
X7369570Y1718576D01*
X7368147Y1723266D01*
X7365837Y1727588D01*
X7362728Y1731377D01*
X7358939Y1734486D01*
X7354617Y1736796D01*
X7349927Y1738219D01*
X7345050Y1738699D01*
X7340173Y1738219D01*
X7335483Y1736796D01*
X7331164Y1734488D01*
X7283764Y1702816D01*
X7174587Y1657594D01*
X7058686Y1634540D01*
X6940514Y1634540D01*
X6824613Y1657594D01*
X6715436Y1702816D01*
X6617179Y1768469D01*
X6583175Y1802473D01*
X6579392Y1805577D01*
X6575070Y1807887D01*
X6570380Y1809310D01*
X6565503Y1809790D01*
X6560626Y1809310D01*
X6555936Y1807887D01*
X6551614Y1805577D01*
X6547825Y1802468D01*
X6544716Y1798679D01*
X6542406Y1794357D01*
X6540983Y1789667D01*
X6540503Y1784790D01*
X6540983Y1779913D01*
X6542406Y1775223D01*
X6613492Y1603606D01*
X6650000Y1420065D01*
X6650000Y1232935D01*
X6613492Y1049394D01*
X6541880Y876506D01*
X6437914Y720911D01*
X6305589Y588586D01*
X6149994Y484620D01*
X5977106Y413008D01*
X5915983Y400850D01*
X5793567Y376500D01*
X5606433Y376500D01*
X5484017Y400850D01*
X5422894Y413008D01*
X5250006Y484620D01*
X5094411Y588586D01*
X4962086Y720911D01*
X4858120Y876506D01*
X4786508Y1049394D01*
X4750000Y1232935D01*
X4750000Y1420065D01*
X4786508Y1603606D01*
X4858120Y1776494D01*
X4962086Y1932089D01*
X5094411Y2064414D01*
X5250006Y2168380D01*
X5422894Y2239992D01*
X5484074Y2252161D01*
X5606433Y2276500D01*
X5793567Y2276500D01*
X5915926Y2252161D01*
X5977106Y2239992D01*
X6149994Y2168380D01*
X6305589Y2064414D01*
X6413212Y1956791D01*
X6417001Y1953682D01*
X6421323Y1951372D01*
X6426013Y1949949D01*
X6430890Y1949469D01*
X6435767Y1949949D01*
X6440457Y1951372D01*
X6444779Y1953682D01*
X6448568Y1956791D01*
X6451677Y1960580D01*
X6453987Y1964902D01*
X6455410Y1969592D01*
X6455890Y1974469D01*
X6455410Y1979346D01*
X6453988Y1984031D01*
X6422744Y2059463D01*
X6399690Y2175364D01*
X6399690Y2293536D01*
X6422744Y2409437D01*
X6467966Y2518614D01*
X6533619Y2616871D01*
X6617179Y2700431D01*
X6715436Y2766084D01*
X6824613Y2811306D01*
X6940514Y2834360D01*
X7058686Y2834360D01*
X7174587Y2811306D01*
X7174587Y2811306D01*
G37*
G36*
X2573490Y400850D02*
X1673390Y400850D01*
X1673390Y1199350D01*
X2573490Y1199350D01*
X2573490Y400850D01*
X2573490Y400850D01*
G37*
G36*
X1476210Y400850D02*
X576110Y400850D01*
X576110Y1199350D01*
X1476210Y1199350D01*
X1476210Y400850D01*
X1476210Y400850D01*
G37*
G36*
X-1048550Y452920D02*
X-1897850Y452920D01*
X-1897850Y852640D01*
X-1048550Y852640D01*
X-1048550Y452920D01*
X-1048550Y452920D01*
G37*
G36*
X-6600990Y452920D02*
X-7450290Y452920D01*
X-7450290Y852640D01*
X-6600990Y852640D01*
X-6600990Y452920D01*
X-6600990Y452920D01*
G37*
G36*
X-5550700Y1002830D02*
X-5950420Y1002830D01*
X-5950420Y1852130D01*
X-5550700Y1852130D01*
X-5550700Y1002830D01*
X-5550700Y1002830D01*
G37*
G36*
X-5050320Y1002830D02*
X-5450040Y1002830D01*
X-5450040Y1852130D01*
X-5050320Y1852130D01*
X-5050320Y1002830D01*
X-5050320Y1002830D01*
G37*
G36*
X-6051080Y1002830D02*
X-6450800Y1002830D01*
X-6450800Y1852130D01*
X-6051080Y1852130D01*
X-6051080Y1002830D01*
X-6051080Y1002830D01*
G37*
G36*
X-4549940Y1002830D02*
X-4949660Y1002830D01*
X-4949660Y1852130D01*
X-4549940Y1852130D01*
X-4549940Y1002830D01*
X-4549940Y1002830D01*
G37*
G36*
X-4049560Y1002830D02*
X-4449280Y1002830D01*
X-4449280Y1852130D01*
X-4049560Y1852130D01*
X-4049560Y1002830D01*
X-4049560Y1002830D01*
G37*
G36*
X-3549180Y1002830D02*
X-3948900Y1002830D01*
X-3948900Y1852130D01*
X-3549180Y1852130D01*
X-3549180Y1002830D01*
X-3549180Y1002830D01*
G37*
G36*
X-2548420Y1002830D02*
X-2948140Y1002830D01*
X-2948140Y1852130D01*
X-2548420Y1852130D01*
X-2548420Y1002830D01*
X-2548420Y1002830D01*
G37*
G36*
X-2048040Y1002830D02*
X-2447760Y1002830D01*
X-2447760Y1852130D01*
X-2048040Y1852130D01*
X-2048040Y1002830D01*
X-2048040Y1002830D01*
G37*
G36*
X-3048800Y1002830D02*
X-3448520Y1002830D01*
X-3448520Y1852130D01*
X-3048800Y1852130D01*
X-3048800Y1002830D01*
X-3048800Y1002830D01*
G37*
G36*
X2573490Y1416850D02*
X1673390Y1416850D01*
X1673390Y2215350D01*
X2573490Y2215350D01*
X2573490Y1416850D01*
X2573490Y1416850D01*
G37*
G36*
X1476210Y1416850D02*
X576110Y1416850D01*
X576110Y2215350D01*
X1476210Y2215350D01*
X1476210Y1416850D01*
X1476210Y1416850D01*
G37*
G36*
X-7252500Y2502700D02*
X-8546300Y2502700D01*
X-8546300Y3999700D01*
X-7252500Y3999700D01*
X-7252500Y2502700D01*
X-7252500Y2502700D01*
G37*
G36*
X-8954300Y2502700D02*
X-10248100Y2502700D01*
X-10248100Y3999700D01*
X-8954300Y3999700D01*
X-8954300Y2502700D01*
X-8954300Y2502700D01*
G37*
G36*
X-3700750Y2697810D02*
X-4499250Y2697810D01*
X-4499250Y3597910D01*
X-3700750Y3597910D01*
X-3700750Y2697810D01*
X-3700750Y2697810D01*
G37*
G36*
X-5900750Y2697810D02*
X-6699250Y2697810D01*
X-6699250Y3597910D01*
X-5900750Y3597910D01*
X-5900750Y2697810D01*
X-5900750Y2697810D01*
G37*
G36*
X7185926Y4792161D02*
X7247106Y4779992D01*
X7419994Y4708380D01*
X7575589Y4604414D01*
X7707914Y4472089D01*
X7811880Y4316494D01*
X7883492Y4143606D01*
X7883492Y4143605D01*
X7912117Y3999700D01*
X7920000Y3960065D01*
X7920000Y3772935D01*
X7883492Y3589394D01*
X7811880Y3416506D01*
X7707914Y3260911D01*
X7575589Y3128586D01*
X7419994Y3024620D01*
X7247106Y2953008D01*
X7185926Y2940839D01*
X7063567Y2916500D01*
X6876433Y2916500D01*
X6754074Y2940839D01*
X6692894Y2953008D01*
X6520006Y3024620D01*
X6364411Y3128586D01*
X6232086Y3260911D01*
X6128120Y3416506D01*
X6056508Y3589394D01*
X6020000Y3772935D01*
X6020000Y3960065D01*
X6027884Y3999700D01*
X6056508Y4143605D01*
X6056508Y4143606D01*
X6128120Y4316494D01*
X6232086Y4472089D01*
X6364411Y4604414D01*
X6520006Y4708380D01*
X6692894Y4779992D01*
X6754074Y4792161D01*
X6876433Y4816500D01*
X7063567Y4816500D01*
X7185926Y4792161D01*
X7185926Y4792161D01*
G37*
G36*
X-5900750Y3795090D02*
X-6699250Y3795090D01*
X-6699250Y4695190D01*
X-5900750Y4695190D01*
X-5900750Y3795090D01*
X-5900750Y3795090D01*
G37*
G36*
X-3700750Y3795090D02*
X-4499250Y3795090D01*
X-4499250Y4695190D01*
X-3700750Y4695190D01*
X-3700750Y3795090D01*
X-3700750Y3795090D01*
G37*
G36*
X-8954300Y4702340D02*
X-10248100Y4702340D01*
X-10248100Y6199340D01*
X-8954300Y6199340D01*
X-8954300Y4702340D01*
X-8954300Y4702340D01*
G37*
G36*
X-7252500Y4702340D02*
X-8546300Y4702340D01*
X-8546300Y6199340D01*
X-7252500Y6199340D01*
X-7252500Y4702340D01*
X-7252500Y4702340D01*
G37*
G36*
X8156029Y6472756D02*
X8306937Y6426978D01*
X8446015Y6352640D01*
X8567917Y6252597D01*
X8667960Y6130695D01*
X8742298Y5991617D01*
X8788076Y5840709D01*
X8803533Y5683770D01*
X8788076Y5526831D01*
X8742298Y5375923D01*
X8667960Y5236845D01*
X8567917Y5114943D01*
X8446015Y5014900D01*
X8306937Y4940562D01*
X8156029Y4894784D01*
X8038414Y4883200D01*
X5960786Y4883200D01*
X5843171Y4894784D01*
X5692263Y4940562D01*
X5553185Y5014900D01*
X5431283Y5114943D01*
X5331240Y5236845D01*
X5256902Y5375923D01*
X5211124Y5526831D01*
X5195667Y5683770D01*
X5211124Y5840709D01*
X5256902Y5991617D01*
X5331240Y6130695D01*
X5431283Y6252597D01*
X5553185Y6352640D01*
X5692263Y6426978D01*
X5843171Y6472756D01*
X5960786Y6484340D01*
X8038414Y6484340D01*
X8156029Y6472756D01*
X8156029Y6472756D01*
G37*
G36*
X2027390Y4901730D02*
X1127290Y4901730D01*
X1127290Y5700230D01*
X2027390Y5700230D01*
X2027390Y4901730D01*
X2027390Y4901730D01*
G37*
G36*
X3124670Y4901730D02*
X2224570Y4901730D01*
X2224570Y5700230D01*
X3124670Y5700230D01*
X3124670Y4901730D01*
X3124670Y4901730D01*
G37*
G36*
X-4701310Y5197250D02*
X-5601410Y5197250D01*
X-5601410Y5995750D01*
X-4701310Y5995750D01*
X-4701310Y5197250D01*
X-4701310Y5197250D01*
G37*
G36*
X-5798590Y5197250D02*
X-6698690Y5197250D01*
X-6698690Y5995750D01*
X-5798590Y5995750D01*
X-5798590Y5197250D01*
X-5798590Y5197250D01*
G37*
G36*
X-3030000Y5771500D02*
X-3980000Y5771500D01*
X-3980000Y6721500D01*
X-3030000Y6721500D01*
X-3030000Y5771500D01*
X-3030000Y5771500D01*
G37*
G36*
X-826448Y6703246D02*
X-826445Y6703245D01*
X-826446Y6703245D01*
X-740003Y6667440D01*
X-681788Y6628541D01*
X-662205Y6615456D01*
X-596044Y6549295D01*
X-596043Y6549293D01*
X-544060Y6471497D01*
X-525620Y6426978D01*
X-508254Y6385052D01*
X-490000Y6293283D01*
X-490000Y6199717D01*
X-508254Y6107948D01*
X-508255Y6107946D01*
X-544060Y6021503D01*
X-564030Y5991617D01*
X-596044Y5943705D01*
X-662205Y5877544D01*
X-681788Y5864459D01*
X-740003Y5825560D01*
X-813787Y5794998D01*
X-826448Y5789754D01*
X-918217Y5771500D01*
X-1011783Y5771500D01*
X-1103552Y5789754D01*
X-1116213Y5794998D01*
X-1189997Y5825560D01*
X-1248212Y5864459D01*
X-1267795Y5877544D01*
X-1333956Y5943705D01*
X-1365970Y5991617D01*
X-1385940Y6021503D01*
X-1421745Y6107946D01*
X-1421746Y6107948D01*
X-1440000Y6199717D01*
X-1440000Y6293283D01*
X-1421746Y6385052D01*
X-1404380Y6426978D01*
X-1385940Y6471497D01*
X-1333957Y6549293D01*
X-1333956Y6549295D01*
X-1267795Y6615456D01*
X-1248212Y6628541D01*
X-1189997Y6667440D01*
X-1103554Y6703245D01*
X-1103555Y6703245D01*
X-1103552Y6703246D01*
X-1011783Y6721500D01*
X-918217Y6721500D01*
X-826448Y6703246D01*
X-826448Y6703246D01*
G37*
G36*
X-2096448Y6703246D02*
X-2096445Y6703245D01*
X-2096446Y6703245D01*
X-2010003Y6667440D01*
X-1951788Y6628541D01*
X-1932205Y6615456D01*
X-1866044Y6549295D01*
X-1866043Y6549293D01*
X-1814060Y6471497D01*
X-1795620Y6426978D01*
X-1778254Y6385052D01*
X-1760000Y6293283D01*
X-1760000Y6199717D01*
X-1778254Y6107948D01*
X-1778255Y6107946D01*
X-1814060Y6021503D01*
X-1834030Y5991617D01*
X-1866044Y5943705D01*
X-1932205Y5877544D01*
X-1951788Y5864459D01*
X-2010003Y5825560D01*
X-2083787Y5794998D01*
X-2096448Y5789754D01*
X-2188217Y5771500D01*
X-2281783Y5771500D01*
X-2373552Y5789754D01*
X-2386213Y5794998D01*
X-2459997Y5825560D01*
X-2518212Y5864459D01*
X-2537795Y5877544D01*
X-2603956Y5943705D01*
X-2635970Y5991617D01*
X-2655940Y6021503D01*
X-2691745Y6107946D01*
X-2691746Y6107948D01*
X-2710000Y6199717D01*
X-2710000Y6293283D01*
X-2691746Y6385052D01*
X-2674380Y6426978D01*
X-2655940Y6471497D01*
X-2603957Y6549293D01*
X-2603956Y6549295D01*
X-2537795Y6615456D01*
X-2518212Y6628541D01*
X-2459997Y6667440D01*
X-2373554Y6703245D01*
X-2373555Y6703245D01*
X-2373552Y6703246D01*
X-2281783Y6721500D01*
X-2188217Y6721500D01*
X-2096448Y6703246D01*
X-2096448Y6703246D01*
G37*
G36*
X443552Y6703246D02*
X443555Y6703245D01*
X443554Y6703245D01*
X529997Y6667440D01*
X588212Y6628541D01*
X607795Y6615456D01*
X673956Y6549295D01*
X673957Y6549293D01*
X725940Y6471497D01*
X744380Y6426978D01*
X761746Y6385052D01*
X780000Y6293283D01*
X780000Y6199717D01*
X761746Y6107948D01*
X761745Y6107946D01*
X725940Y6021503D01*
X705970Y5991617D01*
X673956Y5943705D01*
X607795Y5877544D01*
X588212Y5864459D01*
X529997Y5825560D01*
X456213Y5794998D01*
X443552Y5789754D01*
X351783Y5771500D01*
X258217Y5771500D01*
X166448Y5789754D01*
X153787Y5794998D01*
X80003Y5825560D01*
X21788Y5864459D01*
X2205Y5877544D01*
X-63956Y5943705D01*
X-95970Y5991617D01*
X-115940Y6021503D01*
X-151745Y6107946D01*
X-151746Y6107948D01*
X-170000Y6199717D01*
X-170000Y6293283D01*
X-151746Y6385052D01*
X-134380Y6426978D01*
X-115940Y6471497D01*
X-63957Y6549293D01*
X-63956Y6549295D01*
X2205Y6615456D01*
X21788Y6628541D01*
X80003Y6667440D01*
X166446Y6703245D01*
X166445Y6703245D01*
X166448Y6703246D01*
X258217Y6721500D01*
X351783Y6721500D01*
X443552Y6703246D01*
X443552Y6703246D01*
G37*
G36*
X3124670Y6151410D02*
X2224570Y6151410D01*
X2224570Y6949910D01*
X3124670Y6949910D01*
X3124670Y6151410D01*
X3124670Y6151410D01*
G37*
G36*
X2027390Y6151410D02*
X1127290Y6151410D01*
X1127290Y6949910D01*
X2027390Y6949910D01*
X2027390Y6151410D01*
X2027390Y6151410D01*
G37*
G36*
X-11294155Y7627285D02*
X-11203161Y7589594D01*
X-11121269Y7534875D01*
X-11051625Y7465231D01*
X-10996906Y7383339D01*
X-10959215Y7292345D01*
X-10940000Y7195746D01*
X-10940000Y7097254D01*
X-10959215Y7000655D01*
X-10996906Y6909661D01*
X-11051625Y6827769D01*
X-11121269Y6758125D01*
X-11203161Y6703406D01*
X-11294155Y6665715D01*
X-11390754Y6646500D01*
X-11489246Y6646500D01*
X-11585845Y6665715D01*
X-11676839Y6703406D01*
X-11758731Y6758125D01*
X-11828375Y6827769D01*
X-11883094Y6909661D01*
X-11920785Y7000655D01*
X-11940000Y7097254D01*
X-11940000Y7195746D01*
X-11920785Y7292345D01*
X-11883094Y7383339D01*
X-11828375Y7465231D01*
X-11758731Y7534875D01*
X-11676839Y7589594D01*
X-11585845Y7627285D01*
X-11489246Y7646500D01*
X-11390754Y7646500D01*
X-11294155Y7627285D01*
X-11294155Y7627285D01*
G37*
G36*
X-7850670Y6700050D02*
X-8750770Y6700050D01*
X-8750770Y7498550D01*
X-7850670Y7498550D01*
X-7850670Y6700050D01*
X-7850670Y6700050D01*
G37*
G36*
X-8947950Y6700050D02*
X-9848050Y6700050D01*
X-9848050Y7498550D01*
X-8947950Y7498550D01*
X-8947950Y6700050D01*
X-8947950Y6700050D01*
G37*
M02*
