M48
;DRILL file {KiCad 4.0.7} date 2018. April 04., Wednesday 12:16:49
;FORMAT={-:-/ absolute / inch / decimal}
FMAT,2
INCH,TZ
T1C0.000
T2C0.012
T3C0.015
T4C0.039
T5C0.043
%
G90
G05
M72
T1
X4.862Y-3.6516
X4.912Y-3.6516
X4.962Y-3.6516
X5.012Y-3.6516
T2
X4.7933Y-3.9112
X4.7933Y-3.9506
X4.7933Y-3.99
X4.8327Y-3.9112
X4.8327Y-3.9506
X4.8327Y-3.99
X4.8721Y-3.9112
X4.8721Y-3.9506
X4.8721Y-3.99
T3
X4.5748Y-4.0226
X4.5748Y-4.0226
X4.578Y-4.066
X4.62Y-3.818
X4.62Y-3.818
X4.666Y-4.024
X4.692Y-3.816
X4.692Y-3.8161
X4.716Y-3.844
X4.716Y-3.844
X4.806Y-3.73
X4.812Y-3.81
X4.812Y-3.81
X4.83Y-3.654
X4.872Y-3.7686
X4.872Y-3.7686
X4.872Y-3.7951
X4.872Y-3.7951
X4.894Y-3.702
X4.9528Y-3.6083
X4.9528Y-3.6083
X4.9737Y-4.0125
X4.974Y-3.738
X4.974Y-3.738
X4.9763Y-3.774
X4.9779Y-3.6941
X5.012Y-4.148
X5.0185Y-3.797
X5.02Y-3.698
X5.026Y-3.768
X5.0303Y-3.9395
X5.034Y-4.07
X5.0581Y-3.7399
X5.0885Y-3.7942
X5.108Y-3.944
X5.1096Y-3.759
X5.118Y-3.856
X5.1289Y-3.894
X5.182Y-4.082
X5.184Y-3.984
X5.274Y-3.88
X5.274Y-3.91
X5.284Y-4.19
T5
X5.2756Y-3.8095
X5.2756Y-3.9867
T4
X5.3051Y-3.6737G85X5.2461Y-3.6737
G05
X5.3051Y-4.1225G85X5.2461Y-4.1225
G05
T0
M30
