M48
;DRILL file {KiCad 4.0.7} date 2018. July 01., Sunday 21:31:11
;FORMAT={-:-/ absolute / inch / decimal}
FMAT,2
INCH,TZ
T1C0.000
T2C0.012
T3C0.015
T4C0.039
T5C0.043
%
G90
G05
M72
T1
X4.862Y-3.6516
X4.912Y-3.6516
X4.962Y-3.6516
X5.012Y-3.6516
T2
X4.7933Y-3.9112
X4.7933Y-3.9506
X4.7933Y-3.99
X4.8327Y-3.9112
X4.8327Y-3.9506
X4.8327Y-3.99
X4.8721Y-3.9112
X4.8721Y-3.9506
X4.8721Y-3.99
T3
X4.552Y-3.944
X4.5763Y-4.11
X4.666Y-4.024
X4.716Y-3.844
X4.716Y-3.844
X4.754Y-4.108
X4.756Y-4.138
X4.8112Y-4.1081
X4.83Y-3.654
X4.872Y-3.7686
X4.872Y-3.7686
X4.872Y-3.7951
X4.872Y-3.7951
X4.9076Y-3.7044
X4.9528Y-3.6083
X4.9528Y-3.6083
X4.9727Y-4.0185
X4.974Y-3.738
X4.974Y-3.738
X4.9771Y-3.7732
X4.9779Y-3.6941
X5.012Y-4.148
X5.0185Y-3.797
X5.02Y-3.698
X5.026Y-3.768
X5.036Y-3.946
X5.0367Y-4.07
X5.0515Y-3.7463
X5.0885Y-3.7942
X5.108Y-3.944
X5.1096Y-3.759
X5.118Y-3.856
X5.1289Y-3.894
X5.182Y-4.082
X5.184Y-3.984
X5.274Y-3.88
X5.274Y-3.91
X5.284Y-4.19
T5
X5.2756Y-3.8095
X5.2756Y-3.9867
T4
X5.3051Y-3.6737G85X5.2461Y-3.6737
G05
X5.3051Y-4.1225G85X5.2461Y-4.1225
G05
T0
M30
