G04 #@! TF.GenerationSoftware,KiCad,Pcbnew,(5.0.1)-4*
G04 #@! TF.CreationDate,2018-12-21T18:48:29+01:00*
G04 #@! TF.ProjectId,cryptostick,63727970746F737469636B2E6B696361,R1*
G04 #@! TF.SameCoordinates,PX791ddc0PY5e69114*
G04 #@! TF.FileFunction,Copper,L2,Bot,Signal*
G04 #@! TF.FilePolarity,Positive*
%FSLAX46Y46*%
G04 Gerber Fmt 4.6, Leading zero omitted, Abs format (unit mm)*
G04 Created by KiCad (PCBNEW (5.0.1)-4) date 21.12.2018 18:48:29*
%MOMM*%
%LPD*%
G01*
G04 APERTURE LIST*
G04 #@! TA.AperFunction,BGAPad,CuDef*
%ADD10C,0.500000*%
G04 #@! TD*
G04 #@! TA.AperFunction,ComponentPad*
%ADD11O,3.500120X1.501140*%
G04 #@! TD*
G04 #@! TA.AperFunction,SMDPad,CuDef*
%ADD12R,1.998980X1.198880*%
G04 #@! TD*
G04 #@! TA.AperFunction,ComponentPad*
%ADD13C,1.099820*%
G04 #@! TD*
G04 #@! TA.AperFunction,SMDPad,CuDef*
%ADD14C,0.650240*%
G04 #@! TD*
G04 #@! TA.AperFunction,Conductor*
%ADD15C,0.150000*%
G04 #@! TD*
G04 #@! TA.AperFunction,SMDPad,CuDef*
%ADD16C,0.449580*%
G04 #@! TD*
G04 #@! TA.AperFunction,SMDPad,CuDef*
%ADD17C,1.399540*%
G04 #@! TD*
G04 #@! TA.AperFunction,SMDPad,CuDef*
%ADD18C,0.541020*%
G04 #@! TD*
G04 #@! TA.AperFunction,ComponentPad*
%ADD19C,0.304800*%
G04 #@! TD*
G04 #@! TA.AperFunction,ViaPad*
%ADD20C,0.540000*%
G04 #@! TD*
G04 #@! TA.AperFunction,Conductor*
%ADD21C,0.300000*%
G04 #@! TD*
G04 #@! TA.AperFunction,Conductor*
%ADD22C,0.152400*%
G04 #@! TD*
G04 #@! TA.AperFunction,Conductor*
%ADD23C,0.127000*%
G04 #@! TD*
G04 #@! TA.AperFunction,Conductor*
%ADD24C,0.180000*%
G04 #@! TD*
G04 #@! TA.AperFunction,Conductor*
%ADD25C,0.200660*%
G04 #@! TD*
G04 #@! TA.AperFunction,Conductor*
%ADD26C,0.254000*%
G04 #@! TD*
G04 APERTURE END LIST*
D10*
G04 #@! TO.P,REF\002A\002A,~*
G04 #@! TO.N,N/C*
X8560000Y-7353500D03*
G04 #@! TD*
D11*
G04 #@! TO.P,J2,5*
G04 #@! TO.N,N/C*
X6999600Y5683770D03*
G04 #@! TO.P,J2,6*
X6999600Y-5715750D03*
D12*
G04 #@! TO.P,J2,2*
G04 #@! TO.N,/D-_PLUG*
X4599020Y-1016750D03*
G04 #@! TO.P,J2,3*
G04 #@! TO.N,/D+_PLUG*
X4599020Y1000010D03*
G04 #@! TO.P,J2,1*
G04 #@! TO.N,/VBUS*
X4599020Y-3516110D03*
G04 #@! TO.P,J2,4*
G04 #@! TO.N,GND*
X4599020Y3484130D03*
D13*
G04 #@! TO.P,J2,7*
G04 #@! TO.N,N/C*
X6999600Y-2266430D03*
G04 #@! TO.P,J2,8*
X6999600Y2234450D03*
G04 #@! TD*
D14*
G04 #@! TO.P,J1,1*
G04 #@! TO.N,/SCVCC*
X-966320Y-7419500D03*
D15*
G04 #@! TD*
G04 #@! TO.N,/SCVCC*
G04 #@! TO.C,J1*
G36*
X-641200Y-7994810D02*
X-1291440Y-7994810D01*
X-1291440Y-6844190D01*
X-641200Y-6844190D01*
X-641200Y-7994810D01*
X-641200Y-7994810D01*
G37*
D14*
G04 #@! TO.P,J1,5*
G04 #@! TO.N,GND*
X283360Y-7419500D03*
D15*
G04 #@! TD*
G04 #@! TO.N,GND*
G04 #@! TO.C,J1*
G36*
X608480Y-7994810D02*
X-41760Y-7994810D01*
X-41760Y-6844190D01*
X608480Y-6844190D01*
X608480Y-7994810D01*
X608480Y-7994810D01*
G37*
D14*
G04 #@! TO.P,J1,6*
G04 #@! TO.N,N/C*
X-2241400Y-7419500D03*
D15*
G04 #@! TD*
G04 #@! TO.N,N/C*
G04 #@! TO.C,J1*
G36*
X-1916280Y-7994810D02*
X-2566520Y-7994810D01*
X-2566520Y-6844190D01*
X-1916280Y-6844190D01*
X-1916280Y-7994810D01*
X-1916280Y-7994810D01*
G37*
D14*
G04 #@! TO.P,J1,2*
G04 #@! TO.N,/SCRST*
X-3516480Y-7419500D03*
D15*
G04 #@! TD*
G04 #@! TO.N,/SCRST*
G04 #@! TO.C,J1*
G36*
X-3191360Y-7994810D02*
X-3841600Y-7994810D01*
X-3841600Y-6844190D01*
X-3191360Y-6844190D01*
X-3191360Y-7994810D01*
X-3191360Y-7994810D01*
G37*
D14*
G04 #@! TO.P,J1,7*
G04 #@! TO.N,/SCSDA*
X-4791560Y-7419500D03*
D15*
G04 #@! TD*
G04 #@! TO.N,/SCSDA*
G04 #@! TO.C,J1*
G36*
X-4466440Y-7994810D02*
X-5116680Y-7994810D01*
X-5116680Y-6844190D01*
X-4466440Y-6844190D01*
X-4466440Y-7994810D01*
X-4466440Y-7994810D01*
G37*
D14*
G04 #@! TO.P,J1,3*
G04 #@! TO.N,/SCCLK*
X-6066640Y-7419500D03*
D15*
G04 #@! TD*
G04 #@! TO.N,/SCCLK*
G04 #@! TO.C,J1*
G36*
X-5741520Y-7994810D02*
X-6391760Y-7994810D01*
X-6391760Y-6844190D01*
X-5741520Y-6844190D01*
X-5741520Y-7994810D01*
X-5741520Y-7994810D01*
G37*
D16*
G04 #@! TO.P,J1,GND*
G04 #@! TO.N,N/C*
X2406800Y-5194460D03*
D15*
G04 #@! TD*
G04 #@! TO.N,N/C*
G04 #@! TO.C,J1*
G36*
X2631590Y-5844700D02*
X2182010Y-5844700D01*
X2182010Y-4544220D01*
X2631590Y-4544220D01*
X2631590Y-5844700D01*
X2631590Y-5844700D01*
G37*
D16*
G04 #@! TO.P,J1,GND*
G04 #@! TO.N,N/C*
X2406800Y-3192940D03*
D15*
G04 #@! TD*
G04 #@! TO.N,N/C*
G04 #@! TO.C,J1*
G36*
X2631590Y-3843180D02*
X2182010Y-3843180D01*
X2182010Y-2542700D01*
X2631590Y-2542700D01*
X2631590Y-3843180D01*
X2631590Y-3843180D01*
G37*
D16*
G04 #@! TO.P,J1,GND*
G04 #@! TO.N,N/C*
X-9891880Y-3192940D03*
D15*
G04 #@! TD*
G04 #@! TO.N,N/C*
G04 #@! TO.C,J1*
G36*
X-9667090Y-3843180D02*
X-10116670Y-3843180D01*
X-10116670Y-2542700D01*
X-9667090Y-2542700D01*
X-9667090Y-3843180D01*
X-9667090Y-3843180D01*
G37*
D16*
G04 #@! TO.P,J1,GND*
G04 #@! TO.N,N/C*
X-9891880Y-5194460D03*
D15*
G04 #@! TD*
G04 #@! TO.N,N/C*
G04 #@! TO.C,J1*
G36*
X-9667090Y-5844700D02*
X-10116670Y-5844700D01*
X-10116670Y-4544220D01*
X-9667090Y-4544220D01*
X-9667090Y-5844700D01*
X-9667090Y-5844700D01*
G37*
D17*
G04 #@! TO.P,J1,14*
G04 #@! TO.N,N/C*
X2358540Y6255860D03*
D15*
G04 #@! TD*
G04 #@! TO.N,N/C*
G04 #@! TO.C,J1*
G36*
X3058310Y5406230D02*
X1658770Y5406230D01*
X1658770Y7105490D01*
X3058310Y7105490D01*
X3058310Y5406230D01*
X3058310Y5406230D01*
G37*
D17*
G04 #@! TO.P,J1,15*
G04 #@! TO.N,N/C*
X-9841080Y6357460D03*
D15*
G04 #@! TD*
G04 #@! TO.N,N/C*
G04 #@! TO.C,J1*
G36*
X-9141310Y5507830D02*
X-10540850Y5507830D01*
X-10540850Y7207090D01*
X-9141310Y7207090D01*
X-9141310Y5507830D01*
X-9141310Y5507830D01*
G37*
D18*
G04 #@! TO.P,J1,10*
G04 #@! TO.N,N/C*
X-1141580Y5857080D03*
D15*
G04 #@! TD*
G04 #@! TO.N,N/C*
G04 #@! TO.C,J1*
G36*
X-871070Y5457030D02*
X-1412090Y5457030D01*
X-1412090Y6257130D01*
X-871070Y6257130D01*
X-871070Y5457030D01*
X-871070Y5457030D01*
G37*
D18*
G04 #@! TO.P,J1,11*
G04 #@! TO.N,N/C*
X-6241900Y5857080D03*
D15*
G04 #@! TD*
G04 #@! TO.N,N/C*
G04 #@! TO.C,J1*
G36*
X-5971390Y5457030D02*
X-6512410Y5457030D01*
X-6512410Y6257130D01*
X-5971390Y6257130D01*
X-5971390Y5457030D01*
X-5971390Y5457030D01*
G37*
D19*
G04 #@! TO.P,U1,37*
G04 #@! TO.N,GND*
X-4249420Y-1348740D03*
X-3248660Y-1348740D03*
X-5250180Y-1348740D03*
X-5250180Y-347980D03*
X-4249420Y-347980D03*
X-3248660Y-347980D03*
X-3248660Y-2349500D03*
X-4249420Y-2349500D03*
X-5250180Y-2349500D03*
G04 #@! TD*
D16*
G04 #@! TO.P,D1,1*
G04 #@! TO.N,N-000006*
X-11366400Y-1995500D03*
D15*
G04 #@! TD*
G04 #@! TO.N,N-000006*
G04 #@! TO.C,D1*
G36*
X-11591190Y-1745310D02*
X-11141610Y-1745310D01*
X-11141610Y-2245690D01*
X-11591190Y-2245690D01*
X-11591190Y-1745310D01*
X-11591190Y-1745310D01*
G37*
D16*
G04 #@! TO.P,D1,2*
G04 #@! TO.N,GND*
X-11366400Y-471500D03*
D15*
G04 #@! TD*
G04 #@! TO.N,GND*
G04 #@! TO.C,D1*
G36*
X-11591190Y-221310D02*
X-11141610Y-221310D01*
X-11141610Y-721690D01*
X-11591190Y-721690D01*
X-11591190Y-221310D01*
X-11591190Y-221310D01*
G37*
D16*
G04 #@! TO.P,D1,4*
G04 #@! TO.N,N-0000034*
X-10553600Y-1995500D03*
D15*
G04 #@! TD*
G04 #@! TO.N,N-0000034*
G04 #@! TO.C,D1*
G36*
X-10778390Y-1745310D02*
X-10328810Y-1745310D01*
X-10328810Y-2245690D01*
X-10778390Y-2245690D01*
X-10778390Y-1745310D01*
X-10778390Y-1745310D01*
G37*
D16*
G04 #@! TO.P,D1,3*
G04 #@! TO.N,GND*
X-10553600Y-471500D03*
D15*
G04 #@! TD*
G04 #@! TO.N,GND*
G04 #@! TO.C,D1*
G36*
X-10778390Y-221310D02*
X-10328810Y-221310D01*
X-10328810Y-721690D01*
X-10778390Y-721690D01*
X-10778390Y-221310D01*
X-10778390Y-221310D01*
G37*
D10*
G04 #@! TO.P,REF\002A\002A,~*
G04 #@! TO.N,N/C*
X-11440000Y7146500D03*
G04 #@! TD*
D20*
G04 #@! TO.N,+3.3V*
X-4318000Y6184900D03*
X-8483600Y-3213096D03*
X1474919Y4002223D03*
X863600Y-4381500D03*
X-7213600Y1358900D03*
X-660400Y4051300D03*
X-660400Y4051300D03*
X-7213600Y1358900D03*
G04 #@! TO.N,/D+*
X768382Y-1066812D03*
X469898Y2552700D03*
G04 #@! TO.N,/D+_PLUG*
X2743200Y-1181100D03*
X2997200Y1054100D03*
G04 #@! TO.N,/D-_PLUG*
X4673600Y-2197100D03*
X3274211Y88900D03*
G04 #@! TO.N,/SCCLK*
X-666760Y-2921000D03*
G04 #@! TO.N,/SCRST*
X-3251200Y2600937D03*
X-3251200Y2600935D03*
G04 #@! TO.N,/SCSDA*
X-4775200Y2222500D03*
X-4775200Y2222500D03*
G04 #@! TO.N,/SCVCC*
X-3251200Y3274050D03*
X-3251200Y3274048D03*
G04 #@! TO.N,/SWCLK*
X6959600Y444500D03*
X-561954Y5166970D03*
G04 #@! TO.N,/SWDIO*
X6959600Y-317500D03*
X508000Y5067300D03*
G04 #@! TO.N,/USB_EN*
X-2692400Y4965700D03*
X2249092Y2623730D03*
G04 #@! TO.N,/VBUS*
X4622800Y-4686300D03*
G04 #@! TO.N,GND*
X-7830000Y-4453500D03*
X7213600Y-7429500D03*
X304798Y-6362700D03*
X660400Y3289300D03*
X-4927600Y4254500D03*
X-7823222Y2070100D03*
X-7823209Y2067439D03*
X2783920Y3517899D03*
X-600720Y3136900D03*
X-9652000Y2019300D03*
X-1200000Y7346500D03*
X-1200000Y7346500D03*
X-9652000Y2019300D03*
G04 #@! TO.N,N-0000034*
X-10800000Y-3178500D03*
X-10800000Y-3178500D03*
G04 #@! TO.N,N-000006*
X-10718800Y-4279900D03*
G04 #@! TD*
D21*
G04 #@! TO.N,+3.3V*
X-4318000Y5798749D02*
X-4318000Y6184900D01*
X-4318000Y5007611D02*
X-4318000Y5798749D01*
D22*
X-4267200Y4956811D02*
X-4318000Y5007611D01*
D21*
X863600Y-1892300D02*
X863600Y-4381500D01*
X1474919Y4002223D02*
X1474919Y-1250426D01*
X-4267200Y4956811D02*
X-6549389Y4956811D01*
X-6549389Y4956811D02*
X-6940551Y4565649D01*
X-6940551Y4565649D02*
X-6940551Y1631949D01*
X-6940551Y1631949D02*
X-7213600Y1358900D01*
X-8483600Y-2826945D02*
X-8483600Y-3213096D01*
X-8483600Y88900D02*
X-8483600Y-2826945D01*
X-7213600Y1358900D02*
X-8483600Y88900D01*
X1536700Y4033449D02*
X1505474Y4002223D01*
X1505474Y4002223D02*
X1474919Y4002223D01*
X1549400Y4020749D02*
X1536700Y4033449D01*
X1549400Y4020749D02*
X-629849Y4020749D01*
X-629849Y4020749D02*
X-660400Y4051300D01*
D22*
X-7213600Y1358900D02*
X-8280400Y292100D01*
X-3200000Y4305300D02*
X-3180951Y4324349D01*
D21*
X-4000000Y4689611D02*
X-4267200Y4956811D01*
D22*
X-2600000Y4324349D02*
X-3634738Y4324349D01*
X-3634738Y4324349D02*
X-2400000Y4324349D01*
D21*
X-3634738Y4324349D02*
X-4267200Y4956811D01*
X-3400000Y4324349D02*
X-3596640Y4324349D01*
X-967849Y4324349D02*
X-3400000Y4324349D01*
X-660400Y4051300D02*
X-694800Y4051300D01*
X-694800Y4051300D02*
X-967849Y4324349D01*
X1474919Y-1280981D02*
X863600Y-1892300D01*
X1474919Y-1250426D02*
X1474919Y-1280981D01*
D23*
G04 #@! TO.N,/D+*
X469898Y2552700D02*
X768382Y2254216D01*
X768382Y2254216D02*
X768382Y-680661D01*
X768382Y-680661D02*
X768382Y-1066812D01*
D21*
G04 #@! TO.N,/D+_PLUG*
X2724151Y-1162051D02*
X2743200Y-1181100D01*
X2724151Y781051D02*
X2724151Y-1162051D01*
X2997200Y1054100D02*
X2724151Y781051D01*
D23*
X3051290Y1000010D02*
X2997200Y1054100D01*
D21*
X4547730Y1046500D02*
X3000000Y1046500D01*
D23*
G04 #@! TO.N,/D-_PLUG*
X4599020Y-2122520D02*
X4673600Y-2197100D01*
D21*
X4673600Y-1091330D02*
X4673600Y-2197100D01*
D23*
X4379861Y-1016750D02*
X4599020Y-1016750D01*
D21*
X3274211Y88900D02*
X4379861Y-1016750D01*
D23*
G04 #@! TO.N,/SCCLK*
X-6073140Y-7429500D02*
X-6073140Y-6754190D01*
X-666760Y-4400560D02*
X-666760Y-2921000D01*
X-6073140Y-6754190D02*
X-4386250Y-5067300D01*
X-4386250Y-5067300D02*
X-1333500Y-5067300D01*
X-1333500Y-5067300D02*
X-666760Y-4400560D01*
G04 #@! TO.N,/SCRST*
X-1600000Y-5854711D02*
X-2251211Y-5854711D01*
X-1003311Y-5854711D02*
X-1600000Y-5854711D01*
X50811Y-4800589D02*
X-1003311Y-5854711D01*
X50811Y1308089D02*
X50811Y-4800589D01*
X-1242035Y2600935D02*
X50811Y1308089D01*
X-3251200Y2600935D02*
X-1242035Y2600935D01*
X-3516480Y-7419500D02*
X-3516480Y-6679980D01*
X-2691211Y-5854711D02*
X-1720000Y-5854711D01*
X-3516480Y-6679980D02*
X-2691211Y-5854711D01*
X-1948191Y-5854711D02*
X-1720000Y-5854711D01*
X-1720000Y-5854711D02*
X-1600000Y-5854711D01*
G04 #@! TO.N,/SCSDA*
X-2778760Y-5410200D02*
X-2600000Y-5410200D01*
X-2600000Y-5410200D02*
X-3006700Y-5410200D01*
X-4775200Y2222500D02*
X-4026000Y2222500D01*
X-4026000Y2222500D02*
X-3752951Y1949451D01*
X-3752951Y1949451D02*
X-996951Y1949451D01*
X-996951Y1949451D02*
X-203200Y1155700D01*
X-203200Y1155700D02*
X-203200Y-4483100D01*
X-203200Y-4483100D02*
X-1130300Y-5410200D01*
X-3457570Y-5410200D02*
X-2540000Y-5410200D01*
X-4791560Y-6744190D02*
X-3457570Y-5410200D01*
X-4791560Y-7419500D02*
X-4791560Y-6744190D01*
X-1130300Y-5410200D02*
X-2540000Y-5410200D01*
X-2540000Y-5410200D02*
X-2600000Y-5410200D01*
G04 #@! TO.N,/SCVCC*
X-972820Y-6326770D02*
X-972820Y-7429500D01*
X304822Y-5049128D02*
X-972820Y-6326770D01*
X304822Y1460478D02*
X304822Y-5049128D01*
X-1508750Y3274050D02*
X304822Y1460478D01*
X-3251200Y3274050D02*
X-1508750Y3274050D01*
G04 #@! TO.N,/SWCLK*
X-560024Y5168900D02*
X-561954Y5166970D01*
X-508000Y5168900D02*
X-560024Y5168900D01*
X6686551Y717549D02*
X6959600Y444500D01*
X6259189Y1144911D02*
X6686551Y717549D01*
X6259189Y4267311D02*
X6259189Y1144911D01*
X5865600Y4660900D02*
X6259189Y4267311D01*
X-561954Y5166970D02*
X-198073Y5530851D01*
X995649Y5530851D02*
X1357590Y5168910D01*
X-198073Y5530851D02*
X995649Y5530851D01*
X1357590Y5168910D02*
X1837590Y5168910D01*
X1837590Y5168910D02*
X2345600Y4660900D01*
X2345600Y4660900D02*
X5865600Y4660900D01*
G04 #@! TO.N,/SWDIO*
X6686551Y-44451D02*
X6959600Y-317500D01*
X5943600Y698500D02*
X6686551Y-44451D01*
X1018549Y5067300D02*
X1219349Y4866500D01*
X5943600Y4122900D02*
X5943600Y698500D01*
X508000Y5067300D02*
X1018549Y5067300D01*
X1219349Y4866500D02*
X1724800Y4866500D01*
X1724800Y4866500D02*
X2235200Y4356100D01*
X2235200Y4356100D02*
X5710400Y4356100D01*
X5710400Y4356100D02*
X5943600Y4122900D01*
D15*
G04 #@! TO.N,/USB_EN*
X-2306249Y4965700D02*
X-2692400Y4965700D01*
X1976043Y2896779D02*
X1976043Y4208857D01*
X2249092Y2623730D02*
X1976043Y2896779D01*
X1976043Y4208857D02*
X1628400Y4556500D01*
X1628400Y4556500D02*
X-640000Y4556500D01*
X-640000Y4556500D02*
X-1049200Y4965700D01*
X-1049200Y4965700D02*
X-2306249Y4965700D01*
D21*
G04 #@! TO.N,/VBUS*
X4599020Y-4662520D02*
X4622800Y-4686300D01*
X4599020Y-3516110D02*
X4599020Y-4662520D01*
X4599020Y-3516110D02*
X4198970Y-3516110D01*
D24*
G04 #@! TO.N,GND*
X3350000Y6935967D02*
X3350000Y7246500D01*
D25*
X-11370000Y-283690D02*
X-11370000Y66500D01*
X-1301467Y3837647D02*
X-3053828Y3837647D01*
X-3064281Y3848100D02*
X-4521200Y3848100D01*
X-4521200Y3848100D02*
X-4724400Y4051300D01*
X-3053828Y3837647D02*
X-3064281Y3848100D01*
X-600720Y3136900D02*
X-1301467Y3837647D01*
X5537200Y-7429500D02*
X7213600Y-7429500D01*
X4775200Y-6667500D02*
X5537200Y-7429500D01*
X2590800Y-6667500D02*
X4775200Y-6667500D01*
X1828800Y-7429500D02*
X2590800Y-6667500D01*
X276860Y-7429500D02*
X1828800Y-7429500D01*
X276860Y-7429500D02*
X276860Y-6390638D01*
X276860Y-6390638D02*
X304798Y-6362700D01*
X-4654551Y3981451D02*
X-4927600Y4254500D01*
X-4631542Y3981451D02*
X-4654551Y3981451D01*
X-9652000Y2019300D02*
X-7874022Y2019300D01*
X-7772400Y2070100D02*
X-7823222Y2070100D01*
X-7874022Y2019300D02*
X-7823222Y2070100D01*
X4620261Y3517899D02*
X3170071Y3517899D01*
X3170071Y3517899D02*
X2783920Y3517899D01*
X4635500Y3502660D02*
X4620261Y3517899D01*
X387351Y3197780D02*
X660400Y3470829D01*
X326471Y3136900D02*
X387351Y3197780D01*
X254000Y3136900D02*
X326471Y3136900D01*
X-214569Y3136900D02*
X-600720Y3136900D01*
X254000Y3136900D02*
X-214569Y3136900D01*
X-9906000Y-63500D02*
X-9652000Y190500D01*
X-9652000Y190500D02*
X-9652000Y2019300D01*
X-10553600Y-471500D02*
X-10518000Y-471500D01*
X-1200000Y7346500D02*
X-1200000Y7296500D01*
X-1200000Y7346500D02*
X-1200000Y7296500D01*
X-10553600Y-471500D02*
X-10518000Y-471500D01*
X-9652000Y190500D02*
X-9652000Y2019300D01*
X-9906000Y-63500D02*
X-9652000Y190500D01*
X-7772400Y2070100D02*
X-7823200Y2019300D01*
X-7823200Y2019300D02*
X-9652000Y2019300D01*
X-10550000Y-293690D02*
X-10550000Y56500D01*
D23*
G04 #@! TO.N,N-0000034*
X-10553600Y-2545949D02*
X-10553600Y-2403500D01*
X-10800000Y-2792349D02*
X-10553600Y-2545949D01*
X-10800000Y-3178500D02*
X-10800000Y-2792349D01*
X-10553600Y-2403500D02*
X-10553600Y-1995500D01*
G04 #@! TO.N,N-000006*
X-10718800Y-4279900D02*
X-11366400Y-3632300D01*
X-11366400Y-3632300D02*
X-11366400Y-1995500D01*
G04 #@! TD*
D26*
G04 #@! TO.N,GND*
G36*
X3323470Y7298422D02*
X3294540Y7341720D01*
X3186156Y7414139D01*
X3058310Y7439569D01*
X1658770Y7439569D01*
X1530924Y7414139D01*
X1422540Y7341720D01*
X1350121Y7233336D01*
X1324691Y7105490D01*
X1324691Y5754992D01*
X1299481Y5780202D01*
X1277659Y5812861D01*
X1148272Y5899315D01*
X1034173Y5922011D01*
X1034169Y5922011D01*
X995649Y5929673D01*
X957129Y5922011D01*
X-159555Y5922011D01*
X-198074Y5929673D01*
X-236593Y5922011D01*
X-236597Y5922011D01*
X-350696Y5899315D01*
X-413979Y5857030D01*
X-447425Y5834683D01*
X-447427Y5834681D01*
X-480083Y5812861D01*
X-501904Y5780204D01*
X-517478Y5764630D01*
X-536991Y5764630D01*
X-536991Y6257130D01*
X-562421Y6384976D01*
X-634840Y6493360D01*
X-743224Y6565779D01*
X-871070Y6591209D01*
X-1412090Y6591209D01*
X-1539936Y6565779D01*
X-1648320Y6493360D01*
X-1720739Y6384976D01*
X-1746169Y6257130D01*
X-1746169Y5457030D01*
X-1728532Y5368360D01*
X-2249841Y5368360D01*
X-2353853Y5472372D01*
X-2573518Y5563360D01*
X-2811282Y5563360D01*
X-3030947Y5472372D01*
X-3199072Y5304247D01*
X-3290060Y5084582D01*
X-3290060Y4846818D01*
X-3271500Y4802009D01*
X-3436885Y4802009D01*
X-3840340Y5205463D01*
X-3840340Y5817341D01*
X-3811328Y5846353D01*
X-3720340Y6066018D01*
X-3720340Y6303782D01*
X-3811328Y6523447D01*
X-3979453Y6691572D01*
X-4199118Y6782560D01*
X-4436882Y6782560D01*
X-4656547Y6691572D01*
X-4824672Y6523447D01*
X-4915660Y6303782D01*
X-4915660Y6066018D01*
X-4824672Y5846353D01*
X-4795660Y5817341D01*
X-4795660Y5751709D01*
X-4795659Y5751705D01*
X-4795659Y5434471D01*
X-5641798Y5434471D01*
X-5637311Y5457030D01*
X-5637311Y6257130D01*
X-5662741Y6384976D01*
X-5735160Y6493360D01*
X-5843544Y6565779D01*
X-5971390Y6591209D01*
X-6512410Y6591209D01*
X-6640256Y6565779D01*
X-6748640Y6493360D01*
X-6821059Y6384976D01*
X-6846489Y6257130D01*
X-6846489Y5457030D01*
X-6824672Y5347348D01*
X-6893762Y5301184D01*
X-6920409Y5261304D01*
X-7245042Y4936670D01*
X-7284924Y4910022D01*
X-7390496Y4752021D01*
X-7418211Y4612689D01*
X-7418211Y4612685D01*
X-7427567Y4565649D01*
X-7418211Y4518613D01*
X-7418210Y1921050D01*
X-7552147Y1865572D01*
X-7720272Y1697447D01*
X-7811260Y1477782D01*
X-7811260Y1436753D01*
X-8788090Y459922D01*
X-8827973Y433273D01*
X-8933545Y275272D01*
X-8961260Y135940D01*
X-8961260Y135936D01*
X-8970616Y88900D01*
X-8961260Y41864D01*
X-8961259Y-2779900D01*
X-8961260Y-2779905D01*
X-8961260Y-2845537D01*
X-8990272Y-2874549D01*
X-9081260Y-3094214D01*
X-9081260Y-3331978D01*
X-8990272Y-3551643D01*
X-8822147Y-3719768D01*
X-8602482Y-3810756D01*
X-8364718Y-3810756D01*
X-8145053Y-3719768D01*
X-7976928Y-3551643D01*
X-7885940Y-3331978D01*
X-7885940Y-3094214D01*
X-7976928Y-2874549D01*
X-8005940Y-2845537D01*
X-8005940Y-2686115D01*
X-5479032Y-2686115D01*
X-5472325Y-2784895D01*
X-5288796Y-2836764D01*
X-5099389Y-2814450D01*
X-5028035Y-2784895D01*
X-5021328Y-2686115D01*
X-4478272Y-2686115D01*
X-4471565Y-2784895D01*
X-4288036Y-2836764D01*
X-4098629Y-2814450D01*
X-4027275Y-2784895D01*
X-4020568Y-2686115D01*
X-3477512Y-2686115D01*
X-3470805Y-2784895D01*
X-3287276Y-2836764D01*
X-3097869Y-2814450D01*
X-3026515Y-2784895D01*
X-3019808Y-2686115D01*
X-3248660Y-2457263D01*
X-3477512Y-2686115D01*
X-4020568Y-2686115D01*
X-4249420Y-2457263D01*
X-4478272Y-2686115D01*
X-5021328Y-2686115D01*
X-5250180Y-2457263D01*
X-5479032Y-2686115D01*
X-8005940Y-2686115D01*
X-8005940Y-2310884D01*
X-5737444Y-2310884D01*
X-5715130Y-2500291D01*
X-5685575Y-2571645D01*
X-5586795Y-2578352D01*
X-5357943Y-2349500D01*
X-5142417Y-2349500D01*
X-4913565Y-2578352D01*
X-4814785Y-2571645D01*
X-4762916Y-2388116D01*
X-4772014Y-2310884D01*
X-4736684Y-2310884D01*
X-4714370Y-2500291D01*
X-4684815Y-2571645D01*
X-4586035Y-2578352D01*
X-4357183Y-2349500D01*
X-4141657Y-2349500D01*
X-3912805Y-2578352D01*
X-3814025Y-2571645D01*
X-3762156Y-2388116D01*
X-3771254Y-2310884D01*
X-3735924Y-2310884D01*
X-3713610Y-2500291D01*
X-3684055Y-2571645D01*
X-3585275Y-2578352D01*
X-3356423Y-2349500D01*
X-3140897Y-2349500D01*
X-2912045Y-2578352D01*
X-2813265Y-2571645D01*
X-2761396Y-2388116D01*
X-2783710Y-2198709D01*
X-2813265Y-2127355D01*
X-2912045Y-2120648D01*
X-3140897Y-2349500D01*
X-3356423Y-2349500D01*
X-3585275Y-2120648D01*
X-3684055Y-2127355D01*
X-3735924Y-2310884D01*
X-3771254Y-2310884D01*
X-3784470Y-2198709D01*
X-3814025Y-2127355D01*
X-3912805Y-2120648D01*
X-4141657Y-2349500D01*
X-4357183Y-2349500D01*
X-4586035Y-2120648D01*
X-4684815Y-2127355D01*
X-4736684Y-2310884D01*
X-4772014Y-2310884D01*
X-4785230Y-2198709D01*
X-4814785Y-2127355D01*
X-4913565Y-2120648D01*
X-5142417Y-2349500D01*
X-5357943Y-2349500D01*
X-5586795Y-2120648D01*
X-5685575Y-2127355D01*
X-5737444Y-2310884D01*
X-8005940Y-2310884D01*
X-8005940Y-2012885D01*
X-5479032Y-2012885D01*
X-5250180Y-2241737D01*
X-5021328Y-2012885D01*
X-4478272Y-2012885D01*
X-4249420Y-2241737D01*
X-4020568Y-2012885D01*
X-3477512Y-2012885D01*
X-3248660Y-2241737D01*
X-3019808Y-2012885D01*
X-3026515Y-1914105D01*
X-3210044Y-1862236D01*
X-3399451Y-1884550D01*
X-3470805Y-1914105D01*
X-3477512Y-2012885D01*
X-4020568Y-2012885D01*
X-4027275Y-1914105D01*
X-4210804Y-1862236D01*
X-4400211Y-1884550D01*
X-4471565Y-1914105D01*
X-4478272Y-2012885D01*
X-5021328Y-2012885D01*
X-5028035Y-1914105D01*
X-5211564Y-1862236D01*
X-5400971Y-1884550D01*
X-5472325Y-1914105D01*
X-5479032Y-2012885D01*
X-8005940Y-2012885D01*
X-8005940Y-1685355D01*
X-5479032Y-1685355D01*
X-5472325Y-1784135D01*
X-5288796Y-1836004D01*
X-5099389Y-1813690D01*
X-5028035Y-1784135D01*
X-5021328Y-1685355D01*
X-4478272Y-1685355D01*
X-4471565Y-1784135D01*
X-4288036Y-1836004D01*
X-4098629Y-1813690D01*
X-4027275Y-1784135D01*
X-4020568Y-1685355D01*
X-3477512Y-1685355D01*
X-3470805Y-1784135D01*
X-3287276Y-1836004D01*
X-3097869Y-1813690D01*
X-3026515Y-1784135D01*
X-3019808Y-1685355D01*
X-3248660Y-1456503D01*
X-3477512Y-1685355D01*
X-4020568Y-1685355D01*
X-4249420Y-1456503D01*
X-4478272Y-1685355D01*
X-5021328Y-1685355D01*
X-5250180Y-1456503D01*
X-5479032Y-1685355D01*
X-8005940Y-1685355D01*
X-8005940Y-1310124D01*
X-5737444Y-1310124D01*
X-5715130Y-1499531D01*
X-5685575Y-1570885D01*
X-5586795Y-1577592D01*
X-5357943Y-1348740D01*
X-5142417Y-1348740D01*
X-4913565Y-1577592D01*
X-4814785Y-1570885D01*
X-4762916Y-1387356D01*
X-4772014Y-1310124D01*
X-4736684Y-1310124D01*
X-4714370Y-1499531D01*
X-4684815Y-1570885D01*
X-4586035Y-1577592D01*
X-4357183Y-1348740D01*
X-4141657Y-1348740D01*
X-3912805Y-1577592D01*
X-3814025Y-1570885D01*
X-3762156Y-1387356D01*
X-3771254Y-1310124D01*
X-3735924Y-1310124D01*
X-3713610Y-1499531D01*
X-3684055Y-1570885D01*
X-3585275Y-1577592D01*
X-3356423Y-1348740D01*
X-3140897Y-1348740D01*
X-2912045Y-1577592D01*
X-2813265Y-1570885D01*
X-2761396Y-1387356D01*
X-2783710Y-1197949D01*
X-2813265Y-1126595D01*
X-2912045Y-1119888D01*
X-3140897Y-1348740D01*
X-3356423Y-1348740D01*
X-3585275Y-1119888D01*
X-3684055Y-1126595D01*
X-3735924Y-1310124D01*
X-3771254Y-1310124D01*
X-3784470Y-1197949D01*
X-3814025Y-1126595D01*
X-3912805Y-1119888D01*
X-4141657Y-1348740D01*
X-4357183Y-1348740D01*
X-4586035Y-1119888D01*
X-4684815Y-1126595D01*
X-4736684Y-1310124D01*
X-4772014Y-1310124D01*
X-4785230Y-1197949D01*
X-4814785Y-1126595D01*
X-4913565Y-1119888D01*
X-5142417Y-1348740D01*
X-5357943Y-1348740D01*
X-5586795Y-1119888D01*
X-5685575Y-1126595D01*
X-5737444Y-1310124D01*
X-8005940Y-1310124D01*
X-8005940Y-1012125D01*
X-5479032Y-1012125D01*
X-5250180Y-1240977D01*
X-5021328Y-1012125D01*
X-4478272Y-1012125D01*
X-4249420Y-1240977D01*
X-4020568Y-1012125D01*
X-3477512Y-1012125D01*
X-3248660Y-1240977D01*
X-3019808Y-1012125D01*
X-3026515Y-913345D01*
X-3210044Y-861476D01*
X-3399451Y-883790D01*
X-3470805Y-913345D01*
X-3477512Y-1012125D01*
X-4020568Y-1012125D01*
X-4027275Y-913345D01*
X-4210804Y-861476D01*
X-4400211Y-883790D01*
X-4471565Y-913345D01*
X-4478272Y-1012125D01*
X-5021328Y-1012125D01*
X-5028035Y-913345D01*
X-5211564Y-861476D01*
X-5400971Y-883790D01*
X-5472325Y-913345D01*
X-5479032Y-1012125D01*
X-8005940Y-1012125D01*
X-8005940Y-684595D01*
X-5479032Y-684595D01*
X-5472325Y-783375D01*
X-5288796Y-835244D01*
X-5099389Y-812930D01*
X-5028035Y-783375D01*
X-5021328Y-684595D01*
X-4478272Y-684595D01*
X-4471565Y-783375D01*
X-4288036Y-835244D01*
X-4098629Y-812930D01*
X-4027275Y-783375D01*
X-4020568Y-684595D01*
X-3477512Y-684595D01*
X-3470805Y-783375D01*
X-3287276Y-835244D01*
X-3097869Y-812930D01*
X-3026515Y-783375D01*
X-3019808Y-684595D01*
X-3248660Y-455743D01*
X-3477512Y-684595D01*
X-4020568Y-684595D01*
X-4249420Y-455743D01*
X-4478272Y-684595D01*
X-5021328Y-684595D01*
X-5250180Y-455743D01*
X-5479032Y-684595D01*
X-8005940Y-684595D01*
X-8005940Y-309364D01*
X-5737444Y-309364D01*
X-5715130Y-498771D01*
X-5685575Y-570125D01*
X-5586795Y-576832D01*
X-5357943Y-347980D01*
X-5142417Y-347980D01*
X-4913565Y-576832D01*
X-4814785Y-570125D01*
X-4762916Y-386596D01*
X-4772014Y-309364D01*
X-4736684Y-309364D01*
X-4714370Y-498771D01*
X-4684815Y-570125D01*
X-4586035Y-576832D01*
X-4357183Y-347980D01*
X-4141657Y-347980D01*
X-3912805Y-576832D01*
X-3814025Y-570125D01*
X-3762156Y-386596D01*
X-3771254Y-309364D01*
X-3735924Y-309364D01*
X-3713610Y-498771D01*
X-3684055Y-570125D01*
X-3585275Y-576832D01*
X-3356423Y-347980D01*
X-3140897Y-347980D01*
X-2912045Y-576832D01*
X-2813265Y-570125D01*
X-2761396Y-386596D01*
X-2783710Y-197189D01*
X-2813265Y-125835D01*
X-2912045Y-119128D01*
X-3140897Y-347980D01*
X-3356423Y-347980D01*
X-3585275Y-119128D01*
X-3684055Y-125835D01*
X-3735924Y-309364D01*
X-3771254Y-309364D01*
X-3784470Y-197189D01*
X-3814025Y-125835D01*
X-3912805Y-119128D01*
X-4141657Y-347980D01*
X-4357183Y-347980D01*
X-4586035Y-119128D01*
X-4684815Y-125835D01*
X-4736684Y-309364D01*
X-4772014Y-309364D01*
X-4785230Y-197189D01*
X-4814785Y-125835D01*
X-4913565Y-119128D01*
X-5142417Y-347980D01*
X-5357943Y-347980D01*
X-5586795Y-119128D01*
X-5685575Y-125835D01*
X-5737444Y-309364D01*
X-8005940Y-309364D01*
X-8005940Y-108952D01*
X-7908353Y-11365D01*
X-5479032Y-11365D01*
X-5250180Y-240217D01*
X-5021328Y-11365D01*
X-4478272Y-11365D01*
X-4249420Y-240217D01*
X-4020568Y-11365D01*
X-3477512Y-11365D01*
X-3248660Y-240217D01*
X-3019808Y-11365D01*
X-3026515Y87415D01*
X-3210044Y139284D01*
X-3399451Y116970D01*
X-3470805Y87415D01*
X-3477512Y-11365D01*
X-4020568Y-11365D01*
X-4027275Y87415D01*
X-4210804Y139284D01*
X-4400211Y116970D01*
X-4471565Y87415D01*
X-4478272Y-11365D01*
X-5021328Y-11365D01*
X-5028035Y87415D01*
X-5211564Y139284D01*
X-5400971Y116970D01*
X-5472325Y87415D01*
X-5479032Y-11365D01*
X-7908353Y-11365D01*
X-7135747Y761240D01*
X-7094718Y761240D01*
X-6875053Y852228D01*
X-6706928Y1020353D01*
X-6615940Y1240018D01*
X-6615940Y1274371D01*
X-6596178Y1287576D01*
X-6504275Y1425119D01*
X-6490606Y1445575D01*
X-6453534Y1631949D01*
X-6462891Y1678990D01*
X-6462891Y4367797D01*
X-6351536Y4479151D01*
X-4465052Y4479151D01*
X-3939232Y3953330D01*
X-3821112Y3874405D01*
X-3634739Y3837333D01*
X-3587703Y3846689D01*
X-3430488Y3846689D01*
X-3589747Y3780722D01*
X-3757872Y3612597D01*
X-3848860Y3392932D01*
X-3848860Y3155166D01*
X-3758697Y2937492D01*
X-3848860Y2719819D01*
X-3848860Y2574582D01*
X-3873377Y2590964D01*
X-3987476Y2613660D01*
X-3987480Y2613660D01*
X-4026000Y2621322D01*
X-4064520Y2613660D01*
X-4321141Y2613660D01*
X-4436653Y2729172D01*
X-4656318Y2820160D01*
X-4894082Y2820160D01*
X-5113747Y2729172D01*
X-5281872Y2561047D01*
X-5372860Y2341382D01*
X-5372860Y2103618D01*
X-5281872Y1883953D01*
X-5113747Y1715828D01*
X-4894082Y1624840D01*
X-4656318Y1624840D01*
X-4436653Y1715828D01*
X-4321141Y1831340D01*
X-4188023Y1831340D01*
X-4056782Y1700098D01*
X-4034961Y1667441D01*
X-4002305Y1645621D01*
X-4002303Y1645619D01*
X-3933206Y1599450D01*
X-3905574Y1580987D01*
X-3791475Y1558291D01*
X-3791471Y1558291D01*
X-3752951Y1550629D01*
X-3714431Y1558291D01*
X-1158974Y1558291D01*
X-594360Y993676D01*
X-594359Y-2323340D01*
X-785642Y-2323340D01*
X-1005307Y-2414328D01*
X-1173432Y-2582453D01*
X-1264420Y-2802118D01*
X-1264420Y-3039882D01*
X-1173432Y-3259547D01*
X-1057919Y-3375060D01*
X-1057920Y-4238536D01*
X-1495523Y-4676140D01*
X-4347730Y-4676140D01*
X-4386250Y-4668478D01*
X-4424770Y-4676140D01*
X-4424774Y-4676140D01*
X-4538873Y-4698836D01*
X-4635602Y-4763468D01*
X-4635604Y-4763470D01*
X-4668260Y-4785290D01*
X-4690080Y-4817947D01*
X-6322493Y-6450360D01*
X-6355149Y-6472180D01*
X-6376969Y-6504836D01*
X-6376972Y-6504839D01*
X-6380495Y-6510111D01*
X-6391760Y-6510111D01*
X-6519606Y-6535541D01*
X-6627990Y-6607960D01*
X-6700409Y-6716344D01*
X-6725839Y-6844190D01*
X-6725839Y-7826970D01*
X-11948470Y-7826970D01*
X-11948470Y-1745310D01*
X-11925269Y-1745310D01*
X-11925269Y-2245690D01*
X-11899839Y-2373536D01*
X-11827420Y-2481920D01*
X-11757559Y-2528599D01*
X-11757560Y-3593780D01*
X-11765222Y-3632300D01*
X-11757560Y-3670820D01*
X-11757560Y-3670823D01*
X-11734864Y-3784922D01*
X-11648410Y-3914310D01*
X-11615751Y-3936132D01*
X-11316460Y-4235424D01*
X-11316460Y-4398782D01*
X-11225472Y-4618447D01*
X-11057347Y-4786572D01*
X-10837682Y-4877560D01*
X-10599918Y-4877560D01*
X-10450749Y-4815772D01*
X-10450749Y-5844700D01*
X-10425319Y-5972546D01*
X-10352900Y-6080930D01*
X-10244516Y-6153349D01*
X-10116670Y-6178779D01*
X-9667090Y-6178779D01*
X-9539244Y-6153349D01*
X-9430860Y-6080930D01*
X-9358441Y-5972546D01*
X-9333011Y-5844700D01*
X-9333011Y-4544220D01*
X-9358441Y-4416374D01*
X-9430860Y-4307990D01*
X-9539244Y-4235571D01*
X-9667090Y-4210141D01*
X-10116670Y-4210141D01*
X-10121140Y-4211030D01*
X-10121140Y-4176370D01*
X-10116670Y-4177259D01*
X-9667090Y-4177259D01*
X-9539244Y-4151829D01*
X-9430860Y-4079410D01*
X-9358441Y-3971026D01*
X-9333011Y-3843180D01*
X-9333011Y-2542700D01*
X-9358441Y-2414854D01*
X-9430860Y-2306470D01*
X-9539244Y-2234051D01*
X-9667090Y-2208621D01*
X-9994731Y-2208621D01*
X-9994731Y-1745310D01*
X-10020161Y-1617464D01*
X-10092580Y-1509080D01*
X-10200964Y-1436661D01*
X-10328810Y-1411231D01*
X-10778390Y-1411231D01*
X-10906236Y-1436661D01*
X-10960000Y-1472585D01*
X-11013764Y-1436661D01*
X-11141610Y-1411231D01*
X-11591190Y-1411231D01*
X-11719036Y-1436661D01*
X-11827420Y-1509080D01*
X-11899839Y-1617464D01*
X-11925269Y-1745310D01*
X-11948470Y-1745310D01*
X-11948470Y-221310D01*
X-11924596Y-221310D01*
X-11924596Y-721690D01*
X-11899217Y-849279D01*
X-11826944Y-957444D01*
X-11718779Y-1029717D01*
X-11591190Y-1055096D01*
X-11141610Y-1055096D01*
X-11014021Y-1029717D01*
X-10960000Y-993622D01*
X-10905979Y-1029717D01*
X-10778390Y-1055096D01*
X-10328810Y-1055096D01*
X-10201221Y-1029717D01*
X-10093056Y-957444D01*
X-10020783Y-849279D01*
X-9995404Y-721690D01*
X-9995404Y-221310D01*
X-10020783Y-93721D01*
X-10093056Y14444D01*
X-10201221Y86717D01*
X-10328810Y112096D01*
X-10778390Y112096D01*
X-10905979Y86717D01*
X-10960000Y50622D01*
X-11014021Y86717D01*
X-11141610Y112096D01*
X-11591190Y112096D01*
X-11718779Y86717D01*
X-11826944Y14444D01*
X-11899217Y-93721D01*
X-11924596Y-221310D01*
X-11948470Y-221310D01*
X-11948470Y6768258D01*
X-11795167Y6614955D01*
X-11564718Y6519500D01*
X-11315282Y6519500D01*
X-11084833Y6614955D01*
X-10908455Y6791333D01*
X-10874929Y6872272D01*
X-10874929Y5507830D01*
X-10849499Y5379984D01*
X-10777080Y5271600D01*
X-10668696Y5199181D01*
X-10540850Y5173751D01*
X-9141310Y5173751D01*
X-9013464Y5199181D01*
X-8905080Y5271600D01*
X-8832661Y5379984D01*
X-8807231Y5507830D01*
X-8807231Y7207090D01*
X-8832661Y7334936D01*
X-8905080Y7443320D01*
X-9013464Y7515739D01*
X-9141310Y7541169D01*
X-10540850Y7541169D01*
X-10668696Y7515739D01*
X-10777080Y7443320D01*
X-10843260Y7344273D01*
X-10908455Y7501667D01*
X-11084833Y7678045D01*
X-11315282Y7773500D01*
X-11564718Y7773500D01*
X-11795167Y7678045D01*
X-11948470Y7524742D01*
X-11948470Y7794970D01*
X3323471Y7794970D01*
X3323470Y7298422D01*
X3323470Y7298422D01*
G37*
X3323470Y7298422D02*
X3294540Y7341720D01*
X3186156Y7414139D01*
X3058310Y7439569D01*
X1658770Y7439569D01*
X1530924Y7414139D01*
X1422540Y7341720D01*
X1350121Y7233336D01*
X1324691Y7105490D01*
X1324691Y5754992D01*
X1299481Y5780202D01*
X1277659Y5812861D01*
X1148272Y5899315D01*
X1034173Y5922011D01*
X1034169Y5922011D01*
X995649Y5929673D01*
X957129Y5922011D01*
X-159555Y5922011D01*
X-198074Y5929673D01*
X-236593Y5922011D01*
X-236597Y5922011D01*
X-350696Y5899315D01*
X-413979Y5857030D01*
X-447425Y5834683D01*
X-447427Y5834681D01*
X-480083Y5812861D01*
X-501904Y5780204D01*
X-517478Y5764630D01*
X-536991Y5764630D01*
X-536991Y6257130D01*
X-562421Y6384976D01*
X-634840Y6493360D01*
X-743224Y6565779D01*
X-871070Y6591209D01*
X-1412090Y6591209D01*
X-1539936Y6565779D01*
X-1648320Y6493360D01*
X-1720739Y6384976D01*
X-1746169Y6257130D01*
X-1746169Y5457030D01*
X-1728532Y5368360D01*
X-2249841Y5368360D01*
X-2353853Y5472372D01*
X-2573518Y5563360D01*
X-2811282Y5563360D01*
X-3030947Y5472372D01*
X-3199072Y5304247D01*
X-3290060Y5084582D01*
X-3290060Y4846818D01*
X-3271500Y4802009D01*
X-3436885Y4802009D01*
X-3840340Y5205463D01*
X-3840340Y5817341D01*
X-3811328Y5846353D01*
X-3720340Y6066018D01*
X-3720340Y6303782D01*
X-3811328Y6523447D01*
X-3979453Y6691572D01*
X-4199118Y6782560D01*
X-4436882Y6782560D01*
X-4656547Y6691572D01*
X-4824672Y6523447D01*
X-4915660Y6303782D01*
X-4915660Y6066018D01*
X-4824672Y5846353D01*
X-4795660Y5817341D01*
X-4795660Y5751709D01*
X-4795659Y5751705D01*
X-4795659Y5434471D01*
X-5641798Y5434471D01*
X-5637311Y5457030D01*
X-5637311Y6257130D01*
X-5662741Y6384976D01*
X-5735160Y6493360D01*
X-5843544Y6565779D01*
X-5971390Y6591209D01*
X-6512410Y6591209D01*
X-6640256Y6565779D01*
X-6748640Y6493360D01*
X-6821059Y6384976D01*
X-6846489Y6257130D01*
X-6846489Y5457030D01*
X-6824672Y5347348D01*
X-6893762Y5301184D01*
X-6920409Y5261304D01*
X-7245042Y4936670D01*
X-7284924Y4910022D01*
X-7390496Y4752021D01*
X-7418211Y4612689D01*
X-7418211Y4612685D01*
X-7427567Y4565649D01*
X-7418211Y4518613D01*
X-7418210Y1921050D01*
X-7552147Y1865572D01*
X-7720272Y1697447D01*
X-7811260Y1477782D01*
X-7811260Y1436753D01*
X-8788090Y459922D01*
X-8827973Y433273D01*
X-8933545Y275272D01*
X-8961260Y135940D01*
X-8961260Y135936D01*
X-8970616Y88900D01*
X-8961260Y41864D01*
X-8961259Y-2779900D01*
X-8961260Y-2779905D01*
X-8961260Y-2845537D01*
X-8990272Y-2874549D01*
X-9081260Y-3094214D01*
X-9081260Y-3331978D01*
X-8990272Y-3551643D01*
X-8822147Y-3719768D01*
X-8602482Y-3810756D01*
X-8364718Y-3810756D01*
X-8145053Y-3719768D01*
X-7976928Y-3551643D01*
X-7885940Y-3331978D01*
X-7885940Y-3094214D01*
X-7976928Y-2874549D01*
X-8005940Y-2845537D01*
X-8005940Y-2686115D01*
X-5479032Y-2686115D01*
X-5472325Y-2784895D01*
X-5288796Y-2836764D01*
X-5099389Y-2814450D01*
X-5028035Y-2784895D01*
X-5021328Y-2686115D01*
X-4478272Y-2686115D01*
X-4471565Y-2784895D01*
X-4288036Y-2836764D01*
X-4098629Y-2814450D01*
X-4027275Y-2784895D01*
X-4020568Y-2686115D01*
X-3477512Y-2686115D01*
X-3470805Y-2784895D01*
X-3287276Y-2836764D01*
X-3097869Y-2814450D01*
X-3026515Y-2784895D01*
X-3019808Y-2686115D01*
X-3248660Y-2457263D01*
X-3477512Y-2686115D01*
X-4020568Y-2686115D01*
X-4249420Y-2457263D01*
X-4478272Y-2686115D01*
X-5021328Y-2686115D01*
X-5250180Y-2457263D01*
X-5479032Y-2686115D01*
X-8005940Y-2686115D01*
X-8005940Y-2310884D01*
X-5737444Y-2310884D01*
X-5715130Y-2500291D01*
X-5685575Y-2571645D01*
X-5586795Y-2578352D01*
X-5357943Y-2349500D01*
X-5142417Y-2349500D01*
X-4913565Y-2578352D01*
X-4814785Y-2571645D01*
X-4762916Y-2388116D01*
X-4772014Y-2310884D01*
X-4736684Y-2310884D01*
X-4714370Y-2500291D01*
X-4684815Y-2571645D01*
X-4586035Y-2578352D01*
X-4357183Y-2349500D01*
X-4141657Y-2349500D01*
X-3912805Y-2578352D01*
X-3814025Y-2571645D01*
X-3762156Y-2388116D01*
X-3771254Y-2310884D01*
X-3735924Y-2310884D01*
X-3713610Y-2500291D01*
X-3684055Y-2571645D01*
X-3585275Y-2578352D01*
X-3356423Y-2349500D01*
X-3140897Y-2349500D01*
X-2912045Y-2578352D01*
X-2813265Y-2571645D01*
X-2761396Y-2388116D01*
X-2783710Y-2198709D01*
X-2813265Y-2127355D01*
X-2912045Y-2120648D01*
X-3140897Y-2349500D01*
X-3356423Y-2349500D01*
X-3585275Y-2120648D01*
X-3684055Y-2127355D01*
X-3735924Y-2310884D01*
X-3771254Y-2310884D01*
X-3784470Y-2198709D01*
X-3814025Y-2127355D01*
X-3912805Y-2120648D01*
X-4141657Y-2349500D01*
X-4357183Y-2349500D01*
X-4586035Y-2120648D01*
X-4684815Y-2127355D01*
X-4736684Y-2310884D01*
X-4772014Y-2310884D01*
X-4785230Y-2198709D01*
X-4814785Y-2127355D01*
X-4913565Y-2120648D01*
X-5142417Y-2349500D01*
X-5357943Y-2349500D01*
X-5586795Y-2120648D01*
X-5685575Y-2127355D01*
X-5737444Y-2310884D01*
X-8005940Y-2310884D01*
X-8005940Y-2012885D01*
X-5479032Y-2012885D01*
X-5250180Y-2241737D01*
X-5021328Y-2012885D01*
X-4478272Y-2012885D01*
X-4249420Y-2241737D01*
X-4020568Y-2012885D01*
X-3477512Y-2012885D01*
X-3248660Y-2241737D01*
X-3019808Y-2012885D01*
X-3026515Y-1914105D01*
X-3210044Y-1862236D01*
X-3399451Y-1884550D01*
X-3470805Y-1914105D01*
X-3477512Y-2012885D01*
X-4020568Y-2012885D01*
X-4027275Y-1914105D01*
X-4210804Y-1862236D01*
X-4400211Y-1884550D01*
X-4471565Y-1914105D01*
X-4478272Y-2012885D01*
X-5021328Y-2012885D01*
X-5028035Y-1914105D01*
X-5211564Y-1862236D01*
X-5400971Y-1884550D01*
X-5472325Y-1914105D01*
X-5479032Y-2012885D01*
X-8005940Y-2012885D01*
X-8005940Y-1685355D01*
X-5479032Y-1685355D01*
X-5472325Y-1784135D01*
X-5288796Y-1836004D01*
X-5099389Y-1813690D01*
X-5028035Y-1784135D01*
X-5021328Y-1685355D01*
X-4478272Y-1685355D01*
X-4471565Y-1784135D01*
X-4288036Y-1836004D01*
X-4098629Y-1813690D01*
X-4027275Y-1784135D01*
X-4020568Y-1685355D01*
X-3477512Y-1685355D01*
X-3470805Y-1784135D01*
X-3287276Y-1836004D01*
X-3097869Y-1813690D01*
X-3026515Y-1784135D01*
X-3019808Y-1685355D01*
X-3248660Y-1456503D01*
X-3477512Y-1685355D01*
X-4020568Y-1685355D01*
X-4249420Y-1456503D01*
X-4478272Y-1685355D01*
X-5021328Y-1685355D01*
X-5250180Y-1456503D01*
X-5479032Y-1685355D01*
X-8005940Y-1685355D01*
X-8005940Y-1310124D01*
X-5737444Y-1310124D01*
X-5715130Y-1499531D01*
X-5685575Y-1570885D01*
X-5586795Y-1577592D01*
X-5357943Y-1348740D01*
X-5142417Y-1348740D01*
X-4913565Y-1577592D01*
X-4814785Y-1570885D01*
X-4762916Y-1387356D01*
X-4772014Y-1310124D01*
X-4736684Y-1310124D01*
X-4714370Y-1499531D01*
X-4684815Y-1570885D01*
X-4586035Y-1577592D01*
X-4357183Y-1348740D01*
X-4141657Y-1348740D01*
X-3912805Y-1577592D01*
X-3814025Y-1570885D01*
X-3762156Y-1387356D01*
X-3771254Y-1310124D01*
X-3735924Y-1310124D01*
X-3713610Y-1499531D01*
X-3684055Y-1570885D01*
X-3585275Y-1577592D01*
X-3356423Y-1348740D01*
X-3140897Y-1348740D01*
X-2912045Y-1577592D01*
X-2813265Y-1570885D01*
X-2761396Y-1387356D01*
X-2783710Y-1197949D01*
X-2813265Y-1126595D01*
X-2912045Y-1119888D01*
X-3140897Y-1348740D01*
X-3356423Y-1348740D01*
X-3585275Y-1119888D01*
X-3684055Y-1126595D01*
X-3735924Y-1310124D01*
X-3771254Y-1310124D01*
X-3784470Y-1197949D01*
X-3814025Y-1126595D01*
X-3912805Y-1119888D01*
X-4141657Y-1348740D01*
X-4357183Y-1348740D01*
X-4586035Y-1119888D01*
X-4684815Y-1126595D01*
X-4736684Y-1310124D01*
X-4772014Y-1310124D01*
X-4785230Y-1197949D01*
X-4814785Y-1126595D01*
X-4913565Y-1119888D01*
X-5142417Y-1348740D01*
X-5357943Y-1348740D01*
X-5586795Y-1119888D01*
X-5685575Y-1126595D01*
X-5737444Y-1310124D01*
X-8005940Y-1310124D01*
X-8005940Y-1012125D01*
X-5479032Y-1012125D01*
X-5250180Y-1240977D01*
X-5021328Y-1012125D01*
X-4478272Y-1012125D01*
X-4249420Y-1240977D01*
X-4020568Y-1012125D01*
X-3477512Y-1012125D01*
X-3248660Y-1240977D01*
X-3019808Y-1012125D01*
X-3026515Y-913345D01*
X-3210044Y-861476D01*
X-3399451Y-883790D01*
X-3470805Y-913345D01*
X-3477512Y-1012125D01*
X-4020568Y-1012125D01*
X-4027275Y-913345D01*
X-4210804Y-861476D01*
X-4400211Y-883790D01*
X-4471565Y-913345D01*
X-4478272Y-1012125D01*
X-5021328Y-1012125D01*
X-5028035Y-913345D01*
X-5211564Y-861476D01*
X-5400971Y-883790D01*
X-5472325Y-913345D01*
X-5479032Y-1012125D01*
X-8005940Y-1012125D01*
X-8005940Y-684595D01*
X-5479032Y-684595D01*
X-5472325Y-783375D01*
X-5288796Y-835244D01*
X-5099389Y-812930D01*
X-5028035Y-783375D01*
X-5021328Y-684595D01*
X-4478272Y-684595D01*
X-4471565Y-783375D01*
X-4288036Y-835244D01*
X-4098629Y-812930D01*
X-4027275Y-783375D01*
X-4020568Y-684595D01*
X-3477512Y-684595D01*
X-3470805Y-783375D01*
X-3287276Y-835244D01*
X-3097869Y-812930D01*
X-3026515Y-783375D01*
X-3019808Y-684595D01*
X-3248660Y-455743D01*
X-3477512Y-684595D01*
X-4020568Y-684595D01*
X-4249420Y-455743D01*
X-4478272Y-684595D01*
X-5021328Y-684595D01*
X-5250180Y-455743D01*
X-5479032Y-684595D01*
X-8005940Y-684595D01*
X-8005940Y-309364D01*
X-5737444Y-309364D01*
X-5715130Y-498771D01*
X-5685575Y-570125D01*
X-5586795Y-576832D01*
X-5357943Y-347980D01*
X-5142417Y-347980D01*
X-4913565Y-576832D01*
X-4814785Y-570125D01*
X-4762916Y-386596D01*
X-4772014Y-309364D01*
X-4736684Y-309364D01*
X-4714370Y-498771D01*
X-4684815Y-570125D01*
X-4586035Y-576832D01*
X-4357183Y-347980D01*
X-4141657Y-347980D01*
X-3912805Y-576832D01*
X-3814025Y-570125D01*
X-3762156Y-386596D01*
X-3771254Y-309364D01*
X-3735924Y-309364D01*
X-3713610Y-498771D01*
X-3684055Y-570125D01*
X-3585275Y-576832D01*
X-3356423Y-347980D01*
X-3140897Y-347980D01*
X-2912045Y-576832D01*
X-2813265Y-570125D01*
X-2761396Y-386596D01*
X-2783710Y-197189D01*
X-2813265Y-125835D01*
X-2912045Y-119128D01*
X-3140897Y-347980D01*
X-3356423Y-347980D01*
X-3585275Y-119128D01*
X-3684055Y-125835D01*
X-3735924Y-309364D01*
X-3771254Y-309364D01*
X-3784470Y-197189D01*
X-3814025Y-125835D01*
X-3912805Y-119128D01*
X-4141657Y-347980D01*
X-4357183Y-347980D01*
X-4586035Y-119128D01*
X-4684815Y-125835D01*
X-4736684Y-309364D01*
X-4772014Y-309364D01*
X-4785230Y-197189D01*
X-4814785Y-125835D01*
X-4913565Y-119128D01*
X-5142417Y-347980D01*
X-5357943Y-347980D01*
X-5586795Y-119128D01*
X-5685575Y-125835D01*
X-5737444Y-309364D01*
X-8005940Y-309364D01*
X-8005940Y-108952D01*
X-7908353Y-11365D01*
X-5479032Y-11365D01*
X-5250180Y-240217D01*
X-5021328Y-11365D01*
X-4478272Y-11365D01*
X-4249420Y-240217D01*
X-4020568Y-11365D01*
X-3477512Y-11365D01*
X-3248660Y-240217D01*
X-3019808Y-11365D01*
X-3026515Y87415D01*
X-3210044Y139284D01*
X-3399451Y116970D01*
X-3470805Y87415D01*
X-3477512Y-11365D01*
X-4020568Y-11365D01*
X-4027275Y87415D01*
X-4210804Y139284D01*
X-4400211Y116970D01*
X-4471565Y87415D01*
X-4478272Y-11365D01*
X-5021328Y-11365D01*
X-5028035Y87415D01*
X-5211564Y139284D01*
X-5400971Y116970D01*
X-5472325Y87415D01*
X-5479032Y-11365D01*
X-7908353Y-11365D01*
X-7135747Y761240D01*
X-7094718Y761240D01*
X-6875053Y852228D01*
X-6706928Y1020353D01*
X-6615940Y1240018D01*
X-6615940Y1274371D01*
X-6596178Y1287576D01*
X-6504275Y1425119D01*
X-6490606Y1445575D01*
X-6453534Y1631949D01*
X-6462891Y1678990D01*
X-6462891Y4367797D01*
X-6351536Y4479151D01*
X-4465052Y4479151D01*
X-3939232Y3953330D01*
X-3821112Y3874405D01*
X-3634739Y3837333D01*
X-3587703Y3846689D01*
X-3430488Y3846689D01*
X-3589747Y3780722D01*
X-3757872Y3612597D01*
X-3848860Y3392932D01*
X-3848860Y3155166D01*
X-3758697Y2937492D01*
X-3848860Y2719819D01*
X-3848860Y2574582D01*
X-3873377Y2590964D01*
X-3987476Y2613660D01*
X-3987480Y2613660D01*
X-4026000Y2621322D01*
X-4064520Y2613660D01*
X-4321141Y2613660D01*
X-4436653Y2729172D01*
X-4656318Y2820160D01*
X-4894082Y2820160D01*
X-5113747Y2729172D01*
X-5281872Y2561047D01*
X-5372860Y2341382D01*
X-5372860Y2103618D01*
X-5281872Y1883953D01*
X-5113747Y1715828D01*
X-4894082Y1624840D01*
X-4656318Y1624840D01*
X-4436653Y1715828D01*
X-4321141Y1831340D01*
X-4188023Y1831340D01*
X-4056782Y1700098D01*
X-4034961Y1667441D01*
X-4002305Y1645621D01*
X-4002303Y1645619D01*
X-3933206Y1599450D01*
X-3905574Y1580987D01*
X-3791475Y1558291D01*
X-3791471Y1558291D01*
X-3752951Y1550629D01*
X-3714431Y1558291D01*
X-1158974Y1558291D01*
X-594360Y993676D01*
X-594359Y-2323340D01*
X-785642Y-2323340D01*
X-1005307Y-2414328D01*
X-1173432Y-2582453D01*
X-1264420Y-2802118D01*
X-1264420Y-3039882D01*
X-1173432Y-3259547D01*
X-1057919Y-3375060D01*
X-1057920Y-4238536D01*
X-1495523Y-4676140D01*
X-4347730Y-4676140D01*
X-4386250Y-4668478D01*
X-4424770Y-4676140D01*
X-4424774Y-4676140D01*
X-4538873Y-4698836D01*
X-4635602Y-4763468D01*
X-4635604Y-4763470D01*
X-4668260Y-4785290D01*
X-4690080Y-4817947D01*
X-6322493Y-6450360D01*
X-6355149Y-6472180D01*
X-6376969Y-6504836D01*
X-6376972Y-6504839D01*
X-6380495Y-6510111D01*
X-6391760Y-6510111D01*
X-6519606Y-6535541D01*
X-6627990Y-6607960D01*
X-6700409Y-6716344D01*
X-6725839Y-6844190D01*
X-6725839Y-7826970D01*
X-11948470Y-7826970D01*
X-11948470Y-1745310D01*
X-11925269Y-1745310D01*
X-11925269Y-2245690D01*
X-11899839Y-2373536D01*
X-11827420Y-2481920D01*
X-11757559Y-2528599D01*
X-11757560Y-3593780D01*
X-11765222Y-3632300D01*
X-11757560Y-3670820D01*
X-11757560Y-3670823D01*
X-11734864Y-3784922D01*
X-11648410Y-3914310D01*
X-11615751Y-3936132D01*
X-11316460Y-4235424D01*
X-11316460Y-4398782D01*
X-11225472Y-4618447D01*
X-11057347Y-4786572D01*
X-10837682Y-4877560D01*
X-10599918Y-4877560D01*
X-10450749Y-4815772D01*
X-10450749Y-5844700D01*
X-10425319Y-5972546D01*
X-10352900Y-6080930D01*
X-10244516Y-6153349D01*
X-10116670Y-6178779D01*
X-9667090Y-6178779D01*
X-9539244Y-6153349D01*
X-9430860Y-6080930D01*
X-9358441Y-5972546D01*
X-9333011Y-5844700D01*
X-9333011Y-4544220D01*
X-9358441Y-4416374D01*
X-9430860Y-4307990D01*
X-9539244Y-4235571D01*
X-9667090Y-4210141D01*
X-10116670Y-4210141D01*
X-10121140Y-4211030D01*
X-10121140Y-4176370D01*
X-10116670Y-4177259D01*
X-9667090Y-4177259D01*
X-9539244Y-4151829D01*
X-9430860Y-4079410D01*
X-9358441Y-3971026D01*
X-9333011Y-3843180D01*
X-9333011Y-2542700D01*
X-9358441Y-2414854D01*
X-9430860Y-2306470D01*
X-9539244Y-2234051D01*
X-9667090Y-2208621D01*
X-9994731Y-2208621D01*
X-9994731Y-1745310D01*
X-10020161Y-1617464D01*
X-10092580Y-1509080D01*
X-10200964Y-1436661D01*
X-10328810Y-1411231D01*
X-10778390Y-1411231D01*
X-10906236Y-1436661D01*
X-10960000Y-1472585D01*
X-11013764Y-1436661D01*
X-11141610Y-1411231D01*
X-11591190Y-1411231D01*
X-11719036Y-1436661D01*
X-11827420Y-1509080D01*
X-11899839Y-1617464D01*
X-11925269Y-1745310D01*
X-11948470Y-1745310D01*
X-11948470Y-221310D01*
X-11924596Y-221310D01*
X-11924596Y-721690D01*
X-11899217Y-849279D01*
X-11826944Y-957444D01*
X-11718779Y-1029717D01*
X-11591190Y-1055096D01*
X-11141610Y-1055096D01*
X-11014021Y-1029717D01*
X-10960000Y-993622D01*
X-10905979Y-1029717D01*
X-10778390Y-1055096D01*
X-10328810Y-1055096D01*
X-10201221Y-1029717D01*
X-10093056Y-957444D01*
X-10020783Y-849279D01*
X-9995404Y-721690D01*
X-9995404Y-221310D01*
X-10020783Y-93721D01*
X-10093056Y14444D01*
X-10201221Y86717D01*
X-10328810Y112096D01*
X-10778390Y112096D01*
X-10905979Y86717D01*
X-10960000Y50622D01*
X-11014021Y86717D01*
X-11141610Y112096D01*
X-11591190Y112096D01*
X-11718779Y86717D01*
X-11826944Y14444D01*
X-11899217Y-93721D01*
X-11924596Y-221310D01*
X-11948470Y-221310D01*
X-11948470Y6768258D01*
X-11795167Y6614955D01*
X-11564718Y6519500D01*
X-11315282Y6519500D01*
X-11084833Y6614955D01*
X-10908455Y6791333D01*
X-10874929Y6872272D01*
X-10874929Y5507830D01*
X-10849499Y5379984D01*
X-10777080Y5271600D01*
X-10668696Y5199181D01*
X-10540850Y5173751D01*
X-9141310Y5173751D01*
X-9013464Y5199181D01*
X-8905080Y5271600D01*
X-8832661Y5379984D01*
X-8807231Y5507830D01*
X-8807231Y7207090D01*
X-8832661Y7334936D01*
X-8905080Y7443320D01*
X-9013464Y7515739D01*
X-9141310Y7541169D01*
X-10540850Y7541169D01*
X-10668696Y7515739D01*
X-10777080Y7443320D01*
X-10843260Y7344273D01*
X-10908455Y7501667D01*
X-11084833Y7678045D01*
X-11315282Y7773500D01*
X-11564718Y7773500D01*
X-11795167Y7678045D01*
X-11948470Y7524742D01*
X-11948470Y7794970D01*
X3323471Y7794970D01*
X3323470Y7298422D01*
G36*
X-11254005Y-346405D02*
X-11219400Y-346405D01*
X-11219400Y-596595D01*
X-11254005Y-596595D01*
X-11254005Y-618500D01*
X-11478795Y-618500D01*
X-11478795Y-596595D01*
X-11513400Y-596595D01*
X-11513400Y-346405D01*
X-11478795Y-346405D01*
X-11478795Y-324500D01*
X-11254005Y-324500D01*
X-11254005Y-346405D01*
X-11254005Y-346405D01*
G37*
X-11254005Y-346405D02*
X-11219400Y-346405D01*
X-11219400Y-596595D01*
X-11254005Y-596595D01*
X-11254005Y-618500D01*
X-11478795Y-618500D01*
X-11478795Y-596595D01*
X-11513400Y-596595D01*
X-11513400Y-346405D01*
X-11478795Y-346405D01*
X-11478795Y-324500D01*
X-11254005Y-324500D01*
X-11254005Y-346405D01*
G36*
X-10441205Y-346405D02*
X-10406600Y-346405D01*
X-10406600Y-596595D01*
X-10441205Y-596595D01*
X-10441205Y-618500D01*
X-10665995Y-618500D01*
X-10665995Y-596595D01*
X-10700600Y-596595D01*
X-10700600Y-346405D01*
X-10665995Y-346405D01*
X-10665995Y-324500D01*
X-10441205Y-324500D01*
X-10441205Y-346405D01*
X-10441205Y-346405D01*
G37*
X-10441205Y-346405D02*
X-10406600Y-346405D01*
X-10406600Y-596595D01*
X-10441205Y-596595D01*
X-10441205Y-618500D01*
X-10665995Y-618500D01*
X-10665995Y-596595D01*
X-10700600Y-596595D01*
X-10700600Y-346405D01*
X-10665995Y-346405D01*
X-10665995Y-324500D01*
X-10441205Y-324500D01*
X-10441205Y-346405D01*
G36*
X9173070Y-7195152D02*
X9091545Y-6998333D01*
X8915167Y-6821955D01*
X8684718Y-6726500D01*
X8435282Y-6726500D01*
X8204833Y-6821955D01*
X8028455Y-6998333D01*
X7933000Y-7228782D01*
X7933000Y-7478218D01*
X8028455Y-7708667D01*
X8146758Y-7826970D01*
X4676530Y-7826970D01*
X4676530Y-7135659D01*
X4682927Y-7103500D01*
X4657584Y-6976094D01*
X4585415Y-6868085D01*
X4477406Y-6795916D01*
X4382159Y-6776970D01*
X4350000Y-6770573D01*
X4317841Y-6776970D01*
X3682159Y-6776970D01*
X3650000Y-6770573D01*
X3617841Y-6776970D01*
X3522594Y-6795916D01*
X3414585Y-6868085D01*
X3342416Y-6976094D01*
X3317073Y-7103500D01*
X3323470Y-7135660D01*
X3323471Y-7826970D01*
X941886Y-7826970D01*
X941886Y-7546500D01*
X410360Y-7546500D01*
X410360Y-7566500D01*
X156360Y-7566500D01*
X156360Y-7546500D01*
X136360Y-7546500D01*
X136360Y-7292500D01*
X156360Y-7292500D01*
X156360Y-6510784D01*
X410360Y-6510784D01*
X410360Y-7292500D01*
X941886Y-7292500D01*
X941886Y-6844190D01*
X916507Y-6716601D01*
X844234Y-6608436D01*
X736069Y-6536163D01*
X608480Y-6510784D01*
X410360Y-6510784D01*
X156360Y-6510784D01*
X-41760Y-6510784D01*
X-169349Y-6536163D01*
X-277514Y-6608436D01*
X-341083Y-6703575D01*
X-404970Y-6607960D01*
X-513354Y-6535541D01*
X-581660Y-6521954D01*
X-581660Y-6488793D01*
X554175Y-5352958D01*
X586832Y-5331138D01*
X608652Y-5298482D01*
X608654Y-5298480D01*
X673286Y-5201751D01*
X691046Y-5112465D01*
X695982Y-5087652D01*
X695982Y-5087648D01*
X703644Y-5049128D01*
X695982Y-5010608D01*
X695982Y-4958973D01*
X744718Y-4979160D01*
X982482Y-4979160D01*
X1202147Y-4888172D01*
X1370272Y-4720047D01*
X1443101Y-4544220D01*
X1847931Y-4544220D01*
X1847931Y-5844700D01*
X1873361Y-5972546D01*
X1945780Y-6080930D01*
X2054164Y-6153349D01*
X2182010Y-6178779D01*
X2631590Y-6178779D01*
X2759436Y-6153349D01*
X2867820Y-6080930D01*
X2940239Y-5972546D01*
X2965669Y-5844700D01*
X2965669Y-5715750D01*
X4900757Y-5715750D01*
X4984440Y-6136454D01*
X5222750Y-6493110D01*
X5579406Y-6731420D01*
X5893917Y-6793980D01*
X8105283Y-6793980D01*
X8419794Y-6731420D01*
X8776450Y-6493110D01*
X9014760Y-6136454D01*
X9098443Y-5715750D01*
X9014760Y-5295046D01*
X8776450Y-4938390D01*
X8419794Y-4700080D01*
X8105283Y-4637520D01*
X5893917Y-4637520D01*
X5579406Y-4700080D01*
X5222750Y-4938390D01*
X4984440Y-5295046D01*
X4900757Y-5715750D01*
X2965669Y-5715750D01*
X2965669Y-4544220D01*
X2940239Y-4416374D01*
X2867820Y-4307990D01*
X2759436Y-4235571D01*
X2631590Y-4210141D01*
X2182010Y-4210141D01*
X2054164Y-4235571D01*
X1945780Y-4307990D01*
X1873361Y-4416374D01*
X1847931Y-4544220D01*
X1443101Y-4544220D01*
X1461260Y-4500382D01*
X1461260Y-4262618D01*
X1370272Y-4042953D01*
X1341260Y-4013941D01*
X1341260Y-2542700D01*
X1847931Y-2542700D01*
X1847931Y-3843180D01*
X1873361Y-3971026D01*
X1945780Y-4079410D01*
X2054164Y-4151829D01*
X2182010Y-4177259D01*
X2631590Y-4177259D01*
X2759436Y-4151829D01*
X2867820Y-4079410D01*
X2940239Y-3971026D01*
X2965669Y-3843180D01*
X2965669Y-2542700D01*
X2940239Y-2414854D01*
X2867820Y-2306470D01*
X2759436Y-2234051D01*
X2631590Y-2208621D01*
X2182010Y-2208621D01*
X2054164Y-2234051D01*
X1945780Y-2306470D01*
X1873361Y-2414854D01*
X1847931Y-2542700D01*
X1341260Y-2542700D01*
X1341260Y-2090152D01*
X1779412Y-1652001D01*
X1819292Y-1625354D01*
X1871027Y-1547927D01*
X1924864Y-1467355D01*
X1961936Y-1280981D01*
X1952579Y-1233940D01*
X1952579Y2099647D01*
X2130210Y2026070D01*
X2367974Y2026070D01*
X2587639Y2117058D01*
X2755764Y2285183D01*
X2846752Y2504848D01*
X2846752Y2742612D01*
X2755764Y2962277D01*
X2587639Y3130402D01*
X2378703Y3216946D01*
X2378703Y3275380D01*
X3272530Y3275380D01*
X3272530Y2819645D01*
X3322313Y2699459D01*
X3414300Y2607473D01*
X3534486Y2557690D01*
X4390270Y2557690D01*
X4472020Y2639440D01*
X4472020Y3357130D01*
X3354280Y3357130D01*
X3272530Y3275380D01*
X2378703Y3275380D01*
X2378703Y3964940D01*
X3272530Y3964940D01*
X3272530Y3692880D01*
X3354280Y3611130D01*
X4472020Y3611130D01*
X4472020Y3631130D01*
X4726020Y3631130D01*
X4726020Y3611130D01*
X4746020Y3611130D01*
X4746020Y3357130D01*
X4726020Y3357130D01*
X4726020Y2639440D01*
X4807770Y2557690D01*
X5552440Y2557690D01*
X5552441Y1933529D01*
X3599530Y1933529D01*
X3471684Y1908099D01*
X3363300Y1835680D01*
X3290881Y1727296D01*
X3265451Y1599450D01*
X3265451Y1589889D01*
X3116082Y1651760D01*
X2878318Y1651760D01*
X2658653Y1560772D01*
X2490528Y1392647D01*
X2399540Y1172982D01*
X2399540Y1138629D01*
X2379778Y1125424D01*
X2274206Y967423D01*
X2246491Y828091D01*
X2246491Y828087D01*
X2237135Y781051D01*
X2246491Y734015D01*
X2246492Y-832589D01*
X2236528Y-842553D01*
X2145540Y-1062218D01*
X2145540Y-1299982D01*
X2236528Y-1519647D01*
X2404653Y-1687772D01*
X2624318Y-1778760D01*
X2862082Y-1778760D01*
X3081747Y-1687772D01*
X3249872Y-1519647D01*
X3265451Y-1482036D01*
X3265451Y-1616190D01*
X3290881Y-1744036D01*
X3363300Y-1852420D01*
X3471684Y-1924839D01*
X3599530Y-1950269D01*
X4128938Y-1950269D01*
X4075940Y-2078218D01*
X4075940Y-2315982D01*
X4166928Y-2535647D01*
X4213872Y-2582591D01*
X3599530Y-2582591D01*
X3471684Y-2608021D01*
X3363300Y-2680440D01*
X3290881Y-2788824D01*
X3265451Y-2916670D01*
X3265451Y-4115550D01*
X3290881Y-4243396D01*
X3363300Y-4351780D01*
X3471684Y-4424199D01*
X3599530Y-4449629D01*
X4073930Y-4449629D01*
X4025140Y-4567418D01*
X4025140Y-4805182D01*
X4116128Y-5024847D01*
X4284253Y-5192972D01*
X4503918Y-5283960D01*
X4741682Y-5283960D01*
X4961347Y-5192972D01*
X5129472Y-5024847D01*
X5220460Y-4805182D01*
X5220460Y-4567418D01*
X5171670Y-4449629D01*
X5598510Y-4449629D01*
X5726356Y-4424199D01*
X5834740Y-4351780D01*
X5907159Y-4243396D01*
X5932589Y-4115550D01*
X5932589Y-2916670D01*
X5907159Y-2788824D01*
X5834740Y-2680440D01*
X5726356Y-2608021D01*
X5598510Y-2582591D01*
X5133328Y-2582591D01*
X5180272Y-2535647D01*
X5271260Y-2315982D01*
X5271260Y-2091870D01*
X6122030Y-2091870D01*
X6122030Y-2440990D01*
X6255632Y-2763534D01*
X6502496Y-3010398D01*
X6825040Y-3144000D01*
X7174160Y-3144000D01*
X7496704Y-3010398D01*
X7743568Y-2763534D01*
X7877170Y-2440990D01*
X7877170Y-2091870D01*
X7743568Y-1769326D01*
X7496704Y-1522462D01*
X7174160Y-1388860D01*
X6825040Y-1388860D01*
X6502496Y-1522462D01*
X6255632Y-1769326D01*
X6122030Y-2091870D01*
X5271260Y-2091870D01*
X5271260Y-2078218D01*
X5218262Y-1950269D01*
X5598510Y-1950269D01*
X5726356Y-1924839D01*
X5834740Y-1852420D01*
X5907159Y-1744036D01*
X5932589Y-1616190D01*
X5932589Y-417310D01*
X5907159Y-289464D01*
X5834740Y-181080D01*
X5726356Y-108661D01*
X5598510Y-83231D01*
X4121854Y-83231D01*
X3972132Y66491D01*
X5598510Y66491D01*
X5726356Y91921D01*
X5834740Y164340D01*
X5870723Y218193D01*
X6361940Y-273024D01*
X6361940Y-436382D01*
X6452928Y-656047D01*
X6621053Y-824172D01*
X6840718Y-915160D01*
X7078482Y-915160D01*
X7298147Y-824172D01*
X7466272Y-656047D01*
X7557260Y-436382D01*
X7557260Y-198618D01*
X7466272Y21047D01*
X7423819Y63500D01*
X7466272Y105953D01*
X7557260Y325618D01*
X7557260Y563382D01*
X7466272Y783047D01*
X7298147Y951172D01*
X7078482Y1042160D01*
X6915124Y1042160D01*
X6650349Y1306934D01*
X6650349Y1429239D01*
X6825040Y1356880D01*
X7174160Y1356880D01*
X7496704Y1490482D01*
X7743568Y1737346D01*
X7877170Y2059890D01*
X7877170Y2409010D01*
X7743568Y2731554D01*
X7496704Y2978418D01*
X7174160Y3112020D01*
X6825040Y3112020D01*
X6650349Y3039661D01*
X6650349Y4228791D01*
X6658011Y4267311D01*
X6650349Y4305831D01*
X6650349Y4305835D01*
X6627653Y4419934D01*
X6597180Y4465540D01*
X6563021Y4516663D01*
X6563019Y4516665D01*
X6541199Y4549321D01*
X6508543Y4571141D01*
X6474144Y4605540D01*
X8105283Y4605540D01*
X8419794Y4668100D01*
X8776450Y4906410D01*
X9014760Y5263066D01*
X9098443Y5683770D01*
X9014760Y6104474D01*
X8776450Y6461130D01*
X8419794Y6699440D01*
X8105283Y6762000D01*
X5893917Y6762000D01*
X5579406Y6699440D01*
X5222750Y6461130D01*
X4984440Y6104474D01*
X4900757Y5683770D01*
X4984440Y5263066D01*
X5125430Y5052060D01*
X2507624Y5052060D01*
X2487533Y5072151D01*
X3058310Y5072151D01*
X3186156Y5097581D01*
X3294540Y5170000D01*
X3366959Y5278384D01*
X3392389Y5406230D01*
X3392389Y6894304D01*
X3414585Y6861085D01*
X3522594Y6788916D01*
X3650000Y6763573D01*
X3682159Y6769970D01*
X4317841Y6769970D01*
X4350000Y6763573D01*
X4382159Y6769970D01*
X4477406Y6788916D01*
X4585415Y6861085D01*
X4657584Y6969094D01*
X4682927Y7096500D01*
X4676530Y7128659D01*
X4676530Y7794970D01*
X9173071Y7794970D01*
X9173070Y-7195152D01*
X9173070Y-7195152D01*
G37*
X9173070Y-7195152D02*
X9091545Y-6998333D01*
X8915167Y-6821955D01*
X8684718Y-6726500D01*
X8435282Y-6726500D01*
X8204833Y-6821955D01*
X8028455Y-6998333D01*
X7933000Y-7228782D01*
X7933000Y-7478218D01*
X8028455Y-7708667D01*
X8146758Y-7826970D01*
X4676530Y-7826970D01*
X4676530Y-7135659D01*
X4682927Y-7103500D01*
X4657584Y-6976094D01*
X4585415Y-6868085D01*
X4477406Y-6795916D01*
X4382159Y-6776970D01*
X4350000Y-6770573D01*
X4317841Y-6776970D01*
X3682159Y-6776970D01*
X3650000Y-6770573D01*
X3617841Y-6776970D01*
X3522594Y-6795916D01*
X3414585Y-6868085D01*
X3342416Y-6976094D01*
X3317073Y-7103500D01*
X3323470Y-7135660D01*
X3323471Y-7826970D01*
X941886Y-7826970D01*
X941886Y-7546500D01*
X410360Y-7546500D01*
X410360Y-7566500D01*
X156360Y-7566500D01*
X156360Y-7546500D01*
X136360Y-7546500D01*
X136360Y-7292500D01*
X156360Y-7292500D01*
X156360Y-6510784D01*
X410360Y-6510784D01*
X410360Y-7292500D01*
X941886Y-7292500D01*
X941886Y-6844190D01*
X916507Y-6716601D01*
X844234Y-6608436D01*
X736069Y-6536163D01*
X608480Y-6510784D01*
X410360Y-6510784D01*
X156360Y-6510784D01*
X-41760Y-6510784D01*
X-169349Y-6536163D01*
X-277514Y-6608436D01*
X-341083Y-6703575D01*
X-404970Y-6607960D01*
X-513354Y-6535541D01*
X-581660Y-6521954D01*
X-581660Y-6488793D01*
X554175Y-5352958D01*
X586832Y-5331138D01*
X608652Y-5298482D01*
X608654Y-5298480D01*
X673286Y-5201751D01*
X691046Y-5112465D01*
X695982Y-5087652D01*
X695982Y-5087648D01*
X703644Y-5049128D01*
X695982Y-5010608D01*
X695982Y-4958973D01*
X744718Y-4979160D01*
X982482Y-4979160D01*
X1202147Y-4888172D01*
X1370272Y-4720047D01*
X1443101Y-4544220D01*
X1847931Y-4544220D01*
X1847931Y-5844700D01*
X1873361Y-5972546D01*
X1945780Y-6080930D01*
X2054164Y-6153349D01*
X2182010Y-6178779D01*
X2631590Y-6178779D01*
X2759436Y-6153349D01*
X2867820Y-6080930D01*
X2940239Y-5972546D01*
X2965669Y-5844700D01*
X2965669Y-5715750D01*
X4900757Y-5715750D01*
X4984440Y-6136454D01*
X5222750Y-6493110D01*
X5579406Y-6731420D01*
X5893917Y-6793980D01*
X8105283Y-6793980D01*
X8419794Y-6731420D01*
X8776450Y-6493110D01*
X9014760Y-6136454D01*
X9098443Y-5715750D01*
X9014760Y-5295046D01*
X8776450Y-4938390D01*
X8419794Y-4700080D01*
X8105283Y-4637520D01*
X5893917Y-4637520D01*
X5579406Y-4700080D01*
X5222750Y-4938390D01*
X4984440Y-5295046D01*
X4900757Y-5715750D01*
X2965669Y-5715750D01*
X2965669Y-4544220D01*
X2940239Y-4416374D01*
X2867820Y-4307990D01*
X2759436Y-4235571D01*
X2631590Y-4210141D01*
X2182010Y-4210141D01*
X2054164Y-4235571D01*
X1945780Y-4307990D01*
X1873361Y-4416374D01*
X1847931Y-4544220D01*
X1443101Y-4544220D01*
X1461260Y-4500382D01*
X1461260Y-4262618D01*
X1370272Y-4042953D01*
X1341260Y-4013941D01*
X1341260Y-2542700D01*
X1847931Y-2542700D01*
X1847931Y-3843180D01*
X1873361Y-3971026D01*
X1945780Y-4079410D01*
X2054164Y-4151829D01*
X2182010Y-4177259D01*
X2631590Y-4177259D01*
X2759436Y-4151829D01*
X2867820Y-4079410D01*
X2940239Y-3971026D01*
X2965669Y-3843180D01*
X2965669Y-2542700D01*
X2940239Y-2414854D01*
X2867820Y-2306470D01*
X2759436Y-2234051D01*
X2631590Y-2208621D01*
X2182010Y-2208621D01*
X2054164Y-2234051D01*
X1945780Y-2306470D01*
X1873361Y-2414854D01*
X1847931Y-2542700D01*
X1341260Y-2542700D01*
X1341260Y-2090152D01*
X1779412Y-1652001D01*
X1819292Y-1625354D01*
X1871027Y-1547927D01*
X1924864Y-1467355D01*
X1961936Y-1280981D01*
X1952579Y-1233940D01*
X1952579Y2099647D01*
X2130210Y2026070D01*
X2367974Y2026070D01*
X2587639Y2117058D01*
X2755764Y2285183D01*
X2846752Y2504848D01*
X2846752Y2742612D01*
X2755764Y2962277D01*
X2587639Y3130402D01*
X2378703Y3216946D01*
X2378703Y3275380D01*
X3272530Y3275380D01*
X3272530Y2819645D01*
X3322313Y2699459D01*
X3414300Y2607473D01*
X3534486Y2557690D01*
X4390270Y2557690D01*
X4472020Y2639440D01*
X4472020Y3357130D01*
X3354280Y3357130D01*
X3272530Y3275380D01*
X2378703Y3275380D01*
X2378703Y3964940D01*
X3272530Y3964940D01*
X3272530Y3692880D01*
X3354280Y3611130D01*
X4472020Y3611130D01*
X4472020Y3631130D01*
X4726020Y3631130D01*
X4726020Y3611130D01*
X4746020Y3611130D01*
X4746020Y3357130D01*
X4726020Y3357130D01*
X4726020Y2639440D01*
X4807770Y2557690D01*
X5552440Y2557690D01*
X5552441Y1933529D01*
X3599530Y1933529D01*
X3471684Y1908099D01*
X3363300Y1835680D01*
X3290881Y1727296D01*
X3265451Y1599450D01*
X3265451Y1589889D01*
X3116082Y1651760D01*
X2878318Y1651760D01*
X2658653Y1560772D01*
X2490528Y1392647D01*
X2399540Y1172982D01*
X2399540Y1138629D01*
X2379778Y1125424D01*
X2274206Y967423D01*
X2246491Y828091D01*
X2246491Y828087D01*
X2237135Y781051D01*
X2246491Y734015D01*
X2246492Y-832589D01*
X2236528Y-842553D01*
X2145540Y-1062218D01*
X2145540Y-1299982D01*
X2236528Y-1519647D01*
X2404653Y-1687772D01*
X2624318Y-1778760D01*
X2862082Y-1778760D01*
X3081747Y-1687772D01*
X3249872Y-1519647D01*
X3265451Y-1482036D01*
X3265451Y-1616190D01*
X3290881Y-1744036D01*
X3363300Y-1852420D01*
X3471684Y-1924839D01*
X3599530Y-1950269D01*
X4128938Y-1950269D01*
X4075940Y-2078218D01*
X4075940Y-2315982D01*
X4166928Y-2535647D01*
X4213872Y-2582591D01*
X3599530Y-2582591D01*
X3471684Y-2608021D01*
X3363300Y-2680440D01*
X3290881Y-2788824D01*
X3265451Y-2916670D01*
X3265451Y-4115550D01*
X3290881Y-4243396D01*
X3363300Y-4351780D01*
X3471684Y-4424199D01*
X3599530Y-4449629D01*
X4073930Y-4449629D01*
X4025140Y-4567418D01*
X4025140Y-4805182D01*
X4116128Y-5024847D01*
X4284253Y-5192972D01*
X4503918Y-5283960D01*
X4741682Y-5283960D01*
X4961347Y-5192972D01*
X5129472Y-5024847D01*
X5220460Y-4805182D01*
X5220460Y-4567418D01*
X5171670Y-4449629D01*
X5598510Y-4449629D01*
X5726356Y-4424199D01*
X5834740Y-4351780D01*
X5907159Y-4243396D01*
X5932589Y-4115550D01*
X5932589Y-2916670D01*
X5907159Y-2788824D01*
X5834740Y-2680440D01*
X5726356Y-2608021D01*
X5598510Y-2582591D01*
X5133328Y-2582591D01*
X5180272Y-2535647D01*
X5271260Y-2315982D01*
X5271260Y-2091870D01*
X6122030Y-2091870D01*
X6122030Y-2440990D01*
X6255632Y-2763534D01*
X6502496Y-3010398D01*
X6825040Y-3144000D01*
X7174160Y-3144000D01*
X7496704Y-3010398D01*
X7743568Y-2763534D01*
X7877170Y-2440990D01*
X7877170Y-2091870D01*
X7743568Y-1769326D01*
X7496704Y-1522462D01*
X7174160Y-1388860D01*
X6825040Y-1388860D01*
X6502496Y-1522462D01*
X6255632Y-1769326D01*
X6122030Y-2091870D01*
X5271260Y-2091870D01*
X5271260Y-2078218D01*
X5218262Y-1950269D01*
X5598510Y-1950269D01*
X5726356Y-1924839D01*
X5834740Y-1852420D01*
X5907159Y-1744036D01*
X5932589Y-1616190D01*
X5932589Y-417310D01*
X5907159Y-289464D01*
X5834740Y-181080D01*
X5726356Y-108661D01*
X5598510Y-83231D01*
X4121854Y-83231D01*
X3972132Y66491D01*
X5598510Y66491D01*
X5726356Y91921D01*
X5834740Y164340D01*
X5870723Y218193D01*
X6361940Y-273024D01*
X6361940Y-436382D01*
X6452928Y-656047D01*
X6621053Y-824172D01*
X6840718Y-915160D01*
X7078482Y-915160D01*
X7298147Y-824172D01*
X7466272Y-656047D01*
X7557260Y-436382D01*
X7557260Y-198618D01*
X7466272Y21047D01*
X7423819Y63500D01*
X7466272Y105953D01*
X7557260Y325618D01*
X7557260Y563382D01*
X7466272Y783047D01*
X7298147Y951172D01*
X7078482Y1042160D01*
X6915124Y1042160D01*
X6650349Y1306934D01*
X6650349Y1429239D01*
X6825040Y1356880D01*
X7174160Y1356880D01*
X7496704Y1490482D01*
X7743568Y1737346D01*
X7877170Y2059890D01*
X7877170Y2409010D01*
X7743568Y2731554D01*
X7496704Y2978418D01*
X7174160Y3112020D01*
X6825040Y3112020D01*
X6650349Y3039661D01*
X6650349Y4228791D01*
X6658011Y4267311D01*
X6650349Y4305831D01*
X6650349Y4305835D01*
X6627653Y4419934D01*
X6597180Y4465540D01*
X6563021Y4516663D01*
X6563019Y4516665D01*
X6541199Y4549321D01*
X6508543Y4571141D01*
X6474144Y4605540D01*
X8105283Y4605540D01*
X8419794Y4668100D01*
X8776450Y4906410D01*
X9014760Y5263066D01*
X9098443Y5683770D01*
X9014760Y6104474D01*
X8776450Y6461130D01*
X8419794Y6699440D01*
X8105283Y6762000D01*
X5893917Y6762000D01*
X5579406Y6699440D01*
X5222750Y6461130D01*
X4984440Y6104474D01*
X4900757Y5683770D01*
X4984440Y5263066D01*
X5125430Y5052060D01*
X2507624Y5052060D01*
X2487533Y5072151D01*
X3058310Y5072151D01*
X3186156Y5097581D01*
X3294540Y5170000D01*
X3366959Y5278384D01*
X3392389Y5406230D01*
X3392389Y6894304D01*
X3414585Y6861085D01*
X3522594Y6788916D01*
X3650000Y6763573D01*
X3682159Y6769970D01*
X4317841Y6769970D01*
X4350000Y6763573D01*
X4382159Y6769970D01*
X4477406Y6788916D01*
X4585415Y6861085D01*
X4657584Y6969094D01*
X4682927Y7096500D01*
X4676530Y7128659D01*
X4676530Y7794970D01*
X9173071Y7794970D01*
X9173070Y-7195152D01*
G36*
X-1167072Y3712753D02*
X-998947Y3544628D01*
X-779282Y3453640D01*
X-541518Y3453640D01*
X-325568Y3543089D01*
X997259Y3543089D01*
X997259Y2841299D01*
X976570Y2891247D01*
X808445Y3059372D01*
X588780Y3150360D01*
X351016Y3150360D01*
X131351Y3059372D01*
X-36774Y2891247D01*
X-127762Y2671582D01*
X-127762Y2446246D01*
X-1204918Y3523401D01*
X-1226740Y3556060D01*
X-1356127Y3642514D01*
X-1470226Y3665210D01*
X-1470230Y3665210D01*
X-1508750Y3672872D01*
X-1547270Y3665210D01*
X-2797141Y3665210D01*
X-2912653Y3780722D01*
X-3071912Y3846689D01*
X-1222550Y3846689D01*
X-1167072Y3712753D01*
X-1167072Y3712753D01*
G37*
X-1167072Y3712753D02*
X-998947Y3544628D01*
X-779282Y3453640D01*
X-541518Y3453640D01*
X-325568Y3543089D01*
X997259Y3543089D01*
X997259Y2841299D01*
X976570Y2891247D01*
X808445Y3059372D01*
X588780Y3150360D01*
X351016Y3150360D01*
X131351Y3059372D01*
X-36774Y2891247D01*
X-127762Y2671582D01*
X-127762Y2446246D01*
X-1204918Y3523401D01*
X-1226740Y3556060D01*
X-1356127Y3642514D01*
X-1470226Y3665210D01*
X-1470230Y3665210D01*
X-1508750Y3672872D01*
X-1547270Y3665210D01*
X-2797141Y3665210D01*
X-2912653Y3780722D01*
X-3071912Y3846689D01*
X-1222550Y3846689D01*
X-1167072Y3712753D01*
G04 #@! TD*
M02*
