G04 #@! TF.GenerationSoftware,KiCad,Pcbnew,(5.0.1)-4*
G04 #@! TF.CreationDate,2018-12-21T18:48:29+01:00*
G04 #@! TF.ProjectId,cryptostick,63727970746F737469636B2E6B696361,R1*
G04 #@! TF.SameCoordinates,PX791ddc0PY5e69114*
G04 #@! TF.FileFunction,Legend,Bot*
G04 #@! TF.FilePolarity,Positive*
%FSLAX46Y46*%
G04 Gerber Fmt 4.6, Leading zero omitted, Abs format (unit mm)*
G04 Created by KiCad (PCBNEW (5.0.1)-4) date 21.12.2018 18:48:29*
%MOMM*%
%LPD*%
G01*
G04 APERTURE LIST*
%ADD10C,0.150000*%
%ADD11C,0.099060*%
%ADD12C,0.381000*%
G04 APERTURE END LIST*
D10*
X-10058096Y3769834D02*
X-10439048Y4036500D01*
X-10058096Y4226977D02*
X-10858096Y4226977D01*
X-10858096Y3922215D01*
X-10820000Y3846024D01*
X-10781905Y3807929D01*
X-10705715Y3769834D01*
X-10591429Y3769834D01*
X-10515239Y3807929D01*
X-10477143Y3846024D01*
X-10439048Y3922215D01*
X-10439048Y4226977D01*
X-10858096Y3503167D02*
X-10858096Y3007929D01*
X-10553334Y3274596D01*
X-10553334Y3160310D01*
X-10515239Y3084120D01*
X-10477143Y3046024D01*
X-10400953Y3007929D01*
X-10210477Y3007929D01*
X-10134286Y3046024D01*
X-10096191Y3084120D01*
X-10058096Y3160310D01*
X-10058096Y3388881D01*
X-10096191Y3465072D01*
X-10134286Y3503167D01*
X-11092858Y6486500D02*
X-11992858Y6486500D01*
X-11092858Y6086500D01*
X-11992858Y6086500D01*
X-11092858Y5753167D02*
X-11692858Y5753167D01*
X-11992858Y5753167D02*
X-11950000Y5786500D01*
X-11907143Y5753167D01*
X-11950000Y5719834D01*
X-11992858Y5753167D01*
X-11907143Y5753167D01*
X-11692858Y5519834D02*
X-11692858Y5253167D01*
X-11992858Y5419834D02*
X-11221429Y5419834D01*
X-11135715Y5386500D01*
X-11092858Y5319834D01*
X-11092858Y5253167D01*
X-11092858Y5019834D02*
X-11692858Y5019834D01*
X-11521429Y5019834D02*
X-11607143Y4986500D01*
X-11650000Y4953167D01*
X-11692858Y4886500D01*
X-11692858Y4819834D01*
X-11092858Y4486500D02*
X-11135715Y4553167D01*
X-11178572Y4586500D01*
X-11264286Y4619834D01*
X-11521429Y4619834D01*
X-11607143Y4586500D01*
X-11650000Y4553167D01*
X-11692858Y4486500D01*
X-11692858Y4386500D01*
X-11650000Y4319834D01*
X-11607143Y4286500D01*
X-11521429Y4253167D01*
X-11264286Y4253167D01*
X-11178572Y4286500D01*
X-11135715Y4319834D01*
X-11092858Y4386500D01*
X-11092858Y4486500D01*
X-11092858Y3953167D02*
X-11992858Y3953167D01*
X-11435715Y3886500D02*
X-11092858Y3686500D01*
X-11692858Y3686500D02*
X-11350000Y3953167D01*
X-11135715Y3119834D02*
X-11092858Y3186500D01*
X-11092858Y3319834D01*
X-11135715Y3386500D01*
X-11221429Y3419834D01*
X-11564286Y3419834D01*
X-11650000Y3386500D01*
X-11692858Y3319834D01*
X-11692858Y3186500D01*
X-11650000Y3119834D01*
X-11564286Y3086500D01*
X-11478572Y3086500D01*
X-11392858Y3419834D01*
X-11692858Y2853167D02*
X-11092858Y2686500D01*
X-11692858Y2519834D02*
X-11092858Y2686500D01*
X-10878572Y2753167D01*
X-10835715Y2786500D01*
X-10792858Y2853167D01*
X-11092858Y1719834D02*
X-11992858Y1719834D01*
X-11992858Y1453167D01*
X-11950000Y1386500D01*
X-11907143Y1353167D01*
X-11821429Y1319834D01*
X-11692858Y1319834D01*
X-11607143Y1353167D01*
X-11564286Y1386500D01*
X-11521429Y1453167D01*
X-11521429Y1719834D01*
X-11092858Y1019834D02*
X-11692858Y1019834D01*
X-11521429Y1019834D02*
X-11607143Y986500D01*
X-11650000Y953167D01*
X-11692858Y886500D01*
X-11692858Y819834D01*
X-11092858Y486500D02*
X-11135715Y553167D01*
X-11178572Y586500D01*
X-11264286Y619834D01*
X-11521429Y619834D01*
X-11607143Y586500D01*
X-11650000Y553167D01*
X-11692858Y486500D01*
X-11692858Y386500D01*
X-11650000Y319834D01*
X-11607143Y286500D01*
X-11521429Y253167D01*
X-11264286Y253167D01*
X-11178572Y286500D01*
X-11135715Y319834D01*
X-11092858Y386500D01*
X-11092858Y486500D01*
D11*
G04 #@! TO.C,J1*
X2358540Y-7843680D02*
X-9841080Y-7843680D01*
X2406800Y-53500D02*
X2406800Y7668100D01*
X2406800Y7668100D02*
X-3740000Y7668100D01*
X-3740000Y7668100D02*
X-9886800Y7668100D01*
X-9886800Y7668100D02*
X-9886800Y-53500D01*
X-9886800Y-53500D02*
X-9886800Y-7825900D01*
X2406800Y-7825900D02*
X2406800Y-2700D01*
D12*
G04 #@! TO.C,D1*
X-10896500Y-598500D02*
G75*
G03X-10896500Y-598500I-63500J0D01*
G01*
D11*
X-10960000Y-471500D02*
X-11595000Y-471500D01*
X-11595000Y-471500D02*
X-11595000Y-1995500D01*
X-11595000Y-1995500D02*
X-10325000Y-1995500D01*
X-10325000Y-1995500D02*
X-10325000Y-471500D01*
X-10325000Y-471500D02*
X-10960000Y-471500D01*
G04 #@! TO.C,J1*
D10*
X-10496434Y-6672642D02*
X-10496434Y-7315500D01*
X-10458339Y-7444071D01*
X-10382148Y-7529785D01*
X-10267862Y-7572642D01*
X-10191672Y-7572642D01*
X-11296434Y-7572642D02*
X-10839291Y-7572642D01*
X-11067862Y-7572642D02*
X-11067862Y-6672642D01*
X-10991672Y-6801214D01*
X-10915481Y-6886928D01*
X-10839291Y-6929785D01*
G04 #@! TO.C,D1*
X-10636324Y-3620242D02*
X-10636324Y-2720242D01*
X-10826800Y-2720242D01*
X-10941086Y-2763100D01*
X-11017277Y-2848814D01*
X-11055372Y-2934528D01*
X-11093467Y-3105957D01*
X-11093467Y-3234528D01*
X-11055372Y-3405957D01*
X-11017277Y-3491671D01*
X-10941086Y-3577385D01*
X-10826800Y-3620242D01*
X-10636324Y-3620242D01*
X-11855372Y-3620242D02*
X-11398229Y-3620242D01*
X-11626800Y-3620242D02*
X-11626800Y-2720242D01*
X-11550610Y-2848814D01*
X-11474420Y-2934528D01*
X-11398229Y-2977385D01*
G04 #@! TD*
M02*
