G04 #@! TF.GenerationSoftware,KiCad,Pcbnew,(5.0.1)-4*
G04 #@! TF.CreationDate,2018-12-21T18:48:29+01:00*
G04 #@! TF.ProjectId,cryptostick,63727970746F737469636B2E6B696361,R1*
G04 #@! TF.SameCoordinates,PX791ddc0PY5e69114*
G04 #@! TF.FileFunction,Paste,Bot*
G04 #@! TF.FilePolarity,Positive*
%FSLAX46Y46*%
G04 Gerber Fmt 4.6, Leading zero omitted, Abs format (unit mm)*
G04 Created by KiCad (PCBNEW (5.0.1)-4) date 21.12.2018 18:48:29*
%MOMM*%
%LPD*%
G01*
G04 APERTURE LIST*
%ADD10R,1.599184X0.959104*%
%ADD11C,0.520192*%
%ADD12C,0.150000*%
%ADD13C,0.359664*%
%ADD14C,1.119632*%
%ADD15C,0.432816*%
G04 APERTURE END LIST*
D10*
G04 #@! TO.C,J2*
X4599020Y-1016750D03*
X4599020Y1000010D03*
X4599020Y-3516110D03*
X4599020Y3484130D03*
G04 #@! TD*
D11*
G04 #@! TO.C,J1*
X-966320Y-7419500D03*
D12*
G36*
X-706224Y-7879748D02*
X-1226416Y-7879748D01*
X-1226416Y-6959252D01*
X-706224Y-6959252D01*
X-706224Y-7879748D01*
X-706224Y-7879748D01*
G37*
D11*
X283360Y-7419500D03*
D12*
G36*
X543456Y-7879748D02*
X23264Y-7879748D01*
X23264Y-6959252D01*
X543456Y-6959252D01*
X543456Y-7879748D01*
X543456Y-7879748D01*
G37*
D11*
X-2241400Y-7419500D03*
D12*
G36*
X-1981304Y-7879748D02*
X-2501496Y-7879748D01*
X-2501496Y-6959252D01*
X-1981304Y-6959252D01*
X-1981304Y-7879748D01*
X-1981304Y-7879748D01*
G37*
D11*
X-3516480Y-7419500D03*
D12*
G36*
X-3256384Y-7879748D02*
X-3776576Y-7879748D01*
X-3776576Y-6959252D01*
X-3256384Y-6959252D01*
X-3256384Y-7879748D01*
X-3256384Y-7879748D01*
G37*
D11*
X-4791560Y-7419500D03*
D12*
G36*
X-4531464Y-7879748D02*
X-5051656Y-7879748D01*
X-5051656Y-6959252D01*
X-4531464Y-6959252D01*
X-4531464Y-7879748D01*
X-4531464Y-7879748D01*
G37*
D11*
X-6066640Y-7419500D03*
D12*
G36*
X-5806544Y-7879748D02*
X-6326736Y-7879748D01*
X-6326736Y-6959252D01*
X-5806544Y-6959252D01*
X-5806544Y-7879748D01*
X-5806544Y-7879748D01*
G37*
D13*
X2406800Y-5194460D03*
D12*
G36*
X2586632Y-5714652D02*
X2226968Y-5714652D01*
X2226968Y-4674268D01*
X2586632Y-4674268D01*
X2586632Y-5714652D01*
X2586632Y-5714652D01*
G37*
D13*
X2406800Y-3192940D03*
D12*
G36*
X2586632Y-3713132D02*
X2226968Y-3713132D01*
X2226968Y-2672748D01*
X2586632Y-2672748D01*
X2586632Y-3713132D01*
X2586632Y-3713132D01*
G37*
D13*
X-9891880Y-3192940D03*
D12*
G36*
X-9712048Y-3713132D02*
X-10071712Y-3713132D01*
X-10071712Y-2672748D01*
X-9712048Y-2672748D01*
X-9712048Y-3713132D01*
X-9712048Y-3713132D01*
G37*
D13*
X-9891880Y-5194460D03*
D12*
G36*
X-9712048Y-5714652D02*
X-10071712Y-5714652D01*
X-10071712Y-4674268D01*
X-9712048Y-4674268D01*
X-9712048Y-5714652D01*
X-9712048Y-5714652D01*
G37*
D14*
X2358540Y6255860D03*
D12*
G36*
X2918356Y5576156D02*
X1798724Y5576156D01*
X1798724Y6935564D01*
X2918356Y6935564D01*
X2918356Y5576156D01*
X2918356Y5576156D01*
G37*
D14*
X-9841080Y6357460D03*
D12*
G36*
X-9281264Y5677756D02*
X-10400896Y5677756D01*
X-10400896Y7037164D01*
X-9281264Y7037164D01*
X-9281264Y5677756D01*
X-9281264Y5677756D01*
G37*
D15*
X-1141580Y5857080D03*
D12*
G36*
X-925172Y5537040D02*
X-1357988Y5537040D01*
X-1357988Y6177120D01*
X-925172Y6177120D01*
X-925172Y5537040D01*
X-925172Y5537040D01*
G37*
D15*
X-6241900Y5857080D03*
D12*
G36*
X-6025492Y5537040D02*
X-6458308Y5537040D01*
X-6458308Y6177120D01*
X-6025492Y6177120D01*
X-6025492Y5537040D01*
X-6025492Y5537040D01*
G37*
G04 #@! TD*
D13*
G04 #@! TO.C,D1*
X-11366400Y-1995500D03*
D12*
G36*
X-11546232Y-1795348D02*
X-11186568Y-1795348D01*
X-11186568Y-2195652D01*
X-11546232Y-2195652D01*
X-11546232Y-1795348D01*
X-11546232Y-1795348D01*
G37*
D13*
X-11366400Y-471500D03*
D12*
G36*
X-11546232Y-271348D02*
X-11186568Y-271348D01*
X-11186568Y-671652D01*
X-11546232Y-671652D01*
X-11546232Y-271348D01*
X-11546232Y-271348D01*
G37*
D13*
X-10553600Y-1995500D03*
D12*
G36*
X-10733432Y-1795348D02*
X-10373768Y-1795348D01*
X-10373768Y-2195652D01*
X-10733432Y-2195652D01*
X-10733432Y-1795348D01*
X-10733432Y-1795348D01*
G37*
D13*
X-10553600Y-471500D03*
D12*
G36*
X-10733432Y-271348D02*
X-10373768Y-271348D01*
X-10373768Y-671652D01*
X-10733432Y-671652D01*
X-10733432Y-271348D01*
X-10733432Y-271348D01*
G37*
G04 #@! TD*
M02*
