G04 #@! TF.FileFunction,Soldermask,Bot*
%FSLAX46Y46*%
G04 Gerber Fmt 4.6, Leading zero omitted, Abs format (unit mm)*
G04 Created by KiCad (PCBNEW 4.0.7) date 2018. July 01., Sunday 21:28:53*
%MOMM*%
%LPD*%
G01*
G04 APERTURE LIST*
%ADD10C,0.150000*%
%ADD11C,0.950000*%
%ADD12R,0.950000X0.950000*%
%ADD13O,3.600120X1.601140*%
%ADD14R,2.098980X1.298880*%
%ADD15C,1.199820*%
%ADD16C,0.604800*%
G04 APERTURE END LIST*
D10*
G36*
X-547700Y-8104810D02*
X-1397940Y-8104810D01*
X-1397940Y-6754190D01*
X-547700Y-6754190D01*
X-547700Y-8104810D01*
X-547700Y-8104810D01*
G37*
G36*
X701980Y-8104810D02*
X-148260Y-8104810D01*
X-148260Y-6754190D01*
X701980Y-6754190D01*
X701980Y-8104810D01*
X701980Y-8104810D01*
G37*
G36*
X-1822780Y-8104810D02*
X-2673020Y-8104810D01*
X-2673020Y-6754190D01*
X-1822780Y-6754190D01*
X-1822780Y-8104810D01*
X-1822780Y-8104810D01*
G37*
G36*
X-3097860Y-8104810D02*
X-3948100Y-8104810D01*
X-3948100Y-6754190D01*
X-3097860Y-6754190D01*
X-3097860Y-8104810D01*
X-3097860Y-8104810D01*
G37*
G36*
X-4372940Y-8104810D02*
X-5223180Y-8104810D01*
X-5223180Y-6754190D01*
X-4372940Y-6754190D01*
X-4372940Y-8104810D01*
X-4372940Y-8104810D01*
G37*
G36*
X-5648020Y-8104810D02*
X-6498260Y-8104810D01*
X-6498260Y-6754190D01*
X-5648020Y-6754190D01*
X-5648020Y-8104810D01*
X-5648020Y-8104810D01*
G37*
G36*
X2725090Y-5954700D02*
X2075510Y-5954700D01*
X2075510Y-4454220D01*
X2725090Y-4454220D01*
X2725090Y-5954700D01*
X2725090Y-5954700D01*
G37*
G36*
X2725090Y-3953180D02*
X2075510Y-3953180D01*
X2075510Y-2452700D01*
X2725090Y-2452700D01*
X2725090Y-3953180D01*
X2725090Y-3953180D01*
G37*
G36*
X-9573590Y-3953180D02*
X-10223170Y-3953180D01*
X-10223170Y-2452700D01*
X-9573590Y-2452700D01*
X-9573590Y-3953180D01*
X-9573590Y-3953180D01*
G37*
G36*
X-9573590Y-5954700D02*
X-10223170Y-5954700D01*
X-10223170Y-4454220D01*
X-9573590Y-4454220D01*
X-9573590Y-5954700D01*
X-9573590Y-5954700D01*
G37*
G36*
X3151810Y5296230D02*
X1552270Y5296230D01*
X1552270Y7195490D01*
X3151810Y7195490D01*
X3151810Y5296230D01*
X3151810Y5296230D01*
G37*
G36*
X-9047810Y5397830D02*
X-10647350Y5397830D01*
X-10647350Y7297090D01*
X-9047810Y7297090D01*
X-9047810Y5397830D01*
X-9047810Y5397830D01*
G37*
G36*
X-777570Y5347030D02*
X-1518590Y5347030D01*
X-1518590Y6347130D01*
X-777570Y6347130D01*
X-777570Y5347030D01*
X-777570Y5347030D01*
G37*
G36*
X-5877890Y5347030D02*
X-6618910Y5347030D01*
X-6618910Y6347130D01*
X-5877890Y6347130D01*
X-5877890Y5347030D01*
X-5877890Y5347030D01*
G37*
D11*
X-2235000Y6246500D03*
X-965000Y6246500D03*
D12*
X-3505000Y6246500D03*
D11*
X305000Y6246500D03*
D13*
X6999600Y5683770D03*
X6999600Y-5715750D03*
D14*
X4599020Y-1016750D03*
X4599020Y1000010D03*
X4599020Y-3516110D03*
X4599020Y3484130D03*
D15*
X6999600Y-2266430D03*
X6999600Y2234450D03*
D16*
X-4249420Y-1348740D03*
X-3248660Y-1348740D03*
X-5250180Y-1348740D03*
X-5250180Y-347980D03*
X-4249420Y-347980D03*
X-3248660Y-347980D03*
X-3248660Y-2349500D03*
X-4249420Y-2349500D03*
X-5250180Y-2349500D03*
D10*
G36*
X-11641190Y-1695310D02*
X-11091610Y-1695310D01*
X-11091610Y-2295690D01*
X-11641190Y-2295690D01*
X-11641190Y-1695310D01*
X-11641190Y-1695310D01*
G37*
G36*
X-11641190Y-171310D02*
X-11091610Y-171310D01*
X-11091610Y-771690D01*
X-11641190Y-771690D01*
X-11641190Y-171310D01*
X-11641190Y-171310D01*
G37*
G36*
X-10828390Y-1695310D02*
X-10278810Y-1695310D01*
X-10278810Y-2295690D01*
X-10828390Y-2295690D01*
X-10828390Y-1695310D01*
X-10828390Y-1695310D01*
G37*
G36*
X-10828390Y-171310D02*
X-10278810Y-171310D01*
X-10278810Y-771690D01*
X-10828390Y-771690D01*
X-10828390Y-171310D01*
X-10828390Y-171310D01*
G37*
M02*
