G04 #@! TF.GenerationSoftware,KiCad,Pcbnew,(5.0.1)-4*
G04 #@! TF.CreationDate,2018-12-21T18:48:29+01:00*
G04 #@! TF.ProjectId,cryptostick,63727970746F737469636B2E6B696361,R1*
G04 #@! TF.SameCoordinates,PX791ddc0PY5e69114*
G04 #@! TF.FileFunction,Soldermask,Bot*
G04 #@! TF.FilePolarity,Negative*
%FSLAX46Y46*%
G04 Gerber Fmt 4.6, Leading zero omitted, Abs format (unit mm)*
G04 Created by KiCad (PCBNEW (5.0.1)-4) date 21.12.2018 18:48:29*
%MOMM*%
%LPD*%
G01*
G04 APERTURE LIST*
%ADD10C,0.150000*%
G04 APERTURE END LIST*
D10*
G36*
X-1816280Y-8094810D02*
X-2666520Y-8094810D01*
X-2666520Y-6744190D01*
X-1816280Y-6744190D01*
X-1816280Y-8094810D01*
X-1816280Y-8094810D01*
G37*
G36*
X-541200Y-8094810D02*
X-1391440Y-8094810D01*
X-1391440Y-6744190D01*
X-541200Y-6744190D01*
X-541200Y-8094810D01*
X-541200Y-8094810D01*
G37*
G36*
X708480Y-8094810D02*
X-141760Y-8094810D01*
X-141760Y-6744190D01*
X708480Y-6744190D01*
X708480Y-8094810D01*
X708480Y-8094810D01*
G37*
G36*
X-5641520Y-8094810D02*
X-6491760Y-8094810D01*
X-6491760Y-6744190D01*
X-5641520Y-6744190D01*
X-5641520Y-8094810D01*
X-5641520Y-8094810D01*
G37*
G36*
X-4366440Y-8094810D02*
X-5216680Y-8094810D01*
X-5216680Y-6744190D01*
X-4366440Y-6744190D01*
X-4366440Y-8094810D01*
X-4366440Y-8094810D01*
G37*
G36*
X-3091360Y-8094810D02*
X-3941600Y-8094810D01*
X-3941600Y-6744190D01*
X-3091360Y-6744190D01*
X-3091360Y-8094810D01*
X-3091360Y-8094810D01*
G37*
G36*
X8705845Y-6872715D02*
X8796839Y-6910406D01*
X8878731Y-6965125D01*
X8948375Y-7034769D01*
X9003094Y-7116661D01*
X9040785Y-7207655D01*
X9060000Y-7304254D01*
X9060000Y-7402746D01*
X9040785Y-7499345D01*
X9003094Y-7590339D01*
X8948375Y-7672231D01*
X8878731Y-7741875D01*
X8796839Y-7796594D01*
X8705845Y-7834285D01*
X8609246Y-7853500D01*
X8510754Y-7853500D01*
X8414155Y-7834285D01*
X8323161Y-7796594D01*
X8241269Y-7741875D01*
X8171625Y-7672231D01*
X8116906Y-7590339D01*
X8079215Y-7499345D01*
X8060000Y-7402746D01*
X8060000Y-7304254D01*
X8079215Y-7207655D01*
X8116906Y-7116661D01*
X8171625Y-7034769D01*
X8241269Y-6965125D01*
X8323161Y-6910406D01*
X8414155Y-6872715D01*
X8510754Y-6853500D01*
X8609246Y-6853500D01*
X8705845Y-6872715D01*
X8705845Y-6872715D01*
G37*
G36*
X8156029Y-4926764D02*
X8306937Y-4972542D01*
X8446015Y-5046880D01*
X8567917Y-5146923D01*
X8667960Y-5268825D01*
X8742298Y-5407903D01*
X8788076Y-5558811D01*
X8803533Y-5715750D01*
X8788076Y-5872689D01*
X8742298Y-6023597D01*
X8667960Y-6162675D01*
X8567917Y-6284577D01*
X8446015Y-6384620D01*
X8306937Y-6458958D01*
X8156029Y-6504736D01*
X8038414Y-6516320D01*
X5960786Y-6516320D01*
X5843171Y-6504736D01*
X5692263Y-6458958D01*
X5553185Y-6384620D01*
X5431283Y-6284577D01*
X5331240Y-6162675D01*
X5256902Y-6023597D01*
X5211124Y-5872689D01*
X5195667Y-5715750D01*
X5211124Y-5558811D01*
X5256902Y-5407903D01*
X5331240Y-5268825D01*
X5431283Y-5146923D01*
X5553185Y-5046880D01*
X5692263Y-4972542D01*
X5843171Y-4926764D01*
X5960786Y-4915180D01*
X8038414Y-4915180D01*
X8156029Y-4926764D01*
X8156029Y-4926764D01*
G37*
G36*
X-9567090Y-5944700D02*
X-10216670Y-5944700D01*
X-10216670Y-4444220D01*
X-9567090Y-4444220D01*
X-9567090Y-5944700D01*
X-9567090Y-5944700D01*
G37*
G36*
X2731590Y-5944700D02*
X2082010Y-5944700D01*
X2082010Y-4444220D01*
X2731590Y-4444220D01*
X2731590Y-5944700D01*
X2731590Y-5944700D01*
G37*
G36*
X5648510Y-4165550D02*
X3549530Y-4165550D01*
X3549530Y-2866670D01*
X5648510Y-2866670D01*
X5648510Y-4165550D01*
X5648510Y-4165550D01*
G37*
G36*
X2731590Y-3943180D02*
X2082010Y-3943180D01*
X2082010Y-2442700D01*
X2731590Y-2442700D01*
X2731590Y-3943180D01*
X2731590Y-3943180D01*
G37*
G36*
X-9567090Y-3943180D02*
X-10216670Y-3943180D01*
X-10216670Y-2442700D01*
X-9567090Y-2442700D01*
X-9567090Y-3943180D01*
X-9567090Y-3943180D01*
G37*
G36*
X7174587Y-1689574D02*
X7283764Y-1734796D01*
X7382021Y-1800449D01*
X7465581Y-1884009D01*
X7531234Y-1982266D01*
X7576456Y-2091443D01*
X7599510Y-2207344D01*
X7599510Y-2325516D01*
X7576456Y-2441417D01*
X7531234Y-2550594D01*
X7465581Y-2648851D01*
X7382021Y-2732411D01*
X7283764Y-2798064D01*
X7174587Y-2843286D01*
X7058686Y-2866340D01*
X6940514Y-2866340D01*
X6824613Y-2843286D01*
X6715436Y-2798064D01*
X6617179Y-2732411D01*
X6533619Y-2648851D01*
X6467966Y-2550594D01*
X6422744Y-2441417D01*
X6399690Y-2325516D01*
X6399690Y-2207344D01*
X6422744Y-2091443D01*
X6467966Y-1982266D01*
X6533619Y-1884009D01*
X6617179Y-1800449D01*
X6715436Y-1734796D01*
X6824613Y-1689574D01*
X6940514Y-1666520D01*
X7058686Y-1666520D01*
X7174587Y-1689574D01*
X7174587Y-1689574D01*
G37*
G36*
X-3189622Y-2154878D02*
X-3152788Y-2170136D01*
X-3119638Y-2192286D01*
X-3091446Y-2220478D01*
X-3069296Y-2253628D01*
X-3054038Y-2290462D01*
X-3046260Y-2329565D01*
X-3046260Y-2369435D01*
X-3054038Y-2408538D01*
X-3069296Y-2445372D01*
X-3091446Y-2478522D01*
X-3119638Y-2506714D01*
X-3152788Y-2528864D01*
X-3189622Y-2544122D01*
X-3228725Y-2551900D01*
X-3268595Y-2551900D01*
X-3307698Y-2544122D01*
X-3344532Y-2528864D01*
X-3377682Y-2506714D01*
X-3405874Y-2478522D01*
X-3428024Y-2445372D01*
X-3443282Y-2408538D01*
X-3451060Y-2369435D01*
X-3451060Y-2329565D01*
X-3443282Y-2290462D01*
X-3428024Y-2253628D01*
X-3405874Y-2220478D01*
X-3377682Y-2192286D01*
X-3344532Y-2170136D01*
X-3307698Y-2154878D01*
X-3268595Y-2147100D01*
X-3228725Y-2147100D01*
X-3189622Y-2154878D01*
X-3189622Y-2154878D01*
G37*
G36*
X-4190382Y-2154878D02*
X-4153548Y-2170136D01*
X-4120398Y-2192286D01*
X-4092206Y-2220478D01*
X-4070056Y-2253628D01*
X-4054798Y-2290462D01*
X-4047020Y-2329565D01*
X-4047020Y-2369435D01*
X-4054798Y-2408538D01*
X-4070056Y-2445372D01*
X-4092206Y-2478522D01*
X-4120398Y-2506714D01*
X-4153548Y-2528864D01*
X-4190382Y-2544122D01*
X-4229485Y-2551900D01*
X-4269355Y-2551900D01*
X-4308458Y-2544122D01*
X-4345292Y-2528864D01*
X-4378442Y-2506714D01*
X-4406634Y-2478522D01*
X-4428784Y-2445372D01*
X-4444042Y-2408538D01*
X-4451820Y-2369435D01*
X-4451820Y-2329565D01*
X-4444042Y-2290462D01*
X-4428784Y-2253628D01*
X-4406634Y-2220478D01*
X-4378442Y-2192286D01*
X-4345292Y-2170136D01*
X-4308458Y-2154878D01*
X-4269355Y-2147100D01*
X-4229485Y-2147100D01*
X-4190382Y-2154878D01*
X-4190382Y-2154878D01*
G37*
G36*
X-5191142Y-2154878D02*
X-5154308Y-2170136D01*
X-5121158Y-2192286D01*
X-5092966Y-2220478D01*
X-5070816Y-2253628D01*
X-5055558Y-2290462D01*
X-5047780Y-2329565D01*
X-5047780Y-2369435D01*
X-5055558Y-2408538D01*
X-5070816Y-2445372D01*
X-5092966Y-2478522D01*
X-5121158Y-2506714D01*
X-5154308Y-2528864D01*
X-5191142Y-2544122D01*
X-5230245Y-2551900D01*
X-5270115Y-2551900D01*
X-5309218Y-2544122D01*
X-5346052Y-2528864D01*
X-5379202Y-2506714D01*
X-5407394Y-2478522D01*
X-5429544Y-2445372D01*
X-5444802Y-2408538D01*
X-5452580Y-2369435D01*
X-5452580Y-2329565D01*
X-5444802Y-2290462D01*
X-5429544Y-2253628D01*
X-5407394Y-2220478D01*
X-5379202Y-2192286D01*
X-5346052Y-2170136D01*
X-5309218Y-2154878D01*
X-5270115Y-2147100D01*
X-5230245Y-2147100D01*
X-5191142Y-2154878D01*
X-5191142Y-2154878D01*
G37*
G36*
X-10278810Y-2295690D02*
X-10828390Y-2295690D01*
X-10828390Y-1695310D01*
X-10278810Y-1695310D01*
X-10278810Y-2295690D01*
X-10278810Y-2295690D01*
G37*
G36*
X-11091610Y-2295690D02*
X-11641190Y-2295690D01*
X-11641190Y-1695310D01*
X-11091610Y-1695310D01*
X-11091610Y-2295690D01*
X-11091610Y-2295690D01*
G37*
G36*
X5648510Y-1666190D02*
X3549530Y-1666190D01*
X3549530Y-367310D01*
X5648510Y-367310D01*
X5648510Y-1666190D01*
X5648510Y-1666190D01*
G37*
G36*
X-4190382Y-1154118D02*
X-4153548Y-1169376D01*
X-4120398Y-1191526D01*
X-4092206Y-1219718D01*
X-4070056Y-1252868D01*
X-4054798Y-1289702D01*
X-4047020Y-1328805D01*
X-4047020Y-1368675D01*
X-4054798Y-1407778D01*
X-4070056Y-1444612D01*
X-4092206Y-1477762D01*
X-4120398Y-1505954D01*
X-4153548Y-1528104D01*
X-4190382Y-1543362D01*
X-4229485Y-1551140D01*
X-4269355Y-1551140D01*
X-4308458Y-1543362D01*
X-4345292Y-1528104D01*
X-4378442Y-1505954D01*
X-4406634Y-1477762D01*
X-4428784Y-1444612D01*
X-4444042Y-1407778D01*
X-4451820Y-1368675D01*
X-4451820Y-1328805D01*
X-4444042Y-1289702D01*
X-4428784Y-1252868D01*
X-4406634Y-1219718D01*
X-4378442Y-1191526D01*
X-4345292Y-1169376D01*
X-4308458Y-1154118D01*
X-4269355Y-1146340D01*
X-4229485Y-1146340D01*
X-4190382Y-1154118D01*
X-4190382Y-1154118D01*
G37*
G36*
X-3189622Y-1154118D02*
X-3152788Y-1169376D01*
X-3119638Y-1191526D01*
X-3091446Y-1219718D01*
X-3069296Y-1252868D01*
X-3054038Y-1289702D01*
X-3046260Y-1328805D01*
X-3046260Y-1368675D01*
X-3054038Y-1407778D01*
X-3069296Y-1444612D01*
X-3091446Y-1477762D01*
X-3119638Y-1505954D01*
X-3152788Y-1528104D01*
X-3189622Y-1543362D01*
X-3228725Y-1551140D01*
X-3268595Y-1551140D01*
X-3307698Y-1543362D01*
X-3344532Y-1528104D01*
X-3377682Y-1505954D01*
X-3405874Y-1477762D01*
X-3428024Y-1444612D01*
X-3443282Y-1407778D01*
X-3451060Y-1368675D01*
X-3451060Y-1328805D01*
X-3443282Y-1289702D01*
X-3428024Y-1252868D01*
X-3405874Y-1219718D01*
X-3377682Y-1191526D01*
X-3344532Y-1169376D01*
X-3307698Y-1154118D01*
X-3268595Y-1146340D01*
X-3228725Y-1146340D01*
X-3189622Y-1154118D01*
X-3189622Y-1154118D01*
G37*
G36*
X-5191142Y-1154118D02*
X-5154308Y-1169376D01*
X-5121158Y-1191526D01*
X-5092966Y-1219718D01*
X-5070816Y-1252868D01*
X-5055558Y-1289702D01*
X-5047780Y-1328805D01*
X-5047780Y-1368675D01*
X-5055558Y-1407778D01*
X-5070816Y-1444612D01*
X-5092966Y-1477762D01*
X-5121158Y-1505954D01*
X-5154308Y-1528104D01*
X-5191142Y-1543362D01*
X-5230245Y-1551140D01*
X-5270115Y-1551140D01*
X-5309218Y-1543362D01*
X-5346052Y-1528104D01*
X-5379202Y-1505954D01*
X-5407394Y-1477762D01*
X-5429544Y-1444612D01*
X-5444802Y-1407778D01*
X-5452580Y-1368675D01*
X-5452580Y-1328805D01*
X-5444802Y-1289702D01*
X-5429544Y-1252868D01*
X-5407394Y-1219718D01*
X-5379202Y-1191526D01*
X-5346052Y-1169376D01*
X-5309218Y-1154118D01*
X-5270115Y-1146340D01*
X-5230245Y-1146340D01*
X-5191142Y-1154118D01*
X-5191142Y-1154118D01*
G37*
G36*
X-10278810Y-771690D02*
X-10828390Y-771690D01*
X-10828390Y-171310D01*
X-10278810Y-171310D01*
X-10278810Y-771690D01*
X-10278810Y-771690D01*
G37*
G36*
X-11091610Y-771690D02*
X-11641190Y-771690D01*
X-11641190Y-171310D01*
X-11091610Y-171310D01*
X-11091610Y-771690D01*
X-11091610Y-771690D01*
G37*
G36*
X-5191142Y-153358D02*
X-5154308Y-168616D01*
X-5121158Y-190766D01*
X-5092966Y-218958D01*
X-5070816Y-252108D01*
X-5055558Y-288942D01*
X-5047780Y-328045D01*
X-5047780Y-367915D01*
X-5055558Y-407018D01*
X-5070816Y-443852D01*
X-5092966Y-477002D01*
X-5121158Y-505194D01*
X-5154308Y-527344D01*
X-5191142Y-542602D01*
X-5230245Y-550380D01*
X-5270115Y-550380D01*
X-5309218Y-542602D01*
X-5346052Y-527344D01*
X-5379202Y-505194D01*
X-5407394Y-477002D01*
X-5429544Y-443852D01*
X-5444802Y-407018D01*
X-5452580Y-367915D01*
X-5452580Y-328045D01*
X-5444802Y-288942D01*
X-5429544Y-252108D01*
X-5407394Y-218958D01*
X-5379202Y-190766D01*
X-5346052Y-168616D01*
X-5309218Y-153358D01*
X-5270115Y-145580D01*
X-5230245Y-145580D01*
X-5191142Y-153358D01*
X-5191142Y-153358D01*
G37*
G36*
X-4190382Y-153358D02*
X-4153548Y-168616D01*
X-4120398Y-190766D01*
X-4092206Y-218958D01*
X-4070056Y-252108D01*
X-4054798Y-288942D01*
X-4047020Y-328045D01*
X-4047020Y-367915D01*
X-4054798Y-407018D01*
X-4070056Y-443852D01*
X-4092206Y-477002D01*
X-4120398Y-505194D01*
X-4153548Y-527344D01*
X-4190382Y-542602D01*
X-4229485Y-550380D01*
X-4269355Y-550380D01*
X-4308458Y-542602D01*
X-4345292Y-527344D01*
X-4378442Y-505194D01*
X-4406634Y-477002D01*
X-4428784Y-443852D01*
X-4444042Y-407018D01*
X-4451820Y-367915D01*
X-4451820Y-328045D01*
X-4444042Y-288942D01*
X-4428784Y-252108D01*
X-4406634Y-218958D01*
X-4378442Y-190766D01*
X-4345292Y-168616D01*
X-4308458Y-153358D01*
X-4269355Y-145580D01*
X-4229485Y-145580D01*
X-4190382Y-153358D01*
X-4190382Y-153358D01*
G37*
G36*
X-3189622Y-153358D02*
X-3152788Y-168616D01*
X-3119638Y-190766D01*
X-3091446Y-218958D01*
X-3069296Y-252108D01*
X-3054038Y-288942D01*
X-3046260Y-328045D01*
X-3046260Y-367915D01*
X-3054038Y-407018D01*
X-3069296Y-443852D01*
X-3091446Y-477002D01*
X-3119638Y-505194D01*
X-3152788Y-527344D01*
X-3189622Y-542602D01*
X-3228725Y-550380D01*
X-3268595Y-550380D01*
X-3307698Y-542602D01*
X-3344532Y-527344D01*
X-3377682Y-505194D01*
X-3405874Y-477002D01*
X-3428024Y-443852D01*
X-3443282Y-407018D01*
X-3451060Y-367915D01*
X-3451060Y-328045D01*
X-3443282Y-288942D01*
X-3428024Y-252108D01*
X-3405874Y-218958D01*
X-3377682Y-190766D01*
X-3344532Y-168616D01*
X-3307698Y-153358D01*
X-3268595Y-145580D01*
X-3228725Y-145580D01*
X-3189622Y-153358D01*
X-3189622Y-153358D01*
G37*
G36*
X5648510Y350570D02*
X3549530Y350570D01*
X3549530Y1649450D01*
X5648510Y1649450D01*
X5648510Y350570D01*
X5648510Y350570D01*
G37*
G36*
X7174587Y2811306D02*
X7283764Y2766084D01*
X7382021Y2700431D01*
X7465581Y2616871D01*
X7531234Y2518614D01*
X7576456Y2409437D01*
X7599510Y2293536D01*
X7599510Y2175364D01*
X7576456Y2059463D01*
X7531234Y1950286D01*
X7465581Y1852029D01*
X7382021Y1768469D01*
X7283764Y1702816D01*
X7174587Y1657594D01*
X7058686Y1634540D01*
X6940514Y1634540D01*
X6824613Y1657594D01*
X6715436Y1702816D01*
X6617179Y1768469D01*
X6533619Y1852029D01*
X6467966Y1950286D01*
X6422744Y2059463D01*
X6399690Y2175364D01*
X6399690Y2293536D01*
X6422744Y2409437D01*
X6467966Y2518614D01*
X6533619Y2616871D01*
X6617179Y2700431D01*
X6715436Y2766084D01*
X6824613Y2811306D01*
X6940514Y2834360D01*
X7058686Y2834360D01*
X7174587Y2811306D01*
X7174587Y2811306D01*
G37*
G36*
X5648510Y2834690D02*
X3549530Y2834690D01*
X3549530Y4133570D01*
X5648510Y4133570D01*
X5648510Y2834690D01*
X5648510Y2834690D01*
G37*
G36*
X8156029Y6472756D02*
X8306937Y6426978D01*
X8446015Y6352640D01*
X8567917Y6252597D01*
X8667960Y6130695D01*
X8742298Y5991617D01*
X8788076Y5840709D01*
X8803533Y5683770D01*
X8788076Y5526831D01*
X8742298Y5375923D01*
X8667960Y5236845D01*
X8567917Y5114943D01*
X8446015Y5014900D01*
X8306937Y4940562D01*
X8156029Y4894784D01*
X8038414Y4883200D01*
X5960786Y4883200D01*
X5843171Y4894784D01*
X5692263Y4940562D01*
X5553185Y5014900D01*
X5431283Y5114943D01*
X5331240Y5236845D01*
X5256902Y5375923D01*
X5211124Y5526831D01*
X5195667Y5683770D01*
X5211124Y5840709D01*
X5256902Y5991617D01*
X5331240Y6130695D01*
X5431283Y6252597D01*
X5553185Y6352640D01*
X5692263Y6426978D01*
X5843171Y6472756D01*
X5960786Y6484340D01*
X8038414Y6484340D01*
X8156029Y6472756D01*
X8156029Y6472756D01*
G37*
G36*
X3158310Y5306230D02*
X1558770Y5306230D01*
X1558770Y7205490D01*
X3158310Y7205490D01*
X3158310Y5306230D01*
X3158310Y5306230D01*
G37*
G36*
X-5871390Y5357030D02*
X-6612410Y5357030D01*
X-6612410Y6357130D01*
X-5871390Y6357130D01*
X-5871390Y5357030D01*
X-5871390Y5357030D01*
G37*
G36*
X-771070Y5357030D02*
X-1512090Y5357030D01*
X-1512090Y6357130D01*
X-771070Y6357130D01*
X-771070Y5357030D01*
X-771070Y5357030D01*
G37*
G36*
X-9041310Y5407830D02*
X-10640850Y5407830D01*
X-10640850Y7307090D01*
X-9041310Y7307090D01*
X-9041310Y5407830D01*
X-9041310Y5407830D01*
G37*
G36*
X-11294155Y7627285D02*
X-11203161Y7589594D01*
X-11121269Y7534875D01*
X-11051625Y7465231D01*
X-10996906Y7383339D01*
X-10959215Y7292345D01*
X-10940000Y7195746D01*
X-10940000Y7097254D01*
X-10959215Y7000655D01*
X-10996906Y6909661D01*
X-11051625Y6827769D01*
X-11121269Y6758125D01*
X-11203161Y6703406D01*
X-11294155Y6665715D01*
X-11390754Y6646500D01*
X-11489246Y6646500D01*
X-11585845Y6665715D01*
X-11676839Y6703406D01*
X-11758731Y6758125D01*
X-11828375Y6827769D01*
X-11883094Y6909661D01*
X-11920785Y7000655D01*
X-11940000Y7097254D01*
X-11940000Y7195746D01*
X-11920785Y7292345D01*
X-11883094Y7383339D01*
X-11828375Y7465231D01*
X-11758731Y7534875D01*
X-11676839Y7589594D01*
X-11585845Y7627285D01*
X-11489246Y7646500D01*
X-11390754Y7646500D01*
X-11294155Y7627285D01*
X-11294155Y7627285D01*
G37*
M02*
