G04 #@! TF.FileFunction,Legend,Top*
%FSLAX46Y46*%
G04 Gerber Fmt 4.6, Leading zero omitted, Abs format (unit mm)*
G04 Created by KiCad (PCBNEW 4.0.7) date 2018. April 04., Wednesday 12:16:15*
%MOMM*%
%LPD*%
G01*
G04 APERTURE LIST*
%ADD10C,0.150000*%
%ADD11C,0.104800*%
%ADD12C,0.125000*%
%ADD13C,0.200000*%
%ADD14C,0.180000*%
%ADD15C,0.254000*%
%ADD16C,0.149860*%
%ADD17C,0.120000*%
G04 APERTURE END LIST*
D10*
D11*
X38924801Y18326919D02*
X38877182Y18303110D01*
X38781944Y18303110D01*
X38734325Y18326919D01*
X38710515Y18374538D01*
X38710515Y18565014D01*
X38734325Y18612633D01*
X38781944Y18636443D01*
X38877182Y18636443D01*
X38924801Y18612633D01*
X38948610Y18565014D01*
X38948610Y18517395D01*
X38710515Y18469776D01*
X39091467Y18636443D02*
X39281943Y18636443D01*
X39162896Y18303110D02*
X39162896Y18731681D01*
X39186705Y18779300D01*
X39234324Y18803110D01*
X39281943Y18803110D01*
X39424800Y18326919D02*
X39472419Y18303110D01*
X39567657Y18303110D01*
X39615276Y18326919D01*
X39639086Y18374538D01*
X39639086Y18398348D01*
X39615276Y18445967D01*
X39567657Y18469776D01*
X39496229Y18469776D01*
X39448610Y18493586D01*
X39424800Y18541205D01*
X39424800Y18565014D01*
X39448610Y18612633D01*
X39496229Y18636443D01*
X39567657Y18636443D01*
X39615276Y18612633D01*
X39781943Y18636443D02*
X39972419Y18636443D01*
X39853372Y18303110D02*
X39853372Y18731681D01*
X39877181Y18779300D01*
X39924800Y18803110D01*
X39972419Y18803110D01*
X40067657Y18636443D02*
X40258133Y18636443D01*
X40139086Y18303110D02*
X40139086Y18731681D01*
X40162895Y18779300D01*
X40210514Y18803110D01*
X40258133Y18803110D01*
X40615276Y18326919D02*
X40567657Y18303110D01*
X40472419Y18303110D01*
X40424800Y18326919D01*
X40400990Y18374538D01*
X40400990Y18565014D01*
X40424800Y18612633D01*
X40472419Y18636443D01*
X40567657Y18636443D01*
X40615276Y18612633D01*
X40639085Y18565014D01*
X40639085Y18517395D01*
X40400990Y18469776D01*
D12*
X8255047Y4656900D02*
X8207428Y4680710D01*
X8136000Y4680710D01*
X8064571Y4656900D01*
X8016952Y4609281D01*
X7993143Y4561662D01*
X7969333Y4466424D01*
X7969333Y4394995D01*
X7993143Y4299757D01*
X8016952Y4252138D01*
X8064571Y4204519D01*
X8136000Y4180710D01*
X8183619Y4180710D01*
X8255047Y4204519D01*
X8278857Y4228329D01*
X8278857Y4394995D01*
X8183619Y4394995D01*
X8493143Y4180710D02*
X8493143Y4680710D01*
X8778857Y4180710D01*
X8778857Y4680710D01*
X9016953Y4180710D02*
X9016953Y4680710D01*
X9136000Y4680710D01*
X9207429Y4656900D01*
X9255048Y4609281D01*
X9278857Y4561662D01*
X9302667Y4466424D01*
X9302667Y4394995D01*
X9278857Y4299757D01*
X9255048Y4252138D01*
X9207429Y4204519D01*
X9136000Y4180710D01*
X9016953Y4180710D01*
X7617734Y-2532890D02*
X7784401Y-3032890D01*
X7951067Y-2532890D01*
X8284400Y-2770986D02*
X8355829Y-2794795D01*
X8379638Y-2818605D01*
X8403448Y-2866224D01*
X8403448Y-2937652D01*
X8379638Y-2985271D01*
X8355829Y-3009081D01*
X8308210Y-3032890D01*
X8117734Y-3032890D01*
X8117734Y-2532890D01*
X8284400Y-2532890D01*
X8332019Y-2556700D01*
X8355829Y-2580510D01*
X8379638Y-2628129D01*
X8379638Y-2675748D01*
X8355829Y-2723367D01*
X8332019Y-2747176D01*
X8284400Y-2770986D01*
X8117734Y-2770986D01*
X8617734Y-2532890D02*
X8617734Y-2937652D01*
X8641543Y-2985271D01*
X8665353Y-3009081D01*
X8712972Y-3032890D01*
X8808210Y-3032890D01*
X8855829Y-3009081D01*
X8879638Y-2985271D01*
X8903448Y-2937652D01*
X8903448Y-2532890D01*
X9117734Y-3009081D02*
X9189163Y-3032890D01*
X9308210Y-3032890D01*
X9355829Y-3009081D01*
X9379639Y-2985271D01*
X9403448Y-2937652D01*
X9403448Y-2890033D01*
X9379639Y-2842414D01*
X9355829Y-2818605D01*
X9308210Y-2794795D01*
X9212972Y-2770986D01*
X9165353Y-2747176D01*
X9141544Y-2723367D01*
X9117734Y-2675748D01*
X9117734Y-2628129D01*
X9141544Y-2580510D01*
X9165353Y-2556700D01*
X9212972Y-2532890D01*
X9332020Y-2532890D01*
X9403448Y-2556700D01*
X4995124Y-188090D02*
X4995124Y311910D01*
X5114171Y311910D01*
X5185600Y288100D01*
X5233219Y240481D01*
X5257028Y192862D01*
X5280838Y97624D01*
X5280838Y26195D01*
X5257028Y-69043D01*
X5233219Y-116662D01*
X5185600Y-164281D01*
X5114171Y-188090D01*
X4995124Y-188090D01*
X5495124Y2386D02*
X5876076Y2386D01*
X8831296Y-340490D02*
X8831296Y159510D01*
X9164629Y159510D02*
X9259867Y159510D01*
X9307486Y135700D01*
X9355105Y88081D01*
X9378914Y-7157D01*
X9378914Y-173824D01*
X9355105Y-269062D01*
X9307486Y-316681D01*
X9259867Y-340490D01*
X9164629Y-340490D01*
X9117010Y-316681D01*
X9069391Y-269062D01*
X9045581Y-173824D01*
X9045581Y-7157D01*
X9069391Y88081D01*
X9117010Y135700D01*
X9164629Y159510D01*
X8338381Y2551929D02*
X8314571Y2528119D01*
X8243143Y2504310D01*
X8195524Y2504310D01*
X8124095Y2528119D01*
X8076476Y2575738D01*
X8052667Y2623357D01*
X8028857Y2718595D01*
X8028857Y2790024D01*
X8052667Y2885262D01*
X8076476Y2932881D01*
X8124095Y2980500D01*
X8195524Y3004310D01*
X8243143Y3004310D01*
X8314571Y2980500D01*
X8338381Y2956690D01*
X8790762Y2504310D02*
X8552667Y2504310D01*
X8552667Y3004310D01*
X8957429Y2504310D02*
X8957429Y3004310D01*
X9243143Y2504310D02*
X9028857Y2790024D01*
X9243143Y3004310D02*
X8957429Y2718595D01*
X4995124Y2453510D02*
X4995124Y2953510D01*
X5114171Y2953510D01*
X5185600Y2929700D01*
X5233219Y2882081D01*
X5257028Y2834462D01*
X5280838Y2739224D01*
X5280838Y2667795D01*
X5257028Y2572557D01*
X5233219Y2524938D01*
X5185600Y2477319D01*
X5114171Y2453510D01*
X4995124Y2453510D01*
X5495124Y2643986D02*
X5876076Y2643986D01*
X5685600Y2453510D02*
X5685600Y2834462D01*
D10*
X14306972Y-3180928D02*
G75*
G03X14306972Y-3180928I-1098972J0D01*
G01*
X14306972Y3409528D02*
G75*
G03X14306972Y3409528I-1098972J0D01*
G01*
X15544800Y-1079500D02*
G75*
G03X15544800Y-1079500I-1098972J0D01*
G01*
X13055600Y-1079500D02*
G75*
G03X13055600Y-1079500I-1098972J0D01*
G01*
X15544800Y1308100D02*
G75*
G03X15544800Y1308100I-1098972J0D01*
G01*
X13055600Y1308100D02*
G75*
G03X13055600Y1308100I-1098972J0D01*
G01*
D13*
X-11770457Y6045281D02*
X-10870457Y6311948D01*
X-11770457Y6578615D01*
X-11684743Y6807186D02*
X-11727600Y6845281D01*
X-11770457Y6921472D01*
X-11770457Y7111948D01*
X-11727600Y7188138D01*
X-11684743Y7226234D01*
X-11599029Y7264329D01*
X-11513314Y7264329D01*
X-11384743Y7226234D01*
X-10870457Y6769091D01*
X-10870457Y7264329D01*
D14*
X-11063571Y-2677614D02*
X-11873571Y-2677614D01*
X-11063571Y-2163329D01*
X-11873571Y-2163329D01*
X-11063571Y-1734757D02*
X-11603571Y-1734757D01*
X-11873571Y-1734757D02*
X-11835000Y-1777614D01*
X-11796429Y-1734757D01*
X-11835000Y-1691900D01*
X-11873571Y-1734757D01*
X-11796429Y-1734757D01*
X-11603571Y-1434758D02*
X-11603571Y-1091901D01*
X-11873571Y-1306186D02*
X-11179286Y-1306186D01*
X-11102143Y-1263329D01*
X-11063571Y-1177615D01*
X-11063571Y-1091901D01*
X-11063571Y-791900D02*
X-11603571Y-791900D01*
X-11449286Y-791900D02*
X-11526429Y-749043D01*
X-11565000Y-706186D01*
X-11603571Y-620472D01*
X-11603571Y-534757D01*
X-11063571Y-106186D02*
X-11102143Y-191900D01*
X-11140714Y-234757D01*
X-11217857Y-277614D01*
X-11449286Y-277614D01*
X-11526429Y-234757D01*
X-11565000Y-191900D01*
X-11603571Y-106186D01*
X-11603571Y22386D01*
X-11565000Y108100D01*
X-11526429Y150957D01*
X-11449286Y193814D01*
X-11217857Y193814D01*
X-11140714Y150957D01*
X-11102143Y108100D01*
X-11063571Y22386D01*
X-11063571Y-106186D01*
X-11063571Y579529D02*
X-11873571Y579529D01*
X-11372143Y665243D02*
X-11063571Y922386D01*
X-11603571Y922386D02*
X-11295000Y579529D01*
X-11102143Y1650957D02*
X-11063571Y1565243D01*
X-11063571Y1393814D01*
X-11102143Y1308100D01*
X-11179286Y1265243D01*
X-11487857Y1265243D01*
X-11565000Y1308100D01*
X-11603571Y1393814D01*
X-11603571Y1565243D01*
X-11565000Y1650957D01*
X-11487857Y1693814D01*
X-11410714Y1693814D01*
X-11333571Y1265243D01*
X-11603571Y1993814D02*
X-11063571Y2208100D01*
X-11603571Y2422386D02*
X-11063571Y2208100D01*
X-10870714Y2122386D01*
X-10832143Y2079529D01*
X-10793571Y1993814D01*
X-11063571Y3450957D02*
X-11873571Y3450957D01*
X-11873571Y3793814D01*
X-11835000Y3879528D01*
X-11796429Y3922385D01*
X-11719286Y3965242D01*
X-11603571Y3965242D01*
X-11526429Y3922385D01*
X-11487857Y3879528D01*
X-11449286Y3793814D01*
X-11449286Y3450957D01*
X-11063571Y4350957D02*
X-11603571Y4350957D01*
X-11449286Y4350957D02*
X-11526429Y4393814D01*
X-11565000Y4436671D01*
X-11603571Y4522385D01*
X-11603571Y4608100D01*
X-11063571Y5036671D02*
X-11102143Y4950957D01*
X-11140714Y4908100D01*
X-11217857Y4865243D01*
X-11449286Y4865243D01*
X-11526429Y4908100D01*
X-11565000Y4950957D01*
X-11603571Y5036671D01*
X-11603571Y5165243D01*
X-11565000Y5250957D01*
X-11526429Y5293814D01*
X-11449286Y5336671D01*
X-11217857Y5336671D01*
X-11140714Y5293814D01*
X-11102143Y5250957D01*
X-11063571Y5165243D01*
X-11063571Y5036671D01*
D15*
X4899020Y4683010D02*
X4899020Y5782830D01*
X4899020Y-4714990D02*
X4899020Y-5814810D01*
D16*
X924560Y-5941060D02*
X3276600Y-5941060D01*
X3276600Y-5941060D02*
X3276600Y-7089140D01*
X3276600Y-7089140D02*
X924560Y-7089140D01*
X924560Y-7089140D02*
X924560Y-5941060D01*
X-172720Y-6123940D02*
X-2524760Y-6123940D01*
X-2524760Y-6123940D02*
X-2524760Y-4975860D01*
X-2524760Y-4975860D02*
X-172720Y-4975860D01*
X-172720Y-4975860D02*
X-172720Y-6123940D01*
X-6649720Y2052320D02*
X-7650480Y1051560D01*
X-7650480Y1051560D02*
X-7650480Y-4749800D01*
X-848360Y2052320D02*
X-848360Y-4749800D01*
X-848360Y-4749800D02*
X-7650480Y-4749800D01*
X-6649720Y2052320D02*
X-848360Y2052320D01*
X1366520Y-5882640D02*
X1366520Y-2880360D01*
X1366520Y-2880360D02*
X2316480Y-2880360D01*
X2316480Y-2880360D02*
X2316480Y-5882640D01*
X2316480Y-5882640D02*
X1366520Y-5882640D01*
X3102310Y-5979160D02*
G75*
G03X3102310Y-5979160I-110190J0D01*
G01*
X-10426700Y2319020D02*
X-10426700Y6383020D01*
X-10426700Y6383020D02*
X-7073900Y6383020D01*
X-7073900Y6383020D02*
X-7073900Y2319020D01*
X-7073900Y2319020D02*
X-10426700Y2319020D01*
X-10226040Y-276860D02*
X-7874000Y-276860D01*
X-7874000Y-276860D02*
X-7874000Y-1424940D01*
X-7874000Y-1424940D02*
X-10226040Y-1424940D01*
X-10226040Y-1424940D02*
X-10226040Y-276860D01*
X-10376020Y-6177540D02*
X-10376020Y-5029460D01*
X-10376020Y-5029460D02*
X-8023980Y-5029460D01*
X-8023980Y-5029460D02*
X-8023980Y-6177540D01*
X-8023980Y-6177540D02*
X-10376020Y-6177540D01*
X-5725960Y4872520D02*
X-5725960Y2520480D01*
X-5725960Y2520480D02*
X-6874040Y2520480D01*
X-6874040Y2520480D02*
X-6874040Y4872520D01*
X-6874040Y4872520D02*
X-5725960Y4872520D01*
X-172720Y-6123940D02*
X-2524760Y-6123940D01*
X-2524760Y-6123940D02*
X-2524760Y-4975860D01*
X-2524760Y-4975860D02*
X-172720Y-4975860D01*
X-172720Y-4975860D02*
X-172720Y-6123940D01*
X949960Y7124700D02*
X3302000Y7124700D01*
X3302000Y7124700D02*
X3302000Y5976620D01*
X3302000Y5976620D02*
X949960Y5976620D01*
X949960Y5976620D02*
X949960Y7124700D01*
X-3525960Y4872520D02*
X-3525960Y2520480D01*
X-3525960Y2520480D02*
X-4674040Y2520480D01*
X-4674040Y2520480D02*
X-4674040Y4872520D01*
X-4674040Y4872520D02*
X-3525960Y4872520D01*
X-7874000Y-3073400D02*
X-10226040Y-3073400D01*
X-10226040Y-3073400D02*
X-10226040Y-1925320D01*
X-10226040Y-1925320D02*
X-7874000Y-1925320D01*
X-7874000Y-1925320D02*
X-7874000Y-3073400D01*
X-7673340Y6525260D02*
X-10025380Y6525260D01*
X-10025380Y6525260D02*
X-10025380Y7673340D01*
X-10025380Y7673340D02*
X-7673340Y7673340D01*
X-7673340Y7673340D02*
X-7673340Y6525260D01*
X-2524760Y-6375400D02*
X-172720Y-6375400D01*
X-172720Y-6375400D02*
X-172720Y-7523480D01*
X-172720Y-7523480D02*
X-2524760Y-7523480D01*
X-2524760Y-7523480D02*
X-2524760Y-6375400D01*
X949960Y5875020D02*
X3302000Y5875020D01*
X3302000Y5875020D02*
X3302000Y4726940D01*
X3302000Y4726940D02*
X949960Y4726940D01*
X949960Y4726940D02*
X949960Y5875020D01*
X2750820Y-2872740D02*
X398780Y-2872740D01*
X398780Y-2872740D02*
X398780Y-1724660D01*
X398780Y-1724660D02*
X2750820Y-1724660D01*
X2750820Y-1724660D02*
X2750820Y-2872740D01*
X-2837180Y-6385560D02*
X-2837180Y-7533640D01*
X-2837180Y-7533640D02*
X-5189220Y-7533640D01*
X-5189220Y-7533640D02*
X-5189220Y-6385560D01*
X-5189220Y-6385560D02*
X-2837180Y-6385560D01*
X-10376020Y-7477540D02*
X-10376020Y-6329460D01*
X-10376020Y-6329460D02*
X-8023980Y-6329460D01*
X-8023980Y-6329460D02*
X-8023980Y-7477540D01*
X-8023980Y-7477540D02*
X-10376020Y-7477540D01*
X-4523980Y6170540D02*
X-4523980Y5022460D01*
X-4523980Y5022460D02*
X-6876020Y5022460D01*
X-6876020Y5022460D02*
X-6876020Y6170540D01*
X-6876020Y6170540D02*
X-4523980Y6170540D01*
X398780Y226060D02*
X398780Y1374140D01*
X398780Y1374140D02*
X2750820Y1374140D01*
X2750820Y1374140D02*
X2750820Y226060D01*
X2750820Y226060D02*
X398780Y226060D01*
X398780Y1242060D02*
X398780Y2390140D01*
X398780Y2390140D02*
X2750820Y2390140D01*
X2750820Y2390140D02*
X2750820Y1242060D01*
X2750820Y1242060D02*
X398780Y1242060D01*
X398780Y-891540D02*
X398780Y256540D01*
X398780Y256540D02*
X2750820Y256540D01*
X2750820Y256540D02*
X2750820Y-891540D01*
X2750820Y-891540D02*
X398780Y-891540D01*
D17*
X4303600Y-581900D02*
X4303600Y-1881900D01*
X2503600Y-2131900D02*
X2503600Y-581900D01*
D10*
X6235734Y7947757D02*
X6235734Y7304900D01*
X6197638Y7176329D01*
X6121448Y7090614D01*
X6007162Y7047757D01*
X5930972Y7047757D01*
X6578591Y7862043D02*
X6616686Y7904900D01*
X6692877Y7947757D01*
X6883353Y7947757D01*
X6959543Y7904900D01*
X6997639Y7862043D01*
X7035734Y7776329D01*
X7035734Y7690614D01*
X6997639Y7562043D01*
X6540496Y7047757D01*
X7035734Y7047757D01*
X3854514Y-6887329D02*
X3816419Y-6930186D01*
X3702133Y-6973043D01*
X3625943Y-6973043D01*
X3511657Y-6930186D01*
X3435466Y-6844471D01*
X3397371Y-6758757D01*
X3359276Y-6587329D01*
X3359276Y-6458757D01*
X3397371Y-6287329D01*
X3435466Y-6201614D01*
X3511657Y-6115900D01*
X3625943Y-6073043D01*
X3702133Y-6073043D01*
X3816419Y-6115900D01*
X3854514Y-6158757D01*
X4616419Y-6973043D02*
X4159276Y-6973043D01*
X4387847Y-6973043D02*
X4387847Y-6073043D01*
X4311657Y-6201614D01*
X4235466Y-6287329D01*
X4159276Y-6330186D01*
X5378324Y-6973043D02*
X4921181Y-6973043D01*
X5149752Y-6973043D02*
X5149752Y-6073043D01*
X5073562Y-6201614D01*
X4997371Y-6287329D01*
X4921181Y-6330186D01*
X-3536933Y-5972929D02*
X-3575028Y-6015786D01*
X-3689314Y-6058643D01*
X-3765504Y-6058643D01*
X-3879790Y-6015786D01*
X-3955981Y-5930071D01*
X-3994076Y-5844357D01*
X-4032171Y-5672929D01*
X-4032171Y-5544357D01*
X-3994076Y-5372929D01*
X-3955981Y-5287214D01*
X-3879790Y-5201500D01*
X-3765504Y-5158643D01*
X-3689314Y-5158643D01*
X-3575028Y-5201500D01*
X-3536933Y-5244357D01*
X-3270266Y-5158643D02*
X-2736933Y-5158643D01*
X-3079790Y-6058643D01*
X-1403276Y6895357D02*
X-1403276Y7795357D01*
X-1098514Y7795357D01*
X-1022323Y7752500D01*
X-984228Y7709643D01*
X-946133Y7623929D01*
X-946133Y7495357D01*
X-984228Y7409643D01*
X-1022323Y7366786D01*
X-1098514Y7323929D01*
X-1403276Y7323929D01*
X-184228Y6895357D02*
X-641371Y6895357D01*
X-412800Y6895357D02*
X-412800Y7795357D01*
X-488990Y7666786D01*
X-565181Y7581071D01*
X-641371Y7538214D01*
X-8940724Y1242157D02*
X-8940724Y513586D01*
X-8902629Y427871D01*
X-8864533Y385014D01*
X-8788343Y342157D01*
X-8635962Y342157D01*
X-8559771Y385014D01*
X-8521676Y427871D01*
X-8483581Y513586D01*
X-8483581Y1242157D01*
X-7683581Y342157D02*
X-8140724Y342157D01*
X-7912153Y342157D02*
X-7912153Y1242157D01*
X-7988343Y1113586D01*
X-8064534Y1027871D01*
X-8140724Y985014D01*
X4013276Y-3583843D02*
X4013276Y-4312414D01*
X4051371Y-4398129D01*
X4089467Y-4440986D01*
X4165657Y-4483843D01*
X4318038Y-4483843D01*
X4394229Y-4440986D01*
X4432324Y-4398129D01*
X4470419Y-4312414D01*
X4470419Y-3583843D01*
X4813276Y-3669557D02*
X4851371Y-3626700D01*
X4927562Y-3583843D01*
X5118038Y-3583843D01*
X5194228Y-3626700D01*
X5232324Y-3669557D01*
X5270419Y-3755271D01*
X5270419Y-3840986D01*
X5232324Y-3969557D01*
X4775181Y-4483843D01*
X5270419Y-4483843D01*
X-11772819Y4645757D02*
X-11239486Y3745757D01*
X-11239486Y4645757D02*
X-11772819Y3745757D01*
X-10515676Y3745757D02*
X-10972819Y3745757D01*
X-10744248Y3745757D02*
X-10744248Y4645757D01*
X-10820438Y4517186D01*
X-10896629Y4431471D01*
X-10972819Y4388614D01*
X-11258533Y-1197729D02*
X-11296628Y-1240586D01*
X-11410914Y-1283443D01*
X-11487104Y-1283443D01*
X-11601390Y-1240586D01*
X-11677581Y-1154871D01*
X-11715676Y-1069157D01*
X-11753771Y-897729D01*
X-11753771Y-769157D01*
X-11715676Y-597729D01*
X-11677581Y-512014D01*
X-11601390Y-426300D01*
X-11487104Y-383443D01*
X-11410914Y-383443D01*
X-11296628Y-426300D01*
X-11258533Y-469157D01*
X-10991866Y-383443D02*
X-10496628Y-383443D01*
X-10763295Y-726300D01*
X-10649009Y-726300D01*
X-10572819Y-769157D01*
X-10534723Y-812014D01*
X-10496628Y-897729D01*
X-10496628Y-1112014D01*
X-10534723Y-1197729D01*
X-10572819Y-1240586D01*
X-10649009Y-1283443D01*
X-10877581Y-1283443D01*
X-10953771Y-1240586D01*
X-10991866Y-1197729D01*
X-11410933Y-6058643D02*
X-11677600Y-5630071D01*
X-11868076Y-6058643D02*
X-11868076Y-5158643D01*
X-11563314Y-5158643D01*
X-11487123Y-5201500D01*
X-11449028Y-5244357D01*
X-11410933Y-5330071D01*
X-11410933Y-5458643D01*
X-11449028Y-5544357D01*
X-11487123Y-5587214D01*
X-11563314Y-5630071D01*
X-11868076Y-5630071D01*
X-10649028Y-6058643D02*
X-11106171Y-6058643D01*
X-10877600Y-6058643D02*
X-10877600Y-5158643D01*
X-10953790Y-5287214D01*
X-11029981Y-5372929D01*
X-11106171Y-5415786D01*
X-4878751Y3812087D02*
X-4835894Y3773992D01*
X-4793037Y3659706D01*
X-4793037Y3583516D01*
X-4835894Y3469230D01*
X-4921609Y3393039D01*
X-5007323Y3354944D01*
X-5178751Y3316849D01*
X-5307323Y3316849D01*
X-5478751Y3354944D01*
X-5564466Y3393039D01*
X-5650180Y3469230D01*
X-5693037Y3583516D01*
X-5693037Y3659706D01*
X-5650180Y3773992D01*
X-5607323Y3812087D01*
X-4793037Y4573992D02*
X-4793037Y4116849D01*
X-4793037Y4345420D02*
X-5693037Y4345420D01*
X-5564466Y4269230D01*
X-5478751Y4193039D01*
X-5435894Y4116849D01*
X-3536933Y-5972929D02*
X-3575028Y-6015786D01*
X-3689314Y-6058643D01*
X-3765504Y-6058643D01*
X-3879790Y-6015786D01*
X-3955981Y-5930071D01*
X-3994076Y-5844357D01*
X-4032171Y-5672929D01*
X-4032171Y-5544357D01*
X-3994076Y-5372929D01*
X-3955981Y-5287214D01*
X-3879790Y-5201500D01*
X-3765504Y-5158643D01*
X-3689314Y-5158643D01*
X-3575028Y-5201500D01*
X-3536933Y-5244357D01*
X-3270266Y-5158643D02*
X-2736933Y-5158643D01*
X-3079790Y-6058643D01*
X3966667Y6168271D02*
X3928572Y6125414D01*
X3814286Y6082557D01*
X3738096Y6082557D01*
X3623810Y6125414D01*
X3547619Y6211129D01*
X3509524Y6296843D01*
X3471429Y6468271D01*
X3471429Y6596843D01*
X3509524Y6768271D01*
X3547619Y6853986D01*
X3623810Y6939700D01*
X3738096Y6982557D01*
X3814286Y6982557D01*
X3928572Y6939700D01*
X3966667Y6896843D01*
X4652381Y6982557D02*
X4500000Y6982557D01*
X4423810Y6939700D01*
X4385715Y6896843D01*
X4309524Y6768271D01*
X4271429Y6596843D01*
X4271429Y6253986D01*
X4309524Y6168271D01*
X4347619Y6125414D01*
X4423810Y6082557D01*
X4576191Y6082557D01*
X4652381Y6125414D01*
X4690477Y6168271D01*
X4728572Y6253986D01*
X4728572Y6468271D01*
X4690477Y6553986D01*
X4652381Y6596843D01*
X4576191Y6639700D01*
X4423810Y6639700D01*
X4347619Y6596843D01*
X4309524Y6553986D01*
X4271429Y6468271D01*
X-2624971Y4019567D02*
X-2582114Y3981472D01*
X-2539257Y3867186D01*
X-2539257Y3790996D01*
X-2582114Y3676710D01*
X-2667829Y3600519D01*
X-2753543Y3562424D01*
X-2924971Y3524329D01*
X-3053543Y3524329D01*
X-3224971Y3562424D01*
X-3310686Y3600519D01*
X-3396400Y3676710D01*
X-3439257Y3790996D01*
X-3439257Y3867186D01*
X-3396400Y3981472D01*
X-3353543Y4019567D01*
X-3439257Y4743377D02*
X-3439257Y4362424D01*
X-3010686Y4324329D01*
X-3053543Y4362424D01*
X-3096400Y4438615D01*
X-3096400Y4629091D01*
X-3053543Y4705281D01*
X-3010686Y4743377D01*
X-2924971Y4781472D01*
X-2710686Y4781472D01*
X-2624971Y4743377D01*
X-2582114Y4705281D01*
X-2539257Y4629091D01*
X-2539257Y4438615D01*
X-2582114Y4362424D01*
X-2624971Y4324329D01*
X-11258533Y-2856349D02*
X-11296628Y-2899206D01*
X-11410914Y-2942063D01*
X-11487104Y-2942063D01*
X-11601390Y-2899206D01*
X-11677581Y-2813491D01*
X-11715676Y-2727777D01*
X-11753771Y-2556349D01*
X-11753771Y-2427777D01*
X-11715676Y-2256349D01*
X-11677581Y-2170634D01*
X-11601390Y-2084920D01*
X-11487104Y-2042063D01*
X-11410914Y-2042063D01*
X-11296628Y-2084920D01*
X-11258533Y-2127777D01*
X-10572819Y-2342063D02*
X-10572819Y-2942063D01*
X-10763295Y-1999206D02*
X-10953771Y-2642063D01*
X-10458533Y-2642063D01*
X-10994373Y6945511D02*
X-11032468Y6902654D01*
X-11146754Y6859797D01*
X-11222944Y6859797D01*
X-11337230Y6902654D01*
X-11413421Y6988369D01*
X-11451516Y7074083D01*
X-11489611Y7245511D01*
X-11489611Y7374083D01*
X-11451516Y7545511D01*
X-11413421Y7631226D01*
X-11337230Y7716940D01*
X-11222944Y7759797D01*
X-11146754Y7759797D01*
X-11032468Y7716940D01*
X-10994373Y7674083D01*
X-10689611Y7674083D02*
X-10651516Y7716940D01*
X-10575325Y7759797D01*
X-10384849Y7759797D01*
X-10308659Y7716940D01*
X-10270563Y7674083D01*
X-10232468Y7588369D01*
X-10232468Y7502654D01*
X-10270563Y7374083D01*
X-10727706Y6859797D01*
X-10232468Y6859797D01*
X374667Y-7954129D02*
X336572Y-7996986D01*
X222286Y-8039843D01*
X146096Y-8039843D01*
X31810Y-7996986D01*
X-44381Y-7911271D01*
X-82476Y-7825557D01*
X-120571Y-7654129D01*
X-120571Y-7525557D01*
X-82476Y-7354129D01*
X-44381Y-7268414D01*
X31810Y-7182700D01*
X146096Y-7139843D01*
X222286Y-7139843D01*
X336572Y-7182700D01*
X374667Y-7225557D01*
X755619Y-8039843D02*
X908000Y-8039843D01*
X984191Y-7996986D01*
X1022286Y-7954129D01*
X1098477Y-7825557D01*
X1136572Y-7654129D01*
X1136572Y-7311271D01*
X1098477Y-7225557D01*
X1060381Y-7182700D01*
X984191Y-7139843D01*
X831810Y-7139843D01*
X755619Y-7182700D01*
X717524Y-7225557D01*
X679429Y-7311271D01*
X679429Y-7525557D01*
X717524Y-7611271D01*
X755619Y-7654129D01*
X831810Y-7696986D01*
X984191Y-7696986D01*
X1060381Y-7654129D01*
X1098477Y-7611271D01*
X1136572Y-7525557D01*
X3930667Y4949071D02*
X3892572Y4906214D01*
X3778286Y4863357D01*
X3702096Y4863357D01*
X3587810Y4906214D01*
X3511619Y4991929D01*
X3473524Y5077643D01*
X3435429Y5249071D01*
X3435429Y5377643D01*
X3473524Y5549071D01*
X3511619Y5634786D01*
X3587810Y5720500D01*
X3702096Y5763357D01*
X3778286Y5763357D01*
X3892572Y5720500D01*
X3930667Y5677643D01*
X4387810Y5377643D02*
X4311619Y5420500D01*
X4273524Y5463357D01*
X4235429Y5549071D01*
X4235429Y5591929D01*
X4273524Y5677643D01*
X4311619Y5720500D01*
X4387810Y5763357D01*
X4540191Y5763357D01*
X4616381Y5720500D01*
X4654477Y5677643D01*
X4692572Y5591929D01*
X4692572Y5549071D01*
X4654477Y5463357D01*
X4616381Y5420500D01*
X4540191Y5377643D01*
X4387810Y5377643D01*
X4311619Y5334786D01*
X4273524Y5291929D01*
X4235429Y5206214D01*
X4235429Y5034786D01*
X4273524Y4949071D01*
X4311619Y4906214D01*
X4387810Y4863357D01*
X4540191Y4863357D01*
X4616381Y4906214D01*
X4654477Y4949071D01*
X4692572Y5034786D01*
X4692572Y5206214D01*
X4654477Y5291929D01*
X4616381Y5334786D01*
X4540191Y5377643D01*
X857314Y-1654929D02*
X819219Y-1697786D01*
X704933Y-1740643D01*
X628743Y-1740643D01*
X514457Y-1697786D01*
X438266Y-1612071D01*
X400171Y-1526357D01*
X362076Y-1354929D01*
X362076Y-1226357D01*
X400171Y-1054929D01*
X438266Y-969214D01*
X514457Y-883500D01*
X628743Y-840643D01*
X704933Y-840643D01*
X819219Y-883500D01*
X857314Y-926357D01*
X1619219Y-1740643D02*
X1162076Y-1740643D01*
X1390647Y-1740643D02*
X1390647Y-840643D01*
X1314457Y-969214D01*
X1238266Y-1054929D01*
X1162076Y-1097786D01*
X2114457Y-840643D02*
X2190648Y-840643D01*
X2266838Y-883500D01*
X2304933Y-926357D01*
X2343029Y-1012071D01*
X2381124Y-1183500D01*
X2381124Y-1397786D01*
X2343029Y-1569214D01*
X2304933Y-1654929D01*
X2266838Y-1697786D01*
X2190648Y-1740643D01*
X2114457Y-1740643D01*
X2038267Y-1697786D01*
X2000171Y-1654929D01*
X1962076Y-1569214D01*
X1923981Y-1397786D01*
X1923981Y-1183500D01*
X1962076Y-1012071D01*
X2000171Y-926357D01*
X2038267Y-883500D01*
X2114457Y-840643D01*
X-6229333Y-7379443D02*
X-6496000Y-6950871D01*
X-6686476Y-7379443D02*
X-6686476Y-6479443D01*
X-6381714Y-6479443D01*
X-6305523Y-6522300D01*
X-6267428Y-6565157D01*
X-6229333Y-6650871D01*
X-6229333Y-6779443D01*
X-6267428Y-6865157D01*
X-6305523Y-6908014D01*
X-6381714Y-6950871D01*
X-6686476Y-6950871D01*
X-5962666Y-6479443D02*
X-5467428Y-6479443D01*
X-5734095Y-6822300D01*
X-5619809Y-6822300D01*
X-5543619Y-6865157D01*
X-5505523Y-6908014D01*
X-5467428Y-6993729D01*
X-5467428Y-7208014D01*
X-5505523Y-7293729D01*
X-5543619Y-7336586D01*
X-5619809Y-7379443D01*
X-5848381Y-7379443D01*
X-5924571Y-7336586D01*
X-5962666Y-7293729D01*
X-11410933Y-7328643D02*
X-11677600Y-6900071D01*
X-11868076Y-7328643D02*
X-11868076Y-6428643D01*
X-11563314Y-6428643D01*
X-11487123Y-6471500D01*
X-11449028Y-6514357D01*
X-11410933Y-6600071D01*
X-11410933Y-6728643D01*
X-11449028Y-6814357D01*
X-11487123Y-6857214D01*
X-11563314Y-6900071D01*
X-11868076Y-6900071D01*
X-11106171Y-6514357D02*
X-11068076Y-6471500D01*
X-10991885Y-6428643D01*
X-10801409Y-6428643D01*
X-10725219Y-6471500D01*
X-10687123Y-6514357D01*
X-10649028Y-6600071D01*
X-10649028Y-6685786D01*
X-10687123Y-6814357D01*
X-11144266Y-7328643D01*
X-10649028Y-7328643D01*
X-5873733Y6285757D02*
X-6140400Y6714329D01*
X-6330876Y6285757D02*
X-6330876Y7185757D01*
X-6026114Y7185757D01*
X-5949923Y7142900D01*
X-5911828Y7100043D01*
X-5873733Y7014329D01*
X-5873733Y6885757D01*
X-5911828Y6800043D01*
X-5949923Y6757186D01*
X-6026114Y6714329D01*
X-6330876Y6714329D01*
X-5188019Y6885757D02*
X-5188019Y6285757D01*
X-5378495Y7228614D02*
X-5568971Y6585757D01*
X-5073733Y6585757D01*
X12655619Y3634557D02*
X12655619Y2734557D01*
X12655619Y3591700D02*
X12731810Y3634557D01*
X12884191Y3634557D01*
X12960381Y3591700D01*
X12998476Y3548843D01*
X13036572Y3463129D01*
X13036572Y3205986D01*
X12998476Y3120271D01*
X12960381Y3077414D01*
X12884191Y3034557D01*
X12731810Y3034557D01*
X12655619Y3077414D01*
X13798477Y3034557D02*
X13341334Y3034557D01*
X13569905Y3034557D02*
X13569905Y3934557D01*
X13493715Y3805986D01*
X13417524Y3720271D01*
X13341334Y3677414D01*
X11334819Y1602557D02*
X11334819Y702557D01*
X11334819Y1559700D02*
X11411010Y1602557D01*
X11563391Y1602557D01*
X11639581Y1559700D01*
X11677676Y1516843D01*
X11715772Y1431129D01*
X11715772Y1173986D01*
X11677676Y1088271D01*
X11639581Y1045414D01*
X11563391Y1002557D01*
X11411010Y1002557D01*
X11334819Y1045414D01*
X12020534Y1816843D02*
X12058629Y1859700D01*
X12134820Y1902557D01*
X12325296Y1902557D01*
X12401486Y1859700D01*
X12439582Y1816843D01*
X12477677Y1731129D01*
X12477677Y1645414D01*
X12439582Y1516843D01*
X11982439Y1002557D01*
X12477677Y1002557D01*
X11334819Y-785043D02*
X11334819Y-1685043D01*
X11334819Y-827900D02*
X11411010Y-785043D01*
X11563391Y-785043D01*
X11639581Y-827900D01*
X11677676Y-870757D01*
X11715772Y-956471D01*
X11715772Y-1213614D01*
X11677676Y-1299329D01*
X11639581Y-1342186D01*
X11563391Y-1385043D01*
X11411010Y-1385043D01*
X11334819Y-1342186D01*
X11982439Y-485043D02*
X12477677Y-485043D01*
X12211010Y-827900D01*
X12325296Y-827900D01*
X12401486Y-870757D01*
X12439582Y-913614D01*
X12477677Y-999329D01*
X12477677Y-1213614D01*
X12439582Y-1299329D01*
X12401486Y-1342186D01*
X12325296Y-1385043D01*
X12096724Y-1385043D01*
X12020534Y-1342186D01*
X11982439Y-1299329D01*
X12655619Y-2918643D02*
X12655619Y-3818643D01*
X12655619Y-2961500D02*
X12731810Y-2918643D01*
X12884191Y-2918643D01*
X12960381Y-2961500D01*
X12998476Y-3004357D01*
X13036572Y-3090071D01*
X13036572Y-3347214D01*
X12998476Y-3432929D01*
X12960381Y-3475786D01*
X12884191Y-3518643D01*
X12731810Y-3518643D01*
X12655619Y-3475786D01*
X13722286Y-2918643D02*
X13722286Y-3518643D01*
X13531810Y-2575786D02*
X13341334Y-3218643D01*
X13836572Y-3218643D01*
X13824019Y1551757D02*
X13824019Y651757D01*
X13824019Y1508900D02*
X13900210Y1551757D01*
X14052591Y1551757D01*
X14128781Y1508900D01*
X14166876Y1466043D01*
X14204972Y1380329D01*
X14204972Y1123186D01*
X14166876Y1037471D01*
X14128781Y994614D01*
X14052591Y951757D01*
X13900210Y951757D01*
X13824019Y994614D01*
X14928782Y1851757D02*
X14547829Y1851757D01*
X14509734Y1423186D01*
X14547829Y1466043D01*
X14624020Y1508900D01*
X14814496Y1508900D01*
X14890686Y1466043D01*
X14928782Y1423186D01*
X14966877Y1337471D01*
X14966877Y1123186D01*
X14928782Y1037471D01*
X14890686Y994614D01*
X14814496Y951757D01*
X14624020Y951757D01*
X14547829Y994614D01*
X14509734Y1037471D01*
X13874819Y-785043D02*
X13874819Y-1685043D01*
X13874819Y-827900D02*
X13951010Y-785043D01*
X14103391Y-785043D01*
X14179581Y-827900D01*
X14217676Y-870757D01*
X14255772Y-956471D01*
X14255772Y-1213614D01*
X14217676Y-1299329D01*
X14179581Y-1342186D01*
X14103391Y-1385043D01*
X13951010Y-1385043D01*
X13874819Y-1342186D01*
X14941486Y-485043D02*
X14789105Y-485043D01*
X14712915Y-527900D01*
X14674820Y-570757D01*
X14598629Y-699329D01*
X14560534Y-870757D01*
X14560534Y-1213614D01*
X14598629Y-1299329D01*
X14636724Y-1342186D01*
X14712915Y-1385043D01*
X14865296Y-1385043D01*
X14941486Y-1342186D01*
X14979582Y-1299329D01*
X15017677Y-1213614D01*
X15017677Y-999329D01*
X14979582Y-913614D01*
X14941486Y-870757D01*
X14865296Y-827900D01*
X14712915Y-827900D01*
X14636724Y-870757D01*
X14598629Y-913614D01*
X14560534Y-999329D01*
X3473467Y392957D02*
X3206800Y821529D01*
X3016324Y392957D02*
X3016324Y1292957D01*
X3321086Y1292957D01*
X3397277Y1250100D01*
X3435372Y1207243D01*
X3473467Y1121529D01*
X3473467Y992957D01*
X3435372Y907243D01*
X3397277Y864386D01*
X3321086Y821529D01*
X3016324Y821529D01*
X4159181Y1292957D02*
X4006800Y1292957D01*
X3930610Y1250100D01*
X3892515Y1207243D01*
X3816324Y1078671D01*
X3778229Y907243D01*
X3778229Y564386D01*
X3816324Y478671D01*
X3854419Y435814D01*
X3930610Y392957D01*
X4082991Y392957D01*
X4159181Y435814D01*
X4197277Y478671D01*
X4235372Y564386D01*
X4235372Y778671D01*
X4197277Y864386D01*
X4159181Y907243D01*
X4082991Y950100D01*
X3930610Y950100D01*
X3854419Y907243D01*
X3816324Y864386D01*
X3778229Y778671D01*
X3473467Y1459757D02*
X3206800Y1888329D01*
X3016324Y1459757D02*
X3016324Y2359757D01*
X3321086Y2359757D01*
X3397277Y2316900D01*
X3435372Y2274043D01*
X3473467Y2188329D01*
X3473467Y2059757D01*
X3435372Y1974043D01*
X3397277Y1931186D01*
X3321086Y1888329D01*
X3016324Y1888329D01*
X3740134Y2359757D02*
X4273467Y2359757D01*
X3930610Y1459757D01*
X-387333Y-978643D02*
X-654000Y-550071D01*
X-844476Y-978643D02*
X-844476Y-78643D01*
X-539714Y-78643D01*
X-463523Y-121500D01*
X-425428Y-164357D01*
X-387333Y-250071D01*
X-387333Y-378643D01*
X-425428Y-464357D01*
X-463523Y-507214D01*
X-539714Y-550071D01*
X-844476Y-550071D01*
X336477Y-78643D02*
X-44476Y-78643D01*
X-82571Y-507214D01*
X-44476Y-464357D01*
X31715Y-421500D01*
X222191Y-421500D01*
X298381Y-464357D01*
X336477Y-507214D01*
X374572Y-592929D01*
X374572Y-807214D01*
X336477Y-892929D01*
X298381Y-935786D01*
X222191Y-978643D01*
X31715Y-978643D01*
X-44476Y-935786D01*
X-82571Y-892929D01*
X4114876Y-2313843D02*
X4114876Y-3042414D01*
X4152971Y-3128129D01*
X4191067Y-3170986D01*
X4267257Y-3213843D01*
X4419638Y-3213843D01*
X4495829Y-3170986D01*
X4533924Y-3128129D01*
X4572019Y-3042414D01*
X4572019Y-2313843D01*
X4876781Y-2313843D02*
X5372019Y-2313843D01*
X5105352Y-2656700D01*
X5219638Y-2656700D01*
X5295828Y-2699557D01*
X5333924Y-2742414D01*
X5372019Y-2828129D01*
X5372019Y-3042414D01*
X5333924Y-3128129D01*
X5295828Y-3170986D01*
X5219638Y-3213843D01*
X4991066Y-3213843D01*
X4914876Y-3170986D01*
X4876781Y-3128129D01*
M02*
