G04 #@! TF.FileFunction,Legend,Top*
%FSLAX46Y46*%
G04 Gerber Fmt 4.6, Leading zero omitted, Abs format (unit mm)*
G04 Created by KiCad (PCBNEW 4.0.7) date 2018. July 01., Sunday 21:28:52*
%MOMM*%
%LPD*%
G01*
G04 APERTURE LIST*
%ADD10C,0.150000*%
%ADD11C,0.104800*%
%ADD12C,0.125000*%
%ADD13C,0.200000*%
%ADD14C,0.180000*%
%ADD15C,0.120000*%
%ADD16C,0.254000*%
%ADD17C,0.149860*%
G04 APERTURE END LIST*
D10*
X-3879571Y6939019D02*
X-3879571Y7939019D01*
X-3422428Y6939019D01*
X-3422428Y7939019D01*
X-3041476Y6939019D02*
X-3041476Y7605686D01*
X-3041476Y7939019D02*
X-3079571Y7891400D01*
X-3041476Y7843781D01*
X-3003381Y7891400D01*
X-3041476Y7939019D01*
X-3041476Y7843781D01*
X-2774810Y7605686D02*
X-2470048Y7605686D01*
X-2660524Y7939019D02*
X-2660524Y7081876D01*
X-2622429Y6986638D01*
X-2546238Y6939019D01*
X-2470048Y6939019D01*
X-2203381Y6939019D02*
X-2203381Y7605686D01*
X-2203381Y7415210D02*
X-2165286Y7510448D01*
X-2127190Y7558067D01*
X-2051000Y7605686D01*
X-1974809Y7605686D01*
X-1593857Y6939019D02*
X-1670048Y6986638D01*
X-1708143Y7034257D01*
X-1746238Y7129495D01*
X-1746238Y7415210D01*
X-1708143Y7510448D01*
X-1670048Y7558067D01*
X-1593857Y7605686D01*
X-1479571Y7605686D01*
X-1403381Y7558067D01*
X-1365286Y7510448D01*
X-1327190Y7415210D01*
X-1327190Y7129495D01*
X-1365286Y7034257D01*
X-1403381Y6986638D01*
X-1479571Y6939019D01*
X-1593857Y6939019D01*
X-984333Y6939019D02*
X-984333Y7939019D01*
X-908142Y7319971D02*
X-679571Y6939019D01*
X-679571Y7605686D02*
X-984333Y7224733D01*
X-31952Y6986638D02*
X-108142Y6939019D01*
X-260523Y6939019D01*
X-336714Y6986638D01*
X-374809Y7081876D01*
X-374809Y7462829D01*
X-336714Y7558067D01*
X-260523Y7605686D01*
X-108142Y7605686D01*
X-31952Y7558067D01*
X6143Y7462829D01*
X6143Y7367590D01*
X-374809Y7272352D01*
X272810Y7605686D02*
X463286Y6939019D01*
X653762Y7605686D02*
X463286Y6939019D01*
X387095Y6700924D01*
X349000Y6653305D01*
X272810Y6605686D01*
D11*
X38924801Y18326919D02*
X38877182Y18303110D01*
X38781944Y18303110D01*
X38734325Y18326919D01*
X38710515Y18374538D01*
X38710515Y18565014D01*
X38734325Y18612633D01*
X38781944Y18636443D01*
X38877182Y18636443D01*
X38924801Y18612633D01*
X38948610Y18565014D01*
X38948610Y18517395D01*
X38710515Y18469776D01*
X39091467Y18636443D02*
X39281943Y18636443D01*
X39162896Y18303110D02*
X39162896Y18731681D01*
X39186705Y18779300D01*
X39234324Y18803110D01*
X39281943Y18803110D01*
X39424800Y18326919D02*
X39472419Y18303110D01*
X39567657Y18303110D01*
X39615276Y18326919D01*
X39639086Y18374538D01*
X39639086Y18398348D01*
X39615276Y18445967D01*
X39567657Y18469776D01*
X39496229Y18469776D01*
X39448610Y18493586D01*
X39424800Y18541205D01*
X39424800Y18565014D01*
X39448610Y18612633D01*
X39496229Y18636443D01*
X39567657Y18636443D01*
X39615276Y18612633D01*
X39781943Y18636443D02*
X39972419Y18636443D01*
X39853372Y18303110D02*
X39853372Y18731681D01*
X39877181Y18779300D01*
X39924800Y18803110D01*
X39972419Y18803110D01*
X40067657Y18636443D02*
X40258133Y18636443D01*
X40139086Y18303110D02*
X40139086Y18731681D01*
X40162895Y18779300D01*
X40210514Y18803110D01*
X40258133Y18803110D01*
X40615276Y18326919D02*
X40567657Y18303110D01*
X40472419Y18303110D01*
X40424800Y18326919D01*
X40400990Y18374538D01*
X40400990Y18565014D01*
X40424800Y18612633D01*
X40472419Y18636443D01*
X40567657Y18636443D01*
X40615276Y18612633D01*
X40639085Y18565014D01*
X40639085Y18517395D01*
X40400990Y18469776D01*
D12*
X8255047Y4656900D02*
X8207428Y4680710D01*
X8136000Y4680710D01*
X8064571Y4656900D01*
X8016952Y4609281D01*
X7993143Y4561662D01*
X7969333Y4466424D01*
X7969333Y4394995D01*
X7993143Y4299757D01*
X8016952Y4252138D01*
X8064571Y4204519D01*
X8136000Y4180710D01*
X8183619Y4180710D01*
X8255047Y4204519D01*
X8278857Y4228329D01*
X8278857Y4394995D01*
X8183619Y4394995D01*
X8493143Y4180710D02*
X8493143Y4680710D01*
X8778857Y4180710D01*
X8778857Y4680710D01*
X9016953Y4180710D02*
X9016953Y4680710D01*
X9136000Y4680710D01*
X9207429Y4656900D01*
X9255048Y4609281D01*
X9278857Y4561662D01*
X9302667Y4466424D01*
X9302667Y4394995D01*
X9278857Y4299757D01*
X9255048Y4252138D01*
X9207429Y4204519D01*
X9136000Y4180710D01*
X9016953Y4180710D01*
X7617734Y-2532890D02*
X7784401Y-3032890D01*
X7951067Y-2532890D01*
X8284400Y-2770986D02*
X8355829Y-2794795D01*
X8379638Y-2818605D01*
X8403448Y-2866224D01*
X8403448Y-2937652D01*
X8379638Y-2985271D01*
X8355829Y-3009081D01*
X8308210Y-3032890D01*
X8117734Y-3032890D01*
X8117734Y-2532890D01*
X8284400Y-2532890D01*
X8332019Y-2556700D01*
X8355829Y-2580510D01*
X8379638Y-2628129D01*
X8379638Y-2675748D01*
X8355829Y-2723367D01*
X8332019Y-2747176D01*
X8284400Y-2770986D01*
X8117734Y-2770986D01*
X8617734Y-2532890D02*
X8617734Y-2937652D01*
X8641543Y-2985271D01*
X8665353Y-3009081D01*
X8712972Y-3032890D01*
X8808210Y-3032890D01*
X8855829Y-3009081D01*
X8879638Y-2985271D01*
X8903448Y-2937652D01*
X8903448Y-2532890D01*
X9117734Y-3009081D02*
X9189163Y-3032890D01*
X9308210Y-3032890D01*
X9355829Y-3009081D01*
X9379639Y-2985271D01*
X9403448Y-2937652D01*
X9403448Y-2890033D01*
X9379639Y-2842414D01*
X9355829Y-2818605D01*
X9308210Y-2794795D01*
X9212972Y-2770986D01*
X9165353Y-2747176D01*
X9141544Y-2723367D01*
X9117734Y-2675748D01*
X9117734Y-2628129D01*
X9141544Y-2580510D01*
X9165353Y-2556700D01*
X9212972Y-2532890D01*
X9332020Y-2532890D01*
X9403448Y-2556700D01*
X4995124Y-188090D02*
X4995124Y311910D01*
X5114171Y311910D01*
X5185600Y288100D01*
X5233219Y240481D01*
X5257028Y192862D01*
X5280838Y97624D01*
X5280838Y26195D01*
X5257028Y-69043D01*
X5233219Y-116662D01*
X5185600Y-164281D01*
X5114171Y-188090D01*
X4995124Y-188090D01*
X5495124Y2386D02*
X5876076Y2386D01*
X8831296Y-340490D02*
X8831296Y159510D01*
X9164629Y159510D02*
X9259867Y159510D01*
X9307486Y135700D01*
X9355105Y88081D01*
X9378914Y-7157D01*
X9378914Y-173824D01*
X9355105Y-269062D01*
X9307486Y-316681D01*
X9259867Y-340490D01*
X9164629Y-340490D01*
X9117010Y-316681D01*
X9069391Y-269062D01*
X9045581Y-173824D01*
X9045581Y-7157D01*
X9069391Y88081D01*
X9117010Y135700D01*
X9164629Y159510D01*
X8338381Y2551929D02*
X8314571Y2528119D01*
X8243143Y2504310D01*
X8195524Y2504310D01*
X8124095Y2528119D01*
X8076476Y2575738D01*
X8052667Y2623357D01*
X8028857Y2718595D01*
X8028857Y2790024D01*
X8052667Y2885262D01*
X8076476Y2932881D01*
X8124095Y2980500D01*
X8195524Y3004310D01*
X8243143Y3004310D01*
X8314571Y2980500D01*
X8338381Y2956690D01*
X8790762Y2504310D02*
X8552667Y2504310D01*
X8552667Y3004310D01*
X8957429Y2504310D02*
X8957429Y3004310D01*
X9243143Y2504310D02*
X9028857Y2790024D01*
X9243143Y3004310D02*
X8957429Y2718595D01*
X4995124Y2453510D02*
X4995124Y2953510D01*
X5114171Y2953510D01*
X5185600Y2929700D01*
X5233219Y2882081D01*
X5257028Y2834462D01*
X5280838Y2739224D01*
X5280838Y2667795D01*
X5257028Y2572557D01*
X5233219Y2524938D01*
X5185600Y2477319D01*
X5114171Y2453510D01*
X4995124Y2453510D01*
X5495124Y2643986D02*
X5876076Y2643986D01*
X5685600Y2453510D02*
X5685600Y2834462D01*
D10*
X14306972Y-3180928D02*
G75*
G03X14306972Y-3180928I-1098972J0D01*
G01*
X14306972Y3409528D02*
G75*
G03X14306972Y3409528I-1098972J0D01*
G01*
X15544800Y-1079500D02*
G75*
G03X15544800Y-1079500I-1098972J0D01*
G01*
X13055600Y-1079500D02*
G75*
G03X13055600Y-1079500I-1098972J0D01*
G01*
X15544800Y1308100D02*
G75*
G03X15544800Y1308100I-1098972J0D01*
G01*
X13055600Y1308100D02*
G75*
G03X13055600Y1308100I-1098972J0D01*
G01*
D13*
X7620081Y7820757D02*
X7886748Y6920757D01*
X8153415Y7820757D01*
X8343891Y7820757D02*
X8839129Y7820757D01*
X8572462Y7477900D01*
X8686748Y7477900D01*
X8762938Y7435043D01*
X8801034Y7392186D01*
X8839129Y7306471D01*
X8839129Y7092186D01*
X8801034Y7006471D01*
X8762938Y6963614D01*
X8686748Y6920757D01*
X8458176Y6920757D01*
X8381986Y6963614D01*
X8343891Y7006471D01*
D14*
X4780872Y7075771D02*
X4780872Y7885771D01*
X5123729Y7885771D01*
X5209443Y7847200D01*
X5252300Y7808629D01*
X5295157Y7731486D01*
X5295157Y7615771D01*
X5252300Y7538629D01*
X5209443Y7500057D01*
X5123729Y7461486D01*
X4780872Y7461486D01*
X5680872Y7075771D02*
X5680872Y7615771D01*
X5680872Y7461486D02*
X5723729Y7538629D01*
X5766586Y7577200D01*
X5852300Y7615771D01*
X5938015Y7615771D01*
X6366586Y7075771D02*
X6280872Y7114343D01*
X6238015Y7152914D01*
X6195158Y7230057D01*
X6195158Y7461486D01*
X6238015Y7538629D01*
X6280872Y7577200D01*
X6366586Y7615771D01*
X6495158Y7615771D01*
X6580872Y7577200D01*
X6623729Y7538629D01*
X6666586Y7461486D01*
X6666586Y7230057D01*
X6623729Y7152914D01*
X6580872Y7114343D01*
X6495158Y7075771D01*
X6366586Y7075771D01*
D15*
X-4474400Y-5477100D02*
X-4974400Y-5477100D01*
X-4974400Y-6537100D02*
X-4474400Y-6537100D01*
X-3527200Y-6011100D02*
X-3527200Y-6511100D01*
X-2467200Y-6511100D02*
X-2467200Y-6011100D01*
X-4474400Y-6391500D02*
X-4974400Y-6391500D01*
X-4974400Y-7451500D02*
X-4474400Y-7451500D01*
X-6701600Y1946500D02*
X-6201600Y1946500D01*
X-6201600Y3006500D02*
X-6701600Y3006500D01*
X1824800Y1330100D02*
X1324800Y1330100D01*
X1324800Y270100D02*
X1824800Y270100D01*
X1824800Y2346100D02*
X1324800Y2346100D01*
X1324800Y1286100D02*
X1824800Y1286100D01*
X1824800Y212500D02*
X1324800Y212500D01*
X1324800Y-847500D02*
X1824800Y-847500D01*
X-11604400Y-6366700D02*
X-11604400Y-6866700D01*
X-10544400Y-6866700D02*
X-10544400Y-6366700D01*
X-7642000Y-6214300D02*
X-7642000Y-6714300D01*
X-6582000Y-6714300D02*
X-6582000Y-6214300D01*
X-5787200Y4080100D02*
X-5287200Y4080100D01*
X-5287200Y5140100D02*
X-5787200Y5140100D01*
X-5787200Y3165700D02*
X-5287200Y3165700D01*
X-5287200Y4225700D02*
X-5787200Y4225700D01*
X-10063200Y-3886300D02*
X-9563200Y-3886300D01*
X-9563200Y-2946300D02*
X-10063200Y-2946300D01*
D10*
X-8974800Y4864700D02*
X-6874800Y4864700D01*
X-9749800Y8114700D02*
X-6874800Y8114700D01*
D15*
X-7483200Y-6703900D02*
X-7483200Y-4903900D01*
X-10703200Y-4903900D02*
X-10703200Y-7353900D01*
X-5126800Y6781700D02*
X-4626800Y6781700D01*
X-4626800Y7721700D02*
X-5126800Y7721700D01*
X4303600Y-581900D02*
X4303600Y-1881900D01*
X2503600Y-2131900D02*
X2503600Y-581900D01*
D16*
X4899020Y4683010D02*
X4899020Y5782830D01*
X4899020Y-4714990D02*
X4899020Y-5814810D01*
D17*
X924560Y-5941060D02*
X3276600Y-5941060D01*
X3276600Y-5941060D02*
X3276600Y-7089140D01*
X3276600Y-7089140D02*
X924560Y-7089140D01*
X924560Y-7089140D02*
X924560Y-5941060D01*
X-172720Y-6123940D02*
X-2524760Y-6123940D01*
X-2524760Y-6123940D02*
X-2524760Y-4975860D01*
X-2524760Y-4975860D02*
X-172720Y-4975860D01*
X-172720Y-4975860D02*
X-172720Y-6123940D01*
X-6649720Y2052320D02*
X-7650480Y1051560D01*
X-7650480Y1051560D02*
X-7650480Y-4749800D01*
X-848360Y2052320D02*
X-848360Y-4749800D01*
X-848360Y-4749800D02*
X-7650480Y-4749800D01*
X-6649720Y2052320D02*
X-848360Y2052320D01*
X1366520Y-5882640D02*
X1366520Y-2880360D01*
X1366520Y-2880360D02*
X2316480Y-2880360D01*
X2316480Y-2880360D02*
X2316480Y-5882640D01*
X2316480Y-5882640D02*
X1366520Y-5882640D01*
X3102310Y-5979160D02*
G75*
G03X3102310Y-5979160I-110190J0D01*
G01*
X-11938000Y139700D02*
X-11938000Y4203700D01*
X-11938000Y4203700D02*
X-8585200Y4203700D01*
X-8585200Y4203700D02*
X-8585200Y139700D01*
X-8585200Y139700D02*
X-11938000Y139700D01*
X-10167620Y-403860D02*
X-7815580Y-403860D01*
X-7815580Y-403860D02*
X-7815580Y-1551940D01*
X-7815580Y-1551940D02*
X-10167620Y-1551940D01*
X-10167620Y-1551940D02*
X-10167620Y-403860D01*
X-7553960Y2534920D02*
X-7553960Y182880D01*
X-7553960Y182880D02*
X-8702040Y182880D01*
X-8702040Y182880D02*
X-8702040Y2534920D01*
X-8702040Y2534920D02*
X-7553960Y2534920D01*
X949960Y7124700D02*
X3302000Y7124700D01*
X3302000Y7124700D02*
X3302000Y5976620D01*
X3302000Y5976620D02*
X949960Y5976620D01*
X949960Y5976620D02*
X949960Y7124700D01*
X-3525960Y4872520D02*
X-3525960Y2520480D01*
X-3525960Y2520480D02*
X-4674040Y2520480D01*
X-4674040Y2520480D02*
X-4674040Y4872520D01*
X-4674040Y4872520D02*
X-3525960Y4872520D01*
X-10167620Y-1673860D02*
X-7815580Y-1673860D01*
X-7815580Y-1673860D02*
X-7815580Y-2821940D01*
X-7815580Y-2821940D02*
X-10167620Y-2821940D01*
X-10167620Y-2821940D02*
X-10167620Y-1673860D01*
X-10652760Y6395720D02*
X-10652760Y4043680D01*
X-10652760Y4043680D02*
X-11800840Y4043680D01*
X-11800840Y4043680D02*
X-11800840Y6395720D01*
X-11800840Y6395720D02*
X-10652760Y6395720D01*
X-2524760Y-6375400D02*
X-172720Y-6375400D01*
X-172720Y-6375400D02*
X-172720Y-7523480D01*
X-172720Y-7523480D02*
X-2524760Y-7523480D01*
X-2524760Y-7523480D02*
X-2524760Y-6375400D01*
X949960Y5875020D02*
X3302000Y5875020D01*
X3302000Y5875020D02*
X3302000Y4726940D01*
X3302000Y4726940D02*
X949960Y4726940D01*
X949960Y4726940D02*
X949960Y5875020D01*
X2750820Y-2872740D02*
X398780Y-2872740D01*
X398780Y-2872740D02*
X398780Y-1724660D01*
X398780Y-1724660D02*
X2750820Y-1724660D01*
X2750820Y-1724660D02*
X2750820Y-2872740D01*
D10*
X-6018200Y-7207205D02*
X-6218200Y-6826252D01*
X-6361057Y-7207205D02*
X-6361057Y-6407205D01*
X-6132485Y-6407205D01*
X-6075343Y-6445300D01*
X-6046771Y-6483395D01*
X-6018200Y-6559586D01*
X-6018200Y-6673871D01*
X-6046771Y-6750062D01*
X-6075343Y-6788157D01*
X-6132485Y-6826252D01*
X-6361057Y-6826252D01*
X-5446771Y-7207205D02*
X-5789628Y-7207205D01*
X-5618200Y-7207205D02*
X-5618200Y-6407205D01*
X-5675343Y-6521490D01*
X-5732485Y-6597681D01*
X-5789628Y-6635776D01*
X-3325800Y-7880305D02*
X-3525800Y-7499352D01*
X-3668657Y-7880305D02*
X-3668657Y-7080305D01*
X-3440085Y-7080305D01*
X-3382943Y-7118400D01*
X-3354371Y-7156495D01*
X-3325800Y-7232686D01*
X-3325800Y-7346971D01*
X-3354371Y-7423162D01*
X-3382943Y-7461257D01*
X-3440085Y-7499352D01*
X-3668657Y-7499352D01*
X-3125800Y-7080305D02*
X-2754371Y-7080305D01*
X-2954371Y-7385067D01*
X-2868657Y-7385067D01*
X-2811514Y-7423162D01*
X-2782943Y-7461257D01*
X-2754371Y-7537448D01*
X-2754371Y-7727924D01*
X-2782943Y-7804114D01*
X-2811514Y-7842210D01*
X-2868657Y-7880305D01*
X-3040085Y-7880305D01*
X-3097228Y-7842210D01*
X-3125800Y-7804114D01*
X-5992800Y-7994605D02*
X-6192800Y-7613652D01*
X-6335657Y-7994605D02*
X-6335657Y-7194605D01*
X-6107085Y-7194605D01*
X-6049943Y-7232700D01*
X-6021371Y-7270795D01*
X-5992800Y-7346986D01*
X-5992800Y-7461271D01*
X-6021371Y-7537462D01*
X-6049943Y-7575557D01*
X-6107085Y-7613652D01*
X-6335657Y-7613652D01*
X-5764228Y-7270795D02*
X-5735657Y-7232700D01*
X-5678514Y-7194605D01*
X-5535657Y-7194605D01*
X-5478514Y-7232700D01*
X-5449943Y-7270795D01*
X-5421371Y-7346986D01*
X-5421371Y-7423176D01*
X-5449943Y-7537462D01*
X-5792800Y-7994605D01*
X-5421371Y-7994605D01*
X-5350180Y2152695D02*
X-5550180Y2533648D01*
X-5693037Y2152695D02*
X-5693037Y2952695D01*
X-5464465Y2952695D01*
X-5407323Y2914600D01*
X-5378751Y2876505D01*
X-5350180Y2800314D01*
X-5350180Y2686029D01*
X-5378751Y2609838D01*
X-5407323Y2571743D01*
X-5464465Y2533648D01*
X-5693037Y2533648D01*
X-4835894Y2686029D02*
X-4835894Y2152695D01*
X-4978751Y2990790D02*
X-5121608Y2419362D01*
X-4750180Y2419362D01*
X52400Y387395D02*
X-147600Y768348D01*
X-290457Y387395D02*
X-290457Y1187395D01*
X-61885Y1187395D01*
X-4743Y1149300D01*
X23829Y1111205D01*
X52400Y1035014D01*
X52400Y920729D01*
X23829Y844538D01*
X-4743Y806443D01*
X-61885Y768348D01*
X-290457Y768348D01*
X566686Y1187395D02*
X452400Y1187395D01*
X395257Y1149300D01*
X366686Y1111205D01*
X309543Y996919D01*
X280972Y844538D01*
X280972Y539776D01*
X309543Y463586D01*
X338115Y425490D01*
X395257Y387395D01*
X509543Y387395D01*
X566686Y425490D01*
X595257Y463586D01*
X623829Y539776D01*
X623829Y730252D01*
X595257Y806443D01*
X566686Y844538D01*
X509543Y882633D01*
X395257Y882633D01*
X338115Y844538D01*
X309543Y806443D01*
X280972Y730252D01*
X96849Y1403395D02*
X-103151Y1784348D01*
X-246008Y1403395D02*
X-246008Y2203395D01*
X-17436Y2203395D01*
X39706Y2165300D01*
X68278Y2127205D01*
X96849Y2051014D01*
X96849Y1936729D01*
X68278Y1860538D01*
X39706Y1822443D01*
X-17436Y1784348D01*
X-246008Y1784348D01*
X296849Y2203395D02*
X696849Y2203395D01*
X439706Y1403395D01*
X64973Y-742778D02*
X-135027Y-361825D01*
X-277884Y-742778D02*
X-277884Y57222D01*
X-49312Y57222D01*
X7830Y19127D01*
X36402Y-18968D01*
X64973Y-95159D01*
X64973Y-209444D01*
X36402Y-285635D01*
X7830Y-323730D01*
X-49312Y-361825D01*
X-277884Y-361825D01*
X607830Y57222D02*
X322116Y57222D01*
X293545Y-323730D01*
X322116Y-285635D01*
X379259Y-247540D01*
X522116Y-247540D01*
X579259Y-285635D01*
X607830Y-323730D01*
X636402Y-399921D01*
X636402Y-590397D01*
X607830Y-666587D01*
X579259Y-704683D01*
X522116Y-742778D01*
X379259Y-742778D01*
X322116Y-704683D01*
X293545Y-666587D01*
X-11733200Y-5759405D02*
X-11933200Y-5378452D01*
X-12076057Y-5759405D02*
X-12076057Y-4959405D01*
X-11847485Y-4959405D01*
X-11790343Y-4997500D01*
X-11761771Y-5035595D01*
X-11733200Y-5111786D01*
X-11733200Y-5226071D01*
X-11761771Y-5302262D01*
X-11790343Y-5340357D01*
X-11847485Y-5378452D01*
X-12076057Y-5378452D01*
X-11390343Y-5302262D02*
X-11447485Y-5264167D01*
X-11476057Y-5226071D01*
X-11504628Y-5149881D01*
X-11504628Y-5111786D01*
X-11476057Y-5035595D01*
X-11447485Y-4997500D01*
X-11390343Y-4959405D01*
X-11276057Y-4959405D01*
X-11218914Y-4997500D01*
X-11190343Y-5035595D01*
X-11161771Y-5111786D01*
X-11161771Y-5149881D01*
X-11190343Y-5226071D01*
X-11218914Y-5264167D01*
X-11276057Y-5302262D01*
X-11390343Y-5302262D01*
X-11447485Y-5340357D01*
X-11476057Y-5378452D01*
X-11504628Y-5454643D01*
X-11504628Y-5607024D01*
X-11476057Y-5683214D01*
X-11447485Y-5721310D01*
X-11390343Y-5759405D01*
X-11276057Y-5759405D01*
X-11218914Y-5721310D01*
X-11190343Y-5683214D01*
X-11161771Y-5607024D01*
X-11161771Y-5454643D01*
X-11190343Y-5378452D01*
X-11218914Y-5340357D01*
X-11276057Y-5302262D01*
X-7161200Y-8045405D02*
X-7361200Y-7664452D01*
X-7504057Y-8045405D02*
X-7504057Y-7245405D01*
X-7275485Y-7245405D01*
X-7218343Y-7283500D01*
X-7189771Y-7321595D01*
X-7161200Y-7397786D01*
X-7161200Y-7512071D01*
X-7189771Y-7588262D01*
X-7218343Y-7626357D01*
X-7275485Y-7664452D01*
X-7504057Y-7664452D01*
X-6875485Y-8045405D02*
X-6761200Y-8045405D01*
X-6704057Y-8007310D01*
X-6675485Y-7969214D01*
X-6618343Y-7854929D01*
X-6589771Y-7702548D01*
X-6589771Y-7397786D01*
X-6618343Y-7321595D01*
X-6646914Y-7283500D01*
X-6704057Y-7245405D01*
X-6818343Y-7245405D01*
X-6875485Y-7283500D01*
X-6904057Y-7321595D01*
X-6932628Y-7397786D01*
X-6932628Y-7588262D01*
X-6904057Y-7664452D01*
X-6875485Y-7702548D01*
X-6818343Y-7740643D01*
X-6704057Y-7740643D01*
X-6646914Y-7702548D01*
X-6618343Y-7664452D01*
X-6589771Y-7588262D01*
X-7434215Y4083095D02*
X-7634215Y4464048D01*
X-7777072Y4083095D02*
X-7777072Y4883095D01*
X-7548500Y4883095D01*
X-7491358Y4845000D01*
X-7462786Y4806905D01*
X-7434215Y4730714D01*
X-7434215Y4616429D01*
X-7462786Y4540238D01*
X-7491358Y4502143D01*
X-7548500Y4464048D01*
X-7777072Y4464048D01*
X-6862786Y4083095D02*
X-7205643Y4083095D01*
X-7034215Y4083095D02*
X-7034215Y4883095D01*
X-7091358Y4768810D01*
X-7148500Y4692619D01*
X-7205643Y4654524D01*
X-6491357Y4883095D02*
X-6434214Y4883095D01*
X-6377071Y4845000D01*
X-6348500Y4806905D01*
X-6319929Y4730714D01*
X-6291357Y4578333D01*
X-6291357Y4387857D01*
X-6319929Y4235476D01*
X-6348500Y4159286D01*
X-6377071Y4121190D01*
X-6434214Y4083095D01*
X-6491357Y4083095D01*
X-6548500Y4121190D01*
X-6577071Y4159286D01*
X-6605643Y4235476D01*
X-6634214Y4387857D01*
X-6634214Y4578333D01*
X-6605643Y4730714D01*
X-6577071Y4806905D01*
X-6548500Y4845000D01*
X-6491357Y4883095D01*
X-7358015Y3206795D02*
X-7558015Y3587748D01*
X-7700872Y3206795D02*
X-7700872Y4006795D01*
X-7472300Y4006795D01*
X-7415158Y3968700D01*
X-7386586Y3930605D01*
X-7358015Y3854414D01*
X-7358015Y3740129D01*
X-7386586Y3663938D01*
X-7415158Y3625843D01*
X-7472300Y3587748D01*
X-7700872Y3587748D01*
X-6786586Y3206795D02*
X-7129443Y3206795D01*
X-6958015Y3206795D02*
X-6958015Y4006795D01*
X-7015158Y3892510D01*
X-7072300Y3816319D01*
X-7129443Y3778224D01*
X-6215157Y3206795D02*
X-6558014Y3206795D01*
X-6386586Y3206795D02*
X-6386586Y4006795D01*
X-6443729Y3892510D01*
X-6500871Y3816319D01*
X-6558014Y3778224D01*
X-11917315Y-3676614D02*
X-11945886Y-3714710D01*
X-12031600Y-3752805D01*
X-12088743Y-3752805D01*
X-12174458Y-3714710D01*
X-12231600Y-3638519D01*
X-12260172Y-3562329D01*
X-12288743Y-3409948D01*
X-12288743Y-3295662D01*
X-12260172Y-3143281D01*
X-12231600Y-3067090D01*
X-12174458Y-2990900D01*
X-12088743Y-2952805D01*
X-12031600Y-2952805D01*
X-11945886Y-2990900D01*
X-11917315Y-3028995D01*
X-11345886Y-3752805D02*
X-11688743Y-3752805D01*
X-11517315Y-3752805D02*
X-11517315Y-2952805D01*
X-11574458Y-3067090D01*
X-11631600Y-3143281D01*
X-11688743Y-3181376D01*
X-11117314Y-3028995D02*
X-11088743Y-2990900D01*
X-11031600Y-2952805D01*
X-10888743Y-2952805D01*
X-10831600Y-2990900D01*
X-10803029Y-3028995D01*
X-10774457Y-3105186D01*
X-10774457Y-3181376D01*
X-10803029Y-3295662D01*
X-11145886Y-3752805D01*
X-10774457Y-3752805D01*
X-11096571Y7169167D02*
X-10810857Y7169167D01*
X-11153714Y6940595D02*
X-10953714Y7740595D01*
X-10753714Y6940595D01*
X-10239428Y6940595D02*
X-10582285Y6940595D01*
X-10410857Y6940595D02*
X-10410857Y7740595D01*
X-10468000Y7626310D01*
X-10525142Y7550119D01*
X-10582285Y7512024D01*
X-11836343Y-3943405D02*
X-11836343Y-4591024D01*
X-11807771Y-4667214D01*
X-11779200Y-4705310D01*
X-11722057Y-4743405D01*
X-11607771Y-4743405D01*
X-11550629Y-4705310D01*
X-11522057Y-4667214D01*
X-11493486Y-4591024D01*
X-11493486Y-3943405D01*
X-10950629Y-4210071D02*
X-10950629Y-4743405D01*
X-11093486Y-3905310D02*
X-11236343Y-4476738D01*
X-10864915Y-4476738D01*
X-5694315Y5949986D02*
X-5722886Y5911890D01*
X-5808600Y5873795D01*
X-5865743Y5873795D01*
X-5951458Y5911890D01*
X-6008600Y5988081D01*
X-6037172Y6064271D01*
X-6065743Y6216652D01*
X-6065743Y6330938D01*
X-6037172Y6483319D01*
X-6008600Y6559510D01*
X-5951458Y6635700D01*
X-5865743Y6673795D01*
X-5808600Y6673795D01*
X-5722886Y6635700D01*
X-5694315Y6597605D01*
X-5122886Y5873795D02*
X-5465743Y5873795D01*
X-5294315Y5873795D02*
X-5294315Y6673795D01*
X-5351458Y6559510D01*
X-5408600Y6483319D01*
X-5465743Y6445224D01*
X-4922886Y6673795D02*
X-4551457Y6673795D01*
X-4751457Y6369033D01*
X-4665743Y6369033D01*
X-4608600Y6330938D01*
X-4580029Y6292843D01*
X-4551457Y6216652D01*
X-4551457Y6026176D01*
X-4580029Y5949986D01*
X-4608600Y5911890D01*
X-4665743Y5873795D01*
X-4837171Y5873795D01*
X-4894314Y5911890D01*
X-4922886Y5949986D01*
X3606857Y730195D02*
X3606857Y82576D01*
X3635429Y6386D01*
X3664000Y-31710D01*
X3721143Y-69805D01*
X3835429Y-69805D01*
X3892571Y-31710D01*
X3921143Y6386D01*
X3949714Y82576D01*
X3949714Y730195D01*
X4178285Y730195D02*
X4549714Y730195D01*
X4349714Y425433D01*
X4435428Y425433D01*
X4492571Y387338D01*
X4521142Y349243D01*
X4549714Y273052D01*
X4549714Y82576D01*
X4521142Y6386D01*
X4492571Y-31710D01*
X4435428Y-69805D01*
X4264000Y-69805D01*
X4206857Y-31710D01*
X4178285Y6386D01*
X14012914Y-806471D02*
X14012914Y-1606471D01*
X14012914Y-844567D02*
X14070057Y-806471D01*
X14184343Y-806471D01*
X14241486Y-844567D01*
X14270057Y-882662D01*
X14298628Y-958852D01*
X14298628Y-1187424D01*
X14270057Y-1263614D01*
X14241486Y-1301710D01*
X14184343Y-1339805D01*
X14070057Y-1339805D01*
X14012914Y-1301710D01*
X14812914Y-539805D02*
X14698628Y-539805D01*
X14641485Y-577900D01*
X14612914Y-615995D01*
X14555771Y-730281D01*
X14527200Y-882662D01*
X14527200Y-1187424D01*
X14555771Y-1263614D01*
X14584343Y-1301710D01*
X14641485Y-1339805D01*
X14755771Y-1339805D01*
X14812914Y-1301710D01*
X14841485Y-1263614D01*
X14870057Y-1187424D01*
X14870057Y-996948D01*
X14841485Y-920757D01*
X14812914Y-882662D01*
X14755771Y-844567D01*
X14641485Y-844567D01*
X14584343Y-882662D01*
X14555771Y-920757D01*
X14527200Y-996948D01*
X13962114Y1530329D02*
X13962114Y730329D01*
X13962114Y1492233D02*
X14019257Y1530329D01*
X14133543Y1530329D01*
X14190686Y1492233D01*
X14219257Y1454138D01*
X14247828Y1377948D01*
X14247828Y1149376D01*
X14219257Y1073186D01*
X14190686Y1035090D01*
X14133543Y996995D01*
X14019257Y996995D01*
X13962114Y1035090D01*
X14790685Y1796995D02*
X14504971Y1796995D01*
X14476400Y1416043D01*
X14504971Y1454138D01*
X14562114Y1492233D01*
X14704971Y1492233D01*
X14762114Y1454138D01*
X14790685Y1416043D01*
X14819257Y1339852D01*
X14819257Y1149376D01*
X14790685Y1073186D01*
X14762114Y1035090D01*
X14704971Y996995D01*
X14562114Y996995D01*
X14504971Y1035090D01*
X14476400Y1073186D01*
X12793714Y-2940071D02*
X12793714Y-3740071D01*
X12793714Y-2978167D02*
X12850857Y-2940071D01*
X12965143Y-2940071D01*
X13022286Y-2978167D01*
X13050857Y-3016262D01*
X13079428Y-3092452D01*
X13079428Y-3321024D01*
X13050857Y-3397214D01*
X13022286Y-3435310D01*
X12965143Y-3473405D01*
X12850857Y-3473405D01*
X12793714Y-3435310D01*
X13593714Y-2940071D02*
X13593714Y-3473405D01*
X13450857Y-2635310D02*
X13308000Y-3206738D01*
X13679428Y-3206738D01*
X11472914Y-806471D02*
X11472914Y-1606471D01*
X11472914Y-844567D02*
X11530057Y-806471D01*
X11644343Y-806471D01*
X11701486Y-844567D01*
X11730057Y-882662D01*
X11758628Y-958852D01*
X11758628Y-1187424D01*
X11730057Y-1263614D01*
X11701486Y-1301710D01*
X11644343Y-1339805D01*
X11530057Y-1339805D01*
X11472914Y-1301710D01*
X11958628Y-539805D02*
X12330057Y-539805D01*
X12130057Y-844567D01*
X12215771Y-844567D01*
X12272914Y-882662D01*
X12301485Y-920757D01*
X12330057Y-996948D01*
X12330057Y-1187424D01*
X12301485Y-1263614D01*
X12272914Y-1301710D01*
X12215771Y-1339805D01*
X12044343Y-1339805D01*
X11987200Y-1301710D01*
X11958628Y-1263614D01*
X11472914Y1581129D02*
X11472914Y781129D01*
X11472914Y1543033D02*
X11530057Y1581129D01*
X11644343Y1581129D01*
X11701486Y1543033D01*
X11730057Y1504938D01*
X11758628Y1428748D01*
X11758628Y1200176D01*
X11730057Y1123986D01*
X11701486Y1085890D01*
X11644343Y1047795D01*
X11530057Y1047795D01*
X11472914Y1085890D01*
X11987200Y1771605D02*
X12015771Y1809700D01*
X12072914Y1847795D01*
X12215771Y1847795D01*
X12272914Y1809700D01*
X12301485Y1771605D01*
X12330057Y1695414D01*
X12330057Y1619224D01*
X12301485Y1504938D01*
X11958628Y1047795D01*
X12330057Y1047795D01*
X12793714Y3613129D02*
X12793714Y2813129D01*
X12793714Y3575033D02*
X12850857Y3613129D01*
X12965143Y3613129D01*
X13022286Y3575033D01*
X13050857Y3536938D01*
X13079428Y3460748D01*
X13079428Y3232176D01*
X13050857Y3155986D01*
X13022286Y3117890D01*
X12965143Y3079795D01*
X12850857Y3079795D01*
X12793714Y3117890D01*
X13650857Y3079795D02*
X13308000Y3079795D01*
X13479428Y3079795D02*
X13479428Y3879795D01*
X13422285Y3765510D01*
X13365143Y3689319D01*
X13308000Y3651224D01*
X-1827157Y4527595D02*
X-1827157Y5327595D01*
X-1598585Y5327595D01*
X-1541443Y5289500D01*
X-1512871Y5251405D01*
X-1484300Y5175214D01*
X-1484300Y5060929D01*
X-1512871Y4984738D01*
X-1541443Y4946643D01*
X-1598585Y4908548D01*
X-1827157Y4908548D01*
X-912871Y4527595D02*
X-1255728Y4527595D01*
X-1084300Y4527595D02*
X-1084300Y5327595D01*
X-1141443Y5213310D01*
X-1198585Y5137119D01*
X-1255728Y5099024D01*
X5756300Y-6915205D02*
X5756300Y-7486633D01*
X5727728Y-7600919D01*
X5670585Y-7677110D01*
X5584871Y-7715205D01*
X5527728Y-7715205D01*
X6013443Y-6991395D02*
X6042014Y-6953300D01*
X6099157Y-6915205D01*
X6242014Y-6915205D01*
X6299157Y-6953300D01*
X6327728Y-6991395D01*
X6356300Y-7067586D01*
X6356300Y-7143776D01*
X6327728Y-7258062D01*
X5984871Y-7715205D01*
X6356300Y-7715205D01*
X3690985Y-6813514D02*
X3662414Y-6851610D01*
X3576700Y-6889705D01*
X3519557Y-6889705D01*
X3433842Y-6851610D01*
X3376700Y-6775419D01*
X3348128Y-6699229D01*
X3319557Y-6546848D01*
X3319557Y-6432562D01*
X3348128Y-6280181D01*
X3376700Y-6203990D01*
X3433842Y-6127800D01*
X3519557Y-6089705D01*
X3576700Y-6089705D01*
X3662414Y-6127800D01*
X3690985Y-6165895D01*
X4262414Y-6889705D02*
X3919557Y-6889705D01*
X4090985Y-6889705D02*
X4090985Y-6089705D01*
X4033842Y-6203990D01*
X3976700Y-6280181D01*
X3919557Y-6318276D01*
X4833843Y-6889705D02*
X4490986Y-6889705D01*
X4662414Y-6889705D02*
X4662414Y-6089705D01*
X4605271Y-6203990D01*
X4548129Y-6280181D01*
X4490986Y-6318276D01*
X-354000Y-4870414D02*
X-382571Y-4908510D01*
X-468285Y-4946605D01*
X-525428Y-4946605D01*
X-611143Y-4908510D01*
X-668285Y-4832319D01*
X-696857Y-4756129D01*
X-725428Y-4603748D01*
X-725428Y-4489462D01*
X-696857Y-4337081D01*
X-668285Y-4260890D01*
X-611143Y-4184700D01*
X-525428Y-4146605D01*
X-468285Y-4146605D01*
X-382571Y-4184700D01*
X-354000Y-4222795D01*
X-154000Y-4146605D02*
X246000Y-4146605D01*
X-11143Y-4946605D01*
X-8788343Y1187395D02*
X-8788343Y539776D01*
X-8759771Y463586D01*
X-8731200Y425490D01*
X-8674057Y387395D01*
X-8559771Y387395D01*
X-8502629Y425490D01*
X-8474057Y463586D01*
X-8445486Y539776D01*
X-8445486Y1187395D01*
X-7845486Y387395D02*
X-8188343Y387395D01*
X-8016915Y387395D02*
X-8016915Y1187395D01*
X-8074058Y1073110D01*
X-8131200Y996919D01*
X-8188343Y958824D01*
X4165657Y-3638605D02*
X4165657Y-4286224D01*
X4194229Y-4362414D01*
X4222800Y-4400510D01*
X4279943Y-4438605D01*
X4394229Y-4438605D01*
X4451371Y-4400510D01*
X4479943Y-4362414D01*
X4508514Y-4286224D01*
X4508514Y-3638605D01*
X4765657Y-3714795D02*
X4794228Y-3676700D01*
X4851371Y-3638605D01*
X4994228Y-3638605D01*
X5051371Y-3676700D01*
X5079942Y-3714795D01*
X5108514Y-3790986D01*
X5108514Y-3867176D01*
X5079942Y-3981462D01*
X4737085Y-4438605D01*
X5108514Y-4438605D01*
X-12207815Y44395D02*
X-11807815Y-755605D01*
X-11807815Y44395D02*
X-12207815Y-755605D01*
X-11264957Y-755605D02*
X-11607814Y-755605D01*
X-11436386Y-755605D02*
X-11436386Y44395D01*
X-11493529Y-69890D01*
X-11550671Y-146081D01*
X-11607814Y-184176D01*
X-10806100Y-946114D02*
X-10834671Y-984210D01*
X-10920385Y-1022305D01*
X-10977528Y-1022305D01*
X-11063243Y-984210D01*
X-11120385Y-908019D01*
X-11148957Y-831829D01*
X-11177528Y-679448D01*
X-11177528Y-565162D01*
X-11148957Y-412781D01*
X-11120385Y-336590D01*
X-11063243Y-260400D01*
X-10977528Y-222305D01*
X-10920385Y-222305D01*
X-10834671Y-260400D01*
X-10806100Y-298495D01*
X-10606100Y-222305D02*
X-10234671Y-222305D01*
X-10434671Y-527067D01*
X-10348957Y-527067D01*
X-10291814Y-565162D01*
X-10263243Y-603257D01*
X-10234671Y-679448D01*
X-10234671Y-869924D01*
X-10263243Y-946114D01*
X-10291814Y-984210D01*
X-10348957Y-1022305D01*
X-10520385Y-1022305D01*
X-10577528Y-984210D01*
X-10606100Y-946114D01*
X-8240700Y2686086D02*
X-8269271Y2647990D01*
X-8354985Y2609895D01*
X-8412128Y2609895D01*
X-8497843Y2647990D01*
X-8554985Y2724181D01*
X-8583557Y2800371D01*
X-8612128Y2952752D01*
X-8612128Y3067038D01*
X-8583557Y3219419D01*
X-8554985Y3295610D01*
X-8497843Y3371800D01*
X-8412128Y3409895D01*
X-8354985Y3409895D01*
X-8269271Y3371800D01*
X-8240700Y3333705D01*
X-7669271Y2609895D02*
X-8012128Y2609895D01*
X-7840700Y2609895D02*
X-7840700Y3409895D01*
X-7897843Y3295610D01*
X-7954985Y3219419D01*
X-8012128Y3181324D01*
X3964000Y5949986D02*
X3935429Y5911890D01*
X3849715Y5873795D01*
X3792572Y5873795D01*
X3706857Y5911890D01*
X3649715Y5988081D01*
X3621143Y6064271D01*
X3592572Y6216652D01*
X3592572Y6330938D01*
X3621143Y6483319D01*
X3649715Y6559510D01*
X3706857Y6635700D01*
X3792572Y6673795D01*
X3849715Y6673795D01*
X3935429Y6635700D01*
X3964000Y6597605D01*
X4478286Y6673795D02*
X4364000Y6673795D01*
X4306857Y6635700D01*
X4278286Y6597605D01*
X4221143Y6483319D01*
X4192572Y6330938D01*
X4192572Y6026176D01*
X4221143Y5949986D01*
X4249715Y5911890D01*
X4306857Y5873795D01*
X4421143Y5873795D01*
X4478286Y5911890D01*
X4506857Y5949986D01*
X4535429Y6026176D01*
X4535429Y6216652D01*
X4506857Y6292843D01*
X4478286Y6330938D01*
X4421143Y6369033D01*
X4306857Y6369033D01*
X4249715Y6330938D01*
X4221143Y6292843D01*
X4192572Y6216652D01*
X-2660686Y4052900D02*
X-2622590Y4024329D01*
X-2584495Y3938615D01*
X-2584495Y3881472D01*
X-2622590Y3795757D01*
X-2698781Y3738615D01*
X-2774971Y3710043D01*
X-2927352Y3681472D01*
X-3041638Y3681472D01*
X-3194019Y3710043D01*
X-3270210Y3738615D01*
X-3346400Y3795757D01*
X-3384495Y3881472D01*
X-3384495Y3938615D01*
X-3346400Y4024329D01*
X-3308305Y4052900D01*
X-3384495Y4595757D02*
X-3384495Y4310043D01*
X-3003543Y4281472D01*
X-3041638Y4310043D01*
X-3079733Y4367186D01*
X-3079733Y4510043D01*
X-3041638Y4567186D01*
X-3003543Y4595757D01*
X-2927352Y4624329D01*
X-2736876Y4624329D01*
X-2660686Y4595757D01*
X-2622590Y4567186D01*
X-2584495Y4510043D01*
X-2584495Y4367186D01*
X-2622590Y4310043D01*
X-2660686Y4281472D01*
X-10907700Y-2660614D02*
X-10936271Y-2698710D01*
X-11021985Y-2736805D01*
X-11079128Y-2736805D01*
X-11164843Y-2698710D01*
X-11221985Y-2622519D01*
X-11250557Y-2546329D01*
X-11279128Y-2393948D01*
X-11279128Y-2279662D01*
X-11250557Y-2127281D01*
X-11221985Y-2051090D01*
X-11164843Y-1974900D01*
X-11079128Y-1936805D01*
X-11021985Y-1936805D01*
X-10936271Y-1974900D01*
X-10907700Y-2012995D01*
X-10393414Y-2203471D02*
X-10393414Y-2736805D01*
X-10536271Y-1898710D02*
X-10679128Y-2470138D01*
X-10307700Y-2470138D01*
X-9955200Y4476786D02*
X-9983771Y4438690D01*
X-10069485Y4400595D01*
X-10126628Y4400595D01*
X-10212343Y4438690D01*
X-10269485Y4514881D01*
X-10298057Y4591071D01*
X-10326628Y4743452D01*
X-10326628Y4857738D01*
X-10298057Y5010119D01*
X-10269485Y5086310D01*
X-10212343Y5162500D01*
X-10126628Y5200595D01*
X-10069485Y5200595D01*
X-9983771Y5162500D01*
X-9955200Y5124405D01*
X-9726628Y5124405D02*
X-9698057Y5162500D01*
X-9640914Y5200595D01*
X-9498057Y5200595D01*
X-9440914Y5162500D01*
X-9412343Y5124405D01*
X-9383771Y5048214D01*
X-9383771Y4972024D01*
X-9412343Y4857738D01*
X-9755200Y4400595D01*
X-9383771Y4400595D01*
X408000Y-7918414D02*
X379429Y-7956510D01*
X293715Y-7994605D01*
X236572Y-7994605D01*
X150857Y-7956510D01*
X93715Y-7880319D01*
X65143Y-7804129D01*
X36572Y-7651748D01*
X36572Y-7537462D01*
X65143Y-7385081D01*
X93715Y-7308890D01*
X150857Y-7232700D01*
X236572Y-7194605D01*
X293715Y-7194605D01*
X379429Y-7232700D01*
X408000Y-7270795D01*
X693715Y-7994605D02*
X808000Y-7994605D01*
X865143Y-7956510D01*
X893715Y-7918414D01*
X950857Y-7804129D01*
X979429Y-7651748D01*
X979429Y-7346986D01*
X950857Y-7270795D01*
X922286Y-7232700D01*
X865143Y-7194605D01*
X750857Y-7194605D01*
X693715Y-7232700D01*
X665143Y-7270795D01*
X636572Y-7346986D01*
X636572Y-7537462D01*
X665143Y-7613652D01*
X693715Y-7651748D01*
X750857Y-7689843D01*
X865143Y-7689843D01*
X922286Y-7651748D01*
X950857Y-7613652D01*
X979429Y-7537462D01*
X3964000Y4832386D02*
X3935429Y4794290D01*
X3849715Y4756195D01*
X3792572Y4756195D01*
X3706857Y4794290D01*
X3649715Y4870481D01*
X3621143Y4946671D01*
X3592572Y5099052D01*
X3592572Y5213338D01*
X3621143Y5365719D01*
X3649715Y5441910D01*
X3706857Y5518100D01*
X3792572Y5556195D01*
X3849715Y5556195D01*
X3935429Y5518100D01*
X3964000Y5480005D01*
X4306857Y5213338D02*
X4249715Y5251433D01*
X4221143Y5289529D01*
X4192572Y5365719D01*
X4192572Y5403814D01*
X4221143Y5480005D01*
X4249715Y5518100D01*
X4306857Y5556195D01*
X4421143Y5556195D01*
X4478286Y5518100D01*
X4506857Y5480005D01*
X4535429Y5403814D01*
X4535429Y5365719D01*
X4506857Y5289529D01*
X4478286Y5251433D01*
X4421143Y5213338D01*
X4306857Y5213338D01*
X4249715Y5175243D01*
X4221143Y5137148D01*
X4192572Y5060957D01*
X4192572Y4908576D01*
X4221143Y4832386D01*
X4249715Y4794290D01*
X4306857Y4756195D01*
X4421143Y4756195D01*
X4478286Y4794290D01*
X4506857Y4832386D01*
X4535429Y4908576D01*
X4535429Y5060957D01*
X4506857Y5137148D01*
X4478286Y5175243D01*
X4421143Y5213338D01*
X985885Y-1619214D02*
X957314Y-1657310D01*
X871600Y-1695405D01*
X814457Y-1695405D01*
X728742Y-1657310D01*
X671600Y-1581119D01*
X643028Y-1504929D01*
X614457Y-1352548D01*
X614457Y-1238262D01*
X643028Y-1085881D01*
X671600Y-1009690D01*
X728742Y-933500D01*
X814457Y-895405D01*
X871600Y-895405D01*
X957314Y-933500D01*
X985885Y-971595D01*
X1557314Y-1695405D02*
X1214457Y-1695405D01*
X1385885Y-1695405D02*
X1385885Y-895405D01*
X1328742Y-1009690D01*
X1271600Y-1085881D01*
X1214457Y-1123976D01*
X1928743Y-895405D02*
X1985886Y-895405D01*
X2043029Y-933500D01*
X2071600Y-971595D01*
X2100171Y-1047786D01*
X2128743Y-1200167D01*
X2128743Y-1390643D01*
X2100171Y-1543024D01*
X2071600Y-1619214D01*
X2043029Y-1657310D01*
X1985886Y-1695405D01*
X1928743Y-1695405D01*
X1871600Y-1657310D01*
X1843029Y-1619214D01*
X1814457Y-1543024D01*
X1785886Y-1390643D01*
X1785886Y-1200167D01*
X1814457Y-1047786D01*
X1843029Y-971595D01*
X1871600Y-933500D01*
X1928743Y-895405D01*
M02*
