G04 #@! TF.GenerationSoftware,KiCad,Pcbnew,(5.0.1)-4*
G04 #@! TF.CreationDate,2018-12-21T18:48:29+01:00*
G04 #@! TF.ProjectId,cryptostick,63727970746F737469636B2E6B696361,R1*
G04 #@! TF.SameCoordinates,PX791ddc0PY5e69114*
G04 #@! TF.FileFunction,Legend,Top*
G04 #@! TF.FilePolarity,Positive*
%FSLAX46Y46*%
G04 Gerber Fmt 4.6, Leading zero omitted, Abs format (unit mm)*
G04 Created by KiCad (PCBNEW (5.0.1)-4) date 21.12.2018 18:48:29*
%MOMM*%
%LPD*%
G01*
G04 APERTURE LIST*
%ADD10C,0.125000*%
%ADD11C,0.150000*%
%ADD12C,0.200000*%
%ADD13C,0.180000*%
%ADD14C,0.149860*%
%ADD15C,0.254000*%
%ADD16C,0.120000*%
G04 APERTURE END LIST*
D10*
X8255047Y4656900D02*
X8207428Y4680710D01*
X8136000Y4680710D01*
X8064571Y4656900D01*
X8016952Y4609281D01*
X7993142Y4561662D01*
X7969333Y4466424D01*
X7969333Y4394996D01*
X7993142Y4299758D01*
X8016952Y4252139D01*
X8064571Y4204520D01*
X8136000Y4180710D01*
X8183619Y4180710D01*
X8255047Y4204520D01*
X8278857Y4228329D01*
X8278857Y4394996D01*
X8183619Y4394996D01*
X8493142Y4180710D02*
X8493142Y4680710D01*
X8778857Y4180710D01*
X8778857Y4680710D01*
X9016952Y4180710D02*
X9016952Y4680710D01*
X9136000Y4680710D01*
X9207428Y4656900D01*
X9255047Y4609281D01*
X9278857Y4561662D01*
X9302666Y4466424D01*
X9302666Y4394996D01*
X9278857Y4299758D01*
X9255047Y4252139D01*
X9207428Y4204520D01*
X9136000Y4180710D01*
X9016952Y4180710D01*
X7617733Y-2532890D02*
X7784400Y-3032890D01*
X7951066Y-2532890D01*
X8284400Y-2770985D02*
X8355828Y-2794795D01*
X8379638Y-2818604D01*
X8403447Y-2866223D01*
X8403447Y-2937652D01*
X8379638Y-2985271D01*
X8355828Y-3009080D01*
X8308209Y-3032890D01*
X8117733Y-3032890D01*
X8117733Y-2532890D01*
X8284400Y-2532890D01*
X8332019Y-2556700D01*
X8355828Y-2580509D01*
X8379638Y-2628128D01*
X8379638Y-2675747D01*
X8355828Y-2723366D01*
X8332019Y-2747176D01*
X8284400Y-2770985D01*
X8117733Y-2770985D01*
X8617733Y-2532890D02*
X8617733Y-2937652D01*
X8641542Y-2985271D01*
X8665352Y-3009080D01*
X8712971Y-3032890D01*
X8808209Y-3032890D01*
X8855828Y-3009080D01*
X8879638Y-2985271D01*
X8903447Y-2937652D01*
X8903447Y-2532890D01*
X9117733Y-3009080D02*
X9189161Y-3032890D01*
X9308209Y-3032890D01*
X9355828Y-3009080D01*
X9379638Y-2985271D01*
X9403447Y-2937652D01*
X9403447Y-2890033D01*
X9379638Y-2842414D01*
X9355828Y-2818604D01*
X9308209Y-2794795D01*
X9212971Y-2770985D01*
X9165352Y-2747176D01*
X9141542Y-2723366D01*
X9117733Y-2675747D01*
X9117733Y-2628128D01*
X9141542Y-2580509D01*
X9165352Y-2556700D01*
X9212971Y-2532890D01*
X9332019Y-2532890D01*
X9403447Y-2556700D01*
X4995123Y-188090D02*
X4995123Y311910D01*
X5114171Y311910D01*
X5185600Y288100D01*
X5233219Y240481D01*
X5257028Y192862D01*
X5280838Y97624D01*
X5280838Y26196D01*
X5257028Y-69042D01*
X5233219Y-116661D01*
X5185600Y-164280D01*
X5114171Y-188090D01*
X4995123Y-188090D01*
X5495123Y2386D02*
X5876076Y2386D01*
X8808095Y-179690D02*
X8808095Y320310D01*
X9141428Y320310D02*
X9236666Y320310D01*
X9284285Y296500D01*
X9331904Y248881D01*
X9355714Y153643D01*
X9355714Y-13023D01*
X9331904Y-108261D01*
X9284285Y-155880D01*
X9236666Y-179690D01*
X9141428Y-179690D01*
X9093809Y-155880D01*
X9046190Y-108261D01*
X9022380Y-13023D01*
X9022380Y153643D01*
X9046190Y248881D01*
X9093809Y296500D01*
X9141428Y320310D01*
X8338380Y2551929D02*
X8314571Y2528120D01*
X8243142Y2504310D01*
X8195523Y2504310D01*
X8124095Y2528120D01*
X8076476Y2575739D01*
X8052666Y2623358D01*
X8028857Y2718596D01*
X8028857Y2790024D01*
X8052666Y2885262D01*
X8076476Y2932881D01*
X8124095Y2980500D01*
X8195523Y3004310D01*
X8243142Y3004310D01*
X8314571Y2980500D01*
X8338380Y2956691D01*
X8790761Y2504310D02*
X8552666Y2504310D01*
X8552666Y3004310D01*
X8957428Y2504310D02*
X8957428Y3004310D01*
X9243142Y2504310D02*
X9028857Y2790024D01*
X9243142Y3004310D02*
X8957428Y2718596D01*
X4995123Y2453510D02*
X4995123Y2953510D01*
X5114171Y2953510D01*
X5185600Y2929700D01*
X5233219Y2882081D01*
X5257028Y2834462D01*
X5280838Y2739224D01*
X5280838Y2667796D01*
X5257028Y2572558D01*
X5233219Y2524939D01*
X5185600Y2477320D01*
X5114171Y2453510D01*
X4995123Y2453510D01*
X5495123Y2643986D02*
X5876076Y2643986D01*
X5685600Y2453510D02*
X5685600Y2834462D01*
D11*
X14306972Y-3180928D02*
G75*
G03X14306972Y-3180928I-1098972J0D01*
G01*
X14306972Y3409528D02*
G75*
G03X14306972Y3409528I-1098972J0D01*
G01*
X15544800Y-1079500D02*
G75*
G03X15544800Y-1079500I-1098972J0D01*
G01*
X13055600Y-1079500D02*
G75*
G03X13055600Y-1079500I-1098972J0D01*
G01*
X15544800Y1308100D02*
G75*
G03X15544800Y1308100I-1098972J0D01*
G01*
X13055600Y1308100D02*
G75*
G03X13055600Y1308100I-1098972J0D01*
G01*
D12*
X-10982858Y5593167D02*
X-11411429Y5326500D01*
X-10982858Y5136024D02*
X-11882858Y5136024D01*
X-11882858Y5440786D01*
X-11840000Y5516977D01*
X-11797143Y5555072D01*
X-11711429Y5593167D01*
X-11582858Y5593167D01*
X-11497143Y5555072D01*
X-11454286Y5516977D01*
X-11411429Y5440786D01*
X-11411429Y5136024D01*
X-11882858Y5859834D02*
X-11882858Y6355072D01*
X-11540000Y6088405D01*
X-11540000Y6202691D01*
X-11497143Y6278881D01*
X-11454286Y6316977D01*
X-11368572Y6355072D01*
X-11154286Y6355072D01*
X-11068572Y6316977D01*
X-11025715Y6278881D01*
X-10982858Y6202691D01*
X-10982858Y5974120D01*
X-11025715Y5897929D01*
X-11068572Y5859834D01*
D13*
X-11063572Y-3439214D02*
X-11873572Y-3439214D01*
X-11063572Y-2924928D01*
X-11873572Y-2924928D01*
X-11063572Y-2496357D02*
X-11603572Y-2496357D01*
X-11873572Y-2496357D02*
X-11835000Y-2539214D01*
X-11796429Y-2496357D01*
X-11835000Y-2453500D01*
X-11873572Y-2496357D01*
X-11796429Y-2496357D01*
X-11603572Y-2196357D02*
X-11603572Y-1853500D01*
X-11873572Y-2067785D02*
X-11179286Y-2067785D01*
X-11102143Y-2024928D01*
X-11063572Y-1939214D01*
X-11063572Y-1853500D01*
X-11063572Y-1553500D02*
X-11603572Y-1553500D01*
X-11449286Y-1553500D02*
X-11526429Y-1510642D01*
X-11565000Y-1467785D01*
X-11603572Y-1382071D01*
X-11603572Y-1296357D01*
X-11063572Y-867785D02*
X-11102143Y-953500D01*
X-11140715Y-996357D01*
X-11217858Y-1039214D01*
X-11449286Y-1039214D01*
X-11526429Y-996357D01*
X-11565000Y-953500D01*
X-11603572Y-867785D01*
X-11603572Y-739214D01*
X-11565000Y-653500D01*
X-11526429Y-610642D01*
X-11449286Y-567785D01*
X-11217858Y-567785D01*
X-11140715Y-610642D01*
X-11102143Y-653500D01*
X-11063572Y-739214D01*
X-11063572Y-867785D01*
X-11063572Y-182071D02*
X-11873572Y-182071D01*
X-11372143Y-96357D02*
X-11063572Y160786D01*
X-11603572Y160786D02*
X-11295000Y-182071D01*
X-11102143Y889358D02*
X-11063572Y803643D01*
X-11063572Y632215D01*
X-11102143Y546500D01*
X-11179286Y503643D01*
X-11487858Y503643D01*
X-11565000Y546500D01*
X-11603572Y632215D01*
X-11603572Y803643D01*
X-11565000Y889358D01*
X-11487858Y932215D01*
X-11410715Y932215D01*
X-11333572Y503643D01*
X-11603572Y1232215D02*
X-11063572Y1446500D01*
X-11603572Y1660786D02*
X-11063572Y1446500D01*
X-10870715Y1360786D01*
X-10832143Y1317929D01*
X-10793572Y1232215D01*
X-11063572Y2689358D02*
X-11873572Y2689358D01*
X-11873572Y3032215D01*
X-11835000Y3117929D01*
X-11796429Y3160786D01*
X-11719286Y3203643D01*
X-11603572Y3203643D01*
X-11526429Y3160786D01*
X-11487858Y3117929D01*
X-11449286Y3032215D01*
X-11449286Y2689358D01*
X-11063572Y3589358D02*
X-11603572Y3589358D01*
X-11449286Y3589358D02*
X-11526429Y3632215D01*
X-11565000Y3675072D01*
X-11603572Y3760786D01*
X-11603572Y3846500D01*
X-11063572Y4275072D02*
X-11102143Y4189358D01*
X-11140715Y4146500D01*
X-11217858Y4103643D01*
X-11449286Y4103643D01*
X-11526429Y4146500D01*
X-11565000Y4189358D01*
X-11603572Y4275072D01*
X-11603572Y4403643D01*
X-11565000Y4489358D01*
X-11526429Y4532215D01*
X-11449286Y4575072D01*
X-11217858Y4575072D01*
X-11140715Y4532215D01*
X-11102143Y4489358D01*
X-11063572Y4403643D01*
X-11063572Y4275072D01*
D14*
G04 #@! TO.C,R3*
X-2837180Y-6385560D02*
X-2837180Y-7533640D01*
X-2837180Y-7533640D02*
X-5189220Y-7533640D01*
X-5189220Y-7533640D02*
X-5189220Y-6385560D01*
X-5189220Y-6385560D02*
X-2837180Y-6385560D01*
D15*
G04 #@! TO.C,J2*
X4899020Y4683010D02*
X4899020Y5782830D01*
X4899020Y-4714990D02*
X4899020Y-5814810D01*
D14*
G04 #@! TO.C,C11*
X924560Y-5941060D02*
X3276600Y-5941060D01*
X3276600Y-5941060D02*
X3276600Y-7089140D01*
X3276600Y-7089140D02*
X924560Y-7089140D01*
X924560Y-7089140D02*
X924560Y-5941060D01*
G04 #@! TO.C,C7*
X-172720Y-6123940D02*
X-2524760Y-6123940D01*
X-2524760Y-6123940D02*
X-2524760Y-4975860D01*
X-2524760Y-4975860D02*
X-172720Y-4975860D01*
X-172720Y-4975860D02*
X-172720Y-6123940D01*
G04 #@! TO.C,U1*
X-6649720Y2052320D02*
X-7650480Y1051560D01*
X-7650480Y1051560D02*
X-7650480Y-4749800D01*
X-848360Y2052320D02*
X-848360Y-4749800D01*
X-848360Y-4749800D02*
X-7650480Y-4749800D01*
X-6649720Y2052320D02*
X-848360Y2052320D01*
G04 #@! TO.C,U2*
X1366520Y-5882640D02*
X1366520Y-2880360D01*
X1366520Y-2880360D02*
X2316480Y-2880360D01*
X2316480Y-2880360D02*
X2316480Y-5882640D01*
X2316480Y-5882640D02*
X1366520Y-5882640D01*
X3102310Y-5979160D02*
G75*
G03X3102310Y-5979160I-110190J0D01*
G01*
G04 #@! TO.C,X1*
X-10426700Y2319020D02*
X-10426700Y6383020D01*
X-10426700Y6383020D02*
X-7073900Y6383020D01*
X-7073900Y6383020D02*
X-7073900Y2319020D01*
X-7073900Y2319020D02*
X-10426700Y2319020D01*
G04 #@! TO.C,C3*
X-10226040Y-276860D02*
X-7874000Y-276860D01*
X-7874000Y-276860D02*
X-7874000Y-1424940D01*
X-7874000Y-1424940D02*
X-10226040Y-1424940D01*
X-10226040Y-1424940D02*
X-10226040Y-276860D01*
G04 #@! TO.C,R1*
X-10376020Y-6177540D02*
X-10376020Y-5029460D01*
X-10376020Y-5029460D02*
X-8023980Y-5029460D01*
X-8023980Y-5029460D02*
X-8023980Y-6177540D01*
X-8023980Y-6177540D02*
X-10376020Y-6177540D01*
G04 #@! TO.C,C1*
X-5725960Y4872520D02*
X-5725960Y2520480D01*
X-5725960Y2520480D02*
X-6874040Y2520480D01*
X-6874040Y2520480D02*
X-6874040Y4872520D01*
X-6874040Y4872520D02*
X-5725960Y4872520D01*
G04 #@! TO.C,C7*
X-172720Y-6123940D02*
X-2524760Y-6123940D01*
X-2524760Y-6123940D02*
X-2524760Y-4975860D01*
X-2524760Y-4975860D02*
X-172720Y-4975860D01*
X-172720Y-4975860D02*
X-172720Y-6123940D01*
G04 #@! TO.C,C6*
X949960Y7124700D02*
X3302000Y7124700D01*
X3302000Y7124700D02*
X3302000Y5976620D01*
X3302000Y5976620D02*
X949960Y5976620D01*
X949960Y5976620D02*
X949960Y7124700D01*
G04 #@! TO.C,C5*
X-3525960Y4872520D02*
X-3525960Y2520480D01*
X-3525960Y2520480D02*
X-4674040Y2520480D01*
X-4674040Y2520480D02*
X-4674040Y4872520D01*
X-4674040Y4872520D02*
X-3525960Y4872520D01*
G04 #@! TO.C,C4*
X-7874000Y-3073400D02*
X-10226040Y-3073400D01*
X-10226040Y-3073400D02*
X-10226040Y-1925320D01*
X-10226040Y-1925320D02*
X-7874000Y-1925320D01*
X-7874000Y-1925320D02*
X-7874000Y-3073400D01*
G04 #@! TO.C,C2*
X-7673340Y6525260D02*
X-10025380Y6525260D01*
X-10025380Y6525260D02*
X-10025380Y7673340D01*
X-10025380Y7673340D02*
X-7673340Y7673340D01*
X-7673340Y7673340D02*
X-7673340Y6525260D01*
G04 #@! TO.C,C9*
X-2524760Y-6375400D02*
X-172720Y-6375400D01*
X-172720Y-6375400D02*
X-172720Y-7523480D01*
X-172720Y-7523480D02*
X-2524760Y-7523480D01*
X-2524760Y-7523480D02*
X-2524760Y-6375400D01*
G04 #@! TO.C,C8*
X949960Y5875020D02*
X3302000Y5875020D01*
X3302000Y5875020D02*
X3302000Y4726940D01*
X3302000Y4726940D02*
X949960Y4726940D01*
X949960Y4726940D02*
X949960Y5875020D01*
G04 #@! TO.C,C10*
X2750820Y-2872740D02*
X398780Y-2872740D01*
X398780Y-2872740D02*
X398780Y-1724660D01*
X398780Y-1724660D02*
X2750820Y-1724660D01*
X2750820Y-1724660D02*
X2750820Y-2872740D01*
G04 #@! TO.C,R2*
X-10376020Y-7477540D02*
X-10376020Y-6329460D01*
X-10376020Y-6329460D02*
X-8023980Y-6329460D01*
X-8023980Y-6329460D02*
X-8023980Y-7477540D01*
X-8023980Y-7477540D02*
X-10376020Y-7477540D01*
G04 #@! TO.C,R4*
X-4523980Y6170540D02*
X-4523980Y5022460D01*
X-4523980Y5022460D02*
X-6876020Y5022460D01*
X-6876020Y5022460D02*
X-6876020Y6170540D01*
X-6876020Y6170540D02*
X-4523980Y6170540D01*
G04 #@! TO.C,R6*
X398780Y226060D02*
X398780Y1374140D01*
X398780Y1374140D02*
X2750820Y1374140D01*
X2750820Y1374140D02*
X2750820Y226060D01*
X2750820Y226060D02*
X398780Y226060D01*
G04 #@! TO.C,R7*
X398780Y1242060D02*
X398780Y2390140D01*
X398780Y2390140D02*
X2750820Y2390140D01*
X2750820Y2390140D02*
X2750820Y1242060D01*
X2750820Y1242060D02*
X398780Y1242060D01*
G04 #@! TO.C,R5*
X398780Y-891540D02*
X398780Y256540D01*
X398780Y256540D02*
X2750820Y256540D01*
X2750820Y256540D02*
X2750820Y-891540D01*
X2750820Y-891540D02*
X398780Y-891540D01*
D16*
G04 #@! TO.C,U3*
X4303600Y-581900D02*
X4303600Y-1881900D01*
X2503600Y-2131900D02*
X2503600Y-581900D01*
G04 #@! TO.C,R3*
D11*
X-6229334Y-7379442D02*
X-6496000Y-6950871D01*
X-6686477Y-7379442D02*
X-6686477Y-6479442D01*
X-6381715Y-6479442D01*
X-6305524Y-6522300D01*
X-6267429Y-6565157D01*
X-6229334Y-6650871D01*
X-6229334Y-6779442D01*
X-6267429Y-6865157D01*
X-6305524Y-6908014D01*
X-6381715Y-6950871D01*
X-6686477Y-6950871D01*
X-5962667Y-6479442D02*
X-5467429Y-6479442D01*
X-5734096Y-6822300D01*
X-5619810Y-6822300D01*
X-5543620Y-6865157D01*
X-5505524Y-6908014D01*
X-5467429Y-6993728D01*
X-5467429Y-7208014D01*
X-5505524Y-7293728D01*
X-5543620Y-7336585D01*
X-5619810Y-7379442D01*
X-5848381Y-7379442D01*
X-5924572Y-7336585D01*
X-5962667Y-7293728D01*
G04 #@! TO.C,J2*
X6753333Y7789358D02*
X6753333Y7146500D01*
X6715238Y7017929D01*
X6639047Y6932215D01*
X6524761Y6889358D01*
X6448571Y6889358D01*
X7096190Y7703643D02*
X7134285Y7746500D01*
X7210476Y7789358D01*
X7400952Y7789358D01*
X7477142Y7746500D01*
X7515238Y7703643D01*
X7553333Y7617929D01*
X7553333Y7532215D01*
X7515238Y7403643D01*
X7058095Y6889358D01*
X7553333Y6889358D01*
G04 #@! TO.C,C11*
X3854514Y-6887328D02*
X3816419Y-6930185D01*
X3702133Y-6973042D01*
X3625942Y-6973042D01*
X3511657Y-6930185D01*
X3435466Y-6844471D01*
X3397371Y-6758757D01*
X3359276Y-6587328D01*
X3359276Y-6458757D01*
X3397371Y-6287328D01*
X3435466Y-6201614D01*
X3511657Y-6115900D01*
X3625942Y-6073042D01*
X3702133Y-6073042D01*
X3816419Y-6115900D01*
X3854514Y-6158757D01*
X4616419Y-6973042D02*
X4159276Y-6973042D01*
X4387847Y-6973042D02*
X4387847Y-6073042D01*
X4311657Y-6201614D01*
X4235466Y-6287328D01*
X4159276Y-6330185D01*
X5378323Y-6973042D02*
X4921180Y-6973042D01*
X5149752Y-6973042D02*
X5149752Y-6073042D01*
X5073561Y-6201614D01*
X4997371Y-6287328D01*
X4921180Y-6330185D01*
G04 #@! TO.C,C7*
X-3536934Y-5972928D02*
X-3575029Y-6015785D01*
X-3689315Y-6058642D01*
X-3765505Y-6058642D01*
X-3879791Y-6015785D01*
X-3955981Y-5930071D01*
X-3994077Y-5844357D01*
X-4032172Y-5672928D01*
X-4032172Y-5544357D01*
X-3994077Y-5372928D01*
X-3955981Y-5287214D01*
X-3879791Y-5201500D01*
X-3765505Y-5158642D01*
X-3689315Y-5158642D01*
X-3575029Y-5201500D01*
X-3536934Y-5244357D01*
X-3270267Y-5158642D02*
X-2736934Y-5158642D01*
X-3079791Y-6058642D01*
G04 #@! TO.C,P1*
X-2730477Y6879358D02*
X-2730477Y7779358D01*
X-2425715Y7779358D01*
X-2349524Y7736500D01*
X-2311429Y7693643D01*
X-2273334Y7607929D01*
X-2273334Y7479358D01*
X-2311429Y7393643D01*
X-2349524Y7350786D01*
X-2425715Y7307929D01*
X-2730477Y7307929D01*
X-1511429Y6879358D02*
X-1968572Y6879358D01*
X-1740000Y6879358D02*
X-1740000Y7779358D01*
X-1816191Y7650786D01*
X-1892381Y7565072D01*
X-1968572Y7522215D01*
G04 #@! TO.C,U1*
X-2089524Y3249358D02*
X-2089524Y2520786D01*
X-2051429Y2435072D01*
X-2013334Y2392215D01*
X-1937143Y2349358D01*
X-1784762Y2349358D01*
X-1708572Y2392215D01*
X-1670477Y2435072D01*
X-1632381Y2520786D01*
X-1632381Y3249358D01*
X-832381Y2349358D02*
X-1289524Y2349358D01*
X-1060953Y2349358D02*
X-1060953Y3249358D01*
X-1137143Y3120786D01*
X-1213334Y3035072D01*
X-1289524Y2992215D01*
G04 #@! TO.C,U2*
X4050476Y-3610642D02*
X4050476Y-4339214D01*
X4088571Y-4424928D01*
X4126666Y-4467785D01*
X4202857Y-4510642D01*
X4355238Y-4510642D01*
X4431428Y-4467785D01*
X4469523Y-4424928D01*
X4507619Y-4339214D01*
X4507619Y-3610642D01*
X4850476Y-3696357D02*
X4888571Y-3653500D01*
X4964761Y-3610642D01*
X5155238Y-3610642D01*
X5231428Y-3653500D01*
X5269523Y-3696357D01*
X5307619Y-3782071D01*
X5307619Y-3867785D01*
X5269523Y-3996357D01*
X4812380Y-4510642D01*
X5307619Y-4510642D01*
G04 #@! TO.C,X1*
X-9267620Y2119358D02*
X-8734286Y1219358D01*
X-8734286Y2119358D02*
X-9267620Y1219358D01*
X-8010477Y1219358D02*
X-8467620Y1219358D01*
X-8239048Y1219358D02*
X-8239048Y2119358D01*
X-8315239Y1990786D01*
X-8391429Y1905072D01*
X-8467620Y1862215D01*
G04 #@! TO.C,C3*
X-9203334Y25072D02*
X-9241429Y-17785D01*
X-9355715Y-60642D01*
X-9431905Y-60642D01*
X-9546191Y-17785D01*
X-9622381Y67929D01*
X-9660477Y153643D01*
X-9698572Y325072D01*
X-9698572Y453643D01*
X-9660477Y625072D01*
X-9622381Y710786D01*
X-9546191Y796500D01*
X-9431905Y839358D01*
X-9355715Y839358D01*
X-9241429Y796500D01*
X-9203334Y753643D01*
X-8936667Y839358D02*
X-8441429Y839358D01*
X-8708096Y496500D01*
X-8593810Y496500D01*
X-8517620Y453643D01*
X-8479524Y410786D01*
X-8441429Y325072D01*
X-8441429Y110786D01*
X-8479524Y25072D01*
X-8517620Y-17785D01*
X-8593810Y-60642D01*
X-8822381Y-60642D01*
X-8898572Y-17785D01*
X-8936667Y25072D01*
G04 #@! TO.C,R1*
X-11410934Y-6058642D02*
X-11677600Y-5630071D01*
X-11868077Y-6058642D02*
X-11868077Y-5158642D01*
X-11563315Y-5158642D01*
X-11487124Y-5201500D01*
X-11449029Y-5244357D01*
X-11410934Y-5330071D01*
X-11410934Y-5458642D01*
X-11449029Y-5544357D01*
X-11487124Y-5587214D01*
X-11563315Y-5630071D01*
X-11868077Y-5630071D01*
X-10649029Y-6058642D02*
X-11106172Y-6058642D01*
X-10877600Y-6058642D02*
X-10877600Y-5158642D01*
X-10953791Y-5287214D01*
X-11029981Y-5372928D01*
X-11106172Y-5415785D01*
G04 #@! TO.C,C1*
X-4878572Y3073167D02*
X-4835715Y3035072D01*
X-4792858Y2920786D01*
X-4792858Y2844596D01*
X-4835715Y2730310D01*
X-4921429Y2654120D01*
X-5007143Y2616024D01*
X-5178572Y2577929D01*
X-5307143Y2577929D01*
X-5478572Y2616024D01*
X-5564286Y2654120D01*
X-5650000Y2730310D01*
X-5692858Y2844596D01*
X-5692858Y2920786D01*
X-5650000Y3035072D01*
X-5607143Y3073167D01*
X-4792858Y3835072D02*
X-4792858Y3377929D01*
X-4792858Y3606500D02*
X-5692858Y3606500D01*
X-5564286Y3530310D01*
X-5478572Y3454120D01*
X-5435715Y3377929D01*
G04 #@! TO.C,C7*
X-3536934Y-5972928D02*
X-3575029Y-6015785D01*
X-3689315Y-6058642D01*
X-3765505Y-6058642D01*
X-3879791Y-6015785D01*
X-3955981Y-5930071D01*
X-3994077Y-5844357D01*
X-4032172Y-5672928D01*
X-4032172Y-5544357D01*
X-3994077Y-5372928D01*
X-3955981Y-5287214D01*
X-3879791Y-5201500D01*
X-3765505Y-5158642D01*
X-3689315Y-5158642D01*
X-3575029Y-5201500D01*
X-3536934Y-5244357D01*
X-3270267Y-5158642D02*
X-2736934Y-5158642D01*
X-3079791Y-6058642D01*
G04 #@! TO.C,C6*
X3966666Y6168272D02*
X3928571Y6125415D01*
X3814285Y6082558D01*
X3738095Y6082558D01*
X3623809Y6125415D01*
X3547619Y6211129D01*
X3509523Y6296843D01*
X3471428Y6468272D01*
X3471428Y6596843D01*
X3509523Y6768272D01*
X3547619Y6853986D01*
X3623809Y6939700D01*
X3738095Y6982558D01*
X3814285Y6982558D01*
X3928571Y6939700D01*
X3966666Y6896843D01*
X4652380Y6982558D02*
X4500000Y6982558D01*
X4423809Y6939700D01*
X4385714Y6896843D01*
X4309523Y6768272D01*
X4271428Y6596843D01*
X4271428Y6253986D01*
X4309523Y6168272D01*
X4347619Y6125415D01*
X4423809Y6082558D01*
X4576190Y6082558D01*
X4652380Y6125415D01*
X4690476Y6168272D01*
X4728571Y6253986D01*
X4728571Y6468272D01*
X4690476Y6553986D01*
X4652380Y6596843D01*
X4576190Y6639700D01*
X4423809Y6639700D01*
X4347619Y6596843D01*
X4309523Y6553986D01*
X4271428Y6468272D01*
G04 #@! TO.C,C5*
X-2178572Y3843167D02*
X-2135715Y3805072D01*
X-2092858Y3690786D01*
X-2092858Y3614596D01*
X-2135715Y3500310D01*
X-2221429Y3424120D01*
X-2307143Y3386024D01*
X-2478572Y3347929D01*
X-2607143Y3347929D01*
X-2778572Y3386024D01*
X-2864286Y3424120D01*
X-2950000Y3500310D01*
X-2992858Y3614596D01*
X-2992858Y3690786D01*
X-2950000Y3805072D01*
X-2907143Y3843167D01*
X-2992858Y4566977D02*
X-2992858Y4186024D01*
X-2564286Y4147929D01*
X-2607143Y4186024D01*
X-2650000Y4262215D01*
X-2650000Y4452691D01*
X-2607143Y4528881D01*
X-2564286Y4566977D01*
X-2478572Y4605072D01*
X-2264286Y4605072D01*
X-2178572Y4566977D01*
X-2135715Y4528881D01*
X-2092858Y4452691D01*
X-2092858Y4262215D01*
X-2135715Y4186024D01*
X-2178572Y4147929D01*
G04 #@! TO.C,C4*
X-9703334Y-4174928D02*
X-9741429Y-4217785D01*
X-9855715Y-4260642D01*
X-9931905Y-4260642D01*
X-10046191Y-4217785D01*
X-10122381Y-4132071D01*
X-10160477Y-4046357D01*
X-10198572Y-3874928D01*
X-10198572Y-3746357D01*
X-10160477Y-3574928D01*
X-10122381Y-3489214D01*
X-10046191Y-3403500D01*
X-9931905Y-3360642D01*
X-9855715Y-3360642D01*
X-9741429Y-3403500D01*
X-9703334Y-3446357D01*
X-9017620Y-3660642D02*
X-9017620Y-4260642D01*
X-9208096Y-3317785D02*
X-9398572Y-3960642D01*
X-8903334Y-3960642D01*
G04 #@! TO.C,C2*
X-6973334Y6815072D02*
X-7011429Y6772215D01*
X-7125715Y6729358D01*
X-7201905Y6729358D01*
X-7316191Y6772215D01*
X-7392381Y6857929D01*
X-7430477Y6943643D01*
X-7468572Y7115072D01*
X-7468572Y7243643D01*
X-7430477Y7415072D01*
X-7392381Y7500786D01*
X-7316191Y7586500D01*
X-7201905Y7629358D01*
X-7125715Y7629358D01*
X-7011429Y7586500D01*
X-6973334Y7543643D01*
X-6668572Y7543643D02*
X-6630477Y7586500D01*
X-6554286Y7629358D01*
X-6363810Y7629358D01*
X-6287620Y7586500D01*
X-6249524Y7543643D01*
X-6211429Y7457929D01*
X-6211429Y7372215D01*
X-6249524Y7243643D01*
X-6706667Y6729358D01*
X-6211429Y6729358D01*
G04 #@! TO.C,C9*
X326666Y-7894928D02*
X288571Y-7937785D01*
X174285Y-7980642D01*
X98095Y-7980642D01*
X-16191Y-7937785D01*
X-92381Y-7852071D01*
X-130477Y-7766357D01*
X-168572Y-7594928D01*
X-168572Y-7466357D01*
X-130477Y-7294928D01*
X-92381Y-7209214D01*
X-16191Y-7123500D01*
X98095Y-7080642D01*
X174285Y-7080642D01*
X288571Y-7123500D01*
X326666Y-7166357D01*
X707619Y-7980642D02*
X860000Y-7980642D01*
X936190Y-7937785D01*
X974285Y-7894928D01*
X1050476Y-7766357D01*
X1088571Y-7594928D01*
X1088571Y-7252071D01*
X1050476Y-7166357D01*
X1012380Y-7123500D01*
X936190Y-7080642D01*
X783809Y-7080642D01*
X707619Y-7123500D01*
X669523Y-7166357D01*
X631428Y-7252071D01*
X631428Y-7466357D01*
X669523Y-7552071D01*
X707619Y-7594928D01*
X783809Y-7637785D01*
X936190Y-7637785D01*
X1012380Y-7594928D01*
X1050476Y-7552071D01*
X1088571Y-7466357D01*
G04 #@! TO.C,C8*
X3930666Y4949072D02*
X3892571Y4906215D01*
X3778285Y4863358D01*
X3702095Y4863358D01*
X3587809Y4906215D01*
X3511619Y4991929D01*
X3473523Y5077643D01*
X3435428Y5249072D01*
X3435428Y5377643D01*
X3473523Y5549072D01*
X3511619Y5634786D01*
X3587809Y5720500D01*
X3702095Y5763358D01*
X3778285Y5763358D01*
X3892571Y5720500D01*
X3930666Y5677643D01*
X4387809Y5377643D02*
X4311619Y5420500D01*
X4273523Y5463358D01*
X4235428Y5549072D01*
X4235428Y5591929D01*
X4273523Y5677643D01*
X4311619Y5720500D01*
X4387809Y5763358D01*
X4540190Y5763358D01*
X4616380Y5720500D01*
X4654476Y5677643D01*
X4692571Y5591929D01*
X4692571Y5549072D01*
X4654476Y5463358D01*
X4616380Y5420500D01*
X4540190Y5377643D01*
X4387809Y5377643D01*
X4311619Y5334786D01*
X4273523Y5291929D01*
X4235428Y5206215D01*
X4235428Y5034786D01*
X4273523Y4949072D01*
X4311619Y4906215D01*
X4387809Y4863358D01*
X4540190Y4863358D01*
X4616380Y4906215D01*
X4654476Y4949072D01*
X4692571Y5034786D01*
X4692571Y5206215D01*
X4654476Y5291929D01*
X4616380Y5334786D01*
X4540190Y5377643D01*
G04 #@! TO.C,C10*
X805714Y-1594928D02*
X767619Y-1637785D01*
X653333Y-1680642D01*
X577142Y-1680642D01*
X462857Y-1637785D01*
X386666Y-1552071D01*
X348571Y-1466357D01*
X310476Y-1294928D01*
X310476Y-1166357D01*
X348571Y-994928D01*
X386666Y-909214D01*
X462857Y-823500D01*
X577142Y-780642D01*
X653333Y-780642D01*
X767619Y-823500D01*
X805714Y-866357D01*
X1567619Y-1680642D02*
X1110476Y-1680642D01*
X1339047Y-1680642D02*
X1339047Y-780642D01*
X1262857Y-909214D01*
X1186666Y-994928D01*
X1110476Y-1037785D01*
X2062857Y-780642D02*
X2139047Y-780642D01*
X2215238Y-823500D01*
X2253333Y-866357D01*
X2291428Y-952071D01*
X2329523Y-1123500D01*
X2329523Y-1337785D01*
X2291428Y-1509214D01*
X2253333Y-1594928D01*
X2215238Y-1637785D01*
X2139047Y-1680642D01*
X2062857Y-1680642D01*
X1986666Y-1637785D01*
X1948571Y-1594928D01*
X1910476Y-1509214D01*
X1872380Y-1337785D01*
X1872380Y-1123500D01*
X1910476Y-952071D01*
X1948571Y-866357D01*
X1986666Y-823500D01*
X2062857Y-780642D01*
G04 #@! TO.C,R2*
X-11410934Y-7328642D02*
X-11677600Y-6900071D01*
X-11868077Y-7328642D02*
X-11868077Y-6428642D01*
X-11563315Y-6428642D01*
X-11487124Y-6471500D01*
X-11449029Y-6514357D01*
X-11410934Y-6600071D01*
X-11410934Y-6728642D01*
X-11449029Y-6814357D01*
X-11487124Y-6857214D01*
X-11563315Y-6900071D01*
X-11868077Y-6900071D01*
X-11106172Y-6514357D02*
X-11068077Y-6471500D01*
X-10991886Y-6428642D01*
X-10801410Y-6428642D01*
X-10725220Y-6471500D01*
X-10687124Y-6514357D01*
X-10649029Y-6600071D01*
X-10649029Y-6685785D01*
X-10687124Y-6814357D01*
X-11144267Y-7328642D01*
X-10649029Y-7328642D01*
G04 #@! TO.C,R4*
X-5363334Y6409358D02*
X-5630000Y6837929D01*
X-5820477Y6409358D02*
X-5820477Y7309358D01*
X-5515715Y7309358D01*
X-5439524Y7266500D01*
X-5401429Y7223643D01*
X-5363334Y7137929D01*
X-5363334Y7009358D01*
X-5401429Y6923643D01*
X-5439524Y6880786D01*
X-5515715Y6837929D01*
X-5820477Y6837929D01*
X-4677620Y7009358D02*
X-4677620Y6409358D01*
X-4868096Y7352215D02*
X-5058572Y6709358D01*
X-4563334Y6709358D01*
G04 #@! TO.C,p1*
X12655619Y3634558D02*
X12655619Y2734558D01*
X12655619Y3591700D02*
X12731809Y3634558D01*
X12884190Y3634558D01*
X12960380Y3591700D01*
X12998476Y3548843D01*
X13036571Y3463129D01*
X13036571Y3205986D01*
X12998476Y3120272D01*
X12960380Y3077415D01*
X12884190Y3034558D01*
X12731809Y3034558D01*
X12655619Y3077415D01*
X13798476Y3034558D02*
X13341333Y3034558D01*
X13569904Y3034558D02*
X13569904Y3934558D01*
X13493714Y3805986D01*
X13417523Y3720272D01*
X13341333Y3677415D01*
G04 #@! TO.C,p2*
X11334819Y1602558D02*
X11334819Y702558D01*
X11334819Y1559700D02*
X11411009Y1602558D01*
X11563390Y1602558D01*
X11639580Y1559700D01*
X11677676Y1516843D01*
X11715771Y1431129D01*
X11715771Y1173986D01*
X11677676Y1088272D01*
X11639580Y1045415D01*
X11563390Y1002558D01*
X11411009Y1002558D01*
X11334819Y1045415D01*
X12020533Y1816843D02*
X12058628Y1859700D01*
X12134819Y1902558D01*
X12325295Y1902558D01*
X12401485Y1859700D01*
X12439580Y1816843D01*
X12477676Y1731129D01*
X12477676Y1645415D01*
X12439580Y1516843D01*
X11982438Y1002558D01*
X12477676Y1002558D01*
G04 #@! TO.C,p3*
X11334819Y-785042D02*
X11334819Y-1685042D01*
X11334819Y-827900D02*
X11411009Y-785042D01*
X11563390Y-785042D01*
X11639580Y-827900D01*
X11677676Y-870757D01*
X11715771Y-956471D01*
X11715771Y-1213614D01*
X11677676Y-1299328D01*
X11639580Y-1342185D01*
X11563390Y-1385042D01*
X11411009Y-1385042D01*
X11334819Y-1342185D01*
X11982438Y-485042D02*
X12477676Y-485042D01*
X12211009Y-827900D01*
X12325295Y-827900D01*
X12401485Y-870757D01*
X12439580Y-913614D01*
X12477676Y-999328D01*
X12477676Y-1213614D01*
X12439580Y-1299328D01*
X12401485Y-1342185D01*
X12325295Y-1385042D01*
X12096723Y-1385042D01*
X12020533Y-1342185D01*
X11982438Y-1299328D01*
G04 #@! TO.C,p4*
X12655619Y-2918642D02*
X12655619Y-3818642D01*
X12655619Y-2961500D02*
X12731809Y-2918642D01*
X12884190Y-2918642D01*
X12960380Y-2961500D01*
X12998476Y-3004357D01*
X13036571Y-3090071D01*
X13036571Y-3347214D01*
X12998476Y-3432928D01*
X12960380Y-3475785D01*
X12884190Y-3518642D01*
X12731809Y-3518642D01*
X12655619Y-3475785D01*
X13722285Y-2918642D02*
X13722285Y-3518642D01*
X13531809Y-2575785D02*
X13341333Y-3218642D01*
X13836571Y-3218642D01*
G04 #@! TO.C,p5*
X13824019Y1551758D02*
X13824019Y651758D01*
X13824019Y1508900D02*
X13900209Y1551758D01*
X14052590Y1551758D01*
X14128780Y1508900D01*
X14166876Y1466043D01*
X14204971Y1380329D01*
X14204971Y1123186D01*
X14166876Y1037472D01*
X14128780Y994615D01*
X14052590Y951758D01*
X13900209Y951758D01*
X13824019Y994615D01*
X14928780Y1851758D02*
X14547828Y1851758D01*
X14509733Y1423186D01*
X14547828Y1466043D01*
X14624019Y1508900D01*
X14814495Y1508900D01*
X14890685Y1466043D01*
X14928780Y1423186D01*
X14966876Y1337472D01*
X14966876Y1123186D01*
X14928780Y1037472D01*
X14890685Y994615D01*
X14814495Y951758D01*
X14624019Y951758D01*
X14547828Y994615D01*
X14509733Y1037472D01*
G04 #@! TO.C,p6*
X13874819Y-785042D02*
X13874819Y-1685042D01*
X13874819Y-827900D02*
X13951009Y-785042D01*
X14103390Y-785042D01*
X14179580Y-827900D01*
X14217676Y-870757D01*
X14255771Y-956471D01*
X14255771Y-1213614D01*
X14217676Y-1299328D01*
X14179580Y-1342185D01*
X14103390Y-1385042D01*
X13951009Y-1385042D01*
X13874819Y-1342185D01*
X14941485Y-485042D02*
X14789104Y-485042D01*
X14712914Y-527900D01*
X14674819Y-570757D01*
X14598628Y-699328D01*
X14560533Y-870757D01*
X14560533Y-1213614D01*
X14598628Y-1299328D01*
X14636723Y-1342185D01*
X14712914Y-1385042D01*
X14865295Y-1385042D01*
X14941485Y-1342185D01*
X14979580Y-1299328D01*
X15017676Y-1213614D01*
X15017676Y-999328D01*
X14979580Y-913614D01*
X14941485Y-870757D01*
X14865295Y-827900D01*
X14712914Y-827900D01*
X14636723Y-870757D01*
X14598628Y-913614D01*
X14560533Y-999328D01*
G04 #@! TO.C,R6*
X3676666Y439358D02*
X3410000Y867929D01*
X3219523Y439358D02*
X3219523Y1339358D01*
X3524285Y1339358D01*
X3600476Y1296500D01*
X3638571Y1253643D01*
X3676666Y1167929D01*
X3676666Y1039358D01*
X3638571Y953643D01*
X3600476Y910786D01*
X3524285Y867929D01*
X3219523Y867929D01*
X4362380Y1339358D02*
X4210000Y1339358D01*
X4133809Y1296500D01*
X4095714Y1253643D01*
X4019523Y1125072D01*
X3981428Y953643D01*
X3981428Y610786D01*
X4019523Y525072D01*
X4057619Y482215D01*
X4133809Y439358D01*
X4286190Y439358D01*
X4362380Y482215D01*
X4400476Y525072D01*
X4438571Y610786D01*
X4438571Y825072D01*
X4400476Y910786D01*
X4362380Y953643D01*
X4286190Y996500D01*
X4133809Y996500D01*
X4057619Y953643D01*
X4019523Y910786D01*
X3981428Y825072D01*
G04 #@! TO.C,R7*
X3696666Y1579358D02*
X3430000Y2007929D01*
X3239523Y1579358D02*
X3239523Y2479358D01*
X3544285Y2479358D01*
X3620476Y2436500D01*
X3658571Y2393643D01*
X3696666Y2307929D01*
X3696666Y2179358D01*
X3658571Y2093643D01*
X3620476Y2050786D01*
X3544285Y2007929D01*
X3239523Y2007929D01*
X3963333Y2479358D02*
X4496666Y2479358D01*
X4153809Y1579358D01*
G04 #@! TO.C,R5*
X-343334Y-740642D02*
X-610000Y-312071D01*
X-800477Y-740642D02*
X-800477Y159358D01*
X-495715Y159358D01*
X-419524Y116500D01*
X-381429Y73643D01*
X-343334Y-12071D01*
X-343334Y-140642D01*
X-381429Y-226357D01*
X-419524Y-269214D01*
X-495715Y-312071D01*
X-800477Y-312071D01*
X380476Y159358D02*
X-477Y159358D01*
X-38572Y-269214D01*
X-477Y-226357D01*
X75714Y-183500D01*
X266190Y-183500D01*
X342380Y-226357D01*
X380476Y-269214D01*
X418571Y-354928D01*
X418571Y-569214D01*
X380476Y-654928D01*
X342380Y-697785D01*
X266190Y-740642D01*
X75714Y-740642D01*
X-477Y-697785D01*
X-38572Y-654928D01*
G04 #@! TO.C,U3*
X4030476Y-2500642D02*
X4030476Y-3229214D01*
X4068571Y-3314928D01*
X4106666Y-3357785D01*
X4182857Y-3400642D01*
X4335238Y-3400642D01*
X4411428Y-3357785D01*
X4449523Y-3314928D01*
X4487619Y-3229214D01*
X4487619Y-2500642D01*
X4792380Y-2500642D02*
X5287619Y-2500642D01*
X5020952Y-2843500D01*
X5135238Y-2843500D01*
X5211428Y-2886357D01*
X5249523Y-2929214D01*
X5287619Y-3014928D01*
X5287619Y-3229214D01*
X5249523Y-3314928D01*
X5211428Y-3357785D01*
X5135238Y-3400642D01*
X4906666Y-3400642D01*
X4830476Y-3357785D01*
X4792380Y-3314928D01*
G04 #@! TD*
M02*
