G04 #@! TF.FileFunction,Copper,L2,Bot,Signal*
%FSLAX46Y46*%
G04 Gerber Fmt 4.6, Leading zero omitted, Abs format (unit mm)*
G04 Created by KiCad (PCBNEW 4.0.7) date 2018. July 01., Sunday 21:28:52*
%MOMM*%
%LPD*%
G01*
G04 APERTURE LIST*
%ADD10C,0.150000*%
%ADD11O,3.500120X1.501140*%
%ADD12R,1.998980X1.198880*%
%ADD13C,1.099820*%
%ADD14C,0.304800*%
%ADD15C,0.546100*%
%ADD16C,0.300000*%
%ADD17C,0.250000*%
%ADD18C,0.152400*%
%ADD19C,0.127000*%
%ADD20C,0.200000*%
%ADD21C,0.200660*%
G04 APERTURE END LIST*
D10*
G36*
X-647700Y-8004810D02*
X-1297940Y-8004810D01*
X-1297940Y-6854190D01*
X-647700Y-6854190D01*
X-647700Y-8004810D01*
X-647700Y-8004810D01*
G37*
G36*
X601980Y-8004810D02*
X-48260Y-8004810D01*
X-48260Y-6854190D01*
X601980Y-6854190D01*
X601980Y-8004810D01*
X601980Y-8004810D01*
G37*
G36*
X-1922780Y-8004810D02*
X-2573020Y-8004810D01*
X-2573020Y-6854190D01*
X-1922780Y-6854190D01*
X-1922780Y-8004810D01*
X-1922780Y-8004810D01*
G37*
G36*
X-3197860Y-8004810D02*
X-3848100Y-8004810D01*
X-3848100Y-6854190D01*
X-3197860Y-6854190D01*
X-3197860Y-8004810D01*
X-3197860Y-8004810D01*
G37*
G36*
X-4472940Y-8004810D02*
X-5123180Y-8004810D01*
X-5123180Y-6854190D01*
X-4472940Y-6854190D01*
X-4472940Y-8004810D01*
X-4472940Y-8004810D01*
G37*
G36*
X-5748020Y-8004810D02*
X-6398260Y-8004810D01*
X-6398260Y-6854190D01*
X-5748020Y-6854190D01*
X-5748020Y-8004810D01*
X-5748020Y-8004810D01*
G37*
G36*
X2625090Y-5854700D02*
X2175510Y-5854700D01*
X2175510Y-4554220D01*
X2625090Y-4554220D01*
X2625090Y-5854700D01*
X2625090Y-5854700D01*
G37*
G36*
X2625090Y-3853180D02*
X2175510Y-3853180D01*
X2175510Y-2552700D01*
X2625090Y-2552700D01*
X2625090Y-3853180D01*
X2625090Y-3853180D01*
G37*
G36*
X-9673590Y-3853180D02*
X-10123170Y-3853180D01*
X-10123170Y-2552700D01*
X-9673590Y-2552700D01*
X-9673590Y-3853180D01*
X-9673590Y-3853180D01*
G37*
G36*
X-9673590Y-5854700D02*
X-10123170Y-5854700D01*
X-10123170Y-4554220D01*
X-9673590Y-4554220D01*
X-9673590Y-5854700D01*
X-9673590Y-5854700D01*
G37*
G36*
X3051810Y5396230D02*
X1652270Y5396230D01*
X1652270Y7095490D01*
X3051810Y7095490D01*
X3051810Y5396230D01*
X3051810Y5396230D01*
G37*
G36*
X-9147810Y5497830D02*
X-10547350Y5497830D01*
X-10547350Y7197090D01*
X-9147810Y7197090D01*
X-9147810Y5497830D01*
X-9147810Y5497830D01*
G37*
G36*
X-877570Y5447030D02*
X-1418590Y5447030D01*
X-1418590Y6247130D01*
X-877570Y6247130D01*
X-877570Y5447030D01*
X-877570Y5447030D01*
G37*
G36*
X-5977890Y5447030D02*
X-6518910Y5447030D01*
X-6518910Y6247130D01*
X-5977890Y6247130D01*
X-5977890Y5447030D01*
X-5977890Y5447030D01*
G37*
D11*
X6999600Y5683770D03*
X6999600Y-5715750D03*
D12*
X4599020Y-1016750D03*
X4599020Y1000010D03*
X4599020Y-3516110D03*
X4599020Y3484130D03*
D13*
X6999600Y-2266430D03*
X6999600Y2234450D03*
D14*
X-4249420Y-1348740D03*
X-3248660Y-1348740D03*
X-5250180Y-1348740D03*
X-5250180Y-347980D03*
X-4249420Y-347980D03*
X-3248660Y-347980D03*
X-3248660Y-2349500D03*
X-4249420Y-2349500D03*
X-5250180Y-2349500D03*
D10*
G36*
X-11591190Y-1745310D02*
X-11141610Y-1745310D01*
X-11141610Y-2245690D01*
X-11591190Y-2245690D01*
X-11591190Y-1745310D01*
X-11591190Y-1745310D01*
G37*
G36*
X-11591190Y-221310D02*
X-11141610Y-221310D01*
X-11141610Y-721690D01*
X-11591190Y-721690D01*
X-11591190Y-221310D01*
X-11591190Y-221310D01*
G37*
G36*
X-10778390Y-1745310D02*
X-10328810Y-1745310D01*
X-10328810Y-2245690D01*
X-10778390Y-2245690D01*
X-10778390Y-1745310D01*
X-10778390Y-1745310D01*
G37*
G36*
X-10778390Y-221310D02*
X-10328810Y-221310D01*
X-10328810Y-721690D01*
X-10778390Y-721690D01*
X-10778390Y-221310D01*
X-10778390Y-221310D01*
G37*
D15*
X931860Y-4381500D03*
X1307368Y3841459D03*
X-4318000Y6184900D03*
X-8483600Y-3213096D03*
X-7213600Y1358900D03*
X-660400Y4051300D03*
X-660400Y4051300D03*
X-7213600Y1358900D03*
X914400Y-1231898D03*
X469898Y2552700D03*
X2997200Y1054100D03*
X2743200Y-1181100D03*
X4673600Y-2197100D03*
X3274211Y88900D03*
X-692294Y-3074008D03*
X-3251200Y2600937D03*
X-3251200Y2600935D03*
X-4796605Y-5348728D03*
X-3251200Y3274050D03*
X-3251200Y3274048D03*
X6959600Y444500D03*
X-561954Y5166970D03*
X6959600Y-317500D03*
X508000Y5067300D03*
X2249092Y2623730D03*
X-2347553Y4905116D03*
X4622800Y-4686300D03*
X-580478Y3157142D03*
X-11379200Y-1181100D03*
X7213600Y-7429500D03*
X304798Y-6362700D03*
X660400Y3289300D03*
X2783920Y3517899D03*
X-1200000Y7346500D03*
X-1200000Y7346500D03*
X-6248400Y-5346700D03*
X-6197600Y-6108700D03*
X-10763240Y-5397500D03*
D16*
X1591452Y-3721908D02*
X1204909Y-4108451D01*
X1591452Y3648497D02*
X1591452Y-3721908D01*
X1371600Y3868349D02*
X1591452Y3648497D01*
X1204909Y-4108451D02*
X931860Y-4381500D01*
X-660400Y4051300D02*
X1097527Y4051300D01*
X1364809Y3898900D02*
X1307368Y3841459D01*
X1402151Y3898900D02*
X1364809Y3898900D01*
X1097527Y4051300D02*
X1307368Y3841459D01*
D17*
X-4318000Y5798749D02*
X-4318000Y6184900D01*
X-4267200Y4956811D02*
X-4318000Y5007611D01*
X-4318000Y5007611D02*
X-4318000Y5798749D01*
D16*
X-686139Y4051300D02*
X-923487Y4288648D01*
X-3615689Y4305300D02*
X-4267200Y4956811D01*
X-923487Y4288648D02*
X-2867018Y4288648D01*
X-2867018Y4288648D02*
X-2883670Y4305300D01*
X-2883670Y4305300D02*
X-3615689Y4305300D01*
X-660400Y4051300D02*
X-686139Y4051300D01*
X-4267200Y4956811D02*
X-6549389Y4956811D01*
X-6549389Y4956811D02*
X-6940551Y4565649D01*
X-6940551Y4565649D02*
X-6940551Y1631949D01*
X-6940551Y1631949D02*
X-7213600Y1358900D01*
X-7213600Y1358900D02*
X-8483600Y88900D01*
X-8483600Y88900D02*
X-8483600Y-2826945D01*
X-8483600Y-2826945D02*
X-8483600Y-3213096D01*
X-629849Y4020749D02*
X-660400Y4051300D01*
D18*
X-7213600Y1358900D02*
X-8280400Y292100D01*
D19*
X914400Y-845747D02*
X914400Y-1231898D01*
X914400Y2108198D02*
X914400Y-845747D01*
X469898Y2552700D02*
X914400Y2108198D01*
D16*
X2724151Y-1162051D02*
X2743200Y-1181100D01*
X2724151Y781051D02*
X2724151Y-1162051D01*
X2997200Y1054100D02*
X2724151Y781051D01*
D19*
X3051290Y1000010D02*
X2997200Y1054100D01*
X4599020Y1000010D02*
X3051290Y1000010D01*
X4599020Y-2122520D02*
X4673600Y-2197100D01*
X4599020Y-1016750D02*
X4599020Y-2122520D01*
X4599020Y-1016750D02*
X4198970Y-1016750D01*
X3274211Y-91991D02*
X3274211Y88900D01*
X4198970Y-1016750D02*
X3274211Y-91991D01*
X-1078445Y-3074008D02*
X-692294Y-3074008D01*
X-3569308Y-3074008D02*
X-1078445Y-3074008D01*
X-6073140Y-7429500D02*
X-5384789Y-6741149D01*
X-5384789Y-6741149D02*
X-5384789Y-4889489D01*
X-5384789Y-4889489D02*
X-3569308Y-3074008D01*
X-3522980Y-7429500D02*
X-3522980Y-6583680D01*
X-3522980Y-6583680D02*
X-3200400Y-6261100D01*
X101600Y-4749800D02*
X101600Y800100D01*
X-3200400Y-6261100D02*
X-1409700Y-6261100D01*
X-1409700Y-6261100D02*
X101600Y-4749800D01*
X-1676400Y2578100D02*
X-3251200Y2578100D01*
X101600Y800100D02*
X-1676400Y2578100D01*
X-3251200Y2578100D02*
X-3251200Y2600935D01*
X-4805680Y-7541260D02*
X-4796605Y-5348728D01*
X-4805680Y-5367020D02*
X-4805680Y-5357803D01*
X-4805680Y-5357803D02*
X-4796605Y-5348728D01*
D20*
X-972820Y-7429500D02*
X-972820Y-6326770D01*
X-972820Y-6326770D02*
X406400Y-4947550D01*
X406400Y-4947550D02*
X406400Y1155700D01*
X406400Y1155700D02*
X-1711950Y3274050D01*
X-1711950Y3274050D02*
X-3251200Y3274050D01*
D19*
X-561954Y5166970D02*
X-198073Y5530851D01*
X-198073Y5530851D02*
X1060449Y5530851D01*
X5791200Y4711700D02*
X5794825Y4711700D01*
X5794825Y4711700D02*
X6248400Y4258125D01*
X1060449Y5530851D02*
X1848610Y4742690D01*
X1848610Y4742690D02*
X5760210Y4742690D01*
X6248400Y4258125D02*
X6248400Y1155700D01*
X6248400Y1155700D02*
X6686551Y717549D01*
X6686551Y717549D02*
X6959600Y444500D01*
X5760210Y4742690D02*
X5791200Y4711700D01*
X-560024Y5168900D02*
X-561954Y5166970D01*
X-508000Y5168900D02*
X-560024Y5168900D01*
X508000Y5067300D02*
X1164776Y5067300D01*
X1164776Y5067300D02*
X1875976Y4356100D01*
X5791200Y4356100D02*
X5943600Y4203700D01*
X6686551Y-44451D02*
X6959600Y-317500D01*
X1875976Y4356100D02*
X5791200Y4356100D01*
X5943600Y4203700D02*
X5943600Y698500D01*
X5943600Y698500D02*
X6686551Y-44451D01*
D10*
X2249092Y2623730D02*
X1976043Y2896779D01*
X-1006216Y4905116D02*
X-1961402Y4905116D01*
X-1961402Y4905116D02*
X-2347553Y4905116D01*
X-693344Y4592244D02*
X-1006216Y4905116D01*
X1976043Y2896779D02*
X1976043Y3880545D01*
X1976043Y3880545D02*
X1264344Y4592244D01*
X1264344Y4592244D02*
X-693344Y4592244D01*
D16*
X4599020Y-4662520D02*
X4622800Y-4686300D01*
X4599020Y-3516110D02*
X4599020Y-4662520D01*
X4599020Y-3516110D02*
X4198970Y-3516110D01*
D21*
X-307429Y3430191D02*
X-580478Y3157142D01*
X-266791Y3470829D02*
X-307429Y3430191D01*
X660400Y3470829D02*
X-266791Y3470829D01*
X-10553600Y-471500D02*
X-11366400Y-471500D01*
X-11366400Y-471500D02*
X-11366400Y-1168300D01*
X-11366400Y-1168300D02*
X-11379200Y-1181100D01*
X5537200Y-7429500D02*
X7213600Y-7429500D01*
X4775200Y-6667500D02*
X5537200Y-7429500D01*
X2590800Y-6667500D02*
X4775200Y-6667500D01*
X1828800Y-7429500D02*
X2590800Y-6667500D01*
X276860Y-7429500D02*
X1828800Y-7429500D01*
X276860Y-7429500D02*
X276860Y-6390638D01*
X276860Y-6390638D02*
X304798Y-6362700D01*
X4620261Y3517899D02*
X3170071Y3517899D01*
X3170071Y3517899D02*
X2783920Y3517899D01*
X4635500Y3502660D02*
X4620261Y3517899D01*
X-1200000Y7346500D02*
X-1200000Y7296500D01*
X-1200000Y7346500D02*
X-1200000Y7296500D01*
D19*
X-11366400Y-1995500D02*
X-11366400Y-2844700D01*
X-11366400Y-2844700D02*
X-11531600Y-3009900D01*
X-11531600Y-3009900D02*
X-11531600Y-6057900D01*
X-11531600Y-6057900D02*
X-10814060Y-6775440D01*
X-10814060Y-6775440D02*
X-6762740Y-6775440D01*
X-5638800Y-6388357D02*
X-5638800Y-5956300D01*
X-5638800Y-5956300D02*
X-5975351Y-5619749D01*
X-6762740Y-6775440D02*
X-6604000Y-6616700D01*
X-6604000Y-6616700D02*
X-5867143Y-6616700D01*
X-5867143Y-6616700D02*
X-5638800Y-6388357D01*
X-5975351Y-5619749D02*
X-6248400Y-5346700D01*
X-10553600Y-1995500D02*
X-10553600Y-2692300D01*
X-6583751Y-6108700D02*
X-6197600Y-6108700D01*
X-10553600Y-2692300D02*
X-11226800Y-3365500D01*
X-11226800Y-3365500D02*
X-11226800Y-5905500D01*
X-11226800Y-5905500D02*
X-10750551Y-6381749D01*
X-10750551Y-6381749D02*
X-6856800Y-6381749D01*
X-6856800Y-6381749D02*
X-6583751Y-6108700D01*
X-10377089Y-5397500D02*
X-10763240Y-5397500D01*
X-9987280Y-5397500D02*
X-10377089Y-5397500D01*
X-9906000Y-5316220D02*
X-9987280Y-5397500D01*
D10*
G36*
X3375470Y7096500D02*
X3396367Y6991442D01*
X3455878Y6902378D01*
X3544942Y6842867D01*
X3650000Y6821970D01*
X4350000Y6821970D01*
X4455058Y6842867D01*
X4544122Y6902378D01*
X4603633Y6991442D01*
X4624530Y7096500D01*
X4624530Y7846970D01*
X9225070Y7846970D01*
X9225070Y-7878970D01*
X4624530Y-7878970D01*
X4624530Y-7103500D01*
X4603633Y-6998442D01*
X4544122Y-6909378D01*
X4455058Y-6849867D01*
X4350000Y-6828970D01*
X3650000Y-6828970D01*
X3544942Y-6849867D01*
X3455878Y-6909378D01*
X3396367Y-6998442D01*
X3375470Y-7103500D01*
X3375470Y-7878970D01*
X882367Y-7878970D01*
X882367Y-7514500D01*
X361860Y-7514500D01*
X361860Y-7534500D01*
X191860Y-7534500D01*
X191860Y-7514500D01*
X-328647Y-7514500D01*
X-328647Y-7878970D01*
X-418292Y-7878970D01*
X-418292Y-6854190D01*
X-328647Y-6854190D01*
X-328647Y-7344500D01*
X191860Y-7344500D01*
X191860Y-6573803D01*
X361860Y-6573803D01*
X361860Y-7344500D01*
X882367Y-7344500D01*
X882367Y-6854190D01*
X863192Y-6752281D01*
X802964Y-6658684D01*
X711066Y-6595894D01*
X601980Y-6573803D01*
X361860Y-6573803D01*
X191860Y-6573803D01*
X-48260Y-6573803D01*
X-150169Y-6592978D01*
X-243766Y-6653206D01*
X-306556Y-6745104D01*
X-328647Y-6854190D01*
X-418292Y-6854190D01*
X-433981Y-6770810D01*
X-483259Y-6694230D01*
X-558447Y-6642856D01*
X-647700Y-6624782D01*
X-647820Y-6624782D01*
X-647820Y-6461390D01*
X636207Y-5177362D01*
X636210Y-5177360D01*
X706661Y-5071922D01*
X708987Y-5060228D01*
X731401Y-4947550D01*
X731400Y-4947545D01*
X731400Y-4840141D01*
X831878Y-4881863D01*
X1030969Y-4882036D01*
X1214972Y-4806008D01*
X1355873Y-4665352D01*
X1402019Y-4554220D01*
X1946102Y-4554220D01*
X1946102Y-5854700D01*
X1961791Y-5938080D01*
X2011069Y-6014660D01*
X2086257Y-6066034D01*
X2175510Y-6084108D01*
X2625090Y-6084108D01*
X2708470Y-6068419D01*
X2785050Y-6019141D01*
X2836424Y-5943953D01*
X2854498Y-5854700D01*
X2854498Y-5715750D01*
X4985846Y-5715750D01*
X5060107Y-6089084D01*
X5271584Y-6405582D01*
X5588082Y-6617059D01*
X5961416Y-6691320D01*
X8037784Y-6691320D01*
X8411118Y-6617059D01*
X8727616Y-6405582D01*
X8939093Y-6089084D01*
X9013354Y-5715750D01*
X8939093Y-5342416D01*
X8727616Y-5025918D01*
X8411118Y-4814441D01*
X8037784Y-4740180D01*
X5961416Y-4740180D01*
X5588082Y-4814441D01*
X5271584Y-5025918D01*
X5060107Y-5342416D01*
X4985846Y-5715750D01*
X2854498Y-5715750D01*
X2854498Y-4554220D01*
X2838809Y-4470840D01*
X2789531Y-4394260D01*
X2714343Y-4342886D01*
X2625090Y-4324812D01*
X2175510Y-4324812D01*
X2092130Y-4340501D01*
X2015550Y-4389779D01*
X1964176Y-4464967D01*
X1946102Y-4554220D01*
X1402019Y-4554220D01*
X1432223Y-4481482D01*
X1432281Y-4414803D01*
X1858314Y-3988770D01*
X1940124Y-3866333D01*
X1946102Y-3836280D01*
X1946102Y-3853180D01*
X1961791Y-3936560D01*
X2011069Y-4013140D01*
X2086257Y-4064514D01*
X2175510Y-4082588D01*
X2625090Y-4082588D01*
X2708470Y-4066899D01*
X2785050Y-4017621D01*
X2836424Y-3942433D01*
X2854498Y-3853180D01*
X2854498Y-2552700D01*
X2838809Y-2469320D01*
X2789531Y-2392740D01*
X2714343Y-2341366D01*
X2625090Y-2323292D01*
X2175510Y-2323292D01*
X2092130Y-2338981D01*
X2015550Y-2388259D01*
X1968852Y-2456603D01*
X1968852Y2200815D01*
X2149589Y2125767D01*
X2347726Y2125594D01*
X2530846Y2201258D01*
X2671072Y2341239D01*
X2747055Y2524227D01*
X2747228Y2722364D01*
X2671564Y2905484D01*
X2531583Y3045710D01*
X2348595Y3121693D01*
X2276043Y3121756D01*
X2276043Y3330380D01*
X3324530Y3330380D01*
X3324530Y2829989D01*
X3366396Y2728915D01*
X3443755Y2651556D01*
X3544829Y2609690D01*
X4445270Y2609690D01*
X4514020Y2678440D01*
X4514020Y3399130D01*
X3393280Y3399130D01*
X3324530Y3330380D01*
X2276043Y3330380D01*
X2276043Y3880545D01*
X2253207Y3995350D01*
X2204931Y4067600D01*
X3324530Y4067600D01*
X3324530Y3637880D01*
X3393280Y3569130D01*
X4514020Y3569130D01*
X4514020Y3589130D01*
X4684020Y3589130D01*
X4684020Y3569130D01*
X4704020Y3569130D01*
X4704020Y3399130D01*
X4684020Y3399130D01*
X4684020Y2678440D01*
X4752770Y2609690D01*
X5653211Y2609690D01*
X5655100Y2610472D01*
X5655100Y1817398D01*
X5598510Y1828858D01*
X3599530Y1828858D01*
X3516150Y1813169D01*
X3439570Y1763891D01*
X3388196Y1688703D01*
X3370122Y1599450D01*
X3370122Y1385491D01*
X3279691Y1476080D01*
X3096703Y1552063D01*
X2898566Y1552236D01*
X2715446Y1476572D01*
X2575220Y1336591D01*
X2499237Y1153603D01*
X2499178Y1086408D01*
X2458986Y1046216D01*
X2377696Y924558D01*
X2350719Y788935D01*
X2349151Y781051D01*
X2349151Y-870727D01*
X2321220Y-898609D01*
X2245237Y-1081597D01*
X2245064Y-1279734D01*
X2320728Y-1462854D01*
X2460709Y-1603080D01*
X2643697Y-1679063D01*
X2841834Y-1679236D01*
X3024954Y-1603572D01*
X3165180Y-1463591D01*
X3241163Y-1280603D01*
X3241336Y-1082466D01*
X3165672Y-899346D01*
X3099151Y-832709D01*
X3099151Y-377689D01*
X3174708Y-409063D01*
X3183290Y-409070D01*
X3370122Y-595902D01*
X3370122Y-1616190D01*
X3385811Y-1699570D01*
X3435089Y-1776150D01*
X3510277Y-1827524D01*
X3599530Y-1845598D01*
X4310520Y-1845598D01*
X4310520Y-1855812D01*
X4251620Y-1914609D01*
X4175637Y-2097597D01*
X4175464Y-2295734D01*
X4251128Y-2478854D01*
X4391109Y-2619080D01*
X4555310Y-2687262D01*
X3599530Y-2687262D01*
X3516150Y-2702951D01*
X3439570Y-2752229D01*
X3388196Y-2827417D01*
X3370122Y-2916670D01*
X3370122Y-4115550D01*
X3385811Y-4198930D01*
X3435089Y-4275510D01*
X3510277Y-4326884D01*
X3599530Y-4344958D01*
X4224020Y-4344958D01*
X4224020Y-4380650D01*
X4200820Y-4403809D01*
X4124837Y-4586797D01*
X4124664Y-4784934D01*
X4200328Y-4968054D01*
X4340309Y-5108280D01*
X4523297Y-5184263D01*
X4721434Y-5184436D01*
X4904554Y-5108772D01*
X5044780Y-4968791D01*
X5120763Y-4785803D01*
X5120936Y-4587666D01*
X5045272Y-4404546D01*
X4985788Y-4344958D01*
X5598510Y-4344958D01*
X5681890Y-4329269D01*
X5758470Y-4279991D01*
X5809844Y-4204803D01*
X5827918Y-4115550D01*
X5827918Y-2916670D01*
X5812229Y-2833290D01*
X5762951Y-2756710D01*
X5687763Y-2705336D01*
X5598510Y-2687262D01*
X4791532Y-2687262D01*
X4955354Y-2619572D01*
X5095580Y-2479591D01*
X5120368Y-2419893D01*
X6224556Y-2419893D01*
X6342281Y-2704808D01*
X6560076Y-2922983D01*
X6844785Y-3041205D01*
X7153063Y-3041474D01*
X7437978Y-2923749D01*
X7656153Y-2705954D01*
X7774375Y-2421245D01*
X7774644Y-2112967D01*
X7656919Y-1828052D01*
X7439124Y-1609877D01*
X7154415Y-1491655D01*
X6846137Y-1491386D01*
X6561222Y-1609111D01*
X6343047Y-1826906D01*
X6224825Y-2111615D01*
X6224556Y-2419893D01*
X5120368Y-2419893D01*
X5171563Y-2296603D01*
X5171736Y-2098466D01*
X5096072Y-1915346D01*
X5026446Y-1845598D01*
X5598510Y-1845598D01*
X5681890Y-1829909D01*
X5758470Y-1780631D01*
X5809844Y-1705443D01*
X5827918Y-1616190D01*
X5827918Y-417310D01*
X5812229Y-333930D01*
X5762951Y-257350D01*
X5687763Y-205976D01*
X5598510Y-187902D01*
X3778122Y-187902D01*
X3721899Y-131679D01*
X3772174Y-10603D01*
X3772333Y171162D01*
X5598510Y171162D01*
X5681890Y186851D01*
X5758470Y236129D01*
X5809844Y311317D01*
X5827918Y400570D01*
X5827918Y406182D01*
X6461629Y-227530D01*
X6461464Y-416134D01*
X6537128Y-599254D01*
X6677109Y-739480D01*
X6860097Y-815463D01*
X7058234Y-815636D01*
X7241354Y-739972D01*
X7381580Y-599991D01*
X7457563Y-417003D01*
X7457736Y-218866D01*
X7382072Y-35746D01*
X7282949Y63550D01*
X7381580Y162009D01*
X7457563Y344997D01*
X7457736Y543134D01*
X7382072Y726254D01*
X7242091Y866480D01*
X7059103Y942463D01*
X6869471Y942629D01*
X6536900Y1275200D01*
X6536900Y1601113D01*
X6560076Y1577897D01*
X6844785Y1459675D01*
X7153063Y1459406D01*
X7437978Y1577131D01*
X7656153Y1794926D01*
X7774375Y2079635D01*
X7774644Y2387913D01*
X7656919Y2672828D01*
X7439124Y2891003D01*
X7154415Y3009225D01*
X6846137Y3009494D01*
X6561222Y2891769D01*
X6536900Y2867489D01*
X6536900Y4258125D01*
X6514939Y4368529D01*
X6452400Y4462125D01*
X6206325Y4708200D01*
X8037784Y4708200D01*
X8411118Y4782461D01*
X8727616Y4993938D01*
X8939093Y5310436D01*
X9013354Y5683770D01*
X8939093Y6057104D01*
X8727616Y6373602D01*
X8411118Y6585079D01*
X8037784Y6659340D01*
X5961416Y6659340D01*
X5588082Y6585079D01*
X5271584Y6373602D01*
X5060107Y6057104D01*
X4985846Y5683770D01*
X5060107Y5310436D01*
X5246693Y5031190D01*
X1968110Y5031190D01*
X1832478Y5166822D01*
X3051810Y5166822D01*
X3135190Y5182511D01*
X3211770Y5231789D01*
X3263144Y5306977D01*
X3281218Y5396230D01*
X3281218Y7095490D01*
X3265529Y7178870D01*
X3216251Y7255450D01*
X3141063Y7306824D01*
X3051810Y7324898D01*
X1652270Y7324898D01*
X1568890Y7309209D01*
X1492310Y7259931D01*
X1440936Y7184743D01*
X1422862Y7095490D01*
X1422862Y5576438D01*
X1264449Y5734851D01*
X1170853Y5797390D01*
X1060449Y5819351D01*
X-198073Y5819351D01*
X-301645Y5798749D01*
X-308477Y5797390D01*
X-402074Y5734851D01*
X-471983Y5664941D01*
X-648162Y5665095D01*
X-648162Y6200951D01*
X74960Y6200951D01*
X109902Y6116386D01*
X174545Y6051629D01*
X259049Y6016540D01*
X350549Y6016460D01*
X435114Y6051402D01*
X499871Y6116045D01*
X534960Y6200549D01*
X535040Y6292049D01*
X500098Y6376614D01*
X435455Y6441371D01*
X350951Y6476460D01*
X259451Y6476540D01*
X174886Y6441598D01*
X110129Y6376955D01*
X75040Y6292451D01*
X74960Y6200951D01*
X-648162Y6200951D01*
X-648162Y6247130D01*
X-663851Y6330510D01*
X-713129Y6407090D01*
X-788317Y6458464D01*
X-877570Y6476538D01*
X-1008262Y6476538D01*
X-1010549Y6476540D01*
X-1010554Y6476538D01*
X-1418590Y6476538D01*
X-1501970Y6460849D01*
X-1578550Y6411571D01*
X-1629924Y6336383D01*
X-1647998Y6247130D01*
X-1647998Y5447030D01*
X-1632309Y5363650D01*
X-1583031Y5287070D01*
X-1507843Y5235696D01*
X-1418590Y5217622D01*
X-1059960Y5217622D01*
X-1059971Y5205116D01*
X-1943295Y5205116D01*
X-2065062Y5327096D01*
X-2248050Y5403079D01*
X-2446187Y5403252D01*
X-2629307Y5327588D01*
X-2769533Y5187607D01*
X-2845516Y5004619D01*
X-2845689Y4806482D01*
X-2787663Y4666048D01*
X-2799955Y4666048D01*
X-2883670Y4682700D01*
X-3459365Y4682700D01*
X-3965600Y5188935D01*
X-3965600Y5829560D01*
X-3893987Y5901048D01*
X-3817637Y6084918D01*
X-3817537Y6200951D01*
X-3735040Y6200951D01*
X-3700098Y6116386D01*
X-3635455Y6051629D01*
X-3550951Y6016540D01*
X-3459451Y6016460D01*
X-3374886Y6051402D01*
X-3310129Y6116045D01*
X-3275040Y6200549D01*
X-3275040Y6200951D01*
X-2465040Y6200951D01*
X-2430098Y6116386D01*
X-2365455Y6051629D01*
X-2280951Y6016540D01*
X-2189451Y6016460D01*
X-2104886Y6051402D01*
X-2040129Y6116045D01*
X-2005040Y6200549D01*
X-2004960Y6292049D01*
X-2039902Y6376614D01*
X-2104545Y6441371D01*
X-2189049Y6476460D01*
X-2280549Y6476540D01*
X-2365114Y6441598D01*
X-2429871Y6376955D01*
X-2464960Y6292451D01*
X-2465040Y6200951D01*
X-3275040Y6200951D01*
X-3274960Y6292049D01*
X-3309902Y6376614D01*
X-3374545Y6441371D01*
X-3459049Y6476460D01*
X-3550549Y6476540D01*
X-3635114Y6441598D01*
X-3699871Y6376955D01*
X-3734960Y6292451D01*
X-3735040Y6200951D01*
X-3817537Y6200951D01*
X-3817464Y6284009D01*
X-3893492Y6468012D01*
X-4034148Y6608913D01*
X-4218018Y6685263D01*
X-4417109Y6685436D01*
X-4601112Y6609408D01*
X-4742013Y6468752D01*
X-4818363Y6284882D01*
X-4818536Y6085791D01*
X-4742508Y5901788D01*
X-4670400Y5829554D01*
X-4670400Y5334211D01*
X-5782658Y5334211D01*
X-5766556Y5357777D01*
X-5748482Y5447030D01*
X-5748482Y6247130D01*
X-5764171Y6330510D01*
X-5813449Y6407090D01*
X-5888637Y6458464D01*
X-5977890Y6476538D01*
X-6518910Y6476538D01*
X-6602290Y6460849D01*
X-6678870Y6411571D01*
X-6730244Y6336383D01*
X-6748318Y6247130D01*
X-6748318Y5447030D01*
X-6732629Y5363650D01*
X-6694783Y5304836D01*
X-6816251Y5223673D01*
X-7207413Y4832511D01*
X-7289223Y4710074D01*
X-7317951Y4565649D01*
X-7317951Y1857270D01*
X-7496712Y1783408D01*
X-7637613Y1642752D01*
X-7713963Y1458882D01*
X-7714021Y1392203D01*
X-8750462Y355762D01*
X-8832272Y233325D01*
X-8861000Y88900D01*
X-8861000Y-2882712D01*
X-8907613Y-2929244D01*
X-8983963Y-3113114D01*
X-8984136Y-3312205D01*
X-8908108Y-3496208D01*
X-8767452Y-3637109D01*
X-8583582Y-3713459D01*
X-8384491Y-3713632D01*
X-8200488Y-3637604D01*
X-8059587Y-3496948D01*
X-7983237Y-3313078D01*
X-7983064Y-3113987D01*
X-8059092Y-2929984D01*
X-8106200Y-2882794D01*
X-8106200Y-2657251D01*
X-5450168Y-2657251D01*
X-5440728Y-2741405D01*
X-5276247Y-2784492D01*
X-5107799Y-2761355D01*
X-5059632Y-2741405D01*
X-5050192Y-2657251D01*
X-4449408Y-2657251D01*
X-4439968Y-2741405D01*
X-4275487Y-2784492D01*
X-4107039Y-2761355D01*
X-4058872Y-2741405D01*
X-4049432Y-2657251D01*
X-3448648Y-2657251D01*
X-3439208Y-2741405D01*
X-3274727Y-2784492D01*
X-3106279Y-2761355D01*
X-3058112Y-2741405D01*
X-3048672Y-2657251D01*
X-3248660Y-2457263D01*
X-3448648Y-2657251D01*
X-4049432Y-2657251D01*
X-4249420Y-2457263D01*
X-4449408Y-2657251D01*
X-5050192Y-2657251D01*
X-5250180Y-2457263D01*
X-5450168Y-2657251D01*
X-8106200Y-2657251D01*
X-8106200Y-2323433D01*
X-5685172Y-2323433D01*
X-5662035Y-2491881D01*
X-5642085Y-2540048D01*
X-5557931Y-2549488D01*
X-5357943Y-2349500D01*
X-5142417Y-2349500D01*
X-4942429Y-2549488D01*
X-4858275Y-2540048D01*
X-4815188Y-2375567D01*
X-4822348Y-2323433D01*
X-4684412Y-2323433D01*
X-4661275Y-2491881D01*
X-4641325Y-2540048D01*
X-4557171Y-2549488D01*
X-4357183Y-2349500D01*
X-4141657Y-2349500D01*
X-3941669Y-2549488D01*
X-3857515Y-2540048D01*
X-3814428Y-2375567D01*
X-3821588Y-2323433D01*
X-3683652Y-2323433D01*
X-3660515Y-2491881D01*
X-3640565Y-2540048D01*
X-3556411Y-2549488D01*
X-3356423Y-2349500D01*
X-3140897Y-2349500D01*
X-2940909Y-2549488D01*
X-2856755Y-2540048D01*
X-2813668Y-2375567D01*
X-2836805Y-2207119D01*
X-2856755Y-2158952D01*
X-2940909Y-2149512D01*
X-3140897Y-2349500D01*
X-3356423Y-2349500D01*
X-3556411Y-2149512D01*
X-3640565Y-2158952D01*
X-3683652Y-2323433D01*
X-3821588Y-2323433D01*
X-3837565Y-2207119D01*
X-3857515Y-2158952D01*
X-3941669Y-2149512D01*
X-4141657Y-2349500D01*
X-4357183Y-2349500D01*
X-4557171Y-2149512D01*
X-4641325Y-2158952D01*
X-4684412Y-2323433D01*
X-4822348Y-2323433D01*
X-4838325Y-2207119D01*
X-4858275Y-2158952D01*
X-4942429Y-2149512D01*
X-5142417Y-2349500D01*
X-5357943Y-2349500D01*
X-5557931Y-2149512D01*
X-5642085Y-2158952D01*
X-5685172Y-2323433D01*
X-8106200Y-2323433D01*
X-8106200Y-2041749D01*
X-5450168Y-2041749D01*
X-5250180Y-2241737D01*
X-5050192Y-2041749D01*
X-4449408Y-2041749D01*
X-4249420Y-2241737D01*
X-4049432Y-2041749D01*
X-3448648Y-2041749D01*
X-3248660Y-2241737D01*
X-3048672Y-2041749D01*
X-3058112Y-1957595D01*
X-3222593Y-1914508D01*
X-3391041Y-1937645D01*
X-3439208Y-1957595D01*
X-3448648Y-2041749D01*
X-4049432Y-2041749D01*
X-4058872Y-1957595D01*
X-4223353Y-1914508D01*
X-4391801Y-1937645D01*
X-4439968Y-1957595D01*
X-4449408Y-2041749D01*
X-5050192Y-2041749D01*
X-5059632Y-1957595D01*
X-5224113Y-1914508D01*
X-5392561Y-1937645D01*
X-5440728Y-1957595D01*
X-5450168Y-2041749D01*
X-8106200Y-2041749D01*
X-8106200Y-1656491D01*
X-5450168Y-1656491D01*
X-5440728Y-1740645D01*
X-5276247Y-1783732D01*
X-5107799Y-1760595D01*
X-5059632Y-1740645D01*
X-5050192Y-1656491D01*
X-4449408Y-1656491D01*
X-4439968Y-1740645D01*
X-4275487Y-1783732D01*
X-4107039Y-1760595D01*
X-4058872Y-1740645D01*
X-4049432Y-1656491D01*
X-3448648Y-1656491D01*
X-3439208Y-1740645D01*
X-3274727Y-1783732D01*
X-3106279Y-1760595D01*
X-3058112Y-1740645D01*
X-3048672Y-1656491D01*
X-3248660Y-1456503D01*
X-3448648Y-1656491D01*
X-4049432Y-1656491D01*
X-4249420Y-1456503D01*
X-4449408Y-1656491D01*
X-5050192Y-1656491D01*
X-5250180Y-1456503D01*
X-5450168Y-1656491D01*
X-8106200Y-1656491D01*
X-8106200Y-1322673D01*
X-5685172Y-1322673D01*
X-5662035Y-1491121D01*
X-5642085Y-1539288D01*
X-5557931Y-1548728D01*
X-5357943Y-1348740D01*
X-5142417Y-1348740D01*
X-4942429Y-1548728D01*
X-4858275Y-1539288D01*
X-4815188Y-1374807D01*
X-4822348Y-1322673D01*
X-4684412Y-1322673D01*
X-4661275Y-1491121D01*
X-4641325Y-1539288D01*
X-4557171Y-1548728D01*
X-4357183Y-1348740D01*
X-4141657Y-1348740D01*
X-3941669Y-1548728D01*
X-3857515Y-1539288D01*
X-3814428Y-1374807D01*
X-3821588Y-1322673D01*
X-3683652Y-1322673D01*
X-3660515Y-1491121D01*
X-3640565Y-1539288D01*
X-3556411Y-1548728D01*
X-3356423Y-1348740D01*
X-3140897Y-1348740D01*
X-2940909Y-1548728D01*
X-2856755Y-1539288D01*
X-2813668Y-1374807D01*
X-2836805Y-1206359D01*
X-2856755Y-1158192D01*
X-2940909Y-1148752D01*
X-3140897Y-1348740D01*
X-3356423Y-1348740D01*
X-3556411Y-1148752D01*
X-3640565Y-1158192D01*
X-3683652Y-1322673D01*
X-3821588Y-1322673D01*
X-3837565Y-1206359D01*
X-3857515Y-1158192D01*
X-3941669Y-1148752D01*
X-4141657Y-1348740D01*
X-4357183Y-1348740D01*
X-4557171Y-1148752D01*
X-4641325Y-1158192D01*
X-4684412Y-1322673D01*
X-4822348Y-1322673D01*
X-4838325Y-1206359D01*
X-4858275Y-1158192D01*
X-4942429Y-1148752D01*
X-5142417Y-1348740D01*
X-5357943Y-1348740D01*
X-5557931Y-1148752D01*
X-5642085Y-1158192D01*
X-5685172Y-1322673D01*
X-8106200Y-1322673D01*
X-8106200Y-1040989D01*
X-5450168Y-1040989D01*
X-5250180Y-1240977D01*
X-5050192Y-1040989D01*
X-4449408Y-1040989D01*
X-4249420Y-1240977D01*
X-4049432Y-1040989D01*
X-3448648Y-1040989D01*
X-3248660Y-1240977D01*
X-3048672Y-1040989D01*
X-3058112Y-956835D01*
X-3222593Y-913748D01*
X-3391041Y-936885D01*
X-3439208Y-956835D01*
X-3448648Y-1040989D01*
X-4049432Y-1040989D01*
X-4058872Y-956835D01*
X-4223353Y-913748D01*
X-4391801Y-936885D01*
X-4439968Y-956835D01*
X-4449408Y-1040989D01*
X-5050192Y-1040989D01*
X-5059632Y-956835D01*
X-5224113Y-913748D01*
X-5392561Y-936885D01*
X-5440728Y-956835D01*
X-5450168Y-1040989D01*
X-8106200Y-1040989D01*
X-8106200Y-655731D01*
X-5450168Y-655731D01*
X-5440728Y-739885D01*
X-5276247Y-782972D01*
X-5107799Y-759835D01*
X-5059632Y-739885D01*
X-5050192Y-655731D01*
X-4449408Y-655731D01*
X-4439968Y-739885D01*
X-4275487Y-782972D01*
X-4107039Y-759835D01*
X-4058872Y-739885D01*
X-4049432Y-655731D01*
X-3448648Y-655731D01*
X-3439208Y-739885D01*
X-3274727Y-782972D01*
X-3106279Y-759835D01*
X-3058112Y-739885D01*
X-3048672Y-655731D01*
X-3248660Y-455743D01*
X-3448648Y-655731D01*
X-4049432Y-655731D01*
X-4249420Y-455743D01*
X-4449408Y-655731D01*
X-5050192Y-655731D01*
X-5250180Y-455743D01*
X-5450168Y-655731D01*
X-8106200Y-655731D01*
X-8106200Y-321913D01*
X-5685172Y-321913D01*
X-5662035Y-490361D01*
X-5642085Y-538528D01*
X-5557931Y-547968D01*
X-5357943Y-347980D01*
X-5142417Y-347980D01*
X-4942429Y-547968D01*
X-4858275Y-538528D01*
X-4815188Y-374047D01*
X-4822348Y-321913D01*
X-4684412Y-321913D01*
X-4661275Y-490361D01*
X-4641325Y-538528D01*
X-4557171Y-547968D01*
X-4357183Y-347980D01*
X-4141657Y-347980D01*
X-3941669Y-547968D01*
X-3857515Y-538528D01*
X-3814428Y-374047D01*
X-3821588Y-321913D01*
X-3683652Y-321913D01*
X-3660515Y-490361D01*
X-3640565Y-538528D01*
X-3556411Y-547968D01*
X-3356423Y-347980D01*
X-3140897Y-347980D01*
X-2940909Y-547968D01*
X-2856755Y-538528D01*
X-2813668Y-374047D01*
X-2836805Y-205599D01*
X-2856755Y-157432D01*
X-2940909Y-147992D01*
X-3140897Y-347980D01*
X-3356423Y-347980D01*
X-3556411Y-147992D01*
X-3640565Y-157432D01*
X-3683652Y-321913D01*
X-3821588Y-321913D01*
X-3837565Y-205599D01*
X-3857515Y-157432D01*
X-3941669Y-147992D01*
X-4141657Y-347980D01*
X-4357183Y-347980D01*
X-4557171Y-147992D01*
X-4641325Y-157432D01*
X-4684412Y-321913D01*
X-4822348Y-321913D01*
X-4838325Y-205599D01*
X-4858275Y-157432D01*
X-4942429Y-147992D01*
X-5142417Y-347980D01*
X-5357943Y-347980D01*
X-5557931Y-147992D01*
X-5642085Y-157432D01*
X-5685172Y-321913D01*
X-8106200Y-321913D01*
X-8106200Y-67424D01*
X-8079005Y-40229D01*
X-5450168Y-40229D01*
X-5250180Y-240217D01*
X-5050192Y-40229D01*
X-4449408Y-40229D01*
X-4249420Y-240217D01*
X-4049432Y-40229D01*
X-3448648Y-40229D01*
X-3248660Y-240217D01*
X-3048672Y-40229D01*
X-3058112Y43925D01*
X-3222593Y87012D01*
X-3391041Y63875D01*
X-3439208Y43925D01*
X-3448648Y-40229D01*
X-4049432Y-40229D01*
X-4058872Y43925D01*
X-4223353Y87012D01*
X-4391801Y63875D01*
X-4439968Y43925D01*
X-4449408Y-40229D01*
X-5050192Y-40229D01*
X-5059632Y43925D01*
X-5224113Y87012D01*
X-5392561Y63875D01*
X-5440728Y43925D01*
X-5450168Y-40229D01*
X-8079005Y-40229D01*
X-7180355Y858421D01*
X-7114491Y858364D01*
X-6930488Y934392D01*
X-6789587Y1075048D01*
X-6713237Y1258918D01*
X-6713179Y1325597D01*
X-6673689Y1365087D01*
X-6591878Y1487525D01*
X-6563151Y1631949D01*
X-6563151Y4409325D01*
X-6393065Y4579411D01*
X-4423524Y4579411D01*
X-3882551Y4038438D01*
X-3760114Y3956628D01*
X-3615689Y3927900D01*
X-2950733Y3927900D01*
X-2867018Y3911248D01*
X-1144019Y3911248D01*
X-1084908Y3768188D01*
X-944252Y3627287D01*
X-760382Y3550937D01*
X-561291Y3550764D01*
X-377288Y3626792D01*
X-330098Y3673900D01*
X835115Y3673900D01*
X882860Y3558347D01*
X1023516Y3417446D01*
X1207386Y3341096D01*
X1214052Y3341090D01*
X1214052Y-827109D01*
X1202900Y-815938D01*
X1202900Y2108198D01*
X1180939Y2218602D01*
X1118400Y2312198D01*
X967869Y2462729D01*
X968034Y2651334D01*
X892370Y2834454D01*
X752389Y2974680D01*
X569401Y3050663D01*
X371264Y3050836D01*
X188144Y2975172D01*
X47918Y2835191D01*
X-28065Y2652203D01*
X-28238Y2454066D01*
X47426Y2270946D01*
X187407Y2130720D01*
X370395Y2054737D01*
X560027Y2054571D01*
X625900Y1988698D01*
X625900Y1395819D01*
X-1482140Y3503860D01*
X-1587578Y3574311D01*
X-1711950Y3599050D01*
X-2871898Y3599050D01*
X-2968709Y3696030D01*
X-3151697Y3772013D01*
X-3349834Y3772186D01*
X-3532954Y3696522D01*
X-3673180Y3556541D01*
X-3749163Y3373553D01*
X-3749163Y3373551D01*
X-3749336Y3175414D01*
X-3673672Y2992294D01*
X-3618994Y2937520D01*
X-3673180Y2883428D01*
X-3749163Y2700440D01*
X-3749163Y2700438D01*
X-3749336Y2502301D01*
X-3673672Y2319181D01*
X-3533691Y2178955D01*
X-3350703Y2102972D01*
X-3152566Y2102799D01*
X-2969446Y2178463D01*
X-2858114Y2289600D01*
X-1795900Y2289600D01*
X-186900Y680599D01*
X-186900Y-4630300D01*
X-1529200Y-5972600D01*
X-3200400Y-5972600D01*
X-3310804Y-5994561D01*
X-3404400Y-6057100D01*
X-3726980Y-6379680D01*
X-3789519Y-6473276D01*
X-3811480Y-6583680D01*
X-3811480Y-6624782D01*
X-3848100Y-6624782D01*
X-3931480Y-6640471D01*
X-4008060Y-6689749D01*
X-4059434Y-6764937D01*
X-4077508Y-6854190D01*
X-4077508Y-7878970D01*
X-4243532Y-7878970D01*
X-4243532Y-6854190D01*
X-4259221Y-6770810D01*
X-4308499Y-6694230D01*
X-4383687Y-6642856D01*
X-4472940Y-6624782D01*
X-4513384Y-6624782D01*
X-4509830Y-5766188D01*
X-4374625Y-5631219D01*
X-4298642Y-5448231D01*
X-4298469Y-5250094D01*
X-4374133Y-5066974D01*
X-4514114Y-4926748D01*
X-4697102Y-4850765D01*
X-4895239Y-4850592D01*
X-4967926Y-4880626D01*
X-3449808Y-3362508D01*
X-1108032Y-3362508D01*
X-974785Y-3495988D01*
X-791797Y-3571971D01*
X-593660Y-3572144D01*
X-410540Y-3496480D01*
X-270314Y-3356499D01*
X-194331Y-3173511D01*
X-194158Y-2975374D01*
X-269822Y-2792254D01*
X-409803Y-2652028D01*
X-592791Y-2576045D01*
X-790928Y-2575872D01*
X-974048Y-2651536D01*
X-1108254Y-2785508D01*
X-3569308Y-2785508D01*
X-3679712Y-2807469D01*
X-3773308Y-2870008D01*
X-5588789Y-4685489D01*
X-5651328Y-4779085D01*
X-5673289Y-4889489D01*
X-5673289Y-5513811D01*
X-5750429Y-5436671D01*
X-5750264Y-5248066D01*
X-5825928Y-5064946D01*
X-5965909Y-4924720D01*
X-6148897Y-4848737D01*
X-6347034Y-4848564D01*
X-6530154Y-4924228D01*
X-6670380Y-5064209D01*
X-6746363Y-5247197D01*
X-6746536Y-5445334D01*
X-6670872Y-5628454D01*
X-6546393Y-5753150D01*
X-6619580Y-5826209D01*
X-6620086Y-5827428D01*
X-6694155Y-5842161D01*
X-6787751Y-5904699D01*
X-6976300Y-6093249D01*
X-10631051Y-6093249D01*
X-10828807Y-5895493D01*
X-10664606Y-5895636D01*
X-10481486Y-5819972D01*
X-10352578Y-5691289D01*
X-10352578Y-5854700D01*
X-10336889Y-5938080D01*
X-10287611Y-6014660D01*
X-10212423Y-6066034D01*
X-10123170Y-6084108D01*
X-9673590Y-6084108D01*
X-9590210Y-6068419D01*
X-9513630Y-6019141D01*
X-9462256Y-5943953D01*
X-9444182Y-5854700D01*
X-9444182Y-4554220D01*
X-9459871Y-4470840D01*
X-9509149Y-4394260D01*
X-9584337Y-4342886D01*
X-9673590Y-4324812D01*
X-10123170Y-4324812D01*
X-10206550Y-4340501D01*
X-10283130Y-4389779D01*
X-10334504Y-4464967D01*
X-10352578Y-4554220D01*
X-10352578Y-5103915D01*
X-10480749Y-4975520D01*
X-10663737Y-4899537D01*
X-10861874Y-4899364D01*
X-10938300Y-4930943D01*
X-10938300Y-3485000D01*
X-10352578Y-2899279D01*
X-10352578Y-3853180D01*
X-10336889Y-3936560D01*
X-10287611Y-4013140D01*
X-10212423Y-4064514D01*
X-10123170Y-4082588D01*
X-9673590Y-4082588D01*
X-9590210Y-4066899D01*
X-9513630Y-4017621D01*
X-9462256Y-3942433D01*
X-9444182Y-3853180D01*
X-9444182Y-2552700D01*
X-9459871Y-2469320D01*
X-9509149Y-2392740D01*
X-9584337Y-2341366D01*
X-9673590Y-2323292D01*
X-10115117Y-2323292D01*
X-10099402Y-2245690D01*
X-10099402Y-1745310D01*
X-10115091Y-1661930D01*
X-10164369Y-1585350D01*
X-10239557Y-1533976D01*
X-10328810Y-1515902D01*
X-10778390Y-1515902D01*
X-10861770Y-1531591D01*
X-10938350Y-1580869D01*
X-10959827Y-1612301D01*
X-10977169Y-1585350D01*
X-11052357Y-1533976D01*
X-11141610Y-1515902D01*
X-11591190Y-1515902D01*
X-11674570Y-1531591D01*
X-11751150Y-1580869D01*
X-11802524Y-1656057D01*
X-11820598Y-1745310D01*
X-11820598Y-2245690D01*
X-11804909Y-2329070D01*
X-11755631Y-2405650D01*
X-11680443Y-2457024D01*
X-11654900Y-2462197D01*
X-11654900Y-2725200D01*
X-11735600Y-2805900D01*
X-11798139Y-2899496D01*
X-11820100Y-3009900D01*
X-11820100Y-6057900D01*
X-11798139Y-6168304D01*
X-11735600Y-6261900D01*
X-11018060Y-6979440D01*
X-10924464Y-7041979D01*
X-10814060Y-7063940D01*
X-6762740Y-7063940D01*
X-6652336Y-7041979D01*
X-6627668Y-7025496D01*
X-6627668Y-7878970D01*
X-12000470Y-7878970D01*
X-12000470Y-221310D01*
X-11871577Y-221310D01*
X-11871577Y-721690D01*
X-11852402Y-823599D01*
X-11792174Y-917196D01*
X-11700276Y-979986D01*
X-11591190Y-1002077D01*
X-11141610Y-1002077D01*
X-11039701Y-982902D01*
X-10959109Y-931042D01*
X-10887476Y-979986D01*
X-10778390Y-1002077D01*
X-10328810Y-1002077D01*
X-10226901Y-982902D01*
X-10133304Y-922674D01*
X-10070514Y-830776D01*
X-10048423Y-721690D01*
X-10048423Y-221310D01*
X-10067598Y-119401D01*
X-10127826Y-25804D01*
X-10219724Y36986D01*
X-10328810Y59077D01*
X-10778390Y59077D01*
X-10880299Y39902D01*
X-10960891Y-11958D01*
X-11032524Y36986D01*
X-11141610Y59077D01*
X-11591190Y59077D01*
X-11693099Y39902D01*
X-11786696Y-20326D01*
X-11849486Y-112224D01*
X-11871577Y-221310D01*
X-12000470Y-221310D01*
X-12000470Y7197090D01*
X-10776758Y7197090D01*
X-10776758Y5497830D01*
X-10761069Y5414450D01*
X-10711791Y5337870D01*
X-10636603Y5286496D01*
X-10547350Y5268422D01*
X-9147810Y5268422D01*
X-9064430Y5284111D01*
X-8987850Y5333389D01*
X-8936476Y5408577D01*
X-8918402Y5497830D01*
X-8918402Y7197090D01*
X-8934091Y7280470D01*
X-8983369Y7357050D01*
X-9058557Y7408424D01*
X-9147810Y7426498D01*
X-10547350Y7426498D01*
X-10630730Y7410809D01*
X-10707310Y7361531D01*
X-10758684Y7286343D01*
X-10776758Y7197090D01*
X-12000470Y7197090D01*
X-12000470Y7846970D01*
X3375470Y7846970D01*
X3375470Y7096500D01*
X3375470Y7096500D01*
G37*
X3375470Y7096500D02*
X3396367Y6991442D01*
X3455878Y6902378D01*
X3544942Y6842867D01*
X3650000Y6821970D01*
X4350000Y6821970D01*
X4455058Y6842867D01*
X4544122Y6902378D01*
X4603633Y6991442D01*
X4624530Y7096500D01*
X4624530Y7846970D01*
X9225070Y7846970D01*
X9225070Y-7878970D01*
X4624530Y-7878970D01*
X4624530Y-7103500D01*
X4603633Y-6998442D01*
X4544122Y-6909378D01*
X4455058Y-6849867D01*
X4350000Y-6828970D01*
X3650000Y-6828970D01*
X3544942Y-6849867D01*
X3455878Y-6909378D01*
X3396367Y-6998442D01*
X3375470Y-7103500D01*
X3375470Y-7878970D01*
X882367Y-7878970D01*
X882367Y-7514500D01*
X361860Y-7514500D01*
X361860Y-7534500D01*
X191860Y-7534500D01*
X191860Y-7514500D01*
X-328647Y-7514500D01*
X-328647Y-7878970D01*
X-418292Y-7878970D01*
X-418292Y-6854190D01*
X-328647Y-6854190D01*
X-328647Y-7344500D01*
X191860Y-7344500D01*
X191860Y-6573803D01*
X361860Y-6573803D01*
X361860Y-7344500D01*
X882367Y-7344500D01*
X882367Y-6854190D01*
X863192Y-6752281D01*
X802964Y-6658684D01*
X711066Y-6595894D01*
X601980Y-6573803D01*
X361860Y-6573803D01*
X191860Y-6573803D01*
X-48260Y-6573803D01*
X-150169Y-6592978D01*
X-243766Y-6653206D01*
X-306556Y-6745104D01*
X-328647Y-6854190D01*
X-418292Y-6854190D01*
X-433981Y-6770810D01*
X-483259Y-6694230D01*
X-558447Y-6642856D01*
X-647700Y-6624782D01*
X-647820Y-6624782D01*
X-647820Y-6461390D01*
X636207Y-5177362D01*
X636210Y-5177360D01*
X706661Y-5071922D01*
X708987Y-5060228D01*
X731401Y-4947550D01*
X731400Y-4947545D01*
X731400Y-4840141D01*
X831878Y-4881863D01*
X1030969Y-4882036D01*
X1214972Y-4806008D01*
X1355873Y-4665352D01*
X1402019Y-4554220D01*
X1946102Y-4554220D01*
X1946102Y-5854700D01*
X1961791Y-5938080D01*
X2011069Y-6014660D01*
X2086257Y-6066034D01*
X2175510Y-6084108D01*
X2625090Y-6084108D01*
X2708470Y-6068419D01*
X2785050Y-6019141D01*
X2836424Y-5943953D01*
X2854498Y-5854700D01*
X2854498Y-5715750D01*
X4985846Y-5715750D01*
X5060107Y-6089084D01*
X5271584Y-6405582D01*
X5588082Y-6617059D01*
X5961416Y-6691320D01*
X8037784Y-6691320D01*
X8411118Y-6617059D01*
X8727616Y-6405582D01*
X8939093Y-6089084D01*
X9013354Y-5715750D01*
X8939093Y-5342416D01*
X8727616Y-5025918D01*
X8411118Y-4814441D01*
X8037784Y-4740180D01*
X5961416Y-4740180D01*
X5588082Y-4814441D01*
X5271584Y-5025918D01*
X5060107Y-5342416D01*
X4985846Y-5715750D01*
X2854498Y-5715750D01*
X2854498Y-4554220D01*
X2838809Y-4470840D01*
X2789531Y-4394260D01*
X2714343Y-4342886D01*
X2625090Y-4324812D01*
X2175510Y-4324812D01*
X2092130Y-4340501D01*
X2015550Y-4389779D01*
X1964176Y-4464967D01*
X1946102Y-4554220D01*
X1402019Y-4554220D01*
X1432223Y-4481482D01*
X1432281Y-4414803D01*
X1858314Y-3988770D01*
X1940124Y-3866333D01*
X1946102Y-3836280D01*
X1946102Y-3853180D01*
X1961791Y-3936560D01*
X2011069Y-4013140D01*
X2086257Y-4064514D01*
X2175510Y-4082588D01*
X2625090Y-4082588D01*
X2708470Y-4066899D01*
X2785050Y-4017621D01*
X2836424Y-3942433D01*
X2854498Y-3853180D01*
X2854498Y-2552700D01*
X2838809Y-2469320D01*
X2789531Y-2392740D01*
X2714343Y-2341366D01*
X2625090Y-2323292D01*
X2175510Y-2323292D01*
X2092130Y-2338981D01*
X2015550Y-2388259D01*
X1968852Y-2456603D01*
X1968852Y2200815D01*
X2149589Y2125767D01*
X2347726Y2125594D01*
X2530846Y2201258D01*
X2671072Y2341239D01*
X2747055Y2524227D01*
X2747228Y2722364D01*
X2671564Y2905484D01*
X2531583Y3045710D01*
X2348595Y3121693D01*
X2276043Y3121756D01*
X2276043Y3330380D01*
X3324530Y3330380D01*
X3324530Y2829989D01*
X3366396Y2728915D01*
X3443755Y2651556D01*
X3544829Y2609690D01*
X4445270Y2609690D01*
X4514020Y2678440D01*
X4514020Y3399130D01*
X3393280Y3399130D01*
X3324530Y3330380D01*
X2276043Y3330380D01*
X2276043Y3880545D01*
X2253207Y3995350D01*
X2204931Y4067600D01*
X3324530Y4067600D01*
X3324530Y3637880D01*
X3393280Y3569130D01*
X4514020Y3569130D01*
X4514020Y3589130D01*
X4684020Y3589130D01*
X4684020Y3569130D01*
X4704020Y3569130D01*
X4704020Y3399130D01*
X4684020Y3399130D01*
X4684020Y2678440D01*
X4752770Y2609690D01*
X5653211Y2609690D01*
X5655100Y2610472D01*
X5655100Y1817398D01*
X5598510Y1828858D01*
X3599530Y1828858D01*
X3516150Y1813169D01*
X3439570Y1763891D01*
X3388196Y1688703D01*
X3370122Y1599450D01*
X3370122Y1385491D01*
X3279691Y1476080D01*
X3096703Y1552063D01*
X2898566Y1552236D01*
X2715446Y1476572D01*
X2575220Y1336591D01*
X2499237Y1153603D01*
X2499178Y1086408D01*
X2458986Y1046216D01*
X2377696Y924558D01*
X2350719Y788935D01*
X2349151Y781051D01*
X2349151Y-870727D01*
X2321220Y-898609D01*
X2245237Y-1081597D01*
X2245064Y-1279734D01*
X2320728Y-1462854D01*
X2460709Y-1603080D01*
X2643697Y-1679063D01*
X2841834Y-1679236D01*
X3024954Y-1603572D01*
X3165180Y-1463591D01*
X3241163Y-1280603D01*
X3241336Y-1082466D01*
X3165672Y-899346D01*
X3099151Y-832709D01*
X3099151Y-377689D01*
X3174708Y-409063D01*
X3183290Y-409070D01*
X3370122Y-595902D01*
X3370122Y-1616190D01*
X3385811Y-1699570D01*
X3435089Y-1776150D01*
X3510277Y-1827524D01*
X3599530Y-1845598D01*
X4310520Y-1845598D01*
X4310520Y-1855812D01*
X4251620Y-1914609D01*
X4175637Y-2097597D01*
X4175464Y-2295734D01*
X4251128Y-2478854D01*
X4391109Y-2619080D01*
X4555310Y-2687262D01*
X3599530Y-2687262D01*
X3516150Y-2702951D01*
X3439570Y-2752229D01*
X3388196Y-2827417D01*
X3370122Y-2916670D01*
X3370122Y-4115550D01*
X3385811Y-4198930D01*
X3435089Y-4275510D01*
X3510277Y-4326884D01*
X3599530Y-4344958D01*
X4224020Y-4344958D01*
X4224020Y-4380650D01*
X4200820Y-4403809D01*
X4124837Y-4586797D01*
X4124664Y-4784934D01*
X4200328Y-4968054D01*
X4340309Y-5108280D01*
X4523297Y-5184263D01*
X4721434Y-5184436D01*
X4904554Y-5108772D01*
X5044780Y-4968791D01*
X5120763Y-4785803D01*
X5120936Y-4587666D01*
X5045272Y-4404546D01*
X4985788Y-4344958D01*
X5598510Y-4344958D01*
X5681890Y-4329269D01*
X5758470Y-4279991D01*
X5809844Y-4204803D01*
X5827918Y-4115550D01*
X5827918Y-2916670D01*
X5812229Y-2833290D01*
X5762951Y-2756710D01*
X5687763Y-2705336D01*
X5598510Y-2687262D01*
X4791532Y-2687262D01*
X4955354Y-2619572D01*
X5095580Y-2479591D01*
X5120368Y-2419893D01*
X6224556Y-2419893D01*
X6342281Y-2704808D01*
X6560076Y-2922983D01*
X6844785Y-3041205D01*
X7153063Y-3041474D01*
X7437978Y-2923749D01*
X7656153Y-2705954D01*
X7774375Y-2421245D01*
X7774644Y-2112967D01*
X7656919Y-1828052D01*
X7439124Y-1609877D01*
X7154415Y-1491655D01*
X6846137Y-1491386D01*
X6561222Y-1609111D01*
X6343047Y-1826906D01*
X6224825Y-2111615D01*
X6224556Y-2419893D01*
X5120368Y-2419893D01*
X5171563Y-2296603D01*
X5171736Y-2098466D01*
X5096072Y-1915346D01*
X5026446Y-1845598D01*
X5598510Y-1845598D01*
X5681890Y-1829909D01*
X5758470Y-1780631D01*
X5809844Y-1705443D01*
X5827918Y-1616190D01*
X5827918Y-417310D01*
X5812229Y-333930D01*
X5762951Y-257350D01*
X5687763Y-205976D01*
X5598510Y-187902D01*
X3778122Y-187902D01*
X3721899Y-131679D01*
X3772174Y-10603D01*
X3772333Y171162D01*
X5598510Y171162D01*
X5681890Y186851D01*
X5758470Y236129D01*
X5809844Y311317D01*
X5827918Y400570D01*
X5827918Y406182D01*
X6461629Y-227530D01*
X6461464Y-416134D01*
X6537128Y-599254D01*
X6677109Y-739480D01*
X6860097Y-815463D01*
X7058234Y-815636D01*
X7241354Y-739972D01*
X7381580Y-599991D01*
X7457563Y-417003D01*
X7457736Y-218866D01*
X7382072Y-35746D01*
X7282949Y63550D01*
X7381580Y162009D01*
X7457563Y344997D01*
X7457736Y543134D01*
X7382072Y726254D01*
X7242091Y866480D01*
X7059103Y942463D01*
X6869471Y942629D01*
X6536900Y1275200D01*
X6536900Y1601113D01*
X6560076Y1577897D01*
X6844785Y1459675D01*
X7153063Y1459406D01*
X7437978Y1577131D01*
X7656153Y1794926D01*
X7774375Y2079635D01*
X7774644Y2387913D01*
X7656919Y2672828D01*
X7439124Y2891003D01*
X7154415Y3009225D01*
X6846137Y3009494D01*
X6561222Y2891769D01*
X6536900Y2867489D01*
X6536900Y4258125D01*
X6514939Y4368529D01*
X6452400Y4462125D01*
X6206325Y4708200D01*
X8037784Y4708200D01*
X8411118Y4782461D01*
X8727616Y4993938D01*
X8939093Y5310436D01*
X9013354Y5683770D01*
X8939093Y6057104D01*
X8727616Y6373602D01*
X8411118Y6585079D01*
X8037784Y6659340D01*
X5961416Y6659340D01*
X5588082Y6585079D01*
X5271584Y6373602D01*
X5060107Y6057104D01*
X4985846Y5683770D01*
X5060107Y5310436D01*
X5246693Y5031190D01*
X1968110Y5031190D01*
X1832478Y5166822D01*
X3051810Y5166822D01*
X3135190Y5182511D01*
X3211770Y5231789D01*
X3263144Y5306977D01*
X3281218Y5396230D01*
X3281218Y7095490D01*
X3265529Y7178870D01*
X3216251Y7255450D01*
X3141063Y7306824D01*
X3051810Y7324898D01*
X1652270Y7324898D01*
X1568890Y7309209D01*
X1492310Y7259931D01*
X1440936Y7184743D01*
X1422862Y7095490D01*
X1422862Y5576438D01*
X1264449Y5734851D01*
X1170853Y5797390D01*
X1060449Y5819351D01*
X-198073Y5819351D01*
X-301645Y5798749D01*
X-308477Y5797390D01*
X-402074Y5734851D01*
X-471983Y5664941D01*
X-648162Y5665095D01*
X-648162Y6200951D01*
X74960Y6200951D01*
X109902Y6116386D01*
X174545Y6051629D01*
X259049Y6016540D01*
X350549Y6016460D01*
X435114Y6051402D01*
X499871Y6116045D01*
X534960Y6200549D01*
X535040Y6292049D01*
X500098Y6376614D01*
X435455Y6441371D01*
X350951Y6476460D01*
X259451Y6476540D01*
X174886Y6441598D01*
X110129Y6376955D01*
X75040Y6292451D01*
X74960Y6200951D01*
X-648162Y6200951D01*
X-648162Y6247130D01*
X-663851Y6330510D01*
X-713129Y6407090D01*
X-788317Y6458464D01*
X-877570Y6476538D01*
X-1008262Y6476538D01*
X-1010549Y6476540D01*
X-1010554Y6476538D01*
X-1418590Y6476538D01*
X-1501970Y6460849D01*
X-1578550Y6411571D01*
X-1629924Y6336383D01*
X-1647998Y6247130D01*
X-1647998Y5447030D01*
X-1632309Y5363650D01*
X-1583031Y5287070D01*
X-1507843Y5235696D01*
X-1418590Y5217622D01*
X-1059960Y5217622D01*
X-1059971Y5205116D01*
X-1943295Y5205116D01*
X-2065062Y5327096D01*
X-2248050Y5403079D01*
X-2446187Y5403252D01*
X-2629307Y5327588D01*
X-2769533Y5187607D01*
X-2845516Y5004619D01*
X-2845689Y4806482D01*
X-2787663Y4666048D01*
X-2799955Y4666048D01*
X-2883670Y4682700D01*
X-3459365Y4682700D01*
X-3965600Y5188935D01*
X-3965600Y5829560D01*
X-3893987Y5901048D01*
X-3817637Y6084918D01*
X-3817537Y6200951D01*
X-3735040Y6200951D01*
X-3700098Y6116386D01*
X-3635455Y6051629D01*
X-3550951Y6016540D01*
X-3459451Y6016460D01*
X-3374886Y6051402D01*
X-3310129Y6116045D01*
X-3275040Y6200549D01*
X-3275040Y6200951D01*
X-2465040Y6200951D01*
X-2430098Y6116386D01*
X-2365455Y6051629D01*
X-2280951Y6016540D01*
X-2189451Y6016460D01*
X-2104886Y6051402D01*
X-2040129Y6116045D01*
X-2005040Y6200549D01*
X-2004960Y6292049D01*
X-2039902Y6376614D01*
X-2104545Y6441371D01*
X-2189049Y6476460D01*
X-2280549Y6476540D01*
X-2365114Y6441598D01*
X-2429871Y6376955D01*
X-2464960Y6292451D01*
X-2465040Y6200951D01*
X-3275040Y6200951D01*
X-3274960Y6292049D01*
X-3309902Y6376614D01*
X-3374545Y6441371D01*
X-3459049Y6476460D01*
X-3550549Y6476540D01*
X-3635114Y6441598D01*
X-3699871Y6376955D01*
X-3734960Y6292451D01*
X-3735040Y6200951D01*
X-3817537Y6200951D01*
X-3817464Y6284009D01*
X-3893492Y6468012D01*
X-4034148Y6608913D01*
X-4218018Y6685263D01*
X-4417109Y6685436D01*
X-4601112Y6609408D01*
X-4742013Y6468752D01*
X-4818363Y6284882D01*
X-4818536Y6085791D01*
X-4742508Y5901788D01*
X-4670400Y5829554D01*
X-4670400Y5334211D01*
X-5782658Y5334211D01*
X-5766556Y5357777D01*
X-5748482Y5447030D01*
X-5748482Y6247130D01*
X-5764171Y6330510D01*
X-5813449Y6407090D01*
X-5888637Y6458464D01*
X-5977890Y6476538D01*
X-6518910Y6476538D01*
X-6602290Y6460849D01*
X-6678870Y6411571D01*
X-6730244Y6336383D01*
X-6748318Y6247130D01*
X-6748318Y5447030D01*
X-6732629Y5363650D01*
X-6694783Y5304836D01*
X-6816251Y5223673D01*
X-7207413Y4832511D01*
X-7289223Y4710074D01*
X-7317951Y4565649D01*
X-7317951Y1857270D01*
X-7496712Y1783408D01*
X-7637613Y1642752D01*
X-7713963Y1458882D01*
X-7714021Y1392203D01*
X-8750462Y355762D01*
X-8832272Y233325D01*
X-8861000Y88900D01*
X-8861000Y-2882712D01*
X-8907613Y-2929244D01*
X-8983963Y-3113114D01*
X-8984136Y-3312205D01*
X-8908108Y-3496208D01*
X-8767452Y-3637109D01*
X-8583582Y-3713459D01*
X-8384491Y-3713632D01*
X-8200488Y-3637604D01*
X-8059587Y-3496948D01*
X-7983237Y-3313078D01*
X-7983064Y-3113987D01*
X-8059092Y-2929984D01*
X-8106200Y-2882794D01*
X-8106200Y-2657251D01*
X-5450168Y-2657251D01*
X-5440728Y-2741405D01*
X-5276247Y-2784492D01*
X-5107799Y-2761355D01*
X-5059632Y-2741405D01*
X-5050192Y-2657251D01*
X-4449408Y-2657251D01*
X-4439968Y-2741405D01*
X-4275487Y-2784492D01*
X-4107039Y-2761355D01*
X-4058872Y-2741405D01*
X-4049432Y-2657251D01*
X-3448648Y-2657251D01*
X-3439208Y-2741405D01*
X-3274727Y-2784492D01*
X-3106279Y-2761355D01*
X-3058112Y-2741405D01*
X-3048672Y-2657251D01*
X-3248660Y-2457263D01*
X-3448648Y-2657251D01*
X-4049432Y-2657251D01*
X-4249420Y-2457263D01*
X-4449408Y-2657251D01*
X-5050192Y-2657251D01*
X-5250180Y-2457263D01*
X-5450168Y-2657251D01*
X-8106200Y-2657251D01*
X-8106200Y-2323433D01*
X-5685172Y-2323433D01*
X-5662035Y-2491881D01*
X-5642085Y-2540048D01*
X-5557931Y-2549488D01*
X-5357943Y-2349500D01*
X-5142417Y-2349500D01*
X-4942429Y-2549488D01*
X-4858275Y-2540048D01*
X-4815188Y-2375567D01*
X-4822348Y-2323433D01*
X-4684412Y-2323433D01*
X-4661275Y-2491881D01*
X-4641325Y-2540048D01*
X-4557171Y-2549488D01*
X-4357183Y-2349500D01*
X-4141657Y-2349500D01*
X-3941669Y-2549488D01*
X-3857515Y-2540048D01*
X-3814428Y-2375567D01*
X-3821588Y-2323433D01*
X-3683652Y-2323433D01*
X-3660515Y-2491881D01*
X-3640565Y-2540048D01*
X-3556411Y-2549488D01*
X-3356423Y-2349500D01*
X-3140897Y-2349500D01*
X-2940909Y-2549488D01*
X-2856755Y-2540048D01*
X-2813668Y-2375567D01*
X-2836805Y-2207119D01*
X-2856755Y-2158952D01*
X-2940909Y-2149512D01*
X-3140897Y-2349500D01*
X-3356423Y-2349500D01*
X-3556411Y-2149512D01*
X-3640565Y-2158952D01*
X-3683652Y-2323433D01*
X-3821588Y-2323433D01*
X-3837565Y-2207119D01*
X-3857515Y-2158952D01*
X-3941669Y-2149512D01*
X-4141657Y-2349500D01*
X-4357183Y-2349500D01*
X-4557171Y-2149512D01*
X-4641325Y-2158952D01*
X-4684412Y-2323433D01*
X-4822348Y-2323433D01*
X-4838325Y-2207119D01*
X-4858275Y-2158952D01*
X-4942429Y-2149512D01*
X-5142417Y-2349500D01*
X-5357943Y-2349500D01*
X-5557931Y-2149512D01*
X-5642085Y-2158952D01*
X-5685172Y-2323433D01*
X-8106200Y-2323433D01*
X-8106200Y-2041749D01*
X-5450168Y-2041749D01*
X-5250180Y-2241737D01*
X-5050192Y-2041749D01*
X-4449408Y-2041749D01*
X-4249420Y-2241737D01*
X-4049432Y-2041749D01*
X-3448648Y-2041749D01*
X-3248660Y-2241737D01*
X-3048672Y-2041749D01*
X-3058112Y-1957595D01*
X-3222593Y-1914508D01*
X-3391041Y-1937645D01*
X-3439208Y-1957595D01*
X-3448648Y-2041749D01*
X-4049432Y-2041749D01*
X-4058872Y-1957595D01*
X-4223353Y-1914508D01*
X-4391801Y-1937645D01*
X-4439968Y-1957595D01*
X-4449408Y-2041749D01*
X-5050192Y-2041749D01*
X-5059632Y-1957595D01*
X-5224113Y-1914508D01*
X-5392561Y-1937645D01*
X-5440728Y-1957595D01*
X-5450168Y-2041749D01*
X-8106200Y-2041749D01*
X-8106200Y-1656491D01*
X-5450168Y-1656491D01*
X-5440728Y-1740645D01*
X-5276247Y-1783732D01*
X-5107799Y-1760595D01*
X-5059632Y-1740645D01*
X-5050192Y-1656491D01*
X-4449408Y-1656491D01*
X-4439968Y-1740645D01*
X-4275487Y-1783732D01*
X-4107039Y-1760595D01*
X-4058872Y-1740645D01*
X-4049432Y-1656491D01*
X-3448648Y-1656491D01*
X-3439208Y-1740645D01*
X-3274727Y-1783732D01*
X-3106279Y-1760595D01*
X-3058112Y-1740645D01*
X-3048672Y-1656491D01*
X-3248660Y-1456503D01*
X-3448648Y-1656491D01*
X-4049432Y-1656491D01*
X-4249420Y-1456503D01*
X-4449408Y-1656491D01*
X-5050192Y-1656491D01*
X-5250180Y-1456503D01*
X-5450168Y-1656491D01*
X-8106200Y-1656491D01*
X-8106200Y-1322673D01*
X-5685172Y-1322673D01*
X-5662035Y-1491121D01*
X-5642085Y-1539288D01*
X-5557931Y-1548728D01*
X-5357943Y-1348740D01*
X-5142417Y-1348740D01*
X-4942429Y-1548728D01*
X-4858275Y-1539288D01*
X-4815188Y-1374807D01*
X-4822348Y-1322673D01*
X-4684412Y-1322673D01*
X-4661275Y-1491121D01*
X-4641325Y-1539288D01*
X-4557171Y-1548728D01*
X-4357183Y-1348740D01*
X-4141657Y-1348740D01*
X-3941669Y-1548728D01*
X-3857515Y-1539288D01*
X-3814428Y-1374807D01*
X-3821588Y-1322673D01*
X-3683652Y-1322673D01*
X-3660515Y-1491121D01*
X-3640565Y-1539288D01*
X-3556411Y-1548728D01*
X-3356423Y-1348740D01*
X-3140897Y-1348740D01*
X-2940909Y-1548728D01*
X-2856755Y-1539288D01*
X-2813668Y-1374807D01*
X-2836805Y-1206359D01*
X-2856755Y-1158192D01*
X-2940909Y-1148752D01*
X-3140897Y-1348740D01*
X-3356423Y-1348740D01*
X-3556411Y-1148752D01*
X-3640565Y-1158192D01*
X-3683652Y-1322673D01*
X-3821588Y-1322673D01*
X-3837565Y-1206359D01*
X-3857515Y-1158192D01*
X-3941669Y-1148752D01*
X-4141657Y-1348740D01*
X-4357183Y-1348740D01*
X-4557171Y-1148752D01*
X-4641325Y-1158192D01*
X-4684412Y-1322673D01*
X-4822348Y-1322673D01*
X-4838325Y-1206359D01*
X-4858275Y-1158192D01*
X-4942429Y-1148752D01*
X-5142417Y-1348740D01*
X-5357943Y-1348740D01*
X-5557931Y-1148752D01*
X-5642085Y-1158192D01*
X-5685172Y-1322673D01*
X-8106200Y-1322673D01*
X-8106200Y-1040989D01*
X-5450168Y-1040989D01*
X-5250180Y-1240977D01*
X-5050192Y-1040989D01*
X-4449408Y-1040989D01*
X-4249420Y-1240977D01*
X-4049432Y-1040989D01*
X-3448648Y-1040989D01*
X-3248660Y-1240977D01*
X-3048672Y-1040989D01*
X-3058112Y-956835D01*
X-3222593Y-913748D01*
X-3391041Y-936885D01*
X-3439208Y-956835D01*
X-3448648Y-1040989D01*
X-4049432Y-1040989D01*
X-4058872Y-956835D01*
X-4223353Y-913748D01*
X-4391801Y-936885D01*
X-4439968Y-956835D01*
X-4449408Y-1040989D01*
X-5050192Y-1040989D01*
X-5059632Y-956835D01*
X-5224113Y-913748D01*
X-5392561Y-936885D01*
X-5440728Y-956835D01*
X-5450168Y-1040989D01*
X-8106200Y-1040989D01*
X-8106200Y-655731D01*
X-5450168Y-655731D01*
X-5440728Y-739885D01*
X-5276247Y-782972D01*
X-5107799Y-759835D01*
X-5059632Y-739885D01*
X-5050192Y-655731D01*
X-4449408Y-655731D01*
X-4439968Y-739885D01*
X-4275487Y-782972D01*
X-4107039Y-759835D01*
X-4058872Y-739885D01*
X-4049432Y-655731D01*
X-3448648Y-655731D01*
X-3439208Y-739885D01*
X-3274727Y-782972D01*
X-3106279Y-759835D01*
X-3058112Y-739885D01*
X-3048672Y-655731D01*
X-3248660Y-455743D01*
X-3448648Y-655731D01*
X-4049432Y-655731D01*
X-4249420Y-455743D01*
X-4449408Y-655731D01*
X-5050192Y-655731D01*
X-5250180Y-455743D01*
X-5450168Y-655731D01*
X-8106200Y-655731D01*
X-8106200Y-321913D01*
X-5685172Y-321913D01*
X-5662035Y-490361D01*
X-5642085Y-538528D01*
X-5557931Y-547968D01*
X-5357943Y-347980D01*
X-5142417Y-347980D01*
X-4942429Y-547968D01*
X-4858275Y-538528D01*
X-4815188Y-374047D01*
X-4822348Y-321913D01*
X-4684412Y-321913D01*
X-4661275Y-490361D01*
X-4641325Y-538528D01*
X-4557171Y-547968D01*
X-4357183Y-347980D01*
X-4141657Y-347980D01*
X-3941669Y-547968D01*
X-3857515Y-538528D01*
X-3814428Y-374047D01*
X-3821588Y-321913D01*
X-3683652Y-321913D01*
X-3660515Y-490361D01*
X-3640565Y-538528D01*
X-3556411Y-547968D01*
X-3356423Y-347980D01*
X-3140897Y-347980D01*
X-2940909Y-547968D01*
X-2856755Y-538528D01*
X-2813668Y-374047D01*
X-2836805Y-205599D01*
X-2856755Y-157432D01*
X-2940909Y-147992D01*
X-3140897Y-347980D01*
X-3356423Y-347980D01*
X-3556411Y-147992D01*
X-3640565Y-157432D01*
X-3683652Y-321913D01*
X-3821588Y-321913D01*
X-3837565Y-205599D01*
X-3857515Y-157432D01*
X-3941669Y-147992D01*
X-4141657Y-347980D01*
X-4357183Y-347980D01*
X-4557171Y-147992D01*
X-4641325Y-157432D01*
X-4684412Y-321913D01*
X-4822348Y-321913D01*
X-4838325Y-205599D01*
X-4858275Y-157432D01*
X-4942429Y-147992D01*
X-5142417Y-347980D01*
X-5357943Y-347980D01*
X-5557931Y-147992D01*
X-5642085Y-157432D01*
X-5685172Y-321913D01*
X-8106200Y-321913D01*
X-8106200Y-67424D01*
X-8079005Y-40229D01*
X-5450168Y-40229D01*
X-5250180Y-240217D01*
X-5050192Y-40229D01*
X-4449408Y-40229D01*
X-4249420Y-240217D01*
X-4049432Y-40229D01*
X-3448648Y-40229D01*
X-3248660Y-240217D01*
X-3048672Y-40229D01*
X-3058112Y43925D01*
X-3222593Y87012D01*
X-3391041Y63875D01*
X-3439208Y43925D01*
X-3448648Y-40229D01*
X-4049432Y-40229D01*
X-4058872Y43925D01*
X-4223353Y87012D01*
X-4391801Y63875D01*
X-4439968Y43925D01*
X-4449408Y-40229D01*
X-5050192Y-40229D01*
X-5059632Y43925D01*
X-5224113Y87012D01*
X-5392561Y63875D01*
X-5440728Y43925D01*
X-5450168Y-40229D01*
X-8079005Y-40229D01*
X-7180355Y858421D01*
X-7114491Y858364D01*
X-6930488Y934392D01*
X-6789587Y1075048D01*
X-6713237Y1258918D01*
X-6713179Y1325597D01*
X-6673689Y1365087D01*
X-6591878Y1487525D01*
X-6563151Y1631949D01*
X-6563151Y4409325D01*
X-6393065Y4579411D01*
X-4423524Y4579411D01*
X-3882551Y4038438D01*
X-3760114Y3956628D01*
X-3615689Y3927900D01*
X-2950733Y3927900D01*
X-2867018Y3911248D01*
X-1144019Y3911248D01*
X-1084908Y3768188D01*
X-944252Y3627287D01*
X-760382Y3550937D01*
X-561291Y3550764D01*
X-377288Y3626792D01*
X-330098Y3673900D01*
X835115Y3673900D01*
X882860Y3558347D01*
X1023516Y3417446D01*
X1207386Y3341096D01*
X1214052Y3341090D01*
X1214052Y-827109D01*
X1202900Y-815938D01*
X1202900Y2108198D01*
X1180939Y2218602D01*
X1118400Y2312198D01*
X967869Y2462729D01*
X968034Y2651334D01*
X892370Y2834454D01*
X752389Y2974680D01*
X569401Y3050663D01*
X371264Y3050836D01*
X188144Y2975172D01*
X47918Y2835191D01*
X-28065Y2652203D01*
X-28238Y2454066D01*
X47426Y2270946D01*
X187407Y2130720D01*
X370395Y2054737D01*
X560027Y2054571D01*
X625900Y1988698D01*
X625900Y1395819D01*
X-1482140Y3503860D01*
X-1587578Y3574311D01*
X-1711950Y3599050D01*
X-2871898Y3599050D01*
X-2968709Y3696030D01*
X-3151697Y3772013D01*
X-3349834Y3772186D01*
X-3532954Y3696522D01*
X-3673180Y3556541D01*
X-3749163Y3373553D01*
X-3749163Y3373551D01*
X-3749336Y3175414D01*
X-3673672Y2992294D01*
X-3618994Y2937520D01*
X-3673180Y2883428D01*
X-3749163Y2700440D01*
X-3749163Y2700438D01*
X-3749336Y2502301D01*
X-3673672Y2319181D01*
X-3533691Y2178955D01*
X-3350703Y2102972D01*
X-3152566Y2102799D01*
X-2969446Y2178463D01*
X-2858114Y2289600D01*
X-1795900Y2289600D01*
X-186900Y680599D01*
X-186900Y-4630300D01*
X-1529200Y-5972600D01*
X-3200400Y-5972600D01*
X-3310804Y-5994561D01*
X-3404400Y-6057100D01*
X-3726980Y-6379680D01*
X-3789519Y-6473276D01*
X-3811480Y-6583680D01*
X-3811480Y-6624782D01*
X-3848100Y-6624782D01*
X-3931480Y-6640471D01*
X-4008060Y-6689749D01*
X-4059434Y-6764937D01*
X-4077508Y-6854190D01*
X-4077508Y-7878970D01*
X-4243532Y-7878970D01*
X-4243532Y-6854190D01*
X-4259221Y-6770810D01*
X-4308499Y-6694230D01*
X-4383687Y-6642856D01*
X-4472940Y-6624782D01*
X-4513384Y-6624782D01*
X-4509830Y-5766188D01*
X-4374625Y-5631219D01*
X-4298642Y-5448231D01*
X-4298469Y-5250094D01*
X-4374133Y-5066974D01*
X-4514114Y-4926748D01*
X-4697102Y-4850765D01*
X-4895239Y-4850592D01*
X-4967926Y-4880626D01*
X-3449808Y-3362508D01*
X-1108032Y-3362508D01*
X-974785Y-3495988D01*
X-791797Y-3571971D01*
X-593660Y-3572144D01*
X-410540Y-3496480D01*
X-270314Y-3356499D01*
X-194331Y-3173511D01*
X-194158Y-2975374D01*
X-269822Y-2792254D01*
X-409803Y-2652028D01*
X-592791Y-2576045D01*
X-790928Y-2575872D01*
X-974048Y-2651536D01*
X-1108254Y-2785508D01*
X-3569308Y-2785508D01*
X-3679712Y-2807469D01*
X-3773308Y-2870008D01*
X-5588789Y-4685489D01*
X-5651328Y-4779085D01*
X-5673289Y-4889489D01*
X-5673289Y-5513811D01*
X-5750429Y-5436671D01*
X-5750264Y-5248066D01*
X-5825928Y-5064946D01*
X-5965909Y-4924720D01*
X-6148897Y-4848737D01*
X-6347034Y-4848564D01*
X-6530154Y-4924228D01*
X-6670380Y-5064209D01*
X-6746363Y-5247197D01*
X-6746536Y-5445334D01*
X-6670872Y-5628454D01*
X-6546393Y-5753150D01*
X-6619580Y-5826209D01*
X-6620086Y-5827428D01*
X-6694155Y-5842161D01*
X-6787751Y-5904699D01*
X-6976300Y-6093249D01*
X-10631051Y-6093249D01*
X-10828807Y-5895493D01*
X-10664606Y-5895636D01*
X-10481486Y-5819972D01*
X-10352578Y-5691289D01*
X-10352578Y-5854700D01*
X-10336889Y-5938080D01*
X-10287611Y-6014660D01*
X-10212423Y-6066034D01*
X-10123170Y-6084108D01*
X-9673590Y-6084108D01*
X-9590210Y-6068419D01*
X-9513630Y-6019141D01*
X-9462256Y-5943953D01*
X-9444182Y-5854700D01*
X-9444182Y-4554220D01*
X-9459871Y-4470840D01*
X-9509149Y-4394260D01*
X-9584337Y-4342886D01*
X-9673590Y-4324812D01*
X-10123170Y-4324812D01*
X-10206550Y-4340501D01*
X-10283130Y-4389779D01*
X-10334504Y-4464967D01*
X-10352578Y-4554220D01*
X-10352578Y-5103915D01*
X-10480749Y-4975520D01*
X-10663737Y-4899537D01*
X-10861874Y-4899364D01*
X-10938300Y-4930943D01*
X-10938300Y-3485000D01*
X-10352578Y-2899279D01*
X-10352578Y-3853180D01*
X-10336889Y-3936560D01*
X-10287611Y-4013140D01*
X-10212423Y-4064514D01*
X-10123170Y-4082588D01*
X-9673590Y-4082588D01*
X-9590210Y-4066899D01*
X-9513630Y-4017621D01*
X-9462256Y-3942433D01*
X-9444182Y-3853180D01*
X-9444182Y-2552700D01*
X-9459871Y-2469320D01*
X-9509149Y-2392740D01*
X-9584337Y-2341366D01*
X-9673590Y-2323292D01*
X-10115117Y-2323292D01*
X-10099402Y-2245690D01*
X-10099402Y-1745310D01*
X-10115091Y-1661930D01*
X-10164369Y-1585350D01*
X-10239557Y-1533976D01*
X-10328810Y-1515902D01*
X-10778390Y-1515902D01*
X-10861770Y-1531591D01*
X-10938350Y-1580869D01*
X-10959827Y-1612301D01*
X-10977169Y-1585350D01*
X-11052357Y-1533976D01*
X-11141610Y-1515902D01*
X-11591190Y-1515902D01*
X-11674570Y-1531591D01*
X-11751150Y-1580869D01*
X-11802524Y-1656057D01*
X-11820598Y-1745310D01*
X-11820598Y-2245690D01*
X-11804909Y-2329070D01*
X-11755631Y-2405650D01*
X-11680443Y-2457024D01*
X-11654900Y-2462197D01*
X-11654900Y-2725200D01*
X-11735600Y-2805900D01*
X-11798139Y-2899496D01*
X-11820100Y-3009900D01*
X-11820100Y-6057900D01*
X-11798139Y-6168304D01*
X-11735600Y-6261900D01*
X-11018060Y-6979440D01*
X-10924464Y-7041979D01*
X-10814060Y-7063940D01*
X-6762740Y-7063940D01*
X-6652336Y-7041979D01*
X-6627668Y-7025496D01*
X-6627668Y-7878970D01*
X-12000470Y-7878970D01*
X-12000470Y-221310D01*
X-11871577Y-221310D01*
X-11871577Y-721690D01*
X-11852402Y-823599D01*
X-11792174Y-917196D01*
X-11700276Y-979986D01*
X-11591190Y-1002077D01*
X-11141610Y-1002077D01*
X-11039701Y-982902D01*
X-10959109Y-931042D01*
X-10887476Y-979986D01*
X-10778390Y-1002077D01*
X-10328810Y-1002077D01*
X-10226901Y-982902D01*
X-10133304Y-922674D01*
X-10070514Y-830776D01*
X-10048423Y-721690D01*
X-10048423Y-221310D01*
X-10067598Y-119401D01*
X-10127826Y-25804D01*
X-10219724Y36986D01*
X-10328810Y59077D01*
X-10778390Y59077D01*
X-10880299Y39902D01*
X-10960891Y-11958D01*
X-11032524Y36986D01*
X-11141610Y59077D01*
X-11591190Y59077D01*
X-11693099Y39902D01*
X-11786696Y-20326D01*
X-11849486Y-112224D01*
X-11871577Y-221310D01*
X-12000470Y-221310D01*
X-12000470Y7197090D01*
X-10776758Y7197090D01*
X-10776758Y5497830D01*
X-10761069Y5414450D01*
X-10711791Y5337870D01*
X-10636603Y5286496D01*
X-10547350Y5268422D01*
X-9147810Y5268422D01*
X-9064430Y5284111D01*
X-8987850Y5333389D01*
X-8936476Y5408577D01*
X-8918402Y5497830D01*
X-8918402Y7197090D01*
X-8934091Y7280470D01*
X-8983369Y7357050D01*
X-9058557Y7408424D01*
X-9147810Y7426498D01*
X-10547350Y7426498D01*
X-10630730Y7410809D01*
X-10707310Y7361531D01*
X-10758684Y7286343D01*
X-10776758Y7197090D01*
X-12000470Y7197090D01*
X-12000470Y7846970D01*
X3375470Y7846970D01*
X3375470Y7096500D01*
G36*
X-11281400Y-386500D02*
X-11261400Y-386500D01*
X-11261400Y-556500D01*
X-11281400Y-556500D01*
X-11281400Y-576500D01*
X-11451400Y-576500D01*
X-11451400Y-556500D01*
X-11866780Y-556500D01*
X-11866780Y-386500D01*
X-11451400Y-386500D01*
X-11451400Y-366500D01*
X-11281400Y-366500D01*
X-11281400Y-386500D01*
X-11281400Y-386500D01*
G37*
X-11281400Y-386500D02*
X-11261400Y-386500D01*
X-11261400Y-556500D01*
X-11281400Y-556500D01*
X-11281400Y-576500D01*
X-11451400Y-576500D01*
X-11451400Y-556500D01*
X-11866780Y-556500D01*
X-11866780Y-386500D01*
X-11451400Y-386500D01*
X-11451400Y-366500D01*
X-11281400Y-366500D01*
X-11281400Y-386500D01*
G36*
X-10468600Y-386500D02*
X-10053220Y-386500D01*
X-10053220Y-556500D01*
X-10468600Y-556500D01*
X-10468600Y-576500D01*
X-10638600Y-576500D01*
X-10638600Y-556500D01*
X-10658600Y-556500D01*
X-10658600Y-386500D01*
X-10638600Y-386500D01*
X-10638600Y-366500D01*
X-10468600Y-366500D01*
X-10468600Y-386500D01*
X-10468600Y-386500D01*
G37*
X-10468600Y-386500D02*
X-10053220Y-386500D01*
X-10053220Y-556500D01*
X-10468600Y-556500D01*
X-10468600Y-576500D01*
X-10638600Y-576500D01*
X-10638600Y-556500D01*
X-10658600Y-556500D01*
X-10658600Y-386500D01*
X-10638600Y-386500D01*
X-10638600Y-366500D01*
X-10468600Y-366500D01*
X-10468600Y-386500D01*
M02*
