G04 #@! TF.FileFunction,Copper,L2,Bot,Signal*
%FSLAX46Y46*%
G04 Gerber Fmt 4.6, Leading zero omitted, Abs format (unit mm)*
G04 Created by KiCad (PCBNEW 4.0.7) date 2018. April 04., Wednesday 12:16:15*
%MOMM*%
%LPD*%
G01*
G04 APERTURE LIST*
%ADD10C,0.150000*%
%ADD11O,3.500120X1.501140*%
%ADD12R,1.998980X1.198880*%
%ADD13C,1.099820*%
%ADD14C,0.304800*%
%ADD15C,0.546100*%
%ADD16C,0.152400*%
%ADD17C,0.300000*%
%ADD18C,0.127000*%
%ADD19C,0.200660*%
%ADD20C,0.254000*%
G04 APERTURE END LIST*
D10*
D11*
X6999600Y5683770D03*
X6999600Y-5715750D03*
D12*
X4599020Y-1016750D03*
X4599020Y1000010D03*
X4599020Y-3516110D03*
X4599020Y3484130D03*
D13*
X6999600Y-2266430D03*
X6999600Y2234450D03*
D10*
G36*
X-647700Y-8004810D02*
X-1297940Y-8004810D01*
X-1297940Y-6854190D01*
X-647700Y-6854190D01*
X-647700Y-8004810D01*
X-647700Y-8004810D01*
G37*
G36*
X601980Y-8004810D02*
X-48260Y-8004810D01*
X-48260Y-6854190D01*
X601980Y-6854190D01*
X601980Y-8004810D01*
X601980Y-8004810D01*
G37*
G36*
X-1922780Y-8004810D02*
X-2573020Y-8004810D01*
X-2573020Y-6854190D01*
X-1922780Y-6854190D01*
X-1922780Y-8004810D01*
X-1922780Y-8004810D01*
G37*
G36*
X-3197860Y-8004810D02*
X-3848100Y-8004810D01*
X-3848100Y-6854190D01*
X-3197860Y-6854190D01*
X-3197860Y-8004810D01*
X-3197860Y-8004810D01*
G37*
G36*
X-4472940Y-8004810D02*
X-5123180Y-8004810D01*
X-5123180Y-6854190D01*
X-4472940Y-6854190D01*
X-4472940Y-8004810D01*
X-4472940Y-8004810D01*
G37*
G36*
X-5748020Y-8004810D02*
X-6398260Y-8004810D01*
X-6398260Y-6854190D01*
X-5748020Y-6854190D01*
X-5748020Y-8004810D01*
X-5748020Y-8004810D01*
G37*
G36*
X2625090Y-5854700D02*
X2175510Y-5854700D01*
X2175510Y-4554220D01*
X2625090Y-4554220D01*
X2625090Y-5854700D01*
X2625090Y-5854700D01*
G37*
G36*
X2625090Y-3853180D02*
X2175510Y-3853180D01*
X2175510Y-2552700D01*
X2625090Y-2552700D01*
X2625090Y-3853180D01*
X2625090Y-3853180D01*
G37*
G36*
X-9673590Y-3853180D02*
X-10123170Y-3853180D01*
X-10123170Y-2552700D01*
X-9673590Y-2552700D01*
X-9673590Y-3853180D01*
X-9673590Y-3853180D01*
G37*
G36*
X-9673590Y-5854700D02*
X-10123170Y-5854700D01*
X-10123170Y-4554220D01*
X-9673590Y-4554220D01*
X-9673590Y-5854700D01*
X-9673590Y-5854700D01*
G37*
G36*
X3051810Y5396230D02*
X1652270Y5396230D01*
X1652270Y7095490D01*
X3051810Y7095490D01*
X3051810Y5396230D01*
X3051810Y5396230D01*
G37*
G36*
X-9147810Y5497830D02*
X-10547350Y5497830D01*
X-10547350Y7197090D01*
X-9147810Y7197090D01*
X-9147810Y5497830D01*
X-9147810Y5497830D01*
G37*
G36*
X-877570Y5447030D02*
X-1418590Y5447030D01*
X-1418590Y6247130D01*
X-877570Y6247130D01*
X-877570Y5447030D01*
X-877570Y5447030D01*
G37*
G36*
X-5977890Y5447030D02*
X-6518910Y5447030D01*
X-6518910Y6247130D01*
X-5977890Y6247130D01*
X-5977890Y5447030D01*
X-5977890Y5447030D01*
G37*
D14*
X-4249420Y-1348740D03*
X-3248660Y-1348740D03*
X-5250180Y-1348740D03*
X-5250180Y-347980D03*
X-4249420Y-347980D03*
X-3248660Y-347980D03*
X-3248660Y-2349500D03*
X-4249420Y-2349500D03*
X-5250180Y-2349500D03*
D10*
G36*
X-11591190Y-1745310D02*
X-11141610Y-1745310D01*
X-11141610Y-2245690D01*
X-11591190Y-2245690D01*
X-11591190Y-1745310D01*
X-11591190Y-1745310D01*
G37*
G36*
X-11591190Y-221310D02*
X-11141610Y-221310D01*
X-11141610Y-721690D01*
X-11591190Y-721690D01*
X-11591190Y-221310D01*
X-11591190Y-221310D01*
G37*
G36*
X-10778390Y-1745310D02*
X-10328810Y-1745310D01*
X-10328810Y-2245690D01*
X-10778390Y-2245690D01*
X-10778390Y-1745310D01*
X-10778390Y-1745310D01*
G37*
G36*
X-10778390Y-221310D02*
X-10328810Y-221310D01*
X-10328810Y-721690D01*
X-10778390Y-721690D01*
X-10778390Y-221310D01*
X-10778390Y-221310D01*
G37*
D15*
X-4318000Y6184900D03*
X-8483600Y-3213096D03*
X1474919Y4002223D03*
X863600Y-4381500D03*
X-7213600Y1358900D03*
X-660400Y4051300D03*
X-660400Y4051300D03*
X-7213600Y1358900D03*
X768382Y-1066812D03*
X469898Y2552700D03*
X2743200Y-1181100D03*
X2997200Y1054100D03*
X4673600Y-2197100D03*
X3274211Y88900D03*
X-666760Y-2921000D03*
X-3251200Y2600937D03*
X-3251200Y2600935D03*
X-4775200Y2222500D03*
X-4775200Y2222500D03*
X-3251200Y3274050D03*
X-3251200Y3274048D03*
X6959600Y444500D03*
X-561954Y5166970D03*
X6959600Y-317500D03*
X508000Y5067300D03*
X-2692400Y4965700D03*
X2249092Y2623730D03*
X4622800Y-4686300D03*
X7213600Y-7429500D03*
X304798Y-6362700D03*
X660400Y3289300D03*
X-4927600Y4254500D03*
X-7823222Y2070100D03*
X-7823209Y2067439D03*
X2783920Y3517899D03*
X-600720Y3136900D03*
X-9652000Y2019300D03*
X-1200000Y7346500D03*
X-1200000Y7346500D03*
X-9652000Y2019300D03*
X-10800000Y-3178500D03*
X-10800000Y-3178500D03*
X-10718800Y-4279900D03*
D16*
X-4318000Y5798749D02*
X-4318000Y6184900D01*
X-4318000Y5007611D02*
X-4318000Y5798749D01*
X-4267200Y4956811D02*
X-4318000Y5007611D01*
D17*
X-686139Y4051300D02*
X-923487Y4288648D01*
X-3615689Y4305300D02*
X-4267200Y4956811D01*
X-923487Y4288648D02*
X-2867018Y4288648D01*
X-2867018Y4288648D02*
X-2883670Y4305300D01*
X-2883670Y4305300D02*
X-3615689Y4305300D01*
X-660400Y4051300D02*
X-686139Y4051300D01*
X1536700Y4033449D02*
X1371600Y3868349D01*
X1371600Y-1384300D02*
X863600Y-1892300D01*
X863600Y-1892300D02*
X863600Y-4381500D01*
X1371600Y3868349D02*
X1371600Y-1384300D01*
X-4267200Y4956811D02*
X-6549389Y4956811D01*
X-6549389Y4956811D02*
X-6940551Y4565649D01*
X-6940551Y4565649D02*
X-6940551Y1631949D01*
X-6940551Y1631949D02*
X-7213600Y1358900D01*
X-8483600Y-2826945D02*
X-8483600Y-3213096D01*
X-8483600Y88900D02*
X-8483600Y-2826945D01*
X-7213600Y1358900D02*
X-8483600Y88900D01*
X1536700Y4033449D02*
X1505474Y4002223D01*
X1505474Y4002223D02*
X1474919Y4002223D01*
X1549400Y4020749D02*
X1536700Y4033449D01*
X1549400Y4020749D02*
X-629849Y4020749D01*
X-629849Y4020749D02*
X-660400Y4051300D01*
D16*
X-7213600Y1358900D02*
X-8280400Y292100D01*
D18*
X469898Y2552700D02*
X768382Y2254216D01*
X768382Y2254216D02*
X768382Y-680661D01*
X768382Y-680661D02*
X768382Y-1066812D01*
D17*
X2724151Y-1162051D02*
X2743200Y-1181100D01*
X2724151Y781051D02*
X2724151Y-1162051D01*
X2997200Y1054100D02*
X2724151Y781051D01*
D18*
X3051290Y1000010D02*
X2997200Y1054100D01*
X4599020Y1000010D02*
X3051290Y1000010D01*
X4599020Y-2122520D02*
X4673600Y-2197100D01*
X4599020Y-1016750D02*
X4599020Y-2122520D01*
X4198970Y-1016750D02*
X3274211Y-91991D01*
X4599020Y-1016750D02*
X4198970Y-1016750D01*
X3274211Y-91991D02*
X3274211Y88900D01*
X-6073140Y-7429500D02*
X-6073140Y-6754190D01*
X-666760Y-4400560D02*
X-666760Y-2921000D01*
X-6073140Y-6754190D02*
X-4386250Y-5067300D01*
X-4386250Y-5067300D02*
X-1333500Y-5067300D01*
X-1333500Y-5067300D02*
X-666760Y-4400560D01*
X50811Y1308089D02*
X-1242035Y2600935D01*
X-1003311Y-5854711D02*
X63489Y-4787911D01*
X-1242035Y2600935D02*
X-2865049Y2600935D01*
X-3522980Y-7429500D02*
X-1948191Y-5854711D01*
X-2865049Y2600935D02*
X-3251200Y2600935D01*
X50811Y-1482287D02*
X50811Y1308089D01*
X63489Y-1494965D02*
X50811Y-1482287D01*
X63489Y-4787911D02*
X63489Y-1494965D01*
X-1948191Y-5854711D02*
X-1003311Y-5854711D01*
X-996951Y1949451D02*
X-4502151Y1949451D01*
X-203200Y-4483100D02*
X-203200Y1155700D01*
X-1130300Y-5410200D02*
X-203200Y-4483100D01*
X-2778760Y-5410200D02*
X-1130300Y-5410200D01*
X-4798060Y-7429500D02*
X-2778760Y-5410200D01*
X-203200Y1155700D02*
X-996951Y1949451D01*
X-4502151Y1949451D02*
X-4775200Y2222500D01*
X-2865049Y3274050D02*
X-3251200Y3274050D01*
X-972820Y-7429500D02*
X-972820Y-6326770D01*
X-972820Y-6326770D02*
X317500Y-5036450D01*
X304822Y-1377072D02*
X304822Y1460478D01*
X317500Y-1389750D02*
X304822Y-1377072D01*
X-1508750Y3274050D02*
X-2865049Y3274050D01*
X304822Y1460478D02*
X-1508750Y3274050D01*
X317500Y-5036450D02*
X317500Y-1389750D01*
X5794824Y4660900D02*
X6259189Y4196535D01*
X2289624Y4660900D02*
X5794824Y4660900D01*
X1111249Y5530851D02*
X1473190Y5168910D01*
X-198073Y5530851D02*
X1111249Y5530851D01*
X1473190Y5168910D02*
X1781614Y5168910D01*
X-561954Y5166970D02*
X-198073Y5530851D01*
X6686551Y717549D02*
X6959600Y444500D01*
X6259189Y1144911D02*
X6686551Y717549D01*
X6259189Y4196535D02*
X6259189Y1144911D01*
X1781614Y5168910D02*
X2289624Y4660900D01*
X-560024Y5168900D02*
X-561954Y5166970D01*
X-508000Y5168900D02*
X-560024Y5168900D01*
X6686551Y-44451D02*
X6959600Y-317500D01*
X5943600Y698500D02*
X6686551Y-44451D01*
X5943600Y4152900D02*
X5943600Y698500D01*
X2235200Y4356100D02*
X5740400Y4356100D01*
X1695451Y4895849D02*
X2235200Y4356100D01*
X1065602Y4895849D02*
X1695451Y4895849D01*
X894151Y5067300D02*
X1065602Y4895849D01*
X508000Y5067300D02*
X894151Y5067300D01*
X5740400Y4356100D02*
X5943600Y4152900D01*
D10*
X-2306249Y4965700D02*
X-2692400Y4965700D01*
X-693344Y4592244D02*
X-1066800Y4965700D01*
X-1066800Y4965700D02*
X-2306249Y4965700D01*
X1592656Y4592244D02*
X-693344Y4592244D01*
X1976043Y4208857D02*
X1592656Y4592244D01*
X2249092Y2623730D02*
X1976043Y2896779D01*
X1976043Y2896779D02*
X1976043Y4208857D01*
D17*
X4599020Y-4662520D02*
X4622800Y-4686300D01*
X4599020Y-3516110D02*
X4599020Y-4662520D01*
X4599020Y-3516110D02*
X4198970Y-3516110D01*
D19*
X-1301467Y3837647D02*
X-3053828Y3837647D01*
X-3064281Y3848100D02*
X-4521200Y3848100D01*
X-4521200Y3848100D02*
X-4724400Y4051300D01*
X-3053828Y3837647D02*
X-3064281Y3848100D01*
X-600720Y3136900D02*
X-1301467Y3837647D01*
X5537200Y-7429500D02*
X7213600Y-7429500D01*
X4775200Y-6667500D02*
X5537200Y-7429500D01*
X2590800Y-6667500D02*
X4775200Y-6667500D01*
X1828800Y-7429500D02*
X2590800Y-6667500D01*
X276860Y-7429500D02*
X1828800Y-7429500D01*
X276860Y-7429500D02*
X276860Y-6390638D01*
X276860Y-6390638D02*
X304798Y-6362700D01*
X-4654551Y3981451D02*
X-4927600Y4254500D01*
X-4631542Y3981451D02*
X-4654551Y3981451D01*
X-9652000Y2019300D02*
X-7874022Y2019300D01*
X-7772400Y2070100D02*
X-7823222Y2070100D01*
X-7874022Y2019300D02*
X-7823222Y2070100D01*
X4620261Y3517899D02*
X3170071Y3517899D01*
X3170071Y3517899D02*
X2783920Y3517899D01*
X4635500Y3502660D02*
X4620261Y3517899D01*
X387351Y3197780D02*
X660400Y3470829D01*
X326471Y3136900D02*
X387351Y3197780D01*
X254000Y3136900D02*
X326471Y3136900D01*
X-214569Y3136900D02*
X-600720Y3136900D01*
X254000Y3136900D02*
X-214569Y3136900D01*
X-10426700Y-381000D02*
X-10250000Y-204300D01*
X-9906000Y-63500D02*
X-9652000Y190500D01*
X-10109200Y-63500D02*
X-9906000Y-63500D01*
X-10250000Y-204300D02*
X-10109200Y-63500D01*
X-9652000Y190500D02*
X-9652000Y2019300D01*
X-11366400Y-471500D02*
X-10553600Y-471500D01*
X-10518000Y-471500D02*
X-10250000Y-203500D01*
X-10250000Y-203500D02*
X-10250000Y-204300D01*
X-10553600Y-471500D02*
X-10518000Y-471500D01*
X-1200000Y7346500D02*
X-1200000Y7296500D01*
X-1200000Y7346500D02*
X-1200000Y7296500D01*
X-10553600Y-471500D02*
X-10518000Y-471500D01*
X-10250000Y-203500D02*
X-10250000Y-204300D01*
X-10518000Y-471500D02*
X-10250000Y-203500D01*
X-11366400Y-471500D02*
X-10553600Y-471500D01*
X-9652000Y190500D02*
X-9652000Y2019300D01*
X-10250000Y-204300D02*
X-10109200Y-63500D01*
X-10109200Y-63500D02*
X-9906000Y-63500D01*
X-9906000Y-63500D02*
X-9652000Y190500D01*
X-10426700Y-381000D02*
X-10250000Y-204300D01*
X-7772400Y2070100D02*
X-7823200Y2019300D01*
X-7823200Y2019300D02*
X-9652000Y2019300D01*
D18*
X-10800000Y-3178500D02*
X-10553600Y-2932100D01*
X-10800000Y-3178500D02*
X-10553600Y-2932100D01*
X-10553600Y-2932100D02*
X-10553600Y-1995500D01*
X-10553600Y-2932100D02*
X-10553600Y-1995500D01*
X-10718800Y-4279900D02*
X-11366400Y-3632300D01*
X-11366400Y-3632300D02*
X-11366400Y-1995500D01*
D20*
G36*
X3323470Y7152706D02*
X3314921Y7198140D01*
X3254255Y7292417D01*
X3161690Y7355665D01*
X3051810Y7377916D01*
X1652270Y7377916D01*
X1549620Y7358601D01*
X1455343Y7297935D01*
X1392095Y7205370D01*
X1369844Y7095490D01*
X1369844Y5753796D01*
X1352019Y5771621D01*
X1241553Y5845432D01*
X1111249Y5871351D01*
X-198073Y5871351D01*
X-328377Y5845432D01*
X-438843Y5771621D01*
X-493504Y5716960D01*
X-595144Y5717049D01*
X-595144Y6190653D01*
X22951Y6190653D01*
X65792Y6086968D01*
X145051Y6007571D01*
X248661Y5964549D01*
X360847Y5964451D01*
X464532Y6007292D01*
X543929Y6086551D01*
X586951Y6190161D01*
X587049Y6302347D01*
X544208Y6406032D01*
X464949Y6485429D01*
X361339Y6528451D01*
X249153Y6528549D01*
X145468Y6485708D01*
X66071Y6406449D01*
X23049Y6302839D01*
X22951Y6190653D01*
X-595144Y6190653D01*
X-595144Y6247130D01*
X-614459Y6349780D01*
X-675125Y6444057D01*
X-767690Y6507305D01*
X-877570Y6529556D01*
X-1418590Y6529556D01*
X-1521240Y6510241D01*
X-1615517Y6449575D01*
X-1678765Y6357010D01*
X-1701016Y6247130D01*
X-1701016Y5447030D01*
X-1681701Y5344380D01*
X-1664533Y5317700D01*
X-2266576Y5317700D01*
X-2380415Y5431738D01*
X-2582508Y5515654D01*
X-2801332Y5515845D01*
X-3003571Y5432282D01*
X-3158438Y5277685D01*
X-3242354Y5075592D01*
X-3242545Y4856768D01*
X-3192108Y4734700D01*
X-3437826Y4734700D01*
X-3962400Y5259275D01*
X-3962400Y5759279D01*
X-3849929Y5871554D01*
X-3765646Y6074529D01*
X-3765590Y6138717D01*
X-3744208Y6086968D01*
X-3664949Y6007571D01*
X-3561339Y5964549D01*
X-3449153Y5964451D01*
X-3345468Y6007292D01*
X-3266071Y6086551D01*
X-3223049Y6190161D01*
X-3223049Y6190653D01*
X-2517049Y6190653D01*
X-2474208Y6086968D01*
X-2394949Y6007571D01*
X-2291339Y5964549D01*
X-2179153Y5964451D01*
X-2075468Y6007292D01*
X-1996071Y6086551D01*
X-1953049Y6190161D01*
X-1952951Y6302347D01*
X-1995792Y6406032D01*
X-2075051Y6485429D01*
X-2178661Y6528451D01*
X-2290847Y6528549D01*
X-2394532Y6485708D01*
X-2473929Y6406449D01*
X-2516951Y6302839D01*
X-2517049Y6190653D01*
X-3223049Y6190653D01*
X-3222951Y6302347D01*
X-3265792Y6406032D01*
X-3345051Y6485429D01*
X-3448661Y6528451D01*
X-3560847Y6528549D01*
X-3664532Y6485708D01*
X-3743929Y6406449D01*
X-3777943Y6324533D01*
X-3849383Y6497429D01*
X-4004654Y6652971D01*
X-4207629Y6737254D01*
X-4427407Y6737446D01*
X-4630529Y6653517D01*
X-4786071Y6498246D01*
X-4870354Y6295271D01*
X-4870546Y6075493D01*
X-4786617Y5872371D01*
X-4673600Y5759157D01*
X-4673600Y5386211D01*
X-5707780Y5386211D01*
X-5695464Y5447030D01*
X-5695464Y6247130D01*
X-5714779Y6349780D01*
X-5775445Y6444057D01*
X-5868010Y6507305D01*
X-5977890Y6529556D01*
X-6518910Y6529556D01*
X-6621560Y6510241D01*
X-6715837Y6449575D01*
X-6779085Y6357010D01*
X-6801336Y6247130D01*
X-6801336Y5447030D01*
X-6782021Y5344380D01*
X-6765597Y5318857D01*
X-6853021Y5260443D01*
X-6853023Y5260440D01*
X-7244183Y4869281D01*
X-7337265Y4729974D01*
X-7361342Y4608931D01*
X-7369951Y4565649D01*
X-7369951Y1892049D01*
X-7526129Y1827517D01*
X-7681671Y1672246D01*
X-7765954Y1469271D01*
X-7766002Y1413761D01*
X-8787232Y392532D01*
X-8880314Y253225D01*
X-8904841Y129919D01*
X-8913000Y88900D01*
X-8913000Y-2861146D01*
X-8951671Y-2899750D01*
X-9035954Y-3102725D01*
X-9036146Y-3322503D01*
X-8952217Y-3525625D01*
X-8796946Y-3681167D01*
X-8593971Y-3765450D01*
X-8374193Y-3765642D01*
X-8171071Y-3681713D01*
X-8015529Y-3526442D01*
X-7931246Y-3323467D01*
X-7931054Y-3103689D01*
X-8014983Y-2900567D01*
X-8054200Y-2861282D01*
X-8054200Y-2686115D01*
X-5479032Y-2686115D01*
X-5472325Y-2784895D01*
X-5288796Y-2836764D01*
X-5099389Y-2814450D01*
X-5028035Y-2784895D01*
X-5021328Y-2686115D01*
X-4478272Y-2686115D01*
X-4471565Y-2784895D01*
X-4288036Y-2836764D01*
X-4098629Y-2814450D01*
X-4027275Y-2784895D01*
X-4020568Y-2686115D01*
X-3477512Y-2686115D01*
X-3470805Y-2784895D01*
X-3287276Y-2836764D01*
X-3097869Y-2814450D01*
X-3026515Y-2784895D01*
X-3019808Y-2686115D01*
X-3248660Y-2457263D01*
X-3477512Y-2686115D01*
X-4020568Y-2686115D01*
X-4249420Y-2457263D01*
X-4478272Y-2686115D01*
X-5021328Y-2686115D01*
X-5250180Y-2457263D01*
X-5479032Y-2686115D01*
X-8054200Y-2686115D01*
X-8054200Y-2310884D01*
X-5737444Y-2310884D01*
X-5715130Y-2500291D01*
X-5685575Y-2571645D01*
X-5586795Y-2578352D01*
X-5357943Y-2349500D01*
X-5142417Y-2349500D01*
X-4913565Y-2578352D01*
X-4814785Y-2571645D01*
X-4762916Y-2388116D01*
X-4772014Y-2310884D01*
X-4736684Y-2310884D01*
X-4714370Y-2500291D01*
X-4684815Y-2571645D01*
X-4586035Y-2578352D01*
X-4357183Y-2349500D01*
X-4141657Y-2349500D01*
X-3912805Y-2578352D01*
X-3814025Y-2571645D01*
X-3762156Y-2388116D01*
X-3771254Y-2310884D01*
X-3735924Y-2310884D01*
X-3713610Y-2500291D01*
X-3684055Y-2571645D01*
X-3585275Y-2578352D01*
X-3356423Y-2349500D01*
X-3140897Y-2349500D01*
X-2912045Y-2578352D01*
X-2813265Y-2571645D01*
X-2761396Y-2388116D01*
X-2783710Y-2198709D01*
X-2813265Y-2127355D01*
X-2912045Y-2120648D01*
X-3140897Y-2349500D01*
X-3356423Y-2349500D01*
X-3585275Y-2120648D01*
X-3684055Y-2127355D01*
X-3735924Y-2310884D01*
X-3771254Y-2310884D01*
X-3784470Y-2198709D01*
X-3814025Y-2127355D01*
X-3912805Y-2120648D01*
X-4141657Y-2349500D01*
X-4357183Y-2349500D01*
X-4586035Y-2120648D01*
X-4684815Y-2127355D01*
X-4736684Y-2310884D01*
X-4772014Y-2310884D01*
X-4785230Y-2198709D01*
X-4814785Y-2127355D01*
X-4913565Y-2120648D01*
X-5142417Y-2349500D01*
X-5357943Y-2349500D01*
X-5586795Y-2120648D01*
X-5685575Y-2127355D01*
X-5737444Y-2310884D01*
X-8054200Y-2310884D01*
X-8054200Y-2012885D01*
X-5479032Y-2012885D01*
X-5250180Y-2241737D01*
X-5021328Y-2012885D01*
X-4478272Y-2012885D01*
X-4249420Y-2241737D01*
X-4020568Y-2012885D01*
X-3477512Y-2012885D01*
X-3248660Y-2241737D01*
X-3019808Y-2012885D01*
X-3026515Y-1914105D01*
X-3210044Y-1862236D01*
X-3399451Y-1884550D01*
X-3470805Y-1914105D01*
X-3477512Y-2012885D01*
X-4020568Y-2012885D01*
X-4027275Y-1914105D01*
X-4210804Y-1862236D01*
X-4400211Y-1884550D01*
X-4471565Y-1914105D01*
X-4478272Y-2012885D01*
X-5021328Y-2012885D01*
X-5028035Y-1914105D01*
X-5211564Y-1862236D01*
X-5400971Y-1884550D01*
X-5472325Y-1914105D01*
X-5479032Y-2012885D01*
X-8054200Y-2012885D01*
X-8054200Y-1685355D01*
X-5479032Y-1685355D01*
X-5472325Y-1784135D01*
X-5288796Y-1836004D01*
X-5099389Y-1813690D01*
X-5028035Y-1784135D01*
X-5021328Y-1685355D01*
X-4478272Y-1685355D01*
X-4471565Y-1784135D01*
X-4288036Y-1836004D01*
X-4098629Y-1813690D01*
X-4027275Y-1784135D01*
X-4020568Y-1685355D01*
X-3477512Y-1685355D01*
X-3470805Y-1784135D01*
X-3287276Y-1836004D01*
X-3097869Y-1813690D01*
X-3026515Y-1784135D01*
X-3019808Y-1685355D01*
X-3248660Y-1456503D01*
X-3477512Y-1685355D01*
X-4020568Y-1685355D01*
X-4249420Y-1456503D01*
X-4478272Y-1685355D01*
X-5021328Y-1685355D01*
X-5250180Y-1456503D01*
X-5479032Y-1685355D01*
X-8054200Y-1685355D01*
X-8054200Y-1310124D01*
X-5737444Y-1310124D01*
X-5715130Y-1499531D01*
X-5685575Y-1570885D01*
X-5586795Y-1577592D01*
X-5357943Y-1348740D01*
X-5142417Y-1348740D01*
X-4913565Y-1577592D01*
X-4814785Y-1570885D01*
X-4762916Y-1387356D01*
X-4772014Y-1310124D01*
X-4736684Y-1310124D01*
X-4714370Y-1499531D01*
X-4684815Y-1570885D01*
X-4586035Y-1577592D01*
X-4357183Y-1348740D01*
X-4141657Y-1348740D01*
X-3912805Y-1577592D01*
X-3814025Y-1570885D01*
X-3762156Y-1387356D01*
X-3771254Y-1310124D01*
X-3735924Y-1310124D01*
X-3713610Y-1499531D01*
X-3684055Y-1570885D01*
X-3585275Y-1577592D01*
X-3356423Y-1348740D01*
X-3140897Y-1348740D01*
X-2912045Y-1577592D01*
X-2813265Y-1570885D01*
X-2761396Y-1387356D01*
X-2783710Y-1197949D01*
X-2813265Y-1126595D01*
X-2912045Y-1119888D01*
X-3140897Y-1348740D01*
X-3356423Y-1348740D01*
X-3585275Y-1119888D01*
X-3684055Y-1126595D01*
X-3735924Y-1310124D01*
X-3771254Y-1310124D01*
X-3784470Y-1197949D01*
X-3814025Y-1126595D01*
X-3912805Y-1119888D01*
X-4141657Y-1348740D01*
X-4357183Y-1348740D01*
X-4586035Y-1119888D01*
X-4684815Y-1126595D01*
X-4736684Y-1310124D01*
X-4772014Y-1310124D01*
X-4785230Y-1197949D01*
X-4814785Y-1126595D01*
X-4913565Y-1119888D01*
X-5142417Y-1348740D01*
X-5357943Y-1348740D01*
X-5586795Y-1119888D01*
X-5685575Y-1126595D01*
X-5737444Y-1310124D01*
X-8054200Y-1310124D01*
X-8054200Y-1012125D01*
X-5479032Y-1012125D01*
X-5250180Y-1240977D01*
X-5021328Y-1012125D01*
X-4478272Y-1012125D01*
X-4249420Y-1240977D01*
X-4020568Y-1012125D01*
X-3477512Y-1012125D01*
X-3248660Y-1240977D01*
X-3019808Y-1012125D01*
X-3026515Y-913345D01*
X-3210044Y-861476D01*
X-3399451Y-883790D01*
X-3470805Y-913345D01*
X-3477512Y-1012125D01*
X-4020568Y-1012125D01*
X-4027275Y-913345D01*
X-4210804Y-861476D01*
X-4400211Y-883790D01*
X-4471565Y-913345D01*
X-4478272Y-1012125D01*
X-5021328Y-1012125D01*
X-5028035Y-913345D01*
X-5211564Y-861476D01*
X-5400971Y-883790D01*
X-5472325Y-913345D01*
X-5479032Y-1012125D01*
X-8054200Y-1012125D01*
X-8054200Y-684595D01*
X-5479032Y-684595D01*
X-5472325Y-783375D01*
X-5288796Y-835244D01*
X-5099389Y-812930D01*
X-5028035Y-783375D01*
X-5021328Y-684595D01*
X-4478272Y-684595D01*
X-4471565Y-783375D01*
X-4288036Y-835244D01*
X-4098629Y-812930D01*
X-4027275Y-783375D01*
X-4020568Y-684595D01*
X-3477512Y-684595D01*
X-3470805Y-783375D01*
X-3287276Y-835244D01*
X-3097869Y-812930D01*
X-3026515Y-783375D01*
X-3019808Y-684595D01*
X-3248660Y-455743D01*
X-3477512Y-684595D01*
X-4020568Y-684595D01*
X-4249420Y-455743D01*
X-4478272Y-684595D01*
X-5021328Y-684595D01*
X-5250180Y-455743D01*
X-5479032Y-684595D01*
X-8054200Y-684595D01*
X-8054200Y-309364D01*
X-5737444Y-309364D01*
X-5715130Y-498771D01*
X-5685575Y-570125D01*
X-5586795Y-576832D01*
X-5357943Y-347980D01*
X-5142417Y-347980D01*
X-4913565Y-576832D01*
X-4814785Y-570125D01*
X-4762916Y-386596D01*
X-4772014Y-309364D01*
X-4736684Y-309364D01*
X-4714370Y-498771D01*
X-4684815Y-570125D01*
X-4586035Y-576832D01*
X-4357183Y-347980D01*
X-4141657Y-347980D01*
X-3912805Y-576832D01*
X-3814025Y-570125D01*
X-3762156Y-386596D01*
X-3771254Y-309364D01*
X-3735924Y-309364D01*
X-3713610Y-498771D01*
X-3684055Y-570125D01*
X-3585275Y-576832D01*
X-3356423Y-347980D01*
X-3140897Y-347980D01*
X-2912045Y-576832D01*
X-2813265Y-570125D01*
X-2761396Y-386596D01*
X-2783710Y-197189D01*
X-2813265Y-125835D01*
X-2912045Y-119128D01*
X-3140897Y-347980D01*
X-3356423Y-347980D01*
X-3585275Y-119128D01*
X-3684055Y-125835D01*
X-3735924Y-309364D01*
X-3771254Y-309364D01*
X-3784470Y-197189D01*
X-3814025Y-125835D01*
X-3912805Y-119128D01*
X-4141657Y-347980D01*
X-4357183Y-347980D01*
X-4586035Y-119128D01*
X-4684815Y-125835D01*
X-4736684Y-309364D01*
X-4772014Y-309364D01*
X-4785230Y-197189D01*
X-4814785Y-125835D01*
X-4913565Y-119128D01*
X-5142417Y-347980D01*
X-5357943Y-347980D01*
X-5586795Y-119128D01*
X-5685575Y-125835D01*
X-5737444Y-309364D01*
X-8054200Y-309364D01*
X-8054200Y-88964D01*
X-7976602Y-11365D01*
X-5479032Y-11365D01*
X-5250180Y-240217D01*
X-5021328Y-11365D01*
X-4478272Y-11365D01*
X-4249420Y-240217D01*
X-4020568Y-11365D01*
X-3477512Y-11365D01*
X-3248660Y-240217D01*
X-3019808Y-11365D01*
X-3026515Y87415D01*
X-3210044Y139284D01*
X-3399451Y116970D01*
X-3470805Y87415D01*
X-3477512Y-11365D01*
X-4020568Y-11365D01*
X-4027275Y87415D01*
X-4210804Y139284D01*
X-4400211Y116970D01*
X-4471565Y87415D01*
X-4478272Y-11365D01*
X-5021328Y-11365D01*
X-5028035Y87415D01*
X-5211564Y139284D01*
X-5400971Y116970D01*
X-5472325Y87415D01*
X-5479032Y-11365D01*
X-7976602Y-11365D01*
X-7158835Y806402D01*
X-7104193Y806354D01*
X-6901071Y890283D01*
X-6745529Y1045554D01*
X-6661246Y1248529D01*
X-6661198Y1304039D01*
X-6636922Y1328315D01*
X-6636919Y1328317D01*
X-6543837Y1467625D01*
X-6538153Y1496200D01*
X-6511150Y1631949D01*
X-6511151Y1631954D01*
X-6511151Y4387785D01*
X-6371526Y4527411D01*
X-4445064Y4527411D01*
X-3919323Y4001671D01*
X-3919321Y4001668D01*
X-3828418Y3940929D01*
X-3780013Y3908586D01*
X-3615689Y3875899D01*
X-3615684Y3875900D01*
X-2950733Y3875900D01*
X-2867018Y3859248D01*
X-1178797Y3859248D01*
X-1129017Y3738771D01*
X-973746Y3583229D01*
X-770771Y3498946D01*
X-550993Y3498754D01*
X-347871Y3582683D01*
X-339190Y3591349D01*
X942200Y3591349D01*
X942200Y2850027D01*
X936480Y2863871D01*
X781883Y3018738D01*
X579790Y3102654D01*
X360966Y3102845D01*
X158727Y3019282D01*
X3860Y2864685D01*
X-80056Y2662592D01*
X-80247Y2443768D01*
X1911Y2244929D01*
X-1267980Y3514820D01*
X-1378446Y3588631D01*
X-1508750Y3614550D01*
X-2813896Y3614550D01*
X-2939215Y3740088D01*
X-3141308Y3824004D01*
X-3360132Y3824195D01*
X-3562371Y3740632D01*
X-3717238Y3586035D01*
X-3801154Y3383942D01*
X-3801154Y3383940D01*
X-3801345Y3165116D01*
X-3717782Y2962877D01*
X-3692533Y2937584D01*
X-3717238Y2912922D01*
X-3801154Y2710829D01*
X-3801154Y2710827D01*
X-3801345Y2492003D01*
X-3717859Y2289951D01*
X-4225091Y2289951D01*
X-4225055Y2331432D01*
X-4308618Y2533671D01*
X-4463215Y2688538D01*
X-4665308Y2772454D01*
X-4884132Y2772645D01*
X-5086371Y2689082D01*
X-5241238Y2534485D01*
X-5325154Y2332392D01*
X-5325345Y2113568D01*
X-5241782Y1911329D01*
X-5087185Y1756462D01*
X-4885092Y1672546D01*
X-4688584Y1672374D01*
X-4632455Y1634870D01*
X-4502151Y1608951D01*
X-1137991Y1608951D01*
X-543700Y1014660D01*
X-543700Y-2376514D01*
X-556868Y-2371046D01*
X-775692Y-2370855D01*
X-977931Y-2454418D01*
X-1132798Y-2609015D01*
X-1216714Y-2811108D01*
X-1216905Y-3029932D01*
X-1133342Y-3232171D01*
X-1007260Y-3358473D01*
X-1007260Y-4259520D01*
X-1474540Y-4726800D01*
X-4386250Y-4726800D01*
X-4516554Y-4752719D01*
X-4581616Y-4796192D01*
X-4627020Y-4826530D01*
X-6313910Y-6513420D01*
X-6352894Y-6571764D01*
X-6398260Y-6571764D01*
X-6500910Y-6591079D01*
X-6595187Y-6651745D01*
X-6658435Y-6744310D01*
X-6680686Y-6854190D01*
X-6680686Y-7826970D01*
X-11948470Y-7826970D01*
X-11948470Y-1745310D01*
X-11873616Y-1745310D01*
X-11873616Y-2245690D01*
X-11854301Y-2348340D01*
X-11793635Y-2442617D01*
X-11706900Y-2501881D01*
X-11706900Y-3632300D01*
X-11680981Y-3762604D01*
X-11607170Y-3873070D01*
X-11268790Y-4211450D01*
X-11268945Y-4388832D01*
X-11185382Y-4591071D01*
X-11030785Y-4745938D01*
X-10828692Y-4829854D01*
X-10609868Y-4830045D01*
X-10407629Y-4746482D01*
X-10405596Y-4744453D01*
X-10405596Y-5854700D01*
X-10386281Y-5957350D01*
X-10325615Y-6051627D01*
X-10233050Y-6114875D01*
X-10123170Y-6137126D01*
X-9673590Y-6137126D01*
X-9570940Y-6117811D01*
X-9476663Y-6057145D01*
X-9413415Y-5964580D01*
X-9391164Y-5854700D01*
X-9391164Y-4554220D01*
X-9410479Y-4451570D01*
X-9471145Y-4357293D01*
X-9563710Y-4294045D01*
X-9673590Y-4271794D01*
X-10123170Y-4271794D01*
X-10168750Y-4280371D01*
X-10168655Y-4170968D01*
X-10188754Y-4122325D01*
X-10123170Y-4135606D01*
X-9673590Y-4135606D01*
X-9570940Y-4116291D01*
X-9476663Y-4055625D01*
X-9413415Y-3963060D01*
X-9391164Y-3853180D01*
X-9391164Y-2552700D01*
X-9410479Y-2450050D01*
X-9471145Y-2355773D01*
X-9563710Y-2292525D01*
X-9673590Y-2270274D01*
X-10051362Y-2270274D01*
X-10046384Y-2245690D01*
X-10046384Y-1745310D01*
X-10065699Y-1642660D01*
X-10126365Y-1548383D01*
X-10218930Y-1485135D01*
X-10328810Y-1462884D01*
X-10778390Y-1462884D01*
X-10881040Y-1482199D01*
X-10960858Y-1533561D01*
X-11031730Y-1485135D01*
X-11141610Y-1462884D01*
X-11591190Y-1462884D01*
X-11693840Y-1482199D01*
X-11788117Y-1542865D01*
X-11851365Y-1635430D01*
X-11873616Y-1745310D01*
X-11948470Y-1745310D01*
X-11948470Y-221310D01*
X-11924596Y-221310D01*
X-11924596Y-721690D01*
X-11901795Y-842869D01*
X-11830178Y-954164D01*
X-11720904Y-1028828D01*
X-11591190Y-1055096D01*
X-11141610Y-1055096D01*
X-11020431Y-1032295D01*
X-10959970Y-993389D01*
X-10908104Y-1028828D01*
X-10778390Y-1055096D01*
X-10328810Y-1055096D01*
X-10207631Y-1032295D01*
X-10096336Y-960678D01*
X-10021672Y-851404D01*
X-9995404Y-721690D01*
X-9995404Y-221310D01*
X-10018205Y-100131D01*
X-10089822Y11164D01*
X-10199096Y85828D01*
X-10328810Y112096D01*
X-10778390Y112096D01*
X-10899569Y89295D01*
X-10960030Y50389D01*
X-11011896Y85828D01*
X-11141610Y112096D01*
X-11591190Y112096D01*
X-11712369Y89295D01*
X-11823664Y17678D01*
X-11898328Y-91596D01*
X-11924596Y-221310D01*
X-11948470Y-221310D01*
X-11948470Y7197090D01*
X-10829776Y7197090D01*
X-10829776Y5497830D01*
X-10810461Y5395180D01*
X-10749795Y5300903D01*
X-10657230Y5237655D01*
X-10547350Y5215404D01*
X-9147810Y5215404D01*
X-9045160Y5234719D01*
X-8950883Y5295385D01*
X-8887635Y5387950D01*
X-8865384Y5497830D01*
X-8865384Y7197090D01*
X-8884699Y7299740D01*
X-8945365Y7394017D01*
X-9037930Y7457265D01*
X-9147810Y7479516D01*
X-10547350Y7479516D01*
X-10650000Y7460201D01*
X-10744277Y7399535D01*
X-10807525Y7306970D01*
X-10829776Y7197090D01*
X-11948470Y7197090D01*
X-11948470Y7794970D01*
X3323470Y7794970D01*
X3323470Y7152706D01*
X3323470Y7152706D01*
G37*
X3323470Y7152706D02*
X3314921Y7198140D01*
X3254255Y7292417D01*
X3161690Y7355665D01*
X3051810Y7377916D01*
X1652270Y7377916D01*
X1549620Y7358601D01*
X1455343Y7297935D01*
X1392095Y7205370D01*
X1369844Y7095490D01*
X1369844Y5753796D01*
X1352019Y5771621D01*
X1241553Y5845432D01*
X1111249Y5871351D01*
X-198073Y5871351D01*
X-328377Y5845432D01*
X-438843Y5771621D01*
X-493504Y5716960D01*
X-595144Y5717049D01*
X-595144Y6190653D01*
X22951Y6190653D01*
X65792Y6086968D01*
X145051Y6007571D01*
X248661Y5964549D01*
X360847Y5964451D01*
X464532Y6007292D01*
X543929Y6086551D01*
X586951Y6190161D01*
X587049Y6302347D01*
X544208Y6406032D01*
X464949Y6485429D01*
X361339Y6528451D01*
X249153Y6528549D01*
X145468Y6485708D01*
X66071Y6406449D01*
X23049Y6302839D01*
X22951Y6190653D01*
X-595144Y6190653D01*
X-595144Y6247130D01*
X-614459Y6349780D01*
X-675125Y6444057D01*
X-767690Y6507305D01*
X-877570Y6529556D01*
X-1418590Y6529556D01*
X-1521240Y6510241D01*
X-1615517Y6449575D01*
X-1678765Y6357010D01*
X-1701016Y6247130D01*
X-1701016Y5447030D01*
X-1681701Y5344380D01*
X-1664533Y5317700D01*
X-2266576Y5317700D01*
X-2380415Y5431738D01*
X-2582508Y5515654D01*
X-2801332Y5515845D01*
X-3003571Y5432282D01*
X-3158438Y5277685D01*
X-3242354Y5075592D01*
X-3242545Y4856768D01*
X-3192108Y4734700D01*
X-3437826Y4734700D01*
X-3962400Y5259275D01*
X-3962400Y5759279D01*
X-3849929Y5871554D01*
X-3765646Y6074529D01*
X-3765590Y6138717D01*
X-3744208Y6086968D01*
X-3664949Y6007571D01*
X-3561339Y5964549D01*
X-3449153Y5964451D01*
X-3345468Y6007292D01*
X-3266071Y6086551D01*
X-3223049Y6190161D01*
X-3223049Y6190653D01*
X-2517049Y6190653D01*
X-2474208Y6086968D01*
X-2394949Y6007571D01*
X-2291339Y5964549D01*
X-2179153Y5964451D01*
X-2075468Y6007292D01*
X-1996071Y6086551D01*
X-1953049Y6190161D01*
X-1952951Y6302347D01*
X-1995792Y6406032D01*
X-2075051Y6485429D01*
X-2178661Y6528451D01*
X-2290847Y6528549D01*
X-2394532Y6485708D01*
X-2473929Y6406449D01*
X-2516951Y6302839D01*
X-2517049Y6190653D01*
X-3223049Y6190653D01*
X-3222951Y6302347D01*
X-3265792Y6406032D01*
X-3345051Y6485429D01*
X-3448661Y6528451D01*
X-3560847Y6528549D01*
X-3664532Y6485708D01*
X-3743929Y6406449D01*
X-3777943Y6324533D01*
X-3849383Y6497429D01*
X-4004654Y6652971D01*
X-4207629Y6737254D01*
X-4427407Y6737446D01*
X-4630529Y6653517D01*
X-4786071Y6498246D01*
X-4870354Y6295271D01*
X-4870546Y6075493D01*
X-4786617Y5872371D01*
X-4673600Y5759157D01*
X-4673600Y5386211D01*
X-5707780Y5386211D01*
X-5695464Y5447030D01*
X-5695464Y6247130D01*
X-5714779Y6349780D01*
X-5775445Y6444057D01*
X-5868010Y6507305D01*
X-5977890Y6529556D01*
X-6518910Y6529556D01*
X-6621560Y6510241D01*
X-6715837Y6449575D01*
X-6779085Y6357010D01*
X-6801336Y6247130D01*
X-6801336Y5447030D01*
X-6782021Y5344380D01*
X-6765597Y5318857D01*
X-6853021Y5260443D01*
X-6853023Y5260440D01*
X-7244183Y4869281D01*
X-7337265Y4729974D01*
X-7361342Y4608931D01*
X-7369951Y4565649D01*
X-7369951Y1892049D01*
X-7526129Y1827517D01*
X-7681671Y1672246D01*
X-7765954Y1469271D01*
X-7766002Y1413761D01*
X-8787232Y392532D01*
X-8880314Y253225D01*
X-8904841Y129919D01*
X-8913000Y88900D01*
X-8913000Y-2861146D01*
X-8951671Y-2899750D01*
X-9035954Y-3102725D01*
X-9036146Y-3322503D01*
X-8952217Y-3525625D01*
X-8796946Y-3681167D01*
X-8593971Y-3765450D01*
X-8374193Y-3765642D01*
X-8171071Y-3681713D01*
X-8015529Y-3526442D01*
X-7931246Y-3323467D01*
X-7931054Y-3103689D01*
X-8014983Y-2900567D01*
X-8054200Y-2861282D01*
X-8054200Y-2686115D01*
X-5479032Y-2686115D01*
X-5472325Y-2784895D01*
X-5288796Y-2836764D01*
X-5099389Y-2814450D01*
X-5028035Y-2784895D01*
X-5021328Y-2686115D01*
X-4478272Y-2686115D01*
X-4471565Y-2784895D01*
X-4288036Y-2836764D01*
X-4098629Y-2814450D01*
X-4027275Y-2784895D01*
X-4020568Y-2686115D01*
X-3477512Y-2686115D01*
X-3470805Y-2784895D01*
X-3287276Y-2836764D01*
X-3097869Y-2814450D01*
X-3026515Y-2784895D01*
X-3019808Y-2686115D01*
X-3248660Y-2457263D01*
X-3477512Y-2686115D01*
X-4020568Y-2686115D01*
X-4249420Y-2457263D01*
X-4478272Y-2686115D01*
X-5021328Y-2686115D01*
X-5250180Y-2457263D01*
X-5479032Y-2686115D01*
X-8054200Y-2686115D01*
X-8054200Y-2310884D01*
X-5737444Y-2310884D01*
X-5715130Y-2500291D01*
X-5685575Y-2571645D01*
X-5586795Y-2578352D01*
X-5357943Y-2349500D01*
X-5142417Y-2349500D01*
X-4913565Y-2578352D01*
X-4814785Y-2571645D01*
X-4762916Y-2388116D01*
X-4772014Y-2310884D01*
X-4736684Y-2310884D01*
X-4714370Y-2500291D01*
X-4684815Y-2571645D01*
X-4586035Y-2578352D01*
X-4357183Y-2349500D01*
X-4141657Y-2349500D01*
X-3912805Y-2578352D01*
X-3814025Y-2571645D01*
X-3762156Y-2388116D01*
X-3771254Y-2310884D01*
X-3735924Y-2310884D01*
X-3713610Y-2500291D01*
X-3684055Y-2571645D01*
X-3585275Y-2578352D01*
X-3356423Y-2349500D01*
X-3140897Y-2349500D01*
X-2912045Y-2578352D01*
X-2813265Y-2571645D01*
X-2761396Y-2388116D01*
X-2783710Y-2198709D01*
X-2813265Y-2127355D01*
X-2912045Y-2120648D01*
X-3140897Y-2349500D01*
X-3356423Y-2349500D01*
X-3585275Y-2120648D01*
X-3684055Y-2127355D01*
X-3735924Y-2310884D01*
X-3771254Y-2310884D01*
X-3784470Y-2198709D01*
X-3814025Y-2127355D01*
X-3912805Y-2120648D01*
X-4141657Y-2349500D01*
X-4357183Y-2349500D01*
X-4586035Y-2120648D01*
X-4684815Y-2127355D01*
X-4736684Y-2310884D01*
X-4772014Y-2310884D01*
X-4785230Y-2198709D01*
X-4814785Y-2127355D01*
X-4913565Y-2120648D01*
X-5142417Y-2349500D01*
X-5357943Y-2349500D01*
X-5586795Y-2120648D01*
X-5685575Y-2127355D01*
X-5737444Y-2310884D01*
X-8054200Y-2310884D01*
X-8054200Y-2012885D01*
X-5479032Y-2012885D01*
X-5250180Y-2241737D01*
X-5021328Y-2012885D01*
X-4478272Y-2012885D01*
X-4249420Y-2241737D01*
X-4020568Y-2012885D01*
X-3477512Y-2012885D01*
X-3248660Y-2241737D01*
X-3019808Y-2012885D01*
X-3026515Y-1914105D01*
X-3210044Y-1862236D01*
X-3399451Y-1884550D01*
X-3470805Y-1914105D01*
X-3477512Y-2012885D01*
X-4020568Y-2012885D01*
X-4027275Y-1914105D01*
X-4210804Y-1862236D01*
X-4400211Y-1884550D01*
X-4471565Y-1914105D01*
X-4478272Y-2012885D01*
X-5021328Y-2012885D01*
X-5028035Y-1914105D01*
X-5211564Y-1862236D01*
X-5400971Y-1884550D01*
X-5472325Y-1914105D01*
X-5479032Y-2012885D01*
X-8054200Y-2012885D01*
X-8054200Y-1685355D01*
X-5479032Y-1685355D01*
X-5472325Y-1784135D01*
X-5288796Y-1836004D01*
X-5099389Y-1813690D01*
X-5028035Y-1784135D01*
X-5021328Y-1685355D01*
X-4478272Y-1685355D01*
X-4471565Y-1784135D01*
X-4288036Y-1836004D01*
X-4098629Y-1813690D01*
X-4027275Y-1784135D01*
X-4020568Y-1685355D01*
X-3477512Y-1685355D01*
X-3470805Y-1784135D01*
X-3287276Y-1836004D01*
X-3097869Y-1813690D01*
X-3026515Y-1784135D01*
X-3019808Y-1685355D01*
X-3248660Y-1456503D01*
X-3477512Y-1685355D01*
X-4020568Y-1685355D01*
X-4249420Y-1456503D01*
X-4478272Y-1685355D01*
X-5021328Y-1685355D01*
X-5250180Y-1456503D01*
X-5479032Y-1685355D01*
X-8054200Y-1685355D01*
X-8054200Y-1310124D01*
X-5737444Y-1310124D01*
X-5715130Y-1499531D01*
X-5685575Y-1570885D01*
X-5586795Y-1577592D01*
X-5357943Y-1348740D01*
X-5142417Y-1348740D01*
X-4913565Y-1577592D01*
X-4814785Y-1570885D01*
X-4762916Y-1387356D01*
X-4772014Y-1310124D01*
X-4736684Y-1310124D01*
X-4714370Y-1499531D01*
X-4684815Y-1570885D01*
X-4586035Y-1577592D01*
X-4357183Y-1348740D01*
X-4141657Y-1348740D01*
X-3912805Y-1577592D01*
X-3814025Y-1570885D01*
X-3762156Y-1387356D01*
X-3771254Y-1310124D01*
X-3735924Y-1310124D01*
X-3713610Y-1499531D01*
X-3684055Y-1570885D01*
X-3585275Y-1577592D01*
X-3356423Y-1348740D01*
X-3140897Y-1348740D01*
X-2912045Y-1577592D01*
X-2813265Y-1570885D01*
X-2761396Y-1387356D01*
X-2783710Y-1197949D01*
X-2813265Y-1126595D01*
X-2912045Y-1119888D01*
X-3140897Y-1348740D01*
X-3356423Y-1348740D01*
X-3585275Y-1119888D01*
X-3684055Y-1126595D01*
X-3735924Y-1310124D01*
X-3771254Y-1310124D01*
X-3784470Y-1197949D01*
X-3814025Y-1126595D01*
X-3912805Y-1119888D01*
X-4141657Y-1348740D01*
X-4357183Y-1348740D01*
X-4586035Y-1119888D01*
X-4684815Y-1126595D01*
X-4736684Y-1310124D01*
X-4772014Y-1310124D01*
X-4785230Y-1197949D01*
X-4814785Y-1126595D01*
X-4913565Y-1119888D01*
X-5142417Y-1348740D01*
X-5357943Y-1348740D01*
X-5586795Y-1119888D01*
X-5685575Y-1126595D01*
X-5737444Y-1310124D01*
X-8054200Y-1310124D01*
X-8054200Y-1012125D01*
X-5479032Y-1012125D01*
X-5250180Y-1240977D01*
X-5021328Y-1012125D01*
X-4478272Y-1012125D01*
X-4249420Y-1240977D01*
X-4020568Y-1012125D01*
X-3477512Y-1012125D01*
X-3248660Y-1240977D01*
X-3019808Y-1012125D01*
X-3026515Y-913345D01*
X-3210044Y-861476D01*
X-3399451Y-883790D01*
X-3470805Y-913345D01*
X-3477512Y-1012125D01*
X-4020568Y-1012125D01*
X-4027275Y-913345D01*
X-4210804Y-861476D01*
X-4400211Y-883790D01*
X-4471565Y-913345D01*
X-4478272Y-1012125D01*
X-5021328Y-1012125D01*
X-5028035Y-913345D01*
X-5211564Y-861476D01*
X-5400971Y-883790D01*
X-5472325Y-913345D01*
X-5479032Y-1012125D01*
X-8054200Y-1012125D01*
X-8054200Y-684595D01*
X-5479032Y-684595D01*
X-5472325Y-783375D01*
X-5288796Y-835244D01*
X-5099389Y-812930D01*
X-5028035Y-783375D01*
X-5021328Y-684595D01*
X-4478272Y-684595D01*
X-4471565Y-783375D01*
X-4288036Y-835244D01*
X-4098629Y-812930D01*
X-4027275Y-783375D01*
X-4020568Y-684595D01*
X-3477512Y-684595D01*
X-3470805Y-783375D01*
X-3287276Y-835244D01*
X-3097869Y-812930D01*
X-3026515Y-783375D01*
X-3019808Y-684595D01*
X-3248660Y-455743D01*
X-3477512Y-684595D01*
X-4020568Y-684595D01*
X-4249420Y-455743D01*
X-4478272Y-684595D01*
X-5021328Y-684595D01*
X-5250180Y-455743D01*
X-5479032Y-684595D01*
X-8054200Y-684595D01*
X-8054200Y-309364D01*
X-5737444Y-309364D01*
X-5715130Y-498771D01*
X-5685575Y-570125D01*
X-5586795Y-576832D01*
X-5357943Y-347980D01*
X-5142417Y-347980D01*
X-4913565Y-576832D01*
X-4814785Y-570125D01*
X-4762916Y-386596D01*
X-4772014Y-309364D01*
X-4736684Y-309364D01*
X-4714370Y-498771D01*
X-4684815Y-570125D01*
X-4586035Y-576832D01*
X-4357183Y-347980D01*
X-4141657Y-347980D01*
X-3912805Y-576832D01*
X-3814025Y-570125D01*
X-3762156Y-386596D01*
X-3771254Y-309364D01*
X-3735924Y-309364D01*
X-3713610Y-498771D01*
X-3684055Y-570125D01*
X-3585275Y-576832D01*
X-3356423Y-347980D01*
X-3140897Y-347980D01*
X-2912045Y-576832D01*
X-2813265Y-570125D01*
X-2761396Y-386596D01*
X-2783710Y-197189D01*
X-2813265Y-125835D01*
X-2912045Y-119128D01*
X-3140897Y-347980D01*
X-3356423Y-347980D01*
X-3585275Y-119128D01*
X-3684055Y-125835D01*
X-3735924Y-309364D01*
X-3771254Y-309364D01*
X-3784470Y-197189D01*
X-3814025Y-125835D01*
X-3912805Y-119128D01*
X-4141657Y-347980D01*
X-4357183Y-347980D01*
X-4586035Y-119128D01*
X-4684815Y-125835D01*
X-4736684Y-309364D01*
X-4772014Y-309364D01*
X-4785230Y-197189D01*
X-4814785Y-125835D01*
X-4913565Y-119128D01*
X-5142417Y-347980D01*
X-5357943Y-347980D01*
X-5586795Y-119128D01*
X-5685575Y-125835D01*
X-5737444Y-309364D01*
X-8054200Y-309364D01*
X-8054200Y-88964D01*
X-7976602Y-11365D01*
X-5479032Y-11365D01*
X-5250180Y-240217D01*
X-5021328Y-11365D01*
X-4478272Y-11365D01*
X-4249420Y-240217D01*
X-4020568Y-11365D01*
X-3477512Y-11365D01*
X-3248660Y-240217D01*
X-3019808Y-11365D01*
X-3026515Y87415D01*
X-3210044Y139284D01*
X-3399451Y116970D01*
X-3470805Y87415D01*
X-3477512Y-11365D01*
X-4020568Y-11365D01*
X-4027275Y87415D01*
X-4210804Y139284D01*
X-4400211Y116970D01*
X-4471565Y87415D01*
X-4478272Y-11365D01*
X-5021328Y-11365D01*
X-5028035Y87415D01*
X-5211564Y139284D01*
X-5400971Y116970D01*
X-5472325Y87415D01*
X-5479032Y-11365D01*
X-7976602Y-11365D01*
X-7158835Y806402D01*
X-7104193Y806354D01*
X-6901071Y890283D01*
X-6745529Y1045554D01*
X-6661246Y1248529D01*
X-6661198Y1304039D01*
X-6636922Y1328315D01*
X-6636919Y1328317D01*
X-6543837Y1467625D01*
X-6538153Y1496200D01*
X-6511150Y1631949D01*
X-6511151Y1631954D01*
X-6511151Y4387785D01*
X-6371526Y4527411D01*
X-4445064Y4527411D01*
X-3919323Y4001671D01*
X-3919321Y4001668D01*
X-3828418Y3940929D01*
X-3780013Y3908586D01*
X-3615689Y3875899D01*
X-3615684Y3875900D01*
X-2950733Y3875900D01*
X-2867018Y3859248D01*
X-1178797Y3859248D01*
X-1129017Y3738771D01*
X-973746Y3583229D01*
X-770771Y3498946D01*
X-550993Y3498754D01*
X-347871Y3582683D01*
X-339190Y3591349D01*
X942200Y3591349D01*
X942200Y2850027D01*
X936480Y2863871D01*
X781883Y3018738D01*
X579790Y3102654D01*
X360966Y3102845D01*
X158727Y3019282D01*
X3860Y2864685D01*
X-80056Y2662592D01*
X-80247Y2443768D01*
X1911Y2244929D01*
X-1267980Y3514820D01*
X-1378446Y3588631D01*
X-1508750Y3614550D01*
X-2813896Y3614550D01*
X-2939215Y3740088D01*
X-3141308Y3824004D01*
X-3360132Y3824195D01*
X-3562371Y3740632D01*
X-3717238Y3586035D01*
X-3801154Y3383942D01*
X-3801154Y3383940D01*
X-3801345Y3165116D01*
X-3717782Y2962877D01*
X-3692533Y2937584D01*
X-3717238Y2912922D01*
X-3801154Y2710829D01*
X-3801154Y2710827D01*
X-3801345Y2492003D01*
X-3717859Y2289951D01*
X-4225091Y2289951D01*
X-4225055Y2331432D01*
X-4308618Y2533671D01*
X-4463215Y2688538D01*
X-4665308Y2772454D01*
X-4884132Y2772645D01*
X-5086371Y2689082D01*
X-5241238Y2534485D01*
X-5325154Y2332392D01*
X-5325345Y2113568D01*
X-5241782Y1911329D01*
X-5087185Y1756462D01*
X-4885092Y1672546D01*
X-4688584Y1672374D01*
X-4632455Y1634870D01*
X-4502151Y1608951D01*
X-1137991Y1608951D01*
X-543700Y1014660D01*
X-543700Y-2376514D01*
X-556868Y-2371046D01*
X-775692Y-2370855D01*
X-977931Y-2454418D01*
X-1132798Y-2609015D01*
X-1216714Y-2811108D01*
X-1216905Y-3029932D01*
X-1133342Y-3232171D01*
X-1007260Y-3358473D01*
X-1007260Y-4259520D01*
X-1474540Y-4726800D01*
X-4386250Y-4726800D01*
X-4516554Y-4752719D01*
X-4581616Y-4796192D01*
X-4627020Y-4826530D01*
X-6313910Y-6513420D01*
X-6352894Y-6571764D01*
X-6398260Y-6571764D01*
X-6500910Y-6591079D01*
X-6595187Y-6651745D01*
X-6658435Y-6744310D01*
X-6680686Y-6854190D01*
X-6680686Y-7826970D01*
X-11948470Y-7826970D01*
X-11948470Y-1745310D01*
X-11873616Y-1745310D01*
X-11873616Y-2245690D01*
X-11854301Y-2348340D01*
X-11793635Y-2442617D01*
X-11706900Y-2501881D01*
X-11706900Y-3632300D01*
X-11680981Y-3762604D01*
X-11607170Y-3873070D01*
X-11268790Y-4211450D01*
X-11268945Y-4388832D01*
X-11185382Y-4591071D01*
X-11030785Y-4745938D01*
X-10828692Y-4829854D01*
X-10609868Y-4830045D01*
X-10407629Y-4746482D01*
X-10405596Y-4744453D01*
X-10405596Y-5854700D01*
X-10386281Y-5957350D01*
X-10325615Y-6051627D01*
X-10233050Y-6114875D01*
X-10123170Y-6137126D01*
X-9673590Y-6137126D01*
X-9570940Y-6117811D01*
X-9476663Y-6057145D01*
X-9413415Y-5964580D01*
X-9391164Y-5854700D01*
X-9391164Y-4554220D01*
X-9410479Y-4451570D01*
X-9471145Y-4357293D01*
X-9563710Y-4294045D01*
X-9673590Y-4271794D01*
X-10123170Y-4271794D01*
X-10168750Y-4280371D01*
X-10168655Y-4170968D01*
X-10188754Y-4122325D01*
X-10123170Y-4135606D01*
X-9673590Y-4135606D01*
X-9570940Y-4116291D01*
X-9476663Y-4055625D01*
X-9413415Y-3963060D01*
X-9391164Y-3853180D01*
X-9391164Y-2552700D01*
X-9410479Y-2450050D01*
X-9471145Y-2355773D01*
X-9563710Y-2292525D01*
X-9673590Y-2270274D01*
X-10051362Y-2270274D01*
X-10046384Y-2245690D01*
X-10046384Y-1745310D01*
X-10065699Y-1642660D01*
X-10126365Y-1548383D01*
X-10218930Y-1485135D01*
X-10328810Y-1462884D01*
X-10778390Y-1462884D01*
X-10881040Y-1482199D01*
X-10960858Y-1533561D01*
X-11031730Y-1485135D01*
X-11141610Y-1462884D01*
X-11591190Y-1462884D01*
X-11693840Y-1482199D01*
X-11788117Y-1542865D01*
X-11851365Y-1635430D01*
X-11873616Y-1745310D01*
X-11948470Y-1745310D01*
X-11948470Y-221310D01*
X-11924596Y-221310D01*
X-11924596Y-721690D01*
X-11901795Y-842869D01*
X-11830178Y-954164D01*
X-11720904Y-1028828D01*
X-11591190Y-1055096D01*
X-11141610Y-1055096D01*
X-11020431Y-1032295D01*
X-10959970Y-993389D01*
X-10908104Y-1028828D01*
X-10778390Y-1055096D01*
X-10328810Y-1055096D01*
X-10207631Y-1032295D01*
X-10096336Y-960678D01*
X-10021672Y-851404D01*
X-9995404Y-721690D01*
X-9995404Y-221310D01*
X-10018205Y-100131D01*
X-10089822Y11164D01*
X-10199096Y85828D01*
X-10328810Y112096D01*
X-10778390Y112096D01*
X-10899569Y89295D01*
X-10960030Y50389D01*
X-11011896Y85828D01*
X-11141610Y112096D01*
X-11591190Y112096D01*
X-11712369Y89295D01*
X-11823664Y17678D01*
X-11898328Y-91596D01*
X-11924596Y-221310D01*
X-11948470Y-221310D01*
X-11948470Y7197090D01*
X-10829776Y7197090D01*
X-10829776Y5497830D01*
X-10810461Y5395180D01*
X-10749795Y5300903D01*
X-10657230Y5237655D01*
X-10547350Y5215404D01*
X-9147810Y5215404D01*
X-9045160Y5234719D01*
X-8950883Y5295385D01*
X-8887635Y5387950D01*
X-8865384Y5497830D01*
X-8865384Y7197090D01*
X-8884699Y7299740D01*
X-8945365Y7394017D01*
X-9037930Y7457265D01*
X-9147810Y7479516D01*
X-10547350Y7479516D01*
X-10650000Y7460201D01*
X-10744277Y7399535D01*
X-10807525Y7306970D01*
X-10829776Y7197090D01*
X-11948470Y7197090D01*
X-11948470Y7794970D01*
X3323470Y7794970D01*
X3323470Y7152706D01*
G36*
X-10441205Y-346405D02*
X-10406600Y-346405D01*
X-10406600Y-596595D01*
X-10441205Y-596595D01*
X-10441205Y-618500D01*
X-10665995Y-618500D01*
X-10665995Y-596595D01*
X-10700600Y-596595D01*
X-10700600Y-346405D01*
X-10665995Y-346405D01*
X-10665995Y-324500D01*
X-10441205Y-324500D01*
X-10441205Y-346405D01*
X-10441205Y-346405D01*
G37*
X-10441205Y-346405D02*
X-10406600Y-346405D01*
X-10406600Y-596595D01*
X-10441205Y-596595D01*
X-10441205Y-618500D01*
X-10665995Y-618500D01*
X-10665995Y-596595D01*
X-10700600Y-596595D01*
X-10700600Y-346405D01*
X-10665995Y-346405D01*
X-10665995Y-324500D01*
X-10441205Y-324500D01*
X-10441205Y-346405D01*
G36*
X-11254005Y-346405D02*
X-11219400Y-346405D01*
X-11219400Y-596595D01*
X-11254005Y-596595D01*
X-11254005Y-618500D01*
X-11478795Y-618500D01*
X-11478795Y-596595D01*
X-11513400Y-596595D01*
X-11513400Y-346405D01*
X-11478795Y-346405D01*
X-11478795Y-324500D01*
X-11254005Y-324500D01*
X-11254005Y-346405D01*
X-11254005Y-346405D01*
G37*
X-11254005Y-346405D02*
X-11219400Y-346405D01*
X-11219400Y-596595D01*
X-11254005Y-596595D01*
X-11254005Y-618500D01*
X-11478795Y-618500D01*
X-11478795Y-596595D01*
X-11513400Y-596595D01*
X-11513400Y-346405D01*
X-11478795Y-346405D01*
X-11478795Y-324500D01*
X-11254005Y-324500D01*
X-11254005Y-346405D01*
G36*
X9173070Y-7826970D02*
X4676530Y-7826970D01*
X4676530Y-7103500D01*
X4651674Y-6978542D01*
X4580892Y-6872608D01*
X4474958Y-6801826D01*
X4350000Y-6776970D01*
X3650000Y-6776970D01*
X3525042Y-6801826D01*
X3419108Y-6872608D01*
X3348326Y-6978542D01*
X3323470Y-7103500D01*
X3323470Y-7826970D01*
X935386Y-7826970D01*
X935386Y-7556500D01*
X403860Y-7556500D01*
X403860Y-7576500D01*
X149860Y-7576500D01*
X149860Y-7556500D01*
X129860Y-7556500D01*
X129860Y-7302500D01*
X149860Y-7302500D01*
X149860Y-6520784D01*
X403860Y-6520784D01*
X403860Y-7302500D01*
X935386Y-7302500D01*
X935386Y-6854190D01*
X912585Y-6733011D01*
X840968Y-6621716D01*
X731694Y-6547052D01*
X601980Y-6520784D01*
X403860Y-6520784D01*
X149860Y-6520784D01*
X-48260Y-6520784D01*
X-169439Y-6543585D01*
X-280734Y-6615202D01*
X-355398Y-6724476D01*
X-373169Y-6812231D01*
X-384589Y-6751540D01*
X-445255Y-6657263D01*
X-537820Y-6594015D01*
X-632320Y-6574878D01*
X-632320Y-6467810D01*
X558270Y-5277220D01*
X632081Y-5166754D01*
X658000Y-5036450D01*
X658000Y-4894311D01*
X753229Y-4933854D01*
X973007Y-4934046D01*
X1176129Y-4850117D01*
X1331671Y-4694846D01*
X1390064Y-4554220D01*
X1893084Y-4554220D01*
X1893084Y-5854700D01*
X1912399Y-5957350D01*
X1973065Y-6051627D01*
X2065630Y-6114875D01*
X2175510Y-6137126D01*
X2625090Y-6137126D01*
X2727740Y-6117811D01*
X2822017Y-6057145D01*
X2885265Y-5964580D01*
X2907516Y-5854700D01*
X2907516Y-5715750D01*
X4932828Y-5715750D01*
X5011047Y-6108984D01*
X5233796Y-6442352D01*
X5567164Y-6665101D01*
X5960398Y-6743320D01*
X8038802Y-6743320D01*
X8432036Y-6665101D01*
X8765404Y-6442352D01*
X8988153Y-6108984D01*
X9066372Y-5715750D01*
X8988153Y-5322516D01*
X8765404Y-4989148D01*
X8432036Y-4766399D01*
X8038802Y-4688180D01*
X5960398Y-4688180D01*
X5567164Y-4766399D01*
X5233796Y-4989148D01*
X5011047Y-5322516D01*
X4932828Y-5715750D01*
X2907516Y-5715750D01*
X2907516Y-4554220D01*
X2888201Y-4451570D01*
X2827535Y-4357293D01*
X2734970Y-4294045D01*
X2625090Y-4271794D01*
X2175510Y-4271794D01*
X2072860Y-4291109D01*
X1978583Y-4351775D01*
X1915335Y-4444340D01*
X1893084Y-4554220D01*
X1390064Y-4554220D01*
X1415954Y-4491871D01*
X1416146Y-4272093D01*
X1332217Y-4068971D01*
X1293000Y-4029686D01*
X1293000Y-2552700D01*
X1893084Y-2552700D01*
X1893084Y-3853180D01*
X1912399Y-3955830D01*
X1973065Y-4050107D01*
X2065630Y-4113355D01*
X2175510Y-4135606D01*
X2625090Y-4135606D01*
X2727740Y-4116291D01*
X2822017Y-4055625D01*
X2885265Y-3963060D01*
X2907516Y-3853180D01*
X2907516Y-2552700D01*
X2888201Y-2450050D01*
X2827535Y-2355773D01*
X2734970Y-2292525D01*
X2625090Y-2270274D01*
X2175510Y-2270274D01*
X2072860Y-2289589D01*
X1978583Y-2350255D01*
X1915335Y-2442820D01*
X1893084Y-2552700D01*
X1293000Y-2552700D01*
X1293000Y-2070164D01*
X1675229Y-1687934D01*
X1675232Y-1687932D01*
X1768314Y-1548624D01*
X1801000Y-1384300D01*
X1801000Y2294037D01*
X1937107Y2157692D01*
X2139200Y2073776D01*
X2358024Y2073585D01*
X2560263Y2157148D01*
X2715130Y2311745D01*
X2799046Y2513838D01*
X2799237Y2732662D01*
X2715674Y2934901D01*
X2561077Y3089768D01*
X2358984Y3173684D01*
X2328043Y3173711D01*
X2328043Y3275380D01*
X3272530Y3275380D01*
X3272530Y2819645D01*
X3322313Y2699459D01*
X3414300Y2607473D01*
X3534486Y2557690D01*
X4390270Y2557690D01*
X4472020Y2639440D01*
X4472020Y3357130D01*
X3354280Y3357130D01*
X3272530Y3275380D01*
X2328043Y3275380D01*
X2328043Y4015600D01*
X3272530Y4015600D01*
X3272530Y3692880D01*
X3354280Y3611130D01*
X4472020Y3611130D01*
X4472020Y3631130D01*
X4726020Y3631130D01*
X4726020Y3611130D01*
X4746020Y3611130D01*
X4746020Y3357130D01*
X4726020Y3357130D01*
X4726020Y2639440D01*
X4807770Y2557690D01*
X5603100Y2557690D01*
X5603100Y1880947D01*
X5598510Y1881876D01*
X3599530Y1881876D01*
X3496880Y1862561D01*
X3402603Y1801895D01*
X3339355Y1709330D01*
X3317104Y1599450D01*
X3317104Y1512205D01*
X3309185Y1520138D01*
X3107092Y1604054D01*
X2888268Y1604245D01*
X2686029Y1520682D01*
X2531162Y1366085D01*
X2447246Y1163992D01*
X2447197Y1107967D01*
X2422216Y1082986D01*
X2329654Y944457D01*
X2297150Y781051D01*
X2297151Y781046D01*
X2297151Y-849161D01*
X2277162Y-869115D01*
X2193246Y-1071208D01*
X2193055Y-1290032D01*
X2276618Y-1492271D01*
X2431215Y-1647138D01*
X2633308Y-1731054D01*
X2852132Y-1731245D01*
X3054371Y-1647682D01*
X3209238Y-1493085D01*
X3293154Y-1290992D01*
X3293345Y-1072168D01*
X3209782Y-869929D01*
X3151151Y-811196D01*
X3151151Y-455586D01*
X3159898Y-459218D01*
X3317104Y-616424D01*
X3317104Y-1616190D01*
X3336419Y-1718840D01*
X3397085Y-1813117D01*
X3489650Y-1876365D01*
X3599530Y-1898616D01*
X4201956Y-1898616D01*
X4123646Y-2087208D01*
X4123455Y-2306032D01*
X4207018Y-2508271D01*
X4332771Y-2634244D01*
X3599530Y-2634244D01*
X3496880Y-2653559D01*
X3402603Y-2714225D01*
X3339355Y-2806790D01*
X3317104Y-2916670D01*
X3317104Y-4115550D01*
X3336419Y-4218200D01*
X3397085Y-4312477D01*
X3489650Y-4375725D01*
X3599530Y-4397976D01*
X4146937Y-4397976D01*
X4072846Y-4576408D01*
X4072655Y-4795232D01*
X4156218Y-4997471D01*
X4310815Y-5152338D01*
X4512908Y-5236254D01*
X4731732Y-5236445D01*
X4933971Y-5152882D01*
X5088838Y-4998285D01*
X5172754Y-4796192D01*
X5172945Y-4577368D01*
X5098822Y-4397976D01*
X5598510Y-4397976D01*
X5701160Y-4378661D01*
X5795437Y-4317995D01*
X5858685Y-4225430D01*
X5880936Y-4115550D01*
X5880936Y-2916670D01*
X5861621Y-2814020D01*
X5800955Y-2719743D01*
X5708390Y-2656495D01*
X5598510Y-2634244D01*
X5014260Y-2634244D01*
X5139638Y-2509085D01*
X5172397Y-2430191D01*
X6172547Y-2430191D01*
X6298171Y-2734225D01*
X6530582Y-2967041D01*
X6834396Y-3093196D01*
X7163361Y-3093483D01*
X7467395Y-2967859D01*
X7700211Y-2735448D01*
X7826366Y-2431634D01*
X7826653Y-2102669D01*
X7701029Y-1798635D01*
X7468618Y-1565819D01*
X7164804Y-1439664D01*
X6835839Y-1439377D01*
X6531805Y-1565001D01*
X6298989Y-1797412D01*
X6172834Y-2101226D01*
X6172547Y-2430191D01*
X5172397Y-2430191D01*
X5223554Y-2306992D01*
X5223745Y-2088168D01*
X5145424Y-1898616D01*
X5598510Y-1898616D01*
X5701160Y-1879301D01*
X5795437Y-1818635D01*
X5858685Y-1726070D01*
X5880936Y-1616190D01*
X5880936Y-417310D01*
X5861621Y-314660D01*
X5800955Y-220383D01*
X5708390Y-157135D01*
X5598510Y-134884D01*
X3798644Y-134884D01*
X3783261Y-119501D01*
X3824165Y-20992D01*
X3824286Y118144D01*
X5598510Y118144D01*
X5701160Y137459D01*
X5795437Y198125D01*
X5858685Y290690D01*
X5860569Y299991D01*
X6409610Y-249050D01*
X6409455Y-426432D01*
X6493018Y-628671D01*
X6647615Y-783538D01*
X6849708Y-867454D01*
X7068532Y-867645D01*
X7270771Y-784082D01*
X7425638Y-629485D01*
X7509554Y-427392D01*
X7509745Y-208568D01*
X7426182Y-6329D01*
X7356489Y63486D01*
X7425638Y132515D01*
X7509554Y334608D01*
X7509745Y553432D01*
X7426182Y755671D01*
X7271585Y910538D01*
X7069492Y994454D01*
X6891030Y994610D01*
X6599689Y1285951D01*
X6599689Y1505143D01*
X6834396Y1407684D01*
X7163361Y1407397D01*
X7467395Y1533021D01*
X7700211Y1765432D01*
X7826366Y2069246D01*
X7826653Y2398211D01*
X7701029Y2702245D01*
X7468618Y2935061D01*
X7164804Y3061216D01*
X6835839Y3061503D01*
X6599689Y2963928D01*
X6599689Y4196535D01*
X6573770Y4326839D01*
X6499959Y4437305D01*
X6281064Y4656200D01*
X8038802Y4656200D01*
X8432036Y4734419D01*
X8765404Y4957168D01*
X8988153Y5290536D01*
X9066372Y5683770D01*
X8988153Y6077004D01*
X8765404Y6410372D01*
X8432036Y6633121D01*
X8038802Y6711340D01*
X5960398Y6711340D01*
X5567164Y6633121D01*
X5233796Y6410372D01*
X5011047Y6077004D01*
X4932828Y5683770D01*
X5011047Y5290536D01*
X5204241Y5001400D01*
X2430664Y5001400D01*
X2318260Y5113804D01*
X3051810Y5113804D01*
X3154460Y5133119D01*
X3248737Y5193785D01*
X3311985Y5286350D01*
X3334236Y5396230D01*
X3334236Y7042376D01*
X3348326Y6971542D01*
X3419108Y6865608D01*
X3525042Y6794826D01*
X3650000Y6769970D01*
X4350000Y6769970D01*
X4474958Y6794826D01*
X4580892Y6865608D01*
X4651674Y6971542D01*
X4676530Y7096500D01*
X4676530Y7794970D01*
X9173070Y7794970D01*
X9173070Y-7826970D01*
X9173070Y-7826970D01*
G37*
X9173070Y-7826970D02*
X4676530Y-7826970D01*
X4676530Y-7103500D01*
X4651674Y-6978542D01*
X4580892Y-6872608D01*
X4474958Y-6801826D01*
X4350000Y-6776970D01*
X3650000Y-6776970D01*
X3525042Y-6801826D01*
X3419108Y-6872608D01*
X3348326Y-6978542D01*
X3323470Y-7103500D01*
X3323470Y-7826970D01*
X935386Y-7826970D01*
X935386Y-7556500D01*
X403860Y-7556500D01*
X403860Y-7576500D01*
X149860Y-7576500D01*
X149860Y-7556500D01*
X129860Y-7556500D01*
X129860Y-7302500D01*
X149860Y-7302500D01*
X149860Y-6520784D01*
X403860Y-6520784D01*
X403860Y-7302500D01*
X935386Y-7302500D01*
X935386Y-6854190D01*
X912585Y-6733011D01*
X840968Y-6621716D01*
X731694Y-6547052D01*
X601980Y-6520784D01*
X403860Y-6520784D01*
X149860Y-6520784D01*
X-48260Y-6520784D01*
X-169439Y-6543585D01*
X-280734Y-6615202D01*
X-355398Y-6724476D01*
X-373169Y-6812231D01*
X-384589Y-6751540D01*
X-445255Y-6657263D01*
X-537820Y-6594015D01*
X-632320Y-6574878D01*
X-632320Y-6467810D01*
X558270Y-5277220D01*
X632081Y-5166754D01*
X658000Y-5036450D01*
X658000Y-4894311D01*
X753229Y-4933854D01*
X973007Y-4934046D01*
X1176129Y-4850117D01*
X1331671Y-4694846D01*
X1390064Y-4554220D01*
X1893084Y-4554220D01*
X1893084Y-5854700D01*
X1912399Y-5957350D01*
X1973065Y-6051627D01*
X2065630Y-6114875D01*
X2175510Y-6137126D01*
X2625090Y-6137126D01*
X2727740Y-6117811D01*
X2822017Y-6057145D01*
X2885265Y-5964580D01*
X2907516Y-5854700D01*
X2907516Y-5715750D01*
X4932828Y-5715750D01*
X5011047Y-6108984D01*
X5233796Y-6442352D01*
X5567164Y-6665101D01*
X5960398Y-6743320D01*
X8038802Y-6743320D01*
X8432036Y-6665101D01*
X8765404Y-6442352D01*
X8988153Y-6108984D01*
X9066372Y-5715750D01*
X8988153Y-5322516D01*
X8765404Y-4989148D01*
X8432036Y-4766399D01*
X8038802Y-4688180D01*
X5960398Y-4688180D01*
X5567164Y-4766399D01*
X5233796Y-4989148D01*
X5011047Y-5322516D01*
X4932828Y-5715750D01*
X2907516Y-5715750D01*
X2907516Y-4554220D01*
X2888201Y-4451570D01*
X2827535Y-4357293D01*
X2734970Y-4294045D01*
X2625090Y-4271794D01*
X2175510Y-4271794D01*
X2072860Y-4291109D01*
X1978583Y-4351775D01*
X1915335Y-4444340D01*
X1893084Y-4554220D01*
X1390064Y-4554220D01*
X1415954Y-4491871D01*
X1416146Y-4272093D01*
X1332217Y-4068971D01*
X1293000Y-4029686D01*
X1293000Y-2552700D01*
X1893084Y-2552700D01*
X1893084Y-3853180D01*
X1912399Y-3955830D01*
X1973065Y-4050107D01*
X2065630Y-4113355D01*
X2175510Y-4135606D01*
X2625090Y-4135606D01*
X2727740Y-4116291D01*
X2822017Y-4055625D01*
X2885265Y-3963060D01*
X2907516Y-3853180D01*
X2907516Y-2552700D01*
X2888201Y-2450050D01*
X2827535Y-2355773D01*
X2734970Y-2292525D01*
X2625090Y-2270274D01*
X2175510Y-2270274D01*
X2072860Y-2289589D01*
X1978583Y-2350255D01*
X1915335Y-2442820D01*
X1893084Y-2552700D01*
X1293000Y-2552700D01*
X1293000Y-2070164D01*
X1675229Y-1687934D01*
X1675232Y-1687932D01*
X1768314Y-1548624D01*
X1801000Y-1384300D01*
X1801000Y2294037D01*
X1937107Y2157692D01*
X2139200Y2073776D01*
X2358024Y2073585D01*
X2560263Y2157148D01*
X2715130Y2311745D01*
X2799046Y2513838D01*
X2799237Y2732662D01*
X2715674Y2934901D01*
X2561077Y3089768D01*
X2358984Y3173684D01*
X2328043Y3173711D01*
X2328043Y3275380D01*
X3272530Y3275380D01*
X3272530Y2819645D01*
X3322313Y2699459D01*
X3414300Y2607473D01*
X3534486Y2557690D01*
X4390270Y2557690D01*
X4472020Y2639440D01*
X4472020Y3357130D01*
X3354280Y3357130D01*
X3272530Y3275380D01*
X2328043Y3275380D01*
X2328043Y4015600D01*
X3272530Y4015600D01*
X3272530Y3692880D01*
X3354280Y3611130D01*
X4472020Y3611130D01*
X4472020Y3631130D01*
X4726020Y3631130D01*
X4726020Y3611130D01*
X4746020Y3611130D01*
X4746020Y3357130D01*
X4726020Y3357130D01*
X4726020Y2639440D01*
X4807770Y2557690D01*
X5603100Y2557690D01*
X5603100Y1880947D01*
X5598510Y1881876D01*
X3599530Y1881876D01*
X3496880Y1862561D01*
X3402603Y1801895D01*
X3339355Y1709330D01*
X3317104Y1599450D01*
X3317104Y1512205D01*
X3309185Y1520138D01*
X3107092Y1604054D01*
X2888268Y1604245D01*
X2686029Y1520682D01*
X2531162Y1366085D01*
X2447246Y1163992D01*
X2447197Y1107967D01*
X2422216Y1082986D01*
X2329654Y944457D01*
X2297150Y781051D01*
X2297151Y781046D01*
X2297151Y-849161D01*
X2277162Y-869115D01*
X2193246Y-1071208D01*
X2193055Y-1290032D01*
X2276618Y-1492271D01*
X2431215Y-1647138D01*
X2633308Y-1731054D01*
X2852132Y-1731245D01*
X3054371Y-1647682D01*
X3209238Y-1493085D01*
X3293154Y-1290992D01*
X3293345Y-1072168D01*
X3209782Y-869929D01*
X3151151Y-811196D01*
X3151151Y-455586D01*
X3159898Y-459218D01*
X3317104Y-616424D01*
X3317104Y-1616190D01*
X3336419Y-1718840D01*
X3397085Y-1813117D01*
X3489650Y-1876365D01*
X3599530Y-1898616D01*
X4201956Y-1898616D01*
X4123646Y-2087208D01*
X4123455Y-2306032D01*
X4207018Y-2508271D01*
X4332771Y-2634244D01*
X3599530Y-2634244D01*
X3496880Y-2653559D01*
X3402603Y-2714225D01*
X3339355Y-2806790D01*
X3317104Y-2916670D01*
X3317104Y-4115550D01*
X3336419Y-4218200D01*
X3397085Y-4312477D01*
X3489650Y-4375725D01*
X3599530Y-4397976D01*
X4146937Y-4397976D01*
X4072846Y-4576408D01*
X4072655Y-4795232D01*
X4156218Y-4997471D01*
X4310815Y-5152338D01*
X4512908Y-5236254D01*
X4731732Y-5236445D01*
X4933971Y-5152882D01*
X5088838Y-4998285D01*
X5172754Y-4796192D01*
X5172945Y-4577368D01*
X5098822Y-4397976D01*
X5598510Y-4397976D01*
X5701160Y-4378661D01*
X5795437Y-4317995D01*
X5858685Y-4225430D01*
X5880936Y-4115550D01*
X5880936Y-2916670D01*
X5861621Y-2814020D01*
X5800955Y-2719743D01*
X5708390Y-2656495D01*
X5598510Y-2634244D01*
X5014260Y-2634244D01*
X5139638Y-2509085D01*
X5172397Y-2430191D01*
X6172547Y-2430191D01*
X6298171Y-2734225D01*
X6530582Y-2967041D01*
X6834396Y-3093196D01*
X7163361Y-3093483D01*
X7467395Y-2967859D01*
X7700211Y-2735448D01*
X7826366Y-2431634D01*
X7826653Y-2102669D01*
X7701029Y-1798635D01*
X7468618Y-1565819D01*
X7164804Y-1439664D01*
X6835839Y-1439377D01*
X6531805Y-1565001D01*
X6298989Y-1797412D01*
X6172834Y-2101226D01*
X6172547Y-2430191D01*
X5172397Y-2430191D01*
X5223554Y-2306992D01*
X5223745Y-2088168D01*
X5145424Y-1898616D01*
X5598510Y-1898616D01*
X5701160Y-1879301D01*
X5795437Y-1818635D01*
X5858685Y-1726070D01*
X5880936Y-1616190D01*
X5880936Y-417310D01*
X5861621Y-314660D01*
X5800955Y-220383D01*
X5708390Y-157135D01*
X5598510Y-134884D01*
X3798644Y-134884D01*
X3783261Y-119501D01*
X3824165Y-20992D01*
X3824286Y118144D01*
X5598510Y118144D01*
X5701160Y137459D01*
X5795437Y198125D01*
X5858685Y290690D01*
X5860569Y299991D01*
X6409610Y-249050D01*
X6409455Y-426432D01*
X6493018Y-628671D01*
X6647615Y-783538D01*
X6849708Y-867454D01*
X7068532Y-867645D01*
X7270771Y-784082D01*
X7425638Y-629485D01*
X7509554Y-427392D01*
X7509745Y-208568D01*
X7426182Y-6329D01*
X7356489Y63486D01*
X7425638Y132515D01*
X7509554Y334608D01*
X7509745Y553432D01*
X7426182Y755671D01*
X7271585Y910538D01*
X7069492Y994454D01*
X6891030Y994610D01*
X6599689Y1285951D01*
X6599689Y1505143D01*
X6834396Y1407684D01*
X7163361Y1407397D01*
X7467395Y1533021D01*
X7700211Y1765432D01*
X7826366Y2069246D01*
X7826653Y2398211D01*
X7701029Y2702245D01*
X7468618Y2935061D01*
X7164804Y3061216D01*
X6835839Y3061503D01*
X6599689Y2963928D01*
X6599689Y4196535D01*
X6573770Y4326839D01*
X6499959Y4437305D01*
X6281064Y4656200D01*
X8038802Y4656200D01*
X8432036Y4734419D01*
X8765404Y4957168D01*
X8988153Y5290536D01*
X9066372Y5683770D01*
X8988153Y6077004D01*
X8765404Y6410372D01*
X8432036Y6633121D01*
X8038802Y6711340D01*
X5960398Y6711340D01*
X5567164Y6633121D01*
X5233796Y6410372D01*
X5011047Y6077004D01*
X4932828Y5683770D01*
X5011047Y5290536D01*
X5204241Y5001400D01*
X2430664Y5001400D01*
X2318260Y5113804D01*
X3051810Y5113804D01*
X3154460Y5133119D01*
X3248737Y5193785D01*
X3311985Y5286350D01*
X3334236Y5396230D01*
X3334236Y7042376D01*
X3348326Y6971542D01*
X3419108Y6865608D01*
X3525042Y6794826D01*
X3650000Y6769970D01*
X4350000Y6769970D01*
X4474958Y6794826D01*
X4580892Y6865608D01*
X4651674Y6971542D01*
X4676530Y7096500D01*
X4676530Y7794970D01*
X9173070Y7794970D01*
X9173070Y-7826970D01*
M02*
