G04 #@! TF.GenerationSoftware,KiCad,Pcbnew,(5.0.1)-4*
G04 #@! TF.CreationDate,2018-12-21T18:48:29+01:00*
G04 #@! TF.ProjectId,cryptostick,63727970746F737469636B2E6B696361,R1*
G04 #@! TF.SameCoordinates,PX791ddc0PY5e69114*
G04 #@! TF.FileFunction,Paste,Top*
G04 #@! TF.FilePolarity,Positive*
%FSLAX46Y46*%
G04 Gerber Fmt 4.6, Leading zero omitted, Abs format (unit mm)*
G04 Created by KiCad (PCBNEW (5.0.1)-4) date 21.12.2018 18:48:29*
%MOMM*%
%LPD*%
G01*
G04 APERTURE LIST*
%ADD10R,0.640080X0.558800*%
%ADD11R,0.599440X0.239776*%
%ADD12R,0.239776X0.599440*%
%ADD13R,3.279648X3.279648*%
%ADD14R,0.959104X0.495808*%
%ADD15R,0.955040X1.117600*%
%ADD16R,0.558800X0.640080*%
%ADD17R,0.240000X0.360000*%
G04 APERTURE END LIST*
D10*
G04 #@! TO.C,R3*
X-3464560Y-6959600D03*
X-4561840Y-6959600D03*
G04 #@! TD*
G04 #@! TO.C,C11*
X2649220Y-6515100D03*
X1551940Y-6515100D03*
G04 #@! TD*
G04 #@! TO.C,C7*
X-1897380Y-5549900D03*
X-800100Y-5549900D03*
G04 #@! TD*
D11*
G04 #@! TO.C,U1*
X-7025640Y652780D03*
X-7025640Y152400D03*
X-7025640Y-347980D03*
X-7025640Y-848360D03*
X-7025640Y-1348740D03*
X-7025640Y-1849120D03*
X-7025640Y-2349500D03*
X-7025640Y-2849880D03*
X-7025640Y-3350260D03*
D12*
X-6250940Y-4124960D03*
X-5750560Y-4124960D03*
X-5250180Y-4124960D03*
X-4749800Y-4124960D03*
X-4249420Y-4124960D03*
X-3749040Y-4124960D03*
X-3248660Y-4124960D03*
X-2748280Y-4124960D03*
X-2247900Y-4124960D03*
D11*
X-1473200Y-3350260D03*
X-1473200Y-2849880D03*
X-1473200Y-2349500D03*
X-1473200Y-1849120D03*
X-1473200Y-1348740D03*
X-1473200Y-848360D03*
X-1473200Y-347980D03*
X-1473200Y152400D03*
X-1473200Y652780D03*
D12*
X-2247900Y1427480D03*
X-2748280Y1427480D03*
X-3248660Y1427480D03*
X-3749040Y1427480D03*
X-4249420Y1427480D03*
X-4749800Y1427480D03*
X-5250180Y1427480D03*
X-5750560Y1427480D03*
X-6250940Y1427480D03*
D13*
X-4249420Y-1348740D03*
G04 #@! TD*
D14*
G04 #@! TO.C,U2*
X3159760Y-5331460D03*
X3159760Y-4381500D03*
X3159760Y-3431540D03*
X523240Y-3431540D03*
X523240Y-5331460D03*
G04 #@! TD*
D15*
G04 #@! TO.C,X1*
X-9601200Y5450840D03*
X-7899400Y5450840D03*
X-7899400Y3251200D03*
X-9601200Y3251200D03*
G04 #@! TD*
D10*
G04 #@! TO.C,C3*
X-8501380Y-850900D03*
X-9598660Y-850900D03*
G04 #@! TD*
G04 #@! TO.C,R1*
X-9748640Y-5603500D03*
X-8651360Y-5603500D03*
G04 #@! TD*
D16*
G04 #@! TO.C,C1*
X-6300000Y3147860D03*
X-6300000Y4245140D03*
G04 #@! TD*
D10*
G04 #@! TO.C,C7*
X-1897380Y-5549900D03*
X-800100Y-5549900D03*
G04 #@! TD*
G04 #@! TO.C,C6*
X2674620Y6550660D03*
X1577340Y6550660D03*
G04 #@! TD*
D16*
G04 #@! TO.C,C5*
X-4100000Y3147860D03*
X-4100000Y4245140D03*
G04 #@! TD*
D10*
G04 #@! TO.C,C4*
X-9598660Y-2499360D03*
X-8501380Y-2499360D03*
G04 #@! TD*
G04 #@! TO.C,C2*
X-9398000Y7099300D03*
X-8300720Y7099300D03*
G04 #@! TD*
G04 #@! TO.C,C9*
X-800100Y-6949440D03*
X-1897380Y-6949440D03*
G04 #@! TD*
G04 #@! TO.C,C8*
X2674620Y5300980D03*
X1577340Y5300980D03*
G04 #@! TD*
G04 #@! TO.C,C10*
X1026160Y-2298700D03*
X2123440Y-2298700D03*
G04 #@! TD*
G04 #@! TO.C,R2*
X-9748640Y-6903500D03*
X-8651360Y-6903500D03*
G04 #@! TD*
G04 #@! TO.C,R4*
X-5151360Y5596500D03*
X-6248640Y5596500D03*
G04 #@! TD*
G04 #@! TO.C,R6*
X1026160Y800100D03*
X2123440Y800100D03*
G04 #@! TD*
G04 #@! TO.C,R7*
X1026160Y1816100D03*
X2123440Y1816100D03*
G04 #@! TD*
G04 #@! TO.C,R5*
X1026160Y-317500D03*
X2123440Y-317500D03*
G04 #@! TD*
D17*
G04 #@! TO.C,U3*
X2903600Y-1931900D03*
X3903600Y-1931900D03*
X2903600Y-531900D03*
X3403600Y-1931900D03*
X3903600Y-531900D03*
G04 #@! TD*
M02*
