M48
;DRILL file {Pcbnew (25-Oct-2014 BZR 4029)-stable} date Mon 27 Apr 2015 22:18:40 CEST
;FORMAT={-:-/ absolute / metric / decimal}
FMAT,2
METRIC,TZ
T1C0.010
T2C0.300
T3C0.381
T4C0.500
T5C1.001
T6C1.100
%
G90
G05
M71
T1
X123.495Y92.75
X123.495Y92.75
X124.765Y92.75
X124.765Y92.75
X126.035Y92.75
X126.035Y92.75
X127.305Y92.75
X127.305Y92.75
T2
X121.75Y99.344
X121.75Y99.344
X121.75Y100.345
X121.75Y100.345
X121.75Y101.346
X121.75Y101.346
X122.751Y99.344
X122.751Y99.344
X122.751Y100.345
X122.751Y100.345
X122.751Y101.346
X122.751Y101.346
X123.751Y99.344
X123.751Y99.344
X123.751Y100.345
X123.751Y100.345
X123.751Y101.346
X123.751Y101.346
T3
X116.2Y102.175
X116.2Y102.175
X116.3Y103.15
X116.3Y103.15
X117.348Y96.977
X117.348Y96.977
X118.72Y102.768
X118.72Y102.768
X119.228Y96.926
X119.228Y96.926
X119.786Y97.638
X119.786Y97.638
X122.174Y94.59
X122.174Y94.59
X122.225Y96.774
X122.225Y96.774
X123.749Y95.555
X123.749Y95.555
X123.749Y96.266
X123.749Y96.266
X123.901Y93.98
X123.901Y93.98
X125.8Y91.65
X125.8Y91.65
X126.34Y94.945
X126.34Y94.945
X126.441Y95.86
X126.441Y95.86
X126.644Y101.854
X126.644Y101.854
X127.457Y104.699
X127.457Y104.699
X127.572Y96.584
X127.572Y96.584
X127.635Y100.012
X127.635Y100.012
X127.65Y93.9
X127.65Y93.9
X127.66Y95.453
X127.66Y95.453
X128.473Y102.108
X128.473Y102.108
X129.222Y98.615
X129.222Y98.615
X133.35Y97.98
X133.35Y97.98
X133.35Y100.012
X133.35Y100.012
X133.452Y102.565
X133.452Y102.565
X133.502Y95.199
X133.502Y95.199
T4
X120.2Y91.9
X120.2Y91.9
X122.2Y91.9
X122.2Y91.9
T6
X134.Y96.762
X134.Y101.263
T5
X134.749Y93.313G85X133.25Y93.313
G05
X134.749Y104.712G85X133.25Y104.712
G05
T0
M30
