G04 (created by PCBNEW (25-Oct-2014 BZR 4029)-stable) date Mon 27 Apr 2015 22:20:08 CEST*
%MOIN*%
G04 Gerber Fmt 3.4, Leading zero omitted, Abs format*
%FSLAX34Y34*%
G01*
G70*
G90*
G04 APERTURE LIST*
%ADD10C,0.00590551*%
%ADD11R,0.0435X0.0395*%
%ADD12R,0.0395X0.0435*%
%ADD13R,0.059X0.067*%
%ADD14R,0.0317X0.0277*%
%ADD15R,0.0592X0.0364*%
%ADD16R,0.041311X0.023611*%
%ADD17R,0.023611X0.041311*%
%ADD18R,0.173211X0.173211*%
%ADD19C,0.023811*%
%ADD20C,0.0551181*%
%ADD21C,0.0454646*%
%ADD22R,0.0454646X0.0454646*%
%ADD23O,0.1498X0.0711*%
%ADD24C,0.0553*%
G04 APERTURE END LIST*
G54D10*
G54D11*
X-2028Y2203D03*
X-2460Y2203D03*
X-3838Y-2717D03*
X-3406Y-2717D03*
X-1364Y-2740D03*
X-1796Y-2740D03*
X827Y-295D03*
X1259Y-295D03*
X1053Y2087D03*
X621Y2087D03*
X1043Y-2205D03*
X611Y-2205D03*
X-315Y-2736D03*
X-747Y-2736D03*
X-3700Y2795D03*
X-3268Y2795D03*
X-3779Y-984D03*
X-3347Y-984D03*
G54D12*
X-1614Y1239D03*
X-1614Y1671D03*
G54D11*
X1053Y2579D03*
X621Y2579D03*
X-747Y-2185D03*
X-315Y-2185D03*
G54D12*
X-2480Y1239D03*
X-2480Y1671D03*
G54D11*
X-3838Y-2206D03*
X-3406Y-2206D03*
X-3347Y-335D03*
X-3779Y-335D03*
G54D13*
X-3780Y2146D03*
X-3110Y2146D03*
X-3110Y1280D03*
X-3780Y1280D03*
G54D14*
X492Y728D03*
X492Y472D03*
X492Y216D03*
X1240Y216D03*
X1240Y472D03*
X1240Y728D03*
G54D15*
X1444Y-1575D03*
X1444Y-1201D03*
X1444Y-827D03*
X406Y-827D03*
X406Y-1575D03*
G54D16*
X-2766Y257D03*
X-2766Y60D03*
X-2766Y-137D03*
X-2766Y-334D03*
X-2766Y-531D03*
X-2766Y-728D03*
X-2766Y-925D03*
X-2766Y-1122D03*
X-2766Y-1319D03*
G54D17*
X-2461Y-1624D03*
X-2264Y-1624D03*
X-2067Y-1624D03*
X-1870Y-1624D03*
X-1673Y-1624D03*
X-1476Y-1624D03*
X-1279Y-1624D03*
X-1082Y-1624D03*
X-885Y-1624D03*
G54D16*
X-580Y-1319D03*
X-580Y-1122D03*
X-580Y-925D03*
X-580Y-728D03*
X-580Y-531D03*
X-580Y-334D03*
X-580Y-137D03*
X-580Y60D03*
X-580Y257D03*
G54D17*
X-885Y562D03*
X-1082Y562D03*
X-1279Y562D03*
X-1476Y562D03*
X-1673Y562D03*
X-1870Y562D03*
X-2067Y562D03*
X-2264Y562D03*
X-2461Y562D03*
G54D18*
X-1673Y-531D03*
G54D19*
X-1673Y-531D03*
X-1279Y-531D03*
X-2067Y-531D03*
X-2067Y-137D03*
X-1673Y-137D03*
X-1279Y-137D03*
X-1279Y-925D03*
X-1673Y-925D03*
X-2067Y-925D03*
G54D20*
X-2677Y2793D03*
X-1889Y2793D03*
G54D21*
X-879Y2459D03*
X-379Y2459D03*
G54D22*
X-1379Y2459D03*
G54D21*
X120Y2459D03*
X-879Y2459D03*
X-379Y2459D03*
G54D22*
X-1379Y2459D03*
G54D21*
X120Y2459D03*
G54D20*
X-2677Y2793D03*
X-1889Y2793D03*
G54D16*
X-2766Y257D03*
X-2766Y60D03*
X-2766Y-137D03*
X-2766Y-334D03*
X-2766Y-531D03*
X-2766Y-728D03*
X-2766Y-925D03*
X-2766Y-1122D03*
X-2766Y-1319D03*
G54D17*
X-2461Y-1624D03*
X-2264Y-1624D03*
X-2067Y-1624D03*
X-1870Y-1624D03*
X-1673Y-1624D03*
X-1476Y-1624D03*
X-1279Y-1624D03*
X-1082Y-1624D03*
X-885Y-1624D03*
G54D16*
X-580Y-1319D03*
X-580Y-1122D03*
X-580Y-925D03*
X-580Y-728D03*
X-580Y-531D03*
X-580Y-334D03*
X-580Y-137D03*
X-580Y60D03*
X-580Y257D03*
G54D17*
X-885Y562D03*
X-1082Y562D03*
X-1279Y562D03*
X-1476Y562D03*
X-1673Y562D03*
X-1870Y562D03*
X-2067Y562D03*
X-2264Y562D03*
X-2461Y562D03*
G54D18*
X-1673Y-531D03*
G54D19*
X-1673Y-531D03*
X-1279Y-531D03*
X-2067Y-531D03*
X-2067Y-137D03*
X-1673Y-137D03*
X-1279Y-137D03*
X-1279Y-925D03*
X-1673Y-925D03*
X-2067Y-925D03*
G54D23*
X2755Y2237D03*
X2755Y-2250D03*
G54D24*
X2755Y-892D03*
X2755Y879D03*
G54D15*
X1444Y-1575D03*
X1444Y-1201D03*
X1444Y-827D03*
X406Y-827D03*
X406Y-1575D03*
G54D14*
X492Y728D03*
X492Y472D03*
X492Y216D03*
X1240Y216D03*
X1240Y472D03*
X1240Y728D03*
G54D13*
X-3780Y2146D03*
X-3110Y2146D03*
X-3110Y1280D03*
X-3780Y1280D03*
G54D11*
X-3347Y-335D03*
X-3779Y-335D03*
X-3838Y-2206D03*
X-3406Y-2206D03*
G54D12*
X-2480Y1239D03*
X-2480Y1671D03*
G54D11*
X-747Y-2185D03*
X-315Y-2185D03*
X1053Y2579D03*
X621Y2579D03*
G54D12*
X-1614Y1239D03*
X-1614Y1671D03*
G54D11*
X-3779Y-984D03*
X-3347Y-984D03*
X-3700Y2795D03*
X-3268Y2795D03*
X-315Y-2736D03*
X-747Y-2736D03*
X1043Y-2205D03*
X611Y-2205D03*
X1053Y2087D03*
X621Y2087D03*
X827Y-295D03*
X1259Y-295D03*
X-1364Y-2740D03*
X-1796Y-2740D03*
X-3838Y-2717D03*
X-3406Y-2717D03*
X-2028Y2203D03*
X-2460Y2203D03*
M02*
