M48
;DRILL file {KiCad 4.0.7} date 2018. July 04., Wednesday 00:12:28
;FORMAT={-:-/ absolute / inch / decimal}
FMAT,2
INCH,TZ
T1C0.000
T2C0.015
T3C0.039
T4C0.043
%
G90
G05
M72
T1
X4.862Y-3.6516
X4.912Y-3.6516
X4.962Y-3.6516
X5.012Y-3.6516
T2
X4.552Y-3.944
X4.5751Y-4.07
X4.584Y-4.12
X4.6884Y-3.7306
X4.7476Y-4.1672
X4.766Y-4.148
X4.82Y-3.654
X4.914Y-3.704
X4.986Y-3.626
X4.988Y-3.68
X4.996Y-3.722
X5.03Y-3.6222
X5.0392Y-3.722
X5.062Y-3.748
X5.062Y-4.07
X5.1107Y-3.944
X5.118Y-3.856
X5.1289Y-3.894
X5.138Y-3.704
X5.182Y-4.082
X5.184Y-3.984
X5.274Y-3.88
X5.274Y-3.91
T4
X5.2756Y-3.8095
X5.2756Y-3.9867
T3
X5.3051Y-3.6737G85X5.2461Y-3.6737
G05
X5.3051Y-4.1225G85X5.2461Y-4.1225
G05
T0
M30
