G04 #@! TF.FileFunction,Legend,Top*
%FSLAX46Y46*%
G04 Gerber Fmt 4.6, Leading zero omitted, Abs format (unit mm)*
G04 Created by KiCad (PCBNEW 4.0.7) date 2018. July 04., Wednesday 00:12:24*
%MOMM*%
%LPD*%
G01*
G04 APERTURE LIST*
%ADD10C,0.150000*%
%ADD11C,0.125000*%
%ADD12C,0.180000*%
%ADD13C,0.120000*%
%ADD14C,0.254000*%
%ADD15C,0.149860*%
G04 APERTURE END LIST*
D10*
X4731029Y6773919D02*
X4731029Y7773919D01*
X5188172Y6773919D01*
X5188172Y7773919D01*
X5569124Y6773919D02*
X5569124Y7440586D01*
X5569124Y7773919D02*
X5531029Y7726300D01*
X5569124Y7678681D01*
X5607219Y7726300D01*
X5569124Y7773919D01*
X5569124Y7678681D01*
X5835790Y7440586D02*
X6140552Y7440586D01*
X5950076Y7773919D02*
X5950076Y6916776D01*
X5988171Y6821538D01*
X6064362Y6773919D01*
X6140552Y6773919D01*
X6407219Y6773919D02*
X6407219Y7440586D01*
X6407219Y7250110D02*
X6445314Y7345348D01*
X6483410Y7392967D01*
X6559600Y7440586D01*
X6635791Y7440586D01*
X7016743Y6773919D02*
X6940552Y6821538D01*
X6902457Y6869157D01*
X6864362Y6964395D01*
X6864362Y7250110D01*
X6902457Y7345348D01*
X6940552Y7392967D01*
X7016743Y7440586D01*
X7131029Y7440586D01*
X7207219Y7392967D01*
X7245314Y7345348D01*
X7283410Y7250110D01*
X7283410Y6964395D01*
X7245314Y6869157D01*
X7207219Y6821538D01*
X7131029Y6773919D01*
X7016743Y6773919D01*
X7626267Y6773919D02*
X7626267Y7773919D01*
X7702458Y7154871D02*
X7931029Y6773919D01*
X7931029Y7440586D02*
X7626267Y7059633D01*
X8578648Y6821538D02*
X8502458Y6773919D01*
X8350077Y6773919D01*
X8273886Y6821538D01*
X8235791Y6916776D01*
X8235791Y7297729D01*
X8273886Y7392967D01*
X8350077Y7440586D01*
X8502458Y7440586D01*
X8578648Y7392967D01*
X8616743Y7297729D01*
X8616743Y7202490D01*
X8235791Y7107252D01*
X8883410Y7440586D02*
X9073886Y6773919D01*
X9264362Y7440586D02*
X9073886Y6773919D01*
X8997695Y6535824D01*
X8959600Y6488205D01*
X8883410Y6440586D01*
D11*
X8255047Y4656900D02*
X8207428Y4680710D01*
X8136000Y4680710D01*
X8064571Y4656900D01*
X8016952Y4609281D01*
X7993143Y4561662D01*
X7969333Y4466424D01*
X7969333Y4394995D01*
X7993143Y4299757D01*
X8016952Y4252138D01*
X8064571Y4204519D01*
X8136000Y4180710D01*
X8183619Y4180710D01*
X8255047Y4204519D01*
X8278857Y4228329D01*
X8278857Y4394995D01*
X8183619Y4394995D01*
X8493143Y4180710D02*
X8493143Y4680710D01*
X8778857Y4180710D01*
X8778857Y4680710D01*
X9016953Y4180710D02*
X9016953Y4680710D01*
X9136000Y4680710D01*
X9207429Y4656900D01*
X9255048Y4609281D01*
X9278857Y4561662D01*
X9302667Y4466424D01*
X9302667Y4394995D01*
X9278857Y4299757D01*
X9255048Y4252138D01*
X9207429Y4204519D01*
X9136000Y4180710D01*
X9016953Y4180710D01*
X7617734Y-2532890D02*
X7784401Y-3032890D01*
X7951067Y-2532890D01*
X8284400Y-2770986D02*
X8355829Y-2794795D01*
X8379638Y-2818605D01*
X8403448Y-2866224D01*
X8403448Y-2937652D01*
X8379638Y-2985271D01*
X8355829Y-3009081D01*
X8308210Y-3032890D01*
X8117734Y-3032890D01*
X8117734Y-2532890D01*
X8284400Y-2532890D01*
X8332019Y-2556700D01*
X8355829Y-2580510D01*
X8379638Y-2628129D01*
X8379638Y-2675748D01*
X8355829Y-2723367D01*
X8332019Y-2747176D01*
X8284400Y-2770986D01*
X8117734Y-2770986D01*
X8617734Y-2532890D02*
X8617734Y-2937652D01*
X8641543Y-2985271D01*
X8665353Y-3009081D01*
X8712972Y-3032890D01*
X8808210Y-3032890D01*
X8855829Y-3009081D01*
X8879638Y-2985271D01*
X8903448Y-2937652D01*
X8903448Y-2532890D01*
X9117734Y-3009081D02*
X9189163Y-3032890D01*
X9308210Y-3032890D01*
X9355829Y-3009081D01*
X9379639Y-2985271D01*
X9403448Y-2937652D01*
X9403448Y-2890033D01*
X9379639Y-2842414D01*
X9355829Y-2818605D01*
X9308210Y-2794795D01*
X9212972Y-2770986D01*
X9165353Y-2747176D01*
X9141544Y-2723367D01*
X9117734Y-2675748D01*
X9117734Y-2628129D01*
X9141544Y-2580510D01*
X9165353Y-2556700D01*
X9212972Y-2532890D01*
X9332020Y-2532890D01*
X9403448Y-2556700D01*
X4995124Y-188090D02*
X4995124Y311910D01*
X5114171Y311910D01*
X5185600Y288100D01*
X5233219Y240481D01*
X5257028Y192862D01*
X5280838Y97624D01*
X5280838Y26195D01*
X5257028Y-69043D01*
X5233219Y-116662D01*
X5185600Y-164281D01*
X5114171Y-188090D01*
X4995124Y-188090D01*
X5495124Y2386D02*
X5876076Y2386D01*
X8831296Y-340490D02*
X8831296Y159510D01*
X9164629Y159510D02*
X9259867Y159510D01*
X9307486Y135700D01*
X9355105Y88081D01*
X9378914Y-7157D01*
X9378914Y-173824D01*
X9355105Y-269062D01*
X9307486Y-316681D01*
X9259867Y-340490D01*
X9164629Y-340490D01*
X9117010Y-316681D01*
X9069391Y-269062D01*
X9045581Y-173824D01*
X9045581Y-7157D01*
X9069391Y88081D01*
X9117010Y135700D01*
X9164629Y159510D01*
X8338381Y2551929D02*
X8314571Y2528119D01*
X8243143Y2504310D01*
X8195524Y2504310D01*
X8124095Y2528119D01*
X8076476Y2575738D01*
X8052667Y2623357D01*
X8028857Y2718595D01*
X8028857Y2790024D01*
X8052667Y2885262D01*
X8076476Y2932881D01*
X8124095Y2980500D01*
X8195524Y3004310D01*
X8243143Y3004310D01*
X8314571Y2980500D01*
X8338381Y2956690D01*
X8790762Y2504310D02*
X8552667Y2504310D01*
X8552667Y3004310D01*
X8957429Y2504310D02*
X8957429Y3004310D01*
X9243143Y2504310D02*
X9028857Y2790024D01*
X9243143Y3004310D02*
X8957429Y2718595D01*
X4995124Y2453510D02*
X4995124Y2953510D01*
X5114171Y2953510D01*
X5185600Y2929700D01*
X5233219Y2882081D01*
X5257028Y2834462D01*
X5280838Y2739224D01*
X5280838Y2667795D01*
X5257028Y2572557D01*
X5233219Y2524938D01*
X5185600Y2477319D01*
X5114171Y2453510D01*
X4995124Y2453510D01*
X5495124Y2643986D02*
X5876076Y2643986D01*
X5685600Y2453510D02*
X5685600Y2834462D01*
D10*
X14306972Y-3180928D02*
G75*
G03X14306972Y-3180928I-1098972J0D01*
G01*
X14306972Y3409528D02*
G75*
G03X14306972Y3409528I-1098972J0D01*
G01*
X15544800Y-1079500D02*
G75*
G03X15544800Y-1079500I-1098972J0D01*
G01*
X13055600Y-1079500D02*
G75*
G03X13055600Y-1079500I-1098972J0D01*
G01*
X15544800Y1308100D02*
G75*
G03X15544800Y1308100I-1098972J0D01*
G01*
X13055600Y1308100D02*
G75*
G03X13055600Y1308100I-1098972J0D01*
G01*
D12*
X5477057Y-7604957D02*
X5605628Y-7643529D01*
X5819914Y-7643529D01*
X5905628Y-7604957D01*
X5948485Y-7566386D01*
X5991342Y-7489243D01*
X5991342Y-7412100D01*
X5948485Y-7334957D01*
X5905628Y-7296386D01*
X5819914Y-7257814D01*
X5648485Y-7219243D01*
X5562771Y-7180671D01*
X5519914Y-7142100D01*
X5477057Y-7064957D01*
X5477057Y-6987814D01*
X5519914Y-6910671D01*
X5562771Y-6872100D01*
X5648485Y-6833529D01*
X5862771Y-6833529D01*
X5991342Y-6872100D01*
X6248485Y-7103529D02*
X6591342Y-7103529D01*
X6377057Y-6833529D02*
X6377057Y-7527814D01*
X6419914Y-7604957D01*
X6505628Y-7643529D01*
X6591342Y-7643529D01*
X7277057Y-7643529D02*
X7277057Y-7219243D01*
X7234200Y-7142100D01*
X7148486Y-7103529D01*
X6977057Y-7103529D01*
X6891343Y-7142100D01*
X7277057Y-7604957D02*
X7191343Y-7643529D01*
X6977057Y-7643529D01*
X6891343Y-7604957D01*
X6848486Y-7527814D01*
X6848486Y-7450671D01*
X6891343Y-7373529D01*
X6977057Y-7334957D01*
X7191343Y-7334957D01*
X7277057Y-7296386D01*
X7705629Y-7643529D02*
X7705629Y-7103529D01*
X7705629Y-7257814D02*
X7748486Y-7180671D01*
X7791343Y-7142100D01*
X7877057Y-7103529D01*
X7962772Y-7103529D01*
X8134200Y-7103529D02*
X8477057Y-7103529D01*
X8262772Y-6833529D02*
X8262772Y-7527814D01*
X8305629Y-7604957D01*
X8391343Y-7643529D01*
X8477057Y-7643529D01*
D13*
X-4474400Y-5477100D02*
X-4974400Y-5477100D01*
X-4974400Y-6537100D02*
X-4474400Y-6537100D01*
X-3527200Y-6011100D02*
X-3527200Y-6511100D01*
X-2467200Y-6511100D02*
X-2467200Y-6011100D01*
X-4474400Y-6391500D02*
X-4974400Y-6391500D01*
X-4974400Y-7451500D02*
X-4474400Y-7451500D01*
X-6701600Y1946500D02*
X-6201600Y1946500D01*
X-6201600Y3006500D02*
X-6701600Y3006500D01*
X1824800Y1330100D02*
X1324800Y1330100D01*
X1324800Y270100D02*
X1824800Y270100D01*
X1824800Y2346100D02*
X1324800Y2346100D01*
X1324800Y1286100D02*
X1824800Y1286100D01*
X1824800Y212500D02*
X1324800Y212500D01*
X1324800Y-847500D02*
X1824800Y-847500D01*
X-10544400Y-6968300D02*
X-10544400Y-6468300D01*
X-11604400Y-6468300D02*
X-11604400Y-6968300D01*
X-7642000Y-6214300D02*
X-7642000Y-6714300D01*
X-6582000Y-6714300D02*
X-6582000Y-6214300D01*
X-5787200Y4080100D02*
X-5287200Y4080100D01*
X-5287200Y5140100D02*
X-5787200Y5140100D01*
X-5787200Y3165700D02*
X-5287200Y3165700D01*
X-5287200Y4225700D02*
X-5787200Y4225700D01*
X-11188800Y-2607500D02*
X-11188800Y-3107500D01*
X-10248800Y-3107500D02*
X-10248800Y-2607500D01*
D10*
X-8974800Y4864700D02*
X-6874800Y4864700D01*
X-9749800Y8114700D02*
X-6874800Y8114700D01*
D13*
X-7483200Y-6703900D02*
X-7483200Y-4903900D01*
X-10703200Y-4903900D02*
X-10703200Y-7353900D01*
X-5126800Y6781700D02*
X-4626800Y6781700D01*
X-4626800Y7721700D02*
X-5126800Y7721700D01*
X4303600Y-581900D02*
X4303600Y-1881900D01*
X2503600Y-2131900D02*
X2503600Y-581900D01*
D14*
X4899020Y4683010D02*
X4899020Y5782830D01*
X4899020Y-4714990D02*
X4899020Y-5814810D01*
D15*
X652780Y-6042660D02*
X3004820Y-6042660D01*
X3004820Y-6042660D02*
X3004820Y-7190740D01*
X3004820Y-7190740D02*
X652780Y-7190740D01*
X652780Y-7190740D02*
X652780Y-6042660D01*
X-172720Y-6123940D02*
X-2524760Y-6123940D01*
X-2524760Y-6123940D02*
X-2524760Y-4975860D01*
X-2524760Y-4975860D02*
X-172720Y-4975860D01*
X-172720Y-4975860D02*
X-172720Y-6123940D01*
X1366520Y-5882640D02*
X1366520Y-2880360D01*
X1366520Y-2880360D02*
X2316480Y-2880360D01*
X2316480Y-2880360D02*
X2316480Y-5882640D01*
X2316480Y-5882640D02*
X1366520Y-5882640D01*
X3102310Y-5979160D02*
G75*
G03X3102310Y-5979160I-110190J0D01*
G01*
X-11938000Y139700D02*
X-11938000Y4203700D01*
X-11938000Y4203700D02*
X-8585200Y4203700D01*
X-8585200Y4203700D02*
X-8585200Y139700D01*
X-8585200Y139700D02*
X-11938000Y139700D01*
X-10167620Y-403860D02*
X-7815580Y-403860D01*
X-7815580Y-403860D02*
X-7815580Y-1551940D01*
X-7815580Y-1551940D02*
X-10167620Y-1551940D01*
X-10167620Y-1551940D02*
X-10167620Y-403860D01*
X-7553960Y2087880D02*
X-7553960Y-264160D01*
X-7553960Y-264160D02*
X-8702040Y-264160D01*
X-8702040Y-264160D02*
X-8702040Y2087880D01*
X-8702040Y2087880D02*
X-7553960Y2087880D01*
X-8542020Y3914140D02*
X-6189980Y3914140D01*
X-6189980Y3914140D02*
X-6189980Y2766060D01*
X-6189980Y2766060D02*
X-8542020Y2766060D01*
X-8542020Y2766060D02*
X-8542020Y3914140D01*
X-10167620Y-1673860D02*
X-7815580Y-1673860D01*
X-7815580Y-1673860D02*
X-7815580Y-2821940D01*
X-7815580Y-2821940D02*
X-10167620Y-2821940D01*
X-10167620Y-2821940D02*
X-10167620Y-1673860D01*
X-10652760Y6395720D02*
X-10652760Y4043680D01*
X-10652760Y4043680D02*
X-11800840Y4043680D01*
X-11800840Y4043680D02*
X-11800840Y6395720D01*
X-11800840Y6395720D02*
X-10652760Y6395720D01*
X-2524760Y-6375400D02*
X-172720Y-6375400D01*
X-172720Y-6375400D02*
X-172720Y-7523480D01*
X-172720Y-7523480D02*
X-2524760Y-7523480D01*
X-2524760Y-7523480D02*
X-2524760Y-6375400D01*
X-2039620Y2948940D02*
X312420Y2948940D01*
X312420Y2948940D02*
X312420Y1800860D01*
X312420Y1800860D02*
X-2039620Y1800860D01*
X-2039620Y1800860D02*
X-2039620Y2948940D01*
X2750820Y-2872740D02*
X398780Y-2872740D01*
X398780Y-2872740D02*
X398780Y-1724660D01*
X398780Y-1724660D02*
X2750820Y-1724660D01*
X2750820Y-1724660D02*
X2750820Y-2872740D01*
X-6649720Y2052320D02*
X-7650480Y1051560D01*
X-7650480Y1051560D02*
X-7650480Y-4749800D01*
X-848360Y2052320D02*
X-848360Y-4749800D01*
X-848360Y-4749800D02*
X-7650480Y-4749800D01*
X-6649720Y2052320D02*
X-848360Y2052320D01*
D10*
X-6018200Y-5835605D02*
X-6218200Y-5454652D01*
X-6361057Y-5835605D02*
X-6361057Y-5035605D01*
X-6132485Y-5035605D01*
X-6075343Y-5073700D01*
X-6046771Y-5111795D01*
X-6018200Y-5187986D01*
X-6018200Y-5302271D01*
X-6046771Y-5378462D01*
X-6075343Y-5416557D01*
X-6132485Y-5454652D01*
X-6361057Y-5454652D01*
X-5446771Y-5835605D02*
X-5789628Y-5835605D01*
X-5618200Y-5835605D02*
X-5618200Y-5035605D01*
X-5675343Y-5149890D01*
X-5732485Y-5226081D01*
X-5789628Y-5264176D01*
X-3325800Y-7880305D02*
X-3525800Y-7499352D01*
X-3668657Y-7880305D02*
X-3668657Y-7080305D01*
X-3440085Y-7080305D01*
X-3382943Y-7118400D01*
X-3354371Y-7156495D01*
X-3325800Y-7232686D01*
X-3325800Y-7346971D01*
X-3354371Y-7423162D01*
X-3382943Y-7461257D01*
X-3440085Y-7499352D01*
X-3668657Y-7499352D01*
X-3125800Y-7080305D02*
X-2754371Y-7080305D01*
X-2954371Y-7385067D01*
X-2868657Y-7385067D01*
X-2811514Y-7423162D01*
X-2782943Y-7461257D01*
X-2754371Y-7537448D01*
X-2754371Y-7727924D01*
X-2782943Y-7804114D01*
X-2811514Y-7842210D01*
X-2868657Y-7880305D01*
X-3040085Y-7880305D01*
X-3097228Y-7842210D01*
X-3125800Y-7804114D01*
X-5992800Y-7994605D02*
X-6192800Y-7613652D01*
X-6335657Y-7994605D02*
X-6335657Y-7194605D01*
X-6107085Y-7194605D01*
X-6049943Y-7232700D01*
X-6021371Y-7270795D01*
X-5992800Y-7346986D01*
X-5992800Y-7461271D01*
X-6021371Y-7537462D01*
X-6049943Y-7575557D01*
X-6107085Y-7613652D01*
X-6335657Y-7613652D01*
X-5764228Y-7270795D02*
X-5735657Y-7232700D01*
X-5678514Y-7194605D01*
X-5535657Y-7194605D01*
X-5478514Y-7232700D01*
X-5449943Y-7270795D01*
X-5421371Y-7346986D01*
X-5421371Y-7423176D01*
X-5449943Y-7537462D01*
X-5792800Y-7994605D01*
X-5421371Y-7994605D01*
X-5230800Y2114595D02*
X-5430800Y2495548D01*
X-5573657Y2114595D02*
X-5573657Y2914595D01*
X-5345085Y2914595D01*
X-5287943Y2876500D01*
X-5259371Y2838405D01*
X-5230800Y2762214D01*
X-5230800Y2647929D01*
X-5259371Y2571738D01*
X-5287943Y2533643D01*
X-5345085Y2495548D01*
X-5573657Y2495548D01*
X-4716514Y2647929D02*
X-4716514Y2114595D01*
X-4859371Y2952690D02*
X-5002228Y2381262D01*
X-4630800Y2381262D01*
X52400Y387395D02*
X-147600Y768348D01*
X-290457Y387395D02*
X-290457Y1187395D01*
X-61885Y1187395D01*
X-4743Y1149300D01*
X23829Y1111205D01*
X52400Y1035014D01*
X52400Y920729D01*
X23829Y844538D01*
X-4743Y806443D01*
X-61885Y768348D01*
X-290457Y768348D01*
X566686Y1187395D02*
X452400Y1187395D01*
X395257Y1149300D01*
X366686Y1111205D01*
X309543Y996919D01*
X280972Y844538D01*
X280972Y539776D01*
X309543Y463586D01*
X338115Y425490D01*
X395257Y387395D01*
X509543Y387395D01*
X566686Y425490D01*
X595257Y463586D01*
X623829Y539776D01*
X623829Y730252D01*
X595257Y806443D01*
X566686Y844538D01*
X509543Y882633D01*
X395257Y882633D01*
X338115Y844538D01*
X309543Y806443D01*
X280972Y730252D01*
X2846400Y1504995D02*
X2646400Y1885948D01*
X2503543Y1504995D02*
X2503543Y2304995D01*
X2732115Y2304995D01*
X2789257Y2266900D01*
X2817829Y2228805D01*
X2846400Y2152614D01*
X2846400Y2038329D01*
X2817829Y1962138D01*
X2789257Y1924043D01*
X2732115Y1885948D01*
X2503543Y1885948D01*
X3046400Y2304995D02*
X3446400Y2304995D01*
X3189257Y1504995D01*
X64973Y-742778D02*
X-135027Y-361825D01*
X-277884Y-742778D02*
X-277884Y57222D01*
X-49312Y57222D01*
X7830Y19127D01*
X36402Y-18968D01*
X64973Y-95159D01*
X64973Y-209444D01*
X36402Y-285635D01*
X7830Y-323730D01*
X-49312Y-361825D01*
X-277884Y-361825D01*
X607830Y57222D02*
X322116Y57222D01*
X293545Y-323730D01*
X322116Y-285635D01*
X379259Y-247540D01*
X522116Y-247540D01*
X579259Y-285635D01*
X607830Y-323730D01*
X636402Y-399921D01*
X636402Y-590397D01*
X607830Y-666587D01*
X579259Y-704683D01*
X522116Y-742778D01*
X379259Y-742778D01*
X322116Y-704683D01*
X293545Y-666587D01*
X-11580800Y-5911805D02*
X-11780800Y-5530852D01*
X-11923657Y-5911805D02*
X-11923657Y-5111805D01*
X-11695085Y-5111805D01*
X-11637943Y-5149900D01*
X-11609371Y-5187995D01*
X-11580800Y-5264186D01*
X-11580800Y-5378471D01*
X-11609371Y-5454662D01*
X-11637943Y-5492757D01*
X-11695085Y-5530852D01*
X-11923657Y-5530852D01*
X-11237943Y-5454662D02*
X-11295085Y-5416567D01*
X-11323657Y-5378471D01*
X-11352228Y-5302281D01*
X-11352228Y-5264186D01*
X-11323657Y-5187995D01*
X-11295085Y-5149900D01*
X-11237943Y-5111805D01*
X-11123657Y-5111805D01*
X-11066514Y-5149900D01*
X-11037943Y-5187995D01*
X-11009371Y-5264186D01*
X-11009371Y-5302281D01*
X-11037943Y-5378471D01*
X-11066514Y-5416567D01*
X-11123657Y-5454662D01*
X-11237943Y-5454662D01*
X-11295085Y-5492757D01*
X-11323657Y-5530852D01*
X-11352228Y-5607043D01*
X-11352228Y-5759424D01*
X-11323657Y-5835614D01*
X-11295085Y-5873710D01*
X-11237943Y-5911805D01*
X-11123657Y-5911805D01*
X-11066514Y-5873710D01*
X-11037943Y-5835614D01*
X-11009371Y-5759424D01*
X-11009371Y-5607043D01*
X-11037943Y-5530852D01*
X-11066514Y-5492757D01*
X-11123657Y-5454662D01*
X-7161200Y-8045405D02*
X-7361200Y-7664452D01*
X-7504057Y-8045405D02*
X-7504057Y-7245405D01*
X-7275485Y-7245405D01*
X-7218343Y-7283500D01*
X-7189771Y-7321595D01*
X-7161200Y-7397786D01*
X-7161200Y-7512071D01*
X-7189771Y-7588262D01*
X-7218343Y-7626357D01*
X-7275485Y-7664452D01*
X-7504057Y-7664452D01*
X-6875485Y-8045405D02*
X-6761200Y-8045405D01*
X-6704057Y-8007310D01*
X-6675485Y-7969214D01*
X-6618343Y-7854929D01*
X-6589771Y-7702548D01*
X-6589771Y-7397786D01*
X-6618343Y-7321595D01*
X-6646914Y-7283500D01*
X-6704057Y-7245405D01*
X-6818343Y-7245405D01*
X-6875485Y-7283500D01*
X-6904057Y-7321595D01*
X-6932628Y-7397786D01*
X-6932628Y-7588262D01*
X-6904057Y-7664452D01*
X-6875485Y-7702548D01*
X-6818343Y-7740643D01*
X-6704057Y-7740643D01*
X-6646914Y-7702548D01*
X-6618343Y-7664452D01*
X-6589771Y-7588262D01*
X-4195715Y4248195D02*
X-4395715Y4629148D01*
X-4538572Y4248195D02*
X-4538572Y5048195D01*
X-4310000Y5048195D01*
X-4252858Y5010100D01*
X-4224286Y4972005D01*
X-4195715Y4895814D01*
X-4195715Y4781529D01*
X-4224286Y4705338D01*
X-4252858Y4667243D01*
X-4310000Y4629148D01*
X-4538572Y4629148D01*
X-3624286Y4248195D02*
X-3967143Y4248195D01*
X-3795715Y4248195D02*
X-3795715Y5048195D01*
X-3852858Y4933910D01*
X-3910000Y4857719D01*
X-3967143Y4819624D01*
X-3252857Y5048195D02*
X-3195714Y5048195D01*
X-3138571Y5010100D01*
X-3110000Y4972005D01*
X-3081429Y4895814D01*
X-3052857Y4743433D01*
X-3052857Y4552957D01*
X-3081429Y4400576D01*
X-3110000Y4324386D01*
X-3138571Y4286290D01*
X-3195714Y4248195D01*
X-3252857Y4248195D01*
X-3310000Y4286290D01*
X-3338571Y4324386D01*
X-3367143Y4400576D01*
X-3395714Y4552957D01*
X-3395714Y4743433D01*
X-3367143Y4895814D01*
X-3338571Y4972005D01*
X-3310000Y5010100D01*
X-3252857Y5048195D01*
X-4195715Y3333795D02*
X-4395715Y3714748D01*
X-4538572Y3333795D02*
X-4538572Y4133795D01*
X-4310000Y4133795D01*
X-4252858Y4095700D01*
X-4224286Y4057605D01*
X-4195715Y3981414D01*
X-4195715Y3867129D01*
X-4224286Y3790938D01*
X-4252858Y3752843D01*
X-4310000Y3714748D01*
X-4538572Y3714748D01*
X-3624286Y3333795D02*
X-3967143Y3333795D01*
X-3795715Y3333795D02*
X-3795715Y4133795D01*
X-3852858Y4019510D01*
X-3910000Y3943319D01*
X-3967143Y3905224D01*
X-3052857Y3333795D02*
X-3395714Y3333795D01*
X-3224286Y3333795D02*
X-3224286Y4133795D01*
X-3281429Y4019510D01*
X-3338571Y3943319D01*
X-3395714Y3905224D01*
X-11296686Y-3878215D02*
X-11258590Y-3906786D01*
X-11220495Y-3992500D01*
X-11220495Y-4049643D01*
X-11258590Y-4135358D01*
X-11334781Y-4192500D01*
X-11410971Y-4221072D01*
X-11563352Y-4249643D01*
X-11677638Y-4249643D01*
X-11830019Y-4221072D01*
X-11906210Y-4192500D01*
X-11982400Y-4135358D01*
X-12020495Y-4049643D01*
X-12020495Y-3992500D01*
X-11982400Y-3906786D01*
X-11944305Y-3878215D01*
X-11220495Y-3306786D02*
X-11220495Y-3649643D01*
X-11220495Y-3478215D02*
X-12020495Y-3478215D01*
X-11906210Y-3535358D01*
X-11830019Y-3592500D01*
X-11791924Y-3649643D01*
X-11944305Y-3078214D02*
X-11982400Y-3049643D01*
X-12020495Y-2992500D01*
X-12020495Y-2849643D01*
X-11982400Y-2792500D01*
X-11944305Y-2763929D01*
X-11868114Y-2735357D01*
X-11791924Y-2735357D01*
X-11677638Y-2763929D01*
X-11220495Y-3106786D01*
X-11220495Y-2735357D01*
X-11096571Y7169167D02*
X-10810857Y7169167D01*
X-11153714Y6940595D02*
X-10953714Y7740595D01*
X-10753714Y6940595D01*
X-10239428Y6940595D02*
X-10582285Y6940595D01*
X-10410857Y6940595D02*
X-10410857Y7740595D01*
X-10468000Y7626310D01*
X-10525142Y7550119D01*
X-10582285Y7512024D01*
X-9270943Y-3283005D02*
X-9270943Y-3930624D01*
X-9242371Y-4006814D01*
X-9213800Y-4044910D01*
X-9156657Y-4083005D01*
X-9042371Y-4083005D01*
X-8985229Y-4044910D01*
X-8956657Y-4006814D01*
X-8928086Y-3930624D01*
X-8928086Y-3283005D01*
X-8385229Y-3549671D02*
X-8385229Y-4083005D01*
X-8528086Y-3244910D02*
X-8670943Y-3816338D01*
X-8299515Y-3816338D01*
X-3433715Y6965986D02*
X-3462286Y6927890D01*
X-3548000Y6889795D01*
X-3605143Y6889795D01*
X-3690858Y6927890D01*
X-3748000Y7004081D01*
X-3776572Y7080271D01*
X-3805143Y7232652D01*
X-3805143Y7346938D01*
X-3776572Y7499319D01*
X-3748000Y7575510D01*
X-3690858Y7651700D01*
X-3605143Y7689795D01*
X-3548000Y7689795D01*
X-3462286Y7651700D01*
X-3433715Y7613605D01*
X-2862286Y6889795D02*
X-3205143Y6889795D01*
X-3033715Y6889795D02*
X-3033715Y7689795D01*
X-3090858Y7575510D01*
X-3148000Y7499319D01*
X-3205143Y7461224D01*
X-2662286Y7689795D02*
X-2290857Y7689795D01*
X-2490857Y7385033D01*
X-2405143Y7385033D01*
X-2348000Y7346938D01*
X-2319429Y7308843D01*
X-2290857Y7232652D01*
X-2290857Y7042176D01*
X-2319429Y6965986D01*
X-2348000Y6927890D01*
X-2405143Y6889795D01*
X-2576571Y6889795D01*
X-2633714Y6927890D01*
X-2662286Y6965986D01*
X3606857Y730195D02*
X3606857Y82576D01*
X3635429Y6386D01*
X3664000Y-31710D01*
X3721143Y-69805D01*
X3835429Y-69805D01*
X3892571Y-31710D01*
X3921143Y6386D01*
X3949714Y82576D01*
X3949714Y730195D01*
X4178285Y730195D02*
X4549714Y730195D01*
X4349714Y425433D01*
X4435428Y425433D01*
X4492571Y387338D01*
X4521142Y349243D01*
X4549714Y273052D01*
X4549714Y82576D01*
X4521142Y6386D01*
X4492571Y-31710D01*
X4435428Y-69805D01*
X4264000Y-69805D01*
X4206857Y-31710D01*
X4178285Y6386D01*
X14012914Y-806471D02*
X14012914Y-1606471D01*
X14012914Y-844567D02*
X14070057Y-806471D01*
X14184343Y-806471D01*
X14241486Y-844567D01*
X14270057Y-882662D01*
X14298628Y-958852D01*
X14298628Y-1187424D01*
X14270057Y-1263614D01*
X14241486Y-1301710D01*
X14184343Y-1339805D01*
X14070057Y-1339805D01*
X14012914Y-1301710D01*
X14812914Y-539805D02*
X14698628Y-539805D01*
X14641485Y-577900D01*
X14612914Y-615995D01*
X14555771Y-730281D01*
X14527200Y-882662D01*
X14527200Y-1187424D01*
X14555771Y-1263614D01*
X14584343Y-1301710D01*
X14641485Y-1339805D01*
X14755771Y-1339805D01*
X14812914Y-1301710D01*
X14841485Y-1263614D01*
X14870057Y-1187424D01*
X14870057Y-996948D01*
X14841485Y-920757D01*
X14812914Y-882662D01*
X14755771Y-844567D01*
X14641485Y-844567D01*
X14584343Y-882662D01*
X14555771Y-920757D01*
X14527200Y-996948D01*
X13962114Y1530329D02*
X13962114Y730329D01*
X13962114Y1492233D02*
X14019257Y1530329D01*
X14133543Y1530329D01*
X14190686Y1492233D01*
X14219257Y1454138D01*
X14247828Y1377948D01*
X14247828Y1149376D01*
X14219257Y1073186D01*
X14190686Y1035090D01*
X14133543Y996995D01*
X14019257Y996995D01*
X13962114Y1035090D01*
X14790685Y1796995D02*
X14504971Y1796995D01*
X14476400Y1416043D01*
X14504971Y1454138D01*
X14562114Y1492233D01*
X14704971Y1492233D01*
X14762114Y1454138D01*
X14790685Y1416043D01*
X14819257Y1339852D01*
X14819257Y1149376D01*
X14790685Y1073186D01*
X14762114Y1035090D01*
X14704971Y996995D01*
X14562114Y996995D01*
X14504971Y1035090D01*
X14476400Y1073186D01*
X12793714Y-2940071D02*
X12793714Y-3740071D01*
X12793714Y-2978167D02*
X12850857Y-2940071D01*
X12965143Y-2940071D01*
X13022286Y-2978167D01*
X13050857Y-3016262D01*
X13079428Y-3092452D01*
X13079428Y-3321024D01*
X13050857Y-3397214D01*
X13022286Y-3435310D01*
X12965143Y-3473405D01*
X12850857Y-3473405D01*
X12793714Y-3435310D01*
X13593714Y-2940071D02*
X13593714Y-3473405D01*
X13450857Y-2635310D02*
X13308000Y-3206738D01*
X13679428Y-3206738D01*
X11472914Y-806471D02*
X11472914Y-1606471D01*
X11472914Y-844567D02*
X11530057Y-806471D01*
X11644343Y-806471D01*
X11701486Y-844567D01*
X11730057Y-882662D01*
X11758628Y-958852D01*
X11758628Y-1187424D01*
X11730057Y-1263614D01*
X11701486Y-1301710D01*
X11644343Y-1339805D01*
X11530057Y-1339805D01*
X11472914Y-1301710D01*
X11958628Y-539805D02*
X12330057Y-539805D01*
X12130057Y-844567D01*
X12215771Y-844567D01*
X12272914Y-882662D01*
X12301485Y-920757D01*
X12330057Y-996948D01*
X12330057Y-1187424D01*
X12301485Y-1263614D01*
X12272914Y-1301710D01*
X12215771Y-1339805D01*
X12044343Y-1339805D01*
X11987200Y-1301710D01*
X11958628Y-1263614D01*
X11472914Y1581129D02*
X11472914Y781129D01*
X11472914Y1543033D02*
X11530057Y1581129D01*
X11644343Y1581129D01*
X11701486Y1543033D01*
X11730057Y1504938D01*
X11758628Y1428748D01*
X11758628Y1200176D01*
X11730057Y1123986D01*
X11701486Y1085890D01*
X11644343Y1047795D01*
X11530057Y1047795D01*
X11472914Y1085890D01*
X11987200Y1771605D02*
X12015771Y1809700D01*
X12072914Y1847795D01*
X12215771Y1847795D01*
X12272914Y1809700D01*
X12301485Y1771605D01*
X12330057Y1695414D01*
X12330057Y1619224D01*
X12301485Y1504938D01*
X11958628Y1047795D01*
X12330057Y1047795D01*
X12793714Y3613129D02*
X12793714Y2813129D01*
X12793714Y3575033D02*
X12850857Y3613129D01*
X12965143Y3613129D01*
X13022286Y3575033D01*
X13050857Y3536938D01*
X13079428Y3460748D01*
X13079428Y3232176D01*
X13050857Y3155986D01*
X13022286Y3117890D01*
X12965143Y3079795D01*
X12850857Y3079795D01*
X12793714Y3117890D01*
X13650857Y3079795D02*
X13308000Y3079795D01*
X13479428Y3079795D02*
X13479428Y3879795D01*
X13422285Y3765510D01*
X13365143Y3689319D01*
X13308000Y3651224D01*
X-1560457Y6788195D02*
X-1560457Y7588195D01*
X-1331885Y7588195D01*
X-1274743Y7550100D01*
X-1246171Y7512005D01*
X-1217600Y7435814D01*
X-1217600Y7321529D01*
X-1246171Y7245338D01*
X-1274743Y7207243D01*
X-1331885Y7169148D01*
X-1560457Y7169148D01*
X-646171Y6788195D02*
X-989028Y6788195D01*
X-817600Y6788195D02*
X-817600Y7588195D01*
X-874743Y7473910D01*
X-931885Y7397719D01*
X-989028Y7359624D01*
X4067200Y-5950005D02*
X4067200Y-6521433D01*
X4038628Y-6635719D01*
X3981485Y-6711910D01*
X3895771Y-6750005D01*
X3838628Y-6750005D01*
X4324343Y-6026195D02*
X4352914Y-5988100D01*
X4410057Y-5950005D01*
X4552914Y-5950005D01*
X4610057Y-5988100D01*
X4638628Y-6026195D01*
X4667200Y-6102386D01*
X4667200Y-6178576D01*
X4638628Y-6292862D01*
X4295771Y-6750005D01*
X4667200Y-6750005D01*
X1976485Y-7918414D02*
X1947914Y-7956510D01*
X1862200Y-7994605D01*
X1805057Y-7994605D01*
X1719342Y-7956510D01*
X1662200Y-7880319D01*
X1633628Y-7804129D01*
X1605057Y-7651748D01*
X1605057Y-7537462D01*
X1633628Y-7385081D01*
X1662200Y-7308890D01*
X1719342Y-7232700D01*
X1805057Y-7194605D01*
X1862200Y-7194605D01*
X1947914Y-7232700D01*
X1976485Y-7270795D01*
X2547914Y-7994605D02*
X2205057Y-7994605D01*
X2376485Y-7994605D02*
X2376485Y-7194605D01*
X2319342Y-7308890D01*
X2262200Y-7385081D01*
X2205057Y-7423176D01*
X3119343Y-7994605D02*
X2776486Y-7994605D01*
X2947914Y-7994605D02*
X2947914Y-7194605D01*
X2890771Y-7308890D01*
X2833629Y-7385081D01*
X2776486Y-7423176D01*
X-354000Y-4870414D02*
X-382571Y-4908510D01*
X-468285Y-4946605D01*
X-525428Y-4946605D01*
X-611143Y-4908510D01*
X-668285Y-4832319D01*
X-696857Y-4756129D01*
X-725428Y-4603748D01*
X-725428Y-4489462D01*
X-696857Y-4337081D01*
X-668285Y-4260890D01*
X-611143Y-4184700D01*
X-525428Y-4146605D01*
X-468285Y-4146605D01*
X-382571Y-4184700D01*
X-354000Y-4222795D01*
X-154000Y-4146605D02*
X246000Y-4146605D01*
X-11143Y-4946605D01*
X4165657Y-3638605D02*
X4165657Y-4286224D01*
X4194229Y-4362414D01*
X4222800Y-4400510D01*
X4279943Y-4438605D01*
X4394229Y-4438605D01*
X4451371Y-4400510D01*
X4479943Y-4362414D01*
X4508514Y-4286224D01*
X4508514Y-3638605D01*
X4765657Y-3714795D02*
X4794228Y-3676700D01*
X4851371Y-3638605D01*
X4994228Y-3638605D01*
X5051371Y-3676700D01*
X5079942Y-3714795D01*
X5108514Y-3790986D01*
X5108514Y-3867176D01*
X5079942Y-3981462D01*
X4737085Y-4438605D01*
X5108514Y-4438605D01*
X-12093515Y44395D02*
X-11693515Y-755605D01*
X-11693515Y44395D02*
X-12093515Y-755605D01*
X-11150657Y-755605D02*
X-11493514Y-755605D01*
X-11322086Y-755605D02*
X-11322086Y44395D01*
X-11379229Y-69890D01*
X-11436371Y-146081D01*
X-11493514Y-184176D01*
X-10768000Y-1365214D02*
X-10796571Y-1403310D01*
X-10882285Y-1441405D01*
X-10939428Y-1441405D01*
X-11025143Y-1403310D01*
X-11082285Y-1327119D01*
X-11110857Y-1250929D01*
X-11139428Y-1098548D01*
X-11139428Y-984262D01*
X-11110857Y-831881D01*
X-11082285Y-755690D01*
X-11025143Y-679500D01*
X-10939428Y-641405D01*
X-10882285Y-641405D01*
X-10796571Y-679500D01*
X-10768000Y-717595D01*
X-10568000Y-641405D02*
X-10196571Y-641405D01*
X-10396571Y-946167D01*
X-10310857Y-946167D01*
X-10253714Y-984262D01*
X-10225143Y-1022357D01*
X-10196571Y-1098548D01*
X-10196571Y-1289024D01*
X-10225143Y-1365214D01*
X-10253714Y-1403310D01*
X-10310857Y-1441405D01*
X-10482285Y-1441405D01*
X-10539428Y-1403310D01*
X-10568000Y-1365214D01*
X-7262800Y1987586D02*
X-7291371Y1949490D01*
X-7377085Y1911395D01*
X-7434228Y1911395D01*
X-7519943Y1949490D01*
X-7577085Y2025681D01*
X-7605657Y2101871D01*
X-7634228Y2254252D01*
X-7634228Y2368538D01*
X-7605657Y2520919D01*
X-7577085Y2597110D01*
X-7519943Y2673300D01*
X-7434228Y2711395D01*
X-7377085Y2711395D01*
X-7291371Y2673300D01*
X-7262800Y2635205D01*
X-6691371Y1911395D02*
X-7034228Y1911395D01*
X-6862800Y1911395D02*
X-6862800Y2711395D01*
X-6919943Y2597110D01*
X-6977085Y2520919D01*
X-7034228Y2482824D01*
X-8685200Y4121186D02*
X-8713771Y4083090D01*
X-8799485Y4044995D01*
X-8856628Y4044995D01*
X-8942343Y4083090D01*
X-8999485Y4159281D01*
X-9028057Y4235471D01*
X-9056628Y4387852D01*
X-9056628Y4502138D01*
X-9028057Y4654519D01*
X-8999485Y4730710D01*
X-8942343Y4806900D01*
X-8856628Y4844995D01*
X-8799485Y4844995D01*
X-8713771Y4806900D01*
X-8685200Y4768805D01*
X-8170914Y4844995D02*
X-8285200Y4844995D01*
X-8342343Y4806900D01*
X-8370914Y4768805D01*
X-8428057Y4654519D01*
X-8456628Y4502138D01*
X-8456628Y4197376D01*
X-8428057Y4121186D01*
X-8399485Y4083090D01*
X-8342343Y4044995D01*
X-8228057Y4044995D01*
X-8170914Y4083090D01*
X-8142343Y4121186D01*
X-8113771Y4197376D01*
X-8113771Y4387852D01*
X-8142343Y4464043D01*
X-8170914Y4502138D01*
X-8228057Y4540233D01*
X-8342343Y4540233D01*
X-8399485Y4502138D01*
X-8428057Y4464043D01*
X-8456628Y4387852D01*
X-11682400Y-2076414D02*
X-11710971Y-2114510D01*
X-11796685Y-2152605D01*
X-11853828Y-2152605D01*
X-11939543Y-2114510D01*
X-11996685Y-2038319D01*
X-12025257Y-1962129D01*
X-12053828Y-1809748D01*
X-12053828Y-1695462D01*
X-12025257Y-1543081D01*
X-11996685Y-1466890D01*
X-11939543Y-1390700D01*
X-11853828Y-1352605D01*
X-11796685Y-1352605D01*
X-11710971Y-1390700D01*
X-11682400Y-1428795D01*
X-11168114Y-1619271D02*
X-11168114Y-2152605D01*
X-11310971Y-1314510D02*
X-11453828Y-1885938D01*
X-11082400Y-1885938D01*
X-9955200Y4476786D02*
X-9983771Y4438690D01*
X-10069485Y4400595D01*
X-10126628Y4400595D01*
X-10212343Y4438690D01*
X-10269485Y4514881D01*
X-10298057Y4591071D01*
X-10326628Y4743452D01*
X-10326628Y4857738D01*
X-10298057Y5010119D01*
X-10269485Y5086310D01*
X-10212343Y5162500D01*
X-10126628Y5200595D01*
X-10069485Y5200595D01*
X-9983771Y5162500D01*
X-9955200Y5124405D01*
X-9726628Y5124405D02*
X-9698057Y5162500D01*
X-9640914Y5200595D01*
X-9498057Y5200595D01*
X-9440914Y5162500D01*
X-9412343Y5124405D01*
X-9383771Y5048214D01*
X-9383771Y4972024D01*
X-9412343Y4857738D01*
X-9755200Y4400595D01*
X-9383771Y4400595D01*
X154000Y-7994614D02*
X125429Y-8032710D01*
X39715Y-8070805D01*
X-17428Y-8070805D01*
X-103143Y-8032710D01*
X-160285Y-7956519D01*
X-188857Y-7880329D01*
X-217428Y-7727948D01*
X-217428Y-7613662D01*
X-188857Y-7461281D01*
X-160285Y-7385090D01*
X-103143Y-7308900D01*
X-17428Y-7270805D01*
X39715Y-7270805D01*
X125429Y-7308900D01*
X154000Y-7346995D01*
X439715Y-8070805D02*
X554000Y-8070805D01*
X611143Y-8032710D01*
X639715Y-7994614D01*
X696857Y-7880329D01*
X725429Y-7727948D01*
X725429Y-7423186D01*
X696857Y-7346995D01*
X668286Y-7308900D01*
X611143Y-7270805D01*
X496857Y-7270805D01*
X439715Y-7308900D01*
X411143Y-7346995D01*
X382572Y-7423186D01*
X382572Y-7613662D01*
X411143Y-7689852D01*
X439715Y-7727948D01*
X496857Y-7766043D01*
X611143Y-7766043D01*
X668286Y-7727948D01*
X696857Y-7689852D01*
X725429Y-7613662D01*
X-2690800Y2241586D02*
X-2719371Y2203490D01*
X-2805085Y2165395D01*
X-2862228Y2165395D01*
X-2947943Y2203490D01*
X-3005085Y2279681D01*
X-3033657Y2355871D01*
X-3062228Y2508252D01*
X-3062228Y2622538D01*
X-3033657Y2774919D01*
X-3005085Y2851110D01*
X-2947943Y2927300D01*
X-2862228Y2965395D01*
X-2805085Y2965395D01*
X-2719371Y2927300D01*
X-2690800Y2889205D01*
X-2347943Y2622538D02*
X-2405085Y2660633D01*
X-2433657Y2698729D01*
X-2462228Y2774919D01*
X-2462228Y2813014D01*
X-2433657Y2889205D01*
X-2405085Y2927300D01*
X-2347943Y2965395D01*
X-2233657Y2965395D01*
X-2176514Y2927300D01*
X-2147943Y2889205D01*
X-2119371Y2813014D01*
X-2119371Y2774919D01*
X-2147943Y2698729D01*
X-2176514Y2660633D01*
X-2233657Y2622538D01*
X-2347943Y2622538D01*
X-2405085Y2584443D01*
X-2433657Y2546348D01*
X-2462228Y2470157D01*
X-2462228Y2317776D01*
X-2433657Y2241586D01*
X-2405085Y2203490D01*
X-2347943Y2165395D01*
X-2233657Y2165395D01*
X-2176514Y2203490D01*
X-2147943Y2241586D01*
X-2119371Y2317776D01*
X-2119371Y2470157D01*
X-2147943Y2546348D01*
X-2176514Y2584443D01*
X-2233657Y2622538D01*
X985885Y-1619214D02*
X957314Y-1657310D01*
X871600Y-1695405D01*
X814457Y-1695405D01*
X728742Y-1657310D01*
X671600Y-1581119D01*
X643028Y-1504929D01*
X614457Y-1352548D01*
X614457Y-1238262D01*
X643028Y-1085881D01*
X671600Y-1009690D01*
X728742Y-933500D01*
X814457Y-895405D01*
X871600Y-895405D01*
X957314Y-933500D01*
X985885Y-971595D01*
X1557314Y-1695405D02*
X1214457Y-1695405D01*
X1385885Y-1695405D02*
X1385885Y-895405D01*
X1328742Y-1009690D01*
X1271600Y-1085881D01*
X1214457Y-1123976D01*
X1928743Y-895405D02*
X1985886Y-895405D01*
X2043029Y-933500D01*
X2071600Y-971595D01*
X2100171Y-1047786D01*
X2128743Y-1200167D01*
X2128743Y-1390643D01*
X2100171Y-1543024D01*
X2071600Y-1619214D01*
X2043029Y-1657310D01*
X1985886Y-1695405D01*
X1928743Y-1695405D01*
X1871600Y-1657310D01*
X1843029Y-1619214D01*
X1814457Y-1543024D01*
X1785886Y-1390643D01*
X1785886Y-1200167D01*
X1814457Y-1047786D01*
X1843029Y-971595D01*
X1871600Y-933500D01*
X1928743Y-895405D01*
X-761943Y-1555805D02*
X-761943Y-2203424D01*
X-733371Y-2279614D01*
X-704800Y-2317710D01*
X-647657Y-2355805D01*
X-533371Y-2355805D01*
X-476229Y-2317710D01*
X-447657Y-2279614D01*
X-419086Y-2203424D01*
X-419086Y-1555805D01*
X180914Y-2355805D02*
X-161943Y-2355805D01*
X9485Y-2355805D02*
X9485Y-1555805D01*
X-47658Y-1670090D01*
X-104800Y-1746281D01*
X-161943Y-1784376D01*
M02*
