G04 #@! TF.FileFunction,Paste,Top*
%FSLAX46Y46*%
G04 Gerber Fmt 4.6, Leading zero omitted, Abs format (unit mm)*
G04 Created by KiCad (PCBNEW 4.0.7) date 2018. July 04., Wednesday 00:12:24*
%MOMM*%
%LPD*%
G01*
G04 APERTURE LIST*
%ADD10C,0.150000*%
%ADD11R,0.320000X0.480000*%
%ADD12R,0.480000X0.320000*%
%ADD13R,0.400000X0.480000*%
%ADD14R,0.560000X0.200000*%
%ADD15R,0.498000X0.714000*%
%ADD16R,0.520000X0.848000*%
%ADD17R,0.480000X0.400000*%
%ADD18R,0.240000X0.360000*%
%ADD19R,0.640080X0.558800*%
%ADD20R,0.959104X0.495808*%
%ADD21R,0.955040X1.117600*%
%ADD22R,0.558800X0.640080*%
%ADD23R,0.599440X0.239776*%
%ADD24R,0.239776X0.599440*%
%ADD25R,3.279648X3.279648*%
G04 APERTURE END LIST*
D10*
D11*
X-5174400Y-6007100D03*
X-4274400Y-6007100D03*
D12*
X-2997200Y-6711100D03*
X-2997200Y-5811100D03*
D11*
X-5174400Y-6921500D03*
X-4274400Y-6921500D03*
X-6001600Y2476500D03*
X-6901600Y2476500D03*
X1124800Y800100D03*
X2024800Y800100D03*
X1124800Y1816100D03*
X2024800Y1816100D03*
X1124800Y-317500D03*
X2024800Y-317500D03*
D12*
X-11074400Y-6268300D03*
X-11074400Y-7168300D03*
X-7112000Y-6914300D03*
X-7112000Y-6014300D03*
D11*
X-5087200Y4610100D03*
X-5987200Y4610100D03*
X-5087200Y3695700D03*
X-5987200Y3695700D03*
D13*
X-10718800Y-3407500D03*
X-10718800Y-2307500D03*
D14*
X-9324800Y7239700D03*
X-9324800Y6739700D03*
X-9324800Y6239700D03*
X-9324800Y5739700D03*
X-6524800Y5739700D03*
X-6524800Y6239700D03*
X-6524800Y6739700D03*
X-6524800Y7239700D03*
D15*
X-7509800Y5894700D03*
X-7509800Y7084700D03*
X-8339800Y5894700D03*
X-8339800Y7084700D03*
D16*
X-10043200Y-6903900D03*
X-9093200Y-6903900D03*
X-8143200Y-6903900D03*
X-8143200Y-4703900D03*
X-10043200Y-4703900D03*
X-9093200Y-4703900D03*
D17*
X-4326800Y7251700D03*
X-5426800Y7251700D03*
D18*
X2903600Y-1931900D03*
X3903600Y-1931900D03*
X2903600Y-531900D03*
X3403600Y-1931900D03*
X3903600Y-531900D03*
D19*
X2377440Y-6616700D03*
X1280160Y-6616700D03*
X-1897380Y-5549900D03*
X-800100Y-5549900D03*
D20*
X3159760Y-5331460D03*
X3159760Y-4381500D03*
X3159760Y-3431540D03*
X523240Y-3431540D03*
X523240Y-5331460D03*
D21*
X-11112500Y3271520D03*
X-9410700Y3271520D03*
X-9410700Y1071880D03*
X-11112500Y1071880D03*
D19*
X-8442960Y-977900D03*
X-9540240Y-977900D03*
D22*
X-8128000Y363220D03*
X-8128000Y1460500D03*
D19*
X-6817360Y3340100D03*
X-7914640Y3340100D03*
X-8442960Y-2247900D03*
X-9540240Y-2247900D03*
D22*
X-11226800Y4671060D03*
X-11226800Y5768340D03*
D19*
X-800100Y-6949440D03*
X-1897380Y-6949440D03*
X-314960Y2374900D03*
X-1412240Y2374900D03*
X1026160Y-2298700D03*
X2123440Y-2298700D03*
D23*
X-7025640Y652780D03*
X-7025640Y152400D03*
X-7025640Y-347980D03*
X-7025640Y-848360D03*
X-7025640Y-1348740D03*
X-7025640Y-1849120D03*
X-7025640Y-2349500D03*
X-7025640Y-2849880D03*
X-7025640Y-3350260D03*
D24*
X-6250940Y-4124960D03*
X-5750560Y-4124960D03*
X-5250180Y-4124960D03*
X-4749800Y-4124960D03*
X-4249420Y-4124960D03*
X-3749040Y-4124960D03*
X-3248660Y-4124960D03*
X-2748280Y-4124960D03*
X-2247900Y-4124960D03*
D23*
X-1473200Y-3350260D03*
X-1473200Y-2849880D03*
X-1473200Y-2349500D03*
X-1473200Y-1849120D03*
X-1473200Y-1348740D03*
X-1473200Y-848360D03*
X-1473200Y-347980D03*
X-1473200Y152400D03*
X-1473200Y652780D03*
D24*
X-2247900Y1427480D03*
X-2748280Y1427480D03*
X-3248660Y1427480D03*
X-3749040Y1427480D03*
X-4249420Y1427480D03*
X-4749800Y1427480D03*
X-5250180Y1427480D03*
X-5750560Y1427480D03*
X-6250940Y1427480D03*
D25*
X-4249420Y-1348740D03*
M02*
