G04 #@! TF.FileFunction,Copper,L2,Bot,Signal*
%FSLAX46Y46*%
G04 Gerber Fmt 4.6, Leading zero omitted, Abs format (unit mm)*
G04 Created by KiCad (PCBNEW 4.0.7) date 2018. July 04., Wednesday 00:12:24*
%MOMM*%
%LPD*%
G01*
G04 APERTURE LIST*
%ADD10C,0.150000*%
%ADD11O,3.500120X1.501140*%
%ADD12R,1.998980X1.198880*%
%ADD13C,1.099820*%
%ADD14O,8.000000X8.000000*%
%ADD15C,0.546100*%
%ADD16C,0.250000*%
%ADD17C,0.300000*%
%ADD18C,0.127000*%
%ADD19C,0.200660*%
G04 APERTURE END LIST*
D10*
D11*
X6999600Y5683770D03*
X6999600Y-5715750D03*
D12*
X4599020Y-1016750D03*
X4599020Y1000010D03*
X4599020Y-3516110D03*
X4599020Y3484130D03*
D13*
X6999600Y-2266430D03*
X6999600Y2234450D03*
D10*
G36*
X-11591190Y-1745310D02*
X-11141610Y-1745310D01*
X-11141610Y-2245690D01*
X-11591190Y-2245690D01*
X-11591190Y-1745310D01*
X-11591190Y-1745310D01*
G37*
G36*
X-11591190Y-221310D02*
X-11141610Y-221310D01*
X-11141610Y-721690D01*
X-11591190Y-721690D01*
X-11591190Y-221310D01*
X-11591190Y-221310D01*
G37*
G36*
X-10778390Y-1745310D02*
X-10328810Y-1745310D01*
X-10328810Y-2245690D01*
X-10778390Y-2245690D01*
X-10778390Y-1745310D01*
X-10778390Y-1745310D01*
G37*
G36*
X-10778390Y-221310D02*
X-10328810Y-221310D01*
X-10328810Y-721690D01*
X-10778390Y-721690D01*
X-10778390Y-221310D01*
X-10778390Y-221310D01*
G37*
D14*
X-3454400Y-12700D03*
D15*
X-7914640Y4239250D03*
X-304800Y5524500D03*
X-4572000Y6184900D03*
X-10793666Y-4381500D03*
X1574800Y-4381504D03*
X2810660Y-1181100D03*
X2997200Y1054100D03*
X4673600Y-2197100D03*
X3274211Y88900D03*
X-355600Y6896106D03*
X6959600Y444500D03*
X761900Y6991943D03*
X6959600Y-317500D03*
X1574800Y3797300D03*
X-2184400Y4914900D03*
X4622800Y-4686300D03*
X-101600Y4457700D03*
X994420Y4457696D03*
X3505200Y4914898D03*
X-11379200Y-1181100D03*
X-5943602Y-6362698D03*
X-6411938Y-6850098D03*
X-10566400Y-5651500D03*
D16*
X-7924800Y5473696D02*
X-9296404Y5473696D01*
X-9296404Y5473696D02*
X-9956800Y4813300D01*
X-10769600Y-3263900D02*
X-10769600Y-4357434D01*
X-9956800Y4813300D02*
X-9956800Y-2451100D01*
X-9956800Y-2451100D02*
X-10769600Y-3263900D01*
X-10769600Y-4357434D02*
X-10793666Y-4381500D01*
X-690951Y5524500D02*
X-304800Y5524500D01*
X-719612Y5495839D02*
X-690951Y5524500D01*
X-4549857Y5495839D02*
X-719612Y5495839D01*
X-4572000Y5473696D02*
X-4549857Y5495839D01*
X-7914640Y5463536D02*
X-7914640Y4625401D01*
X-7914640Y4625401D02*
X-7914640Y4239250D01*
X-7924800Y5473696D02*
X-7914640Y5463536D01*
D17*
X654153Y5519099D02*
X-299399Y5519099D01*
X1574800Y-4381504D02*
X2235200Y-3721104D01*
X2235200Y-3721104D02*
X2235200Y4813300D01*
X2235200Y4813300D02*
X1524000Y5524500D01*
X1524000Y5524500D02*
X659554Y5524500D01*
X659554Y5524500D02*
X654153Y5519099D01*
X-299399Y5519099D02*
X-304800Y5524500D01*
D16*
X-4572000Y5473696D02*
X-7924800Y5473696D01*
X-4572000Y5473696D02*
X-4572000Y6184900D01*
D17*
X2724151Y781051D02*
X2724151Y-1094591D01*
X2724151Y-1094591D02*
X2810660Y-1181100D01*
X2997200Y1054100D02*
X2724151Y781051D01*
D18*
X3051290Y1000010D02*
X2997200Y1054100D01*
X4599020Y1000010D02*
X3051290Y1000010D01*
X4599020Y-2122520D02*
X4673600Y-2197100D01*
X4599020Y-1016750D02*
X4599020Y-2122520D01*
X4599020Y-1016750D02*
X4198970Y-1016750D01*
X3274211Y-91991D02*
X3274211Y88900D01*
X4198970Y-1016750D02*
X3274211Y-91991D01*
X-82551Y7169155D02*
X-355600Y6896106D01*
X5794825Y4711700D02*
X5334000Y4711700D01*
X6248400Y4258125D02*
X5794825Y4711700D01*
X6248400Y1155700D02*
X6248400Y4258125D01*
X222243Y7473949D02*
X-82551Y7169155D01*
X2571751Y7473949D02*
X222243Y7473949D01*
X5334000Y4711700D02*
X2571751Y7473949D01*
X6959600Y444500D02*
X6248400Y1155700D01*
X1148051Y6991943D02*
X761900Y6991943D01*
X2502439Y6991943D02*
X1148051Y6991943D01*
X5138282Y4356100D02*
X2502439Y6991943D01*
X5943600Y4203700D02*
X5791200Y4356100D01*
X5943600Y698500D02*
X5943600Y4203700D01*
X5791200Y4356100D02*
X5138282Y4356100D01*
X6959600Y-317500D02*
X5943600Y698500D01*
X731527Y7200900D02*
X761900Y7170527D01*
X761900Y7170527D02*
X761900Y6991943D01*
X711200Y7200900D02*
X731527Y7200900D01*
X1574800Y4183451D02*
X1574800Y3797300D01*
X1574800Y4711700D02*
X1574800Y4183451D01*
X1291589Y4994911D02*
X1574800Y4711700D01*
X-1718238Y4994911D02*
X1291589Y4994911D01*
X-2184400Y4914900D02*
X-1798249Y4914900D01*
X-1798249Y4914900D02*
X-1718238Y4994911D01*
D17*
X4599020Y-4662520D02*
X4622800Y-4686300D01*
X4599020Y-3516110D02*
X4599020Y-4662520D01*
X4599020Y-3516110D02*
X4198970Y-3516110D01*
D19*
X-101596Y4457696D02*
X-101600Y4457700D01*
X994420Y4457696D02*
X-101596Y4457696D01*
X4635500Y3502660D02*
X4635500Y4343400D01*
X4635500Y4343400D02*
X4064000Y4914900D01*
X4064000Y4914900D02*
X3505202Y4914900D01*
X3505202Y4914900D02*
X3505200Y4914898D01*
X-10553600Y-471500D02*
X-11366400Y-471500D01*
X-11366400Y-471500D02*
X-11366400Y-1168300D01*
X-11366400Y-1168300D02*
X-11379200Y-1181100D01*
D18*
X-11366400Y-1995500D02*
X-11661900Y-2291000D01*
X-11661900Y-6842000D02*
X-11190250Y-7313650D01*
X-11190250Y-7313650D02*
X-6189432Y-7313650D01*
X-6189432Y-7313650D02*
X-5943602Y-7067820D01*
X-11661900Y-2291000D02*
X-11661900Y-6842000D01*
X-5943602Y-7067820D02*
X-5943602Y-6748849D01*
X-5943602Y-6748849D02*
X-5943602Y-6362698D01*
X-10553600Y-1995500D02*
X-11282626Y-2724526D01*
X-11282626Y-2724526D02*
X-11282626Y-6510074D01*
X-11282626Y-6510074D02*
X-10972800Y-6819900D01*
X-6442136Y-6819900D02*
X-6411938Y-6850098D01*
X-10972800Y-6819900D02*
X-6442136Y-6819900D01*
X-10566400Y-5651500D02*
X-9093200Y-5651500D01*
X-9093200Y-5651500D02*
X-3454400Y-12700D01*
M02*
