G04 (created by PCBNEW (2013-07-07 BZR 4022)-stable) date 07/03/2014 22:57:32*
%MOIN*%
G04 Gerber Fmt 3.4, Leading zero omitted, Abs format*
%FSLAX34Y34*%
G01*
G70*
G90*
G04 APERTURE LIST*
%ADD10C,0.00590551*%
%ADD11R,0.0415X0.0238*%
%ADD12R,0.0238X0.0415*%
%ADD13R,0.1734X0.1734*%
%ADD14C,0.024*%
%ADD15O,0.1498X0.0711*%
%ADD16C,0.0553*%
%ADD17R,0.0435X0.0395*%
%ADD18R,0.0395X0.0435*%
%ADD19R,0.0592X0.0364*%
%ADD20R,0.059X0.067*%
%ADD21R,0.0317X0.0277*%
%ADD22C,0.0454646*%
%ADD23R,0.0454646X0.0454646*%
%ADD24C,0.0592441*%
G04 APERTURE END LIST*
G54D10*
G54D11*
X-2766Y257D03*
X-2766Y60D03*
X-2766Y-137D03*
X-2766Y-334D03*
X-2766Y-531D03*
X-2766Y-728D03*
X-2766Y-925D03*
X-2766Y-1122D03*
X-2766Y-1319D03*
G54D12*
X-2461Y-1624D03*
X-2264Y-1624D03*
X-2067Y-1624D03*
X-1870Y-1624D03*
X-1673Y-1624D03*
X-1476Y-1624D03*
X-1279Y-1624D03*
X-1082Y-1624D03*
X-885Y-1624D03*
G54D11*
X-580Y-1319D03*
X-580Y-1122D03*
X-580Y-925D03*
X-580Y-728D03*
X-580Y-531D03*
X-580Y-334D03*
X-580Y-137D03*
X-580Y60D03*
X-580Y257D03*
G54D12*
X-885Y562D03*
X-1082Y562D03*
X-1279Y562D03*
X-1476Y562D03*
X-1673Y562D03*
X-1870Y562D03*
X-2067Y562D03*
X-2264Y562D03*
X-2461Y562D03*
G54D13*
X-1673Y-531D03*
G54D14*
X-1673Y-531D03*
X-1279Y-531D03*
X-2067Y-531D03*
X-2067Y-137D03*
X-1673Y-137D03*
X-1279Y-137D03*
X-1279Y-925D03*
X-1673Y-925D03*
X-2067Y-925D03*
G54D15*
X2652Y2245D03*
X2652Y-2243D03*
G54D16*
X2652Y-885D03*
X2652Y887D03*
G54D17*
X-3347Y-335D03*
X-3779Y-335D03*
X-3838Y-2206D03*
X-3406Y-2206D03*
G54D18*
X-2480Y1239D03*
X-2480Y1671D03*
G54D17*
X-747Y-2185D03*
X-315Y-2185D03*
X1053Y2579D03*
X621Y2579D03*
G54D18*
X-1574Y1239D03*
X-1574Y1671D03*
G54D17*
X-3779Y-984D03*
X-3347Y-984D03*
X-3700Y2795D03*
X-3268Y2795D03*
X-315Y-2736D03*
X-747Y-2736D03*
G54D19*
X1444Y-1575D03*
X1444Y-1201D03*
X1444Y-827D03*
X406Y-827D03*
X406Y-1575D03*
G54D17*
X1043Y-2205D03*
X611Y-2205D03*
G54D20*
X-3780Y2146D03*
X-3110Y2146D03*
X-3110Y1280D03*
X-3780Y1280D03*
G54D17*
X1053Y2087D03*
X621Y2087D03*
X827Y-295D03*
X1259Y-295D03*
G54D21*
X492Y728D03*
X492Y472D03*
X492Y216D03*
X1240Y216D03*
X1240Y472D03*
X1240Y728D03*
G54D17*
X-1364Y-2740D03*
X-1796Y-2740D03*
G54D22*
X-829Y2872D03*
X-429Y2872D03*
G54D23*
X-1229Y2472D03*
G54D22*
X-29Y2872D03*
G54D17*
X-3838Y-2717D03*
X-3406Y-2717D03*
G54D24*
X-2598Y2754D03*
X-2007Y2754D03*
G54D17*
X-2028Y2203D03*
X-2460Y2203D03*
M02*
