G04 (created by PCBNEW-RS274X (2011-05-25)-stable) date Tue 14 Jan 2014 03:28:53 PM CET*
G01*
G70*
G90*
%MOIN*%
G04 Gerber Fmt 3.4, Leading zero omitted, Abs format*
%FSLAX34Y34*%
G04 APERTURE LIST*
%ADD10C,0.006000*%
%ADD11C,0.003900*%
%ADD12C,0.002000*%
%ADD13C,0.000400*%
G04 APERTURE END LIST*
G54D10*
G54D11*
X01830Y-03080D02*
X02030Y-03080D01*
X02030Y-03080D02*
X02030Y-02720D01*
X02030Y-02720D02*
X02030Y-02700D01*
X02030Y-02700D02*
X01830Y-02700D01*
X01810Y-03080D02*
X01350Y-03080D01*
X01350Y-03080D02*
X01350Y-02700D01*
X01350Y-02700D02*
X01830Y-02700D01*
X01830Y-03080D02*
X01810Y-03080D01*
X00926Y-03092D02*
X-03877Y-03092D01*
X00945Y-00025D02*
X00945Y03015D01*
X00945Y03015D02*
X-01475Y03015D01*
X-01475Y03015D02*
X-03895Y03015D01*
X-03895Y03015D02*
X-03895Y-00025D01*
X-03895Y-00025D02*
X-03895Y-03085D01*
X00945Y-03085D02*
X00945Y-00005D01*
G54D12*
X01742Y-02840D02*
X01742Y-02742D01*
X01704Y-02742D01*
X01695Y-02746D01*
X01690Y-02751D01*
X01686Y-02760D01*
X01686Y-02774D01*
X01690Y-02784D01*
X01695Y-02788D01*
X01704Y-02793D01*
X01742Y-02793D01*
X01648Y-02751D02*
X01644Y-02746D01*
X01634Y-02742D01*
X01611Y-02742D01*
X01602Y-02746D01*
X01597Y-02751D01*
X01592Y-02760D01*
X01592Y-02770D01*
X01597Y-02784D01*
X01653Y-02840D01*
X01592Y-02840D01*
G54D11*
X-00228Y-00112D02*
X-00073Y-00112D01*
X-00042Y-00103D01*
X-00021Y-00084D01*
X-00011Y-00056D01*
X-00011Y-00037D01*
X-00011Y-00309D02*
X-00011Y-00197D01*
X-00011Y-00253D02*
X-00228Y-00253D01*
X-00197Y-00234D01*
X-00176Y-00215D01*
X-00166Y-00197D01*
G54D13*
X-00395Y00145D02*
X-00393Y00138D01*
X-00393Y00126D01*
X-00395Y00122D01*
X-00398Y00119D01*
X-00402Y00117D01*
X-00407Y00117D01*
X-00412Y00119D01*
X-00414Y00122D01*
X-00417Y00126D01*
X-00419Y00136D01*
X-00421Y00141D01*
X-00424Y00143D01*
X-00428Y00145D01*
X-00433Y00145D01*
X-00438Y00143D01*
X-00440Y00141D01*
X-00443Y00136D01*
X-00443Y00124D01*
X-00440Y00117D01*
X-00393Y00095D02*
X-00443Y00095D01*
X-00393Y00071D02*
X-00443Y00071D01*
X-00407Y00054D01*
X-00443Y00038D01*
X-00393Y00038D01*
X-00388Y00026D02*
X-00388Y-00012D01*
X-00443Y-00038D02*
X-00407Y-00038D01*
X-00400Y-00036D01*
X-00395Y-00031D01*
X-00393Y-00024D01*
X-00393Y-00019D01*
X-00407Y-00060D02*
X-00407Y-00083D01*
X-00393Y-00055D02*
X-00443Y-00071D01*
X-00393Y-00088D01*
X-00398Y-00133D02*
X-00395Y-00131D01*
X-00393Y-00124D01*
X-00393Y-00119D01*
X-00395Y-00112D01*
X-00400Y-00107D01*
X-00405Y-00105D01*
X-00414Y-00103D01*
X-00421Y-00103D01*
X-00431Y-00105D01*
X-00436Y-00107D01*
X-00440Y-00112D01*
X-00443Y-00119D01*
X-00443Y-00124D01*
X-00440Y-00131D01*
X-00438Y-00133D01*
X-00393Y-00155D02*
X-00443Y-00155D01*
X-00393Y-00183D02*
X-00421Y-00162D01*
X-00443Y-00183D02*
X-00414Y-00155D01*
X-00419Y-00205D02*
X-00419Y-00222D01*
X-00393Y-00229D02*
X-00393Y-00205D01*
X-00443Y-00205D01*
X-00443Y-00229D01*
X-00443Y-00243D02*
X-00443Y-00271D01*
X-00393Y-00257D02*
X-00443Y-00257D01*
M02*
