G04 (created by PCBNEW-RS274X (2011-05-25)-stable) date Tue 14 Jan 2014 03:28:53 PM CET*
G01*
G70*
G90*
%MOIN*%
G04 Gerber Fmt 3.4, Leading zero omitted, Abs format*
%FSLAX34Y34*%
G04 APERTURE LIST*
%ADD10C,0.006000*%
%ADD11R,0.023500X0.009400*%
%ADD12R,0.009400X0.023500*%
%ADD13R,0.129200X0.129200*%
%ADD14R,0.025100X0.021900*%
%ADD15R,0.021900X0.025100*%
%ADD16R,0.037800X0.019600*%
%ADD17R,0.037600X0.044000*%
%ADD18R,0.015700X0.012500*%
G04 APERTURE END LIST*
G54D10*
G54D11*
X-02766Y00257D03*
X-02766Y00060D03*
X-02766Y-00137D03*
X-02766Y-00334D03*
X-02766Y-00531D03*
X-02766Y-00728D03*
X-02766Y-00925D03*
X-02766Y-01122D03*
X-02766Y-01319D03*
G54D12*
X-02461Y-01624D03*
X-02264Y-01624D03*
X-02067Y-01624D03*
X-01870Y-01624D03*
X-01673Y-01624D03*
X-01476Y-01624D03*
X-01279Y-01624D03*
X-01082Y-01624D03*
X-00885Y-01624D03*
G54D11*
X-00580Y-01319D03*
X-00580Y-01122D03*
X-00580Y-00925D03*
X-00580Y-00728D03*
X-00580Y-00531D03*
X-00580Y-00334D03*
X-00580Y-00137D03*
X-00580Y00060D03*
X-00580Y00257D03*
G54D12*
X-00885Y00562D03*
X-01082Y00562D03*
X-01279Y00562D03*
X-01476Y00562D03*
X-01673Y00562D03*
X-01870Y00562D03*
X-02067Y00562D03*
X-02264Y00562D03*
X-02461Y00562D03*
G54D13*
X-01673Y-00531D03*
G54D14*
X-03347Y-00335D03*
X-03779Y-00335D03*
X-03858Y-02205D03*
X-03426Y-02205D03*
G54D15*
X-02500Y01438D03*
X-02500Y01870D03*
G54D14*
X-00747Y-02185D03*
X-00315Y-02185D03*
X01053Y02579D03*
X00621Y02579D03*
G54D15*
X-01476Y01438D03*
X-01476Y01870D03*
G54D14*
X-03779Y-00984D03*
X-03347Y-00984D03*
X-03700Y02795D03*
X-03268Y02795D03*
X-00315Y-02736D03*
X-00747Y-02736D03*
G54D16*
X01444Y-01575D03*
X01444Y-01201D03*
X01444Y-00827D03*
X00406Y-00827D03*
X00406Y-01575D03*
G54D14*
X01043Y-02205D03*
X00611Y-02205D03*
G54D17*
X-03780Y02146D03*
X-03110Y02146D03*
X-03110Y01280D03*
X-03780Y01280D03*
G54D14*
X-03877Y-02736D03*
X-03445Y-02736D03*
X01053Y02087D03*
X00621Y02087D03*
X00827Y-00295D03*
X01259Y-00295D03*
G54D18*
X00492Y00728D03*
X00492Y00472D03*
X00492Y00216D03*
X01240Y00216D03*
X01240Y00472D03*
X01240Y00728D03*
G54D10*
G36*
X-04080Y00382D02*
X-04080Y00242D01*
X-04236Y00242D01*
X-04236Y00382D01*
X-04080Y00382D01*
X-04080Y00382D01*
G37*
G36*
X-03480Y00382D02*
X-03480Y00242D01*
X-03636Y00242D01*
X-03636Y00382D01*
X-03480Y00382D01*
X-03480Y00382D01*
G37*
G36*
X-04080Y00702D02*
X-04080Y00562D01*
X-04236Y00562D01*
X-04236Y00702D01*
X-04080Y00702D01*
X-04080Y00702D01*
G37*
G36*
X-03480Y00702D02*
X-03480Y00562D01*
X-03636Y00562D01*
X-03636Y00702D01*
X-03480Y00702D01*
X-03480Y00702D01*
G37*
G54D14*
X-01364Y-02740D03*
X-01796Y-02740D03*
M02*
