M48
;DRILL file {Pcbnew (22-Jun-2014 BZR 4027)-stable} date Tue 25 Nov 2014 21:51:58 CET
;FORMAT={-:-/ absolute / metric / decimal}
FMAT,2
METRIC,TZ
T1C0.300
T2C0.330
T3C0.381
T4C0.500
T5C1.001
T6C1.100
%
G90
G05
M71
T1
X121.75Y99.344
X121.75Y100.345
X121.75Y101.346
X122.751Y99.344
X122.751Y100.345
X122.751Y101.346
X123.751Y99.344
X123.751Y100.345
X123.751Y101.346
T2
X123.876Y92.716
X124.892Y91.7
X125.908Y91.7
X126.924Y91.7
T3
X115.773Y97.333
X116.535Y97.384
X117.348Y96.977
X118.72Y102.768
X119.228Y96.926
X119.786Y97.638
X122.174Y94.59
X122.225Y96.774
X123.749Y95.555
X123.749Y96.266
X123.901Y93.98
X126.34Y94.945
X126.441Y95.86
X126.644Y101.854
X127.457Y104.699
X127.572Y96.584
X127.635Y100.012
X127.66Y93.066
X127.66Y95.453
X128.473Y102.108
X129.222Y98.615
X133.35Y97.98
X133.35Y100.012
X133.452Y102.565
X133.502Y95.199
T4
X120.4Y92.
X121.9Y92.
T6
X133.736Y96.744
X133.736Y101.244
T5
X134.485Y93.294G85X132.987Y93.294
G05
X134.485Y104.694G85X132.987Y104.694
G05
T0
M30
