G04 (created by PCBNEW (2013-07-07 BZR 4022)-stable) date 02/03/2014 17:35:42*
%MOIN*%
G04 Gerber Fmt 3.4, Leading zero omitted, Abs format*
%FSLAX34Y34*%
G01*
G70*
G90*
G04 APERTURE LIST*
%ADD10C,0.00590551*%
%ADD11R,0.06296X0.03776*%
G04 APERTURE END LIST*
G54D10*
G54D11*
X1825Y-393D03*
X1825Y401D03*
X1825Y-1377D03*
X1825Y1379D03*
G54D10*
G36*
X-4034Y221D02*
X-4175Y221D01*
X-4175Y378D01*
X-4034Y378D01*
X-4034Y221D01*
X-4034Y221D01*
G37*
G36*
X-4034Y-378D02*
X-4175Y-378D01*
X-4175Y-221D01*
X-4034Y-221D01*
X-4034Y-378D01*
X-4034Y-378D01*
G37*
G36*
X-4354Y221D02*
X-4495Y221D01*
X-4495Y378D01*
X-4354Y378D01*
X-4354Y221D01*
X-4354Y221D01*
G37*
G36*
X-4354Y-378D02*
X-4495Y-378D01*
X-4495Y-221D01*
X-4354Y-221D01*
X-4354Y-378D01*
X-4354Y-378D01*
G37*
G36*
X-280Y-3106D02*
X-485Y-3106D01*
X-485Y-2743D01*
X-280Y-2743D01*
X-280Y-3106D01*
X-280Y-3106D01*
G37*
G36*
X211Y-3106D02*
X6Y-3106D01*
X6Y-2743D01*
X211Y-2743D01*
X211Y-3106D01*
X211Y-3106D01*
G37*
G36*
X-782Y-3106D02*
X-987Y-3106D01*
X-987Y-2743D01*
X-782Y-2743D01*
X-782Y-3106D01*
X-782Y-3106D01*
G37*
G36*
X-1284Y-3106D02*
X-1489Y-3106D01*
X-1489Y-2743D01*
X-1284Y-2743D01*
X-1284Y-3106D01*
X-1284Y-3106D01*
G37*
G36*
X-1786Y-3106D02*
X-1991Y-3106D01*
X-1991Y-2743D01*
X-1786Y-2743D01*
X-1786Y-3106D01*
X-1786Y-3106D01*
G37*
G36*
X-2288Y-3106D02*
X-2493Y-3106D01*
X-2493Y-2743D01*
X-2288Y-2743D01*
X-2288Y-3106D01*
X-2288Y-3106D01*
G37*
G36*
X1015Y-2253D02*
X874Y-2253D01*
X874Y-1844D01*
X1015Y-1844D01*
X1015Y-2253D01*
X1015Y-2253D01*
G37*
G36*
X1015Y-1465D02*
X874Y-1465D01*
X874Y-1056D01*
X1015Y-1056D01*
X1015Y-1465D01*
X1015Y-1465D01*
G37*
G36*
X-3826Y-1465D02*
X-3967Y-1465D01*
X-3967Y-1056D01*
X-3826Y-1056D01*
X-3826Y-1465D01*
X-3826Y-1465D01*
G37*
G36*
X-3826Y-2253D02*
X-3967Y-2253D01*
X-3967Y-1844D01*
X-3826Y-1844D01*
X-3826Y-2253D01*
X-3826Y-2253D01*
G37*
G36*
X1146Y2191D02*
X705Y2191D01*
X705Y2726D01*
X1146Y2726D01*
X1146Y2191D01*
X1146Y2191D01*
G37*
G36*
X-3656Y2231D02*
X-4097Y2231D01*
X-4097Y2766D01*
X-3656Y2766D01*
X-3656Y2231D01*
X-3656Y2231D01*
G37*
G36*
X-366Y2176D02*
X-537Y2176D01*
X-537Y2428D01*
X-366Y2428D01*
X-366Y2176D01*
X-366Y2176D01*
G37*
G36*
X-2374Y2176D02*
X-2545Y2176D01*
X-2545Y2428D01*
X-2374Y2428D01*
X-2374Y2176D01*
X-2374Y2176D01*
G37*
M02*
