M48
;DRILL file {PCBnew (2011-05-25)-stable} date Tue 14 Jan 2014 03:29:00 PM CET
;FORMAT={-:-/ absolute / metric / decimal}
FMAT,2
METRIC,TZ
T1C0.300
T2C0.381
T3C0.599
T4C1.001
T5C1.100
%
G90
G05
M71
T1
X-5.250Y-0.348
X-5.250Y-1.349
X-5.250Y-2.350
X-4.249Y-0.348
X-4.249Y-1.349
X-4.249Y-2.350
X-3.249Y-0.348
X-3.249Y-1.349
X-3.249Y-2.350
T2
X-11.074Y2.464
X-5.131Y3.632
X-4.750Y2.438
X-3.226Y2.515
X-1.168Y-4.140
X-0.533Y2.159
X-0.254Y-2.540
X2.210Y-7.264
X3.175Y3.747
X6.340Y0.965
X6.340Y-3.734
X6.538Y-0.533
T3
X-8.458Y-4.191
X-7.239Y1.803
X-5.080Y5.715
X-1.270Y2.743
X0.229Y5.563
X0.229Y-3.353
T5
X6.736Y2.253
X6.736Y-2.248
T4
X7.485Y5.702G85X5.987Y5.702
G05
X7.485Y-5.697G85X5.987Y-5.697
G05
T0
M30
