G04 (created by PCBNEW-RS274X (2011-05-25)-stable) date Tue 14 Jan 2014 03:28:53 PM CET*
G01*
G70*
G90*
%MOIN*%
G04 Gerber Fmt 3.4, Leading zero omitted, Abs format*
%FSLAX34Y34*%
G04 APERTURE LIST*
%ADD10C,0.006000*%
%ADD11R,0.062900X0.037800*%
G04 APERTURE END LIST*
G54D10*
G54D11*
X01825Y-00393D03*
X01825Y00401D03*
X01825Y-01377D03*
X01825Y01379D03*
G54D10*
G36*
X01803Y-02911D02*
X01803Y-02849D01*
X01897Y-02849D01*
X01897Y-02911D01*
X01803Y-02911D01*
X01803Y-02911D01*
G37*
G36*
X-00281Y-03106D02*
X-00485Y-03106D01*
X-00485Y-02744D01*
X-00281Y-02744D01*
X-00281Y-03106D01*
X-00281Y-03106D01*
G37*
G36*
X00211Y-03106D02*
X00007Y-03106D01*
X00007Y-02744D01*
X00211Y-02744D01*
X00211Y-03106D01*
X00211Y-03106D01*
G37*
G36*
X-00783Y-03106D02*
X-00987Y-03106D01*
X-00987Y-02744D01*
X-00783Y-02744D01*
X-00783Y-03106D01*
X-00783Y-03106D01*
G37*
G36*
X-01285Y-03106D02*
X-01489Y-03106D01*
X-01489Y-02744D01*
X-01285Y-02744D01*
X-01285Y-03106D01*
X-01285Y-03106D01*
G37*
G36*
X-01787Y-03106D02*
X-01991Y-03106D01*
X-01991Y-02744D01*
X-01787Y-02744D01*
X-01787Y-03106D01*
X-01787Y-03106D01*
G37*
G36*
X-02289Y-03106D02*
X-02493Y-03106D01*
X-02493Y-02744D01*
X-02289Y-02744D01*
X-02289Y-03106D01*
X-02289Y-03106D01*
G37*
G36*
X01015Y-02254D02*
X00875Y-02254D01*
X00875Y-01844D01*
X01015Y-01844D01*
X01015Y-02254D01*
X01015Y-02254D01*
G37*
G36*
X01015Y-01466D02*
X00875Y-01466D01*
X00875Y-01056D01*
X01015Y-01056D01*
X01015Y-01466D01*
X01015Y-01466D01*
G37*
G36*
X-03827Y-01466D02*
X-03967Y-01466D01*
X-03967Y-01056D01*
X-03827Y-01056D01*
X-03827Y-01466D01*
X-03827Y-01466D01*
G37*
G36*
X-03827Y-02254D02*
X-03967Y-02254D01*
X-03967Y-01844D01*
X-03827Y-01844D01*
X-03827Y-02254D01*
X-03827Y-02254D01*
G37*
G36*
X01146Y02192D02*
X00706Y02192D01*
X00706Y02726D01*
X01146Y02726D01*
X01146Y02192D01*
X01146Y02192D01*
G37*
G36*
X-03657Y02232D02*
X-04097Y02232D01*
X-04097Y02766D01*
X-03657Y02766D01*
X-03657Y02232D01*
X-03657Y02232D01*
G37*
G36*
X-00367Y02177D02*
X-00537Y02177D01*
X-00537Y02427D01*
X-00367Y02427D01*
X-00367Y02177D01*
X-00367Y02177D01*
G37*
G36*
X-02375Y02177D02*
X-02545Y02177D01*
X-02545Y02427D01*
X-02375Y02427D01*
X-02375Y02177D01*
X-02375Y02177D01*
G37*
M02*
