G04 (created by PCBNEW (2013-07-07 BZR 4022)-stable) date 07/03/2014 22:57:32*
%MOIN*%
G04 Gerber Fmt 3.4, Leading zero omitted, Abs format*
%FSLAX34Y34*%
G01*
G70*
G90*
G04 APERTURE LIST*
%ADD10C,0.00590551*%
%ADD11C,0.024*%
%ADD12O,0.1498X0.0711*%
%ADD13R,0.0907X0.0592*%
%ADD14C,0.0553*%
%ADD15C,0.0454646*%
%ADD16R,0.0454646X0.0454646*%
%ADD17C,0.0592441*%
G04 APERTURE END LIST*
G54D10*
G54D11*
X-1673Y-531D03*
X-1279Y-531D03*
X-2067Y-531D03*
X-2067Y-137D03*
X-1673Y-137D03*
X-1279Y-137D03*
X-1279Y-925D03*
X-1673Y-925D03*
X-2067Y-925D03*
G54D12*
X2652Y2245D03*
X2652Y-2243D03*
G54D13*
X1825Y-393D03*
X1825Y401D03*
X1825Y-1377D03*
X1825Y1379D03*
G54D14*
X2652Y-885D03*
X2652Y887D03*
G54D10*
G36*
X-3956Y141D02*
X-4253Y141D01*
X-4253Y458D01*
X-3956Y458D01*
X-3956Y141D01*
X-3956Y141D01*
G37*
G36*
X-3956Y-458D02*
X-4253Y-458D01*
X-4253Y-141D01*
X-3956Y-141D01*
X-3956Y-458D01*
X-3956Y-458D01*
G37*
G36*
X-4276Y141D02*
X-4573Y141D01*
X-4573Y458D01*
X-4276Y458D01*
X-4276Y141D01*
X-4276Y141D01*
G37*
G36*
X-4276Y-458D02*
X-4573Y-458D01*
X-4573Y-141D01*
X-4276Y-141D01*
X-4276Y-458D01*
X-4276Y-458D01*
G37*
G54D15*
X-829Y2872D03*
X-429Y2872D03*
G54D16*
X-1229Y2472D03*
G54D15*
X-29Y2872D03*
G54D10*
G36*
X-195Y-3211D02*
X-571Y-3211D01*
X-571Y-2638D01*
X-195Y-2638D01*
X-195Y-3211D01*
X-195Y-3211D01*
G37*
G36*
X297Y-3211D02*
X-79Y-3211D01*
X-79Y-2638D01*
X297Y-2638D01*
X297Y-3211D01*
X297Y-3211D01*
G37*
G36*
X-697Y-3211D02*
X-1073Y-3211D01*
X-1073Y-2638D01*
X-697Y-2638D01*
X-697Y-3211D01*
X-697Y-3211D01*
G37*
G36*
X-1199Y-3211D02*
X-1575Y-3211D01*
X-1575Y-2638D01*
X-1199Y-2638D01*
X-1199Y-3211D01*
X-1199Y-3211D01*
G37*
G36*
X-1701Y-3211D02*
X-2077Y-3211D01*
X-2077Y-2638D01*
X-1701Y-2638D01*
X-1701Y-3211D01*
X-1701Y-3211D01*
G37*
G36*
X-2203Y-3211D02*
X-2579Y-3211D01*
X-2579Y-2638D01*
X-2203Y-2638D01*
X-2203Y-3211D01*
X-2203Y-3211D01*
G37*
G36*
X1093Y-2365D02*
X796Y-2365D01*
X796Y-1733D01*
X1093Y-1733D01*
X1093Y-2365D01*
X1093Y-2365D01*
G37*
G36*
X1093Y-1577D02*
X796Y-1577D01*
X796Y-945D01*
X1093Y-945D01*
X1093Y-1577D01*
X1093Y-1577D01*
G37*
G36*
X-3748Y-1577D02*
X-4045Y-1577D01*
X-4045Y-945D01*
X-3748Y-945D01*
X-3748Y-1577D01*
X-3748Y-1577D01*
G37*
G36*
X-3748Y-2365D02*
X-4045Y-2365D01*
X-4045Y-1733D01*
X-3748Y-1733D01*
X-3748Y-2365D01*
X-3748Y-2365D01*
G37*
G36*
X1261Y2064D02*
X590Y2064D01*
X590Y2853D01*
X1261Y2853D01*
X1261Y2064D01*
X1261Y2064D01*
G37*
G36*
X-3541Y2104D02*
X-4212Y2104D01*
X-4212Y2893D01*
X-3541Y2893D01*
X-3541Y2104D01*
X-3541Y2104D01*
G37*
G36*
X-285Y2084D02*
X-618Y2084D01*
X-618Y2519D01*
X-285Y2519D01*
X-285Y2084D01*
X-285Y2084D01*
G37*
G36*
X-2293Y2084D02*
X-2626Y2084D01*
X-2626Y2519D01*
X-2293Y2519D01*
X-2293Y2084D01*
X-2293Y2084D01*
G37*
G54D17*
X-2598Y2754D03*
X-2007Y2754D03*
M02*
