G04 (created by PCBNEW (22-Jun-2014 BZR 4027)-stable) date Tue 25 Nov 2014 21:51:54 CET*
%MOIN*%
G04 Gerber Fmt 3.4, Leading zero omitted, Abs format*
%FSLAX34Y34*%
G01*
G70*
G90*
G04 APERTURE LIST*
%ADD10C,0.00590551*%
%ADD11C,0.012*%
%ADD12O,0.1378X0.0591*%
%ADD13R,0.0787X0.0472*%
%ADD14C,0.0433*%
%ADD15C,0.0334646*%
%ADD16R,0.0334646X0.0334646*%
%ADD17C,0.0472441*%
%ADD18C,0.0215*%
%ADD19C,0.006*%
%ADD20C,0.005*%
%ADD21C,0.0079*%
%ADD22C,0.01*%
G04 APERTURE END LIST*
G54D10*
G54D11*
X-1673Y-531D03*
X-1279Y-531D03*
X-2067Y-531D03*
X-2067Y-137D03*
X-1673Y-137D03*
X-1279Y-137D03*
X-1279Y-925D03*
X-1673Y-925D03*
X-2067Y-925D03*
G54D12*
X2652Y2245D03*
X2652Y-2243D03*
G54D13*
X1825Y-393D03*
X1825Y401D03*
X1825Y-1377D03*
X1825Y1379D03*
G54D14*
X2652Y-885D03*
X2652Y887D03*
G54D10*
G36*
X-4016Y201D02*
X-4193Y201D01*
X-4193Y398D01*
X-4016Y398D01*
X-4016Y201D01*
X-4016Y201D01*
G37*
G36*
X-4016Y-398D02*
X-4193Y-398D01*
X-4193Y-201D01*
X-4016Y-201D01*
X-4016Y-398D01*
X-4016Y-398D01*
G37*
G36*
X-4336Y201D02*
X-4513Y201D01*
X-4513Y398D01*
X-4336Y398D01*
X-4336Y201D01*
X-4336Y201D01*
G37*
G36*
X-4336Y-398D02*
X-4513Y-398D01*
X-4513Y-201D01*
X-4336Y-201D01*
X-4336Y-398D01*
X-4336Y-398D01*
G37*
G54D15*
X-829Y2872D03*
X-429Y2872D03*
G54D16*
X-1229Y2472D03*
G54D15*
X-29Y2872D03*
G54D10*
G36*
X-255Y-3151D02*
X-511Y-3151D01*
X-511Y-2698D01*
X-255Y-2698D01*
X-255Y-3151D01*
X-255Y-3151D01*
G37*
G36*
X237Y-3151D02*
X-19Y-3151D01*
X-19Y-2698D01*
X237Y-2698D01*
X237Y-3151D01*
X237Y-3151D01*
G37*
G36*
X-757Y-3151D02*
X-1013Y-3151D01*
X-1013Y-2698D01*
X-757Y-2698D01*
X-757Y-3151D01*
X-757Y-3151D01*
G37*
G36*
X-1259Y-3151D02*
X-1515Y-3151D01*
X-1515Y-2698D01*
X-1259Y-2698D01*
X-1259Y-3151D01*
X-1259Y-3151D01*
G37*
G36*
X-1761Y-3151D02*
X-2017Y-3151D01*
X-2017Y-2698D01*
X-1761Y-2698D01*
X-1761Y-3151D01*
X-1761Y-3151D01*
G37*
G36*
X-2263Y-3151D02*
X-2519Y-3151D01*
X-2519Y-2698D01*
X-2263Y-2698D01*
X-2263Y-3151D01*
X-2263Y-3151D01*
G37*
G36*
X1033Y-2305D02*
X856Y-2305D01*
X856Y-1793D01*
X1033Y-1793D01*
X1033Y-2305D01*
X1033Y-2305D01*
G37*
G36*
X1033Y-1517D02*
X856Y-1517D01*
X856Y-1005D01*
X1033Y-1005D01*
X1033Y-1517D01*
X1033Y-1517D01*
G37*
G36*
X-3808Y-1517D02*
X-3985Y-1517D01*
X-3985Y-1005D01*
X-3808Y-1005D01*
X-3808Y-1517D01*
X-3808Y-1517D01*
G37*
G36*
X-3808Y-2305D02*
X-3985Y-2305D01*
X-3985Y-1793D01*
X-3808Y-1793D01*
X-3808Y-2305D01*
X-3808Y-2305D01*
G37*
G36*
X1201Y2124D02*
X650Y2124D01*
X650Y2793D01*
X1201Y2793D01*
X1201Y2124D01*
X1201Y2124D01*
G37*
G36*
X-3601Y2164D02*
X-4152Y2164D01*
X-4152Y2833D01*
X-3601Y2833D01*
X-3601Y2164D01*
X-3601Y2164D01*
G37*
G36*
X-345Y2144D02*
X-558Y2144D01*
X-558Y2459D01*
X-345Y2459D01*
X-345Y2144D01*
X-345Y2144D01*
G37*
G36*
X-2353Y2144D02*
X-2566Y2144D01*
X-2566Y2459D01*
X-2353Y2459D01*
X-2353Y2144D01*
X-2353Y2144D01*
G37*
G54D17*
X-2598Y2754D03*
X-2007Y2754D03*
G54D18*
X-260Y1595D03*
X580Y-1225D03*
X-3260Y-1485D03*
X-2840Y535D03*
X260Y2335D03*
X225Y950D03*
X250Y-400D03*
X2500Y400D03*
X2500Y-400D03*
X-140Y-1125D03*
X-1280Y1075D03*
X-1880Y875D03*
X-1280Y1355D03*
X875Y150D03*
X-1220Y1975D03*
X2540Y-1405D03*
X-1900Y1735D03*
X-220Y1235D03*
X260Y1395D03*
X180Y-2245D03*
X2560Y1495D03*
X-3060Y815D03*
X-3800Y795D03*
X-4420Y655D03*
X-4120Y635D03*
G54D19*
X-2007Y2754D02*
X-2007Y2163D01*
X-2840Y1331D02*
X-2840Y535D01*
X-2007Y2163D02*
X-2840Y1331D01*
X-1460Y2242D02*
X-1229Y2472D01*
X-1460Y1875D02*
X-1460Y2242D01*
X-1320Y1735D02*
X-1460Y1875D01*
X-400Y1735D02*
X-1320Y1735D01*
X-260Y1595D02*
X-400Y1735D01*
X260Y2115D02*
X260Y2335D01*
X460Y1915D02*
X260Y2115D01*
X640Y1915D02*
X460Y1915D01*
X1180Y1375D02*
X640Y1915D01*
X1180Y-125D02*
X1180Y1375D01*
X540Y-765D02*
X1180Y-125D01*
X540Y-1185D02*
X540Y-765D01*
X580Y-1225D02*
X540Y-1185D01*
X-3260Y115D02*
X-3260Y-1485D01*
X-2840Y535D02*
X-3260Y115D01*
X-1229Y2264D02*
X-1229Y2472D01*
X260Y2335D02*
X-80Y1995D01*
X-80Y1995D02*
X-960Y1995D01*
X-960Y1995D02*
X-1229Y2264D01*
G54D20*
X225Y-375D02*
X225Y950D01*
X250Y-400D02*
X225Y-375D01*
X2499Y401D02*
X1825Y401D01*
X2500Y400D02*
X2499Y401D01*
X2493Y-393D02*
X1825Y-393D01*
X2500Y-400D02*
X2493Y-393D01*
X-2391Y-2096D02*
X-2391Y-2925D01*
X-2220Y-1925D02*
X-2391Y-2096D01*
X-400Y-1925D02*
X-2220Y-1925D01*
X-140Y-1665D02*
X-400Y-1925D01*
X-140Y-1125D02*
X-140Y-1665D01*
X-1387Y-2925D02*
X-1387Y-2372D01*
X-540Y1075D02*
X-1280Y1075D01*
X-99Y634D02*
X-540Y1075D01*
X-99Y-685D02*
X-99Y634D01*
X200Y-985D02*
X-99Y-685D01*
X200Y-1285D02*
X200Y-985D01*
X160Y-1325D02*
X200Y-1285D01*
X160Y-1765D02*
X160Y-1325D01*
X-240Y-2165D02*
X160Y-1765D01*
X-1180Y-2165D02*
X-240Y-2165D01*
X-1387Y-2372D02*
X-1180Y-2165D01*
X-1889Y-2925D02*
X-1889Y-2374D01*
X-500Y875D02*
X-1880Y875D01*
X-200Y575D02*
X-500Y875D01*
X-200Y-785D02*
X-200Y575D01*
X60Y-1045D02*
X-200Y-785D01*
X60Y-1225D02*
X60Y-1045D01*
X0Y-1285D02*
X60Y-1225D01*
X0Y-1705D02*
X0Y-1285D01*
X-340Y-2045D02*
X0Y-1705D01*
X-1560Y-2045D02*
X-340Y-2045D01*
X-1889Y-2374D02*
X-1560Y-2045D01*
X-383Y-2448D02*
X-200Y-2265D01*
X-200Y-2265D02*
X-160Y-2265D01*
X-160Y-2265D02*
X320Y-1785D01*
X320Y-1785D02*
X320Y-904D01*
X320Y-904D02*
X20Y-604D01*
X20Y-604D02*
X20Y675D01*
X20Y675D02*
X-540Y1235D01*
X-540Y1235D02*
X-1160Y1235D01*
X-1160Y1235D02*
X-1280Y1355D01*
X-383Y-2925D02*
X-383Y-2448D01*
X875Y850D02*
X875Y150D01*
X725Y1000D02*
X875Y850D01*
X100Y1755D02*
X120Y1735D01*
X120Y1735D02*
X520Y1735D01*
X520Y1735D02*
X725Y1530D01*
X725Y1530D02*
X725Y1000D01*
X0Y1855D02*
X100Y1755D01*
X-1100Y1855D02*
X0Y1855D01*
X-1220Y1975D02*
X-1100Y1855D01*
X2512Y-1377D02*
X1825Y-1377D01*
X2540Y-1405D02*
X2512Y-1377D01*
G54D21*
X-1750Y1585D02*
X-1900Y1735D01*
X-650Y1585D02*
X-1750Y1585D01*
X-300Y1235D02*
X-650Y1585D01*
X-220Y1235D02*
X-300Y1235D01*
X100Y1235D02*
X-220Y1235D01*
X260Y1395D02*
X100Y1235D01*
X-4105Y-300D02*
X-4105Y-150D01*
X-3800Y75D02*
X-3800Y795D01*
X-3900Y-25D02*
X-3800Y75D01*
X-3980Y-25D02*
X-3900Y-25D01*
X-4105Y-150D02*
X-3980Y-25D01*
X-4425Y-300D02*
X-4105Y-300D01*
X109Y-2925D02*
X109Y-2316D01*
X109Y-2316D02*
X180Y-2245D01*
X-1900Y1735D02*
X-1900Y1755D01*
X-1900Y1755D02*
X-1620Y2035D01*
X-1620Y2035D02*
X-1620Y2635D01*
X-1620Y2635D02*
X-1382Y2872D01*
X-1382Y2872D02*
X-829Y2872D01*
X-1800Y1635D02*
X-1900Y1735D01*
X1825Y1379D02*
X2444Y1379D01*
X2444Y1379D02*
X2560Y1495D01*
X-3060Y815D02*
X-3080Y795D01*
X-3080Y795D02*
X-3800Y795D01*
G54D20*
X-4425Y650D02*
X-4425Y300D01*
X-4420Y655D02*
X-4425Y650D01*
X-4105Y620D02*
X-4105Y300D01*
X-4120Y635D02*
X-4105Y620D01*
G54D10*
G36*
X-1610Y-550D02*
X-1653Y-593D01*
X-1673Y-573D01*
X-1692Y-593D01*
X-1735Y-550D01*
X-1715Y-531D01*
X-1735Y-511D01*
X-1692Y-468D01*
X-1673Y-488D01*
X-1653Y-468D01*
X-1610Y-511D01*
X-1630Y-531D01*
X-1610Y-550D01*
X-1610Y-550D01*
G37*
G54D22*
X-1610Y-550D02*
X-1653Y-593D01*
X-1673Y-573D01*
X-1692Y-593D01*
X-1735Y-550D01*
X-1715Y-531D01*
X-1735Y-511D01*
X-1692Y-468D01*
X-1673Y-488D01*
X-1653Y-468D01*
X-1610Y-511D01*
X-1630Y-531D01*
X-1610Y-550D01*
G54D10*
G36*
X-753Y2867D02*
X-824Y2796D01*
X-829Y2801D01*
X-835Y2796D01*
X-906Y2867D01*
X-900Y2872D01*
X-906Y2878D01*
X-835Y2948D01*
X-829Y2943D01*
X-824Y2948D01*
X-753Y2878D01*
X-759Y2872D01*
X-753Y2867D01*
X-753Y2867D01*
G37*
G54D22*
X-753Y2867D02*
X-824Y2796D01*
X-829Y2801D01*
X-835Y2796D01*
X-906Y2867D01*
X-900Y2872D01*
X-906Y2878D01*
X-835Y2948D01*
X-829Y2943D01*
X-824Y2948D01*
X-753Y2878D01*
X-759Y2872D01*
X-753Y2867D01*
G54D10*
G36*
X-276Y-926D02*
X-340Y-990D01*
X-376Y-1077D01*
X-376Y-1171D01*
X-340Y-1258D01*
X-294Y-1305D01*
X-294Y-1601D01*
X-463Y-1771D01*
X-966Y-1771D01*
X-966Y-969D01*
X-966Y-575D01*
X-966Y-181D01*
X-972Y-58D01*
X-1006Y23D01*
X-1079Y19D01*
X-1118Y-18D01*
X-1118Y135D01*
X-1234Y175D01*
X-1357Y169D01*
X-1439Y135D01*
X-1435Y62D01*
X-1279Y-94D01*
X-1122Y62D01*
X-1118Y135D01*
X-1118Y-18D01*
X-1236Y-137D01*
X-1079Y-293D01*
X-1006Y-297D01*
X-966Y-181D01*
X-966Y-575D01*
X-972Y-452D01*
X-1006Y-370D01*
X-1079Y-374D01*
X-1236Y-531D01*
X-1079Y-687D01*
X-1006Y-691D01*
X-966Y-575D01*
X-966Y-969D01*
X-972Y-846D01*
X-1006Y-764D01*
X-1079Y-768D01*
X-1118Y-806D01*
X-1118Y-803D01*
X-1122Y-730D01*
X-1124Y-728D01*
X-1122Y-725D01*
X-1118Y-652D01*
X-1234Y-612D01*
X-1240Y-612D01*
X-1279Y-573D01*
X-1298Y-593D01*
X-1341Y-550D01*
X-1321Y-531D01*
X-1341Y-511D01*
X-1298Y-468D01*
X-1279Y-488D01*
X-1235Y-445D01*
X-1200Y-443D01*
X-1118Y-409D01*
X-1122Y-336D01*
X-1124Y-334D01*
X-1122Y-331D01*
X-1118Y-258D01*
X-1234Y-218D01*
X-1240Y-218D01*
X-1279Y-179D01*
X-1298Y-199D01*
X-1341Y-156D01*
X-1321Y-137D01*
X-1364Y-93D01*
X-1366Y-58D01*
X-1400Y23D01*
X-1473Y19D01*
X-1476Y17D01*
X-1478Y19D01*
X-1512Y21D01*
X-1512Y135D01*
X-1628Y175D01*
X-1751Y169D01*
X-1833Y135D01*
X-1829Y62D01*
X-1673Y-94D01*
X-1516Y62D01*
X-1512Y135D01*
X-1512Y21D01*
X-1551Y23D01*
X-1591Y-92D01*
X-1591Y-98D01*
X-1630Y-137D01*
X-1610Y-156D01*
X-1653Y-199D01*
X-1673Y-179D01*
X-1692Y-199D01*
X-1735Y-156D01*
X-1715Y-137D01*
X-1758Y-93D01*
X-1760Y-58D01*
X-1794Y23D01*
X-1867Y19D01*
X-1870Y17D01*
X-1872Y19D01*
X-1906Y21D01*
X-1906Y135D01*
X-2022Y175D01*
X-2145Y169D01*
X-2227Y135D01*
X-2223Y62D01*
X-2067Y-94D01*
X-1910Y62D01*
X-1906Y135D01*
X-1906Y21D01*
X-1945Y23D01*
X-1985Y-92D01*
X-1985Y-98D01*
X-2024Y-137D01*
X-2004Y-156D01*
X-2047Y-199D01*
X-2067Y-179D01*
X-2109Y-221D01*
X-2109Y-137D01*
X-2266Y19D01*
X-2339Y23D01*
X-2379Y-92D01*
X-2373Y-215D01*
X-2339Y-297D01*
X-2266Y-293D01*
X-2109Y-137D01*
X-2109Y-221D01*
X-2110Y-222D01*
X-2145Y-224D01*
X-2227Y-258D01*
X-2223Y-331D01*
X-2221Y-334D01*
X-2223Y-336D01*
X-2227Y-409D01*
X-2111Y-449D01*
X-2105Y-449D01*
X-2067Y-488D01*
X-2047Y-468D01*
X-2004Y-511D01*
X-2024Y-531D01*
X-2004Y-550D01*
X-2047Y-593D01*
X-2067Y-573D01*
X-2109Y-615D01*
X-2109Y-531D01*
X-2266Y-374D01*
X-2339Y-370D01*
X-2379Y-486D01*
X-2373Y-609D01*
X-2339Y-691D01*
X-2266Y-687D01*
X-2109Y-531D01*
X-2109Y-615D01*
X-2110Y-616D01*
X-2145Y-618D01*
X-2227Y-652D01*
X-2223Y-725D01*
X-2221Y-728D01*
X-2223Y-730D01*
X-2227Y-803D01*
X-2111Y-843D01*
X-2105Y-843D01*
X-2067Y-882D01*
X-2047Y-862D01*
X-2004Y-905D01*
X-2024Y-925D01*
X-1981Y-968D01*
X-1979Y-1003D01*
X-1945Y-1085D01*
X-1872Y-1081D01*
X-1870Y-1079D01*
X-1867Y-1081D01*
X-1794Y-1085D01*
X-1754Y-969D01*
X-1754Y-963D01*
X-1715Y-925D01*
X-1735Y-905D01*
X-1692Y-862D01*
X-1673Y-882D01*
X-1653Y-862D01*
X-1610Y-905D01*
X-1630Y-925D01*
X-1587Y-968D01*
X-1585Y-1003D01*
X-1551Y-1085D01*
X-1478Y-1081D01*
X-1476Y-1079D01*
X-1473Y-1081D01*
X-1400Y-1085D01*
X-1360Y-969D01*
X-1360Y-963D01*
X-1321Y-925D01*
X-1341Y-905D01*
X-1298Y-862D01*
X-1279Y-882D01*
X-1235Y-839D01*
X-1200Y-837D01*
X-1118Y-803D01*
X-1118Y-806D01*
X-1236Y-925D01*
X-1079Y-1081D01*
X-1006Y-1085D01*
X-966Y-969D01*
X-966Y-1771D01*
X-1118Y-1771D01*
X-1118Y-1197D01*
X-1122Y-1124D01*
X-1279Y-967D01*
X-1435Y-1124D01*
X-1439Y-1197D01*
X-1323Y-1237D01*
X-1200Y-1231D01*
X-1118Y-1197D01*
X-1118Y-1771D01*
X-1512Y-1771D01*
X-1512Y-1197D01*
X-1516Y-1124D01*
X-1673Y-967D01*
X-1829Y-1124D01*
X-1833Y-1197D01*
X-1717Y-1237D01*
X-1594Y-1231D01*
X-1512Y-1197D01*
X-1512Y-1771D01*
X-1906Y-1771D01*
X-1906Y-1197D01*
X-1910Y-1124D01*
X-2067Y-967D01*
X-2109Y-1009D01*
X-2109Y-925D01*
X-2266Y-768D01*
X-2339Y-764D01*
X-2379Y-880D01*
X-2373Y-1003D01*
X-2339Y-1085D01*
X-2266Y-1081D01*
X-2109Y-925D01*
X-2109Y-1009D01*
X-2223Y-1124D01*
X-2227Y-1197D01*
X-2111Y-1237D01*
X-1988Y-1231D01*
X-1906Y-1197D01*
X-1906Y-1771D01*
X-2220Y-1771D01*
X-2278Y-1782D01*
X-2328Y-1816D01*
X-2499Y-1987D01*
X-2533Y-2037D01*
X-2545Y-2096D01*
X-2545Y-2569D01*
X-2591Y-2589D01*
X-2628Y-2625D01*
X-2647Y-2672D01*
X-2648Y-2724D01*
X-2648Y-3061D01*
X-3679Y-3061D01*
X-3679Y-2279D01*
X-3679Y-1767D01*
X-3679Y-1491D01*
X-3679Y-979D01*
X-3699Y-932D01*
X-3735Y-895D01*
X-3782Y-876D01*
X-3834Y-875D01*
X-4011Y-875D01*
X-4058Y-895D01*
X-4094Y-931D01*
X-4114Y-979D01*
X-4114Y-1030D01*
X-4114Y-1542D01*
X-4094Y-1589D01*
X-4058Y-1626D01*
X-4011Y-1645D01*
X-3959Y-1646D01*
X-3782Y-1646D01*
X-3735Y-1626D01*
X-3699Y-1590D01*
X-3679Y-1542D01*
X-3679Y-1491D01*
X-3679Y-1767D01*
X-3699Y-1720D01*
X-3735Y-1683D01*
X-3782Y-1664D01*
X-3834Y-1663D01*
X-4011Y-1663D01*
X-4058Y-1683D01*
X-4094Y-1719D01*
X-4114Y-1767D01*
X-4114Y-1818D01*
X-4114Y-2330D01*
X-4094Y-2377D01*
X-4058Y-2414D01*
X-4011Y-2433D01*
X-3959Y-2434D01*
X-3782Y-2434D01*
X-3735Y-2414D01*
X-3699Y-2378D01*
X-3679Y-2330D01*
X-3679Y-2279D01*
X-3679Y-3061D01*
X-4456Y-3061D01*
X-4456Y-527D01*
X-4310Y-527D01*
X-4264Y-508D01*
X-4219Y-527D01*
X-4167Y-527D01*
X-3990Y-527D01*
X-3943Y-507D01*
X-3907Y-471D01*
X-3887Y-424D01*
X-3887Y-372D01*
X-3887Y-175D01*
X-3907Y-128D01*
X-3943Y-92D01*
X-3990Y-72D01*
X-4042Y-72D01*
X-4219Y-72D01*
X-4265Y-91D01*
X-4310Y-72D01*
X-4362Y-72D01*
X-4456Y-72D01*
X-4456Y72D01*
X-4310Y72D01*
X-4264Y91D01*
X-4219Y72D01*
X-4167Y72D01*
X-3990Y72D01*
X-3943Y92D01*
X-3907Y128D01*
X-3887Y175D01*
X-3887Y227D01*
X-3887Y424D01*
X-3907Y471D01*
X-3928Y492D01*
X-3919Y500D01*
X-3883Y587D01*
X-3883Y681D01*
X-3919Y768D01*
X-3985Y835D01*
X-4072Y871D01*
X-4166Y871D01*
X-4253Y835D01*
X-4259Y829D01*
X-4285Y855D01*
X-4372Y891D01*
X-4456Y891D01*
X-4456Y3048D01*
X-2820Y3048D01*
X-2907Y2961D01*
X-2963Y2827D01*
X-2963Y2682D01*
X-2908Y2547D01*
X-2805Y2445D01*
X-2695Y2399D01*
X-2695Y2118D01*
X-2675Y2071D01*
X-2639Y2035D01*
X-2592Y2015D01*
X-2540Y2015D01*
X-2381Y2015D01*
X-2952Y1444D01*
X-2986Y1392D01*
X-2999Y1331D01*
X-2999Y710D01*
X-3040Y669D01*
X-3076Y582D01*
X-3076Y523D01*
X-3372Y227D01*
X-3406Y175D01*
X-3419Y115D01*
X-3419Y-1309D01*
X-3460Y-1350D01*
X-3472Y-1379D01*
X-3472Y2190D01*
X-3472Y2859D01*
X-3492Y2906D01*
X-3528Y2942D01*
X-3575Y2962D01*
X-3627Y2962D01*
X-4178Y2962D01*
X-4225Y2942D01*
X-4261Y2906D01*
X-4281Y2859D01*
X-4281Y2807D01*
X-4281Y2138D01*
X-4261Y2091D01*
X-4225Y2055D01*
X-4178Y2035D01*
X-4126Y2035D01*
X-3575Y2035D01*
X-3528Y2055D01*
X-3492Y2091D01*
X-3472Y2138D01*
X-3472Y2190D01*
X-3472Y-1379D01*
X-3496Y-1437D01*
X-3496Y-1531D01*
X-3460Y-1618D01*
X-3394Y-1685D01*
X-3307Y-1721D01*
X-3213Y-1721D01*
X-3126Y-1685D01*
X-3059Y-1619D01*
X-3023Y-1532D01*
X-3023Y-1438D01*
X-3059Y-1351D01*
X-3101Y-1309D01*
X-3101Y49D01*
X-2851Y298D01*
X-2793Y298D01*
X-2706Y334D01*
X-2639Y400D01*
X-2603Y487D01*
X-2603Y581D01*
X-2639Y668D01*
X-2681Y710D01*
X-2681Y1265D01*
X-1895Y2051D01*
X-1895Y2051D01*
X-1860Y2103D01*
X-1848Y2163D01*
X-1848Y2163D01*
X-1848Y2425D01*
X-1801Y2444D01*
X-1698Y2547D01*
X-1642Y2681D01*
X-1642Y2826D01*
X-1698Y2961D01*
X-1785Y3048D01*
X-1211Y3048D01*
X-1252Y2922D01*
X-1240Y2768D01*
X-1422Y2768D01*
X-1470Y2749D01*
X-1506Y2713D01*
X-1526Y2665D01*
X-1526Y2614D01*
X-1526Y2401D01*
X-1572Y2354D01*
X-1606Y2303D01*
X-1619Y2242D01*
X-1619Y1875D01*
X-1606Y1814D01*
X-1572Y1762D01*
X-1432Y1622D01*
X-1380Y1588D01*
X-1380Y1588D01*
X-1350Y1581D01*
X-1413Y1555D01*
X-1480Y1489D01*
X-1516Y1402D01*
X-1516Y1308D01*
X-1480Y1221D01*
X-1474Y1215D01*
X-1480Y1209D01*
X-1516Y1122D01*
X-1516Y1029D01*
X-1699Y1029D01*
X-1745Y1075D01*
X-1832Y1111D01*
X-1926Y1111D01*
X-2013Y1075D01*
X-2080Y1009D01*
X-2116Y922D01*
X-2116Y828D01*
X-2080Y741D01*
X-2014Y674D01*
X-1927Y638D01*
X-1833Y638D01*
X-1746Y674D01*
X-1699Y721D01*
X-563Y721D01*
X-354Y511D01*
X-354Y-785D01*
X-342Y-843D01*
X-308Y-893D01*
X-276Y-926D01*
X-276Y-926D01*
G37*
G54D22*
X-276Y-926D02*
X-340Y-990D01*
X-376Y-1077D01*
X-376Y-1171D01*
X-340Y-1258D01*
X-294Y-1305D01*
X-294Y-1601D01*
X-463Y-1771D01*
X-966Y-1771D01*
X-966Y-969D01*
X-966Y-575D01*
X-966Y-181D01*
X-972Y-58D01*
X-1006Y23D01*
X-1079Y19D01*
X-1118Y-18D01*
X-1118Y135D01*
X-1234Y175D01*
X-1357Y169D01*
X-1439Y135D01*
X-1435Y62D01*
X-1279Y-94D01*
X-1122Y62D01*
X-1118Y135D01*
X-1118Y-18D01*
X-1236Y-137D01*
X-1079Y-293D01*
X-1006Y-297D01*
X-966Y-181D01*
X-966Y-575D01*
X-972Y-452D01*
X-1006Y-370D01*
X-1079Y-374D01*
X-1236Y-531D01*
X-1079Y-687D01*
X-1006Y-691D01*
X-966Y-575D01*
X-966Y-969D01*
X-972Y-846D01*
X-1006Y-764D01*
X-1079Y-768D01*
X-1118Y-806D01*
X-1118Y-803D01*
X-1122Y-730D01*
X-1124Y-728D01*
X-1122Y-725D01*
X-1118Y-652D01*
X-1234Y-612D01*
X-1240Y-612D01*
X-1279Y-573D01*
X-1298Y-593D01*
X-1341Y-550D01*
X-1321Y-531D01*
X-1341Y-511D01*
X-1298Y-468D01*
X-1279Y-488D01*
X-1235Y-445D01*
X-1200Y-443D01*
X-1118Y-409D01*
X-1122Y-336D01*
X-1124Y-334D01*
X-1122Y-331D01*
X-1118Y-258D01*
X-1234Y-218D01*
X-1240Y-218D01*
X-1279Y-179D01*
X-1298Y-199D01*
X-1341Y-156D01*
X-1321Y-137D01*
X-1364Y-93D01*
X-1366Y-58D01*
X-1400Y23D01*
X-1473Y19D01*
X-1476Y17D01*
X-1478Y19D01*
X-1512Y21D01*
X-1512Y135D01*
X-1628Y175D01*
X-1751Y169D01*
X-1833Y135D01*
X-1829Y62D01*
X-1673Y-94D01*
X-1516Y62D01*
X-1512Y135D01*
X-1512Y21D01*
X-1551Y23D01*
X-1591Y-92D01*
X-1591Y-98D01*
X-1630Y-137D01*
X-1610Y-156D01*
X-1653Y-199D01*
X-1673Y-179D01*
X-1692Y-199D01*
X-1735Y-156D01*
X-1715Y-137D01*
X-1758Y-93D01*
X-1760Y-58D01*
X-1794Y23D01*
X-1867Y19D01*
X-1870Y17D01*
X-1872Y19D01*
X-1906Y21D01*
X-1906Y135D01*
X-2022Y175D01*
X-2145Y169D01*
X-2227Y135D01*
X-2223Y62D01*
X-2067Y-94D01*
X-1910Y62D01*
X-1906Y135D01*
X-1906Y21D01*
X-1945Y23D01*
X-1985Y-92D01*
X-1985Y-98D01*
X-2024Y-137D01*
X-2004Y-156D01*
X-2047Y-199D01*
X-2067Y-179D01*
X-2109Y-221D01*
X-2109Y-137D01*
X-2266Y19D01*
X-2339Y23D01*
X-2379Y-92D01*
X-2373Y-215D01*
X-2339Y-297D01*
X-2266Y-293D01*
X-2109Y-137D01*
X-2109Y-221D01*
X-2110Y-222D01*
X-2145Y-224D01*
X-2227Y-258D01*
X-2223Y-331D01*
X-2221Y-334D01*
X-2223Y-336D01*
X-2227Y-409D01*
X-2111Y-449D01*
X-2105Y-449D01*
X-2067Y-488D01*
X-2047Y-468D01*
X-2004Y-511D01*
X-2024Y-531D01*
X-2004Y-550D01*
X-2047Y-593D01*
X-2067Y-573D01*
X-2109Y-615D01*
X-2109Y-531D01*
X-2266Y-374D01*
X-2339Y-370D01*
X-2379Y-486D01*
X-2373Y-609D01*
X-2339Y-691D01*
X-2266Y-687D01*
X-2109Y-531D01*
X-2109Y-615D01*
X-2110Y-616D01*
X-2145Y-618D01*
X-2227Y-652D01*
X-2223Y-725D01*
X-2221Y-728D01*
X-2223Y-730D01*
X-2227Y-803D01*
X-2111Y-843D01*
X-2105Y-843D01*
X-2067Y-882D01*
X-2047Y-862D01*
X-2004Y-905D01*
X-2024Y-925D01*
X-1981Y-968D01*
X-1979Y-1003D01*
X-1945Y-1085D01*
X-1872Y-1081D01*
X-1870Y-1079D01*
X-1867Y-1081D01*
X-1794Y-1085D01*
X-1754Y-969D01*
X-1754Y-963D01*
X-1715Y-925D01*
X-1735Y-905D01*
X-1692Y-862D01*
X-1673Y-882D01*
X-1653Y-862D01*
X-1610Y-905D01*
X-1630Y-925D01*
X-1587Y-968D01*
X-1585Y-1003D01*
X-1551Y-1085D01*
X-1478Y-1081D01*
X-1476Y-1079D01*
X-1473Y-1081D01*
X-1400Y-1085D01*
X-1360Y-969D01*
X-1360Y-963D01*
X-1321Y-925D01*
X-1341Y-905D01*
X-1298Y-862D01*
X-1279Y-882D01*
X-1235Y-839D01*
X-1200Y-837D01*
X-1118Y-803D01*
X-1118Y-806D01*
X-1236Y-925D01*
X-1079Y-1081D01*
X-1006Y-1085D01*
X-966Y-969D01*
X-966Y-1771D01*
X-1118Y-1771D01*
X-1118Y-1197D01*
X-1122Y-1124D01*
X-1279Y-967D01*
X-1435Y-1124D01*
X-1439Y-1197D01*
X-1323Y-1237D01*
X-1200Y-1231D01*
X-1118Y-1197D01*
X-1118Y-1771D01*
X-1512Y-1771D01*
X-1512Y-1197D01*
X-1516Y-1124D01*
X-1673Y-967D01*
X-1829Y-1124D01*
X-1833Y-1197D01*
X-1717Y-1237D01*
X-1594Y-1231D01*
X-1512Y-1197D01*
X-1512Y-1771D01*
X-1906Y-1771D01*
X-1906Y-1197D01*
X-1910Y-1124D01*
X-2067Y-967D01*
X-2109Y-1009D01*
X-2109Y-925D01*
X-2266Y-768D01*
X-2339Y-764D01*
X-2379Y-880D01*
X-2373Y-1003D01*
X-2339Y-1085D01*
X-2266Y-1081D01*
X-2109Y-925D01*
X-2109Y-1009D01*
X-2223Y-1124D01*
X-2227Y-1197D01*
X-2111Y-1237D01*
X-1988Y-1231D01*
X-1906Y-1197D01*
X-1906Y-1771D01*
X-2220Y-1771D01*
X-2278Y-1782D01*
X-2328Y-1816D01*
X-2499Y-1987D01*
X-2533Y-2037D01*
X-2545Y-2096D01*
X-2545Y-2569D01*
X-2591Y-2589D01*
X-2628Y-2625D01*
X-2647Y-2672D01*
X-2648Y-2724D01*
X-2648Y-3061D01*
X-3679Y-3061D01*
X-3679Y-2279D01*
X-3679Y-1767D01*
X-3679Y-1491D01*
X-3679Y-979D01*
X-3699Y-932D01*
X-3735Y-895D01*
X-3782Y-876D01*
X-3834Y-875D01*
X-4011Y-875D01*
X-4058Y-895D01*
X-4094Y-931D01*
X-4114Y-979D01*
X-4114Y-1030D01*
X-4114Y-1542D01*
X-4094Y-1589D01*
X-4058Y-1626D01*
X-4011Y-1645D01*
X-3959Y-1646D01*
X-3782Y-1646D01*
X-3735Y-1626D01*
X-3699Y-1590D01*
X-3679Y-1542D01*
X-3679Y-1491D01*
X-3679Y-1767D01*
X-3699Y-1720D01*
X-3735Y-1683D01*
X-3782Y-1664D01*
X-3834Y-1663D01*
X-4011Y-1663D01*
X-4058Y-1683D01*
X-4094Y-1719D01*
X-4114Y-1767D01*
X-4114Y-1818D01*
X-4114Y-2330D01*
X-4094Y-2377D01*
X-4058Y-2414D01*
X-4011Y-2433D01*
X-3959Y-2434D01*
X-3782Y-2434D01*
X-3735Y-2414D01*
X-3699Y-2378D01*
X-3679Y-2330D01*
X-3679Y-2279D01*
X-3679Y-3061D01*
X-4456Y-3061D01*
X-4456Y-527D01*
X-4310Y-527D01*
X-4264Y-508D01*
X-4219Y-527D01*
X-4167Y-527D01*
X-3990Y-527D01*
X-3943Y-507D01*
X-3907Y-471D01*
X-3887Y-424D01*
X-3887Y-372D01*
X-3887Y-175D01*
X-3907Y-128D01*
X-3943Y-92D01*
X-3990Y-72D01*
X-4042Y-72D01*
X-4219Y-72D01*
X-4265Y-91D01*
X-4310Y-72D01*
X-4362Y-72D01*
X-4456Y-72D01*
X-4456Y72D01*
X-4310Y72D01*
X-4264Y91D01*
X-4219Y72D01*
X-4167Y72D01*
X-3990Y72D01*
X-3943Y92D01*
X-3907Y128D01*
X-3887Y175D01*
X-3887Y227D01*
X-3887Y424D01*
X-3907Y471D01*
X-3928Y492D01*
X-3919Y500D01*
X-3883Y587D01*
X-3883Y681D01*
X-3919Y768D01*
X-3985Y835D01*
X-4072Y871D01*
X-4166Y871D01*
X-4253Y835D01*
X-4259Y829D01*
X-4285Y855D01*
X-4372Y891D01*
X-4456Y891D01*
X-4456Y3048D01*
X-2820Y3048D01*
X-2907Y2961D01*
X-2963Y2827D01*
X-2963Y2682D01*
X-2908Y2547D01*
X-2805Y2445D01*
X-2695Y2399D01*
X-2695Y2118D01*
X-2675Y2071D01*
X-2639Y2035D01*
X-2592Y2015D01*
X-2540Y2015D01*
X-2381Y2015D01*
X-2952Y1444D01*
X-2986Y1392D01*
X-2999Y1331D01*
X-2999Y710D01*
X-3040Y669D01*
X-3076Y582D01*
X-3076Y523D01*
X-3372Y227D01*
X-3406Y175D01*
X-3419Y115D01*
X-3419Y-1309D01*
X-3460Y-1350D01*
X-3472Y-1379D01*
X-3472Y2190D01*
X-3472Y2859D01*
X-3492Y2906D01*
X-3528Y2942D01*
X-3575Y2962D01*
X-3627Y2962D01*
X-4178Y2962D01*
X-4225Y2942D01*
X-4261Y2906D01*
X-4281Y2859D01*
X-4281Y2807D01*
X-4281Y2138D01*
X-4261Y2091D01*
X-4225Y2055D01*
X-4178Y2035D01*
X-4126Y2035D01*
X-3575Y2035D01*
X-3528Y2055D01*
X-3492Y2091D01*
X-3472Y2138D01*
X-3472Y2190D01*
X-3472Y-1379D01*
X-3496Y-1437D01*
X-3496Y-1531D01*
X-3460Y-1618D01*
X-3394Y-1685D01*
X-3307Y-1721D01*
X-3213Y-1721D01*
X-3126Y-1685D01*
X-3059Y-1619D01*
X-3023Y-1532D01*
X-3023Y-1438D01*
X-3059Y-1351D01*
X-3101Y-1309D01*
X-3101Y49D01*
X-2851Y298D01*
X-2793Y298D01*
X-2706Y334D01*
X-2639Y400D01*
X-2603Y487D01*
X-2603Y581D01*
X-2639Y668D01*
X-2681Y710D01*
X-2681Y1265D01*
X-1895Y2051D01*
X-1895Y2051D01*
X-1860Y2103D01*
X-1848Y2163D01*
X-1848Y2163D01*
X-1848Y2425D01*
X-1801Y2444D01*
X-1698Y2547D01*
X-1642Y2681D01*
X-1642Y2826D01*
X-1698Y2961D01*
X-1785Y3048D01*
X-1211Y3048D01*
X-1252Y2922D01*
X-1240Y2768D01*
X-1422Y2768D01*
X-1470Y2749D01*
X-1506Y2713D01*
X-1526Y2665D01*
X-1526Y2614D01*
X-1526Y2401D01*
X-1572Y2354D01*
X-1606Y2303D01*
X-1619Y2242D01*
X-1619Y1875D01*
X-1606Y1814D01*
X-1572Y1762D01*
X-1432Y1622D01*
X-1380Y1588D01*
X-1380Y1588D01*
X-1350Y1581D01*
X-1413Y1555D01*
X-1480Y1489D01*
X-1516Y1402D01*
X-1516Y1308D01*
X-1480Y1221D01*
X-1474Y1215D01*
X-1480Y1209D01*
X-1516Y1122D01*
X-1516Y1029D01*
X-1699Y1029D01*
X-1745Y1075D01*
X-1832Y1111D01*
X-1926Y1111D01*
X-2013Y1075D01*
X-2080Y1009D01*
X-2116Y922D01*
X-2116Y828D01*
X-2080Y741D01*
X-2014Y674D01*
X-1927Y638D01*
X-1833Y638D01*
X-1746Y674D01*
X-1699Y721D01*
X-563Y721D01*
X-354Y511D01*
X-354Y-785D01*
X-342Y-843D01*
X-308Y-893D01*
X-276Y-926D01*
G54D10*
G36*
X1021Y-59D02*
X427Y-652D01*
X393Y-704D01*
X383Y-750D01*
X269Y-636D01*
X296Y-636D01*
X383Y-600D01*
X450Y-534D01*
X486Y-447D01*
X486Y-353D01*
X450Y-266D01*
X384Y-199D01*
X379Y-197D01*
X379Y769D01*
X425Y815D01*
X461Y902D01*
X461Y996D01*
X425Y1083D01*
X359Y1150D01*
X272Y1186D01*
X178Y1186D01*
X91Y1150D01*
X24Y1084D01*
X-11Y997D01*
X-11Y924D01*
X-431Y1343D01*
X-481Y1377D01*
X-540Y1389D01*
X-1043Y1389D01*
X-1043Y1401D01*
X-1079Y1488D01*
X-1145Y1555D01*
X-1195Y1576D01*
X-496Y1576D01*
X-496Y1548D01*
X-460Y1461D01*
X-394Y1394D01*
X-307Y1358D01*
X-213Y1358D01*
X-126Y1394D01*
X-59Y1460D01*
X-23Y1547D01*
X-23Y1641D01*
X-36Y1673D01*
X-8Y1646D01*
X11Y1626D01*
X61Y1592D01*
X61Y1592D01*
X120Y1581D01*
X456Y1581D01*
X571Y1466D01*
X571Y1000D01*
X582Y941D01*
X616Y891D01*
X721Y786D01*
X721Y330D01*
X674Y284D01*
X638Y197D01*
X638Y103D01*
X674Y16D01*
X740Y-50D01*
X827Y-86D01*
X921Y-86D01*
X1008Y-50D01*
X1021Y-38D01*
X1021Y-59D01*
X1021Y-59D01*
G37*
G54D22*
X1021Y-59D02*
X427Y-652D01*
X393Y-704D01*
X383Y-750D01*
X269Y-636D01*
X296Y-636D01*
X383Y-600D01*
X450Y-534D01*
X486Y-447D01*
X486Y-353D01*
X450Y-266D01*
X384Y-199D01*
X379Y-197D01*
X379Y769D01*
X425Y815D01*
X461Y902D01*
X461Y996D01*
X425Y1083D01*
X359Y1150D01*
X272Y1186D01*
X178Y1186D01*
X91Y1150D01*
X24Y1084D01*
X-11Y997D01*
X-11Y924D01*
X-431Y1343D01*
X-481Y1377D01*
X-540Y1389D01*
X-1043Y1389D01*
X-1043Y1401D01*
X-1079Y1488D01*
X-1145Y1555D01*
X-1195Y1576D01*
X-496Y1576D01*
X-496Y1548D01*
X-460Y1461D01*
X-394Y1394D01*
X-307Y1358D01*
X-213Y1358D01*
X-126Y1394D01*
X-59Y1460D01*
X-23Y1547D01*
X-23Y1641D01*
X-36Y1673D01*
X-8Y1646D01*
X11Y1626D01*
X61Y1592D01*
X61Y1592D01*
X120Y1581D01*
X456Y1581D01*
X571Y1466D01*
X571Y1000D01*
X582Y941D01*
X616Y891D01*
X721Y786D01*
X721Y330D01*
X674Y284D01*
X638Y197D01*
X638Y103D01*
X674Y16D01*
X740Y-50D01*
X827Y-86D01*
X921Y-86D01*
X1008Y-50D01*
X1021Y-38D01*
X1021Y-59D01*
G54D10*
G36*
X3591Y-3061D02*
X3486Y-3061D01*
X3486Y-2243D01*
X3486Y2245D01*
X3453Y2407D01*
X3361Y2545D01*
X3223Y2637D01*
X3061Y2669D01*
X2242Y2669D01*
X2080Y2637D01*
X1942Y2545D01*
X1850Y2407D01*
X1817Y2245D01*
X1850Y2082D01*
X1942Y1944D01*
X2061Y1865D01*
X1937Y1865D01*
X1875Y1802D01*
X1875Y1429D01*
X2406Y1429D01*
X2468Y1491D01*
X2468Y1565D01*
X2468Y1664D01*
X2430Y1756D01*
X2366Y1820D01*
X3061Y1820D01*
X3223Y1852D01*
X3361Y1944D01*
X3453Y2082D01*
X3486Y2245D01*
X3486Y-2243D01*
X3453Y-2080D01*
X3361Y-1942D01*
X3223Y-1850D01*
X3061Y-1818D01*
X2242Y-1818D01*
X2080Y-1850D01*
X1942Y-1942D01*
X1850Y-2080D01*
X1817Y-2243D01*
X1850Y-2405D01*
X1942Y-2543D01*
X2080Y-2635D01*
X2242Y-2667D01*
X3061Y-2667D01*
X3223Y-2635D01*
X3361Y-2543D01*
X3453Y-2405D01*
X3486Y-2243D01*
X3486Y-3061D01*
X1920Y-3061D01*
X1920Y-2796D01*
X1908Y-2739D01*
X1876Y-2691D01*
X1828Y-2659D01*
X1771Y-2648D01*
X1377Y-2648D01*
X1321Y-2659D01*
X1272Y-2691D01*
X1240Y-2739D01*
X1229Y-2796D01*
X1229Y-3061D01*
X1162Y-3061D01*
X1162Y-2279D01*
X1162Y-1767D01*
X1142Y-1720D01*
X1106Y-1683D01*
X1059Y-1664D01*
X1007Y-1663D01*
X830Y-1663D01*
X783Y-1683D01*
X747Y-1719D01*
X727Y-1767D01*
X727Y-1818D01*
X727Y-2330D01*
X747Y-2377D01*
X783Y-2414D01*
X830Y-2433D01*
X882Y-2434D01*
X1059Y-2434D01*
X1106Y-2414D01*
X1142Y-2378D01*
X1162Y-2330D01*
X1162Y-2279D01*
X1162Y-3061D01*
X366Y-3061D01*
X366Y-2672D01*
X346Y-2625D01*
X310Y-2589D01*
X262Y-2569D01*
X211Y-2569D01*
X-44Y-2569D01*
X-91Y-2589D01*
X-128Y-2625D01*
X-136Y-2646D01*
X-145Y-2625D01*
X-181Y-2589D01*
X-229Y-2569D01*
X-229Y-2511D01*
X-130Y-2413D01*
X-101Y-2407D01*
X-101Y-2407D01*
X-51Y-2373D01*
X428Y-1893D01*
X462Y-1843D01*
X462Y-1843D01*
X474Y-1785D01*
X474Y-1437D01*
X532Y-1461D01*
X626Y-1461D01*
X713Y-1425D01*
X727Y-1411D01*
X727Y-1542D01*
X747Y-1589D01*
X783Y-1626D01*
X830Y-1645D01*
X882Y-1646D01*
X1059Y-1646D01*
X1106Y-1626D01*
X1142Y-1590D01*
X1162Y-1542D01*
X1162Y-1491D01*
X1162Y-979D01*
X1142Y-932D01*
X1106Y-895D01*
X1059Y-876D01*
X1007Y-875D01*
X830Y-875D01*
X783Y-895D01*
X747Y-931D01*
X727Y-979D01*
X727Y-1030D01*
X727Y-1037D01*
X714Y-1024D01*
X699Y-1018D01*
X699Y-830D01*
X1292Y-237D01*
X1292Y-237D01*
X1302Y-222D01*
X1302Y-654D01*
X1322Y-701D01*
X1358Y-738D01*
X1405Y-757D01*
X1457Y-758D01*
X2244Y-758D01*
X2291Y-738D01*
X2327Y-702D01*
X2347Y-654D01*
X2347Y-603D01*
X2347Y-582D01*
X2365Y-600D01*
X2423Y-624D01*
X2359Y-689D01*
X2306Y-815D01*
X2306Y-953D01*
X2358Y-1080D01*
X2456Y-1177D01*
X2463Y-1180D01*
X2406Y-1204D01*
X2387Y-1223D01*
X2347Y-1223D01*
X2347Y-1115D01*
X2327Y-1068D01*
X2291Y-1031D01*
X2244Y-1012D01*
X2192Y-1011D01*
X1405Y-1011D01*
X1358Y-1031D01*
X1322Y-1067D01*
X1302Y-1115D01*
X1302Y-1166D01*
X1302Y-1638D01*
X1322Y-1685D01*
X1358Y-1722D01*
X1405Y-1741D01*
X1457Y-1742D01*
X2244Y-1742D01*
X2291Y-1722D01*
X2327Y-1686D01*
X2347Y-1638D01*
X2347Y-1587D01*
X2347Y-1546D01*
X2405Y-1605D01*
X2492Y-1641D01*
X2586Y-1641D01*
X2673Y-1605D01*
X2740Y-1539D01*
X2776Y-1452D01*
X2776Y-1358D01*
X2740Y-1271D01*
X2700Y-1230D01*
X2720Y-1230D01*
X2847Y-1178D01*
X2944Y-1080D01*
X2997Y-954D01*
X2997Y-816D01*
X2945Y-689D01*
X2847Y-592D01*
X2721Y-539D01*
X2694Y-539D01*
X2700Y-534D01*
X2736Y-447D01*
X2736Y-353D01*
X2700Y-266D01*
X2634Y-199D01*
X2547Y-163D01*
X2453Y-163D01*
X2366Y-199D01*
X2347Y-218D01*
X2347Y-131D01*
X2327Y-84D01*
X2291Y-47D01*
X2244Y-28D01*
X2192Y-27D01*
X1405Y-27D01*
X1358Y-47D01*
X1339Y-67D01*
X1339Y75D01*
X1358Y55D01*
X1405Y36D01*
X1457Y35D01*
X2244Y35D01*
X2291Y55D01*
X2327Y91D01*
X2347Y139D01*
X2347Y190D01*
X2347Y217D01*
X2365Y199D01*
X2452Y163D01*
X2546Y163D01*
X2633Y199D01*
X2700Y265D01*
X2736Y352D01*
X2736Y446D01*
X2700Y533D01*
X2692Y541D01*
X2720Y541D01*
X2847Y593D01*
X2944Y691D01*
X2997Y817D01*
X2997Y955D01*
X2945Y1082D01*
X2847Y1179D01*
X2721Y1232D01*
X2583Y1232D01*
X2468Y1185D01*
X2468Y1192D01*
X2468Y1266D01*
X2406Y1329D01*
X1875Y1329D01*
X1875Y955D01*
X1937Y893D01*
X2268Y892D01*
X2306Y908D01*
X2306Y818D01*
X2358Y691D01*
X2425Y625D01*
X2366Y600D01*
X2347Y581D01*
X2347Y662D01*
X2327Y709D01*
X2291Y746D01*
X2244Y765D01*
X2192Y766D01*
X1405Y766D01*
X1358Y746D01*
X1339Y726D01*
X1339Y910D01*
X1381Y892D01*
X1712Y893D01*
X1775Y955D01*
X1775Y1329D01*
X1767Y1329D01*
X1767Y1429D01*
X1775Y1429D01*
X1775Y1802D01*
X1712Y1865D01*
X1381Y1865D01*
X1290Y1827D01*
X1219Y1756D01*
X1181Y1664D01*
X1181Y1598D01*
X784Y1995D01*
X1227Y1995D01*
X1274Y2015D01*
X1310Y2051D01*
X1330Y2098D01*
X1330Y2150D01*
X1330Y2654D01*
X1377Y2645D01*
X1771Y2645D01*
X1828Y2656D01*
X1876Y2688D01*
X1908Y2737D01*
X1920Y2793D01*
X1920Y3048D01*
X3591Y3048D01*
X3591Y-3061D01*
X3591Y-3061D01*
G37*
G54D22*
X3591Y-3061D02*
X3486Y-3061D01*
X3486Y-2243D01*
X3486Y2245D01*
X3453Y2407D01*
X3361Y2545D01*
X3223Y2637D01*
X3061Y2669D01*
X2242Y2669D01*
X2080Y2637D01*
X1942Y2545D01*
X1850Y2407D01*
X1817Y2245D01*
X1850Y2082D01*
X1942Y1944D01*
X2061Y1865D01*
X1937Y1865D01*
X1875Y1802D01*
X1875Y1429D01*
X2406Y1429D01*
X2468Y1491D01*
X2468Y1565D01*
X2468Y1664D01*
X2430Y1756D01*
X2366Y1820D01*
X3061Y1820D01*
X3223Y1852D01*
X3361Y1944D01*
X3453Y2082D01*
X3486Y2245D01*
X3486Y-2243D01*
X3453Y-2080D01*
X3361Y-1942D01*
X3223Y-1850D01*
X3061Y-1818D01*
X2242Y-1818D01*
X2080Y-1850D01*
X1942Y-1942D01*
X1850Y-2080D01*
X1817Y-2243D01*
X1850Y-2405D01*
X1942Y-2543D01*
X2080Y-2635D01*
X2242Y-2667D01*
X3061Y-2667D01*
X3223Y-2635D01*
X3361Y-2543D01*
X3453Y-2405D01*
X3486Y-2243D01*
X3486Y-3061D01*
X1920Y-3061D01*
X1920Y-2796D01*
X1908Y-2739D01*
X1876Y-2691D01*
X1828Y-2659D01*
X1771Y-2648D01*
X1377Y-2648D01*
X1321Y-2659D01*
X1272Y-2691D01*
X1240Y-2739D01*
X1229Y-2796D01*
X1229Y-3061D01*
X1162Y-3061D01*
X1162Y-2279D01*
X1162Y-1767D01*
X1142Y-1720D01*
X1106Y-1683D01*
X1059Y-1664D01*
X1007Y-1663D01*
X830Y-1663D01*
X783Y-1683D01*
X747Y-1719D01*
X727Y-1767D01*
X727Y-1818D01*
X727Y-2330D01*
X747Y-2377D01*
X783Y-2414D01*
X830Y-2433D01*
X882Y-2434D01*
X1059Y-2434D01*
X1106Y-2414D01*
X1142Y-2378D01*
X1162Y-2330D01*
X1162Y-2279D01*
X1162Y-3061D01*
X366Y-3061D01*
X366Y-2672D01*
X346Y-2625D01*
X310Y-2589D01*
X262Y-2569D01*
X211Y-2569D01*
X-44Y-2569D01*
X-91Y-2589D01*
X-128Y-2625D01*
X-136Y-2646D01*
X-145Y-2625D01*
X-181Y-2589D01*
X-229Y-2569D01*
X-229Y-2511D01*
X-130Y-2413D01*
X-101Y-2407D01*
X-101Y-2407D01*
X-51Y-2373D01*
X428Y-1893D01*
X462Y-1843D01*
X462Y-1843D01*
X474Y-1785D01*
X474Y-1437D01*
X532Y-1461D01*
X626Y-1461D01*
X713Y-1425D01*
X727Y-1411D01*
X727Y-1542D01*
X747Y-1589D01*
X783Y-1626D01*
X830Y-1645D01*
X882Y-1646D01*
X1059Y-1646D01*
X1106Y-1626D01*
X1142Y-1590D01*
X1162Y-1542D01*
X1162Y-1491D01*
X1162Y-979D01*
X1142Y-932D01*
X1106Y-895D01*
X1059Y-876D01*
X1007Y-875D01*
X830Y-875D01*
X783Y-895D01*
X747Y-931D01*
X727Y-979D01*
X727Y-1030D01*
X727Y-1037D01*
X714Y-1024D01*
X699Y-1018D01*
X699Y-830D01*
X1292Y-237D01*
X1292Y-237D01*
X1302Y-222D01*
X1302Y-654D01*
X1322Y-701D01*
X1358Y-738D01*
X1405Y-757D01*
X1457Y-758D01*
X2244Y-758D01*
X2291Y-738D01*
X2327Y-702D01*
X2347Y-654D01*
X2347Y-603D01*
X2347Y-582D01*
X2365Y-600D01*
X2423Y-624D01*
X2359Y-689D01*
X2306Y-815D01*
X2306Y-953D01*
X2358Y-1080D01*
X2456Y-1177D01*
X2463Y-1180D01*
X2406Y-1204D01*
X2387Y-1223D01*
X2347Y-1223D01*
X2347Y-1115D01*
X2327Y-1068D01*
X2291Y-1031D01*
X2244Y-1012D01*
X2192Y-1011D01*
X1405Y-1011D01*
X1358Y-1031D01*
X1322Y-1067D01*
X1302Y-1115D01*
X1302Y-1166D01*
X1302Y-1638D01*
X1322Y-1685D01*
X1358Y-1722D01*
X1405Y-1741D01*
X1457Y-1742D01*
X2244Y-1742D01*
X2291Y-1722D01*
X2327Y-1686D01*
X2347Y-1638D01*
X2347Y-1587D01*
X2347Y-1546D01*
X2405Y-1605D01*
X2492Y-1641D01*
X2586Y-1641D01*
X2673Y-1605D01*
X2740Y-1539D01*
X2776Y-1452D01*
X2776Y-1358D01*
X2740Y-1271D01*
X2700Y-1230D01*
X2720Y-1230D01*
X2847Y-1178D01*
X2944Y-1080D01*
X2997Y-954D01*
X2997Y-816D01*
X2945Y-689D01*
X2847Y-592D01*
X2721Y-539D01*
X2694Y-539D01*
X2700Y-534D01*
X2736Y-447D01*
X2736Y-353D01*
X2700Y-266D01*
X2634Y-199D01*
X2547Y-163D01*
X2453Y-163D01*
X2366Y-199D01*
X2347Y-218D01*
X2347Y-131D01*
X2327Y-84D01*
X2291Y-47D01*
X2244Y-28D01*
X2192Y-27D01*
X1405Y-27D01*
X1358Y-47D01*
X1339Y-67D01*
X1339Y75D01*
X1358Y55D01*
X1405Y36D01*
X1457Y35D01*
X2244Y35D01*
X2291Y55D01*
X2327Y91D01*
X2347Y139D01*
X2347Y190D01*
X2347Y217D01*
X2365Y199D01*
X2452Y163D01*
X2546Y163D01*
X2633Y199D01*
X2700Y265D01*
X2736Y352D01*
X2736Y446D01*
X2700Y533D01*
X2692Y541D01*
X2720Y541D01*
X2847Y593D01*
X2944Y691D01*
X2997Y817D01*
X2997Y955D01*
X2945Y1082D01*
X2847Y1179D01*
X2721Y1232D01*
X2583Y1232D01*
X2468Y1185D01*
X2468Y1192D01*
X2468Y1266D01*
X2406Y1329D01*
X1875Y1329D01*
X1875Y955D01*
X1937Y893D01*
X2268Y892D01*
X2306Y908D01*
X2306Y818D01*
X2358Y691D01*
X2425Y625D01*
X2366Y600D01*
X2347Y581D01*
X2347Y662D01*
X2327Y709D01*
X2291Y746D01*
X2244Y765D01*
X2192Y766D01*
X1405Y766D01*
X1358Y746D01*
X1339Y726D01*
X1339Y910D01*
X1381Y892D01*
X1712Y893D01*
X1775Y955D01*
X1775Y1329D01*
X1767Y1329D01*
X1767Y1429D01*
X1775Y1429D01*
X1775Y1802D01*
X1712Y1865D01*
X1381Y1865D01*
X1290Y1827D01*
X1219Y1756D01*
X1181Y1664D01*
X1181Y1598D01*
X784Y1995D01*
X1227Y1995D01*
X1274Y2015D01*
X1310Y2051D01*
X1330Y2098D01*
X1330Y2150D01*
X1330Y2654D01*
X1377Y2645D01*
X1771Y2645D01*
X1828Y2656D01*
X1876Y2688D01*
X1908Y2737D01*
X1920Y2793D01*
X1920Y3048D01*
X3591Y3048D01*
X3591Y-3061D01*
G54D10*
G36*
X-850Y-1350D02*
X-2500Y-1350D01*
X-2500Y300D01*
X-850Y300D01*
X-850Y-1350D01*
X-850Y-1350D01*
G37*
G54D22*
X-850Y-1350D02*
X-2500Y-1350D01*
X-2500Y300D01*
X-850Y300D01*
X-850Y-1350D01*
M02*
