G04 (created by PCBNEW (2013-07-07 BZR 4022)-stable) date 02/03/2014 17:35:42*
%MOIN*%
G04 Gerber Fmt 3.4, Leading zero omitted, Abs format*
%FSLAX34Y34*%
G01*
G70*
G90*
G04 APERTURE LIST*
%ADD10C,0.00590551*%
%ADD11C,0.0039*%
%ADD12C,0.0059*%
%ADD13C,0.01*%
%ADD14C,0.006*%
%ADD15C,0.012*%
%ADD16C,0.0079*%
%ADD17C,0.0025*%
G04 APERTURE END LIST*
G54D10*
G54D11*
X3248Y-1674D02*
X3256Y-1682D01*
X3263Y-1704D01*
X3263Y-1719D01*
X3256Y-1741D01*
X3241Y-1756D01*
X3226Y-1764D01*
X3196Y-1771D01*
X3173Y-1771D01*
X3143Y-1764D01*
X3128Y-1756D01*
X3114Y-1741D01*
X3106Y-1719D01*
X3106Y-1704D01*
X3114Y-1682D01*
X3121Y-1674D01*
X3263Y-1607D02*
X3158Y-1607D01*
X3188Y-1607D02*
X3173Y-1599D01*
X3166Y-1592D01*
X3158Y-1577D01*
X3158Y-1562D01*
X3158Y-1525D02*
X3263Y-1487D01*
X3158Y-1450D02*
X3263Y-1487D01*
X3300Y-1502D01*
X3308Y-1510D01*
X3315Y-1525D01*
X3158Y-1390D02*
X3315Y-1390D01*
X3166Y-1390D02*
X3158Y-1375D01*
X3158Y-1345D01*
X3166Y-1330D01*
X3173Y-1323D01*
X3188Y-1315D01*
X3233Y-1315D01*
X3248Y-1323D01*
X3256Y-1330D01*
X3263Y-1345D01*
X3263Y-1375D01*
X3256Y-1390D01*
X3158Y-1270D02*
X3158Y-1211D01*
X3106Y-1248D02*
X3241Y-1248D01*
X3256Y-1241D01*
X3263Y-1226D01*
X3263Y-1211D01*
X3263Y-1136D02*
X3256Y-1151D01*
X3248Y-1158D01*
X3233Y-1166D01*
X3188Y-1166D01*
X3173Y-1158D01*
X3166Y-1151D01*
X3158Y-1136D01*
X3158Y-1113D01*
X3166Y-1098D01*
X3173Y-1091D01*
X3188Y-1084D01*
X3233Y-1084D01*
X3248Y-1091D01*
X3256Y-1098D01*
X3263Y-1113D01*
X3263Y-1136D01*
X3256Y-904D02*
X3263Y-882D01*
X3263Y-844D01*
X3256Y-829D01*
X3248Y-822D01*
X3233Y-814D01*
X3218Y-814D01*
X3203Y-822D01*
X3196Y-829D01*
X3188Y-844D01*
X3181Y-874D01*
X3173Y-889D01*
X3166Y-897D01*
X3151Y-904D01*
X3136Y-904D01*
X3121Y-897D01*
X3114Y-889D01*
X3106Y-874D01*
X3106Y-837D01*
X3114Y-814D01*
X3158Y-770D02*
X3158Y-710D01*
X3106Y-747D02*
X3241Y-747D01*
X3256Y-740D01*
X3263Y-725D01*
X3263Y-710D01*
X3263Y-657D02*
X3158Y-657D01*
X3106Y-657D02*
X3114Y-665D01*
X3121Y-657D01*
X3114Y-650D01*
X3106Y-657D01*
X3121Y-657D01*
X3256Y-515D02*
X3263Y-530D01*
X3263Y-560D01*
X3256Y-575D01*
X3248Y-583D01*
X3233Y-590D01*
X3188Y-590D01*
X3173Y-583D01*
X3166Y-575D01*
X3158Y-560D01*
X3158Y-530D01*
X3166Y-515D01*
X3263Y-448D02*
X3106Y-448D01*
X3203Y-433D02*
X3263Y-388D01*
X3158Y-388D02*
X3218Y-448D01*
X3263Y-201D02*
X3106Y-201D01*
X3106Y-142D01*
X3114Y-127D01*
X3121Y-119D01*
X3136Y-112D01*
X3158Y-112D01*
X3173Y-119D01*
X3181Y-127D01*
X3188Y-142D01*
X3188Y-201D01*
X3263Y-44D02*
X3158Y-44D01*
X3188Y-44D02*
X3173Y-37D01*
X3166Y-29D01*
X3158Y-14D01*
X3158Y0D01*
X3263Y74D02*
X3256Y59D01*
X3248Y52D01*
X3233Y44D01*
X3188Y44D01*
X3173Y52D01*
X3166Y59D01*
X3158Y74D01*
X3158Y97D01*
X3166Y112D01*
X3173Y119D01*
X3188Y127D01*
X3233Y127D01*
X3248Y119D01*
X3256Y112D01*
X3263Y97D01*
X3263Y74D01*
X3158Y171D02*
X3158Y231D01*
X3263Y194D02*
X3128Y194D01*
X3114Y201D01*
X3106Y216D01*
X3106Y231D01*
X3256Y343D02*
X3263Y328D01*
X3263Y299D01*
X3256Y284D01*
X3241Y276D01*
X3181Y276D01*
X3166Y284D01*
X3158Y299D01*
X3158Y328D01*
X3166Y343D01*
X3181Y351D01*
X3196Y351D01*
X3211Y276D01*
X3256Y411D02*
X3263Y426D01*
X3263Y456D01*
X3256Y470D01*
X3241Y478D01*
X3233Y478D01*
X3218Y470D01*
X3211Y456D01*
X3211Y433D01*
X3203Y418D01*
X3188Y411D01*
X3181Y411D01*
X3166Y418D01*
X3158Y433D01*
X3158Y456D01*
X3166Y470D01*
X3256Y538D02*
X3263Y553D01*
X3263Y583D01*
X3256Y598D01*
X3241Y605D01*
X3233Y605D01*
X3218Y598D01*
X3211Y583D01*
X3211Y560D01*
X3203Y545D01*
X3188Y538D01*
X3181Y538D01*
X3166Y545D01*
X3158Y560D01*
X3158Y583D01*
X3166Y598D01*
X3263Y672D02*
X3158Y672D01*
X3106Y672D02*
X3114Y665D01*
X3121Y672D01*
X3114Y680D01*
X3106Y672D01*
X3121Y672D01*
X3263Y770D02*
X3256Y755D01*
X3248Y747D01*
X3233Y740D01*
X3188Y740D01*
X3173Y747D01*
X3166Y755D01*
X3158Y770D01*
X3158Y792D01*
X3166Y807D01*
X3173Y814D01*
X3188Y822D01*
X3233Y822D01*
X3248Y814D01*
X3256Y807D01*
X3263Y792D01*
X3263Y770D01*
X3158Y889D02*
X3263Y889D01*
X3173Y889D02*
X3166Y897D01*
X3158Y912D01*
X3158Y934D01*
X3166Y949D01*
X3181Y956D01*
X3263Y956D01*
X3263Y1098D02*
X3181Y1098D01*
X3166Y1091D01*
X3158Y1076D01*
X3158Y1046D01*
X3166Y1031D01*
X3256Y1098D02*
X3263Y1084D01*
X3263Y1046D01*
X3256Y1031D01*
X3241Y1024D01*
X3226Y1024D01*
X3211Y1031D01*
X3203Y1046D01*
X3203Y1084D01*
X3196Y1098D01*
X3263Y1196D02*
X3256Y1181D01*
X3241Y1173D01*
X3106Y1173D01*
X3263Y1465D02*
X3188Y1412D01*
X3263Y1375D02*
X3106Y1375D01*
X3106Y1435D01*
X3114Y1450D01*
X3121Y1457D01*
X3136Y1465D01*
X3158Y1465D01*
X3173Y1457D01*
X3181Y1450D01*
X3188Y1435D01*
X3188Y1375D01*
X3248Y1622D02*
X3256Y1614D01*
X3263Y1592D01*
X3263Y1577D01*
X3256Y1555D01*
X3241Y1540D01*
X3226Y1532D01*
X3196Y1525D01*
X3173Y1525D01*
X3143Y1532D01*
X3128Y1540D01*
X3114Y1555D01*
X3106Y1577D01*
X3106Y1592D01*
X3114Y1614D01*
X3121Y1622D01*
X3106Y1674D02*
X3106Y1779D01*
X3263Y1712D01*
G54D12*
X-2618Y808D02*
X-3012Y414D01*
X-3012Y414D02*
X-3012Y-1870D01*
X-334Y808D02*
X-334Y-1870D01*
X-334Y-1870D02*
X-3012Y-1870D01*
X-2618Y808D02*
X-334Y808D01*
G54D13*
X1825Y1851D02*
X1825Y2284D01*
X1825Y-1849D02*
X1825Y-2282D01*
G54D12*
X-4026Y-109D02*
X-3100Y-109D01*
X-3100Y-109D02*
X-3100Y-561D01*
X-3100Y-561D02*
X-4026Y-561D01*
X-4026Y-561D02*
X-4026Y-109D01*
X-4085Y-2432D02*
X-4085Y-1980D01*
X-4085Y-1980D02*
X-3159Y-1980D01*
X-3159Y-1980D02*
X-3159Y-2432D01*
X-3159Y-2432D02*
X-4085Y-2432D01*
X-2254Y1918D02*
X-2254Y992D01*
X-2254Y992D02*
X-2706Y992D01*
X-2706Y992D02*
X-2706Y1918D01*
X-2706Y1918D02*
X-2254Y1918D01*
X-68Y-2411D02*
X-994Y-2411D01*
X-994Y-2411D02*
X-994Y-1959D01*
X-994Y-1959D02*
X-68Y-1959D01*
X-68Y-1959D02*
X-68Y-2411D01*
X374Y2805D02*
X1300Y2805D01*
X1300Y2805D02*
X1300Y2353D01*
X1300Y2353D02*
X374Y2353D01*
X374Y2353D02*
X374Y2805D01*
X-1348Y1918D02*
X-1348Y992D01*
X-1348Y992D02*
X-1800Y992D01*
X-1800Y992D02*
X-1800Y1918D01*
X-1800Y1918D02*
X-1348Y1918D01*
X-3100Y-1210D02*
X-4026Y-1210D01*
X-4026Y-1210D02*
X-4026Y-758D01*
X-4026Y-758D02*
X-3100Y-758D01*
X-3100Y-758D02*
X-3100Y-1210D01*
X-3021Y2569D02*
X-3947Y2569D01*
X-3947Y2569D02*
X-3947Y3021D01*
X-3947Y3021D02*
X-3021Y3021D01*
X-3021Y3021D02*
X-3021Y2569D01*
X-994Y-2510D02*
X-68Y-2510D01*
X-68Y-2510D02*
X-68Y-2962D01*
X-68Y-2962D02*
X-994Y-2962D01*
X-994Y-2962D02*
X-994Y-2510D01*
X738Y-1792D02*
X738Y-610D01*
X738Y-610D02*
X1112Y-610D01*
X1112Y-610D02*
X1112Y-1792D01*
X1112Y-1792D02*
X738Y-1792D01*
X1421Y-1830D02*
G75*
G03X1421Y-1830I-43J0D01*
G74*
G01*
X364Y-1979D02*
X1290Y-1979D01*
X1290Y-1979D02*
X1290Y-2431D01*
X1290Y-2431D02*
X364Y-2431D01*
X364Y-2431D02*
X364Y-1979D01*
X-4105Y913D02*
X-4105Y2513D01*
X-4105Y2513D02*
X-2785Y2513D01*
X-2785Y2513D02*
X-2785Y913D01*
X-2785Y913D02*
X-4105Y913D01*
X374Y2313D02*
X1300Y2313D01*
X1300Y2313D02*
X1300Y1861D01*
X1300Y1861D02*
X374Y1861D01*
X374Y1861D02*
X374Y2313D01*
X1506Y-521D02*
X580Y-521D01*
X580Y-521D02*
X580Y-69D01*
X580Y-69D02*
X1506Y-69D01*
X1506Y-69D02*
X1506Y-521D01*
X1053Y905D02*
X679Y905D01*
X1053Y39D02*
X679Y39D01*
X697Y1003D02*
G75*
G03X697Y1003I-35J0D01*
G74*
G01*
X1053Y905D02*
X1053Y39D01*
X679Y39D02*
X679Y905D01*
X-1117Y-2514D02*
X-1117Y-2966D01*
X-1117Y-2966D02*
X-2043Y-2966D01*
X-2043Y-2966D02*
X-2043Y-2514D01*
X-2043Y-2514D02*
X-1117Y-2514D01*
X-4085Y-2943D02*
X-4085Y-2491D01*
X-4085Y-2491D02*
X-3159Y-2491D01*
X-3159Y-2491D02*
X-3159Y-2943D01*
X-3159Y-2943D02*
X-4085Y-2943D01*
X-1781Y2429D02*
X-1781Y1977D01*
X-1781Y1977D02*
X-2707Y1977D01*
X-2707Y1977D02*
X-2707Y2429D01*
X-2707Y2429D02*
X-1781Y2429D01*
G54D14*
X-1118Y1188D02*
X-1118Y945D01*
X-1104Y917D01*
X-1090Y902D01*
X-1061Y888D01*
X-1004Y888D01*
X-975Y902D01*
X-961Y917D01*
X-947Y945D01*
X-947Y1188D01*
X-647Y888D02*
X-818Y888D01*
X-732Y888D02*
X-732Y1188D01*
X-761Y1145D01*
X-790Y1117D01*
X-818Y1102D01*
G54D15*
X2527Y-359D02*
X2956Y-359D01*
X3042Y-387D01*
X3099Y-444D01*
X3127Y-530D01*
X3127Y-587D01*
X2585Y-101D02*
X2556Y-73D01*
X2527Y-16D01*
X2527Y126D01*
X2556Y183D01*
X2585Y212D01*
X2642Y241D01*
X2699Y241D01*
X2785Y212D01*
X3127Y-130D01*
X3127Y241D01*
G54D12*
X-4368Y-465D02*
X-4383Y-480D01*
X-4428Y-495D01*
X-4458Y-495D01*
X-4503Y-480D01*
X-4533Y-450D01*
X-4548Y-420D01*
X-4563Y-360D01*
X-4563Y-315D01*
X-4548Y-255D01*
X-4533Y-225D01*
X-4503Y-195D01*
X-4458Y-180D01*
X-4428Y-180D01*
X-4383Y-195D01*
X-4368Y-210D01*
X-4263Y-180D02*
X-4068Y-180D01*
X-4173Y-300D01*
X-4128Y-300D01*
X-4098Y-315D01*
X-4083Y-330D01*
X-4068Y-360D01*
X-4068Y-435D01*
X-4083Y-465D01*
X-4098Y-480D01*
X-4128Y-495D01*
X-4218Y-495D01*
X-4248Y-480D01*
X-4263Y-465D01*
X-2930Y-2386D02*
X-3035Y-2236D01*
X-3110Y-2386D02*
X-3110Y-2071D01*
X-2990Y-2071D01*
X-2960Y-2086D01*
X-2945Y-2101D01*
X-2930Y-2131D01*
X-2930Y-2176D01*
X-2945Y-2206D01*
X-2960Y-2221D01*
X-2990Y-2236D01*
X-3110Y-2236D01*
X-2630Y-2386D02*
X-2810Y-2386D01*
X-2720Y-2386D02*
X-2720Y-2071D01*
X-2750Y-2116D01*
X-2780Y-2146D01*
X-2810Y-2161D01*
X-1949Y1500D02*
X-1934Y1485D01*
X-1919Y1440D01*
X-1919Y1410D01*
X-1934Y1365D01*
X-1964Y1335D01*
X-1994Y1320D01*
X-2054Y1305D01*
X-2099Y1305D01*
X-2159Y1320D01*
X-2189Y1335D01*
X-2219Y1365D01*
X-2234Y1410D01*
X-2234Y1440D01*
X-2219Y1485D01*
X-2204Y1500D01*
X-1919Y1800D02*
X-1919Y1620D01*
X-1919Y1710D02*
X-2234Y1710D01*
X-2189Y1680D01*
X-2159Y1650D01*
X-2144Y1620D01*
X198Y-2827D02*
X183Y-2842D01*
X138Y-2857D01*
X108Y-2857D01*
X63Y-2842D01*
X33Y-2812D01*
X18Y-2782D01*
X3Y-2722D01*
X3Y-2677D01*
X18Y-2617D01*
X33Y-2587D01*
X63Y-2557D01*
X108Y-2542D01*
X138Y-2542D01*
X183Y-2557D01*
X198Y-2572D01*
X303Y-2542D02*
X513Y-2542D01*
X378Y-2857D01*
X1576Y2763D02*
X1561Y2748D01*
X1516Y2733D01*
X1486Y2733D01*
X1441Y2748D01*
X1411Y2778D01*
X1396Y2808D01*
X1381Y2868D01*
X1381Y2913D01*
X1396Y2973D01*
X1411Y3003D01*
X1441Y3033D01*
X1486Y3048D01*
X1516Y3048D01*
X1561Y3033D01*
X1576Y3018D01*
X1846Y3048D02*
X1786Y3048D01*
X1756Y3033D01*
X1741Y3018D01*
X1711Y2973D01*
X1696Y2913D01*
X1696Y2793D01*
X1711Y2763D01*
X1726Y2748D01*
X1756Y2733D01*
X1816Y2733D01*
X1846Y2748D01*
X1861Y2763D01*
X1876Y2793D01*
X1876Y2868D01*
X1861Y2898D01*
X1846Y2913D01*
X1816Y2928D01*
X1756Y2928D01*
X1726Y2913D01*
X1711Y2898D01*
X1696Y2868D01*
X-1044Y1500D02*
X-1029Y1485D01*
X-1014Y1440D01*
X-1014Y1410D01*
X-1029Y1365D01*
X-1059Y1335D01*
X-1089Y1320D01*
X-1149Y1305D01*
X-1194Y1305D01*
X-1254Y1320D01*
X-1284Y1335D01*
X-1314Y1365D01*
X-1329Y1410D01*
X-1329Y1440D01*
X-1314Y1485D01*
X-1299Y1500D01*
X-1329Y1785D02*
X-1329Y1635D01*
X-1179Y1620D01*
X-1194Y1635D01*
X-1209Y1665D01*
X-1209Y1740D01*
X-1194Y1770D01*
X-1179Y1785D01*
X-1149Y1800D01*
X-1074Y1800D01*
X-1044Y1785D01*
X-1029Y1770D01*
X-1014Y1740D01*
X-1014Y1665D01*
X-1029Y1635D01*
X-1044Y1620D01*
X-4368Y-1095D02*
X-4383Y-1110D01*
X-4428Y-1125D01*
X-4458Y-1125D01*
X-4503Y-1110D01*
X-4533Y-1080D01*
X-4548Y-1050D01*
X-4563Y-990D01*
X-4563Y-945D01*
X-4548Y-885D01*
X-4533Y-855D01*
X-4503Y-825D01*
X-4458Y-810D01*
X-4428Y-810D01*
X-4383Y-825D01*
X-4368Y-840D01*
X-4098Y-915D02*
X-4098Y-1125D01*
X-4173Y-795D02*
X-4248Y-1020D01*
X-4053Y-1020D01*
X-4328Y2763D02*
X-4343Y2748D01*
X-4388Y2733D01*
X-4418Y2733D01*
X-4463Y2748D01*
X-4493Y2778D01*
X-4508Y2808D01*
X-4523Y2868D01*
X-4523Y2913D01*
X-4508Y2973D01*
X-4493Y3003D01*
X-4463Y3033D01*
X-4418Y3048D01*
X-4388Y3048D01*
X-4343Y3033D01*
X-4328Y3018D01*
X-4208Y3018D02*
X-4193Y3033D01*
X-4163Y3048D01*
X-4088Y3048D01*
X-4058Y3033D01*
X-4043Y3018D01*
X-4028Y2988D01*
X-4028Y2958D01*
X-4043Y2913D01*
X-4223Y2733D01*
X-4028Y2733D01*
X-1375Y-2315D02*
X-1390Y-2330D01*
X-1435Y-2345D01*
X-1465Y-2345D01*
X-1510Y-2330D01*
X-1540Y-2300D01*
X-1555Y-2270D01*
X-1570Y-2210D01*
X-1570Y-2165D01*
X-1555Y-2105D01*
X-1540Y-2075D01*
X-1510Y-2045D01*
X-1465Y-2030D01*
X-1435Y-2030D01*
X-1390Y-2045D01*
X-1375Y-2060D01*
X-1225Y-2345D02*
X-1165Y-2345D01*
X-1135Y-2330D01*
X-1120Y-2315D01*
X-1090Y-2270D01*
X-1075Y-2210D01*
X-1075Y-2090D01*
X-1090Y-2060D01*
X-1105Y-2045D01*
X-1135Y-2030D01*
X-1195Y-2030D01*
X-1225Y-2045D01*
X-1240Y-2060D01*
X-1255Y-2090D01*
X-1255Y-2165D01*
X-1240Y-2195D01*
X-1225Y-2210D01*
X-1195Y-2225D01*
X-1135Y-2225D01*
X-1105Y-2210D01*
X-1090Y-2195D01*
X-1075Y-2165D01*
X-251Y-1789D02*
X3Y-1789D01*
X33Y-1774D01*
X48Y-1759D01*
X63Y-1729D01*
X63Y-1669D01*
X48Y-1639D01*
X33Y-1624D01*
X3Y-1609D01*
X-251Y-1609D01*
X-221Y-1474D02*
X-236Y-1459D01*
X-251Y-1429D01*
X-251Y-1354D01*
X-236Y-1324D01*
X-221Y-1309D01*
X-191Y-1294D01*
X-161Y-1294D01*
X-116Y-1309D01*
X63Y-1489D01*
X63Y-1294D01*
X875Y-2748D02*
X860Y-2763D01*
X815Y-2778D01*
X785Y-2778D01*
X740Y-2763D01*
X710Y-2733D01*
X695Y-2703D01*
X680Y-2643D01*
X680Y-2598D01*
X695Y-2538D01*
X710Y-2508D01*
X740Y-2478D01*
X785Y-2463D01*
X815Y-2463D01*
X860Y-2478D01*
X875Y-2493D01*
X1175Y-2778D02*
X995Y-2778D01*
X1085Y-2778D02*
X1085Y-2463D01*
X1055Y-2508D01*
X1025Y-2538D01*
X995Y-2553D01*
X1475Y-2778D02*
X1295Y-2778D01*
X1385Y-2778D02*
X1385Y-2463D01*
X1355Y-2508D01*
X1325Y-2538D01*
X1295Y-2553D01*
G54D16*
X-3684Y1431D02*
X-3290Y1693D01*
X-3684Y1693D02*
X-3290Y1431D01*
X-3290Y2050D02*
X-3290Y1825D01*
X-3290Y1937D02*
X-3684Y1937D01*
X-3628Y1900D01*
X-3590Y1862D01*
X-3571Y1825D01*
G54D12*
X553Y1503D02*
X538Y1488D01*
X493Y1473D01*
X463Y1473D01*
X418Y1488D01*
X388Y1518D01*
X373Y1548D01*
X358Y1608D01*
X358Y1653D01*
X373Y1713D01*
X388Y1743D01*
X418Y1773D01*
X463Y1788D01*
X493Y1788D01*
X538Y1773D01*
X553Y1758D01*
X733Y1653D02*
X703Y1668D01*
X688Y1683D01*
X673Y1713D01*
X673Y1728D01*
X688Y1758D01*
X703Y1773D01*
X733Y1788D01*
X793Y1788D01*
X823Y1773D01*
X838Y1758D01*
X853Y1728D01*
X853Y1713D01*
X838Y1683D01*
X823Y1668D01*
X793Y1653D01*
X733Y1653D01*
X703Y1638D01*
X688Y1623D01*
X673Y1593D01*
X673Y1533D01*
X688Y1503D01*
X703Y1488D01*
X733Y1473D01*
X793Y1473D01*
X823Y1488D01*
X838Y1503D01*
X853Y1533D01*
X853Y1593D01*
X838Y1623D01*
X823Y1638D01*
X793Y1653D01*
X-69Y-504D02*
X-84Y-519D01*
X-129Y-534D01*
X-159Y-534D01*
X-204Y-519D01*
X-234Y-489D01*
X-249Y-459D01*
X-264Y-399D01*
X-264Y-354D01*
X-249Y-294D01*
X-234Y-264D01*
X-204Y-234D01*
X-159Y-219D01*
X-129Y-219D01*
X-84Y-234D01*
X-69Y-249D01*
X230Y-534D02*
X50Y-534D01*
X140Y-534D02*
X140Y-219D01*
X110Y-264D01*
X80Y-294D01*
X50Y-309D01*
X425Y-219D02*
X455Y-219D01*
X485Y-234D01*
X500Y-249D01*
X515Y-279D01*
X530Y-339D01*
X530Y-414D01*
X515Y-474D01*
X500Y-504D01*
X485Y-519D01*
X455Y-534D01*
X425Y-534D01*
X395Y-519D01*
X380Y-504D01*
X365Y-474D01*
X350Y-414D01*
X350Y-339D01*
X365Y-279D01*
X380Y-249D01*
X395Y-234D01*
X425Y-219D01*
X-54Y219D02*
X200Y219D01*
X230Y234D01*
X245Y249D01*
X260Y279D01*
X260Y339D01*
X245Y369D01*
X230Y384D01*
X200Y399D01*
X-54Y399D01*
X-54Y519D02*
X-54Y714D01*
X65Y609D01*
X65Y654D01*
X80Y684D01*
X95Y699D01*
X125Y714D01*
X200Y714D01*
X230Y699D01*
X245Y684D01*
X260Y654D01*
X260Y564D01*
X245Y534D01*
X230Y519D01*
X-2045Y-2424D02*
X-2150Y-2274D01*
X-2225Y-2424D02*
X-2225Y-2109D01*
X-2105Y-2109D01*
X-2075Y-2124D01*
X-2060Y-2139D01*
X-2045Y-2169D01*
X-2045Y-2214D01*
X-2060Y-2244D01*
X-2075Y-2259D01*
X-2105Y-2274D01*
X-2225Y-2274D01*
X-1940Y-2109D02*
X-1745Y-2109D01*
X-1850Y-2229D01*
X-1805Y-2229D01*
X-1775Y-2244D01*
X-1760Y-2259D01*
X-1745Y-2289D01*
X-1745Y-2364D01*
X-1760Y-2394D01*
X-1775Y-2409D01*
X-1805Y-2424D01*
X-1895Y-2424D01*
X-1925Y-2409D01*
X-1940Y-2394D01*
G54D17*
X-703Y3332D02*
X-703Y3432D01*
X-665Y3432D01*
X-656Y3427D01*
X-651Y3422D01*
X-646Y3413D01*
X-646Y3398D01*
X-651Y3389D01*
X-656Y3384D01*
X-665Y3379D01*
X-703Y3379D01*
X-551Y3332D02*
X-608Y3332D01*
X-579Y3332D02*
X-579Y3432D01*
X-589Y3417D01*
X-598Y3408D01*
X-608Y3403D01*
G54D12*
X-3635Y-3258D02*
X-3740Y-3108D01*
X-3815Y-3258D02*
X-3815Y-2943D01*
X-3695Y-2943D01*
X-3665Y-2958D01*
X-3650Y-2973D01*
X-3635Y-3003D01*
X-3635Y-3048D01*
X-3650Y-3078D01*
X-3665Y-3093D01*
X-3695Y-3108D01*
X-3815Y-3108D01*
X-3515Y-2973D02*
X-3500Y-2958D01*
X-3470Y-2943D01*
X-3395Y-2943D01*
X-3365Y-2958D01*
X-3350Y-2973D01*
X-3335Y-3003D01*
X-3335Y-3033D01*
X-3350Y-3078D01*
X-3530Y-3258D01*
X-3335Y-3258D01*
G54D15*
X-3137Y5434D02*
X-3137Y5005D01*
X-3166Y4920D01*
X-3223Y4863D01*
X-3309Y4834D01*
X-3366Y4834D01*
X-2852Y4834D02*
X-2852Y5434D01*
X-2623Y5434D01*
X-2566Y5405D01*
X-2537Y5377D01*
X-2509Y5320D01*
X-2509Y5234D01*
X-2537Y5177D01*
X-2566Y5148D01*
X-2623Y5120D01*
X-2852Y5120D01*
X-1937Y4834D02*
X-2280Y4834D01*
X-2109Y4834D02*
X-2109Y5434D01*
X-2166Y5348D01*
X-2223Y5291D01*
X-2280Y5263D01*
X-4041Y1458D02*
X-4041Y1029D01*
X-4069Y943D01*
X-4126Y886D01*
X-4212Y858D01*
X-4269Y858D01*
X-3755Y1458D02*
X-3755Y972D01*
X-3726Y915D01*
X-3698Y886D01*
X-3641Y858D01*
X-3526Y858D01*
X-3469Y886D01*
X-3441Y915D01*
X-3412Y972D01*
X-3412Y1458D01*
X-3126Y858D02*
X-3126Y1458D01*
X-2926Y1029D01*
X-2726Y1458D01*
X-2726Y858D01*
X-2441Y858D02*
X-2441Y1458D01*
X-2212Y1458D01*
X-2155Y1429D01*
X-2126Y1400D01*
X-2098Y1343D01*
X-2098Y1258D01*
X-2126Y1200D01*
X-2155Y1172D01*
X-2212Y1143D01*
X-2441Y1143D01*
X-1841Y1172D02*
X-1641Y1172D01*
X-1555Y858D02*
X-1841Y858D01*
X-1841Y1458D01*
X-1555Y1458D01*
X-955Y858D02*
X-1155Y1143D01*
X-1298Y858D02*
X-1298Y1458D01*
X-1069Y1458D01*
X-1012Y1429D01*
X-984Y1400D01*
X-955Y1343D01*
X-955Y1258D01*
X-984Y1200D01*
X-1012Y1172D01*
X-1069Y1143D01*
X-1298Y1143D01*
G54D12*
X-2335Y2488D02*
X-2440Y2638D01*
X-2515Y2488D02*
X-2515Y2803D01*
X-2395Y2803D01*
X-2365Y2788D01*
X-2350Y2773D01*
X-2335Y2743D01*
X-2335Y2698D01*
X-2350Y2668D01*
X-2365Y2653D01*
X-2395Y2638D01*
X-2515Y2638D01*
X-2065Y2698D02*
X-2065Y2488D01*
X-2140Y2818D02*
X-2215Y2593D01*
X-2020Y2593D01*
M02*
