G04 (created by PCBNEW (22-Jun-2014 BZR 4027)-stable) date Thu 04 Dec 2014 22:27:19 CET*
%MOIN*%
G04 Gerber Fmt 3.4, Leading zero omitted, Abs format*
%FSLAX34Y34*%
G01*
G70*
G90*
G04 APERTURE LIST*
%ADD10C,0.00590551*%
%ADD11C,0.023811*%
%ADD12O,0.1498X0.0711*%
%ADD13R,0.0907X0.0592*%
%ADD14C,0.0553*%
%ADD15C,0.0454646*%
%ADD16R,0.0454646X0.0454646*%
%ADD17C,0.0551181*%
G04 APERTURE END LIST*
G54D10*
G36*
X-215Y-3190D02*
X-550Y-3190D01*
X-550Y-2659D01*
X-215Y-2659D01*
X-215Y-3190D01*
X-215Y-3190D01*
G37*
G36*
X276Y-3190D02*
X-58Y-3190D01*
X-58Y-2659D01*
X276Y-2659D01*
X276Y-3190D01*
X276Y-3190D01*
G37*
G36*
X-717Y-3190D02*
X-1052Y-3190D01*
X-1052Y-2659D01*
X-717Y-2659D01*
X-717Y-3190D01*
X-717Y-3190D01*
G37*
G36*
X-1219Y-3190D02*
X-1554Y-3190D01*
X-1554Y-2659D01*
X-1219Y-2659D01*
X-1219Y-3190D01*
X-1219Y-3190D01*
G37*
G36*
X-1721Y-3190D02*
X-2056Y-3190D01*
X-2056Y-2659D01*
X-1721Y-2659D01*
X-1721Y-3190D01*
X-1721Y-3190D01*
G37*
G36*
X-2223Y-3190D02*
X-2558Y-3190D01*
X-2558Y-2659D01*
X-2223Y-2659D01*
X-2223Y-3190D01*
X-2223Y-3190D01*
G37*
G36*
X1072Y-2344D02*
X817Y-2344D01*
X817Y-1753D01*
X1072Y-1753D01*
X1072Y-2344D01*
X1072Y-2344D01*
G37*
G36*
X1072Y-1556D02*
X817Y-1556D01*
X817Y-965D01*
X1072Y-965D01*
X1072Y-1556D01*
X1072Y-1556D01*
G37*
G36*
X-3769Y-1556D02*
X-4024Y-1556D01*
X-4024Y-965D01*
X-3769Y-965D01*
X-3769Y-1556D01*
X-3769Y-1556D01*
G37*
G36*
X-3769Y-2344D02*
X-4024Y-2344D01*
X-4024Y-1753D01*
X-3769Y-1753D01*
X-3769Y-2344D01*
X-3769Y-2344D01*
G37*
G36*
X1240Y2085D02*
X611Y2085D01*
X611Y2832D01*
X1240Y2832D01*
X1240Y2085D01*
X1240Y2085D01*
G37*
G36*
X-3562Y2125D02*
X-4191Y2125D01*
X-4191Y2872D01*
X-3562Y2872D01*
X-3562Y2125D01*
X-3562Y2125D01*
G37*
G36*
X-306Y2105D02*
X-597Y2105D01*
X-597Y2498D01*
X-306Y2498D01*
X-306Y2105D01*
X-306Y2105D01*
G37*
G36*
X-2314Y2105D02*
X-2605Y2105D01*
X-2605Y2498D01*
X-2314Y2498D01*
X-2314Y2105D01*
X-2314Y2105D01*
G37*
G54D11*
X-1673Y-531D03*
X-1279Y-531D03*
X-2067Y-531D03*
X-2067Y-137D03*
X-1673Y-137D03*
X-1279Y-137D03*
X-1279Y-925D03*
X-1673Y-925D03*
X-2067Y-925D03*
G54D10*
G36*
X-4623Y-627D02*
X-4326Y-627D01*
X-4326Y-944D01*
X-4623Y-944D01*
X-4623Y-627D01*
X-4623Y-627D01*
G37*
G36*
X-4623Y-27D02*
X-4326Y-27D01*
X-4326Y-344D01*
X-4623Y-344D01*
X-4623Y-27D01*
X-4623Y-27D01*
G37*
G36*
X-4303Y-627D02*
X-4006Y-627D01*
X-4006Y-944D01*
X-4303Y-944D01*
X-4303Y-627D01*
X-4303Y-627D01*
G37*
G36*
X-4303Y-27D02*
X-4006Y-27D01*
X-4006Y-344D01*
X-4303Y-344D01*
X-4303Y-27D01*
X-4303Y-27D01*
G37*
G54D12*
X2652Y2245D03*
X2652Y-2243D03*
G54D13*
X1825Y-393D03*
X1825Y401D03*
X1825Y-1377D03*
X1825Y1379D03*
G54D14*
X2652Y-885D03*
X2652Y887D03*
G54D15*
X-829Y2872D03*
X-429Y2872D03*
G54D16*
X-1229Y2472D03*
G54D15*
X-29Y2872D03*
G54D17*
X-2598Y2754D03*
X-2007Y2754D03*
M02*
