M48
;DRILL file {Pcbnew (2013-07-07 BZR 4022)-stable} date 02/03/2014 17:35:47
;FORMAT={-:-/ absolute / inch / decimal}
FMAT,2
INCH,TZ
T1C0.012
T2C0.013
T3C0.015
T4C0.020
T5C0.039
T6C0.043
%
G90
G05
M72
T1
X-0.2067Y-0.0137
X-0.2067Y-0.0531
X-0.2067Y-0.0925
X-0.1673Y-0.0137
X-0.1673Y-0.0531
X-0.1673Y-0.0925
X-0.1279Y-0.0137
X-0.1279Y-0.0531
X-0.1279Y-0.0925
T2
X-0.123Y0.2473
X-0.083Y0.2873
X-0.043Y0.2873
X-0.003Y0.2873
T3
X-0.442Y0.0655
X-0.412Y0.0635
X-0.38Y0.0795
X-0.326Y-0.1485
X-0.306Y0.0815
X-0.284Y0.0535
X-0.19Y0.1735
X-0.188Y0.0875
X-0.128Y0.1355
X-0.128Y0.1075
X-0.122Y0.1975
X-0.026Y0.1595
X-0.022Y0.1235
X-0.014Y-0.1125
X0.018Y-0.2245
X0.0225Y0.095
X0.025Y-0.04
X0.026Y0.2335
X0.026Y0.1395
X0.058Y-0.1225
X0.0875Y0.015
X0.25Y0.04
X0.25Y-0.04
X0.254Y-0.1405
X0.256Y0.1495
T4
X-0.2598Y0.2755
X-0.2008Y0.2755
T6
X0.2652Y0.0887
X0.2652Y-0.0885
T5
X0.2947Y0.2245G85X0.2357Y0.2245
G05
X0.2947Y-0.2243G85X0.2357Y-0.2243
G05
T0
M30
